<?xml version="1.0" encoding="UTF-8" standalone="no"?>
<!-- Generator: Adobe Illustrator 19.0.0, SVG Export Plug-In . SVG Version: 6.00 Build 0)  -->

<svg
   version="1.1"
   id="Capa_1"
   x="0px"
   y="0px"
   viewBox="0 0 20 20"
   xml:space="preserve"
   sodipodi:docname="barometer.svg"
   inkscape:version="1.1.1 (3bf5ae0d25, 2021-09-20)"
   width="20"
   height="20"
   xmlns:inkscape="http://www.inkscape.org/namespaces/inkscape"
   xmlns:sodipodi="http://sodipodi.sourceforge.net/DTD/sodipodi-0.dtd"
   xmlns="http://www.w3.org/2000/svg"
   xmlns:svg="http://www.w3.org/2000/svg"><defs
   id="defs920" /><sodipodi:namedview
   id="namedview918"
   pagecolor="#ffffff"
   bordercolor="#666666"
   borderopacity="1.0"
   inkscape:pageshadow="2"
   inkscape:pageopacity="0.0"
   inkscape:pagecheckerboard="0"
   showgrid="false"
   inkscape:zoom="26.551108"
   inkscape:cx="16.119855"
   inkscape:cy="14.217862"
   inkscape:window-width="2400"
   inkscape:window-height="1321"
   inkscape:window-x="2391"
   inkscape:window-y="-9"
   inkscape:window-maximized="1"
   inkscape:current-layer="Capa_1" />
<g
   id="g885"
   transform="matrix(0.04192665,0,0,0.04208027,0.18020041,0.11301258)"
   style="fill:#bebfb9;fill-opacity:0.585122;stroke:#272727;stroke-width:3.19396;stroke-miterlimit:4;stroke-dasharray:none;stroke-opacity:0.9">
	<path
   d="M 401.17,68.83 C 356.785,24.444 297.771,0 235,0 172.229,0 113.215,24.444 68.83,68.83 24.444,113.216 0,172.229 0,235 0,297.771 24.444,356.784 68.83,401.17 113.215,445.556 172.229,470 235,470 297.771,470 356.785,445.556 401.17,401.17 445.556,356.784 470,297.771 470,235 470,172.229 445.556,113.216 401.17,68.83 Z M 235,455 C 113.691,455 15,356.309 15,235 15,113.691 113.691,15 235,15 c 121.309,0 220,98.691 220,220 0,121.309 -98.691,220 -220,220 z"
   id="path873"
   style="fill:#bebfb9;fill-opacity:0.585122;stroke:#272727;stroke-width:3.19396;stroke-miterlimit:4;stroke-dasharray:none;stroke-opacity:0.9" />
	<path
   d="M 235,30 C 121.962,30 30,121.963 30,235 30,348.037 121.962,440 235,440 348.038,440 440,348.037 440,235 440,121.963 348.038,30 235,30 Z m 0,395 C 130.234,425 45,339.767 45,235 45,130.233 130.234,45 235,45 c 104.766,0 190,85.233 190,190 0,104.767 -85.234,190 -190,190 z"
   id="path875"
   style="fill:#bebfb9;fill-opacity:0.585122;stroke:#272727;stroke-width:3.19396;stroke-miterlimit:4;stroke-dasharray:none;stroke-opacity:0.9" />
	<path
   d="m 369.968,157.838 c -0.092,-0.198 -0.19,-0.395 -0.301,-0.588 -0.136,-0.235 -0.283,-0.458 -0.439,-0.673 -13.509,-23.033 -32.772,-42.296 -55.805,-55.805 -0.214,-0.156 -0.438,-0.304 -0.673,-0.439 -0.193,-0.111 -0.389,-0.208 -0.587,-0.301 C 289.41,86.974 263.062,79.5 235,79.5 c -28.063,0 -54.412,7.474 -77.165,20.534 -0.197,0.092 -0.393,0.189 -0.585,0.299 -0.235,0.136 -0.458,0.283 -0.673,0.439 -23.033,13.509 -42.296,32.772 -55.805,55.805 -0.156,0.214 -0.304,0.438 -0.439,0.673 -0.111,0.193 -0.209,0.39 -0.301,0.588 C 86.974,180.59 79.5,206.938 79.5,235 c 0,27.312 7.215,54.195 20.873,77.762 0.385,0.66 3.967,6.332 11.159,2.183 l 20.697,-11.949 c 3.587,-2.071 4.816,-6.658 2.745,-10.245 -2.071,-3.588 -6.658,-4.815 -10.245,-2.745 0,0 -8.613,4.973 -14.966,8.641 -8.874,-17.413 -14.004,-36.571 -15.052,-56.146 H 112 c 4.142,0 7.5,-3.357 7.5,-7.5 0,-4.143 -3.358,-7.5 -7.5,-7.5 H 94.701 c 1.063,-20.119 6.379,-39.128 15.062,-56.146 l 14.966,8.641 c 1.181,0.682 2.471,1.006 3.743,1.006 2.592,0 5.113,-1.345 6.502,-3.751 2.071,-3.587 0.842,-8.174 -2.745,-10.245 l -14.94,-8.625 c 10.696,-16.377 24.713,-30.394 41.09,-41.09 l 8.625,14.939 c 1.389,2.406 3.91,3.751 6.502,3.751 1.272,0 2.562,-0.324 3.743,-1.006 3.587,-2.071 4.816,-6.658 2.745,-10.245 l -8.641,-14.966 C 188.37,101.081 207.38,95.765 227.498,94.702 V 112 c 0,4.143 3.358,7.5 7.5,7.5 4.142,0 7.5,-3.357 7.5,-7.5 V 94.701 c 20.119,1.063 39.128,6.379 56.145,15.062 l -8.641,14.966 c -2.071,3.587 -0.842,8.174 2.745,10.245 1.181,0.682 2.471,1.006 3.743,1.006 2.592,0 5.113,-1.345 6.502,-3.751 l 8.625,-14.939 c 16.377,10.697 30.394,24.713 41.09,41.09 l -14.94,8.625 c -3.587,2.071 -4.816,6.658 -2.745,10.245 1.389,2.406 3.91,3.751 6.502,3.751 1.272,0 2.562,-0.324 3.743,-1.006 l 14.966,-8.641 c 8.683,17.017 13.998,36.027 15.062,56.146 H 358 c -4.142,0 -7.5,3.357 -7.5,7.5 0,4.143 3.358,7.5 7.5,7.5 h 17.29 c -1.048,19.561 -6.172,38.723 -15.034,56.156 l -14.984,-8.651 c -3.588,-2.071 -8.174,-0.843 -10.245,2.745 -2.071,3.587 -0.842,8.174 2.745,10.245 l 21.651,12.5 c 1.181,0.682 2.47,1.006 3.743,1.006 2.59,0 5.11,-1.344 6.5,-3.748 13.63,-23.58 20.835,-50.467 20.835,-77.753 -10e-4,-28.062 -7.475,-54.41 -20.533,-77.162 z"
   id="path877"
   style="fill:#bebfb9;fill-opacity:0.585122;stroke:#272727;stroke-width:3.19396;stroke-miterlimit:4;stroke-dasharray:none;stroke-opacity:0.9" />
	<path
   d="m 260.554,189.15 c -3.618,-2.01 -8.179,-0.71 -10.192,2.904 l -11.582,20.769 c -1.23,-0.209 -2.491,-0.324 -3.78,-0.324 -12.407,0 -22.5,10.094 -22.5,22.5 0,1.404 0.136,2.776 0.383,4.109 l -62.173,35.896 c -3.587,2.071 -4.816,6.658 -2.745,10.245 1.389,2.406 3.91,3.751 6.502,3.751 1.272,0 2.562,-0.324 3.743,-1.006 l 62.184,-35.902 c 3.934,3.367 9.035,5.407 14.607,5.407 9.66,0 17.915,-6.12 21.098,-14.685 l 23.775,0.354 c 0.038,0.001 0.076,0.001 0.114,0.001 4.085,0 7.429,-3.277 7.497,-7.376 0.157,-9.47 -2.27,-18.821 -7.018,-27.045 -4.748,-8.221 -11.634,-14.998 -19.913,-19.598 z M 235,242.5 c -4.136,0 -7.5,-3.364 -7.5,-7.5 0,-4.136 3.364,-7.5 7.5,-7.5 1.302,0 2.528,0.335 3.596,0.921 0.019,0.011 0.035,0.023 0.054,0.034 2.297,1.29 3.85,3.738 3.85,6.545 0,0.032 -0.004,0.064 -0.005,0.096 -0.063,4.101 -3.398,7.404 -7.495,7.404 z m 21.317,-14.683 c -0.966,-2.858 -2.489,-5.461 -4.443,-7.677 l 7.571,-13.576 c 3.188,2.737 5.908,6.009 8.031,9.686 2.123,3.678 3.596,7.669 4.373,11.799 z"
   id="path879"
   style="fill:#bebfb9;fill-opacity:0.585122;stroke:#272727;stroke-width:3.19396;stroke-miterlimit:4;stroke-dasharray:none;stroke-opacity:0.9" />
	<path
   d="m 261.147,375.5 h -52.294 c -4.142,0 -7.5,3.357 -7.5,7.5 0,4.143 3.358,7.5 7.5,7.5 h 52.294 c 4.142,0 7.5,-3.357 7.5,-7.5 0,-4.143 -3.358,-7.5 -7.5,-7.5 z"
   id="path881"
   style="fill:#bebfb9;fill-opacity:0.585122;stroke:#272727;stroke-width:3.19396;stroke-miterlimit:4;stroke-dasharray:none;stroke-opacity:0.9" />
	<path
   d="m 251.147,360.5 c 4.142,0 7.5,-3.357 7.5,-7.5 0,-4.143 -3.358,-7.5 -7.5,-7.5 h -32.294 c -4.142,0 -7.5,3.357 -7.5,7.5 0,4.143 3.358,7.5 7.5,7.5 z"
   id="path883"
   style="fill:#bebfb9;fill-opacity:0.585122;stroke:#272727;stroke-width:3.19396;stroke-miterlimit:4;stroke-dasharray:none;stroke-opacity:0.9" />
</g>
<g
   id="g887">
</g>
<g
   id="g889">
</g>
<g
   id="g891">
</g>
<g
   id="g893">
</g>
<g
   id="g895">
</g>
<g
   id="g897">
</g>
<g
   id="g899">
</g>
<g
   id="g901">
</g>
<g
   id="g903">
</g>
<g
   id="g905">
</g>
<g
   id="g907">
</g>
<g
   id="g909">
</g>
<g
   id="g911">
</g>
<g
   id="g913">
</g>
<g
   id="g915">
</g>
<path
   style="fill:#c2c7ad;fill-opacity:1;stroke:#dedede;stroke-width:0.0104283;stroke-opacity:0.9"
   d="M 9.6421197,19.242814 C 8.0492574,19.1452 6.721724,18.75477 5.420494,18.001231 3.3855563,16.822799 1.8327158,14.830955 1.1814937,12.563817 0.45998772,10.051997 0.83806509,7.3268521 2.2140533,5.1212267 2.847446,4.1059388 3.7095822,3.1813575 4.6648218,2.4929482 5.9809502,1.5444581 7.5189054,0.96404101 9.1620759,0.79570712 c 0.391098,-0.0400678 1.3542121,-0.040508 1.7433171,-7.9975e-4 1.900523,0.19393853 3.627182,0.92713773 5.07667,2.15573393 1.288447,1.0920964 2.284414,2.5759607 2.810008,4.1865549 0.461761,1.4149909 0.570879,2.9955788 0.309861,4.4883748 -0.389703,2.228758 -1.622524,4.26653 -3.441577,5.688704 -1.331475,1.040976 -2.94877,1.69578 -4.641267,1.87914 -0.353938,0.03835 -1.1130181,0.06558 -1.3769683,0.04941 z m 1.3390693,-0.658161 c 1.395456,-0.157687 2.64683,-0.613233 3.802096,-1.384105 0.517967,-0.345625 0.861305,-0.629472 1.3281,-1.097975 0.582002,-0.584135 1.008506,-1.139734 1.401776,-1.826068 1.380146,-2.408618 1.495585,-5.4359183 0.303678,-7.9637762 C 17.38906,5.4054719 16.853417,4.6491957 16.110531,3.9035881 15.630659,3.421956 15.278765,3.1312365 14.758377,2.7864932 12.384811,1.2140661 9.391509,0.92577473 6.7507295,2.0152678 5.0055558,2.7352626 3.4929175,4.0730305 2.5506116,5.7298198 1.2967536,7.9343944 1.0804831,10.632939 1.9663312,13.020262 c 0.3081214,0.830372 0.7877787,1.674453 1.3617402,2.396334 0.2857572,0.359404 0.9558553,1.031632 1.3114851,1.315659 1.8180085,1.451971 4.0682938,2.109281 6.3416325,1.852398 z"
   id="path1778" /><path
   style="fill:#48a9c7;fill-opacity:1;stroke:#dedede;stroke-width:0;stroke-miterlimit:4;stroke-dasharray:none;stroke-opacity:0.9"
   d="M 9.614064,17.990551 C 7.6189585,17.851027 5.9108018,17.096606 4.5134326,15.737818 3.518267,14.770126 2.7980998,13.577159 2.4129652,12.258359 1.6850362,9.7657407 2.2077067,7.102064 3.8275173,5.0493974 4.0973871,4.7074116 4.7508053,4.0515994 5.091543,3.7807378 5.6251243,3.3565857 6.2672903,2.9680674 6.8727594,2.7030828 8.6637767,1.9192373 10.672153,1.8254062 12.523586,2.4390734 c 3.588488,1.1894222 5.858448,4.7615227 5.413401,8.5187516 -0.346103,2.921912 -2.285993,5.428308 -5.033342,6.50322 -1.028676,0.402478 -2.263609,0.601256 -3.289581,0.529506 z m 1.7076,-1.470398 c 0.187572,-0.123354 0.179235,-0.453399 -0.01398,-0.553684 -0.110994,-0.05761 -2.4172094,-0.05761 -2.5282022,0 -0.091239,0.04735 -0.1507663,0.157481 -0.1507663,0.278916 0,0.112036 0.034239,0.184596 0.1223918,0.259388 l 0.067101,0.05693 1.2199467,1.18e-4 c 1.090824,8.5e-5 1.226677,-0.0043 1.283515,-0.04168 z m -0.485655,-1.235708 c 0.09753,-0.04091 0.183089,-0.14131 0.204748,-0.240288 0.02414,-0.110285 -0.03825,-0.260347 -0.135574,-0.326075 -0.08479,-0.05727 -0.09535,-0.05799 -0.859025,-0.05789 -0.7309351,8.4e-5 -0.7777473,0.0029 -0.8568111,0.05128 -0.2145865,0.131307 -0.1983831,0.442691 0.028903,0.555611 0.098814,0.04909 0.1489735,0.0523 0.8198151,0.05231 0.550134,1.8e-5 0.733747,-0.008 0.797937,-0.03494 z M 5.2936669,13.153209 c 0.5303488,-0.307337 0.6064512,-0.375689 0.606277,-0.544522 -2.061e-4,-0.192339 -0.172104,-0.349754 -0.355055,-0.325124 -0.053951,0.0073 -0.2331921,0.09399 -0.4190845,0.202778 L 4.8009901,12.676427 4.7472869,12.571528 C 4.6379382,12.357921 4.4592942,11.873746 4.3724398,11.555585 4.2856161,11.237535 4.182399,10.635782 4.1821205,10.446031 l -1.38e-4,-0.09339 0.4151235,-0.008 c 0.4753059,-0.0092 0.5274725,-0.02848 0.594717,-0.219547 0.032653,-0.09277 0.032653,-0.118179 0,-0.2109513 C 5.1244774,9.7227501 5.0728069,9.7037837 4.5936185,9.6945213 L 4.1750087,9.6864364 4.1918543,9.4789835 C 4.2416277,8.8658806 4.4485752,8.0933357 4.7072517,7.5549502 L 4.8009896,7.3598539 5.1241883,7.5503815 C 5.4805497,7.7604554 5.5663395,7.7868003 5.7048792,7.7287024 5.8370643,7.6732638 5.9055628,7.5534219 5.8924407,7.4005454 5.8786013,7.2392835 5.8336556,7.1957431 5.4554099,6.9771891 5.2830742,6.8776113 5.1420734,6.7880318 5.1420734,6.7781229 c 0,-0.061088 0.4671857,-0.6286789 0.756334,-0.9188879 C 6.2192929,5.5371744 6.7672742,5.0901984 6.8197166,5.10774 6.8326006,5.11204 6.9202913,5.2510555 7.0145882,5.4166377 7.1088822,5.5822199 7.2140165,5.7457828 7.2482194,5.78011 7.3360334,5.868244 7.524071,5.8831308 7.6385599,5.81101 7.7379364,5.7484097 7.805067,5.6036212 7.7868786,5.4911214 7.7797147,5.4468205 7.6882392,5.2637033 7.5835957,5.0841876 L 7.3933363,4.7577878 7.5878268,4.6637061 C 8.1247728,4.4039675 8.8941291,4.1963759 9.5049389,4.1464218 L 9.711633,4.12952 9.719693,4.5496628 c 0.00923,0.4809444 0.028128,0.5328052 0.2187918,0.6003957 0.092433,0.032769 0.1177472,0.032769 0.2101792,0 0.190653,-0.067585 0.209563,-0.1194668 0.218788,-0.6002411 l 0.0081,-0.4199869 0.218294,0.017789 c 0.611231,0.049772 1.488368,0.2941081 1.988654,0.5539523 l 0.108265,0.05623 -0.190189,0.3273782 c -0.221478,0.3812384 -0.246829,0.4845251 -0.152961,0.623178 0.08108,0.119766 0.159685,0.1567538 0.306909,0.1444159 0.157833,-0.013226 0.196729,-0.053803 0.416632,-0.4346511 0.09631,-0.1668047 0.185159,-0.3066417 0.19743,-0.3107473 0.05184,-0.017345 0.603125,0.4332658 0.919593,0.7516511 0.289375,0.2911296 0.756936,0.8588594 0.756936,0.9191015 0,0.00991 -0.141002,0.099489 -0.313336,0.1990668 -0.401779,0.23213 -0.432036,0.2640584 -0.432036,0.4558811 0,0.170613 0.05851,0.2567266 0.208101,0.3062766 0.129099,0.042763 0.20044,0.018341 0.555314,-0.1900182 l 0.323001,-0.1896553 0.09141,0.1951857 c 0.270179,0.5769217 0.466051,1.3086286 0.518464,1.9367992 l 0.01625,0.1947724 -0.418683,0.00808 c -0.47927,0.00926 -0.530929,0.028227 -0.598277,0.2195958 -0.03266,0.092769 -0.03266,0.1181778 0,0.2109478 0.06724,0.191076 0.119411,0.210334 0.594717,0.219548 l 0.415123,0.008 -4.91e-4,0.08071 c -7.29e-4,0.135027 -0.06853,0.59839 -0.126332,0.86463 -0.06993,0.322093 -0.219907,0.776744 -0.368733,1.11782 -0.112893,0.258725 -0.118888,0.266913 -0.170756,0.233232 -0.02956,-0.0192 -0.178237,-0.106834 -0.330384,-0.194753 -0.327603,-0.189297 -0.436733,-0.212732 -0.569394,-0.122258 -0.120031,0.08186 -0.156203,0.160076 -0.143642,0.310606 0.0082,0.09847 0.02602,0.139239 0.08318,0.190476 0.09261,0.08301 0.986261,0.6003 1.076199,0.622956 0.09666,0.02434 0.23478,-0.02908 0.311389,-0.120461 0.139946,-0.166928 0.455349,-0.865422 0.604209,-1.338092 0.205687,-0.653109 0.29292,-1.248167 0.29292,-1.9981391 0,-1.0264959 -0.211531,-1.9473446 -0.656508,-2.8579295 -0.941119,-1.925874 -2.743945,-3.2618916 -4.858893,-3.6007685 -0.562366,-0.090109 -1.4463407,-0.090109 -2.0087059,0 C 8.3858904,3.6453571 7.772531,3.8411812 7.1759383,4.1355535 5.849239,4.7901776 4.8279722,5.8150285 4.1805645,7.1414443 3.786467,7.9488747 3.5766415,8.7494326 3.5270847,9.6347042 c -0.063424,1.1330308 0.149362,2.2183758 0.6319771,3.2234448 0.096702,0.201389 0.2054199,0.405106 0.2415948,0.452707 0.083363,0.109697 0.1968472,0.161546 0.3119037,0.142503 0.048635,-0.008 0.3101334,-0.143114 0.5811053,-0.300144 z m 2.8148734,-1.630232 1.3115779,-0.760821 0.1159218,0.07166 c 0.1277026,0.07894 0.3669998,0.149367 0.507538,0.149367 0.336027,0 0.710193,-0.233318 0.852036,-0.5313 l 0.04313,-0.0906 0.521734,0.0095 c 0.456767,0.0083 0.533307,0.0039 0.614681,-0.03479 0.139059,-0.06623 0.17791,-0.160964 0.171207,-0.4174517 C 12.228196,9.223384 11.850295,8.5515776 11.2594,8.1639771 11.11274,8.0677721 11.050776,8.0417138 10.968848,8.0417897 c -0.184324,1.23e-4 -0.233379,0.053369 -0.516563,0.5601309 l -0.260834,0.4667743 -0.181313,0.00309 C 9.742817,9.0763235 9.5632129,9.1533044 9.3718334,9.3453858 9.1770903,9.5408424 9.1024637,9.718301 9.0987124,9.9948636 l -0.00258,0.1908164 -1.3334335,0.772532 c -1.2658234,0.733358 -1.3359656,0.777773 -1.3832895,0.875889 -0.060412,0.125253 -0.060713,0.135146 -0.00813,0.267042 0.056053,0.140599 0.1629228,0.206736 0.3119976,0.193083 0.09371,-0.0086 0.3442343,-0.144146 1.4252722,-0.771232 z"
   id="path1817" /><path
   style="fill:#48a9c7;fill-opacity:1;stroke:#dedede;stroke-width:0.0104283;stroke-opacity:0.9"
   d="M 10.906409,9.6081308 C 10.88575,9.5585056 10.845017,9.4843184 10.815894,9.443264 l -0.05296,-0.074641 0.107557,-0.1964862 c 0.05915,-0.1080659 0.127588,-0.2299381 0.152066,-0.2708225 l 0.04451,-0.074342 0.103144,0.1123772 c 0.144447,0.157376 0.24058,0.313795 0.315288,0.5130023 0.09727,0.2593739 0.110244,0.2460032 -0.238685,0.2460032 h -0.302846 z"
   id="path1856" /><path
   style="fill:#48a9c7;fill-opacity:1;stroke:#dedede;stroke-width:0.0104283;stroke-opacity:0.9"
   d="M 9.8896849,10.25726 C 9.8026609,10.204 9.7305492,10.088631 9.7305492,10.002654 c 0,-0.1363422 0.1642928,-0.303984 0.2981238,-0.3042024 0.14303,-2.433e-4 0.308058,0.1627276 0.308058,0.3042024 0,0.141472 -0.165028,0.304435 -0.308058,0.304201 -0.031953,-4.3e-5 -0.094501,-0.02239 -0.1389881,-0.04959 z"
   id="path1895" /></svg>
