<?xml version="1.0" encoding="UTF-8" standalone="no"?>
<!-- Created with Inkscape (http://www.inkscape.org/) -->

<svg
   width="28.5"
   height="28.5"
   viewBox="0 0 7.5406248 7.5406254"
   version="1.1"
   id="svg3335"
   inkscape:version="1.1.1 (3bf5ae0d25, 2021-09-20)"
   sodipodi:docname="hurricaneWind.svg"
   xmlns:inkscape="http://www.inkscape.org/namespaces/inkscape"
   xmlns:sodipodi="http://sodipodi.sourceforge.net/DTD/sodipodi-0.dtd"
   xmlns="http://www.w3.org/2000/svg"
   xmlns:svg="http://www.w3.org/2000/svg">
  <sodipodi:namedview
     id="namedview3337"
     pagecolor="#ffffff"
     bordercolor="#666666"
     borderopacity="1.0"
     inkscape:pageshadow="2"
     inkscape:pageopacity="0.0"
     inkscape:pagecheckerboard="0"
     inkscape:document-units="mm"
     showgrid="false"
     units="px"
     inkscape:zoom="24.573288"
     inkscape:cx="24.050506"
     inkscape:cy="16.542353"
     inkscape:window-width="2400"
     inkscape:window-height="1321"
     inkscape:window-x="2391"
     inkscape:window-y="-9"
     inkscape:window-maximized="1"
     inkscape:current-layer="layer1" />
  <defs
     id="defs3332" />
  <g
     inkscape:label="Слой 1"
     inkscape:groupmode="layer"
     id="layer1">
    <path
       style="fill:#6285ac;fill-opacity:1;stroke:#e4e7e7;stroke-width:0.109925;stroke-miterlimit:4;stroke-dasharray:none;stroke-opacity:0.9"
       d="M 4.5901186,7.4255411 C 4.4622589,7.3959918 4.3095552,7.3317552 4.2078944,7.2647505 4.0350825,7.1508505 3.8778269,6.9615619 3.8066967,6.7818287 3.7637361,6.6732754 3.7360882,6.4810455 3.7497165,6.3856587 l 0.00455,-0.03186 0.2681261,0.0281 0.2681262,0.0281 0.00259,0.016807 c 0.00142,0.00924 0.00145,0.025087 7.34e-5,0.035207 -0.0048,0.035063 0.00989,0.1075893 0.034913,0.1723803 0.036358,0.094156 0.1193988,0.186973 0.2199345,0.2458255 0.1588017,0.092961 0.3336493,0.1112588 0.513701,0.053757 0.067126,-0.021435 0.096935,-0.036385 0.1609904,-0.080722 C 5.3524593,6.7634429 5.4146342,6.6650616 5.4359538,6.5158423 5.449201,6.4231226 5.440361,6.3558184 5.4031319,6.265916 5.3570651,6.1546709 5.2362081,6.0416818 5.1097882,5.9916668 5.045673,5.9663019 4.5826447,5.9123744 3.0112622,5.7472603 L 1.5782811,5.596681 1.6124163,5.3577583 1.6465515,5.1188359 3.406394,5.3032505 5.1662363,5.487665 5.2639783,5.523006 c 0.2232723,0.08073 0.366191,0.1767969 0.501526,0.3371163 C 5.8956472,6.014291 5.9661011,6.1780838 5.9870871,6.3752624 5.9988621,6.4858818 5.9730561,6.6659583 5.9301851,6.7722722 5.8546106,6.9597134 5.7379037,7.1038036 5.5604243,7.228794 5.3691441,7.3635042 5.1759276,7.4318911 4.9393959,7.4486007 c -0.095114,0.00672 -0.2705257,-0.00486 -0.3492802,-0.02306 z"
       id="path2995" />
    <path
       style="fill:#6285ac;fill-opacity:1;stroke:#e4e7e7;stroke-width:0.115423;stroke-miterlimit:4;stroke-dasharray:none;stroke-opacity:0.9"
       d="M 0.72955462,5.214937 0.75586789,4.9826647 1.0606539,5.0262056 1.3654399,5.0697465 1.3391264,5.3020187 1.3128129,5.5342909 1.0080268,5.49075 0.70324102,5.4472091 Z"
       id="path3034"
       inkscape:transform-center-x="-0.038118788"
       inkscape:transform-center-y="-0.062062393" />
    <path
       style="fill:#6285ac;fill-opacity:1;stroke:#e4e7e7;stroke-width:0.125862;stroke-miterlimit:4;stroke-dasharray:none;stroke-opacity:0.9"
       d="m 6.3504362,5.8550754 7.7e-6,-0.3212635 0.1703266,-0.0071 c 0.1634971,-0.00681 0.1722447,-0.00817 0.2181622,-0.03415 0.060258,-0.034081 0.1051533,-0.087418 0.1351437,-0.1605511 0.02106,-0.051355 0.023401,-0.066766 0.023398,-0.1539902 C 6.8974703,5.0907387 6.8952181,5.0760025 6.8749125,5.029881 6.8449886,4.9619477 6.7993015,4.9088501 6.7399151,4.8729984 l -0.04863,-0.029359 -1.5744843,-2.4e-6 C 4.250835,4.8436349 2.7901403,4.8407293 1.8708131,4.837185 L 0.19930839,4.8307345 V 4.5124948 4.194255 H 3.4717269 6.7441453 l 0.080721,0.030131 C 6.9771475,4.2812269 7.0825457,4.3525054 7.1798821,4.4644739 7.2859668,4.5865066 7.3564734,4.7200896 7.4030354,4.8872586 7.5279404,5.3357008 7.3457979,5.8466665 6.9834643,6.0643038 6.8471636,6.1461732 6.7434425,6.1691994 6.4902346,6.1737993 l -0.1398063,0.00254 z"
       id="path2956" />
    <path
       style="fill:#6285ac;fill-opacity:1;stroke:#e4e7e7;stroke-width:0.102787;stroke-miterlimit:4;stroke-dasharray:none;stroke-opacity:0.9"
       d="m 6.461586,2.6625819 -7.197e-4,0.2382055 0.1523218,0.00595 c 0.1463529,0.0057 0.1540045,0.00676 0.1952764,0.026379 0.083577,0.03974 0.1352869,0.1147869 0.1427973,0.2072411 0.0043,0.052951 -0.00897,0.1153714 -0.032537,0.1531458 -0.023547,0.037725 -0.072021,0.081624 -0.1126165,0.1019866 l -0.041584,0.020859 -0.6478908,-0.00283 c -0.3563402,-0.00155 -0.9883396,-0.00216 -1.4044437,-0.00133 l -0.756553,0.00149 -7.129e-4,0.237028 -7.128e-4,0.2370367 1.2971839,0.00516 c 0.7134509,0.00285 1.3657696,0.00287 1.449597,6.25e-5 0.1390291,-0.00465 0.1575169,-0.00683 0.2105293,-0.024757 0.168615,-0.057043 0.3111409,-0.1631528 0.400067,-0.297857 0.042512,-0.064378 0.063522,-0.1072705 0.091818,-0.1872956 L 7.4276108,3.3145832 7.428317,3.1702034 C 7.4290919,3.0123827 7.4264848,2.9970313 7.3789765,2.8839624 7.3281416,2.7628747 7.2203501,2.6297861 7.1159275,2.5591826 7.0499132,2.514546 6.9467941,2.4672293 6.8755703,2.4488897 6.8239619,2.4355991 6.7863744,2.4324092 6.6382785,2.4287368 L 6.4623078,2.424386 6.4615881,2.6625886 Z"
       id="path2917" />
    <path
       style="fill:#6285ac;fill-opacity:1;stroke:#e4e7e7;stroke-width:0.0909187;stroke-miterlimit:4;stroke-dasharray:none;stroke-opacity:0.9"
       d="M 1.4334048,3.6481516 V 3.4258254 H 2.5047301 3.5760553 V 3.6481516 3.8704778 H 2.5047301 1.4334048 Z"
       id="path2878" />
    <path
       style="fill:#6285ac;fill-opacity:1;stroke:#e4e7e7;stroke-width:0.0603485;stroke-miterlimit:4;stroke-dasharray:none;stroke-opacity:0.9"
       d="m 0.28768313,3.6565464 v -0.209813 h 0.35400189 0.35400187 v 0.209813 0.2098132 H 0.64168502 0.28768313 Z"
       id="path2839" />
    <path
       style="fill:#6285ac;fill-opacity:1;stroke:#e4e7e7;stroke-width:0.117987;stroke-miterlimit:4;stroke-dasharray:none;stroke-opacity:0.9"
       d="M 0.14262626,2.8189169 0.11386354,2.5014863 3.1030946,2.2535361 C 6.0508788,2.0090237 6.0931335,2.005262 6.1506004,1.982241 6.4464523,1.8637246 6.587197,1.4606411 6.4534412,1.1149251 6.4162362,1.0187621 6.3743943,0.95467437 6.2988162,0.87809144 6.1799726,0.75766745 6.0558525,0.70823046 5.9038799,0.72078852 c -0.094018,0.007769 -0.16279,0.0324613 -0.234022,0.0840247 C 5.5630656,0.88211762 5.4858811,0.99554538 5.4466078,1.132893 5.4260728,1.204711 5.4124368,1.3153066 5.4173848,1.3699123 l 0.003,0.033159 -0.2658992,0.022057 -0.2658992,0.022056 -0.00241,-0.086783 C 4.8774566,1.0447857 4.966137,0.74486378 5.138497,0.50709154 5.2176178,0.39794315 5.2925693,0.32258511 5.3907617,0.25345838 5.7201849,0.02154641 6.1294588,0.02570298 6.4771005,0.2644911 6.5677662,0.32676732 6.7118627,0.47425425 6.7795553,0.57406188 6.923791,0.7867274 7.0035362,1.0118357 7.0276699,1.2744515 7.0515932,1.5348923 7.0151386,1.7675942 6.914205,1.998536 6.7863656,2.2910403 6.5770779,2.4940314 6.286659,2.6072019 6.2369024,2.6265904 6.0454003,2.6436611 3.2024994,2.8821111 L 0.17138912,3.1363492 Z"
       id="path2455" />
  </g>
</svg>
