<?xml version="1.0" encoding="UTF-8" standalone="no"?>
<!-- Created with Inkscape (http://www.inkscape.org/) -->

<svg
   width="28.5"
   height="28.5"
   viewBox="0 0 7.5406251 7.5406249"
   version="1.1"
   id="svg15674"
   inkscape:version="1.1.1 (3bf5ae0d25, 2021-09-20)"
   sodipodi:docname="middeleWind.svg"
   xmlns:inkscape="http://www.inkscape.org/namespaces/inkscape"
   xmlns:sodipodi="http://sodipodi.sourceforge.net/DTD/sodipodi-0.dtd"
   xmlns="http://www.w3.org/2000/svg"
   xmlns:svg="http://www.w3.org/2000/svg">
  <sodipodi:namedview
     id="namedview15676"
     pagecolor="#ffffff"
     bordercolor="#666666"
     borderopacity="1.0"
     inkscape:pageshadow="2"
     inkscape:pageopacity="0.0"
     inkscape:pagecheckerboard="0"
     inkscape:document-units="mm"
     showgrid="false"
     units="px"
     inkscape:zoom="24.573288"
     inkscape:cx="17.010341"
     inkscape:cy="17.234161"
     inkscape:window-width="2400"
     inkscape:window-height="1321"
     inkscape:window-x="2391"
     inkscape:window-y="-9"
     inkscape:window-maximized="1"
     inkscape:current-layer="layer1" />
  <defs
     id="defs15671" />
  <g
     inkscape:label="Слой 1"
     inkscape:groupmode="layer"
     id="layer1">
    <path
       style="fill:#6585aa;fill-opacity:1;stroke:#e4e7e7;stroke-width:0.121145;stroke-miterlimit:4;stroke-dasharray:none;stroke-opacity:0.9"
       d="M 4.6774404,5.9414776 C 4.5975408,5.91566 4.4986517,5.8640233 4.4235024,5.8086791 4.3559884,5.7589411 4.2580507,5.6515049 4.238055,5.6051464 4.185223,5.4826374 4.242575,5.3280709 4.3661652,5.2597038 c 0.033108,-0.018351 0.054677,-0.023416 0.098998,-0.023416 0.078692,0 0.1024888,0.010124 0.1823998,0.072898 0.038408,0.030501 0.083923,0.061761 0.1011437,0.069608 0.080178,0.036578 0.2186353,0.031513 0.2949998,-0.010124 0.052382,-0.02898 0.1166406,-0.096945 0.1411206,-0.1493529 0.020189,-0.043158 0.03749,-0.1771571 0.029861,-0.2313495 C 5.2018509,4.8967183 5.1162349,4.7746268 5.0307682,4.7256866 L 4.9890449,4.7017656 2.6582612,4.6954381 0.32747689,4.6891107 0.29279176,4.6697487 C 0.24508496,4.6431694 0.16541344,4.5582489 0.14495041,4.5121056 0.12225549,4.4609759 0.12180377,4.3543243 0.1440664,4.3008406 0.16427879,4.2522421 0.21407317,4.1921266 0.26109278,4.1593855 l 0.0370971,-0.025818 H 2.6696722 5.0411544 l 0.063641,0.022654 c 0.2537677,0.090364 0.4561319,0.2806446 0.560315,0.526726 0.05361,0.126635 0.066517,0.2002923 0.066505,0.3795634 -4.6e-6,0.1389108 -0.00245,0.1687408 -0.019145,0.2322483 -0.063884,0.24326 -0.2318193,0.4617643 -0.4448324,0.5788059 -0.1251728,0.068721 -0.2277187,0.090996 -0.4160814,0.09011 -0.085837,-4.049e-4 -0.1169811,-0.00505 -0.17412,-0.02291 z"
       id="path14726"
       inkscape:transform-center-x="3.396183"
       inkscape:transform-center-y="-3.0523912" />
    <path
       style="fill:#6585aa;fill-opacity:1;stroke:#e4e7e7;stroke-width:0.122475;stroke-miterlimit:4;stroke-dasharray:none;stroke-opacity:0.9"
       d="M 0.30955116,3.6989623 C 0.2585683,3.6838149 0.2185338,3.6555738 0.17569107,3.6046117 0.12539796,3.5446637 0.10693482,3.4935731 0.10716774,3.4149862 0.1075042,3.2976576 0.16994177,3.1932043 0.27004819,3.142422 L 0.32258534,3.115721 3.4970161,3.110591 6.6714457,3.105461 6.719531,3.079531 C 6.8147192,3.0281741 6.8605139,2.9542341 6.8770347,2.8405769 6.9117047,2.6021587 6.7440968,2.3786953 6.5294619,2.4170774 6.4659409,2.4286305 6.4169908,2.454946 6.3653931,2.5059082 6.2587644,2.61117 6.1196471,2.6265743 6.0079519,2.5453171 5.9011246,2.467526 5.864781,2.3010069 5.9241915,2.1614064 5.9560575,2.0865677 6.0949819,1.9619478 6.2162942,1.8994968 c 0.1280851,-0.065981 0.1801455,-0.077021 0.3626609,-0.077149 0.1506274,-9e-5 0.1641052,0.00128 0.2354545,0.025418 0.2443192,0.082284 0.4412411,0.2638351 0.5541789,0.5110467 0.1034966,0.2265442 0.1103443,0.5292494 0.017444,0.771493 C 7.2962159,3.3645376 7.0855243,3.5758574 6.858564,3.6593481 6.7112998,3.7135196 6.9110664,3.7105675 3.4886099,3.7099254 1.0351179,3.709489 0.33944405,3.7073517 0.30955879,3.6983725 Z"
       id="path974"
       sodipodi:nodetypes="cssscccsssssssscsssccc" />
  </g>
</svg>
