<?xml version="1.0" encoding="UTF-8" standalone="no"?>
<!-- Created with Inkscape (http://www.inkscape.org/) -->

<svg
   width="28.5"
   height="28.5"
   viewBox="0 0 7.5406239 7.5406241"
   version="1.1"
   id="svg15674"
   inkscape:version="1.1.1 (3bf5ae0d25, 2021-09-20)"
   sodipodi:docname="strongWind.svg"
   xmlns:inkscape="http://www.inkscape.org/namespaces/inkscape"
   xmlns:sodipodi="http://sodipodi.sourceforge.net/DTD/sodipodi-0.dtd"
   xmlns="http://www.w3.org/2000/svg"
   xmlns:svg="http://www.w3.org/2000/svg">
  <sodipodi:namedview
     id="namedview15676"
     pagecolor="#ffffff"
     bordercolor="#666666"
     borderopacity="1.0"
     inkscape:pageshadow="2"
     inkscape:pageopacity="0.0"
     inkscape:pagecheckerboard="0"
     inkscape:document-units="mm"
     showgrid="false"
     units="px"
     inkscape:zoom="17.375939"
     inkscape:cx="26.933796"
     inkscape:cy="21.207487"
     inkscape:window-width="2400"
     inkscape:window-height="1321"
     inkscape:window-x="2391"
     inkscape:window-y="-9"
     inkscape:window-maximized="1"
     inkscape:current-layer="layer1"
     height="35px" />
  <defs
     id="defs15671" />
  <g
     inkscape:label="Слой 1"
     inkscape:groupmode="layer"
     id="layer1">
    <path
       style="fill:#6585aa;fill-opacity:1;stroke:#e4e7e7;stroke-width:0.160404;stroke-miterlimit:4;stroke-dasharray:none;stroke-opacity:0.9"
       d="M 5.9587622,7.3935424 C 5.8559003,7.351479 5.7303055,7.2733176 5.6362637,7.1925632 5.5517786,7.1199914 5.4322937,6.9679232 5.4100256,6.9044864 5.3511915,6.736845 5.4400986,6.53748 5.6086368,6.4589156 c 0.045152,-0.021095 0.073967,-0.025697 0.1322737,-0.021357 0.103522,0.00771 0.1339451,0.023463 0.2336037,0.1145354 0.047871,0.044209 0.1050256,0.090123 0.1269963,0.1022157 0.1022912,0.056359 0.2848758,0.063204 0.3889611,0.015463 C 6.5619054,6.6364661 6.6523559,6.5526318 6.6891234,6.4855269 6.7194402,6.4302714 6.7538661,6.2542576 6.7485539,6.1816427 6.7396081,6.0593718 6.6376091,5.8890745 6.5294369,5.8158023 L 6.4766325,5.7799924 3.4109797,5.5433686 0.3453257,5.3067444 0.30138268,5.2776687 C 0.24093729,5.2377511 0.14352189,5.11733 0.12062024,5.0541325 0.0952165,4.9841036 0.10390883,4.8426216 0.13785299,4.773873 0.16867455,4.7114021 0.23941484,4.6365548 0.30412122,4.5977393 l 0.0510503,-0.030605 3.11974378,0.2322175 3.1197438,0.2322174 0.08175,0.036275 c 0.3259688,0.144685 0.5756147,0.4168458 0.6912441,0.7533926 0.059504,0.173189 0.070063,0.2721344 0.054439,0.5098768 C 7.409991,6.5153318 7.4041737,6.5546515 7.3766854,6.6372385 7.2714607,6.9535859 7.0315126,7.2269145 6.7410973,7.3612734 6.5704451,7.4401517 6.4336043,7.4596498 6.1858855,7.4400308 6.0730008,7.4310885 6.0324336,7.4218817 5.9588213,7.3925969 Z"
       id="path14726"
       inkscape:transform-center-x="4.1719448"
       inkscape:transform-center-y="-4.4117491" />
    <path
       style="fill:#6585aa;fill-opacity:1;stroke:#e4e7e7;stroke-width:0.134388;stroke-miterlimit:4;stroke-dasharray:none;stroke-opacity:0.9"
       d="M 0.29997169,4.2775891 C 0.24942537,4.2591943 0.20973363,4.224899 0.16725773,4.1630115 0.11739525,4.0902118 0.09909019,4.0281684 0.09932111,3.9327339 0.09965469,3.7902524 0.16155766,3.6634064 0.26080696,3.6017371 l 0.0520874,-0.032425 3.14725094,-0.00622 3.1472498,-0.00623 0.04767,-0.031489 C 6.7494422,3.4629967 6.7948445,3.3732053 6.8112239,3.2351822 6.8455943,2.9456514 6.6794237,2.6742819 6.4666271,2.7208924 6.4036509,2.7349222 6.3551185,2.7668794 6.3039629,2.8287668 6.1982475,2.9565949 6.060321,2.9753014 5.9495821,2.8766243 5.8436696,2.7821562 5.8076369,2.5799385 5.8665389,2.4104104 5.8981321,2.3195277 6.0358669,2.1681918 6.1561406,2.0923524 6.2831294,2.0122258 6.334744,1.9988196 6.5156965,1.9986638 6.6650342,1.9985545 6.6783969,2.0002157 6.749135,2.0295297 6.9913623,2.129454 7.1865977,2.3499262 7.2985694,2.6501352 7.4011796,2.9252461 7.4079682,3.2928456 7.3158625,3.5870215 7.2268154,3.8714703 7.0179273,4.1280929 6.7929108,4.2294826 6.6469076,4.2952672 6.844963,4.291682 3.4518104,4.2909026 1.019326,4.2903727 0.32960866,4.2877746 0.29997927,4.2768721 Z"
       id="path974"
       sodipodi:nodetypes="cssscccsssssssscsssccc" />
    <path
       style="fill:#6585aa;fill-opacity:1;stroke:#e4e7e7;stroke-width:0.156382;stroke-miterlimit:4;stroke-dasharray:none;stroke-opacity:0.9"
       d="M 5.414323,0.1852001 C 5.32085,0.2316339 5.2084229,0.31551858 5.1256531,0.40087701 5.0512961,0.47758501 4.9492763,0.63621241 4.932494,0.70137617 4.888155,0.87357782 4.983967,1.0725416 5.1464585,1.1460635 c 0.043543,0.019744 0.07077,0.023357 0.1249962,0.01682 0.096274,-0.011611 0.123709,-0.028705 0.2110728,-0.1247364 0.041937,-0.0466 0.092441,-0.0952639 0.112209,-0.1083348 0.092031,-0.0609151 0.2622611,-0.0745422 0.3625855,-0.0299322 0.068882,0.0311662 0.1587612,0.1128937 0.197393,0.179614 0.031851,0.05494 0.075218,0.232216 0.074867,0.3060674 -5.944e-4,0.124351 -0.085104,0.3008278 -0.1815579,0.3791139 L 6.0009408,1.8029307 3.1504679,2.1552568 0.29999514,2.507583 0.26076978,2.5386861 c -0.0539661,0.042705 -0.13736446,0.1684225 -0.15475442,0.2333658 -0.01929226,0.071963 -0.002179,0.2151582 0.033906,0.2836512 0.032778,0.062239 0.10365884,0.1355678 0.16660807,0.1725698 L 0.35619277,3.2574458 3.2575034,2.9076073 6.1588156,2.5577686 6.232919,2.5179801 C 6.5284111,2.3592786 6.7444621,2.0740671 6.831151,1.7284556 6.8757609,1.550602 6.8793417,1.4498503 6.8496323,1.2092686 6.8266127,1.0228494 6.8187228,0.98317342 6.7877347,0.90041393 6.6692722,0.58338274 6.4276192,0.314922 6.147624,0.18927483 5.9831,0.11551615 5.8539532,0.10075117 5.6236532,0.129727 5.5187069,0.14293274 5.4813735,0.15376142 5.4144275,0.18615818 Z"
       id="path14726-8"
       inkscape:transform-center-x="3.5897428"
       inkscape:transform-center-y="4.6427346" />
  </g>
</svg>
