<?xml version="1.0" encoding="UTF-8" standalone="no"?>
<!-- Created with Inkscape (http://www.inkscape.org/) -->

<svg
   width="16"
   height="28"
   viewBox="0 0 4.2333335 7.408335"
   version="1.1"
   id="svg2249"
   inkscape:version="1.1.1 (3bf5ae0d25, 2021-09-20)"
   sodipodi:docname="tempMinus.svg"
   xmlns:inkscape="http://www.inkscape.org/namespaces/inkscape"
   xmlns:sodipodi="http://sodipodi.sourceforge.net/DTD/sodipodi-0.dtd"
   xmlns="http://www.w3.org/2000/svg"
   xmlns:svg="http://www.w3.org/2000/svg">
  <sodipodi:namedview
     id="namedview2251"
     pagecolor="#ffffff"
     bordercolor="#666666"
     borderopacity="1.0"
     inkscape:pageshadow="2"
     inkscape:pageopacity="0.0"
     inkscape:pagecheckerboard="0"
     inkscape:document-units="px"
     showgrid="false"
     units="px"
     inkscape:zoom="12.286644"
     inkscape:cx="13.266438"
     inkscape:cy="15.504641"
     inkscape:window-width="2400"
     inkscape:window-height="1321"
     inkscape:window-x="2391"
     inkscape:window-y="-9"
     inkscape:window-maximized="1"
     inkscape:current-layer="layer1"
     height="35px" />
  <defs
     id="defs2246">
    <clipPath
       clipPathUnits="userSpaceOnUse"
       id="clipPath1825">
      <path
         d="m 7278.53,6813.28 h 20.78 v -5.79 h -20.78 z"
         id="path1823" />
    </clipPath>
  </defs>
  <g
     inkscape:label="Слой 1"
     inkscape:groupmode="layer"
     id="layer1"
     style="display:inline">
    <g
       id="g1799"
       transform="matrix(0.08958514,0,0,-0.09477448,1.9192565,4.8099402)"
       style="fill:#e1ebeb;fill-opacity:1">
      <path
         d="m 0,0 c 3.832,0 7.39,-1.134 10.39,-3.063 v 45.73 c 0,4.019 -3.287,7.305 -7.306,7.305 h -6.17 c -4.018,0 -7.305,-3.286 -7.305,-7.305 V -3.065 C -7.393,-1.134 -3.832,0 0,0"
         style="fill:#e1ebeb;fill-opacity:1;fill-rule:nonzero;stroke:none"
         id="path1801" />
    </g>
    <g
       id="g1803"
       transform="matrix(0.08958514,0,0,-0.08404958,3.6302678,5.7757782)"
       style="fill:#e0ebeb;fill-opacity:1">
      <path
         d="m 0,0 c 0,-10.623 -8.612,-19.235 -19.236,-19.235 -10.625,0 -19.239,8.612 -19.239,19.235 0,10.625 8.614,19.239 19.239,19.239 C -8.612,19.239 0,10.625 0,0"
         style="fill:#e0ebeb;fill-opacity:1;fill-rule:nonzero;stroke:none"
         id="path1805" />
    </g>
    <g
       id="g1819"
       transform="matrix(0.08958514,0,0,-0.08404958,-651.07171,576.58331)">
      <g
         id="g1821" />
      <g
         id="g1833">
        <g
           clip-path="url(#clipPath1825)"
           opacity="0.199997"
           id="g1831">
          <g
             transform="translate(7288.918,6813.2813)"
             id="g1829">
            <path
               d="m 0,0 c -3.759,0 -7.296,-0.948 -10.391,-2.611 v -3.178 c 2.998,1.932 6.559,3.065 10.391,3.065 3.832,0 7.39,-1.133 10.39,-3.063 v 3.176 C 7.295,-0.948 3.758,0 0,0"
               style="fill:#122c3d;fill-opacity:1;fill-rule:nonzero;stroke:none"
               id="path1827" />
          </g>
        </g>
      </g>
    </g>
    <g
       id="g1835"
       transform="matrix(0.11654523,0,0,-0.05285177,4.1805531,1.0522844)"
       style="fill:#e0ebeb;fill-opacity:1">
      <path
         d="m 0,0 c 0,-0.353 -0.287,-0.642 -0.64,-0.642 h -9.46 c -0.353,0 -0.64,0.289 -0.64,0.642 v 3.687 c 0,0.353 0.287,0.642 0.64,0.642 h 9.46 C -0.287,4.329 0,4.04 0,3.687 Z"
         style="fill:#e0ebeb;fill-opacity:1;fill-rule:nonzero;stroke:none"
         id="path1837" />
    </g>
    <g
       id="g1839"
       transform="matrix(0.15291834,0,0,-0.04492063,3.8362612,1.9086013)"
       style="fill:#e0ebeb;fill-opacity:1">
      <path
         d="m 0,0 c 0,-0.353 -0.287,-0.64 -0.641,-0.64 h -4.81 c -0.354,0 -0.641,0.287 -0.641,0.64 v 3.687 c 0,0.353 0.287,0.642 0.641,0.642 h 4.81 C -0.287,4.329 0,4.04 0,3.687 Z"
         style="fill:#e0ebeb;fill-opacity:1;fill-rule:nonzero;stroke:none"
         id="path1841" />
    </g>
    <g
       id="g1843"
       transform="matrix(0.11770876,0,0,-0.04443724,3.6700229,2.6901148)"
       style="fill:#e0eaea;fill-opacity:1">
      <path
         d="m 0,0 c 0,-0.353 -0.287,-0.642 -0.641,-0.642 h -4.81 c -0.354,0 -0.641,0.289 -0.641,0.642 v 3.687 c 0,0.353 0.287,0.64 0.641,0.64 h 4.81 C -0.287,4.327 0,4.04 0,3.687 Z"
         style="fill:#e0eaea;fill-opacity:1;fill-rule:nonzero;stroke:none"
         id="path1845" />
    </g>
    <g
       id="g1847"
       transform="matrix(0.12032386,0,0,-0.05560502,4.2090708,3.6586593)"
       style="fill:#e0eaea;fill-opacity:1">
      <path
         d="m 0,0 c 0,-0.353 -0.287,-0.642 -0.64,-0.642 h -9.46 c -0.353,0 -0.64,0.289 -0.64,0.642 v 3.687 c 0,0.353 0.287,0.642 0.64,0.642 h 9.46 C -0.287,4.329 0,4.04 0,3.687 Z"
         style="fill:#e0eaea;fill-opacity:1;fill-rule:nonzero;stroke:none"
         id="path1849" />
    </g>
    <path
       style="fill:#4ba0cb;fill-opacity:0.796853;stroke:#3e84ad;stroke-width:0.00737323;stroke-opacity:0.607692"
       d="M 1.8131194,6.9684416 C 1.8013478,6.967029 1.758008,6.9620013 1.7168089,6.9573302 1.5811746,6.9418767 1.3876707,6.8811966 1.2637938,6.8152737 0.9515717,6.649121 0.72971949,6.3860667 0.63245738,6.0666872 0.59177416,5.9330943 0.58604093,5.890604 0.58616294,5.7235579 0.58624654,5.6087462 0.58921338,5.5605533 0.59921245,5.5115942 0.68859091,5.0739601 0.99586949,4.7260185 1.4347794,4.565454 1.926807,4.3854576 2.5057883,4.5088583 2.8680962,4.8709416 3.0524439,5.0551753 3.1689684,5.2740651 3.2154311,5.5234051 3.2367136,5.6376148 3.2368919,5.8164273 3.2158343,5.9289084 3.1562091,6.2474419 2.9779934,6.5245485 2.7084457,6.7178443 2.6268745,6.7763402 2.4657005,6.8597653 2.3695761,6.8932463 2.1983989,6.952869 1.9560005,6.9856252 1.8131166,6.9684423 Z"
       id="path20198" />
    <path
       style="fill:#4ea2cb;fill-opacity:0.8;stroke:#3e84ad;stroke-width:0.00737323;stroke-opacity:0.607692"
       d="M 1.2317797,3.968966 C 1.22941,3.9595354 1.2274367,3.6989189 1.227385,3.3898173 L 1.2272832,2.8278147 h 0.706572 0.7065719 l -0.00209,0.5747074 c -0.00114,0.3160894 -0.00433,0.5771115 -0.00708,0.5800495 -0.00275,0.00294 -0.055724,-0.0087 -0.1177127,-0.025869 -0.1736994,-0.0481 -0.2556639,-0.060699 -0.4612838,-0.070905 -0.2894854,-0.014368 -0.4702422,0.00535 -0.7412452,0.0809 -0.038307,0.010678 -0.070837,0.019413 -0.072292,0.019413 -0.00146,0 -0.00458,-0.00772 -0.00695,-0.017146 z"
       id="path20276" />
    <path
       style="fill:#4ea2cb;fill-opacity:0.8;stroke:#ccf5ff;stroke-width:0.0222206;stroke-miterlimit:4;stroke-dasharray:none;stroke-opacity:0.9"
       d="m 2.9603292,1.9023755 c -0.021631,-0.00197 -0.024218,-0.010686 -0.024076,-0.081067 1.117e-4,-0.055587 0.00147,-0.063681 0.011507,-0.068431 0.01048,-0.00496 0.041142,-0.00547 0.3873967,-0.00634 0.2068095,-5.278e-4 0.3945038,-6.34e-5 0.4170986,0.00103 0.037385,0.0018 0.04152,0.00273 0.045954,0.010286 0.0063,0.010733 0.00636,0.1239693 7.9e-5,0.1346624 -0.00347,0.00589 -0.010512,0.0087 -0.025417,0.010109 -0.022707,0.00215 -0.7888159,0.00192 -0.8125411,-2.446e-4 z"
       id="path20315" />
    <path
       style="fill:#4ea2cb;fill-opacity:0.8;stroke:#ccf7ff;stroke-width:0.0277692;stroke-miterlimit:4;stroke-dasharray:none;stroke-opacity:0.896154"
       d="M 3.0326531,1.045885 C 2.9727251,1.043105 2.9682011,1.036545 2.9682011,0.9523644 V 0.8793471 l 0.024026,-0.008309 c 0.019151,-0.006624 0.039041,-0.008808 0.098022,-0.0107666 0.099275,-0.003296 1.0054725,-4.2025e-4 1.0253301,0.003256 0.025049,0.004637 0.028883,0.0173816 0.028883,0.0960251 0,0.0664549 -0.00166,0.07488 -0.015905,0.0806107 -0.014885,0.00599 -0.049495,0.00642 -0.5391204,0.00684 -0.287767,2.422e-4 -0.5383191,-2.606e-4 -0.556783,-0.00112 z"
       id="path20432" />
    <path
       style="fill:#4ea2cb;fill-opacity:0.8;stroke:#f9feff;stroke-width:0.00060208;stroke-miterlimit:4;stroke-dasharray:none;stroke-opacity:1"
       d="m 3.0643416,3.6656972 c -0.1052606,-0.00219 -0.1076711,-0.00424 -0.1075837,-0.091981 7.86e-5,-0.07882 0.00701,-0.101379 0.033123,-0.1079009 0.0391,-0.00977 0.060328,-0.010218 0.5160053,-0.011054 0.2372664,-4.36e-4 0.4745565,1.416e-4 0.5288677,0.00128 0.089085,0.00188 0.1006445,0.0026 0.1208039,0.00765 0.021737,0.00543 0.02249,0.00654 0.030138,0.044982 0.00477,0.023959 0.00477,0.061149 -1.73e-5,0.094835 -0.00691,0.048693 -0.00972,0.05588 -0.023097,0.059223 -0.014254,0.00356 -0.047998,0.00381 -0.5255039,0.00403 C 3.3564268,3.6668939 3.098699,3.6664115 3.0643479,3.665701 Z"
       id="path25140" />
    <path
       style="fill:#4ea2cb;fill-opacity:0.8;stroke:#ccf6ff;stroke-width:0.0257291;stroke-miterlimit:4;stroke-dasharray:none;stroke-opacity:0.9"
       d="m 3.0313749,2.6814827 c -0.00503,-3.448e-4 -0.013928,-9.657e-4 -0.01976,-0.00138 -0.00666,-4.702e-4 -0.013466,-0.00281 -0.018313,-0.0063 -0.00682,-0.00491 -0.00765,-0.01207 -0.00726,-0.061683 4.95e-4,-0.064931 0.00169,-0.067652 0.031714,-0.072587 0.017615,-0.0029 0.027333,-0.00298 0.297476,-0.00298 0.2080144,0 0.2824167,4.639e-4 0.2916159,0.0018 0.00679,9.975e-4 0.016063,0.00366 0.0206,0.00593 0.00763,0.00381 0.00823,0.00883 0.00801,0.066293 -1.712e-4,0.042238 -0.0019,0.063425 -0.00536,0.066075 -0.0038,0.00291 -0.00958,0.00414 -0.022638,0.00484 -0.019107,0.00104 -0.561134,0.00104 -0.5760625,-2e-7 z"
       id="path25179" />
  </g>
</svg>
