<?xml version="1.0" encoding="UTF-8" standalone="no"?>
<!-- Created with Inkscape (http://www.inkscape.org/) -->

<svg
   width="16"
   height="28"
   viewBox="0 0 4.2333335 7.408335"
   version="1.1"
   id="svg2249"
   inkscape:version="1.1.1 (3bf5ae0d25, 2021-09-20)"
   sodipodi:docname="tempPlus.svg"
   xmlns:inkscape="http://www.inkscape.org/namespaces/inkscape"
   xmlns:sodipodi="http://sodipodi.sourceforge.net/DTD/sodipodi-0.dtd"
   xmlns="http://www.w3.org/2000/svg"
   xmlns:svg="http://www.w3.org/2000/svg">
  <sodipodi:namedview
     id="namedview2251"
     pagecolor="#ffffff"
     bordercolor="#666666"
     borderopacity="1.0"
     inkscape:pageshadow="2"
     inkscape:pageopacity="0.0"
     inkscape:pagecheckerboard="0"
     inkscape:document-units="px"
     showgrid="false"
     units="px"
     inkscape:zoom="17.375939"
     inkscape:cx="15.135873"
     inkscape:cy="17.006275"
     inkscape:window-width="2400"
     inkscape:window-height="1321"
     inkscape:window-x="2391"
     inkscape:window-y="-9"
     inkscape:window-maximized="1"
     inkscape:current-layer="layer1"
     height="35px" />
  <defs
     id="defs2246">
    <clipPath
       clipPathUnits="userSpaceOnUse"
       id="clipPath1825">
      <path
         d="m 7278.53,6813.28 h 20.78 v -5.79 h -20.78 z"
         id="path1823" />
    </clipPath>
  </defs>
  <g
     inkscape:label="Слой 1"
     inkscape:groupmode="layer"
     id="layer1"
     style="display:inline">
    <g
       id="g1799"
       transform="matrix(0.09169459,0,0,-0.09509439,1.8698528,4.7954728)"
       style="fill:#e1ebeb;fill-opacity:1">
      <path
         d="m 0,0 c 3.832,0 7.39,-1.134 10.39,-3.063 v 45.73 c 0,4.019 -3.287,7.305 -7.306,7.305 h -6.17 c -4.018,0 -7.305,-3.286 -7.305,-7.305 V -3.065 C -7.393,-1.134 -3.832,0 0,0"
         style="fill:#e1ebeb;fill-opacity:1;fill-rule:nonzero;stroke:none"
         id="path1801" />
    </g>
    <g
       id="g1803"
       transform="matrix(0.09169459,0,0,-0.0843333,3.6211531,5.7645709)"
       style="fill:#e0ebeb;fill-opacity:1">
      <path
         d="m 0,0 c 0,-10.623 -8.612,-19.235 -19.236,-19.235 -10.625,0 -19.239,8.612 -19.239,19.235 0,10.625 8.614,19.239 19.239,19.239 C -8.612,19.239 0,10.625 0,0"
         style="fill:#e0ebeb;fill-opacity:1;fill-rule:nonzero;stroke:none"
         id="path1805" />
    </g>
    <g
       id="g1819"
       transform="matrix(0.09169459,0,0,-0.0843333,-666.49701,578.49885)">
      <g
         id="g1821" />
      <g
         id="g1833">
        <g
           clip-path="url(#clipPath1825)"
           opacity="0.199997"
           id="g1831">
          <g
             transform="translate(7288.918,6813.2813)"
             id="g1829">
            <path
               d="m 0,0 c -3.759,0 -7.296,-0.948 -10.391,-2.611 v -3.178 c 2.998,1.932 6.559,3.065 10.391,3.065 3.832,0 7.39,-1.133 10.39,-3.063 v 3.176 C 7.295,-0.948 3.758,0 0,0"
               style="fill:#122c3d;fill-opacity:1;fill-rule:nonzero;stroke:none"
               id="path1827" />
          </g>
        </g>
      </g>
    </g>
    <g
       id="g1835"
       transform="matrix(0.11928952,0,0,-0.05303017,4.1843958,1.0251331)"
       style="fill:#e0ebeb;fill-opacity:1">
      <path
         d="m 0,0 c 0,-0.353 -0.287,-0.642 -0.64,-0.642 h -9.46 c -0.353,0 -0.64,0.289 -0.64,0.642 v 3.687 c 0,0.353 0.287,0.642 0.64,0.642 h 9.46 C -0.287,4.329 0,4.04 0,3.687 Z"
         style="fill:#e0ebeb;fill-opacity:1;fill-rule:nonzero;stroke:none"
         id="path1837" />
    </g>
    <g
       id="g1839"
       transform="matrix(0.15651909,0,0,-0.04507226,3.8319969,1.8843404)"
       style="fill:#e0ebeb;fill-opacity:1">
      <path
         d="m 0,0 c 0,-0.353 -0.287,-0.64 -0.641,-0.64 h -4.81 c -0.354,0 -0.641,0.287 -0.641,0.64 v 3.687 c 0,0.353 0.287,0.642 0.641,0.642 h 4.81 C -0.287,4.329 0,4.04 0,3.687 Z"
         style="fill:#e0ebeb;fill-opacity:1;fill-rule:nonzero;stroke:none"
         id="path1841" />
    </g>
    <g
       id="g1843"
       transform="matrix(0.12048044,0,0,-0.04458724,3.6618443,2.668492)"
       style="fill:#e0eaea;fill-opacity:1">
      <path
         d="m 0,0 c 0,-0.353 -0.287,-0.642 -0.641,-0.642 h -4.81 c -0.354,0 -0.641,0.289 -0.641,0.642 v 3.687 c 0,0.353 0.287,0.64 0.641,0.64 h 4.81 C -0.287,4.327 0,4.04 0,3.687 Z"
         style="fill:#e0eaea;fill-opacity:1;fill-rule:nonzero;stroke:none"
         id="path1845" />
    </g>
    <g
       id="g1847"
       transform="matrix(0.12315711,0,0,-0.05579271,4.2135851,3.6403056)"
       style="fill:#e0eaea;fill-opacity:1">
      <path
         d="m 0,0 c 0,-0.353 -0.287,-0.642 -0.64,-0.642 h -9.46 c -0.353,0 -0.64,0.289 -0.64,0.642 v 3.687 c 0,0.353 0.287,0.642 0.64,0.642 h 9.46 C -0.287,4.329 0,4.04 0,3.687 Z"
         style="fill:#e0eaea;fill-opacity:1;fill-rule:nonzero;stroke:none"
         id="path1849" />
    </g>
    <path
       style="fill:#e57900;fill-opacity:0.6;stroke:#3e84ad;stroke-width:0.0074721;stroke-opacity:0.607692"
       d="M 1.7612164,6.9612601 C 1.7491678,6.9598428 1.7048074,6.954798 1.6626383,6.9501113 1.5238102,6.9346056 1.32575,6.8737206 1.198956,6.8075752 0.87938212,6.6408617 0.65230598,6.3769195 0.55275363,6.0564619 0.51111241,5.9224181 0.50524419,5.8797844 0.50536906,5.7121744 0.50545464,5.5969751 0.5084913,5.5486195 0.51872586,5.4994951 0.61020897,5.0603839 0.9247229,4.7112678 1.3739679,4.5501613 1.877581,4.3695573 2.4701957,4.4933746 2.8410347,4.8566801 3.0297231,5.0415356 3.1489916,5.2611642 3.1965483,5.5113459 3.2183319,5.6259412 3.2185143,5.8053573 3.1969609,5.9182181 3.1359318,6.2378267 2.9535196,6.5158686 2.677625,6.709817 2.594133,6.7685103 2.4291638,6.852217 2.330776,6.885811 2.1555682,6.945635 1.907462,6.9785017 1.7612136,6.9612608 Z"
       id="path20198" />
    <path
       style="fill:#d67300;fill-opacity:0.6;stroke:#3e84ad;stroke-width:0.0074721;stroke-opacity:0.607692"
       d="m 1.1661881,3.9516599 c -0.00242,-0.00946 -0.00445,-0.2709586 -0.0045,-0.5811037 L 1.1615858,2.8066567 h 0.7232094 0.7232094 l -0.00214,0.5766473 c -0.00116,0.3171563 -0.00443,0.5790595 -0.00724,0.5820074 -0.00281,0.00294 -0.057039,-0.00873 -0.1204885,-0.025957 C 2.3003443,3.8910924 2.2164497,3.878451 2.0059882,3.868211 1.7096863,3.8537943 1.5246732,3.873584 1.247289,3.9493845 c -0.039208,0.010714 -0.072505,0.019479 -0.073995,0.019479 -0.00149,0 -0.00469,-0.00774 -0.00711,-0.017203 z"
       id="path20276" />
    <path
       style="fill:#e57a00;fill-opacity:0.6;stroke:#ccf5ff;stroke-width:0.0225187;stroke-miterlimit:4;stroke-dasharray:none;stroke-opacity:0.9"
       d="m 2.9354395,1.8780936 c -0.02214,-0.00198 -0.024787,-0.010722 -0.024643,-0.081341 1.142e-4,-0.055774 0.00151,-0.063896 0.011777,-0.068662 0.010727,-0.00498 0.04211,-0.00548 0.3965187,-0.00637 0.2116792,-5.297e-4 0.4037931,-6.37e-5 0.42692,0.00103 0.038266,0.00181 0.042498,0.00274 0.047037,0.010321 0.00645,0.01077 0.00652,0.1243878 8.09e-5,0.135117 -0.00355,0.00591 -0.010759,0.00873 -0.026015,0.010143 -0.023242,0.00215 -0.8073901,0.00193 -0.8316744,-2.451e-4 z"
       id="path20315" />
    <path
       style="fill:#e57b00;fill-opacity:0.6;stroke:#ccf7ff;stroke-width:0.0281416;stroke-miterlimit:4;stroke-dasharray:none;stroke-opacity:0.896154"
       d="m 3.0094664,1.018712 c -0.061339,-0.00279 -0.06597,-0.00937 -0.06597,-0.0938362 V 0.8516119 l 0.024591,-0.008338 c 0.019602,-0.006648 0.03996,-0.008838 0.1003302,-0.0108031 0.1016124,-0.003304 1.0291484,-4.2172e-4 1.0494734,0.003264 0.025639,0.004653 0.029564,0.0174401 0.029564,0.0963493 0,0.0666788 -0.0017,0.0751331 -0.016281,0.0808828 -0.015235,0.006 -0.050661,0.00645 -0.5518149,0.00686 -0.2945431,2.43e-4 -0.5509949,-2.615e-4 -0.5698939,-0.00112 z"
       id="path20432" />
    <path
       style="fill:#e57b00;fill-opacity:0.6;stroke:#f9feff;stroke-width:0.000610155;stroke-miterlimit:4;stroke-dasharray:none;stroke-opacity:1"
       d="m 3.0419011,3.6473674 c -0.1077392,-0.00219 -0.1102063,-0.00425 -0.110117,-0.092291 8.04e-5,-0.079086 0.00717,-0.1017212 0.033903,-0.1082651 0.040021,-0.0098 0.061749,-0.010253 0.5281557,-0.011091 0.2428532,-4.374e-4 0.4857307,1.422e-4 0.5413208,0.00129 0.091183,0.00188 0.1030143,0.00261 0.1236483,0.00767 0.022248,0.00544 0.023019,0.00657 0.030847,0.045134 0.00488,0.02404 0.00488,0.061355 -1.76e-5,0.095155 -0.00707,0.048857 -0.00995,0.056068 -0.023642,0.059422 -0.01459,0.00357 -0.049128,0.00383 -0.5378779,0.00405 -0.2872578,1.319e-4 -0.5510543,-3.521e-4 -0.5862142,-0.00106 z"
       id="path25140" />
    <path
       style="fill:#e57b00;fill-opacity:0.6;stroke:#ccf6ff;stroke-width:0.0260742;stroke-miterlimit:4;stroke-dasharray:none;stroke-opacity:0.9"
       d="m 3.0081581,2.6598306 c -0.00515,-3.459e-4 -0.014255,-9.657e-4 -0.020225,-0.00139 -0.00681,-4.718e-4 -0.013783,-0.00282 -0.018744,-0.00633 -0.00697,-0.00492 -0.00783,-0.01211 -0.00743,-0.061892 5.067e-4,-0.06515 0.00173,-0.067881 0.032461,-0.072832 0.018029,-0.0029 0.027976,-0.00299 0.3044807,-0.00299 0.2129125,0 0.2890666,4.655e-4 0.2984824,0.00181 0.00695,9.976e-4 0.016442,0.00367 0.021085,0.00595 0.00779,0.00382 0.00843,0.00886 0.00819,0.066517 -1.753e-4,0.042381 -0.00194,0.06364 -0.00548,0.066298 -0.0039,0.00292 -0.0098,0.00416 -0.023171,0.00486 -0.019557,0.00104 -0.5743471,0.00104 -0.5896271,-2e-7 z"
       id="path25179" />
  </g>
</svg>
