<?xml version="1.0" encoding="UTF-8" standalone="no"?>
<!-- Generator: Adobe Illustrator 22.0.1, SVG Export Plug-In . SVG Version: 6.00 Build 0)  -->

<svg
   version="1.1"
   id="Layer_1"
   x="0px"
   y="0px"
   viewBox="0 0 30 30"
   xml:space="preserve"
   sodipodi:docname="eastWind.svg"
   width="30"
   height="30"
   inkscape:version="1.1.1 (3bf5ae0d25, 2021-09-20)"
   xmlns:inkscape="http://www.inkscape.org/namespaces/inkscape"
   xmlns:sodipodi="http://sodipodi.sourceforge.net/DTD/sodipodi-0.dtd"
   xmlns="http://www.w3.org/2000/svg"
   xmlns:svg="http://www.w3.org/2000/svg"><defs
   id="defs7" /><sodipodi:namedview
   id="namedview5"
   pagecolor="#ffffff"
   bordercolor="#666666"
   borderopacity="1.0"
   inkscape:pageshadow="2"
   inkscape:pageopacity="0.0"
   inkscape:pagecheckerboard="0"
   showgrid="false"
   inkscape:zoom="10.158767"
   inkscape:cx="30.220203"
   inkscape:cy="24.953816"
   inkscape:window-width="2400"
   inkscape:window-height="1321"
   inkscape:window-x="2391"
   inkscape:window-y="-9"
   inkscape:window-maximized="1"
   inkscape:current-layer="Layer_1"
   width="140px" />
<path
   d="m 13.541893,4.6806447 c 1.752285,-0.2212168 3.42754,0.031175 5.01616,0.7492998 1.588618,0.7181241 2.904582,1.7981198 3.947895,3.2399891 1.043316,1.4418684 1.663795,3.0735554 1.870034,4.8939774 0.154426,1.363073 0.04506,2.704874 -0.3205,4.015351 -0.365574,1.310473 -0.940433,2.465457 -1.696783,3.479624 -0.756358,1.014166 -1.705832,1.861707 -2.848439,2.542608 -1.142609,0.680908 -2.357622,1.107174 -3.680431,1.274174 -1.305621,0.164834 -2.590187,0.05412 -3.844086,-0.324227 C 10.731842,24.173086 9.6187938,23.576843 8.658233,22.788524 7.6976738,22.00021 6.8885927,21.010845 6.2405833,19.828331 5.5925775,18.645813 5.1875768,17.378045 5.0321356,16.006005 4.876689,14.63396 4.9850357,13.283193 5.3506064,11.972716 5.716179,10.662241 6.2900214,9.4982936 7.0463692,8.4841239 7.8027223,7.4699553 8.7532178,6.6313857 9.8776306,5.9436852 11.002042,5.2559765 12.227677,4.8465589 13.541893,4.6806447 Z M 13.793854,6.90461 C 11.758108,7.1616155 10.076018,8.1562172 8.748593,9.8973842 7.4383475,11.636379 6.9089287,13.576963 7.1537746,15.738154 c 0.1605191,1.41688 0.6448619,2.692824 1.4595795,3.808815 0.8147212,1.11599 1.8349419,1.96954 3.0748039,2.531584 1.239861,0.562047 2.534584,0.762428 3.89175,0.591093 1.357161,-0.17134 2.579193,-0.689455 3.658538,-1.544287 1.079339,-0.854836 1.889724,-1.9304 2.43115,-3.226695 0.541426,-1.296297 0.72809,-2.647856 0.56757,-4.064735 -0.160524,-1.41688 -0.644864,-2.692824 -1.459584,-3.808817 C 19.962865,8.9091262 18.934049,8.0566573 17.693171,7.485646 16.452292,6.9146358 15.151014,6.7332734 13.793854,6.90461 Z m -4.5281326,5.019532 11.6419906,1.941186 c 0.08691,-0.0019 0.13494,0.03754 0.144076,0.118258 0.0091,0.08071 -0.02871,0.130968 -0.113594,0.150782 l -10.881039,4.775531 c -0.090424,0.0478 -0.1601587,0.04751 -0.2167734,0.0092 -0.056608,-0.03835 -0.064743,-0.110072 -0.024379,-0.215223 L 10.58012,15.451128 c 0.0242,-0.09401 0.01405,-0.183692 -0.02948,-0.260062 L 9.0784042,12.193385 c -0.061697,-0.08317 -0.068803,-0.14594 -0.021332,-0.18832 0.047477,-0.04237 0.1207161,-0.08801 0.2086434,-0.08092 z"
   id="path2"
   style="fill:#2c4f54;fill-opacity:0.5;stroke:#2e3333;stroke-width:0.0544947;stroke-miterlimit:4;stroke-dasharray:none;stroke-opacity:0.9" />
<path
   style="fill:#1f4447;fill-opacity:0.809728;stroke:#e4e7e7;stroke-width:0.0544947;stroke-miterlimit:4;stroke-dasharray:none;stroke-opacity:0.9"
   d="m 7.3523585,14.833188 c -0.00389,-0.385349 0.019331,-0.812142 0.064287,-1.182549 0.2527896,-2.0828 1.5275884,-4.1505473 3.2925925,-5.3406526 0.950073,-0.6406099 1.815953,-0.9565519 3.00156,-1.0952045 1.216923,-0.1423624 2.166559,-0.02817 3.257654,0.3915846 0.735402,0.2829188 1.333113,0.6309096 1.981632,1.1537297 1.287027,1.0375679 2.148057,2.3309118 2.622064,3.9385688 0.09872,0.334799 0.123221,0.475795 0.212253,1.221144 0.108045,0.904718 0.113742,1.162903 0.04049,1.837844 -0.110663,1.019367 -0.497347,2.179761 -1.03331,3.100813 -0.218617,0.375697 -0.764128,1.08844 -1.073093,1.402058 -0.747743,0.759018 -1.615314,1.342574 -2.504394,1.684537 -0.655631,0.252176 -0.892532,0.308258 -1.706314,0.403938 -0.574067,0.06748 -0.818562,0.08383 -1.072768,0.07164 C 12.891193,22.346663 11.40382,21.761536 10.184755,20.748597 8.9362433,19.711185 8.0368989,18.302728 7.6186325,16.729802 7.5222137,16.367208 7.3558696,15.182369 7.3523569,14.833183 Z m 2.5547735,-1.15726 c 0.400542,0.812133 0.739298,1.506968 0.752787,1.544079 0.01665,0.0458 -0.09809,0.605939 -0.35729,1.744228 -0.219787,0.965219 -0.3722756,1.69864 -0.3593401,1.72833 0.026827,0.06153 0.1390811,0.08253 0.2436881,0.0456 0.04153,-0.01466 2.420924,-1.04334 5.287551,-2.285937 5.023318,-2.177461 5.212694,-2.262243 5.2298,-2.341422 0.01323,-0.06119 0.0059,-0.09183 -0.02875,-0.120064 -0.05731,-0.04674 -11.2027424,-2.024377 -11.3265871,-2.0098 -0.1118942,0.01317 -0.2162072,0.107079 -0.1897925,0.170872 0.010853,0.02612 0.3473877,0.71199 0.7479304,1.524124 z"
   id="path861" /><rect
   style="fill:#c7485e;fill-opacity:1;stroke:#3c4343;stroke-width:0.233982;stroke-opacity:0.9"
   id="rect2803"
   width="2.6348479"
   height="0.029357217"
   x="15.206076"
   y="-14.64184"
   transform="matrix(0.12274873,0.99243778,-0.99185706,0.12735607,0,0)"
   inkscape:transform-center-x="1.6259533"
   inkscape:transform-center-y="-1.2211629" /><path
   style="fill:#cd425b;fill-opacity:1;stroke:#e27364;stroke-width:0.0183359;stroke-opacity:0.9"
   d="m 16.758123,13.300861 c 0.04395,0.0073 0.992197,0.153375 2.10723,0.324496 1.115039,0.171118 2.054261,0.321516 2.087165,0.334211 0.05177,0.01998 -3.73927,1.710729 -3.87534,1.728342 -0.03717,0.0049 -0.0971,-0.314313 -0.224809,-1.196927 -0.162837,-1.125405 -0.168934,-1.202626 -0.09426,-1.190121 z"
   id="path3397"
   inkscape:transform-center-x="-0.48900379"
   inkscape:transform-center-y="-1.075578" /><text
   xml:space="preserve"
   style="font-size:6.6008px;line-height:1.25;font-family:'Segoe Script';-inkscape-font-specification:'Segoe Script';fill:#0e0e0e;fill-opacity:1;stroke-width:0.165019"
   x="13.938657"
   y="3.8165541"
   id="text9344"
   transform="scale(0.9826709,1.0176347)"><tspan
     sodipodi:role="line"
     id="tspan9342"
     x="13.938657"
     y="3.8165541"
     style="fill:#0e0e0e;fill-opacity:1;stroke-width:0.165019">c</tspan></text><text
   xml:space="preserve"
   style="font-size:5.45125px;line-height:1.25;font-family:'Segoe Script';-inkscape-font-specification:'Segoe Script';fill:#151515;fill-opacity:1;stroke-width:0.136279"
   x="13.152528"
   y="26.413599"
   id="text11307"
   transform="scale(0.90428918,1.1058409)"><tspan
     sodipodi:role="line"
     id="tspan11305"
     x="13.152528"
     y="26.413599"
     style="fill:#151515;fill-opacity:1;stroke-width:0.136279">ю</tspan></text><text
   xml:space="preserve"
   style="font-size:6.2783px;line-height:1.25;font-family:'Segoe Script';-inkscape-font-specification:'Segoe Script';fill:#131313;fill-opacity:1;stroke-width:0.156957"
   x="0.31678098"
   y="20.513838"
   id="text16794"
   transform="scale(1.4019368,0.71329892)"><tspan
     sodipodi:role="line"
     id="tspan16792"
     x="0.31678098"
     y="20.513838"
     style="fill:#131313;fill-opacity:1;stroke-width:0.156957">з</tspan></text><text
   xml:space="preserve"
   style="font-size:6.53783px;line-height:1.25;font-family:'Segoe Script';-inkscape-font-specification:'Segoe Script';fill:#161616;fill-opacity:1;stroke-width:0.163448"
   x="17.936201"
   y="21.317801"
   id="text19318"
   transform="scale(1.4174991,0.70546781)"><tspan
     sodipodi:role="line"
     id="tspan19316"
     x="17.936201"
     y="21.317801"
     style="fill:#161616;fill-opacity:1;stroke-width:0.163448">в</tspan></text><text
   xml:space="preserve"
   style="font-size:4.81997px;line-height:1.25;font-family:'Segoe Script';-inkscape-font-specification:'Segoe Script';fill:#16272a;fill-opacity:0.799714;stroke-width:0.1205"
   x="3.9288092"
   y="17.620386"
   id="text17884"
   transform="scale(1.2778402,0.78257045)"><tspan
     sodipodi:role="line"
     id="tspan17882"
     x="3.9288092"
     y="17.620386"
     style="stroke-width:0.1205">_</tspan></text><text
   xml:space="preserve"
   style="font-size:4.90957px;line-height:1.25;font-family:'Segoe Script';-inkscape-font-specification:'Segoe Script';fill:#16272a;fill-opacity:0.799714;stroke-width:0.122739"
   x="16.274324"
   y="17.824022"
   id="text17884-6"
   transform="scale(1.3015953,0.76828798)"><tspan
     sodipodi:role="line"
     id="tspan17882-2"
     x="16.274324"
     y="17.824022"
     style="stroke-width:0.122739">_</tspan></text><text
   xml:space="preserve"
   style="font-size:4.31291px;line-height:1.25;font-family:'Segoe Script';-inkscape-font-specification:'Segoe Script';fill:#16272a;fill-opacity:0.799714;stroke-width:0.107823"
   x="-18.510681"
   y="19.096138"
   id="text17884-0"
   transform="matrix(-0.01787522,-1.3997517,0.7137013,-0.05568697,0,0)"><tspan
     sodipodi:role="line"
     id="tspan17882-4"
     x="-18.510681"
     y="19.096138"
     style="stroke-width:0.107823">_</tspan></text><text
   xml:space="preserve"
   style="font-size:4.86729px;line-height:1.25;font-family:'Segoe Script';-inkscape-font-specification:'Segoe Script';fill:#16272a;fill-opacity:0.799714;stroke-width:0.121682"
   x="-5.3656321"
   y="19.622326"
   id="text17884-9"
   transform="matrix(4.9966637e-4,-1.3681504,0.73091324,0.00148566,0,0)"><tspan
     sodipodi:role="line"
     id="tspan17882-7"
     x="-5.3656321"
     y="19.622326"
     style="stroke-width:0.121682">_</tspan></text></svg>
