<?xml version="1.0" encoding="UTF-8" standalone="no"?>
<!-- Generator: Adobe Illustrator 22.0.1, SVG Export Plug-In . SVG Version: 6.00 Build 0)  -->

<svg
   version="1.1"
   id="Layer_1"
   x="0px"
   y="0px"
   viewBox="0 0 30 30"
   xml:space="preserve"
   sodipodi:docname="eastWind.svg"
   width="30"
   height="30"
   inkscape:version="1.1.1 (3bf5ae0d25, 2021-09-20)"
   xmlns:inkscape="http://www.inkscape.org/namespaces/inkscape"
   xmlns:sodipodi="http://sodipodi.sourceforge.net/DTD/sodipodi-0.dtd"
   xmlns="http://www.w3.org/2000/svg"
   xmlns:svg="http://www.w3.org/2000/svg"><defs
   id="defs7" /><sodipodi:namedview
   id="namedview5"
   pagecolor="#ffffff"
   bordercolor="#666666"
   borderopacity="1.0"
   inkscape:pageshadow="2"
   inkscape:pageopacity="0.0"
   inkscape:pagecheckerboard="0"
   showgrid="false"
   inkscape:zoom="40.635068"
   inkscape:cx="20.474926"
   inkscape:cy="16.057559"
   inkscape:window-width="2400"
   inkscape:window-height="1321"
   inkscape:window-x="2391"
   inkscape:window-y="-9"
   inkscape:window-maximized="1"
   inkscape:current-layer="Layer_1"
   width="140px" />
<path
   d="m 13.541893,4.6806447 c 1.752285,-0.2212168 3.42754,0.031175 5.01616,0.7492998 1.588618,0.7181241 2.904582,1.7981198 3.947895,3.2399891 1.043316,1.4418684 1.663795,3.0735554 1.870034,4.8939774 0.154426,1.363073 0.04506,2.704874 -0.3205,4.015351 -0.365574,1.310473 -0.940433,2.465457 -1.696783,3.479624 -0.756358,1.014166 -1.705832,1.861707 -2.848439,2.542608 -1.142609,0.680908 -2.357622,1.107174 -3.680431,1.274174 -1.305621,0.164834 -2.590187,0.05412 -3.844086,-0.324227 C 10.731842,24.173086 9.6187938,23.576843 8.658233,22.788524 7.6976738,22.00021 6.8885927,21.010845 6.2405833,19.828331 5.5925775,18.645813 5.1875768,17.378045 5.0321356,16.006005 4.876689,14.63396 4.9850357,13.283193 5.3506064,11.972716 5.716179,10.662241 6.2900214,9.4982936 7.0463692,8.4841239 7.8027223,7.4699553 8.7532178,6.6313857 9.8776306,5.9436852 11.002042,5.2559765 12.227677,4.8465589 13.541893,4.6806447 Z M 13.793854,6.90461 C 11.758108,7.1616155 10.076018,8.1562172 8.748593,9.8973842 7.4383475,11.636379 6.9089287,13.576963 7.1537746,15.738154 c 0.1605191,1.41688 0.6448619,2.692824 1.4595795,3.808815 0.8147212,1.11599 1.8349419,1.96954 3.0748039,2.531584 1.239861,0.562047 2.534584,0.762428 3.89175,0.591093 1.357161,-0.17134 2.579193,-0.689455 3.658538,-1.544287 1.079339,-0.854836 1.889724,-1.9304 2.43115,-3.226695 0.541426,-1.296297 0.72809,-2.647856 0.56757,-4.064735 -0.160524,-1.41688 -0.644864,-2.692824 -1.459584,-3.808817 C 19.962865,8.9091262 18.934049,8.0566573 17.693171,7.485646 16.452292,6.9146358 15.151014,6.7332734 13.793854,6.90461 Z m -4.5281326,5.019532 11.6419906,1.941186 c 0.08691,-0.0019 0.13494,0.03754 0.144076,0.118258 0.0091,0.08071 -0.02871,0.130968 -0.113594,0.150782 l -10.881039,4.775531 c -0.090424,0.0478 -0.1601587,0.04751 -0.2167734,0.0092 -0.056608,-0.03835 -0.064743,-0.110072 -0.024379,-0.215223 L 10.58012,15.451128 c 0.0242,-0.09401 0.01405,-0.183692 -0.02948,-0.260062 L 9.0784042,12.193385 c -0.061697,-0.08317 -0.068803,-0.14594 -0.021332,-0.18832 0.047477,-0.04237 0.1207161,-0.08801 0.2086434,-0.08092 z"
   id="path2"
   style="fill:#2c4f54;fill-opacity:0.5;stroke:#2e3333;stroke-width:0.0544947;stroke-miterlimit:4;stroke-dasharray:none;stroke-opacity:0.9" />
<path
   style="fill:#1f4447;fill-opacity:0.809728;stroke:#e4e7e7;stroke-width:0.0544947;stroke-miterlimit:4;stroke-dasharray:none;stroke-opacity:0.9"
   d="m 7.3523585,14.833188 c -0.00389,-0.385349 0.019331,-0.812142 0.064287,-1.182549 0.2527896,-2.0828 1.5275884,-4.1505473 3.2925925,-5.3406526 0.950073,-0.6406099 1.815953,-0.9565519 3.00156,-1.0952045 1.216923,-0.1423624 2.166559,-0.02817 3.257654,0.3915846 0.735402,0.2829188 1.333113,0.6309096 1.981632,1.1537297 1.287027,1.0375679 2.148057,2.3309118 2.622064,3.9385688 0.09872,0.334799 0.123221,0.475795 0.212253,1.221144 0.108045,0.904718 0.113742,1.162903 0.04049,1.837844 -0.110663,1.019367 -0.497347,2.179761 -1.03331,3.100813 -0.218617,0.375697 -0.764128,1.08844 -1.073093,1.402058 -0.747743,0.759018 -1.615314,1.342574 -2.504394,1.684537 -0.655631,0.252176 -0.892532,0.308258 -1.706314,0.403938 -0.574067,0.06748 -0.818562,0.08383 -1.072768,0.07164 C 12.891193,22.346663 11.40382,21.761536 10.184755,20.748597 8.9362433,19.711185 8.0368989,18.302728 7.6186325,16.729802 7.5222137,16.367208 7.3558696,15.182369 7.3523569,14.833183 Z m 2.5547735,-1.15726 c 0.400542,0.812133 0.739298,1.506968 0.752787,1.544079 0.01665,0.0458 -0.09809,0.605939 -0.35729,1.744228 -0.219787,0.965219 -0.3722756,1.69864 -0.3593401,1.72833 0.026827,0.06153 0.1390811,0.08253 0.2436881,0.0456 0.04153,-0.01466 2.420924,-1.04334 5.287551,-2.285937 5.023318,-2.177461 5.212694,-2.262243 5.2298,-2.341422 0.01323,-0.06119 0.0059,-0.09183 -0.02875,-0.120064 -0.05731,-0.04674 -11.2027424,-2.024377 -11.3265871,-2.0098 -0.1118942,0.01317 -0.2162072,0.107079 -0.1897925,0.170872 0.010853,0.02612 0.3473877,0.71199 0.7479304,1.524124 z"
   id="path861" /><rect
   style="fill:#c7485e;fill-opacity:1;stroke:#3c4343;stroke-width:0.233982;stroke-opacity:0.9"
   id="rect2803"
   width="2.6348479"
   height="0.029357217"
   x="15.206076"
   y="-14.64184"
   transform="matrix(0.12274873,0.99243778,-0.99185706,0.12735607,0,0)"
   inkscape:transform-center-x="1.6259533"
   inkscape:transform-center-y="-1.2211629" /><path
   style="fill:#cd425b;fill-opacity:1;stroke:#e27364;stroke-width:0.0183359;stroke-opacity:0.9"
   d="m 16.758123,13.300861 c 0.04395,0.0073 0.992197,0.153375 2.10723,0.324496 1.115039,0.171118 2.054261,0.321516 2.087165,0.334211 0.05177,0.01998 -3.73927,1.710729 -3.87534,1.728342 -0.03717,0.0049 -0.0971,-0.314313 -0.224809,-1.196927 -0.162837,-1.125405 -0.168934,-1.202626 -0.09426,-1.190121 z"
   id="path3397"
   inkscape:transform-center-x="-0.48900379"
   inkscape:transform-center-y="-1.075578" /><g
   aria-label="c"
   transform="scale(0.9826709,1.0176347)"
   id="text9344"
   style="font-size:6.6008px;line-height:1.25;font-family:'Segoe Script';-inkscape-font-specification:'Segoe Script';fill:#0e0e0e;stroke-width:0.165019"><path
     d="m 17.622599,2.4822127 q 0,0.1160296 -0.0838,0.209498 -0.08702,0.096691 -0.151483,0.1643754 -0.06446,0.064461 -0.122476,0.1192527 -0.05802,0.054792 -0.122476,0.1063606 -0.06446,0.048346 -0.151483,0.1128066 -0.244951,0.1772676 -0.467342,0.2997434 -0.22239,0.1192527 -0.431888,0.1966058 -0.209498,0.07413 -0.415773,0.1063606 -0.203052,0.03223 -0.409327,0.03223 -0.215944,0 -0.386766,-0.080576 Q 14.708965,3.6650709 14.589712,3.5232568 14.473683,3.3814427 14.412445,3.194506 14.351207,3.0043463 14.351207,2.7948482 V 2.778733 q 0,-0.2127211 0.05479,-0.4512266 0.05479,-0.2417285 0.151483,-0.483457 0.09991,-0.2417285 0.238505,-0.4737879 0.138591,-0.2352824 0.30619,-0.4383344 0.06768,-0.0805762 0.161152,-0.17082149 0.09669,-0.0934684 0.203052,-0.17082148 0.109584,-0.0773531 0.225613,-0.12569883 0.119253,-0.0515687 0.23206,-0.0515687 0.07735,0 0.14826,0.0483457 0.07091,0.0451227 0.132145,0.11925274 0.06124,0.0741301 0.112806,0.16759844 0.05157,0.0902453 0.08702,0.18693672 0.03545,0.0934684 0.05479,0.18049065 0.01934,0.087022 0.01934,0.1482601 0,0.093468 -0.05802,0.2417285 -0.05802,0.1482602 -0.138591,0.1482602 -0.11603,0 -0.193383,-0.1579293 -0.02901,-0.061238 -0.05157,-0.1418141 -0.01934,-0.080576 -0.04835,-0.1579293 -0.02578,-0.077353 -0.07091,-0.141814 -0.04512,-0.067684 -0.125699,-0.0999145 -0.08058,0.0193383 -0.164376,0.0837992 -0.08058,0.064461 -0.161152,0.1579293 -0.07735,0.093468 -0.154706,0.2127211 -0.07413,0.1160297 -0.141814,0.2417286 -0.06446,0.1160296 -0.125699,0.2675128 -0.06124,0.1482602 -0.109584,0.3094126 -0.04834,0.1579292 -0.07735,0.3158585 -0.02901,0.1579293 -0.02901,0.2900743 0,0.093468 0.04512,0.1901597 0.04512,0.093468 0.11603,0.1708215 0.07413,0.077353 0.164375,0.1256988 0.09347,0.048346 0.19016,0.048346 0.477011,0 0.947576,-0.1966059 0.470565,-0.1966059 0.896007,-0.5704793 0.235282,-0.206275 0.389989,-0.206275 0.04512,0 0.04512,0.087022 z"
     id="path4707" /></g><g
   aria-label="ю"
   transform="scale(0.90428918,1.1058409)"
   id="text11307"
   style="font-size:5.45125px;line-height:1.25;font-family:'Segoe Script';-inkscape-font-specification:'Segoe Script';fill:#151515;stroke-width:0.136279"><path
     d="m 13.865875,25.314299 q 0,-0.01065 -0.01331,-0.01863 -0.01065,-0.01065 -0.02662,-0.02662 -0.01597,-0.01597 -0.02928,-0.04259 -0.01065,-0.02662 -0.01065,-0.07453 0,-0.04259 0.02395,-0.07719 0.02396,-0.0346 0.05057,-0.06388 0.02928,-0.02928 0.05323,-0.05324 0.02662,-0.02396 0.03194,-0.04525 0.04525,-0.255527 0.07719,-0.481776 0.03194,-0.226248 0.03993,-0.377967 0.0027,-0.04525 0,-0.09316 0,-0.04791 -0.0027,-0.09582 -0.0027,-0.0346 -0.0053,-0.06654 0,-0.03194 0,-0.06122 0,-0.03194 0.02395,-0.07187 0.02396,-0.03993 0.05856,-0.07453 0.03726,-0.0346 0.07985,-0.0559 0.04525,-0.02396 0.08784,-0.02396 0.03726,0 0.07453,0.02129 0.03726,0.01863 0.06654,0.0559 0.02928,0.0346 0.04791,0.08784 0.01863,0.05057 0.01863,0.114455 0,0.04791 -0.008,0.117117 -0.008,0.06921 -0.02129,0.151719 -0.01331,0.08251 -0.03194,0.173014 -0.01597,0.0905 -0.03194,0.180998 -0.02129,0.125102 -0.04259,0.239557 -0.01863,0.114455 -0.02928,0.196969 0.01065,0.02396 0.01863,0.04259 0.01065,0.01597 0.02662,0.02662 0.01597,0.01065 0.03993,0.01597 0.02662,0.0053 0.06921,0.0053 0.114455,0 0.242218,-0.02396 0.127764,-0.02396 0.242219,-0.06122 0.114455,-0.03726 0.204954,-0.07719 0.09316,-0.04259 0.138411,-0.07985 0.02928,-0.02396 0.06388,-0.06388 0.03726,-0.03993 0.07453,-0.08518 0.03726,-0.04791 0.07187,-0.09316 0.03726,-0.04791 0.06388,-0.08251 0.0905,-0.114455 0.204955,-0.223586 0.114454,-0.109132 0.252865,-0.191646 0.138411,-0.08251 0.298115,-0.133087 0.162367,-0.05057 0.35135,-0.05057 0.143735,0 0.282145,0.07187 0.138411,0.06921 0.244881,0.188984 0.109131,0.119778 0.173013,0.276821 0.06654,0.154381 0.06654,0.324733 0,0.170351 -0.0346,0.311424 -0.03194,0.13841 -0.103808,0.295453 -0.03993,0.08251 -0.138411,0.196969 -0.09848,0.114455 -0.236895,0.236895 -0.135749,0.12244 -0.298115,0.242219 -0.162367,0.119778 -0.330056,0.215601 -0.16769,0.09582 -0.330056,0.154381 -0.159705,0.05856 -0.29013,0.05856 -0.175676,0 -0.300777,-0.05856 -0.125102,-0.06122 -0.204955,-0.157043 -0.07985,-0.09848 -0.117116,-0.223586 -0.03726,-0.125102 -0.03726,-0.252866 0,-0.103808 0.02928,-0.250204 0.03194,-0.149057 0.10647,-0.300777 -0.101146,0.06388 -0.226248,0.101147 -0.12244,0.03726 -0.226248,0.06654 -0.04525,0.01331 -0.101146,0.02396 -0.0559,0.008 -0.111794,0.01597 -0.05324,0.008 -0.103808,0.01597 -0.04791,0.008 -0.08251,0.01331 -0.05324,0.01065 -0.07453,0.04259 -0.01863,0.02928 -0.02928,0.07719 -0.01065,0.04525 -0.03194,0.119778 -0.02129,0.07453 -0.04259,0.154381 -0.02395,0.08518 -0.05057,0.175676 -0.02662,0.0905 -0.04791,0.173013 -0.01863,0.07985 -0.0346,0.149057 -0.01331,0.06654 -0.01331,0.103808 0,0.0346 -0.02928,0.07453 -0.02662,0.03993 -0.06388,0.07453 -0.0346,0.03726 -0.07187,0.06122 -0.0346,0.02396 -0.05323,0.02396 -0.03993,0 -0.07719,-0.02662 -0.0346,-0.02662 -0.06122,-0.06122 -0.02662,-0.0346 -0.04259,-0.06921 -0.01597,-0.03726 -0.01597,-0.0559 0,-0.02396 0.01863,-0.08517 0.02129,-0.06122 0.04259,-0.125102 0.01331,-0.03993 0.0346,-0.109132 0.02129,-0.06921 0.04259,-0.151719 0.02396,-0.08518 0.04525,-0.175675 0.02396,-0.0905 0.04259,-0.170352 0.01863,-0.07985 0.02928,-0.13841 0.01065,-0.06122 0.01065,-0.08784 z m 3.207401,-0.601554 q 0,-0.266174 -0.154382,-0.415232 -0.151719,-0.151719 -0.436525,-0.151719 -0.03993,0 -0.09849,0.03194 -0.05856,0.03194 -0.127764,0.08251 -0.06654,0.04791 -0.135749,0.106469 -0.06654,0.05856 -0.127763,0.114455 -0.05856,0.0559 -0.101146,0.101147 -0.04259,0.04525 -0.05856,0.06388 -0.0559,0.06654 -0.117116,0.18366 -0.05856,0.114455 -0.109132,0.247542 -0.05057,0.133087 -0.08518,0.268836 -0.03194,0.133087 -0.03194,0.234233 0,0.06122 0.01597,0.125102 0.01863,0.06388 0.05324,0.117117 0.03726,0.05057 0.09316,0.08518 0.0559,0.03194 0.130425,0.03194 0.08251,0 0.210278,-0.04791 0.127763,-0.04791 0.268836,-0.133087 0.143734,-0.08518 0.287468,-0.202292 0.146396,-0.117117 0.260851,-0.252866 0.117117,-0.135749 0.188984,-0.284806 0.07453,-0.15172 0.07453,-0.306101 z"
     id="path4749" /></g><g
   aria-label="з"
   transform="scale(1.4019368,0.71329892)"
   id="text16794"
   style="font-size:6.2783px;line-height:1.25;font-family:'Segoe Script';-inkscape-font-specification:'Segoe Script';fill:#131313;stroke-width:0.156957"><path
     d="m 0.76742067,20.759084 q 0.0306558,0 0.0490492,0.02146 0.021459,0.02146 0.0337213,0.05211 0.0122623,0.03372 0.0153279,0.07357 0.006131,0.03985 0.006131,0.07664 0,0.07051 0.0245246,0.153279 0.0275902,0.08277 0.0858361,0.153279 0.0613115,0.07051 0.15634441,0.116491 0.095033,0.04905 0.2329838,0.04905 0.1870001,0 0.3862625,-0.0981 0.1992625,-0.0981 0.3648036,-0.272836 0.1655411,-0.174738 0.2697707,-0.416918 0.1072952,-0.239115 0.1072952,-0.524214 0,-0.263639 -0.05518,-0.447574 -0.05518,-0.183935 -0.1440821,-0.297361 -0.085836,-0.116492 -0.1992624,-0.168607 -0.1134264,-0.05211 -0.2268527,-0.05211 -0.042918,0 -0.095033,0.02146 -0.052115,0.01839 -0.1072952,0.04905 -0.052115,0.02759 -0.1072952,0.06131 -0.052115,0.03372 -0.095033,0.06131 -0.073574,0.04905 -0.1410165,0.08277 -0.064377,0.03372 -0.1716723,0.03372 -0.08277,0 -0.144082,-0.06131 -0.058246,-0.06438 -0.058246,-0.168606 0,-0.0797 0.0551804,-0.134886 0.058246,-0.05518 0.1778034,-0.104229 0.2544428,-0.10423 0.4537053,-0.211525 0.202328,-0.110361 0.3402789,-0.236049 0.1379509,-0.128755 0.2115247,-0.282033 0.073574,-0.153279 0.073574,-0.349476 0,-0.07664 -0.024525,-0.150213 -0.021459,-0.07664 -0.067443,-0.134886 -0.045984,-0.06131 -0.1134263,-0.0981 -0.064377,-0.03985 -0.1502133,-0.03985 -0.1839345,0 -0.3494756,0.113427 -0.1655411,0.113426 -0.3249511,0.278967 -0.070508,0.07357 -0.1164919,0.107295 -0.045984,0.03066 -0.098098,0.03066 -0.0429181,0 -0.0766394,-0.02146 -0.0306558,-0.02453 -0.0521148,-0.05518 -0.0183935,-0.03372 -0.0306558,-0.07051 -0.009197,-0.03985 -0.009197,-0.06744 0,-0.07357 0.0398525,-0.137951 0.0429181,-0.06744 0.11342631,-0.125689 0.1532788,-0.128754 0.3004265,-0.211525 0.1471476,-0.08277 0.2421805,-0.122623 0.1072951,-0.04292 0.2207214,-0.08277 0.1164919,-0.03985 0.2176559,-0.03985 0.1440821,0 0.2759019,0.05212 0.1318198,0.04905 0.2299182,0.147148 0.101164,0.09503 0.15941,0.236049 0.061311,0.141017 0.061311,0.31882 0,0.257508 -0.1256886,0.511951 -0.1226231,0.254443 -0.419984,0.493558 0.2053936,0.0092 0.3586724,0.10423 0.1532788,0.09503 0.2544429,0.251377 0.1042295,0.156344 0.1532788,0.361738 0.052115,0.202328 0.052115,0.42918 0,0.226853 -0.061311,0.45064 -0.061311,0.223787 -0.1747378,0.429181 -0.1103607,0.205393 -0.2667051,0.380131 -0.1532788,0.174738 -0.340279,0.303492 -0.1839345,0.128754 -0.3954593,0.202328 -0.2084592,0.07357 -0.4291806,0.07357 -0.2115248,0 -0.36786917,-0.07051 -0.15634438,-0.06744 -0.26057396,-0.171672 -0.10116401,-0.10423 -0.15327881,-0.223787 -0.0521148,-0.119558 -0.0521148,-0.220722 0,-0.07664 0.0275902,-0.165541 0.0306558,-0.0889 0.0674427,-0.141017 0.0245246,-0.03372 0.0705082,-0.07051 0.0459836,-0.03372 0.11649189,-0.03372 z"
     id="path4770" /></g><g
   aria-label="в"
   transform="scale(1.4174991,0.70546781)"
   id="text19318"
   style="font-size:6.53783px;line-height:1.25;font-family:'Segoe Script';-inkscape-font-specification:'Segoe Script';fill:#161616;stroke-width:0.163448"><path
     d="m 20.413426,17.215695 q 0,-0.03831 -0.01596,-0.07662 -0.01277,-0.0415 -0.0415,-0.07342 -0.02554,-0.03512 -0.07023,-0.05746 -0.0415,-0.02235 -0.09896,-0.02235 -0.11173,0 -0.233037,0.07981 -0.118116,0.07981 -0.239423,0.220269 -0.118115,0.137269 -0.229846,0.328807 -0.11173,0.188346 -0.207499,0.408614 -0.09577,0.220269 -0.172384,0.462884 -0.07342,0.239422 -0.118115,0.482037 0.02873,-0.01915 0.08619,-0.06065 0.05746,-0.04469 0.127692,-0.09896 0.07342,-0.05746 0.15323,-0.121307 0.083,-0.06704 0.156423,-0.130885 0.07662,-0.06385 0.140461,-0.121307 0.06385,-0.05746 0.102154,-0.09896 0.354345,-0.383076 0.507575,-0.663999 0.153231,-0.280922 0.153231,-0.456499 z m -0.09896,3.441299 q -0.09896,0.146846 -0.239422,0.287307 -0.137269,0.137269 -0.303269,0.242615 -0.165999,0.105346 -0.354345,0.166 -0.185153,0.06065 -0.376691,0.04469 -0.134077,-0.0096 -0.255384,-0.08619 -0.121308,-0.07981 -0.213884,-0.223461 -0.09258,-0.146846 -0.146846,-0.357538 -0.05427,-0.210691 -0.05427,-0.485229 0,-0.175577 0.01915,-0.379884 0.01915,-0.207499 0.05108,-0.418191 0.03192,-0.210692 0.07023,-0.411807 0.0415,-0.201115 0.07981,-0.370307 0.05108,-0.229845 0.134076,-0.453306 0.083,-0.226653 0.185154,-0.434153 0.102153,-0.210692 0.220268,-0.395845 0.118115,-0.185153 0.242615,-0.335192 0.172384,-0.201114 0.392653,-0.322422 0.223461,-0.121307 0.523537,-0.121307 0.1245,0 0.226653,0.05108 0.102154,0.05108 0.175577,0.134076 0.07342,0.07981 0.11173,0.181961 0.0415,0.102154 0.0415,0.201115 0,0.137269 -0.05746,0.306461 -0.05427,0.166 -0.159615,0.347961 -0.105346,0.181961 -0.255384,0.367114 -0.150038,0.185153 -0.341576,0.357538 0.04469,0.0032 0.102153,0.01596 0.06065,0.0096 0.1245,0.03831 0.06704,0.02873 0.134077,0.07662 0.07023,0.04788 0.134076,0.121307 0.02873,0.03512 0.06385,0.09577 0.03511,0.05746 0.06385,0.143654 0.03192,0.083 0.05108,0.191538 0.02235,0.108538 0.02235,0.239422 0,0.255384 -0.09258,0.552268 -0.08938,0.293692 -0.31923,0.632075 z m -0.08938,-1.174766 q 0,-0.175576 -0.05108,-0.293691 -0.05108,-0.121308 -0.121307,-0.191538 -0.07023,-0.07342 -0.143654,-0.102154 -0.07342,-0.03192 -0.118115,-0.03192 -0.0415,0 -0.130884,0.06385 -0.08938,0.06385 -0.191538,0.140461 -0.07662,0.06704 -0.15323,0.1245 -0.07662,0.05746 -0.143654,0.11173 -0.06385,0.05427 -0.118115,0.108539 -0.05427,0.05427 -0.08938,0.114922 -0.08939,0.162808 -0.105346,0.370307 -0.01596,0.2075 -0.01596,0.424576 0,0.143653 0.02873,0.258576 0.03192,0.111731 0.07662,0.191538 0.04788,0.07981 0.102154,0.1245 0.05427,0.0415 0.09896,0.0415 0.108538,0 0.245807,-0.04469 0.137269,-0.04469 0.280922,-0.175577 0.1245,-0.114923 0.223461,-0.258576 0.102154,-0.143654 0.172385,-0.303269 0.07342,-0.159615 0.11173,-0.331999 0.0415,-0.172384 0.0415,-0.341576 z"
     id="path4728" /></g><text
   xml:space="preserve"
   style="font-size:4.81997px;line-height:1.25;font-family:'Segoe Script';-inkscape-font-specification:'Segoe Script';fill:#16272a;fill-opacity:0.799714;stroke-width:0.1205"
   x="3.9865847"
   y="17.651833"
   id="text17884"
   transform="scale(1.2778402,0.78257046)"><tspan
     sodipodi:role="line"
     id="tspan17882"
     x="3.9865847"
     y="17.651833"
     style="stroke-width:0.1205">_</tspan></text><text
   xml:space="preserve"
   style="font-size:4.90957px;line-height:1.25;font-family:'Segoe Script';-inkscape-font-specification:'Segoe Script';fill:#16272a;fill-opacity:0.799714;stroke-width:0.122739"
   x="16.520115"
   y="17.856054"
   id="text17884-6"
   transform="scale(1.3015953,0.76828797)"><tspan
     sodipodi:role="line"
     id="tspan17882-2"
     x="16.520115"
     y="17.856054"
     style="stroke-width:0.122739">_</tspan></text><text
   xml:space="preserve"
   style="font-size:4.31291px;line-height:1.25;font-family:'Segoe Script';-inkscape-font-specification:'Segoe Script';fill:#16272a;fill-opacity:0.799714;stroke-width:0.107823"
   x="-18.510681"
   y="19.096138"
   id="text17884-0"
   transform="matrix(-0.01787522,-1.3997517,0.7137013,-0.05568697,0,0)"><tspan
     sodipodi:role="line"
     id="tspan17882-4"
     x="-18.510681"
     y="19.096138"
     style="stroke-width:0.107823">_</tspan></text><text
   xml:space="preserve"
   style="font-size:4.86729px;line-height:1.25;font-family:'Segoe Script';-inkscape-font-specification:'Segoe Script';fill:#16272a;fill-opacity:0.799714;stroke-width:0.121682"
   x="-5.5274806"
   y="19.656105"
   id="text17884-9"
   transform="matrix(4.9966637e-4,-1.3681504,0.73091325,0.00148566,0,0)"><tspan
     sodipodi:role="line"
     id="tspan17882-7"
     x="-5.5274806"
     y="19.656105"
     style="stroke-width:0.121682">_</tspan></text></svg>
