<?xml version="1.0" encoding="UTF-8" standalone="no"?>
<!-- Generator: Adobe Illustrator 22.0.1, SVG Export Plug-In . SVG Version: 6.00 Build 0)  -->

<svg
   version="1.1"
   id="Layer_1"
   x="0px"
   y="0px"
   viewBox="0 0 30 30"
   xml:space="preserve"
   sodipodi:docname="northEastWind.svg"
   width="30"
   height="30"
   inkscape:version="1.1.1 (3bf5ae0d25, 2021-09-20)"
   xmlns:inkscape="http://www.inkscape.org/namespaces/inkscape"
   xmlns:sodipodi="http://sodipodi.sourceforge.net/DTD/sodipodi-0.dtd"
   xmlns="http://www.w3.org/2000/svg"
   xmlns:svg="http://www.w3.org/2000/svg"><defs
   id="defs7" /><sodipodi:namedview
   id="namedview5"
   pagecolor="#ffffff"
   bordercolor="#666666"
   borderopacity="1.0"
   inkscape:pageshadow="2"
   inkscape:pageopacity="0.0"
   inkscape:pagecheckerboard="0"
   showgrid="false"
   inkscape:zoom="28.733333"
   inkscape:cx="18.167054"
   inkscape:cy="19.158933"
   inkscape:window-width="2400"
   inkscape:window-height="1321"
   inkscape:window-x="2391"
   inkscape:window-y="-9"
   inkscape:window-maximized="1"
   inkscape:current-layer="Layer_1"
   width="140px" />
<path
   d="m 7.4288234,8.0277329 c 1.280218,-1.410983 2.8084276,-2.3954598 4.5716466,-2.9528417 1.763223,-0.557381 3.542024,-0.6379335 5.336411,-0.2416585 1.794386,0.3962731 3.369342,1.2402249 4.73115,2.5249308 1.019676,0.9619475 1.810837,2.0934246 2.37305,3.3811795 0.562206,1.287755 0.852189,2.601105 0.902181,3.931954 0.04999,1.330849 -0.166401,2.66713 -0.649184,4.008837 -0.482784,1.341712 -1.191484,2.534475 -2.157922,3.599633 -0.953884,1.051323 -2.07137,1.871283 -3.339468,2.459303 -1.268097,0.588017 -2.564545,0.905393 -3.862943,0.964191 -1.298393,0.0588 -2.605447,-0.147312 -3.908176,-0.618907 C 10.122842,24.612754 8.9618584,23.902602 7.9354733,22.934325 6.9090818,21.966051 6.1112162,20.828245 5.5490061,19.540486 4.9867991,18.252731 4.6901088,16.933056 4.6401118,15.602208 4.5901194,14.271358 4.813222,12.941407 5.276749,11.607202 5.7402695,10.272992 6.4686624,9.08597 7.4288234,8.0277329 Z M 9.09251,9.5972289 C 7.6052026,11.236462 6.889361,13.205539 6.9516924,15.510793 c 0.074883,2.291417 0.9171175,4.189939 2.5338438,5.715133 1.0599268,0.999922 2.2908098,1.66048 3.6855048,1.962105 1.394697,0.301623 2.78441,0.251954 4.161578,-0.181826 1.377164,-0.433777 2.561731,-1.190454 3.553274,-2.283276 0.991534,-1.092822 1.645703,-2.362706 1.962942,-3.796406 0.317238,-1.4337 0.270923,-2.850937 -0.138945,-4.251711 C 22.300024,11.274037 21.565345,10.080316 20.505415,9.0803949 19.445488,8.0804733 18.214605,7.4199155 16.819908,7.1182901 15.425215,6.8166689 14.02922,6.8732545 12.645349,7.3007067 11.261475,7.7281593 10.08405,8.5044073 9.09251,9.5972289 Z M 8.7017172,16.738123 19.444629,10.043702 c 0.06946,-0.062835 0.134384,-0.065775 0.19476,-0.0088 0.06036,0.05697 0.06254,0.123183 0.0065,0.198674 L 13.927568,21.66811 c -0.04219,0.101403 -0.09911,0.150406 -0.170303,0.160262 -0.0712,0.0098 -0.124862,-0.04077 -0.161002,-0.151888 l -1.511991,-3.095187 c -0.04198,-0.09095 -0.109064,-0.154241 -0.194546,-0.183529 L 8.7259592,17.081914 c -0.1047324,-0.02179 -0.1516896,-0.06609 -0.1408727,-0.132903 0.010823,-0.06681 0.040463,-0.154378 0.1166365,-0.210889 z"
   id="path2"
   style="fill:#2c4f54;fill-opacity:0.5;stroke:#2e3332;stroke-width:0.0572113;stroke-miterlimit:4;stroke-dasharray:none;stroke-opacity:0.9" />
<path
   style="fill:#1f4347;fill-opacity:0.81;stroke:#e4e7e7;stroke-width:0.0572113;stroke-miterlimit:4;stroke-dasharray:none;stroke-opacity:0.9"
   d="M 9.11395,20.307903 C 8.8583022,20.007636 8.5975362,19.655688 8.39142,19.332734 7.232445,17.516751 6.9152566,14.991773 7.5721746,12.811131 7.9257842,11.637331 8.4235989,10.778196 9.2978421,9.8329551 10.195146,8.862712 11.042986,8.2827187 12.206185,7.8432051 12.990192,7.5469765 13.704753,7.3990302 14.57523,7.3527115 c 1.727513,-0.091919 3.275857,0.3177363 4.715118,1.2475009 0.29973,0.1936252 0.412066,0.2872044 0.972926,0.8104711 0.680762,0.6351665 0.854572,0.8341595 1.237192,1.4165295 0.577855,0.879571 1.023434,2.064713 1.190673,3.166949 0.06822,0.449597 0.09119,1.394776 0.04519,1.859287 -0.111327,1.124199 -0.435162,2.194946 -0.934812,3.090905 -0.368448,0.660705 -0.524546,0.871891 -1.124274,1.521091 -0.423083,0.457951 -0.611385,0.643257 -0.826298,0.812963 -1.305153,1.030697 -2.89929,1.619673 -4.555346,1.683024 -1.696062,0.06488 -3.35102,-0.408265 -4.722148,-1.350038 -0.316074,-0.217099 -1.2278427,-1.031405 -1.4595044,-1.303488 z m 1.321318,-2.711845 c 0.858192,0.356068 1.58923,0.663485 1.624527,0.683149 0.04357,0.02426 0.317196,0.545626 0.852064,1.623472 0.453548,0.913962 0.809992,1.598197 0.839975,1.612417 0.06215,0.02946 0.167293,-0.0332 0.22824,-0.136026 0.02419,-0.04082 1.28701,-2.527868 2.806262,-5.526767 2.662252,-5.255107 2.760849,-5.455338 2.722894,-5.529661 -0.02935,-0.05744 -0.05536,-0.07637 -0.102078,-0.07412 -0.07727,0.0036 -10.4455929,6.30963 -10.536851,6.408439 -0.082454,0.08927 -0.105831,0.236688 -0.042528,0.268217 0.02595,0.0129 0.7493062,0.314817 1.607497,0.670884 z"
   id="path861" /><rect
   style="fill:#c7485e;fill-opacity:1;stroke:#3c4343;stroke-width:0.245654;stroke-opacity:0.9"
   id="rect2803"
   width="2.6921721"
   height="0.031669963"
   x="19.93449"
   y="-1.009115"
   transform="matrix(0.73663181,0.676294,-0.66843944,0.74376657,0,0)"
   inkscape:transform-center-x="2.1230282"
   inkscape:transform-center-y="0.19441454" /><path
   style="fill:#cd425c;fill-opacity:1;stroke:#e27364;stroke-width:0.01925;stroke-opacity:0.9"
   d="m 15.665043,12.506845 c 0.0409,-0.02469 0.915335,-0.567329 1.943194,-1.205887 1.027858,-0.638558 1.897688,-1.171459 1.932952,-1.184222 0.05549,-0.02009 -1.972582,3.957096 -2.073169,4.065616 -0.02746,0.02966 -0.282732,-0.182356 -0.957397,-0.79511 C 15.65037,12.605927 15.59552,12.54879 15.665034,12.506853 Z"
   id="path3397"
   inkscape:transform-center-x="0.84060765"
   inkscape:transform-center-y="-1.0576519" /><g
   aria-label="c"
   transform="scale(1.0016619,0.99834084)"
   id="text9344"
   style="font-size:6.18423px;line-height:1.25;font-family:'Segoe Script';-inkscape-font-specification:'Segoe Script';stroke-width:0.154604"><path
     d="m 17.220319,2.6243977 q 0,0.1087071 -0.07851,0.1962768 -0.08153,0.090589 -0.141923,0.1540018 -0.06039,0.060393 -0.114746,0.1117268 -0.05435,0.051334 -0.114747,0.099648 -0.06039,0.045295 -0.141923,0.1056875 -0.229493,0.1660804 -0.437848,0.2808268 -0.208356,0.1117268 -0.404633,0.1841983 -0.196276,0.069452 -0.389534,0.099648 -0.190237,0.030197 -0.383494,0.030197 -0.202316,0 -0.362358,-0.075491 -0.160041,-0.078511 -0.271767,-0.2113751 -0.108708,-0.1328643 -0.166081,-0.3080036 -0.05737,-0.178159 -0.05737,-0.3744358 v -0.015098 q 0,-0.1992965 0.05133,-0.4227501 0.05133,-0.2264733 0.141923,-0.4529465 0.09361,-0.2264733 0.223454,-0.4438876 0.129844,-0.220434 0.286866,-0.4106715 0.06341,-0.075491 0.150982,-0.1600411 0.09059,-0.0875697 0.190238,-0.16004115 0.102667,-0.0724714 0.211375,-0.11776609 0.111726,-0.0483143 0.217414,-0.0483143 0.07247,0 0.138904,0.0452946 0.06643,0.042275 0.123805,0.11172681 0.05737,0.0694518 0.105687,0.15702146 0.04831,0.08455 0.08153,0.17513932 0.03322,0.08757 0.05133,0.1691 0.01812,0.08153 0.01812,0.1389036 0,0.08757 -0.05435,0.2264733 -0.05435,0.1389036 -0.129845,0.1389036 -0.108707,0 -0.181178,-0.1479625 -0.02718,-0.057373 -0.04831,-0.1328643 -0.01812,-0.075491 -0.04529,-0.1479626 -0.02416,-0.072471 -0.06643,-0.1328643 -0.04228,-0.063413 -0.117766,-0.093609 -0.07549,0.018118 -0.154002,0.078511 -0.07549,0.060393 -0.150982,0.1479625 -0.07247,0.08757 -0.144943,0.1992965 -0.06945,0.1087072 -0.132865,0.2264733 -0.06039,0.1087071 -0.117766,0.2506304 -0.05737,0.1389036 -0.102668,0.2898857 -0.04529,0.1479626 -0.07247,0.2959251 -0.02718,0.1479625 -0.02718,0.2717679 0,0.08757 0.04228,0.178159 0.04228,0.08757 0.108707,0.1600411 0.06945,0.072471 0.154002,0.1177661 0.08757,0.045295 0.178159,0.045295 0.446907,0 0.887775,-0.1841982 0.440868,-0.1841983 0.839461,-0.5344769 0.220434,-0.1932572 0.365377,-0.1932572 0.04228,0 0.04228,0.08153 z"
     id="path4980" /></g><text
   xml:space="preserve"
   style="font-size:5.06021px;line-height:1.25;font-family:'Segoe Script';-inkscape-font-specification:'Segoe Script';fill:#16272a;fill-opacity:0.799714;stroke-width:0.126506"
   x="3.7750046"
   y="18.062948"
   id="text17884"
   transform="scale(1.3001675,0.76913167)"><tspan
     sodipodi:role="line"
     id="tspan17882"
     x="3.7750046"
     y="18.062948"
     style="stroke-width:0.126506">_</tspan></text><text
   xml:space="preserve"
   style="font-size:5.15431px;line-height:1.25;font-family:'Segoe Script';-inkscape-font-specification:'Segoe Script';fill:#16272a;fill-opacity:0.799714;stroke-width:0.128858"
   x="16.79497"
   y="18.360813"
   id="text17884-6"
   transform="scale(1.3243375,0.75509453)"><tspan
     sodipodi:role="line"
     id="tspan17882-2"
     x="16.79497"
     y="18.360813"
     style="stroke-width:0.128858">_</tspan></text><text
   xml:space="preserve"
   style="font-size:4.52805px;line-height:1.25;font-family:'Segoe Script';-inkscape-font-specification:'Segoe Script';fill:#16272a;fill-opacity:0.799714;stroke-width:0.113199"
   x="-19.316839"
   y="19.425051"
   id="text17884-0"
   transform="matrix(-0.01818756,-1.3757143,0.72617156,-0.0547307,0,0)"><tspan
     sodipodi:role="line"
     id="tspan17882-4"
     x="-19.316839"
     y="19.425051"
     style="stroke-width:0.113199">_</tspan></text><text
   xml:space="preserve"
   style="font-size:5.11005px;line-height:1.25;font-family:'Segoe Script';-inkscape-font-specification:'Segoe Script';fill:#16272a;fill-opacity:0.799714;stroke-width:0.127748"
   x="-5.6691632"
   y="19.989315"
   id="text17884-9"
   transform="matrix(5.0839687e-4,-1.3446557,0.74368425,0.00146015,0,0)"><tspan
     sodipodi:role="line"
     id="tspan17882-7"
     x="-5.6691632"
     y="19.989315"
     style="stroke-width:0.127748">_</tspan></text><g
   aria-label="в"
   transform="scale(1.3775596,0.7259214)"
   id="text19318"
   style="font-size:6.00963px;line-height:1.25;font-family:'Segoe Script';-inkscape-font-specification:'Segoe Script';fill:#161616;stroke-width:0.15024"><path
     d="m 20.934454,16.911116 q 0,-0.03521 -0.01467,-0.07043 -0.01174,-0.03815 -0.03815,-0.06749 -0.02347,-0.03228 -0.06456,-0.05282 -0.03815,-0.02054 -0.09097,-0.02054 -0.102703,0 -0.21421,0.07336 -0.108572,0.07336 -0.220079,0.202473 -0.108573,0.126179 -0.211276,0.302242 -0.102704,0.173129 -0.190736,0.375602 -0.08803,0.202473 -0.158457,0.425487 -0.06749,0.220079 -0.108572,0.443093 0.02641,-0.01761 0.07923,-0.05575 0.05282,-0.04108 0.117376,-0.09097 0.06749,-0.05282 0.140851,-0.111507 0.07629,-0.06162 0.143785,-0.12031 0.07043,-0.05869 0.129113,-0.111506 0.05869,-0.05282 0.0939,-0.09097 0.325718,-0.352127 0.466568,-0.610354 0.140851,-0.258226 0.140851,-0.419617 z m -0.09097,3.163272 q -0.09097,0.134982 -0.220079,0.264095 -0.126179,0.126179 -0.278767,0.223014 -0.152588,0.09683 -0.325717,0.152588 -0.170195,0.05575 -0.346258,0.04108 -0.123245,-0.0088 -0.234752,-0.07923 -0.111506,-0.07336 -0.196604,-0.205407 -0.0851,-0.134982 -0.134982,-0.328652 -0.04988,-0.19367 -0.04988,-0.446027 0,-0.161392 0.01761,-0.349193 0.01761,-0.190735 0.04695,-0.384405 0.02934,-0.19367 0.06456,-0.378536 0.03815,-0.184867 0.07336,-0.340389 0.04695,-0.211276 0.123244,-0.416684 0.07629,-0.208341 0.170195,-0.399077 0.0939,-0.193669 0.202472,-0.363864 0.108573,-0.170195 0.223014,-0.308111 0.158457,-0.184866 0.36093,-0.296373 0.205407,-0.111507 0.48124,-0.111507 0.114441,0 0.208342,0.04695 0.0939,0.04695 0.161391,0.123245 0.06749,0.07336 0.102704,0.16726 0.03815,0.0939 0.03815,0.184866 0,0.126179 -0.05282,0.281702 -0.04988,0.152588 -0.14672,0.319848 -0.09683,0.16726 -0.234751,0.337455 -0.137916,0.170195 -0.31398,0.328652 0.04108,0.0029 0.0939,0.01467 0.05575,0.0088 0.114441,0.03521 0.06162,0.02641 0.123244,0.07043 0.06456,0.04401 0.123245,0.111506 0.02641,0.03228 0.05869,0.08803 0.03228,0.05282 0.05869,0.132048 0.02934,0.07629 0.04695,0.176063 0.02054,0.09977 0.02054,0.220079 0,0.234751 -0.0851,0.50765 -0.08216,0.269964 -0.293439,0.581009 z m -0.08216,-1.079856 q 0,-0.161391 -0.04695,-0.269963 -0.04695,-0.111507 -0.111507,-0.176064 -0.06456,-0.06749 -0.132047,-0.0939 -0.06749,-0.02934 -0.108573,-0.02934 -0.03815,0 -0.12031,0.05869 -0.08216,0.05869 -0.176063,0.129113 -0.07043,0.06162 -0.140851,0.114441 -0.07043,0.05282 -0.132047,0.102704 -0.05869,0.04988 -0.108573,0.09977 -0.04988,0.04988 -0.08216,0.105638 -0.08216,0.149654 -0.09683,0.340389 -0.01467,0.190735 -0.01467,0.390274 0,0.132048 0.02641,0.237686 0.02934,0.102703 0.07043,0.176063 0.04402,0.07336 0.0939,0.114441 0.04988,0.03815 0.09097,0.03815 0.09977,0 0.225948,-0.04108 0.126179,-0.04108 0.258226,-0.161392 0.114441,-0.105638 0.205407,-0.237685 0.0939,-0.132048 0.158457,-0.278767 0.06749,-0.14672 0.102704,-0.305177 0.03815,-0.158457 0.03815,-0.31398 z"
     id="path4917" /></g><g
   aria-label="ю"
   transform="scale(0.87880993,1.1379025)"
   id="text11307"
   style="font-size:5.01076px;line-height:1.25;font-family:'Segoe Script';-inkscape-font-specification:'Segoe Script';fill:#151515;stroke-width:0.125266"><path
     d="m 15.104564,24.844826 q 0,-0.0098 -0.01223,-0.01713 -0.0098,-0.0098 -0.02447,-0.02447 -0.01468,-0.01468 -0.02691,-0.03915 -0.0098,-0.02447 -0.0098,-0.06851 0,-0.03915 0.02202,-0.07095 0.02202,-0.03181 0.04649,-0.05872 0.02691,-0.02691 0.04893,-0.04893 0.02447,-0.02202 0.02936,-0.04159 0.04159,-0.23488 0.07095,-0.442846 0.02936,-0.207966 0.0367,-0.347425 0.0024,-0.04159 0,-0.08563 0,-0.04404 -0.0024,-0.08808 -0.0024,-0.03181 -0.0049,-0.06117 0,-0.02936 0,-0.05627 0,-0.02936 0.02202,-0.06606 0.02202,-0.0367 0.05383,-0.06851 0.03425,-0.03181 0.0734,-0.05138 0.04159,-0.02202 0.08074,-0.02202 0.03425,0 0.06851,0.01957 0.03425,0.01713 0.06117,0.05138 0.02691,0.03181 0.04404,0.08074 0.01713,0.04649 0.01713,0.105206 0,0.04404 -0.0073,0.107653 -0.0073,0.06361 -0.01957,0.13946 -0.01223,0.07585 -0.02936,0.159033 -0.01468,0.08319 -0.02936,0.166373 -0.01957,0.114993 -0.03915,0.220199 -0.01713,0.105207 -0.02691,0.181053 0.0098,0.02202 0.01713,0.03915 0.0098,0.01468 0.02447,0.02447 0.01468,0.0098 0.0367,0.01468 0.02447,0.0049 0.06361,0.0049 0.105206,0 0.222646,-0.02202 0.11744,-0.02202 0.222646,-0.05627 0.105206,-0.03425 0.188393,-0.07095 0.08563,-0.03915 0.127226,-0.0734 0.02691,-0.02202 0.05872,-0.05872 0.03425,-0.0367 0.06851,-0.07829 0.03425,-0.04404 0.06606,-0.08563 0.03425,-0.04404 0.05872,-0.07585 0.08319,-0.105207 0.188393,-0.20552 0.105206,-0.100313 0.232433,-0.176159 0.127226,-0.07585 0.274026,-0.122333 0.149246,-0.04649 0.322959,-0.04649 0.132119,0 0.259346,0.06606 0.127226,0.06361 0.225092,0.173713 0.100313,0.1101 0.159033,0.254453 0.06117,0.141906 0.06117,0.298492 0,0.156586 -0.03181,0.286259 -0.02936,0.127227 -0.09542,0.27158 -0.0367,0.07585 -0.127227,0.181053 -0.09053,0.105206 -0.217753,0.217752 -0.124779,0.112547 -0.274025,0.222646 -0.149247,0.1101 -0.303386,0.19818 -0.15414,0.08808 -0.303386,0.141906 -0.1468,0.05383 -0.266686,0.05383 -0.16148,0 -0.276473,-0.05383 -0.114993,-0.05627 -0.188393,-0.144353 -0.0734,-0.09053 -0.107653,-0.205519 -0.03425,-0.114993 -0.03425,-0.232433 0,-0.09542 0.02691,-0.229986 0.02936,-0.137013 0.09787,-0.276473 -0.09297,0.05872 -0.207966,0.09297 -0.112547,0.03425 -0.207966,0.06117 -0.04159,0.01223 -0.09297,0.02202 -0.05138,0.0073 -0.10276,0.01468 -0.04893,0.0073 -0.09542,0.01468 -0.04404,0.0073 -0.07585,0.01223 -0.04893,0.0098 -0.06851,0.03915 -0.01713,0.02691 -0.02691,0.07095 -0.0098,0.04159 -0.02936,0.110099 -0.01957,0.06851 -0.03915,0.141907 -0.02202,0.07829 -0.04649,0.161479 -0.02447,0.08319 -0.04404,0.159033 -0.01713,0.0734 -0.03181,0.137013 -0.01223,0.06117 -0.01223,0.09542 0,0.03181 -0.02691,0.06851 -0.02447,0.0367 -0.05872,0.06851 -0.03181,0.03425 -0.06606,0.05627 -0.03181,0.02202 -0.04893,0.02202 -0.0367,0 -0.07095,-0.02447 -0.03181,-0.02447 -0.05627,-0.05627 -0.02447,-0.03181 -0.03915,-0.06361 -0.01468,-0.03425 -0.01468,-0.05138 0,-0.02202 0.01713,-0.07829 0.01957,-0.05627 0.03915,-0.114993 0.01223,-0.0367 0.03181,-0.100313 0.01957,-0.06361 0.03915,-0.13946 0.02202,-0.07829 0.04159,-0.161479 0.02202,-0.08319 0.03915,-0.156586 0.01713,-0.0734 0.02691,-0.127227 0.0098,-0.05627 0.0098,-0.08074 z m 2.948226,-0.552945 q 0,-0.244666 -0.141907,-0.381679 -0.139459,-0.139459 -0.401252,-0.139459 -0.0367,0 -0.09053,0.02936 -0.05383,0.02936 -0.11744,0.07585 -0.06117,0.04404 -0.12478,0.09787 -0.06117,0.05383 -0.117439,0.105207 -0.05383,0.05138 -0.09297,0.09297 -0.03915,0.04159 -0.05383,0.05872 -0.05138,0.06117 -0.107653,0.168819 -0.05383,0.105207 -0.100313,0.22754 -0.04649,0.122333 -0.07829,0.247112 -0.02936,0.122333 -0.02936,0.215306 0,0.05627 0.01468,0.114994 0.01713,0.05872 0.04893,0.107653 0.03425,0.04649 0.08563,0.07829 0.05138,0.02936 0.119886,0.02936 0.07585,0 0.193287,-0.04404 0.117439,-0.04404 0.247112,-0.122333 0.13212,-0.07829 0.264239,-0.185946 0.134567,-0.107653 0.239773,-0.232433 0.107653,-0.12478 0.173713,-0.261793 0.06851,-0.139459 0.06851,-0.281366 z"
     id="path4938" /></g><g
   aria-label="з"
   transform="scale(1.3624358,0.73397955)"
   id="text16794"
   style="font-size:5.77096px;line-height:1.25;font-family:'Segoe Script';-inkscape-font-specification:'Segoe Script';fill:#131313;stroke-width:0.144275"><path
     d="m 0.55660287,20.285134 q 0.0281785,0 0.0450856,0.01973 0.019725,0.01973 0.0309964,0.0479 0.0112714,0.031 0.0140893,0.06763 0.005636,0.03663 0.005636,0.07045 0,0.06481 0.0225428,0.140893 0.0253607,0.07608 0.0788999,0.140892 0.056357,0.06481 0.14371042,0.107079 0.0873534,0.04509 0.2141567,0.04509 0.171889,0 0.3550493,-0.09017 0.1831604,-0.09017 0.3353243,-0.250789 0.152164,-0.160617 0.247971,-0.383228 0.098625,-0.219792 0.098625,-0.481852 0,-0.242336 -0.050721,-0.411407 -0.050721,-0.169071 -0.132439,-0.273331 -0.0789,-0.107079 -0.1831603,-0.154982 -0.1042605,-0.0479 -0.208521,-0.0479 -0.03945,0 -0.087353,0.01973 -0.047903,0.01691 -0.098625,0.04509 -0.047904,0.02536 -0.098625,0.05636 -0.047904,0.031 -0.087353,0.05636 -0.067629,0.04509 -0.1296212,0.07608 -0.059175,0.031 -0.15779969,0.031 -0.076082,0 -0.13243902,-0.05636 -0.0535392,-0.05917 -0.0535392,-0.154981 0,-0.07326 0.0507213,-0.123986 0.0535392,-0.05072 0.16343539,-0.09581 0.23388167,-0.09581 0.41704197,-0.194432 0.1859782,-0.101442 0.3127816,-0.216974 0.1268033,-0.11835 0.1944317,-0.259242 0.067629,-0.140893 0.067629,-0.321236 0,-0.07045 -0.022543,-0.138074 -0.019725,-0.07045 -0.061993,-0.123986 -0.042268,-0.05636 -0.1042605,-0.09017 -0.059175,-0.03663 -0.1380747,-0.03663 -0.1690711,0 -0.3212351,0.10426 -0.152164,0.104261 -0.29869225,0.256425 -0.0648106,0.06763 -0.10707836,0.09862 -0.0422678,0.02818 -0.0901712,0.02818 -0.0394499,0 -0.0704463,-0.01973 -0.0281785,-0.02254 -0.0479035,-0.05072 -0.0169071,-0.031 -0.0281785,-0.06481 -0.008454,-0.03663 -0.008454,-0.06199 0,-0.06763 0.0366321,-0.126804 0.0394499,-0.06199 0.10426051,-0.115532 0.14089257,-0.118349 0.27614941,-0.194431 0.1352569,-0.07608 0.2226103,-0.112714 0.098625,-0.03945 0.2028853,-0.07608 0.1070784,-0.03663 0.2000675,-0.03663 0.132439,0 0.2536066,0.0479 0.1211676,0.04509 0.2113389,0.135257 0.092989,0.08735 0.1465282,0.216974 0.056357,0.129622 0.056357,0.293057 0,0.2367 -0.1155319,0.470581 -0.1127141,0.233882 -0.3860457,0.453674 0.1887961,0.0085 0.3296886,0.09581 0.1408926,0.08735 0.2338817,0.231064 0.095807,0.143711 0.1408926,0.332507 0.047903,0.185978 0.047903,0.394499 0,0.208521 -0.056357,0.414224 -0.056357,0.205703 -0.1606175,0.394499 -0.1014427,0.188796 -0.2451531,0.349414 -0.1408926,0.160617 -0.3127815,0.278967 -0.1690711,0.11835 -0.3635029,0.185978 -0.1916139,0.06763 -0.3944992,0.06763 -0.19443171,0 -0.33814214,-0.06481 -0.14371042,-0.06199 -0.23951738,-0.1578 -0.0929891,-0.09581 -0.14089257,-0.205703 -0.0479035,-0.109896 -0.0479035,-0.202885 0,-0.07045 0.0253607,-0.152164 0.0281785,-0.08172 0.0619927,-0.129621 0.0225428,-0.031 0.0648106,-0.06481 0.0422678,-0.031 0.10707835,-0.031 z"
     id="path4959" /></g></svg>
