<?xml version="1.0" encoding="UTF-8" standalone="no"?>
<!-- Generator: Adobe Illustrator 22.0.1, SVG Export Plug-In . SVG Version: 6.00 Build 0)  -->

<svg
   version="1.1"
   id="Layer_1"
   x="0px"
   y="0px"
   viewBox="0 0 30 30"
   xml:space="preserve"
   sodipodi:docname="northwestWind.svg"
   width="30"
   height="30"
   inkscape:version="1.1.1 (3bf5ae0d25, 2021-09-20)"
   xmlns:inkscape="http://www.inkscape.org/namespaces/inkscape"
   xmlns:sodipodi="http://sodipodi.sourceforge.net/DTD/sodipodi-0.dtd"
   xmlns="http://www.w3.org/2000/svg"
   xmlns:svg="http://www.w3.org/2000/svg"><defs
   id="defs7" /><sodipodi:namedview
   id="namedview5"
   pagecolor="#ffffff"
   bordercolor="#666666"
   borderopacity="1.0"
   inkscape:pageshadow="2"
   inkscape:pageopacity="0.0"
   inkscape:pagecheckerboard="0"
   showgrid="false"
   inkscape:zoom="20.317534"
   inkscape:cx="7.0382557"
   inkscape:cy="20.302661"
   inkscape:window-width="2400"
   inkscape:window-height="1321"
   inkscape:window-x="2391"
   inkscape:window-y="-9"
   inkscape:window-maximized="1"
   inkscape:current-layer="Layer_1"
   width="140px" />
<path
   d="M 7.9354357,22.881154 C 6.5024661,21.610317 5.4947047,20.084889 4.9129137,18.317903 4.331126,16.550914 4.2279922,14.76251 4.6035142,12.952686 4.9790347,11.142863 5.8068741,9.5483835 7.0800039,8.1630061 8.0332803,7.125684 9.1596647,6.3161928 10.445851,5.7351275 c 1.286186,-0.5810581 2.601482,-0.888583 3.937346,-0.954903 1.335871,-0.066311 2.680523,0.1352753 4.033956,0.6047588 1.353439,0.4694934 2.560119,1.1680389 3.641877,2.1273909 1.067708,0.94689 1.905116,2.0611397 2.511482,3.3296948 0.606365,1.268549 0.941296,2.568879 1.01658,3.874286 0.07528,1.305402 -0.115366,2.622707 -0.572673,3.938857 -0.457314,1.316151 -1.155963,2.492586 -2.115512,3.536734 -0.959549,1.044155 -2.092204,1.860466 -3.378394,2.441529 -1.286188,0.581058 -2.60775,0.895407 -3.943619,0.961732 -1.335868,0.06632 -2.674249,-0.142088 -4.019906,-0.592301 -1.345661,-0.450209 -2.5468225,-1.168634 -3.6215523,-2.121752 z m 1.555352,-1.69248 c 1.6647783,1.476403 3.6511563,2.172782 5.9654063,2.082315 2.300196,-0.102929 4.19624,-0.973037 5.707689,-2.61774 0.990909,-1.078272 1.63888,-2.324426 1.924349,-3.731042 0.285464,-1.406619 0.21821,-2.803992 -0.234626,-4.184118 C 22.400771,11.357964 21.626075,10.175469 20.516223,9.1911961 19.40637,8.2069327 18.122921,7.5641715 16.679176,7.2623128 15.235431,6.9604588 13.812762,7.0241195 12.411172,7.4532928 11.009582,7.8824686 9.8199809,8.6358906 8.8290733,9.714165 7.8381631,10.792437 7.190196,12.038591 6.9047261,13.44521 c -0.2854662,1.406614 -0.2111883,2.810226 0.2353814,4.197171 0.4465659,1.38695 1.2408281,2.562025 2.3506802,3.546293 z M 16.666848,21.49578 9.8097273,10.769654 c -0.063971,-0.06912 -0.067732,-0.13439 -0.011277,-0.195811 0.056459,-0.06141 0.1229258,-0.06439 0.1994357,-0.0089 l 11.554522,5.614582 c 0.102362,0.04122 0.152282,0.09789 0.163068,0.169384 0.01077,0.0715 -0.03939,0.126096 -0.150593,0.163722 l -3.089409,1.558259 c -0.09082,0.04333 -0.153532,0.111571 -0.181875,0.197912 l -1.28188,3.198419 c -0.02057,0.105619 -0.06447,0.153389 -0.131635,0.143374 -0.06723,-0.01009 -0.155537,-0.03885 -0.213239,-0.114789 z"
   id="path2"
   style="fill:#2c4f54;fill-opacity:0.5;stroke:#2e3332;stroke-width:0.0575068;stroke-miterlimit:4;stroke-dasharray:none;stroke-opacity:0.9" />
<path
   style="fill:#1f4347;fill-opacity:0.81;stroke:#e4e7e7;stroke-width:0.0575068;stroke-miterlimit:4;stroke-dasharray:none;stroke-opacity:0.9"
   d="m 20.27975,21.046189 c -0.297655,0.261543 -0.647131,0.52899 -0.968315,0.741039 -1.806048,1.192354 -4.336836,1.548302 -6.536609,0.919356 C 11.59073,22.368031 10.720432,21.879825 9.7579586,21.014227 8.7700337,20.125795 8.1747452,19.28142 7.7157467,18.117767 7.4063828,17.333457 7.2469765,16.616836 7.1872665,15.741893 7.0687612,14.005515 7.4566685,12.442039 8.368519,10.980695 8.5584151,10.676365 8.6506855,10.561998 9.167649,9.9901824 9.7951589,9.2961148 9.9923546,9.1183737 10.571374,8.7249857 11.445882,8.130868 12.62925,7.6653443 13.733586,7.4810168 c 0.450455,-0.075189 1.399258,-0.1121043 1.86642,-0.072611 1.130616,0.095563 2.210778,0.4056674 3.11808,0.895183 0.669068,0.3609718 0.883511,0.5149062 1.544533,1.1086966 0.466295,0.4188922 0.655233,0.6056006 0.828914,0.8193036 1.054821,1.297807 1.670444,2.892758 1.759173,4.557672 0.09087,1.705134 -0.359173,3.376782 -1.284117,4.769768 -0.213217,0.321112 -1.017125,1.250157 -1.286835,1.487168 z m -2.743286,-1.28951 c 0.344551,-0.868463 0.642176,-1.608311 0.661389,-1.644105 0.0237,-0.04418 0.543113,-0.327041 1.61738,-0.880812 0.91093,-0.46958 1.592638,-0.838125 1.606464,-0.868492 0.02864,-0.06294 -0.03587,-0.167797 -0.140062,-0.2276 -0.04136,-0.02374 -2.558011,-1.257689 -5.592559,-2.742108 -5.317576,-2.601213 -5.520143,-2.697468 -5.594202,-2.658203 -0.05723,0.03035 -0.07585,0.05681 -0.07289,0.103761 0.0049,0.07766 6.494549,10.415131 6.595158,10.505482 0.09089,0.08164 0.239287,0.103 0.269988,0.03886 0.01255,-0.02629 0.304782,-0.75833 0.649333,-1.626793 z"
   id="path861" /><rect
   style="fill:#c7485e;fill-opacity:1;stroke:#3c4343;stroke-width:0.24692;stroke-opacity:0.9"
   id="rect2803"
   width="2.703722"
   height="0.031860836"
   x="-3.7390919"
   y="19.131491"
   transform="matrix(0.6349327,-0.77256745,0.77802414,0.62823438,0,0)"
   inkscape:transform-center-x="-0.31190713"
   inkscape:transform-center-y="2.1223982" /><path
   style="fill:#cd425b;fill-opacity:1;stroke:#e27364;stroke-width:0.0193495;stroke-opacity:0.9"
   d="m 12.311681,14.527738 c -0.02497,-0.04105 -0.573404,-0.918668 -1.218793,-1.950263 -0.645389,-1.031593 -1.1840406,-1.904616 -1.1970001,-1.940044 -0.020387,-0.05575 3.9819761,1.969308 4.0913631,2.070085 0.02989,0.02751 -0.182019,0.285129 -0.794736,0.966191 -0.781265,0.868411 -0.838431,0.92381 -0.880824,0.854038 z"
   id="path3397"
   inkscape:transform-center-x="1.0624783"
   inkscape:transform-center-y="0.8528532" /><text
   xml:space="preserve"
   style="font-size:5.08646px;line-height:1.25;font-family:'Segoe Script';-inkscape-font-specification:'Segoe Script';fill:#16272a;fill-opacity:0.799714;stroke-width:0.12716"
   x="3.3971186"
   y="19.168352"
   id="text17884"
   transform="scale(1.3246338,0.75492562)"><tspan
     sodipodi:role="line"
     id="tspan17882"
     x="3.3971186"
     y="19.168352"
     style="stroke-width:0.12716">_</tspan></text><text
   xml:space="preserve"
   style="font-size:5.18095px;line-height:1.25;font-family:'Segoe Script';-inkscape-font-specification:'Segoe Script';fill:#16272a;fill-opacity:0.799714;stroke-width:0.129524"
   x="16.621164"
   y="19.460321"
   id="text17884-6"
   transform="scale(1.3492587,0.74114772)"><tspan
     sodipodi:role="line"
     id="tspan17882-2"
     x="16.621164"
     y="19.460321"
     style="stroke-width:0.129524">_</tspan></text><text
   xml:space="preserve"
   style="font-size:4.55134px;line-height:1.25;font-family:'Segoe Script';-inkscape-font-specification:'Segoe Script';fill:#16272a;fill-opacity:0.799714;stroke-width:0.113784"
   x="-19.582726"
   y="18.80975"
   id="text17884-0"
   transform="matrix(-0.0185298,-1.3503046,0.73983647,-0.0537198,0,0)"><tspan
     sodipodi:role="line"
     id="tspan17882-4"
     x="-19.582726"
     y="18.80975"
     style="stroke-width:0.113784">_</tspan></text><text
   xml:space="preserve"
   style="font-size:5.13639px;line-height:1.25;font-family:'Segoe Script';-inkscape-font-specification:'Segoe Script';fill:#16272a;fill-opacity:0.799714;stroke-width:0.128408"
   x="-5.9920735"
   y="19.268122"
   id="text17884-9"
   transform="matrix(5.1796383e-4,-1.3198195,0.75767882,0.00143318,0,0)"><tspan
     sodipodi:role="line"
     id="tspan17882-7"
     x="-5.9920735"
     y="19.268122"
     style="stroke-width:0.128408">_</tspan></text><g
   aria-label="c"
   transform="scale(1.0399405,0.96159351)"
   id="text9344"
   style="font-size:6.04085px;line-height:1.25;font-family:'Segoe Script';-inkscape-font-specification:'Segoe Script';fill:#0e0e0e;stroke-width:0.15102"><path
     d="m 16.241706,3.0309287 q 0,0.1061868 -0.07669,0.1917262 -0.07964,0.088489 -0.138633,0.1504313 -0.05899,0.058993 -0.112086,0.1091365 -0.05309,0.050144 -0.112086,0.097338 -0.05899,0.044244 -0.138633,0.1032372 -0.224172,0.1622298 -0.427697,0.2743159 -0.203525,0.1091365 -0.395251,0.1799277 -0.191726,0.067842 -0.380503,0.097338 -0.185827,0.029496 -0.374603,0.029496 -0.197626,0 -0.353956,-0.073741 -0.156331,-0.07669 -0.265467,-0.2064744 -0.106187,-0.1297839 -0.16223,-0.3008626 -0.05604,-0.1740284 -0.05604,-0.3657546 V 3.302295 q 0,-0.1946758 0.05014,-0.4129487 0.05014,-0.2212226 0.138633,-0.4424451 0.09144,-0.2212226 0.218273,-0.4335962 0.126834,-0.2153233 0.280215,-0.4011502 0.06194,-0.073741 0.147482,-0.1563306 0.08849,-0.085539 0.185827,-0.1563306 0.100288,-0.070791 0.206474,-0.1150357 0.109137,-0.047194 0.212374,-0.047194 0.07079,0 0.135683,0.044244 0.06489,0.041295 0.120935,0.1091365 0.05604,0.067842 0.103237,0.153381 0.04719,0.08259 0.07964,0.1710787 0.03245,0.085539 0.05014,0.1651795 0.0177,0.07964 0.0177,0.1356832 0,0.085539 -0.05309,0.2212225 -0.05309,0.1356832 -0.126835,0.1356832 -0.106186,0 -0.176978,-0.1445321 -0.02655,-0.056043 -0.04719,-0.1297839 -0.0177,-0.073741 -0.04424,-0.144532 -0.0236,-0.070791 -0.06489,-0.1297839 -0.04129,-0.061942 -0.115036,-0.091439 -0.07374,0.017698 -0.150431,0.076691 -0.07374,0.058993 -0.147482,0.1445321 -0.07079,0.085539 -0.141582,0.1946758 -0.06784,0.1061868 -0.129784,0.2212225 -0.05899,0.1061869 -0.115036,0.2448197 -0.05604,0.1356831 -0.100288,0.2831648 -0.04424,0.1445321 -0.07079,0.2890641 -0.02655,0.1445321 -0.02655,0.2654671 0,0.085539 0.04129,0.1740284 0.04129,0.085539 0.106187,0.1563306 0.06784,0.070791 0.150432,0.1150357 0.08554,0.044245 0.174028,0.044245 0.436546,0 0.867192,-0.1799277 0.430647,-0.1799276 0.819998,-0.5220852 0.215324,-0.1887765 0.356906,-0.1887765 0.0413,0 0.0413,0.07964 z"
     id="path5226" /></g><g
   aria-label="в"
   transform="scale(1.4171754,0.70562894)"
   id="text19318"
   style="font-size:5.80565px;line-height:1.25;font-family:'Segoe Script';-inkscape-font-specification:'Segoe Script';fill:#161616;stroke-width:0.145142"><path
     d="m 20.629975,19.981471 q 0,-0.03402 -0.01417,-0.06803 -0.01134,-0.03685 -0.03685,-0.0652 -0.02268,-0.03118 -0.06237,-0.05103 -0.03685,-0.01984 -0.08788,-0.01984 -0.09922,0 -0.20694,0.07087 -0.104887,0.07087 -0.212609,0.1956 -0.104887,0.121896 -0.204105,0.291983 -0.09922,0.167253 -0.184261,0.362854 -0.08504,0.1956 -0.153079,0.411044 -0.0652,0.212609 -0.104887,0.428053 0.02551,-0.01701 0.07654,-0.05386 0.05103,-0.03969 0.113392,-0.08788 0.0652,-0.05103 0.13607,-0.107722 0.0737,-0.05953 0.138904,-0.116226 0.06803,-0.0567 0.124731,-0.107722 0.0567,-0.05103 0.09071,-0.08788 0.314662,-0.340175 0.450732,-0.589636 0.13607,-0.249462 0.13607,-0.405375 z m -0.08788,3.055903 q -0.08788,0.130401 -0.212609,0.255132 -0.121896,0.121896 -0.269305,0.215444 -0.147409,0.09355 -0.314662,0.147409 -0.164418,0.05386 -0.334505,0.03969 -0.119061,-0.0085 -0.226783,-0.07654 -0.107722,-0.07087 -0.189931,-0.198435 -0.08221,-0.1304 -0.1304,-0.317496 -0.04819,-0.187097 -0.04819,-0.430888 0,-0.155914 0.01701,-0.33734 0.01701,-0.184262 0.04536,-0.371358 0.02835,-0.187096 0.06236,-0.365688 0.03685,-0.178592 0.07087,-0.328836 0.04536,-0.204104 0.119061,-0.40254 0.0737,-0.20127 0.164418,-0.385531 0.09071,-0.187096 0.1956,-0.351514 0.104887,-0.164418 0.215444,-0.297653 0.153079,-0.178592 0.348679,-0.286314 0.198436,-0.107722 0.464906,-0.107722 0.110557,0 0.20127,0.04536 0.09071,0.04536 0.155914,0.119061 0.0652,0.07087 0.09922,0.161583 0.03685,0.09071 0.03685,0.178592 0,0.121896 -0.05103,0.272139 -0.04819,0.14741 -0.141739,0.308993 -0.09355,0.161583 -0.226783,0.326 -0.133236,0.164418 -0.303323,0.317497 0.03969,0.0028 0.09071,0.01417 0.05386,0.0085 0.110557,0.03402 0.05953,0.02551 0.119061,0.06803 0.06237,0.04252 0.119062,0.107722 0.02551,0.03118 0.0567,0.08504 0.03118,0.05103 0.0567,0.127566 0.02835,0.0737 0.04536,0.170087 0.01984,0.09638 0.01984,0.212609 0,0.226784 -0.08221,0.490419 -0.07937,0.260801 -0.283479,0.561288 z m -0.07937,-1.043202 q 0,-0.155914 -0.04536,-0.260801 -0.04536,-0.107722 -0.107722,-0.170087 -0.06237,-0.0652 -0.127566,-0.09071 -0.0652,-0.02835 -0.104887,-0.02835 -0.03685,0 -0.116227,0.0567 -0.07937,0.0567 -0.170087,0.124731 -0.06803,0.05953 -0.13607,0.110557 -0.06804,0.05103 -0.127566,0.09922 -0.0567,0.04819 -0.104887,0.09638 -0.04819,0.04819 -0.07937,0.102053 -0.07937,0.144574 -0.09355,0.328835 -0.01417,0.184262 -0.01417,0.377027 0,0.127566 0.02551,0.229618 0.02835,0.09922 0.06804,0.170088 0.04252,0.07087 0.09071,0.110557 0.04819,0.03685 0.08788,0.03685 0.09638,0 0.218279,-0.03969 0.121896,-0.03969 0.249461,-0.155914 0.110557,-0.102052 0.198436,-0.229618 0.09071,-0.127565 0.153078,-0.269305 0.0652,-0.141739 0.09922,-0.294818 0.03685,-0.153078 0.03685,-0.303322 z"
     id="path5247" /></g><g
   aria-label="ю"
   transform="scale(0.90408332,1.1060927)"
   id="text11307"
   style="font-size:4.84065px;line-height:1.25;font-family:'Segoe Script';-inkscape-font-specification:'Segoe Script';fill:#151515;stroke-width:0.121016"><path
     d="m 15.116267,25.736936 q 0,-0.0095 -0.01182,-0.01655 -0.0095,-0.0095 -0.02364,-0.02364 -0.01418,-0.01418 -0.026,-0.03782 -0.0095,-0.02364 -0.0095,-0.06618 0,-0.03782 0.02127,-0.06855 0.02127,-0.03073 0.04491,-0.05673 0.026,-0.026 0.04727,-0.04727 0.02364,-0.02127 0.02836,-0.04018 0.04018,-0.226906 0.06854,-0.427812 0.02836,-0.200906 0.03545,-0.335631 0.0024,-0.04018 0,-0.08273 0,-0.04254 -0.0024,-0.08509 -0.0024,-0.03073 -0.0047,-0.05909 0,-0.02836 0,-0.05436 0,-0.02836 0.02127,-0.06382 0.02127,-0.03545 0.052,-0.06618 0.03309,-0.03073 0.07091,-0.04964 0.04018,-0.02127 0.078,-0.02127 0.03309,0 0.06618,0.01891 0.03309,0.01655 0.05909,0.04964 0.026,0.03073 0.04254,0.078 0.01655,0.04491 0.01655,0.101635 0,0.04255 -0.0071,0.103998 -0.0071,0.06145 -0.01891,0.134726 -0.01182,0.07327 -0.02836,0.153633 -0.01418,0.08036 -0.02836,0.160725 -0.01891,0.111089 -0.03782,0.212724 -0.01655,0.101635 -0.026,0.174906 0.0095,0.02127 0.01654,0.03782 0.0095,0.01418 0.02364,0.02364 0.01418,0.0095 0.03545,0.01418 0.02364,0.0047 0.06145,0.0047 0.101635,0 0.215087,-0.02127 0.113453,-0.02127 0.215088,-0.05436 0.101635,-0.03309 0.181997,-0.06855 0.08273,-0.03782 0.122907,-0.07091 0.026,-0.02127 0.05673,-0.05673 0.03309,-0.03545 0.06618,-0.07564 0.03309,-0.04255 0.06382,-0.08273 0.03309,-0.04255 0.05673,-0.07327 0.08036,-0.101635 0.181997,-0.198542 0.101635,-0.09691 0.224542,-0.170179 0.122907,-0.07327 0.264723,-0.11818 0.144179,-0.04491 0.311995,-0.04491 0.127634,0 0.250541,0.06382 0.122907,0.06145 0.217451,0.167815 0.09691,0.106362 0.153634,0.245814 0.05909,0.137089 0.05909,0.288359 0,0.151271 -0.03073,0.276541 -0.02836,0.122908 -0.09218,0.26236 -0.03545,0.07327 -0.122907,0.174906 -0.08745,0.101635 -0.21036,0.210361 -0.120544,0.108725 -0.264723,0.215087 -0.14418,0.106362 -0.293087,0.191451 -0.148906,0.08509 -0.293086,0.137089 -0.141816,0.052 -0.257632,0.052 -0.155998,0 -0.267087,-0.052 -0.111089,-0.05436 -0.181997,-0.139452 -0.07091,-0.08745 -0.103998,-0.198542 -0.03309,-0.11109 -0.03309,-0.224542 0,-0.09218 0.026,-0.222179 0.02836,-0.132361 0.09454,-0.267086 -0.08982,0.05673 -0.200906,0.08982 -0.108725,0.03309 -0.200906,0.05909 -0.04018,0.01182 -0.08982,0.02127 -0.04964,0.0071 -0.09927,0.01418 -0.04727,0.0071 -0.09218,0.01418 -0.04254,0.0071 -0.07327,0.01182 -0.04727,0.0095 -0.06618,0.03782 -0.01655,0.026 -0.026,0.06854 -0.0095,0.04018 -0.02836,0.106362 -0.01891,0.06618 -0.03782,0.137089 -0.02127,0.07563 -0.04491,0.155997 -0.02364,0.08036 -0.04254,0.153634 -0.01655,0.07091 -0.03073,0.132362 -0.01182,0.05909 -0.01182,0.09218 0,0.03073 -0.026,0.06618 -0.02364,0.03545 -0.05673,0.06618 -0.03073,0.03309 -0.06382,0.05436 -0.03073,0.02127 -0.04727,0.02127 -0.03545,0 -0.06854,-0.02364 -0.03073,-0.02364 -0.05436,-0.05436 -0.02364,-0.03073 -0.03782,-0.06145 -0.01418,-0.03309 -0.01418,-0.04963 0,-0.02127 0.01655,-0.07564 0.01891,-0.05436 0.03782,-0.11109 0.01182,-0.03545 0.03073,-0.09691 0.01891,-0.06145 0.03782,-0.134725 0.02127,-0.07564 0.04018,-0.155998 0.02127,-0.08036 0.03782,-0.15127 0.01655,-0.07091 0.026,-0.122907 0.0095,-0.05436 0.0095,-0.078 z m 2.848136,-0.534173 q 0,-0.23636 -0.137088,-0.368722 -0.134726,-0.134725 -0.387631,-0.134725 -0.03545,0 -0.08745,0.02836 -0.052,0.02836 -0.113453,0.07327 -0.05909,0.04254 -0.120543,0.09454 -0.05909,0.052 -0.113453,0.101635 -0.052,0.04964 -0.08982,0.08982 -0.03782,0.04018 -0.052,0.05673 -0.04963,0.05909 -0.103998,0.163088 -0.052,0.101635 -0.09691,0.219815 -0.04491,0.11818 -0.07564,0.238723 -0.02836,0.11818 -0.02836,0.207997 0,0.05436 0.01418,0.111089 0.01654,0.05673 0.04727,0.103998 0.03309,0.04491 0.08273,0.07564 0.04964,0.02836 0.115816,0.02836 0.07327,0 0.186724,-0.04255 0.113453,-0.04255 0.238724,-0.11818 0.127634,-0.07564 0.255268,-0.179633 0.129998,-0.103999 0.231633,-0.224542 0.103998,-0.120544 0.167816,-0.252905 0.06618,-0.134725 0.06618,-0.271814 z"
     id="path5268" /></g><g
   aria-label="з"
   transform="scale(1.4016216,0.71345932)"
   id="text16794"
   style="font-size:5.5751px;line-height:1.25;font-family:'Segoe Script';-inkscape-font-specification:'Segoe Script';fill:#131313;stroke-width:0.139378"><path
     d="m 0.64743511,22.006216 q 0.0272222,0 0.0435555,0.01906 0.0190555,0.01905 0.0299444,0.04628 0.0108889,0.02994 0.0136111,0.06533 0.005444,0.03539 0.005444,0.06805 0,0.06261 0.0217777,0.136111 0.0245,0.0735 0.0762221,0.136111 0.0544443,0.06261 0.13883306,0.103444 0.0843888,0.04355 0.20688846,0.04355 0.1660552,0 0.3429993,-0.08711 0.1769441,-0.08711 0.3239438,-0.242277 0.1469997,-0.155166 0.2395551,-0.370221 0.095278,-0.212333 0.095278,-0.465499 0,-0.234111 -0.049,-0.397444 -0.049,-0.163333 -0.1279442,-0.264055 -0.076222,-0.103444 -0.1769441,-0.149722 -0.100722,-0.04628 -0.201444,-0.04628 -0.038111,0 -0.084389,0.01906 -0.046278,0.01633 -0.095278,0.04355 -0.046278,0.0245 -0.095278,0.05445 -0.046278,0.02994 -0.084389,0.05444 -0.065333,0.04356 -0.1252219,0.0735 -0.057167,0.02994 -0.15244416,0.02994 -0.0734999,0 -0.12794419,-0.05444 -0.0517221,-0.05717 -0.0517221,-0.149722 0,-0.07078 0.0489999,-0.119778 0.0517221,-0.049 0.15788857,-0.09255 0.225944,-0.09256 0.4028881,-0.187833 0.1796663,-0.098 0.302166,-0.209611 0.1224998,-0.114333 0.187833,-0.250444 0.065333,-0.13611 0.065333,-0.310332 0,-0.06806 -0.021778,-0.133389 -0.019055,-0.06806 -0.059889,-0.119777 -0.040833,-0.05445 -0.100722,-0.08711 -0.057167,-0.03539 -0.1333886,-0.03539 -0.163333,0 -0.3103327,0.100722 -0.1469998,0.100722 -0.288555,0.247722 -0.062611,0.06533 -0.10344426,0.09528 -0.0408333,0.02722 -0.0871109,0.02722 -0.038111,0 -0.0680554,-0.01906 -0.0272222,-0.02178 -0.0462777,-0.049 -0.0163333,-0.02994 -0.0272222,-0.06261 -0.008167,-0.03539 -0.008167,-0.05989 0,-0.06533 0.0353888,-0.1225 0.038111,-0.05989 0.10072202,-0.111611 0.13611083,-0.114333 0.26677728,-0.187832 0.1306664,-0.0735 0.2150551,-0.108889 0.095278,-0.03811 0.1959996,-0.0735 0.1034442,-0.03539 0.1932774,-0.03539 0.1279442,0 0.2449995,0.04628 0.1170553,0.04356 0.2041662,0.130666 0.089833,0.08439 0.1415553,0.209611 0.054444,0.125222 0.054444,0.283111 0,0.228666 -0.1116109,0.45461 -0.1088887,0.225944 -0.3729437,0.438277 0.1823885,0.0082 0.3184993,0.09256 0.1361109,0.08439 0.225944,0.223222 0.092555,0.138833 0.1361109,0.321221 0.046278,0.179667 0.046278,0.381111 0,0.201444 -0.054444,0.400166 -0.054444,0.198721 -0.1551663,0.38111 -0.098,0.182388 -0.2368329,0.337555 -0.1361108,0.155166 -0.3021661,0.269499 -0.163333,0.114333 -0.3511659,0.179667 -0.1851108,0.06533 -0.3811104,0.06533 -0.18783293,0 -0.32666599,-0.06261 -0.13883305,-0.05989 -0.23138842,-0.152444 -0.0898332,-0.09256 -0.13611084,-0.198722 -0.0462777,-0.106167 -0.0462777,-0.196 0,-0.06805 0.0244999,-0.147 0.0272222,-0.07894 0.0598888,-0.125221 0.0217777,-0.02995 0.062611,-0.06261 0.0408332,-0.02995 0.10344424,-0.02995 z"
     id="path5289" /></g></svg>
