<?xml version="1.0" encoding="UTF-8" standalone="no"?>
<!-- Generator: Adobe Illustrator 22.0.1, SVG Export Plug-In . SVG Version: 6.00 Build 0)  -->

<svg
   version="1.1"
   id="Layer_1"
   x="0px"
   y="0px"
   viewBox="0 0 30 30"
   xml:space="preserve"
   sodipodi:docname="northEastWind.svg"
   width="30"
   height="30"
   inkscape:version="1.1.1 (3bf5ae0d25, 2021-09-20)"
   xmlns:inkscape="http://www.inkscape.org/namespaces/inkscape"
   xmlns:sodipodi="http://sodipodi.sourceforge.net/DTD/sodipodi-0.dtd"
   xmlns="http://www.w3.org/2000/svg"
   xmlns:svg="http://www.w3.org/2000/svg"><defs
   id="defs7" /><sodipodi:namedview
   id="namedview5"
   pagecolor="#ffffff"
   bordercolor="#666666"
   borderopacity="1.0"
   inkscape:pageshadow="2"
   inkscape:pageopacity="0.0"
   inkscape:pagecheckerboard="0"
   showgrid="false"
   inkscape:zoom="7.1833332"
   inkscape:cx="68.631092"
   inkscape:cy="41.972159"
   inkscape:window-width="2400"
   inkscape:window-height="1321"
   inkscape:window-x="2391"
   inkscape:window-y="-9"
   inkscape:window-maximized="1"
   inkscape:current-layer="Layer_1"
   width="140px" />
<path
   d="m 7.4288234,8.0277329 c 1.280218,-1.410983 2.8084276,-2.3954598 4.5716466,-2.9528417 1.763223,-0.557381 3.542024,-0.6379335 5.336411,-0.2416585 1.794386,0.3962731 3.369342,1.2402249 4.73115,2.5249308 1.019676,0.9619475 1.810837,2.0934246 2.37305,3.3811795 0.562206,1.287755 0.852189,2.601105 0.902181,3.931954 0.04999,1.330849 -0.166401,2.66713 -0.649184,4.008837 -0.482784,1.341712 -1.191484,2.534475 -2.157922,3.599633 -0.953884,1.051323 -2.07137,1.871283 -3.339468,2.459303 -1.268097,0.588017 -2.564545,0.905393 -3.862943,0.964191 -1.298393,0.0588 -2.605447,-0.147312 -3.908176,-0.618907 C 10.122842,24.612754 8.9618584,23.902602 7.9354733,22.934325 6.9090818,21.966051 6.1112162,20.828245 5.5490061,19.540486 4.9867991,18.252731 4.6901088,16.933056 4.6401118,15.602208 4.5901194,14.271358 4.813222,12.941407 5.276749,11.607202 5.7402695,10.272992 6.4686624,9.08597 7.4288234,8.0277329 Z M 9.09251,9.5972289 C 7.6052026,11.236462 6.889361,13.205539 6.9516924,15.510793 c 0.074883,2.291417 0.9171175,4.189939 2.5338438,5.715133 1.0599268,0.999922 2.2908098,1.66048 3.6855048,1.962105 1.394697,0.301623 2.78441,0.251954 4.161578,-0.181826 1.377164,-0.433777 2.561731,-1.190454 3.553274,-2.283276 0.991534,-1.092822 1.645703,-2.362706 1.962942,-3.796406 0.317238,-1.4337 0.270923,-2.850937 -0.138945,-4.251711 C 22.300024,11.274037 21.565345,10.080316 20.505415,9.0803949 19.445488,8.0804733 18.214605,7.4199155 16.819908,7.1182901 15.425215,6.8166689 14.02922,6.8732545 12.645349,7.3007067 11.261475,7.7281593 10.08405,8.5044073 9.09251,9.5972289 Z M 8.7017172,16.738123 19.444629,10.043702 c 0.06946,-0.062835 0.134384,-0.065775 0.19476,-0.0088 0.06036,0.05697 0.06254,0.123183 0.0065,0.198674 L 13.927568,21.66811 c -0.04219,0.101403 -0.09911,0.150406 -0.170303,0.160262 -0.0712,0.0098 -0.124862,-0.04077 -0.161002,-0.151888 l -1.511991,-3.095187 c -0.04198,-0.09095 -0.109064,-0.154241 -0.194546,-0.183529 L 8.7259592,17.081914 c -0.1047324,-0.02179 -0.1516896,-0.06609 -0.1408727,-0.132903 0.010823,-0.06681 0.040463,-0.154378 0.1166365,-0.210889 z"
   id="path2"
   style="fill:#2c4f54;fill-opacity:0.5;stroke:#2e3332;stroke-width:0.0572113;stroke-miterlimit:4;stroke-dasharray:none;stroke-opacity:0.9" />
<path
   style="fill:#1f4347;fill-opacity:0.81;stroke:#e4e7e7;stroke-width:0.0572113;stroke-miterlimit:4;stroke-dasharray:none;stroke-opacity:0.9"
   d="M 9.11395,20.307903 C 8.8583022,20.007636 8.5975362,19.655688 8.39142,19.332734 7.232445,17.516751 6.9152566,14.991773 7.5721746,12.811131 7.9257842,11.637331 8.4235989,10.778196 9.2978421,9.8329551 10.195146,8.862712 11.042986,8.2827187 12.206185,7.8432051 12.990192,7.5469765 13.704753,7.3990302 14.57523,7.3527115 c 1.727513,-0.091919 3.275857,0.3177363 4.715118,1.2475009 0.29973,0.1936252 0.412066,0.2872044 0.972926,0.8104711 0.680762,0.6351665 0.854572,0.8341595 1.237192,1.4165295 0.577855,0.879571 1.023434,2.064713 1.190673,3.166949 0.06822,0.449597 0.09119,1.394776 0.04519,1.859287 -0.111327,1.124199 -0.435162,2.194946 -0.934812,3.090905 -0.368448,0.660705 -0.524546,0.871891 -1.124274,1.521091 -0.423083,0.457951 -0.611385,0.643257 -0.826298,0.812963 -1.305153,1.030697 -2.89929,1.619673 -4.555346,1.683024 -1.696062,0.06488 -3.35102,-0.408265 -4.722148,-1.350038 -0.316074,-0.217099 -1.2278427,-1.031405 -1.4595044,-1.303488 z m 1.321318,-2.711845 c 0.858192,0.356068 1.58923,0.663485 1.624527,0.683149 0.04357,0.02426 0.317196,0.545626 0.852064,1.623472 0.453548,0.913962 0.809992,1.598197 0.839975,1.612417 0.06215,0.02946 0.167293,-0.0332 0.22824,-0.136026 0.02419,-0.04082 1.28701,-2.527868 2.806262,-5.526767 2.662252,-5.255107 2.760849,-5.455338 2.722894,-5.529661 -0.02935,-0.05744 -0.05536,-0.07637 -0.102078,-0.07412 -0.07727,0.0036 -10.4455929,6.30963 -10.536851,6.408439 -0.082454,0.08927 -0.105831,0.236688 -0.042528,0.268217 0.02595,0.0129 0.7493062,0.314817 1.607497,0.670884 z"
   id="path861" /><rect
   style="fill:#c7485e;fill-opacity:1;stroke:#3c4343;stroke-width:0.245654;stroke-opacity:0.9"
   id="rect2803"
   width="2.6921721"
   height="0.031669963"
   x="19.93449"
   y="-1.009115"
   transform="matrix(0.73663181,0.676294,-0.66843944,0.74376657,0,0)"
   inkscape:transform-center-x="2.1230282"
   inkscape:transform-center-y="0.19441454" /><path
   style="fill:#cd425c;fill-opacity:1;stroke:#e27364;stroke-width:0.01925;stroke-opacity:0.9"
   d="m 15.665043,12.506845 c 0.0409,-0.02469 0.915335,-0.567329 1.943194,-1.205887 1.027858,-0.638558 1.897688,-1.171459 1.932952,-1.184222 0.05549,-0.02009 -1.972582,3.957096 -2.073169,4.065616 -0.02746,0.02966 -0.282732,-0.182356 -0.957397,-0.79511 C 15.65037,12.605927 15.59552,12.54879 15.665034,12.506853 Z"
   id="path3397"
   inkscape:transform-center-x="0.84060765"
   inkscape:transform-center-y="-1.0576519" /><text
   xml:space="preserve"
   style="font-size:6.18423px;line-height:1.25;font-family:'Segoe Script';-inkscape-font-specification:'Segoe Script';fill:#000000;fill-opacity:1;stroke-width:0.154604"
   x="13.768867"
   y="3.8745301"
   id="text9344"
   transform="scale(1.0016619,0.99834084)"><tspan
     sodipodi:role="line"
     id="tspan9342"
     x="13.768867"
     y="3.8745301"
     style="fill:#000000;fill-opacity:1;stroke-width:0.154604">c</tspan></text><text
   xml:space="preserve"
   style="font-size:5.06021px;line-height:1.25;font-family:'Segoe Script';-inkscape-font-specification:'Segoe Script';fill:#16272a;fill-opacity:0.799714;stroke-width:0.126506"
   x="3.7750046"
   y="18.062948"
   id="text17884"
   transform="scale(1.3001675,0.76913167)"><tspan
     sodipodi:role="line"
     id="tspan17882"
     x="3.7750046"
     y="18.062948"
     style="stroke-width:0.126506">_</tspan></text><text
   xml:space="preserve"
   style="font-size:5.15431px;line-height:1.25;font-family:'Segoe Script';-inkscape-font-specification:'Segoe Script';fill:#16272a;fill-opacity:0.799714;stroke-width:0.128858"
   x="16.742411"
   y="18.268631"
   id="text17884-6"
   transform="scale(1.3243375,0.75509454)"><tspan
     sodipodi:role="line"
     id="tspan17882-2"
     x="16.742411"
     y="18.268631"
     style="stroke-width:0.128858">_</tspan></text><text
   xml:space="preserve"
   style="font-size:4.52805px;line-height:1.25;font-family:'Segoe Script';-inkscape-font-specification:'Segoe Script';fill:#16272a;fill-opacity:0.799714;stroke-width:0.113199"
   x="-19.165203"
   y="19.428848"
   id="text17884-0"
   transform="matrix(-0.01818756,-1.3757143,0.72617157,-0.0547307,0,0)"><tspan
     sodipodi:role="line"
     id="tspan17882-4"
     x="-19.165203"
     y="19.428848"
     style="stroke-width:0.113199">_</tspan></text><text
   xml:space="preserve"
   style="font-size:5.11005px;line-height:1.25;font-family:'Segoe Script';-inkscape-font-specification:'Segoe Script';fill:#16272a;fill-opacity:0.799714;stroke-width:0.127748"
   x="-5.3844581"
   y="19.98912"
   id="text17884-9"
   transform="matrix(5.0839688e-4,-1.3446557,0.74368426,0.00146015,0,0)"><tspan
     sodipodi:role="line"
     id="tspan17882-7"
     x="-5.3844581"
     y="19.98912"
     style="stroke-width:0.127748">_</tspan></text><text
   xml:space="preserve"
   style="font-size:6.00963px;line-height:1.25;font-family:'Segoe Script';-inkscape-font-specification:'Segoe Script';fill:#161616;fill-opacity:1;stroke-width:0.15024"
   x="18.657368"
   y="20.681807"
   id="text19318"
   transform="scale(1.3775596,0.7259214)"><tspan
     sodipodi:role="line"
     id="tspan19316"
     x="18.657368"
     y="20.681807"
     style="fill:#161616;fill-opacity:1;stroke-width:0.15024">в</tspan></text><text
   xml:space="preserve"
   style="font-size:5.01076px;line-height:1.25;font-family:'Segoe Script';-inkscape-font-specification:'Segoe Script';fill:#151515;fill-opacity:1;stroke-width:0.125266"
   x="14.448859"
   y="25.855297"
   id="text11307"
   transform="scale(0.87880993,1.1379025)"><tspan
     sodipodi:role="line"
     id="tspan11305"
     x="14.448859"
     y="25.855297"
     style="fill:#151515;fill-opacity:1;stroke-width:0.125266">ю</tspan></text><text
   xml:space="preserve"
   style="font-size:5.77096px;line-height:1.25;font-family:'Segoe Script';-inkscape-font-specification:'Segoe Script';fill:#131313;fill-opacity:1;stroke-width:0.144275"
   x="0.1423787"
   y="20.059706"
   id="text16794"
   transform="scale(1.3624358,0.73397955)"><tspan
     sodipodi:role="line"
     id="tspan16792"
     x="0.1423787"
     y="20.059706"
     style="fill:#131313;fill-opacity:1;stroke-width:0.144275">з</tspan></text></svg>
