<?xml version="1.0" encoding="UTF-8" standalone="no"?>
<!-- Generator: Adobe Illustrator 22.0.1, SVG Export Plug-In . SVG Version: 6.00 Build 0)  -->

<svg
   version="1.1"
   id="Layer_1"
   x="0px"
   y="0px"
   viewBox="0 0 30 30"
   xml:space="preserve"
   sodipodi:docname="northwestWind.svg"
   width="30"
   height="30"
   inkscape:version="1.1.1 (3bf5ae0d25, 2021-09-20)"
   xmlns:inkscape="http://www.inkscape.org/namespaces/inkscape"
   xmlns:sodipodi="http://sodipodi.sourceforge.net/DTD/sodipodi-0.dtd"
   xmlns="http://www.w3.org/2000/svg"
   xmlns:svg="http://www.w3.org/2000/svg"><defs
   id="defs7" /><sodipodi:namedview
   id="namedview5"
   pagecolor="#ffffff"
   bordercolor="#666666"
   borderopacity="1.0"
   inkscape:pageshadow="2"
   inkscape:pageopacity="0.0"
   inkscape:pagecheckerboard="0"
   showgrid="false"
   inkscape:zoom="5.0793835"
   inkscape:cx="18.899931"
   inkscape:cy="43.607654"
   inkscape:window-width="2400"
   inkscape:window-height="1321"
   inkscape:window-x="2391"
   inkscape:window-y="-9"
   inkscape:window-maximized="1"
   inkscape:current-layer="Layer_1"
   width="140px" />
<path
   d="M 7.9354357,22.881154 C 6.5024661,21.610317 5.4947047,20.084889 4.9129137,18.317903 4.331126,16.550914 4.2279922,14.76251 4.6035142,12.952686 4.9790347,11.142863 5.8068741,9.5483835 7.0800039,8.1630061 8.0332803,7.125684 9.1596647,6.3161928 10.445851,5.7351275 c 1.286186,-0.5810581 2.601482,-0.888583 3.937346,-0.954903 1.335871,-0.066311 2.680523,0.1352753 4.033956,0.6047588 1.353439,0.4694934 2.560119,1.1680389 3.641877,2.1273909 1.067708,0.94689 1.905116,2.0611397 2.511482,3.3296948 0.606365,1.268549 0.941296,2.568879 1.01658,3.874286 0.07528,1.305402 -0.115366,2.622707 -0.572673,3.938857 -0.457314,1.316151 -1.155963,2.492586 -2.115512,3.536734 -0.959549,1.044155 -2.092204,1.860466 -3.378394,2.441529 -1.286188,0.581058 -2.60775,0.895407 -3.943619,0.961732 -1.335868,0.06632 -2.674249,-0.142088 -4.019906,-0.592301 -1.345661,-0.450209 -2.5468225,-1.168634 -3.6215523,-2.121752 z m 1.555352,-1.69248 c 1.6647783,1.476403 3.6511563,2.172782 5.9654063,2.082315 2.300196,-0.102929 4.19624,-0.973037 5.707689,-2.61774 0.990909,-1.078272 1.63888,-2.324426 1.924349,-3.731042 0.285464,-1.406619 0.21821,-2.803992 -0.234626,-4.184118 C 22.400771,11.357964 21.626075,10.175469 20.516223,9.1911961 19.40637,8.2069327 18.122921,7.5641715 16.679176,7.2623128 15.235431,6.9604588 13.812762,7.0241195 12.411172,7.4532928 11.009582,7.8824686 9.8199809,8.6358906 8.8290733,9.714165 7.8381631,10.792437 7.190196,12.038591 6.9047261,13.44521 c -0.2854662,1.406614 -0.2111883,2.810226 0.2353814,4.197171 0.4465659,1.38695 1.2408281,2.562025 2.3506802,3.546293 z M 16.666848,21.49578 9.8097273,10.769654 c -0.063971,-0.06912 -0.067732,-0.13439 -0.011277,-0.195811 0.056459,-0.06141 0.1229258,-0.06439 0.1994357,-0.0089 l 11.554522,5.614582 c 0.102362,0.04122 0.152282,0.09789 0.163068,0.169384 0.01077,0.0715 -0.03939,0.126096 -0.150593,0.163722 l -3.089409,1.558259 c -0.09082,0.04333 -0.153532,0.111571 -0.181875,0.197912 l -1.28188,3.198419 c -0.02057,0.105619 -0.06447,0.153389 -0.131635,0.143374 -0.06723,-0.01009 -0.155537,-0.03885 -0.213239,-0.114789 z"
   id="path2"
   style="fill:#2c4f54;fill-opacity:0.5;stroke:#2e3332;stroke-width:0.0575068;stroke-miterlimit:4;stroke-dasharray:none;stroke-opacity:0.9" />
<path
   style="fill:#1f4347;fill-opacity:0.81;stroke:#e4e7e7;stroke-width:0.0575068;stroke-miterlimit:4;stroke-dasharray:none;stroke-opacity:0.9"
   d="m 20.27975,21.046189 c -0.297655,0.261543 -0.647131,0.52899 -0.968315,0.741039 -1.806048,1.192354 -4.336836,1.548302 -6.536609,0.919356 C 11.59073,22.368031 10.720432,21.879825 9.7579586,21.014227 8.7700337,20.125795 8.1747452,19.28142 7.7157467,18.117767 7.4063828,17.333457 7.2469765,16.616836 7.1872665,15.741893 7.0687612,14.005515 7.4566685,12.442039 8.368519,10.980695 8.5584151,10.676365 8.6506855,10.561998 9.167649,9.9901824 9.7951589,9.2961148 9.9923546,9.1183737 10.571374,8.7249857 11.445882,8.130868 12.62925,7.6653443 13.733586,7.4810168 c 0.450455,-0.075189 1.399258,-0.1121043 1.86642,-0.072611 1.130616,0.095563 2.210778,0.4056674 3.11808,0.895183 0.669068,0.3609718 0.883511,0.5149062 1.544533,1.1086966 0.466295,0.4188922 0.655233,0.6056006 0.828914,0.8193036 1.054821,1.297807 1.670444,2.892758 1.759173,4.557672 0.09087,1.705134 -0.359173,3.376782 -1.284117,4.769768 -0.213217,0.321112 -1.017125,1.250157 -1.286835,1.487168 z m -2.743286,-1.28951 c 0.344551,-0.868463 0.642176,-1.608311 0.661389,-1.644105 0.0237,-0.04418 0.543113,-0.327041 1.61738,-0.880812 0.91093,-0.46958 1.592638,-0.838125 1.606464,-0.868492 0.02864,-0.06294 -0.03587,-0.167797 -0.140062,-0.2276 -0.04136,-0.02374 -2.558011,-1.257689 -5.592559,-2.742108 -5.317576,-2.601213 -5.520143,-2.697468 -5.594202,-2.658203 -0.05723,0.03035 -0.07585,0.05681 -0.07289,0.103761 0.0049,0.07766 6.494549,10.415131 6.595158,10.505482 0.09089,0.08164 0.239287,0.103 0.269988,0.03886 0.01255,-0.02629 0.304782,-0.75833 0.649333,-1.626793 z"
   id="path861" /><rect
   style="fill:#c7485e;fill-opacity:1;stroke:#3c4343;stroke-width:0.24692;stroke-opacity:0.9"
   id="rect2803"
   width="2.703722"
   height="0.031860836"
   x="-3.7390919"
   y="19.131491"
   transform="matrix(0.6349327,-0.77256745,0.77802414,0.62823438,0,0)"
   inkscape:transform-center-x="-0.31190713"
   inkscape:transform-center-y="2.1223982" /><path
   style="fill:#cd425b;fill-opacity:1;stroke:#e27364;stroke-width:0.0193495;stroke-opacity:0.9"
   d="m 12.311681,14.527738 c -0.02497,-0.04105 -0.573404,-0.918668 -1.218793,-1.950263 -0.645389,-1.031593 -1.1840406,-1.904616 -1.1970001,-1.940044 -0.020387,-0.05575 3.9819761,1.969308 4.0913631,2.070085 0.02989,0.02751 -0.182019,0.285129 -0.794736,0.966191 -0.781265,0.868411 -0.838431,0.92381 -0.880824,0.854038 z"
   id="path3397"
   inkscape:transform-center-x="1.0624783"
   inkscape:transform-center-y="0.8528532" /><text
   xml:space="preserve"
   style="font-size:5.08646px;line-height:1.25;font-family:'Segoe Script';-inkscape-font-specification:'Segoe Script';fill:#16272a;fill-opacity:0.799714;stroke-width:0.12716"
   x="3.3228059"
   y="19.168352"
   id="text17884"
   transform="scale(1.3246338,0.75492562)"><tspan
     sodipodi:role="line"
     id="tspan17882"
     x="3.3228059"
     y="19.168352"
     style="stroke-width:0.12716">_</tspan></text><text
   xml:space="preserve"
   style="font-size:5.18095px;line-height:1.25;font-family:'Segoe Script';-inkscape-font-specification:'Segoe Script';fill:#16272a;fill-opacity:0.799714;stroke-width:0.129524"
   x="16.365816"
   y="19.393913"
   id="text17884-6"
   transform="scale(1.3492587,0.74114772)"><tspan
     sodipodi:role="line"
     id="tspan17882-2"
     x="16.365816"
     y="19.393913"
     style="stroke-width:0.129524">_</tspan></text><text
   xml:space="preserve"
   style="font-size:4.55134px;line-height:1.25;font-family:'Segoe Script';-inkscape-font-specification:'Segoe Script';fill:#16272a;fill-opacity:0.799714;stroke-width:0.113784"
   x="-19.795919"
   y="18.671358"
   id="text17884-0"
   transform="matrix(-0.0185298,-1.3503046,0.73983648,-0.0537198,0,0)"><tspan
     sodipodi:role="line"
     id="tspan17882-4"
     x="-19.795919"
     y="18.671358"
     style="stroke-width:0.113784">_</tspan></text><text
   xml:space="preserve"
   style="font-size:5.13639px;line-height:1.25;font-family:'Segoe Script';-inkscape-font-specification:'Segoe Script';fill:#16272a;fill-opacity:0.799714;stroke-width:0.128408"
   x="-5.9920735"
   y="19.268122"
   id="text17884-9"
   transform="matrix(5.1796383e-4,-1.3198195,0.75767882,0.00143318,0,0)"><tspan
     sodipodi:role="line"
     id="tspan17882-7"
     x="-5.9920735"
     y="19.268122"
     style="stroke-width:0.128408">_</tspan></text><text
   xml:space="preserve"
   style="font-size:6.04085px;line-height:1.25;font-family:'Segoe Script';-inkscape-font-specification:'Segoe Script';fill:#0e0e0e;fill-opacity:1;stroke-width:0.15102"
   x="12.870275"
   y="4.2520771"
   id="text9344"
   transform="scale(1.0399405,0.96159351)"><tspan
     sodipodi:role="line"
     id="tspan9342"
     x="12.870275"
     y="4.2520771"
     style="fill:#0e0e0e;fill-opacity:1;stroke-width:0.15102">c</tspan></text><text
   xml:space="preserve"
   style="font-size:5.80565px;line-height:1.25;font-family:'Segoe Script';-inkscape-font-specification:'Segoe Script';fill:#161616;fill-opacity:1;stroke-width:0.145142"
   x="18.430178"
   y="23.624176"
   id="text19318"
   transform="scale(1.4171754,0.70562894)"><tspan
     sodipodi:role="line"
     id="tspan19316"
     x="18.430178"
     y="23.624176"
     style="fill:#161616;fill-opacity:1;stroke-width:0.145142">в</tspan></text><text
   xml:space="preserve"
   style="font-size:4.84065px;line-height:1.25;font-family:'Segoe Script';-inkscape-font-specification:'Segoe Script';fill:#151515;fill-opacity:1;stroke-width:0.121016"
   x="14.482822"
   y="26.713102"
   id="text11307"
   transform="scale(0.90408332,1.1060927)"><tspan
     sodipodi:role="line"
     id="tspan11305"
     x="14.482822"
     y="26.713102"
     style="fill:#151515;fill-opacity:1;stroke-width:0.121016">ю</tspan></text><text
   xml:space="preserve"
   style="font-size:5.5751px;line-height:1.25;font-family:'Segoe Script';-inkscape-font-specification:'Segoe Script';fill:#131313;fill-opacity:1;stroke-width:0.139378"
   x="0.24726924"
   y="21.788439"
   id="text16794"
   transform="scale(1.4016216,0.71345932)"><tspan
     sodipodi:role="line"
     id="tspan16792"
     x="0.24726924"
     y="21.788439"
     style="fill:#131313;fill-opacity:1;stroke-width:0.139378">з</tspan></text></svg>
