<?xml version="1.0" encoding="UTF-8" standalone="no"?>
<!-- Generator: Adobe Illustrator 22.0.1, SVG Export Plug-In . SVG Version: 6.00 Build 0)  -->

<svg
   version="1.1"
   id="Layer_1"
   x="0px"
   y="0px"
   viewBox="0 0 30 30"
   xml:space="preserve"
   sodipodi:docname="northWind.svg"
   width="30"
   height="30"
   inkscape:version="1.1.1 (3bf5ae0d25, 2021-09-20)"
   xmlns:inkscape="http://www.inkscape.org/namespaces/inkscape"
   xmlns:sodipodi="http://sodipodi.sourceforge.net/DTD/sodipodi-0.dtd"
   xmlns="http://www.w3.org/2000/svg"
   xmlns:svg="http://www.w3.org/2000/svg"><defs
   id="defs7" /><sodipodi:namedview
   id="namedview5"
   pagecolor="#ffffff"
   bordercolor="#666666"
   borderopacity="1.0"
   inkscape:pageshadow="2"
   inkscape:pageopacity="0.0"
   inkscape:pagecheckerboard="0"
   showgrid="false"
   inkscape:zoom="20.317534"
   inkscape:cx="1.2796828"
   inkscape:cy="10.163635"
   inkscape:window-width="2400"
   inkscape:window-height="1321"
   inkscape:window-x="2391"
   inkscape:window-y="-9"
   inkscape:window-maximized="1"
   inkscape:current-layer="Layer_1"
   width="140px" />
<path
   d="M 5.6603903,14.865507 C 5.696397,13.062202 6.1869705,11.400172 7.123002,9.8880838 8.0590365,8.3759954 9.3114726,7.1882657 10.880319,6.3248894 c 1.568844,-0.8633772 3.263168,-1.2733713 5.083154,-1.238833 1.362747,0.025863 2.666413,0.3158985 3.902203,0.8610904 1.235782,0.5451969 2.288385,1.281462 3.176252,2.1826193 0.887859,0.901164 1.583929,1.9755379 2.088188,3.2231369 0.504262,1.247604 0.747642,2.534465 0.720471,3.895785 -0.02683,1.343638 -0.321542,2.629133 -0.875027,3.847818 -0.553486,1.21868 -1.300858,2.265668 -2.215046,3.132625 -0.914184,0.86696 -2.00416,1.553714 -3.260766,2.051609 -1.256609,0.497893 -2.561895,0.73841 -3.933607,0.712377 -1.371716,-0.02603 -2.684344,-0.316236 -3.92013,-0.861432 C 10.410225,23.586487 9.3486601,22.850055 8.460793,21.9489 7.5729265,21.047741 6.8858255,19.973531 6.3722523,18.743439 5.8586677,17.513347 5.6333942,16.217984 5.6603903,14.865507 Z m 2.2234309,0.0422 c -0.041814,2.095016 0.6928718,3.930631 2.2130158,5.507019 1.520501,1.558708 3.352211,2.353975 5.512885,2.394982 1.416541,0.02689 2.741341,-0.292853 3.95665,-0.96839 1.215312,-0.675538 2.202282,-1.594171 2.934371,-2.774094 0.732089,-1.179919 1.116468,-2.463713 1.144348,-3.860392 C 23.672979,13.810152 23.340278,12.503908 22.65583,11.2971 21.971382,10.090296 21.030957,9.1262376 19.834555,8.4049298 18.638157,7.6836204 17.336085,7.3140302 15.919539,7.2871465 14.502998,7.2602607 13.178198,7.5799998 11.962886,8.2555368 10.747581,8.9310743 9.7604334,9.8585502 9.0193781,11.038302 c -0.7410512,1.179752 -1.1076763,2.472723 -1.1355569,3.8694 z m 4.2808898,5.254444 3.593352,-11.525075 c 0.01074,-0.088225 0.05644,-0.1315732 0.137136,-0.1300335 0.08069,0.0016 0.124638,0.046582 0.131844,0.1351392 l 3.121758,11.6525153 c 0.03392,0.09792 0.02356,0.168466 -0.02235,0.220653 -0.0459,0.05218 -0.117612,0.05082 -0.215173,-0.0041 l -3.088074,-1.208206 c -0.08895,-0.03706 -0.178604,-0.03877 -0.259998,-0.005 l -3.160844,1.089616 c -0.09071,0.05133 -0.15347,0.05014 -0.188275,-0.0036 -0.0348,-0.05372 -0.06908,-0.133955 -0.04938,-0.222013 z"
   id="path2"
   style="fill:#2c4f54;fill-opacity:0.5;stroke:#2e3332;stroke-width:0.054895;stroke-miterlimit:4;stroke-dasharray:none;stroke-opacity:0.9" />
<path
   style="fill:#1f4347;fill-opacity:0.81;stroke:#e4e7e7;stroke-width:0.054895;stroke-miterlimit:4;stroke-dasharray:none;stroke-opacity:0.9"
   d="M 14.74261,22.485209 C 14.363042,22.438137 13.946591,22.358174 13.588711,22.263651 11.576368,21.732124 9.7252188,20.16787 8.8075059,18.223438 8.3135183,17.176785 8.1268026,16.25833 8.1602567,15.039628 c 0.034301,-1.250895 0.282643,-2.197231 0.8517797,-3.246357 0.3836079,-0.707115 0.8114954,-1.266213 1.4186166,-1.8536216 1.204867,-1.1657442 2.600282,-1.8663491 4.249404,-2.1335327 0.343436,-0.055642 0.485626,-0.061798 1.231473,-0.053314 0.905317,0.010323 1.160075,0.038721 1.813422,0.2021973 0.986757,0.2469209 2.072684,0.7919583 2.90182,1.4564596 0.338206,0.2710475 0.961089,0.9176514 1.225298,1.2719544 0.639427,0.857477 1.089119,1.813049 1.298108,2.758435 0.154115,0.697151 0.175337,0.944424 0.152879,1.780987 -0.01586,0.590134 -0.0348,0.839836 -0.0832,1.095588 -0.293905,1.553229 -1.082464,2.981679 -2.253376,4.081876 -1.19919,1.12678 -2.713313,1.850942 -4.320296,2.066282 -0.370443,0.04964 -1.559631,0.06128 -1.903578,0.01864 z m -0.772282,-2.739675 c 0.856155,-0.298065 1.588092,-0.549094 1.626524,-0.557841 0.04743,-0.01081 0.581927,0.179485 1.664372,0.592527 0.917868,0.350238 1.617387,0.601668 1.648443,0.5925 0.06436,-0.01901 0.101095,-0.129891 0.07975,-0.240687 -0.0085,-0.04398 -0.679406,-2.58909 -1.49095,-5.655789 -1.422112,-5.3739176 -1.478374,-5.5768633 -1.5538,-5.6046617 -0.0583,-0.021477 -0.08947,-0.018132 -0.12221,0.013224 -0.05417,0.051834 -3.595799,11.0742117 -3.599203,11.2015247 -0.003,0.115028 0.07435,0.233064 0.140878,0.214763 0.02724,-0.0075 0.750043,-0.257499 1.606201,-0.555564 z"
   id="path861" /><rect
   style="fill:#c7485e;fill-opacity:1;stroke:#3c4343;stroke-width:0.244269;stroke-opacity:0.9"
   id="rect2803"
   width="2.8914859"
   height="0.029155366"
   x="13.759906"
   y="14.444438"
   transform="matrix(0.99987718,-0.01567238,0.0370116,0.99931484,0,0)"
   inkscape:transform-center-x="1.5024605"
   inkscape:transform-center-y="1.4771081" /><path
   style="fill:#cd415c;fill-opacity:1;stroke:#e27364;stroke-width:0.0212088;stroke-opacity:0.9"
   d="m 14.455742,13.852395 c 0.01542,-0.05014 0.334156,-1.133984 0.708283,-2.408554 0.374127,-1.274568 0.696313,-2.3472242 0.715966,-2.3836751 0.03092,-0.057363 1.317921,4.6197771 1.315618,4.7811361 -4.16e-4,0.04407 -0.369736,0.06571 -1.384391,0.08117 -1.293765,0.01971 -1.38171,0.01514 -1.355476,-0.07006 z"
   id="path3397"
   inkscape:transform-center-x="1.4443756"
   inkscape:transform-center-y="-0.85052593" /><text
   xml:space="preserve"
   style="font-size:4.85538px;line-height:1.25;font-family:'Segoe Script';-inkscape-font-specification:'Segoe Script';fill:#16272a;fill-opacity:0.799714;stroke-width:0.121384"
   x="4.4202585"
   y="18.818495"
   id="text17884"
   transform="scale(1.3295428,0.75213827)"><tspan
     sodipodi:role="line"
     id="tspan17882"
     x="4.4202585"
     y="18.818495"
     style="stroke-width:0.121384">_</tspan></text><text
   xml:space="preserve"
   style="font-size:4.94559px;line-height:1.25;font-family:'Segoe Script';-inkscape-font-specification:'Segoe Script';fill:#16272a;fill-opacity:0.799714;stroke-width:0.12364"
   x="16.861492"
   y="19.043491"
   id="text17884-6"
   transform="scale(1.354259,0.7384112)"><tspan
     sodipodi:role="line"
     id="tspan17882-2"
     x="16.861492"
     y="19.043491"
     style="stroke-width:0.12364">_</tspan></text><text
   xml:space="preserve"
   style="font-size:4.34464px;line-height:1.25;font-family:'Segoe Script';-inkscape-font-specification:'Segoe Script';fill:#16272a;fill-opacity:0.799714;stroke-width:0.108615"
   x="-19.277433"
   y="20.073421"
   id="text17884-0"
   transform="matrix(-0.01859847,-1.3453189,0.74257828,-0.05352146,0,0)"><tspan
     sodipodi:role="line"
     id="tspan17882-4"
     x="-19.277433"
     y="20.073421"
     style="stroke-width:0.108615">_</tspan></text><text
   xml:space="preserve"
   style="font-size:4.90311px;line-height:1.25;font-family:'Segoe Script';-inkscape-font-specification:'Segoe Script';fill:#16272a;fill-opacity:0.799714;stroke-width:0.122576"
   x="-6.0154142"
   y="20.599606"
   id="text17884-9"
   transform="matrix(5.198834e-4,-1.3149463,0.76048677,0.00142789,0,0)"><tspan
     sodipodi:role="line"
     id="tspan17882-7"
     x="-6.0154142"
     y="20.599606"
     style="stroke-width:0.122576">_</tspan></text><g
   aria-label="c"
   transform="scale(1.006613,0.99343047)"
   id="text9344"
   style="font-size:6.62106px;line-height:1.25;font-family:'Segoe Script';-inkscape-font-specification:'Segoe Script';fill:#0e0e0e;stroke-width:0.165525"><path
     d="m 17.637366,3.1172206 q 0,0.1163858 -0.08406,0.210141 -0.08729,0.096988 -0.151948,0.1648799 -0.06466,0.064659 -0.122852,0.1196188 -0.05819,0.05496 -0.122851,0.106687 -0.06466,0.048494 -0.151949,0.1131529 -0.245703,0.1778116 -0.468776,0.3006633 -0.223073,0.1196188 -0.433214,0.1972093 -0.210141,0.074358 -0.417049,0.106687 -0.203675,0.032329 -0.410583,0.032329 -0.216607,0 -0.387953,-0.080823 Q 14.714788,4.3037093 14.59517,4.16146 14.478784,4.0192107 14.417358,3.8317002 14.355932,3.6409568 14.355932,3.4308157 V 3.414651 q 0,-0.213374 0.05496,-0.4526115 0.05496,-0.2424705 0.151948,-0.4849409 0.100221,-0.2424705 0.239238,-0.4752421 0.139016,-0.2360046 0.307129,-0.4396798 0.06789,-0.080823 0.161647,-0.1713458 0.09699,-0.093755 0.203675,-0.1713458 0.10992,-0.07759 0.226306,-0.1260846 0.119619,-0.051727 0.232771,-0.051727 0.07759,0 0.148716,0.048494 0.07112,0.045261 0.13255,0.1196187 0.06143,0.074358 0.113153,0.1681129 0.05173,0.090522 0.08729,0.1875105 0.03556,0.093755 0.05496,0.1810446 0.0194,0.087289 0.0194,0.1487152 0,0.093755 -0.05819,0.2424704 -0.05819,0.1487152 -0.139016,0.1487152 -0.116386,0 -0.193977,-0.158414 -0.0291,-0.061426 -0.05173,-0.1422493 -0.0194,-0.080823 -0.04849,-0.1584141 -0.02586,-0.07759 -0.07112,-0.1422493 -0.04526,-0.067892 -0.126085,-0.1002211 -0.08082,0.019398 -0.16488,0.084056 -0.08082,0.064659 -0.161647,0.158414 -0.07759,0.093755 -0.155181,0.213374 -0.07436,0.1163859 -0.142249,0.2424705 -0.06466,0.1163858 -0.126085,0.268334 -0.06143,0.1487152 -0.10992,0.3103622 -0.04849,0.158414 -0.07759,0.316828 -0.0291,0.158414 -0.0291,0.2909646 0,0.093755 0.04526,0.1907434 0.04526,0.093755 0.116386,0.1713458 0.07436,0.077591 0.16488,0.1260846 0.09376,0.048494 0.190743,0.048494 0.478475,0 0.950485,-0.1972093 0.472009,-0.1972093 0.898757,-0.5722303 0.236004,-0.2069081 0.391185,-0.2069081 0.04526,0 0.04526,0.087289 z"
     id="path5457" /></g><g
   aria-label="в"
   transform="scale(1.4043518,0.71207228)"
   id="text19318"
   style="font-size:6.3426px;line-height:1.25;font-family:'Segoe Script';-inkscape-font-specification:'Segoe Script';fill:#161616;stroke-width:0.158565"><path
     d="m 20.69007,18.129206 q 0,-0.03716 -0.01548,-0.07433 -0.01239,-0.04026 -0.04026,-0.07123 -0.02478,-0.03407 -0.06813,-0.05575 -0.04026,-0.02168 -0.09601,-0.02168 -0.108394,0 -0.226079,0.07742 -0.114588,0.07742 -0.232273,0.213691 -0.114588,0.13317 -0.222982,0.318988 -0.108394,0.182721 -0.201303,0.396412 -0.09291,0.213692 -0.167237,0.449061 -0.07123,0.232273 -0.114588,0.467643 0.02787,-0.01858 0.08362,-0.05884 0.05575,-0.04336 0.123879,-0.09601 0.07123,-0.05575 0.148654,-0.117685 0.08052,-0.06504 0.151752,-0.126976 0.07433,-0.06194 0.136267,-0.117685 0.06194,-0.05575 0.0991,-0.09601 0.343764,-0.371637 0.492419,-0.644171 0.148654,-0.272533 0.148654,-0.442867 z m -0.09601,3.338537 q -0.09601,0.142461 -0.232273,0.278727 -0.13317,0.13317 -0.294212,0.23537 -0.161043,0.1022 -0.343764,0.161043 -0.179625,0.05884 -0.365443,0.04336 -0.130073,-0.0093 -0.247758,-0.08362 -0.117685,-0.07742 -0.207497,-0.216788 -0.08981,-0.142461 -0.142461,-0.346861 -0.05265,-0.2044 -0.05265,-0.47074 0,-0.170333 0.01858,-0.368539 0.01858,-0.201304 0.04955,-0.405704 0.03097,-0.2044 0.06813,-0.399509 0.04026,-0.19511 0.07742,-0.359249 0.04955,-0.222982 0.130073,-0.43977 0.08052,-0.219885 0.179624,-0.421188 0.0991,-0.204401 0.213691,-0.384025 0.114588,-0.179624 0.23537,-0.325182 0.167237,-0.195109 0.380928,-0.312794 0.216788,-0.117685 0.507903,-0.117685 0.120782,0 0.219885,0.04955 0.0991,0.04955 0.170334,0.130073 0.07123,0.07742 0.108394,0.176527 0.04026,0.0991 0.04026,0.19511 0,0.13317 -0.05574,0.297309 -0.05265,0.161043 -0.154849,0.33757 -0.1022,0.176528 -0.247757,0.356152 -0.145558,0.179624 -0.331377,0.346861 0.04336,0.0031 0.0991,0.01549 0.05884,0.0093 0.120782,0.03716 0.06504,0.02787 0.130072,0.07433 0.06813,0.04645 0.130073,0.117685 0.02787,0.03407 0.06194,0.09291 0.03407,0.05575 0.06194,0.139364 0.03097,0.08052 0.04955,0.185818 0.02168,0.105297 0.02168,0.232273 0,0.247758 -0.08981,0.535776 -0.08671,0.284922 -0.309697,0.613201 z m -0.08671,-1.139686 q 0,-0.170334 -0.04955,-0.284922 -0.04955,-0.117685 -0.117685,-0.185818 -0.06813,-0.07123 -0.139363,-0.0991 -0.07123,-0.03097 -0.114588,-0.03097 -0.04026,0 -0.126976,0.06194 -0.08672,0.06194 -0.185819,0.136266 -0.07433,0.06504 -0.148654,0.120782 -0.07433,0.05575 -0.139364,0.108394 -0.06194,0.05265 -0.114588,0.105298 -0.05265,0.05265 -0.08672,0.111491 -0.08672,0.157945 -0.1022,0.359248 -0.01548,0.201304 -0.01548,0.411898 0,0.139363 0.02787,0.250854 0.03097,0.108395 0.07433,0.185819 0.04645,0.07742 0.0991,0.120782 0.05265,0.04026 0.09601,0.04026 0.105297,0 0.238467,-0.04336 0.13317,-0.04336 0.272534,-0.170334 0.120781,-0.111491 0.216788,-0.250854 0.0991,-0.139364 0.167236,-0.294213 0.07123,-0.154849 0.108394,-0.322085 0.04026,-0.167237 0.04026,-0.331376 z"
     id="path5478" /></g><g
   aria-label="ю"
   transform="scale(0.89590192,1.1161936)"
   id="text11307"
   style="font-size:5.2884px;line-height:1.25;font-family:'Segoe Script';-inkscape-font-specification:'Segoe Script';fill:#151515;stroke-width:0.132209"><path
     d="m 15.408338,24.920113 q 0,-0.01033 -0.01291,-0.01808 -0.01033,-0.01033 -0.02582,-0.02582 -0.01549,-0.01549 -0.0284,-0.04132 -0.01033,-0.02582 -0.01033,-0.0723 0,-0.04132 0.02324,-0.07488 0.02324,-0.03357 0.04906,-0.06197 0.0284,-0.0284 0.05164,-0.05165 0.02582,-0.02324 0.03099,-0.0439 0.0439,-0.247893 0.07488,-0.467383 0.03099,-0.219489 0.03873,-0.366676 0.0026,-0.0439 0,-0.09038 0,-0.04648 -0.0026,-0.09296 -0.0026,-0.03357 -0.0052,-0.06456 0,-0.03099 0,-0.05939 0,-0.03099 0.02324,-0.06972 0.02324,-0.03873 0.05681,-0.0723 0.03615,-0.03357 0.07747,-0.05423 0.0439,-0.02324 0.08521,-0.02324 0.03615,0 0.0723,0.02066 0.03615,0.01807 0.06456,0.05423 0.0284,0.03357 0.04648,0.08521 0.01808,0.04906 0.01808,0.111036 0,0.04648 -0.0077,0.113618 -0.0077,0.06714 -0.02066,0.147187 -0.01291,0.08005 -0.03099,0.167844 -0.01549,0.0878 -0.03099,0.175592 -0.02066,0.121364 -0.04132,0.2324 -0.01808,0.111036 -0.0284,0.191085 0.01033,0.02324 0.01807,0.04132 0.01033,0.01549 0.02582,0.02582 0.01549,0.01033 0.03873,0.01549 0.02582,0.0052 0.06714,0.0052 0.111036,0 0.234982,-0.02324 0.123947,-0.02324 0.234983,-0.05939 0.111036,-0.03615 0.198832,-0.07488 0.09038,-0.04132 0.134275,-0.07747 0.0284,-0.02324 0.06197,-0.06197 0.03615,-0.03873 0.0723,-0.08263 0.03615,-0.04648 0.06972,-0.09038 0.03615,-0.04648 0.06197,-0.08005 0.08779,-0.111035 0.198831,-0.216907 0.111036,-0.105871 0.245312,-0.18592 0.134275,-0.08005 0.289209,-0.129111 0.157516,-0.04906 0.340854,-0.04906 0.13944,0 0.273716,0.06972 0.134276,0.06714 0.237565,0.183338 0.105871,0.1162 0.167845,0.268551 0.06455,0.149769 0.06455,0.315032 0,0.165262 -0.03357,0.30212 -0.03099,0.134276 -0.100707,0.286628 -0.03873,0.08005 -0.134275,0.191084 -0.09554,0.111036 -0.229818,0.229818 -0.131694,0.118783 -0.28921,0.234983 -0.157516,0.1162 -0.320196,0.20916 -0.16268,0.09296 -0.320196,0.14977 -0.154934,0.05681 -0.281463,0.05681 -0.170427,0 -0.291791,-0.05681 -0.121365,-0.05939 -0.198832,-0.152352 -0.07747,-0.09554 -0.113618,-0.216907 -0.03615,-0.121364 -0.03615,-0.245311 0,-0.100707 0.0284,-0.24273 0.03099,-0.144604 0.103289,-0.291791 -0.09812,0.06197 -0.21949,0.09812 -0.118782,0.03615 -0.219489,0.06456 -0.0439,0.01291 -0.09812,0.02324 -0.05423,0.0077 -0.108453,0.01549 -0.05164,0.0077 -0.100707,0.01549 -0.04648,0.0077 -0.08005,0.01291 -0.05164,0.01033 -0.0723,0.04132 -0.01808,0.0284 -0.0284,0.07488 -0.01033,0.0439 -0.03099,0.1162 -0.02066,0.0723 -0.04132,0.149769 -0.02324,0.08263 -0.04906,0.170427 -0.02582,0.0878 -0.04648,0.167845 -0.01808,0.07747 -0.03357,0.144605 -0.01291,0.06456 -0.01291,0.100707 0,0.03357 -0.0284,0.0723 -0.02582,0.03873 -0.06197,0.0723 -0.03357,0.03615 -0.06972,0.05939 -0.03357,0.02324 -0.05164,0.02324 -0.03873,0 -0.07489,-0.02582 -0.03357,-0.02582 -0.05939,-0.05939 -0.02582,-0.03357 -0.04132,-0.06714 -0.01549,-0.03615 -0.01549,-0.05423 0,-0.02324 0.01808,-0.08263 0.02066,-0.05939 0.04131,-0.121364 0.01291,-0.03873 0.03357,-0.105872 0.02066,-0.06714 0.04132,-0.147187 0.02324,-0.08263 0.0439,-0.170427 0.02324,-0.08779 0.04132,-0.165262 0.01808,-0.07747 0.0284,-0.134276 0.01033,-0.05939 0.01033,-0.08521 z m 3.111583,-0.583584 q 0,-0.258222 -0.149769,-0.402827 -0.147187,-0.147187 -0.423486,-0.147187 -0.03873,0 -0.09554,0.03099 -0.05681,0.03099 -0.123947,0.08005 -0.06456,0.04648 -0.131693,0.103289 -0.06456,0.05681 -0.123947,0.111036 -0.05681,0.05423 -0.09813,0.09812 -0.04131,0.0439 -0.05681,0.06197 -0.05423,0.06455 -0.113618,0.178173 -0.05681,0.111036 -0.105871,0.240147 -0.04906,0.129112 -0.08263,0.260805 -0.03099,0.129112 -0.03099,0.227236 0,0.05939 0.01549,0.121365 0.01808,0.06197 0.05164,0.113618 0.03615,0.04906 0.09038,0.08263 0.05423,0.03099 0.126529,0.03099 0.08005,0 0.203996,-0.04648 0.123947,-0.04648 0.260805,-0.129111 0.13944,-0.08263 0.27888,-0.19625 0.142023,-0.113618 0.253058,-0.245311 0.113618,-0.131694 0.183338,-0.276298 0.0723,-0.147187 0.0723,-0.296957 z"
     id="path5499" /></g><g
   aria-label="з"
   transform="scale(1.3889338,0.7199767)"
   id="text16794"
   style="font-size:6.09079px;line-height:1.25;font-family:'Segoe Script';-inkscape-font-specification:'Segoe Script';fill:#131313;stroke-width:0.152269"><path
     d="m 1.6103248,20.425265 q 0.02974,0 0.047584,0.02082 0.020818,0.02082 0.032714,0.05056 0.011896,0.03271 0.01487,0.07138 0.00595,0.03866 0.00595,0.07435 0,0.0684 0.023792,0.148701 0.026766,0.0803 0.083273,0.148701 0.05948,0.0684 0.1516749,0.113013 0.092195,0.04758 0.2260255,0.04758 0.1814151,0 0.3747263,-0.09517 0.1933112,-0.09517 0.3539082,-0.264688 0.160597,-0.169519 0.2617136,-0.404466 0.1040906,-0.231974 0.1040906,-0.508558 0,-0.255765 -0.053532,-0.434206 -0.053532,-0.178441 -0.1397789,-0.28848 -0.083273,-0.113013 -0.1933112,-0.163571 -0.1100386,-0.05056 -0.2200773,-0.05056 -0.041636,0 -0.092195,0.02082 -0.050558,0.01784 -0.1040906,0.04758 -0.050558,0.02677 -0.1040907,0.05948 -0.050558,0.03271 -0.092195,0.05948 -0.071376,0.04758 -0.1368048,0.0803 -0.062454,0.03271 -0.166545,0.03271 -0.080299,0 -0.1397789,-0.05948 -0.056506,-0.06245 -0.056506,-0.163571 0,-0.07732 0.053532,-0.130857 0.056506,-0.05353 0.172493,-0.101116 0.2468436,-0.101117 0.4401548,-0.205208 0.1962852,-0.107064 0.330116,-0.228999 0.1338309,-0.124909 0.2052073,-0.27361 0.071376,-0.148701 0.071376,-0.339038 0,-0.07435 -0.023792,-0.145727 -0.020818,-0.07435 -0.065428,-0.130857 -0.04461,-0.05948 -0.1100387,-0.09517 -0.062454,-0.03866 -0.1457269,-0.03866 -0.1784411,0 -0.3390381,0.110038 -0.160597,0.110039 -0.315246,0.270636 -0.068402,0.07138 -0.1130127,0.104091 -0.04461,0.02974 -0.095169,0.02974 -0.041636,0 -0.07435,-0.02082 -0.02974,-0.02379 -0.050558,-0.05353 -0.017844,-0.03271 -0.02974,-0.0684 -0.00892,-0.03866 -0.00892,-0.06543 0,-0.07138 0.038662,-0.13383 0.041636,-0.06543 0.1100387,-0.121935 0.1487009,-0.124909 0.2914538,-0.205207 0.1427528,-0.0803 0.2349474,-0.118961 0.1040907,-0.04164 0.2141293,-0.0803 0.1130128,-0.03866 0.2111554,-0.03866 0.1397788,0 0.2676616,0.05056 0.1278828,0.04758 0.2230514,0.142753 0.098143,0.0922 0.154649,0.229 0.05948,0.136805 0.05948,0.309298 0,0.249817 -0.1219347,0.496661 -0.1189608,0.246843 -0.4074406,0.478817 0.1992593,0.0089 0.3479602,0.101116 0.1487009,0.0922 0.2468435,0.24387 0.1011167,0.151675 0.148701,0.350934 0.050558,0.196285 0.050558,0.416363 0,0.220077 -0.05948,0.43718 -0.05948,0.217104 -0.169519,0.416363 -0.1070647,0.199259 -0.2587397,0.368778 -0.1487009,0.169519 -0.330116,0.294428 -0.1784411,0.124909 -0.3836484,0.196285 -0.2022332,0.07138 -0.4163626,0.07138 -0.2052072,0 -0.3568822,-0.0684 -0.1516749,-0.06543 -0.2527915,-0.166545 -0.098143,-0.101116 -0.148701,-0.217103 -0.050558,-0.115987 -0.050558,-0.214129 0,-0.07435 0.026766,-0.160597 0.02974,-0.08625 0.065428,-0.136805 0.023792,-0.03272 0.068402,-0.0684 0.04461,-0.03271 0.1130127,-0.03271 z"
     id="path5436" /></g></svg>
