<?xml version="1.0" encoding="UTF-8" standalone="no"?>
<!-- Generator: Adobe Illustrator 22.0.1, SVG Export Plug-In . SVG Version: 6.00 Build 0)  -->

<svg
   version="1.1"
   id="Layer_1"
   x="0px"
   y="0px"
   viewBox="0 0 30 30"
   xml:space="preserve"
   sodipodi:docname="northWind.svg"
   width="30"
   height="30"
   inkscape:version="1.1.1 (3bf5ae0d25, 2021-09-20)"
   xmlns:inkscape="http://www.inkscape.org/namespaces/inkscape"
   xmlns:sodipodi="http://sodipodi.sourceforge.net/DTD/sodipodi-0.dtd"
   xmlns="http://www.w3.org/2000/svg"
   xmlns:svg="http://www.w3.org/2000/svg"><defs
   id="defs7" /><sodipodi:namedview
   id="namedview5"
   pagecolor="#ffffff"
   bordercolor="#666666"
   borderopacity="1.0"
   inkscape:pageshadow="2"
   inkscape:pageopacity="0.0"
   inkscape:pagecheckerboard="0"
   showgrid="false"
   inkscape:zoom="5.0793836"
   inkscape:cx="-37.406114"
   inkscape:cy="34.748311"
   inkscape:window-width="2400"
   inkscape:window-height="1321"
   inkscape:window-x="2391"
   inkscape:window-y="-9"
   inkscape:window-maximized="1"
   inkscape:current-layer="Layer_1"
   width="140px" />
<path
   d="M 5.6603903,14.865507 C 5.696397,13.062202 6.1869705,11.400172 7.123002,9.8880838 8.0590365,8.3759954 9.3114726,7.1882657 10.880319,6.3248894 c 1.568844,-0.8633772 3.263168,-1.2733713 5.083154,-1.238833 1.362747,0.025863 2.666413,0.3158985 3.902203,0.8610904 1.235782,0.5451969 2.288385,1.281462 3.176252,2.1826193 0.887859,0.901164 1.583929,1.9755379 2.088188,3.2231369 0.504262,1.247604 0.747642,2.534465 0.720471,3.895785 -0.02683,1.343638 -0.321542,2.629133 -0.875027,3.847818 -0.553486,1.21868 -1.300858,2.265668 -2.215046,3.132625 -0.914184,0.86696 -2.00416,1.553714 -3.260766,2.051609 -1.256609,0.497893 -2.561895,0.73841 -3.933607,0.712377 -1.371716,-0.02603 -2.684344,-0.316236 -3.92013,-0.861432 C 10.410225,23.586487 9.3486601,22.850055 8.460793,21.9489 7.5729265,21.047741 6.8858255,19.973531 6.3722523,18.743439 5.8586677,17.513347 5.6333942,16.217984 5.6603903,14.865507 Z m 2.2234309,0.0422 c -0.041814,2.095016 0.6928718,3.930631 2.2130158,5.507019 1.520501,1.558708 3.352211,2.353975 5.512885,2.394982 1.416541,0.02689 2.741341,-0.292853 3.95665,-0.96839 1.215312,-0.675538 2.202282,-1.594171 2.934371,-2.774094 0.732089,-1.179919 1.116468,-2.463713 1.144348,-3.860392 C 23.672979,13.810152 23.340278,12.503908 22.65583,11.2971 21.971382,10.090296 21.030957,9.1262376 19.834555,8.4049298 18.638157,7.6836204 17.336085,7.3140302 15.919539,7.2871465 14.502998,7.2602607 13.178198,7.5799998 11.962886,8.2555368 10.747581,8.9310743 9.7604334,9.8585502 9.0193781,11.038302 c -0.7410512,1.179752 -1.1076763,2.472723 -1.1355569,3.8694 z m 4.2808898,5.254444 3.593352,-11.525075 c 0.01074,-0.088225 0.05644,-0.1315732 0.137136,-0.1300335 0.08069,0.0016 0.124638,0.046582 0.131844,0.1351392 l 3.121758,11.6525153 c 0.03392,0.09792 0.02356,0.168466 -0.02235,0.220653 -0.0459,0.05218 -0.117612,0.05082 -0.215173,-0.0041 l -3.088074,-1.208206 c -0.08895,-0.03706 -0.178604,-0.03877 -0.259998,-0.005 l -3.160844,1.089616 c -0.09071,0.05133 -0.15347,0.05014 -0.188275,-0.0036 -0.0348,-0.05372 -0.06908,-0.133955 -0.04938,-0.222013 z"
   id="path2"
   style="fill:#2c4f54;fill-opacity:0.5;stroke:#2e3332;stroke-width:0.054895;stroke-miterlimit:4;stroke-dasharray:none;stroke-opacity:0.9" />
<path
   style="fill:#1f4347;fill-opacity:0.81;stroke:#e4e7e7;stroke-width:0.054895;stroke-miterlimit:4;stroke-dasharray:none;stroke-opacity:0.9"
   d="M 14.74261,22.485209 C 14.363042,22.438137 13.946591,22.358174 13.588711,22.263651 11.576368,21.732124 9.7252188,20.16787 8.8075059,18.223438 8.3135183,17.176785 8.1268026,16.25833 8.1602567,15.039628 c 0.034301,-1.250895 0.282643,-2.197231 0.8517797,-3.246357 0.3836079,-0.707115 0.8114954,-1.266213 1.4186166,-1.8536216 1.204867,-1.1657442 2.600282,-1.8663491 4.249404,-2.1335327 0.343436,-0.055642 0.485626,-0.061798 1.231473,-0.053314 0.905317,0.010323 1.160075,0.038721 1.813422,0.2021973 0.986757,0.2469209 2.072684,0.7919583 2.90182,1.4564596 0.338206,0.2710475 0.961089,0.9176514 1.225298,1.2719544 0.639427,0.857477 1.089119,1.813049 1.298108,2.758435 0.154115,0.697151 0.175337,0.944424 0.152879,1.780987 -0.01586,0.590134 -0.0348,0.839836 -0.0832,1.095588 -0.293905,1.553229 -1.082464,2.981679 -2.253376,4.081876 -1.19919,1.12678 -2.713313,1.850942 -4.320296,2.066282 -0.370443,0.04964 -1.559631,0.06128 -1.903578,0.01864 z m -0.772282,-2.739675 c 0.856155,-0.298065 1.588092,-0.549094 1.626524,-0.557841 0.04743,-0.01081 0.581927,0.179485 1.664372,0.592527 0.917868,0.350238 1.617387,0.601668 1.648443,0.5925 0.06436,-0.01901 0.101095,-0.129891 0.07975,-0.240687 -0.0085,-0.04398 -0.679406,-2.58909 -1.49095,-5.655789 -1.422112,-5.3739176 -1.478374,-5.5768633 -1.5538,-5.6046617 -0.0583,-0.021477 -0.08947,-0.018132 -0.12221,0.013224 -0.05417,0.051834 -3.595799,11.0742117 -3.599203,11.2015247 -0.003,0.115028 0.07435,0.233064 0.140878,0.214763 0.02724,-0.0075 0.750043,-0.257499 1.606201,-0.555564 z"
   id="path861" /><rect
   style="fill:#c7485e;fill-opacity:1;stroke:#3c4343;stroke-width:0.244269;stroke-opacity:0.9"
   id="rect2803"
   width="2.8914859"
   height="0.029155366"
   x="13.759906"
   y="14.444438"
   transform="matrix(0.99987718,-0.01567238,0.0370116,0.99931484,0,0)"
   inkscape:transform-center-x="1.5024605"
   inkscape:transform-center-y="1.4771081" /><path
   style="fill:#cd415c;fill-opacity:1;stroke:#e27364;stroke-width:0.0212088;stroke-opacity:0.9"
   d="m 14.455742,13.852395 c 0.01542,-0.05014 0.334156,-1.133984 0.708283,-2.408554 0.374127,-1.274568 0.696313,-2.3472242 0.715966,-2.3836751 0.03092,-0.057363 1.317921,4.6197771 1.315618,4.7811361 -4.16e-4,0.04407 -0.369736,0.06571 -1.384391,0.08117 -1.293765,0.01971 -1.38171,0.01514 -1.355476,-0.07006 z"
   id="path3397"
   inkscape:transform-center-x="1.4443756"
   inkscape:transform-center-y="-0.85052593" /><text
   xml:space="preserve"
   style="font-size:4.85538px;line-height:1.25;font-family:'Segoe Script';-inkscape-font-specification:'Segoe Script';fill:#16272a;fill-opacity:0.799714;stroke-width:0.121384"
   x="4.4202585"
   y="18.818495"
   id="text17884"
   transform="scale(1.3295428,0.75213827)"><tspan
     sodipodi:role="line"
     id="tspan17882"
     x="4.4202585"
     y="18.818495"
     style="stroke-width:0.121384">_</tspan></text><text
   xml:space="preserve"
   style="font-size:4.94559px;line-height:1.25;font-family:'Segoe Script';-inkscape-font-specification:'Segoe Script';fill:#16272a;fill-opacity:0.799714;stroke-width:0.12364"
   x="16.861492"
   y="19.043491"
   id="text17884-6"
   transform="scale(1.354259,0.7384112)"><tspan
     sodipodi:role="line"
     id="tspan17882-2"
     x="16.861492"
     y="19.043491"
     style="stroke-width:0.12364">_</tspan></text><text
   xml:space="preserve"
   style="font-size:4.34464px;line-height:1.25;font-family:'Segoe Script';-inkscape-font-specification:'Segoe Script';fill:#16272a;fill-opacity:0.799714;stroke-width:0.108615"
   x="-19.277433"
   y="20.073421"
   id="text17884-0"
   transform="matrix(-0.01859847,-1.3453189,0.74257828,-0.05352146,0,0)"><tspan
     sodipodi:role="line"
     id="tspan17882-4"
     x="-19.277433"
     y="20.073421"
     style="stroke-width:0.108615">_</tspan></text><text
   xml:space="preserve"
   style="font-size:4.90311px;line-height:1.25;font-family:'Segoe Script';-inkscape-font-specification:'Segoe Script';fill:#16272a;fill-opacity:0.799714;stroke-width:0.122576"
   x="-6.0154142"
   y="20.599606"
   id="text17884-9"
   transform="matrix(5.198834e-4,-1.3149463,0.76048677,0.00142789,0,0)"><tspan
     sodipodi:role="line"
     id="tspan17882-7"
     x="-6.0154142"
     y="20.599606"
     style="stroke-width:0.122576">_</tspan></text><text
   xml:space="preserve"
   style="font-size:6.62106px;line-height:1.25;font-family:'Segoe Script';-inkscape-font-specification:'Segoe Script';fill:#0e0e0e;fill-opacity:1;stroke-width:0.165525"
   x="13.942116"
   y="4.4556575"
   id="text9344"
   transform="scale(1.006613,0.99343047)"><tspan
     sodipodi:role="line"
     id="tspan9342"
     x="13.942116"
     y="4.4556575"
     style="fill:#0e0e0e;fill-opacity:1;stroke-width:0.165525">c</tspan></text><text
   xml:space="preserve"
   style="font-size:6.3426px;line-height:1.25;font-family:'Segoe Script';-inkscape-font-specification:'Segoe Script';fill:#161616;fill-opacity:1;stroke-width:0.158565"
   x="18.286819"
   y="22.108816"
   id="text19318"
   transform="scale(1.4043518,0.71207228)"><tspan
     sodipodi:role="line"
     id="tspan19316"
     x="18.286819"
     y="22.108816"
     style="fill:#161616;fill-opacity:1;stroke-width:0.158565">в</tspan></text><text
   xml:space="preserve"
   style="font-size:5.2884px;line-height:1.25;font-family:'Segoe Script';-inkscape-font-specification:'Segoe Script';fill:#151515;fill-opacity:1;stroke-width:0.132209"
   x="14.716301"
   y="25.986572"
   id="text11307"
   transform="scale(0.89590192,1.1161936)"><tspan
     sodipodi:role="line"
     id="tspan11305"
     x="14.716301"
     y="25.986572"
     style="fill:#151515;fill-opacity:1;stroke-width:0.132209">ю</tspan></text><text
   xml:space="preserve"
   style="font-size:6.09079px;line-height:1.25;font-family:'Segoe Script';-inkscape-font-specification:'Segoe Script';fill:#131313;fill-opacity:1;stroke-width:0.152269"
   x="1.1731441"
   y="20.187344"
   id="text16794"
   transform="scale(1.3889338,0.7199767)"><tspan
     sodipodi:role="line"
     id="tspan16792"
     x="1.1731441"
     y="20.187344"
     style="fill:#131313;fill-opacity:1;stroke-width:0.152269">з</tspan></text></svg>
