<?xml version="1.0" encoding="UTF-8" standalone="no"?>
<!-- Generator: Adobe Illustrator 22.0.1, SVG Export Plug-In . SVG Version: 6.00 Build 0)  -->

<svg
   version="1.1"
   id="Layer_1"
   x="0px"
   y="0px"
   viewBox="0 0 30 30"
   xml:space="preserve"
   sodipodi:docname="southEastWind.svg"
   width="30"
   height="30"
   inkscape:version="1.1.1 (3bf5ae0d25, 2021-09-20)"
   xmlns:inkscape="http://www.inkscape.org/namespaces/inkscape"
   xmlns:sodipodi="http://sodipodi.sourceforge.net/DTD/sodipodi-0.dtd"
   xmlns="http://www.w3.org/2000/svg"
   xmlns:svg="http://www.w3.org/2000/svg"><defs
   id="defs7" /><sodipodi:namedview
   id="namedview5"
   pagecolor="#ffffff"
   bordercolor="#666666"
   borderopacity="1.0"
   inkscape:pageshadow="2"
   inkscape:pageopacity="0.0"
   inkscape:pagecheckerboard="0"
   showgrid="false"
   inkscape:zoom="28.733333"
   inkscape:cx="17.470998"
   inkscape:cy="16.757541"
   inkscape:window-width="2400"
   inkscape:window-height="1321"
   inkscape:window-x="2391"
   inkscape:window-y="-9"
   inkscape:window-maximized="1"
   inkscape:current-layer="Layer_1"
   width="140px" />
<path
   d="m 21.711327,7.12937 c 1.444268,1.2099447 2.490313,2.6967272 3.136785,4.447248 0.646468,1.750524 0.831932,3.545742 0.556388,5.385662 -0.275544,1.83992 -0.998047,3.484941 -2.160426,4.941004 -0.870349,1.09025 -1.918739,1.959535 -3.132356,2.60661 -1.213619,0.647069 -2.468474,1.020207 -3.754772,1.151542 -1.286304,0.131327 -2.593951,-0.0066 -3.922947,-0.413741 -1.329,-0.407164 -2.5273406,-1.051986 -3.6176248,-1.965374 C 7.7402519,22.380798 6.8783927,21.299676 6.2321412,20.052064 5.5858922,18.804456 5.2001263,17.511737 5.0647517,16.201356 4.9293737,14.890979 5.0501219,13.555766 5.4283279,12.208823 5.8065389,10.86188 6.4244177,9.6439083 7.3004953,8.5464836 8.1765707,7.449054 9.2306868,6.5726008 10.444308,5.9255272 c 1.21362,-0.6470697 2.474195,-1.0273786 3.760496,-1.158718 1.286301,-0.1313349 2.588224,0.01375 3.908788,0.4018809 1.320567,0.3881241 2.514536,1.0532249 3.597735,1.9606799 z M 20.29128,8.908205 C 18.61338,7.5025376 16.662517,6.8975885 14.432964,7.1005284 12.217573,7.3153301 10.429159,8.2828374 9.0491926,10.011461 8.1444829,11.144748 7.5788734,12.43045 7.3708862,13.860148 c -0.2079846,1.429701 -0.075939,2.833044 0.427473,4.200387 0.5034087,1.367341 1.3080105,2.520188 2.4266108,3.457304 1.118599,0.937107 2.388363,1.522064 3.796482,1.756122 1.40812,0.234052 2.778335,0.101198 4.110646,-0.398562 1.33231,-0.499763 2.444414,-1.315665 3.349122,-2.448957 0.904709,-1.133288 1.470318,-2.41899 1.678306,-3.84869 0.207983,-1.429697 0.06886,-2.838977 -0.428829,-4.21349 C 22.23301,10.989749 21.409879,9.8453174 20.29128,8.908205 Z m -6.941662,0.037771 7.134292,10.46542 c 0.06507,0.06648 0.07184,0.132003 0.02029,0.196558 -0.05155,0.06454 -0.115565,0.07076 -0.192082,0.01863 L 8.8890647,14.533522 c -0.1007873,-0.03655 -0.1516975,-0.09117 -0.1655448,-0.162621 -0.013837,-0.07145 0.03196,-0.12883 0.1374253,-0.172145 l 2.9072908,-1.717887 c 0.08558,-0.048 0.142841,-0.119729 0.166053,-0.20801 l 1.083729,-3.2814942 c 0.01479,-0.1073094 0.05487,-0.1575164 0.120249,-0.1506231 0.06538,0.0069 0.152004,0.031585 0.211352,0.1052385 z"
   id="path2"
   style="fill:#2c4f54;fill-opacity:0.5;stroke:#2e3332;stroke-width:0.0567541;stroke-miterlimit:4;stroke-dasharray:none;stroke-opacity:0.9" />
<path
   style="fill:#2d6166;fill-opacity:0.81;stroke:#e4e7e7;stroke-width:0.0567541;stroke-miterlimit:4;stroke-dasharray:none;stroke-opacity:0.9"
   d="M 9.9157603,9.6021549 C 10.189842,9.3237981 10.513642,9.036868 10.812936,8.8071296 c 1.682944,-1.291802 4.107592,-1.7785981 6.26247,-1.2573157 1.159931,0.2806009 2.024549,0.7277626 2.997177,1.5500794 0.998349,0.8440035 1.615515,1.6636087 2.117256,2.8114807 0.338171,0.773674 0.528192,1.486837 0.629984,2.364411 0.202011,1.741599 -0.09346,3.334899 -0.89979,4.852019 -0.167918,0.315945 -0.2512,0.435738 -0.721292,1.037515 -0.570621,0.730428 -0.751972,0.919341 -1.290962,1.344685 -0.814053,0.642383 -1.932698,1.171026 -2.989256,1.412638 -0.430965,0.09856 -1.344849,0.183902 -1.797728,0.167884 -1.096048,-0.03876 -2.154229,-0.296004 -3.054627,-0.742603 -0.663979,-0.329325 -0.87872,-0.473364 -1.546682,-1.037422 C 10.048295,20.912582 9.8565153,20.734262 9.6781014,20.527996 8.5945249,19.275365 7.9198488,17.701358 7.7501788,16.030173 7.5764149,14.318616 7.9264003,12.613288 8.7488114,11.164304 8.9383959,10.830283 9.6674,9.8543859 9.9157566,9.6021469 Z m 2.7127937,1.1585181 c -0.288715,0.891587 -0.538628,1.651341 -0.555365,1.688341 -0.02064,0.04567 -0.507683,0.356744 -1.516573,0.968667 -0.8554911,0.518886 -1.4948479,0.924444 -1.5066569,0.95571 -0.024469,0.06481 0.043094,0.167059 0.1466665,0.22196 0.041125,0.02179 2.5323714,1.135901 5.5361164,2.475796 5.263601,2.34796 5.463969,2.434548 5.533468,2.391268 0.0537,-0.03346 0.07034,-0.06103 0.06511,-0.108139 C 20.32272,19.276346 13.537362,9.2015974 13.435699,9.115769 13.343849,9.03822 13.199549,9.024257 13.173153,9.090366 13.162363,9.11747 12.917267,9.8690873 12.628554,10.760673 Z"
   id="path861" /><rect
   style="fill:#c7485e;fill-opacity:1;stroke:#3c4343;stroke-width:0.237451;stroke-opacity:0.9"
   id="rect2803"
   width="2.6124444"
   height="0.030492879"
   x="1.2682469"
   y="-23.353724"
   transform="matrix(-0.59546262,0.80338302,-0.78551636,-0.61884089,0,0)"
   inkscape:transform-center-x="0.35693005"
   inkscape:transform-center-y="-2.0706435" /><path
   style="fill:#cd425e;fill-opacity:1;stroke:#e27364;stroke-width:0.019096;stroke-opacity:0.9"
   d="m 17.778376,15.708648 c 0.0269,0.03953 0.61625,0.883688 1.309695,1.8759 0.693446,0.99221 1.273036,1.832426 1.287976,1.86714 0.0235,0.05463 -3.974847,-1.702961 -4.087263,-1.796668 -0.03072,-0.02559 0.155779,-0.299298 0.699421,-1.026572 0.693189,-0.927336 0.744473,-0.987002 0.790161,-0.919806 z"
   id="path3397"
   inkscape:transform-center-x="-1.0286652"
   inkscape:transform-center-y="-0.9885306" /><text
   xml:space="preserve"
   style="font-size:5.01979px;line-height:1.25;font-family:'Segoe Script';-inkscape-font-specification:'Segoe Script';fill:#16272a;fill-opacity:0.799714;stroke-width:0.125493"
   x="3.9428711"
   y="18.402548"
   id="text17884"
   transform="scale(1.2971622,0.77091361)"><tspan
     sodipodi:role="line"
     id="tspan17882"
     x="3.9428711"
     y="18.402548"
     style="stroke-width:0.125493">_</tspan></text><text
   xml:space="preserve"
   style="font-size:5.11315px;line-height:1.25;font-family:'Segoe Script';-inkscape-font-specification:'Segoe Script';fill:#16272a;fill-opacity:0.799714;stroke-width:0.127826"
   x="16.987289"
   y="18.615583"
   id="text17884-6"
   transform="scale(1.3212765,0.75684386)"><tspan
     sodipodi:role="line"
     id="tspan17882-2"
     x="16.987289"
     y="18.615583"
     style="stroke-width:0.127826">_</tspan></text><text
   xml:space="preserve"
   style="font-size:4.49176px;line-height:1.25;font-family:'Segoe Script';-inkscape-font-specification:'Segoe Script';fill:#16272a;fill-opacity:0.799714;stroke-width:0.112294"
   x="-19.296347"
   y="19.620905"
   id="text17884-0"
   transform="matrix(-0.01814552,-1.3789014,0.7244931,-0.05485749,0,0)"><tspan
     sodipodi:role="line"
     id="tspan17882-4"
     x="-19.296347"
     y="19.620905"
     style="stroke-width:0.112294">_</tspan></text><text
   xml:space="preserve"
   style="font-size:5.06912px;line-height:1.25;font-family:'Segoe Script';-inkscape-font-specification:'Segoe Script';fill:#16272a;fill-opacity:0.799714;stroke-width:0.126726"
   x="-5.77285"
   y="20.175764"
   id="text17884-9"
   transform="matrix(5.0722179e-4,-1.3477709,0.74196532,0.00146353,0,0)"><tspan
     sodipodi:role="line"
     id="tspan17882-7"
     x="-5.77285"
     y="20.175764"
     style="stroke-width:0.126726">_</tspan></text><g
   aria-label="c"
   transform="scale(0.99450582,1.0055245)"
   id="text9344"
   style="font-size:6.64003px;line-height:1.25;font-family:'Segoe Script';-inkscape-font-specification:'Segoe Script';fill:#0e0e0e;stroke-width:0.165998"><path
     d="m 17.576204,2.9148175 q 0,0.1167192 -0.0843,0.2107431 -0.08754,0.097266 -0.152384,0.1653523 -0.06484,0.064844 -0.123203,0.1199615 -0.05836,0.055117 -0.123204,0.1069927 -0.06484,0.048633 -0.152384,0.113477 -0.246407,0.1783211 -0.470119,0.3015248 -0.223712,0.1199615 -0.434455,0.1977744 -0.210743,0.074571 -0.418244,0.1069926 -0.204259,0.032422 -0.41176,0.032422 -0.217227,0 -0.389064,-0.081055 -0.171837,-0.084297 -0.291798,-0.2269542 -0.116719,-0.1426568 -0.178321,-0.3307046 -0.0616,-0.1912899 -0.0616,-0.402033 v -0.016211 q 0,-0.2139854 0.05512,-0.4539083 0.05512,-0.2431652 0.152384,-0.4863303 0.100508,-0.2431652 0.239923,-0.4766038 0.139415,-0.2366807 0.308009,-0.4409394 0.06809,-0.081055 0.16211,-0.1718368 0.09727,-0.094024 0.204259,-0.1718367 0.110235,-0.0778128 0.226954,-0.12644585 0.119961,-0.0518752 0.233439,-0.0518752 0.07781,0 0.149141,0.048633 0.07133,0.0453908 0.13293,0.11996145 0.0616,0.074571 0.113477,0.1685945 0.05187,0.090782 0.08754,0.1880478 0.03566,0.094024 0.05512,0.1815633 0.01945,0.087539 0.01945,0.1491413 0,0.094024 -0.05836,0.2431651 -0.05836,0.1491413 -0.139415,0.1491413 -0.116719,0 -0.194532,-0.1588679 -0.02918,-0.061602 -0.05188,-0.1426569 -0.01945,-0.081055 -0.04863,-0.1588679 -0.02594,-0.077813 -0.07133,-0.1426569 -0.04539,-0.068086 -0.126446,-0.1005082 -0.08106,0.019453 -0.165352,0.084297 -0.08106,0.064844 -0.16211,0.1588679 -0.07781,0.094024 -0.155626,0.2139854 -0.07457,0.1167192 -0.142657,0.2431651 -0.06484,0.1167193 -0.126446,0.2691028 -0.0616,0.1491413 -0.110234,0.3112514 -0.04863,0.1588679 -0.07781,0.3177358 -0.02918,0.1588679 -0.02918,0.2917982 0,0.094024 0.04539,0.1912899 0.04539,0.094024 0.116719,0.1718367 0.07457,0.077813 0.165352,0.1264459 0.09402,0.048633 0.19129,0.048633 0.479846,0 0.953208,-0.1977743 0.473361,-0.1977743 0.901332,-0.5738698 0.236681,-0.2075009 0.392306,-0.2075009 0.04539,0 0.04539,0.087539 z"
     id="path5686" /></g><g
   aria-label="в"
   transform="scale(1.3874609,0.72074103)"
   id="text19318"
   style="font-size:6.36068px;line-height:1.25;font-family:'Segoe Script';-inkscape-font-specification:'Segoe Script';fill:#161616;stroke-width:0.159019"
   inkscape:transform-center-x="-0.32470419"
   inkscape:transform-center-y="5.8306779"><path
     d="m 20.803914,18.23298 q 0,-0.03727 -0.01553,-0.07454 -0.01242,-0.04038 -0.04038,-0.07143 -0.02485,-0.03416 -0.06833,-0.0559 -0.04038,-0.02174 -0.09628,-0.02174 -0.108703,0 -0.226724,0.07765 -0.114914,0.07765 -0.232935,0.214301 -0.114914,0.133549 -0.223617,0.319897 -0.108703,0.183242 -0.201877,0.397543 -0.09317,0.2143 -0.167714,0.450341 -0.07143,0.232935 -0.114914,0.468976 0.02795,-0.01864 0.08386,-0.05901 0.05591,-0.04348 0.124232,-0.09628 0.07143,-0.0559 0.149079,-0.118021 0.08075,-0.06522 0.152184,-0.127338 0.07454,-0.06212 0.136655,-0.11802 0.06212,-0.0559 0.09939,-0.09628 0.344744,-0.372696 0.493822,-0.646006 0.149079,-0.273311 0.149079,-0.44413 z m -0.09628,3.348053 q -0.09628,0.142867 -0.232935,0.279522 -0.13355,0.13355 -0.295051,0.236041 -0.161502,0.102492 -0.344744,0.161502 -0.180137,0.05901 -0.366485,0.04348 -0.130443,-0.0093 -0.248464,-0.08386 -0.11802,-0.07765 -0.208088,-0.217406 -0.09007,-0.142867 -0.142867,-0.34785 -0.0528,-0.204983 -0.0528,-0.472082 0,-0.170819 0.01863,-0.36959 0.01863,-0.201877 0.04969,-0.40686 0.03106,-0.204983 0.06833,-0.400648 0.04038,-0.195666 0.07765,-0.360273 0.04969,-0.223618 0.130444,-0.441024 0.08075,-0.220512 0.180136,-0.422389 0.09939,-0.204983 0.214301,-0.385119 0.114914,-0.180137 0.236041,-0.326109 0.167713,-0.195666 0.382013,-0.313686 0.217406,-0.118021 0.509351,-0.118021 0.121127,0 0.220512,0.04969 0.09939,0.04969 0.170819,0.130444 0.07143,0.07765 0.108703,0.17703 0.04038,0.09939 0.04038,0.195666 0,0.133549 -0.0559,0.298157 -0.0528,0.161501 -0.15529,0.338532 -0.102491,0.177031 -0.248464,0.357167 -0.145972,0.180137 -0.33232,0.34785 0.04348,0.0031 0.09938,0.01553 0.05901,0.0093 0.121126,0.03727 0.06522,0.02795 0.130444,0.07454 0.06833,0.04659 0.130444,0.11802 0.02795,0.03416 0.06212,0.09317 0.03416,0.0559 0.06212,0.139761 0.03106,0.08075 0.04969,0.186348 0.02174,0.105597 0.02174,0.232935 0,0.248464 -0.09007,0.537304 -0.08696,0.285734 -0.31058,0.614948 z m -0.08696,-1.142934 q 0,-0.170819 -0.04969,-0.285734 -0.04969,-0.11802 -0.118021,-0.186348 -0.06833,-0.07143 -0.139761,-0.09939 -0.07143,-0.03106 -0.114915,-0.03106 -0.04037,0 -0.127337,0.06212 -0.08696,0.06212 -0.186348,0.136656 -0.07454,0.06522 -0.149079,0.121126 -0.07454,0.0559 -0.139761,0.108703 -0.06212,0.0528 -0.114915,0.105597 -0.0528,0.0528 -0.08696,0.111809 -0.08696,0.158396 -0.102491,0.360273 -0.01553,0.201877 -0.01553,0.413071 0,0.139761 0.02795,0.25157 0.03106,0.108703 0.07454,0.186348 0.04659,0.07765 0.09939,0.121126 0.0528,0.04038 0.09628,0.04038 0.105598,0 0.239147,-0.04348 0.13355,-0.04348 0.273311,-0.170819 0.121126,-0.111809 0.217406,-0.25157 0.09939,-0.139761 0.167713,-0.295051 0.07143,-0.15529 0.108703,-0.323004 0.04038,-0.167713 0.04038,-0.33232 z"
     id="path5707" /></g><g
   aria-label="ю"
   transform="scale(0.88512644,1.1297821)"
   id="text11307"
   style="font-size:5.30353px;line-height:1.25;font-family:'Segoe Script';-inkscape-font-specification:'Segoe Script';fill:#151515;stroke-width:0.132587"
   inkscape:transform-center-x="1.8671129"
   inkscape:transform-center-y="-0.16659417"><path
     d="m 15.079569,24.950741 q 0,-0.01036 -0.01295,-0.01813 -0.01036,-0.01036 -0.0259,-0.0259 -0.01554,-0.01554 -0.02849,-0.04143 -0.01036,-0.0259 -0.01036,-0.07251 0,-0.04143 0.02331,-0.0751 0.02331,-0.03366 0.0492,-0.06215 0.02849,-0.02848 0.05179,-0.05179 0.0259,-0.02331 0.03107,-0.04402 0.04402,-0.248603 0.0751,-0.46872 0.03108,-0.220118 0.03885,-0.367726 0.0026,-0.04402 0,-0.09064 0,-0.04661 -0.0026,-0.09323 -0.0026,-0.03366 -0.0052,-0.06474 0,-0.03108 0,-0.05956 0,-0.03107 0.02331,-0.06992 0.02331,-0.03884 0.05697,-0.07251 0.03625,-0.03366 0.07769,-0.05438 0.04402,-0.02331 0.08546,-0.02331 0.03626,0 0.07251,0.02072 0.03625,0.01813 0.06474,0.05438 0.02849,0.03367 0.04661,0.08546 0.01813,0.0492 0.01813,0.111353 0,0.04661 -0.0078,0.113943 -0.0078,0.06733 -0.02072,0.147609 -0.01295,0.08028 -0.03108,0.168324 -0.01554,0.08805 -0.03107,0.176094 -0.02072,0.121712 -0.04143,0.233066 -0.01813,0.111353 -0.02849,0.191631 0.01036,0.02331 0.01813,0.04143 0.01036,0.01554 0.0259,0.0259 0.01554,0.01036 0.03884,0.01554 0.0259,0.0052 0.06733,0.0052 0.111353,0 0.235655,-0.02331 0.124301,-0.02331 0.235655,-0.05956 0.111353,-0.03625 0.1994,-0.0751 0.09064,-0.04143 0.13466,-0.07769 0.02849,-0.02331 0.06215,-0.06215 0.03625,-0.03884 0.07251,-0.08287 0.03626,-0.04661 0.06992,-0.09064 0.03626,-0.04661 0.06215,-0.08028 0.08805,-0.111353 0.199401,-0.217528 0.111353,-0.106174 0.246013,-0.186452 0.13466,-0.08028 0.290037,-0.129481 0.157966,-0.0492 0.341829,-0.0492 0.139839,0 0.274499,0.06992 0.13466,0.06733 0.238244,0.183863 0.106175,0.116533 0.168325,0.26932 0.06474,0.150198 0.06474,0.315933 0,0.165735 -0.03366,0.302985 -0.03108,0.13466 -0.100995,0.287447 -0.03884,0.08028 -0.13466,0.191631 -0.09582,0.111354 -0.230476,0.230476 -0.13207,0.119122 -0.290037,0.235655 -0.157966,0.116533 -0.321112,0.209759 -0.163146,0.09323 -0.321112,0.150197 -0.155377,0.05697 -0.282268,0.05697 -0.170915,0 -0.292626,-0.05697 -0.121712,-0.05956 -0.199401,-0.152787 -0.07769,-0.09582 -0.113943,-0.217528 -0.03625,-0.121711 -0.03625,-0.246013 0,-0.100995 0.02848,-0.243424 0.03108,-0.145018 0.103585,-0.292626 -0.0984,0.06215 -0.220117,0.0984 -0.119122,0.03625 -0.220117,0.06474 -0.04402,0.01295 -0.09841,0.02331 -0.05438,0.0078 -0.108764,0.01554 -0.05179,0.0078 -0.100995,0.01554 -0.04661,0.0078 -0.08028,0.01295 -0.05179,0.01036 -0.07251,0.04143 -0.01813,0.02849 -0.02849,0.0751 -0.01036,0.04402 -0.03107,0.116533 -0.02072,0.07251 -0.04143,0.150198 -0.02331,0.08287 -0.0492,0.170914 -0.0259,0.08805 -0.04661,0.168325 -0.01813,0.07769 -0.03366,0.145018 -0.01295,0.06474 -0.01295,0.100995 0,0.03366 -0.02848,0.07251 -0.0259,0.03884 -0.06215,0.07251 -0.03366,0.03625 -0.06992,0.05956 -0.03366,0.02331 -0.05179,0.02331 -0.03884,0 -0.0751,-0.0259 -0.03366,-0.0259 -0.05956,-0.05956 -0.0259,-0.03367 -0.04143,-0.06733 -0.01554,-0.03625 -0.01554,-0.05438 0,-0.02331 0.01813,-0.08287 0.02072,-0.05956 0.04143,-0.121712 0.01295,-0.03884 0.03366,-0.106174 0.02072,-0.06733 0.04143,-0.147608 0.02331,-0.08287 0.04402,-0.170915 0.02331,-0.08805 0.04143,-0.165735 0.01813,-0.07769 0.02849,-0.13466 0.01036,-0.05956 0.01036,-0.08546 z m 3.120485,-0.585252 q 0,-0.258962 -0.150197,-0.40398 -0.147608,-0.147608 -0.424697,-0.147608 -0.03884,0 -0.09582,0.03107 -0.05697,0.03108 -0.124301,0.08028 -0.06474,0.04661 -0.132071,0.103585 -0.06474,0.05697 -0.124301,0.111353 -0.05697,0.05438 -0.0984,0.09841 -0.04143,0.04402 -0.05697,0.06215 -0.05438,0.06474 -0.113943,0.178684 -0.05697,0.111353 -0.106174,0.240834 -0.0492,0.129481 -0.08287,0.261551 -0.03107,0.129481 -0.03107,0.227886 0,0.05956 0.01554,0.121712 0.01813,0.06215 0.05179,0.113943 0.03625,0.0492 0.09064,0.08287 0.05438,0.03108 0.126891,0.03108 0.08028,0 0.20458,-0.04661 0.124301,-0.04661 0.261551,-0.129481 0.139839,-0.08287 0.279678,-0.196811 0.142429,-0.113943 0.253783,-0.246013 0.113943,-0.13207 0.183862,-0.277089 0.07251,-0.147608 0.07251,-0.297805 z"
     id="path5728" /></g><g
   aria-label="з"
   transform="scale(1.3722284,0.72874166)"
   id="text16794"
   style="font-size:6.10821px;line-height:1.25;font-family:'Segoe Script';-inkscape-font-specification:'Segoe Script';fill:#131313;stroke-width:0.152705"><path
     d="m 1.1969705,21.220801 q 0.029825,0 0.04772,0.02088 0.020878,0.02088 0.032808,0.0507 0.01193,0.03281 0.014913,0.07158 0.00596,0.03877 0.00596,0.07456 0,0.0686 0.02386,0.149126 0.026843,0.08053 0.083511,0.149126 0.059651,0.0686 0.1521087,0.113336 0.092458,0.04772 0.2266719,0.04772 0.181934,0 0.3757981,-0.09544 0.1938641,-0.09544 0.3549204,-0.265445 0.1610563,-0.170004 0.2624621,-0.405623 0.1043884,-0.232637 0.1043884,-0.510012 0,-0.256497 -0.053685,-0.435448 -0.053685,-0.178952 -0.1401787,-0.289305 -0.083511,-0.113336 -0.1938641,-0.164039 -0.1103534,-0.0507 -0.2207068,-0.0507 -0.041755,0 -0.092458,0.02088 -0.050703,0.01789 -0.1043883,0.04772 -0.050703,0.02684 -0.1043884,0.05965 -0.050703,0.03281 -0.092458,0.05965 -0.071581,0.04772 -0.1371962,0.08053 -0.062633,0.03281 -0.1670213,0.03281 -0.080528,0 -0.1401787,-0.05965 -0.056668,-0.06263 -0.056668,-0.164039 0,-0.07755 0.053685,-0.131231 0.056668,-0.05369 0.1729864,-0.101406 0.2475496,-0.101406 0.4414136,-0.205794 0.1968467,-0.107371 0.3310603,-0.229655 0.1342136,-0.125266 0.2057941,-0.274392 0.071581,-0.149126 0.071581,-0.340008 0,-0.07456 -0.02386,-0.146144 -0.020878,-0.07456 -0.065616,-0.131231 -0.044738,-0.05965 -0.1103534,-0.09544 -0.062633,-0.03877 -0.1461437,-0.03877 -0.1789515,0 -0.3400078,0.110353 -0.1610563,0.110354 -0.3161476,0.27141 -0.068598,0.07158 -0.1133359,0.104388 -0.044738,0.02983 -0.095441,0.02983 -0.041755,0 -0.074563,-0.02088 -0.029825,-0.02386 -0.050703,-0.05369 -0.017895,-0.03281 -0.029825,-0.0686 -0.00895,-0.03877 -0.00895,-0.06562 0,-0.07158 0.038773,-0.134214 0.041755,-0.06561 0.1103534,-0.122283 0.1491262,-0.125266 0.2922874,-0.205794 0.1431612,-0.08053 0.2356194,-0.119301 0.1043884,-0.04176 0.2147418,-0.08053 0.1133359,-0.03877 0.2117592,-0.03877 0.1401787,0 0.2684272,0.0507 0.1282486,0.04772 0.2236893,0.143162 0.098423,0.09246 0.1550913,0.229654 0.059651,0.137196 0.059651,0.310183 0,0.250532 -0.1222835,0.498081 -0.119301,0.24755 -0.4086058,0.480187 0.1998291,0.0089 0.3489553,0.101405 0.1491262,0.09246 0.2475495,0.244567 0.1014059,0.152109 0.1491263,0.351938 0.050703,0.196847 0.050703,0.417554 0,0.220707 -0.059651,0.438431 -0.059651,0.217724 -0.1700039,0.417553 -0.1073709,0.199829 -0.2594796,0.369833 -0.1491263,0.170004 -0.3310602,0.29527 -0.1789515,0.125266 -0.3847457,0.196847 -0.2028117,0.07158 -0.4175534,0.07158 -0.2057942,0 -0.357903,-0.0686 -0.1521087,-0.06562 -0.2535145,-0.167021 -0.098423,-0.101406 -0.14912626,-0.217724 -0.0507029,-0.116319 -0.0507029,-0.214742 0,-0.07456 0.0268427,-0.161056 0.0298253,-0.08649 0.0656156,-0.137196 0.02386,-0.03281 0.068598,-0.0686 0.044738,-0.03281 0.113336,-0.03281 z"
     id="path5665" /></g></svg>
