<?xml version="1.0" encoding="UTF-8" standalone="no"?>
<!-- Generator: Adobe Illustrator 22.0.1, SVG Export Plug-In . SVG Version: 6.00 Build 0)  -->

<svg
   version="1.1"
   id="Layer_1"
   x="0px"
   y="0px"
   viewBox="0 0 30 30"
   xml:space="preserve"
   sodipodi:docname="southWind.svg"
   width="30"
   height="30"
   inkscape:version="1.1.1 (3bf5ae0d25, 2021-09-20)"
   xmlns:inkscape="http://www.inkscape.org/namespaces/inkscape"
   xmlns:sodipodi="http://sodipodi.sourceforge.net/DTD/sodipodi-0.dtd"
   xmlns="http://www.w3.org/2000/svg"
   xmlns:svg="http://www.w3.org/2000/svg"><defs
   id="defs7" /><sodipodi:namedview
   id="namedview5"
   pagecolor="#ffffff"
   bordercolor="#666666"
   borderopacity="1.0"
   inkscape:pageshadow="2"
   inkscape:pageopacity="0.0"
   inkscape:pagecheckerboard="0"
   showgrid="false"
   inkscape:zoom="7.1833332"
   inkscape:cx="34.941996"
   inkscape:cy="40.580047"
   inkscape:window-width="2400"
   inkscape:window-height="1321"
   inkscape:window-x="2391"
   inkscape:window-y="-9"
   inkscape:window-maximized="1"
   inkscape:current-layer="Layer_1"
   width="140px" />
<path
   d="m 25.933926,15.49824 c -0.06421,1.881617 -0.606261,3.609576 -1.616394,5.174956 -1.010135,1.565379 -2.349577,2.787905 -4.018335,3.66758 -1.668757,0.879674 -3.463396,1.28444 -5.384236,1.22353 C 13.476702,25.518699 12.104653,25.19818 10.807966,24.612282 9.5112848,24.026379 8.4107644,23.24356 7.4865503,22.290895 6.5623389,21.338221 5.8431257,20.207383 5.3289075,18.89838 4.8146952,17.589369 4.57646,16.242947 4.6249254,14.822508 4.6727595,13.42052 5.0025781,12.082876 5.6045979,10.818496 6.2066145,9.5541198 7.0108209,8.4715889 7.9885185,7.5792336 8.9662108,6.6868776 10.126864,5.985001 11.460686,5.4825133 12.794509,4.9800293 14.175976,4.746832 15.6237,4.7927408 c 1.447727,0.045904 2.829236,0.3667248 4.125923,0.9526265 1.296682,0.5859034 2.40666,1.3690188 3.330881,2.3216839 0.924216,0.9526683 1.63397,2.0832058 2.158269,3.3740688 0.524308,1.290862 0.743304,2.645908 0.695153,4.05712 z m -2.346642,-0.07441 c 0.07459,-2.186 -0.674336,-4.111868 -2.25623,-5.7779098 C 19.74853,7.9983286 17.826369,7.1432857 15.545966,7.0709723 14.05093,7.023563 12.647706,7.3391754 11.3549,8.0276303 10.062094,8.7160884 9.0068143,9.6613821 8.216809,10.882867 c -0.790007,1.22148 -1.2144454,2.556125 -1.2641744,4.013458 -0.049723,1.457328 0.2825099,2.825201 0.9875368,4.094095 0.7050301,1.268892 1.683819,2.287925 2.9363616,3.057099 1.252545,0.769172 2.621757,1.172702 4.116795,1.220108 1.495036,0.04741 2.89826,-0.268205 4.191068,-0.956659 1.292801,-0.688456 2.348402,-1.642978 3.147867,-2.864161 0.799465,-1.221184 1.205296,-2.56565 1.255021,-4.022981 z M 19.144352,9.8812869 15.183414,21.860918 c -0.01261,0.09193 -0.0615,0.136551 -0.146664,0.133842 -0.08516,-0.0027 -0.130898,-0.05032 -0.137216,-0.142846 L 11.773254,9.6475437 c -0.03439,-0.1026623 -0.02241,-0.1761519 0.02679,-0.2299911 0.04921,-0.05383 0.124897,-0.051441 0.227095,0.0072 l 3.242488,1.3031924 c 0.09337,0.0399 0.187987,0.0429 0.274406,0.0087 l 3.352702,-1.0940537 c 0.09651,-0.052337 0.162744,-0.050234 0.198707,0.0063 0.03595,0.056546 0.07098,0.1407536 0.04891,0.2323902 z"
   id="path2"
   style="fill:#2c4f54;fill-opacity:0.5;stroke:#2e3332;stroke-width:0.0576271;stroke-miterlimit:4;stroke-dasharray:none;stroke-opacity:0.9" />
<path
   style="fill:#1f4347;fill-opacity:0.81;stroke:#e4e7e7;stroke-width:0.0576271;stroke-miterlimit:4;stroke-dasharray:none;stroke-opacity:0.9"
   d="m 16.377939,7.462401 c 0.400619,0.050052 0.840095,0.1345249 1.217692,0.2340532 2.123229,0.5596728 4.073609,2.1969061 5.037509,4.2287068 0.518847,1.093681 0.713615,2.05281 0.675155,3.324798 -0.03943,1.305588 -0.304065,2.292764 -0.907653,3.386455 -0.406825,0.737152 -0.860018,1.319699 -1.502516,1.931361 -1.275076,1.213879 -2.750134,1.941786 -4.491936,2.216677 -0.362734,0.05725 -0.51287,0.06333 -1.3003,0.05267 -0.955793,-0.01295 -1.224686,-0.04322 -1.914061,-0.215435 C 12.150667,22.361562 11.005571,21.79003 10.131893,21.094422 9.775522,20.810688 9.1195569,20.13426 8.8415285,19.7638 8.1686371,18.867225 7.6963218,17.868717 7.4781142,16.881425 7.3171939,16.153374 7.2954228,15.895221 7.3212899,15.02208 7.3395569,14.406138 7.3601959,14.145551 7.4119512,13.878715 7.7262457,12.25818 8.5624723,10.769087 9.8015251,9.6235426 11.070514,8.4503292 12.67096,7.6981172 14.368135,7.4772344 c 0.391234,-0.050915 1.646786,-0.060189 2.009808,-0.014841 z m 0.808306,2.861517 c -0.904678,0.309045 -1.678089,0.569295 -1.718687,0.578332 -0.05011,0.01117 -0.613925,-0.188752 -1.755689,-0.622501 -0.968165,-0.3677959 -1.706058,-0.6319296 -1.738867,-0.6224352 -0.06799,0.019689 -0.107071,0.1353343 -0.08482,0.251034 0.0088,0.045932 0.710638,2.7041122 1.559559,5.9070702 1.487601,5.612685 1.546481,5.824655 1.626042,5.853852 0.06149,0.02255 0.09442,0.01914 0.12906,-0.0135 0.05733,-0.05396 3.824885,-11.550459 3.828805,-11.6833377 0.0035,-0.1200577 -0.0779,-0.2434498 -0.14818,-0.2245079 -0.0288,0.0078 -0.792548,0.2669596 -1.697227,0.5760046 z"
   id="path861" /><rect
   style="fill:#c7485e;fill-opacity:1;stroke:#3c4343;stroke-width:0.247439;stroke-opacity:0.9"
   id="rect2803"
   width="2.7642994"
   height="0.031293739"
   x="-16.761343"
   y="-17.204298"
   transform="matrix(-0.99999894,0.00145344,0.00999878,-0.99995001,0,0)"
   inkscape:transform-center-x="-1.5035867"
   inkscape:transform-center-y="-1.5624153" /><path
   style="fill:#cd425c;fill-opacity:1;stroke:#e27364;stroke-width:0.0196624;stroke-opacity:0.9"
   d="m 16.49574,17.469804 c -0.01549,0.04633 -0.336948,1.048091 -0.714327,2.226155 -0.377376,1.178063 -0.701724,2.169322 -0.72077,2.202793 -0.02998,0.05266 -1.097508,-4.336186 -1.091275,-4.486443 0.0016,-0.04105 0.342559,-0.05206 1.278437,-0.04134 1.193321,0.01367 1.27429,0.02011 1.247934,0.09882 z"
   id="path3397"
   inkscape:transform-center-x="-1.37011"
   inkscape:transform-center-y="0.83009686" /><text
   xml:space="preserve"
   style="font-size:4.98902px;line-height:1.25;font-family:'Segoe Script';-inkscape-font-specification:'Segoe Script';fill:#16272a;fill-opacity:0.799714;stroke-width:0.124726"
   x="3.647902"
   y="18.530085"
   id="text17884"
   transform="scale(1.3088264,0.76404327)"><tspan
     sodipodi:role="line"
     id="tspan17882"
     x="3.647902"
     y="18.530085"
     style="stroke-width:0.124726">_</tspan></text><text
   xml:space="preserve"
   style="font-size:5.33667px;line-height:1.25;font-family:'Segoe Script';-inkscape-font-specification:'Segoe Script';fill:#16272a;fill-opacity:0.799714;stroke-width:0.133415"
   x="16.102255"
   y="19.686363"
   id="text17884-6"
   transform="scale(1.400012,0.71427958)"><tspan
     sodipodi:role="line"
     id="tspan17882-2"
     x="16.102255"
     y="19.686363"
     style="stroke-width:0.133415">_</tspan></text><text
   xml:space="preserve"
   style="font-size:4.56087px;line-height:1.25;font-family:'Segoe Script';-inkscape-font-specification:'Segoe Script';fill:#16272a;fill-opacity:0.799714;stroke-width:0.114021"
   x="-19.692781"
   y="18.974272"
   id="text17884-0"
   transform="matrix(-0.01870499,-1.3376578,0.74683122,-0.05321667,0,0)"><tspan
     sodipodi:role="line"
     id="tspan17882-4"
     x="-19.692781"
     y="18.974272"
     style="stroke-width:0.114021">_</tspan></text><text
   xml:space="preserve"
   style="font-size:5.06215px;line-height:1.25;font-family:'Segoe Script';-inkscape-font-specification:'Segoe Script';fill:#16272a;fill-opacity:0.799714;stroke-width:0.126553"
   x="-5.9497142"
   y="19.239639"
   id="text17884-9"
   transform="matrix(5.316367e-4,-1.2858757,0.77767957,0.00139631,0,0)"><tspan
     sodipodi:role="line"
     id="tspan17882-7"
     x="-5.9497142"
     y="19.239639"
     style="stroke-width:0.126553">_</tspan></text><text
   xml:space="preserve"
   style="font-size:6.72783px;line-height:1.25;font-family:'Segoe Script';-inkscape-font-specification:'Segoe Script';fill:#0e0e0e;fill-opacity:1;stroke-width:0.168194"
   x="13.392626"
   y="4.4030809"
   id="text9344"
   transform="scale(1.0068413,0.99320522)"><tspan
     sodipodi:role="line"
     id="tspan9342"
     x="13.392626"
     y="4.4030809"
     style="fill:#0e0e0e;fill-opacity:1;stroke-width:0.168194">c</tspan></text><text
   xml:space="preserve"
   style="font-size:6.44486px;line-height:1.25;font-family:'Segoe Script';-inkscape-font-specification:'Segoe Script';fill:#161616;fill-opacity:1;stroke-width:0.161122"
   x="18.251638"
   y="22.326836"
   id="text19318"
   transform="scale(1.4046703,0.71191083)"><tspan
     sodipodi:role="line"
     id="tspan19316"
     x="18.251638"
     y="22.326836"
     style="fill:#161616;fill-opacity:1;stroke-width:0.161122">в</tspan></text><text
   xml:space="preserve"
   style="font-size:5.37367px;line-height:1.25;font-family:'Segoe Script';-inkscape-font-specification:'Segoe Script';fill:#151515;fill-opacity:1;stroke-width:0.13434"
   x="13.989619"
   y="26.237116"
   id="text11307"
   transform="scale(0.89610511,1.1159405)"><tspan
     sodipodi:role="line"
     id="tspan11305"
     x="13.989619"
     y="26.237116"
     style="fill:#151515;fill-opacity:1;stroke-width:0.13434">ю</tspan></text><text
   xml:space="preserve"
   style="font-size:6.18896px;line-height:1.25;font-family:'Segoe Script';-inkscape-font-specification:'Segoe Script';fill:#131313;fill-opacity:1;stroke-width:0.154725"
   x="0.32582709"
   y="21.412392"
   id="text16794"
   transform="scale(1.3892488,0.71981346)"><tspan
     sodipodi:role="line"
     id="tspan16792"
     x="0.32582709"
     y="21.412392"
     style="fill:#131313;fill-opacity:1;stroke-width:0.154725">з</tspan></text></svg>
