<?xml version="1.0" encoding="UTF-8" standalone="no"?>
<!-- Generator: Adobe Illustrator 22.0.1, SVG Export Plug-In . SVG Version: 6.00 Build 0)  -->

<svg
   version="1.1"
   id="Layer_1"
   x="0px"
   y="0px"
   viewBox="0 0 30 30"
   xml:space="preserve"
   sodipodi:docname="southEastWind.svg"
   width="30"
   height="30"
   inkscape:version="1.1.1 (3bf5ae0d25, 2021-09-20)"
   xmlns:inkscape="http://www.inkscape.org/namespaces/inkscape"
   xmlns:sodipodi="http://sodipodi.sourceforge.net/DTD/sodipodi-0.dtd"
   xmlns="http://www.w3.org/2000/svg"
   xmlns:svg="http://www.w3.org/2000/svg"><defs
   id="defs7" /><sodipodi:namedview
   id="namedview5"
   pagecolor="#ffffff"
   bordercolor="#666666"
   borderopacity="1.0"
   inkscape:pageshadow="2"
   inkscape:pageopacity="0.0"
   inkscape:pagecheckerboard="0"
   showgrid="false"
   inkscape:zoom="5.0793836"
   inkscape:cx="-12.599954"
   inkscape:cy="25.888968"
   inkscape:window-width="2400"
   inkscape:window-height="1321"
   inkscape:window-x="2391"
   inkscape:window-y="-9"
   inkscape:window-maximized="1"
   inkscape:current-layer="Layer_1"
   width="140px" />
<path
   d="m 21.711327,7.12937 c 1.444268,1.2099447 2.490313,2.6967272 3.136785,4.447248 0.646468,1.750524 0.831932,3.545742 0.556388,5.385662 -0.275544,1.83992 -0.998047,3.484941 -2.160426,4.941004 -0.870349,1.09025 -1.918739,1.959535 -3.132356,2.60661 -1.213619,0.647069 -2.468474,1.020207 -3.754772,1.151542 -1.286304,0.131327 -2.593951,-0.0066 -3.922947,-0.413741 -1.329,-0.407164 -2.5273406,-1.051986 -3.6176248,-1.965374 C 7.7402519,22.380798 6.8783927,21.299676 6.2321412,20.052064 5.5858922,18.804456 5.2001263,17.511737 5.0647517,16.201356 4.9293737,14.890979 5.0501219,13.555766 5.4283279,12.208823 5.8065389,10.86188 6.4244177,9.6439083 7.3004953,8.5464836 8.1765707,7.449054 9.2306868,6.5726008 10.444308,5.9255272 c 1.21362,-0.6470697 2.474195,-1.0273786 3.760496,-1.158718 1.286301,-0.1313349 2.588224,0.01375 3.908788,0.4018809 1.320567,0.3881241 2.514536,1.0532249 3.597735,1.9606799 z M 20.29128,8.908205 C 18.61338,7.5025376 16.662517,6.8975885 14.432964,7.1005284 12.217573,7.3153301 10.429159,8.2828374 9.0491926,10.011461 8.1444829,11.144748 7.5788734,12.43045 7.3708862,13.860148 c -0.2079846,1.429701 -0.075939,2.833044 0.427473,4.200387 0.5034087,1.367341 1.3080105,2.520188 2.4266108,3.457304 1.118599,0.937107 2.388363,1.522064 3.796482,1.756122 1.40812,0.234052 2.778335,0.101198 4.110646,-0.398562 1.33231,-0.499763 2.444414,-1.315665 3.349122,-2.448957 0.904709,-1.133288 1.470318,-2.41899 1.678306,-3.84869 0.207983,-1.429697 0.06886,-2.838977 -0.428829,-4.21349 C 22.23301,10.989749 21.409879,9.8453174 20.29128,8.908205 Z m -6.941662,0.037771 7.134292,10.46542 c 0.06507,0.06648 0.07184,0.132003 0.02029,0.196558 -0.05155,0.06454 -0.115565,0.07076 -0.192082,0.01863 L 8.8890647,14.533522 c -0.1007873,-0.03655 -0.1516975,-0.09117 -0.1655448,-0.162621 -0.013837,-0.07145 0.03196,-0.12883 0.1374253,-0.172145 l 2.9072908,-1.717887 c 0.08558,-0.048 0.142841,-0.119729 0.166053,-0.20801 l 1.083729,-3.2814942 c 0.01479,-0.1073094 0.05487,-0.1575164 0.120249,-0.1506231 0.06538,0.0069 0.152004,0.031585 0.211352,0.1052385 z"
   id="path2"
   style="fill:#2c4f54;fill-opacity:0.5;stroke:#2e3332;stroke-width:0.0567541;stroke-miterlimit:4;stroke-dasharray:none;stroke-opacity:0.9" />
<path
   style="fill:#2d6166;fill-opacity:0.81;stroke:#e4e7e7;stroke-width:0.0567541;stroke-miterlimit:4;stroke-dasharray:none;stroke-opacity:0.9"
   d="M 9.9157603,9.6021549 C 10.189842,9.3237981 10.513642,9.036868 10.812936,8.8071296 c 1.682944,-1.291802 4.107592,-1.7785981 6.26247,-1.2573157 1.159931,0.2806009 2.024549,0.7277626 2.997177,1.5500794 0.998349,0.8440035 1.615515,1.6636087 2.117256,2.8114807 0.338171,0.773674 0.528192,1.486837 0.629984,2.364411 0.202011,1.741599 -0.09346,3.334899 -0.89979,4.852019 -0.167918,0.315945 -0.2512,0.435738 -0.721292,1.037515 -0.570621,0.730428 -0.751972,0.919341 -1.290962,1.344685 -0.814053,0.642383 -1.932698,1.171026 -2.989256,1.412638 -0.430965,0.09856 -1.344849,0.183902 -1.797728,0.167884 -1.096048,-0.03876 -2.154229,-0.296004 -3.054627,-0.742603 -0.663979,-0.329325 -0.87872,-0.473364 -1.546682,-1.037422 C 10.048295,20.912582 9.8565153,20.734262 9.6781014,20.527996 8.5945249,19.275365 7.9198488,17.701358 7.7501788,16.030173 7.5764149,14.318616 7.9264003,12.613288 8.7488114,11.164304 8.9383959,10.830283 9.6674,9.8543859 9.9157566,9.6021469 Z m 2.7127937,1.1585181 c -0.288715,0.891587 -0.538628,1.651341 -0.555365,1.688341 -0.02064,0.04567 -0.507683,0.356744 -1.516573,0.968667 -0.8554911,0.518886 -1.4948479,0.924444 -1.5066569,0.95571 -0.024469,0.06481 0.043094,0.167059 0.1466665,0.22196 0.041125,0.02179 2.5323714,1.135901 5.5361164,2.475796 5.263601,2.34796 5.463969,2.434548 5.533468,2.391268 0.0537,-0.03346 0.07034,-0.06103 0.06511,-0.108139 C 20.32272,19.276346 13.537362,9.2015974 13.435699,9.115769 13.343849,9.03822 13.199549,9.024257 13.173153,9.090366 13.162363,9.11747 12.917267,9.8690873 12.628554,10.760673 Z"
   id="path861" /><rect
   style="fill:#c7485e;fill-opacity:1;stroke:#3c4343;stroke-width:0.237451;stroke-opacity:0.9"
   id="rect2803"
   width="2.6124444"
   height="0.030492879"
   x="1.2682469"
   y="-23.353724"
   transform="matrix(-0.59546262,0.80338302,-0.78551636,-0.61884089,0,0)"
   inkscape:transform-center-x="0.35693005"
   inkscape:transform-center-y="-2.0706435" /><path
   style="fill:#cd425e;fill-opacity:1;stroke:#e27364;stroke-width:0.019096;stroke-opacity:0.9"
   d="m 17.778376,15.708648 c 0.0269,0.03953 0.61625,0.883688 1.309695,1.8759 0.693446,0.99221 1.273036,1.832426 1.287976,1.86714 0.0235,0.05463 -3.974847,-1.702961 -4.087263,-1.796668 -0.03072,-0.02559 0.155779,-0.299298 0.699421,-1.026572 0.693189,-0.927336 0.744473,-0.987002 0.790161,-0.919806 z"
   id="path3397"
   inkscape:transform-center-x="-1.0286652"
   inkscape:transform-center-y="-0.9885306" /><text
   xml:space="preserve"
   style="font-size:5.01979px;line-height:1.25;font-family:'Segoe Script';-inkscape-font-specification:'Segoe Script';fill:#16272a;fill-opacity:0.799714;stroke-width:0.125493"
   x="3.9428711"
   y="18.402548"
   id="text17884"
   transform="scale(1.2971622,0.77091361)"><tspan
     sodipodi:role="line"
     id="tspan17882"
     x="3.9428711"
     y="18.402548"
     style="stroke-width:0.125493">_</tspan></text><text
   xml:space="preserve"
   style="font-size:5.11315px;line-height:1.25;font-family:'Segoe Script';-inkscape-font-specification:'Segoe Script';fill:#16272a;fill-opacity:0.799714;stroke-width:0.127826"
   x="16.802908"
   y="18.615583"
   id="text17884-6"
   transform="scale(1.3212765,0.75684387)"><tspan
     sodipodi:role="line"
     id="tspan17882-2"
     x="16.802908"
     y="18.615583"
     style="stroke-width:0.127826">_</tspan></text><text
   xml:space="preserve"
   style="font-size:4.49176px;line-height:1.25;font-family:'Segoe Script';-inkscape-font-specification:'Segoe Script';fill:#16272a;fill-opacity:0.799714;stroke-width:0.112294"
   x="-19.296347"
   y="19.620905"
   id="text17884-0"
   transform="matrix(-0.01814552,-1.3789014,0.7244931,-0.05485749,0,0)"><tspan
     sodipodi:role="line"
     id="tspan17882-4"
     x="-19.296347"
     y="19.620905"
     style="stroke-width:0.112294">_</tspan></text><text
   xml:space="preserve"
   style="font-size:5.06912px;line-height:1.25;font-family:'Segoe Script';-inkscape-font-specification:'Segoe Script';fill:#16272a;fill-opacity:0.799714;stroke-width:0.126726"
   x="-5.6179152"
   y="20.175657"
   id="text17884-9"
   transform="matrix(5.0722179e-4,-1.3477709,0.74196532,0.00146353,0,0)"><tspan
     sodipodi:role="line"
     id="tspan17882-7"
     x="-5.6179152"
     y="20.175657"
     style="stroke-width:0.126726">_</tspan></text><text
   xml:space="preserve"
   style="font-size:6.64003px;line-height:1.25;font-family:'Segoe Script';-inkscape-font-specification:'Segoe Script';fill:#0e0e0e;fill-opacity:1;stroke-width:0.165998"
   x="13.870367"
   y="4.2570891"
   id="text9344"
   transform="scale(0.99450582,1.0055245)"><tspan
     sodipodi:role="line"
     id="tspan9342"
     x="13.870367"
     y="4.2570891"
     style="fill:#0e0e0e;fill-opacity:1;stroke-width:0.165998">c</tspan></text><text
   xml:space="preserve"
   style="font-size:6.36068px;line-height:1.25;font-family:'Segoe Script';-inkscape-font-specification:'Segoe Script';fill:#161616;fill-opacity:1;stroke-width:0.159019"
   x="18.393812"
   y="22.223934"
   id="text19318"
   transform="scale(1.3874609,0.72074103)"
   inkscape:transform-center-x="-0.32470419"
   inkscape:transform-center-y="5.8306779"><tspan
     sodipodi:role="line"
     id="tspan19316"
     x="18.393812"
     y="22.223934"
     style="fill:#161616;fill-opacity:1;stroke-width:0.159019">в</tspan></text><text
   xml:space="preserve"
   style="font-size:5.30353px;line-height:1.25;font-family:'Segoe Script';-inkscape-font-specification:'Segoe Script';fill:#151515;fill-opacity:1;stroke-width:0.132587"
   x="14.385552"
   y="26.020252"
   id="text11307"
   transform="scale(0.88512644,1.1297821)"
   inkscape:transform-center-x="1.8671129"
   inkscape:transform-center-y="-0.16659417"><tspan
     sodipodi:role="line"
     id="tspan11305"
     x="14.385552"
     y="26.020252"
     style="fill:#151515;fill-opacity:1;stroke-width:0.132587">ю</tspan></text><text
   xml:space="preserve"
   style="font-size:6.10821px;line-height:1.25;font-family:'Segoe Script';-inkscape-font-specification:'Segoe Script';fill:#131313;fill-opacity:1;stroke-width:0.152705"
   x="0.75853938"
   y="20.982199"
   id="text16794"
   transform="scale(1.3722284,0.72874166)"><tspan
     sodipodi:role="line"
     id="tspan16792"
     x="0.75853938"
     y="20.982199"
     style="fill:#131313;fill-opacity:1;stroke-width:0.152705">з</tspan></text></svg>
