<?xml version="1.0" encoding="UTF-8" standalone="no"?>
<!-- Generator: Adobe Illustrator 22.0.1, SVG Export Plug-In . SVG Version: 6.00 Build 0)  -->

<svg
   version="1.1"
   id="Layer_1"
   x="0px"
   y="0px"
   viewBox="0 0 30 30"
   xml:space="preserve"
   sodipodi:docname="southwestWind.svg"
   width="30"
   height="30"
   inkscape:version="1.1.1 (3bf5ae0d25, 2021-09-20)"
   xmlns:inkscape="http://www.inkscape.org/namespaces/inkscape"
   xmlns:sodipodi="http://sodipodi.sourceforge.net/DTD/sodipodi-0.dtd"
   xmlns="http://www.w3.org/2000/svg"
   xmlns:svg="http://www.w3.org/2000/svg"><defs
   id="defs7" /><sodipodi:namedview
   id="namedview5"
   pagecolor="#ffffff"
   bordercolor="#666666"
   borderopacity="1.0"
   inkscape:pageshadow="2"
   inkscape:pageopacity="0.0"
   inkscape:pagecheckerboard="0"
   showgrid="false"
   inkscape:zoom="7.1833332"
   inkscape:cx="24.083527"
   inkscape:cy="36.821346"
   inkscape:window-width="2400"
   inkscape:window-height="1321"
   inkscape:window-x="2391"
   inkscape:window-y="-9"
   inkscape:window-maximized="1"
   inkscape:current-layer="Layer_1"
   width="140px" />
<path
   d="m 22.676377,22.58548 c -1.391265,1.282093 -3.009845,2.139103 -4.842458,2.571232 -1.832618,0.432127 -3.652386,0.404488 -5.459311,-0.08292 C 10.567686,24.586384 9.0116355,23.681154 7.699628,22.36439 6.717242,21.37844 5.9782302,20.242861 5.4822333,18.970434 4.9862448,17.698006 4.7695487,16.41704 4.7987688,15.133425 4.8279948,13.849807 5.1293416,12.576712 5.7027997,11.31414 6.2762677,10.051564 7.0712585,8.9456788 8.1215262,7.9778192 9.1581509,7.0225328 10.34775,6.299553 11.677042,5.8086748 c 1.329286,-0.4908784 2.671184,-0.7196455 3.999483,-0.6994705 1.328296,0.02017 2.649458,0.2957804 3.950202,0.8266028 1.300744,0.5308271 2.442484,1.282831 3.431334,2.2752693 0.988855,0.9924367 1.734327,2.1345016 2.23032,3.4069316 0.49599,1.27243 0.719149,2.559877 0.689933,3.843495 -0.02922,1.283617 -0.337026,2.550226 -0.890392,3.806715 -0.553363,1.256493 -1.368101,2.355692 -2.411545,3.317262 z m -1.602846,-1.608659 c 1.616319,-1.489492 2.465395,-3.341998 2.540766,-5.564002 0.06173,-2.209433 -0.683153,-4.08615 -2.240752,-5.6494017 C 20.35238,8.738544 19.13633,8.0301327 17.731506,7.6574338 16.326679,7.2847354 14.905761,7.250378 13.474488,7.5863875 12.043217,7.9223929 10.788987,8.5805089 9.7114371,9.5735039 8.6338966,10.566499 7.8898953,11.749824 7.4797858,13.110704 c -0.4101053,1.36088 -0.4482861,2.727411 -0.1145434,4.09959 0.3337453,1.37218 1.0113745,2.564317 2.0325443,3.589188 1.0211653,1.024871 2.2372163,1.733282 3.6420423,2.105984 1.404821,0.372696 2.832566,0.40077 4.270299,0.07125 1.437733,-0.329524 2.685856,-1.006895 3.763403,-1.99989 z m 0.829204,-6.848503 -11.364556,5.806893 c -0.07466,0.05636 -0.141077,0.05535 -0.199243,-0.0031 -0.05816,-0.05839 -0.05638,-0.122236 0.0053,-0.191566 L 16.867995,9.0753132 c 0.04916,-0.095085 0.110189,-0.1388746 0.183423,-0.1441498 0.07323,-0.00527 0.124938,0.046617 0.155113,0.1556787 l 1.356096,3.0678459 c 0.03735,0.09001 0.101981,0.154872 0.187431,0.18811 l 3.148668,1.45326 c 0.105546,0.02715 0.150787,0.07256 0.135723,0.136219 -0.01508,0.06365 -0.0506,0.146163 -0.131717,0.19604 z"
   id="path2"
   style="fill:#2c4f54;fill-opacity:0.5;stroke:#2e3332;stroke-width:0.0567921;stroke-miterlimit:4;stroke-dasharray:none;stroke-opacity:0.9" />
<path
   style="fill:#1f4347;fill-opacity:0.81;stroke:#e4e7e7;stroke-width:0.0567921;stroke-miterlimit:4;stroke-dasharray:none;stroke-opacity:0.9"
   d="m 21.651813,10.647414 c 0.242218,0.304439 0.486459,0.658915 0.67674,0.982175 1.069939,1.817701 1.237186,4.266478 0.431972,6.324787 -0.433434,1.10795 -0.994503,1.904378 -1.944934,2.760797 -0.975505,0.879072 -1.876381,1.385657 -3.090291,1.737922 -0.818184,0.237424 -1.556338,0.336391 -2.447265,0.3281 -1.7681,-0.01645 -3.322351,-0.504639 -4.733109,-1.486645 C 10.251131,21.090045 10.142321,20.993182 9.6025345,20.455641 8.9473461,19.803157 8.78235,19.60113 8.4280625,19.017544 7.8929981,18.136138 7.5118049,16.968749 7.4094399,15.898029 7.367684,15.461286 7.4027709,14.550449 7.4784708,14.106293 7.661658,13.031355 8.0583332,12.020752 8.6235546,11.189007 9.0403541,10.575655 9.2126815,10.38193 9.8647236,9.7936916 10.324708,9.3787436 10.528289,9.2118798 10.75805,9.061638 c 1.395336,-0.9124785 3.058141,-1.3823877 4.751569,-1.3427879 1.734335,0.040561 3.393424,0.596308 4.733931,1.5857328 0.309015,0.2280835 1.188778,1.0669651 1.40827,1.3428281 z m -1.515926,2.529087 C 19.282409,12.781786 18.555641,12.4416 18.520849,12.420537 18.477901,12.394549 18.231031,11.876277 17.752101,10.806705 17.345986,9.8997566 17.02471,9.2197465 16.995002,9.2042436 c -0.06158,-0.032117 -0.172728,0.02179 -0.241272,0.1170253 -0.02722,0.037814 -1.469533,2.3541481 -3.205163,5.1474181 -3.041424,4.894771 -3.15441,5.081445 -3.120289,5.155262 0.02638,0.05704 0.05175,0.07684 0.09954,0.07752 0.07905,0.0012 11.047266,-5.436812 11.146487,-5.526345 0.08965,-0.08089 0.122624,-0.221311 0.06,-0.255494 -0.02568,-0.01397 -0.744947,-0.348413 -1.598425,-0.743129 z"
   id="path861" /><rect
   style="fill:#c7485e;fill-opacity:1;stroke:#3c4343;stroke-width:0.243985;stroke-opacity:0.9"
   id="rect2803"
   width="2.6743953"
   height="0.03144883"
   x="-22.972675"
   y="-1.8694985"
   transform="matrix(-0.7105166,-0.70368044,0.73681908,-0.67608996,0,0)"
   inkscape:transform-center-x="-2.1782363"
   inkscape:transform-center-y="-0.047139396" /><path
   style="fill:#cd425c;fill-opacity:1;stroke:#e27364;stroke-width:0.02012;stroke-opacity:0.9"
   d="m 14.654734,17.60709 c -0.04442,0.02301 -0.995154,0.530078 -2.112736,1.126864 -1.117581,0.596785 -2.062873,1.094054 -2.100647,1.105036 -0.05944,0.01727 2.315394,-3.980959 2.427637,-4.087145 0.03065,-0.02902 0.285051,0.207481 0.954155,0.886951 0.853162,0.866382 0.907103,0.929221 0.831598,0.968284 z"
   id="path3397"
   inkscape:transform-center-x="-0.76388003"
   inkscape:transform-center-y="1.0935724" /><text
   xml:space="preserve"
   style="font-size:4.96291px;line-height:1.25;font-family:'Segoe Script';-inkscape-font-specification:'Segoe Script';fill:#16272a;fill-opacity:0.799714;stroke-width:0.124071"
   x="3.7545726"
   y="18.901302"
   id="text17884"
   transform="scale(1.3227153,0.75602059)"><tspan
     sodipodi:role="line"
     id="tspan17882"
     x="3.7545726"
     y="18.901302"
     style="stroke-width:0.124071">_</tspan></text><text
   xml:space="preserve"
   style="font-size:5.2901px;line-height:1.25;font-family:'Segoe Script';-inkscape-font-specification:'Segoe Script';fill:#16272a;fill-opacity:0.799714;stroke-width:0.132252"
   x="15.997803"
   y="20.014019"
   id="text17884-6"
   transform="scale(1.4099282,0.70925599)"><tspan
     sodipodi:role="line"
     id="tspan17882-2"
     x="15.997803"
     y="20.014019"
     style="stroke-width:0.132252">_</tspan></text><text
   xml:space="preserve"
   style="font-size:4.49482px;line-height:1.25;font-family:'Segoe Script';-inkscape-font-specification:'Segoe Script';fill:#16272a;fill-opacity:0.799714;stroke-width:0.11237"
   x="-19.688625"
   y="19.106171"
   id="text17884-0"
   transform="matrix(-0.01872773,-1.3360329,0.74773953,-0.05315201,0,0)"><tspan
     sodipodi:role="line"
     id="tspan17882-4"
     x="-19.688625"
     y="19.106171"
     style="stroke-width:0.11237">_</tspan></text><text
   xml:space="preserve"
   style="font-size:4.9422px;line-height:1.25;font-family:'Segoe Script';-inkscape-font-specification:'Segoe Script';fill:#16272a;fill-opacity:0.799714;stroke-width:0.123554"
   x="-6.1998129"
   y="19.177891"
   id="text17884-9"
   transform="matrix(5.3729854e-4,-1.2723257,0.78596167,0.00138159,0,0)"><tspan
     sodipodi:role="line"
     id="tspan17882-7"
     x="-6.1998129"
     y="19.177891"
     style="stroke-width:0.123554">_</tspan></text><text
   xml:space="preserve"
   style="font-size:6.39844px;line-height:1.25;font-family:'Segoe Script';-inkscape-font-specification:'Segoe Script';fill:#161616;fill-opacity:1;stroke-width:0.159961"
   x="18.409561"
   y="22.391134"
   id="text19318"
   transform="scale(1.395599,0.7165382)"><tspan
     sodipodi:role="line"
     id="tspan19316"
     x="18.409561"
     y="22.391134"
     style="fill:#161616;fill-opacity:1;stroke-width:0.159961">в</tspan></text><text
   xml:space="preserve"
   style="font-size:5.33496px;line-height:1.25;font-family:'Segoe Script';-inkscape-font-specification:'Segoe Script';fill:#151515;fill-opacity:1;stroke-width:0.133372"
   x="14.016308"
   y="26.191734"
   id="text11307"
   transform="scale(0.89031812,1.123194)"><tspan
     sodipodi:role="line"
     id="tspan11305"
     x="14.016308"
     y="26.191734"
     style="fill:#151515;fill-opacity:1;stroke-width:0.133372">ю</tspan></text><text
   xml:space="preserve"
   style="font-size:6.14439px;line-height:1.25;font-family:'Segoe Script';-inkscape-font-specification:'Segoe Script';fill:#131313;fill-opacity:1;stroke-width:0.15361"
   x="0.5319376"
   y="20.423887"
   id="text16794"
   transform="scale(1.3802771,0.7244922)"><tspan
     sodipodi:role="line"
     id="tspan16792"
     x="0.5319376"
     y="20.423887"
     style="fill:#131313;fill-opacity:1;stroke-width:0.15361">з</tspan></text><text
   xml:space="preserve"
   style="font-size:6.67936px;line-height:1.25;font-family:'Segoe Script';-inkscape-font-specification:'Segoe Script';fill:#0e0e0e;fill-opacity:1;stroke-width:0.166982"
   x="13.699903"
   y="4.6505795"
   id="text9344"
   transform="scale(1.0003391,0.999661)"><tspan
     sodipodi:role="line"
     id="tspan9342"
     x="13.699903"
     y="4.6505795"
     style="fill:#0e0e0e;fill-opacity:1;stroke-width:0.166982">c</tspan></text></svg>
