<?xml version="1.0" encoding="UTF-8" standalone="no"?>
<!-- Generator: Adobe Illustrator 22.0.1, SVG Export Plug-In . SVG Version: 6.00 Build 0)  -->

<svg
   version="1.1"
   id="Layer_1"
   x="0px"
   y="0px"
   viewBox="0 0 30 30"
   xml:space="preserve"
   sodipodi:docname="southWind.svg"
   width="30"
   height="30"
   inkscape:version="1.1.1 (3bf5ae0d25, 2021-09-20)"
   xmlns:inkscape="http://www.inkscape.org/namespaces/inkscape"
   xmlns:sodipodi="http://sodipodi.sourceforge.net/DTD/sodipodi-0.dtd"
   xmlns="http://www.w3.org/2000/svg"
   xmlns:svg="http://www.w3.org/2000/svg"><defs
   id="defs7" /><sodipodi:namedview
   id="namedview5"
   pagecolor="#ffffff"
   bordercolor="#666666"
   borderopacity="1.0"
   inkscape:pageshadow="2"
   inkscape:pageopacity="0.0"
   inkscape:pagecheckerboard="0"
   showgrid="false"
   inkscape:zoom="28.733333"
   inkscape:cx="19.385151"
   inkscape:cy="15.191416"
   inkscape:window-width="2400"
   inkscape:window-height="1321"
   inkscape:window-x="2391"
   inkscape:window-y="-9"
   inkscape:window-maximized="1"
   inkscape:current-layer="Layer_1"
   width="140px" />
<path
   d="m 25.933926,15.49824 c -0.06421,1.881617 -0.606261,3.609576 -1.616394,5.174956 -1.010135,1.565379 -2.349577,2.787905 -4.018335,3.66758 -1.668757,0.879674 -3.463396,1.28444 -5.384236,1.22353 C 13.476702,25.518699 12.104653,25.19818 10.807966,24.612282 9.5112848,24.026379 8.4107644,23.24356 7.4865503,22.290895 6.5623389,21.338221 5.8431257,20.207383 5.3289075,18.89838 4.8146952,17.589369 4.57646,16.242947 4.6249254,14.822508 4.6727595,13.42052 5.0025781,12.082876 5.6045979,10.818496 6.2066145,9.5541198 7.0108209,8.4715889 7.9885185,7.5792336 8.9662108,6.6868776 10.126864,5.985001 11.460686,5.4825133 12.794509,4.9800293 14.175976,4.746832 15.6237,4.7927408 c 1.447727,0.045904 2.829236,0.3667248 4.125923,0.9526265 1.296682,0.5859034 2.40666,1.3690188 3.330881,2.3216839 0.924216,0.9526683 1.63397,2.0832058 2.158269,3.3740688 0.524308,1.290862 0.743304,2.645908 0.695153,4.05712 z m -2.346642,-0.07441 c 0.07459,-2.186 -0.674336,-4.111868 -2.25623,-5.7779098 C 19.74853,7.9983286 17.826369,7.1432857 15.545966,7.0709723 14.05093,7.023563 12.647706,7.3391754 11.3549,8.0276303 10.062094,8.7160884 9.0068143,9.6613821 8.216809,10.882867 c -0.790007,1.22148 -1.2144454,2.556125 -1.2641744,4.013458 -0.049723,1.457328 0.2825099,2.825201 0.9875368,4.094095 0.7050301,1.268892 1.683819,2.287925 2.9363616,3.057099 1.252545,0.769172 2.621757,1.172702 4.116795,1.220108 1.495036,0.04741 2.89826,-0.268205 4.191068,-0.956659 1.292801,-0.688456 2.348402,-1.642978 3.147867,-2.864161 0.799465,-1.221184 1.205296,-2.56565 1.255021,-4.022981 z M 19.144352,9.8812869 15.183414,21.860918 c -0.01261,0.09193 -0.0615,0.136551 -0.146664,0.133842 -0.08516,-0.0027 -0.130898,-0.05032 -0.137216,-0.142846 L 11.773254,9.6475437 c -0.03439,-0.1026623 -0.02241,-0.1761519 0.02679,-0.2299911 0.04921,-0.05383 0.124897,-0.051441 0.227095,0.0072 l 3.242488,1.3031924 c 0.09337,0.0399 0.187987,0.0429 0.274406,0.0087 l 3.352702,-1.0940537 c 0.09651,-0.052337 0.162744,-0.050234 0.198707,0.0063 0.03595,0.056546 0.07098,0.1407536 0.04891,0.2323902 z"
   id="path2"
   style="fill:#2c4f54;fill-opacity:0.5;stroke:#2e3332;stroke-width:0.0576271;stroke-miterlimit:4;stroke-dasharray:none;stroke-opacity:0.9" />
<path
   style="fill:#1f4347;fill-opacity:0.81;stroke:#e4e7e7;stroke-width:0.0576271;stroke-miterlimit:4;stroke-dasharray:none;stroke-opacity:0.9"
   d="m 16.377939,7.462401 c 0.400619,0.050052 0.840095,0.1345249 1.217692,0.2340532 2.123229,0.5596728 4.073609,2.1969061 5.037509,4.2287068 0.518847,1.093681 0.713615,2.05281 0.675155,3.324798 -0.03943,1.305588 -0.304065,2.292764 -0.907653,3.386455 -0.406825,0.737152 -0.860018,1.319699 -1.502516,1.931361 -1.275076,1.213879 -2.750134,1.941786 -4.491936,2.216677 -0.362734,0.05725 -0.51287,0.06333 -1.3003,0.05267 -0.955793,-0.01295 -1.224686,-0.04322 -1.914061,-0.215435 C 12.150667,22.361562 11.005571,21.79003 10.131893,21.094422 9.775522,20.810688 9.1195569,20.13426 8.8415285,19.7638 8.1686371,18.867225 7.6963218,17.868717 7.4781142,16.881425 7.3171939,16.153374 7.2954228,15.895221 7.3212899,15.02208 7.3395569,14.406138 7.3601959,14.145551 7.4119512,13.878715 7.7262457,12.25818 8.5624723,10.769087 9.8015251,9.6235426 11.070514,8.4503292 12.67096,7.6981172 14.368135,7.4772344 c 0.391234,-0.050915 1.646786,-0.060189 2.009808,-0.014841 z m 0.808306,2.861517 c -0.904678,0.309045 -1.678089,0.569295 -1.718687,0.578332 -0.05011,0.01117 -0.613925,-0.188752 -1.755689,-0.622501 -0.968165,-0.3677959 -1.706058,-0.6319296 -1.738867,-0.6224352 -0.06799,0.019689 -0.107071,0.1353343 -0.08482,0.251034 0.0088,0.045932 0.710638,2.7041122 1.559559,5.9070702 1.487601,5.612685 1.546481,5.824655 1.626042,5.853852 0.06149,0.02255 0.09442,0.01914 0.12906,-0.0135 0.05733,-0.05396 3.824885,-11.550459 3.828805,-11.6833377 0.0035,-0.1200577 -0.0779,-0.2434498 -0.14818,-0.2245079 -0.0288,0.0078 -0.792548,0.2669596 -1.697227,0.5760046 z"
   id="path861" /><rect
   style="fill:#c7485e;fill-opacity:1;stroke:#3c4343;stroke-width:0.247439;stroke-opacity:0.9"
   id="rect2803"
   width="2.7642994"
   height="0.031293739"
   x="-16.761343"
   y="-17.204298"
   transform="matrix(-0.99999894,0.00145344,0.00999878,-0.99995001,0,0)"
   inkscape:transform-center-x="-1.5035867"
   inkscape:transform-center-y="-1.5624153" /><path
   style="fill:#cd425c;fill-opacity:1;stroke:#e27364;stroke-width:0.0196624;stroke-opacity:0.9"
   d="m 16.49574,17.469804 c -0.01549,0.04633 -0.336948,1.048091 -0.714327,2.226155 -0.377376,1.178063 -0.701724,2.169322 -0.72077,2.202793 -0.02998,0.05266 -1.097508,-4.336186 -1.091275,-4.486443 0.0016,-0.04105 0.342559,-0.05206 1.278437,-0.04134 1.193321,0.01367 1.27429,0.02011 1.247934,0.09882 z"
   id="path3397"
   inkscape:transform-center-x="-1.37011"
   inkscape:transform-center-y="0.83009686" /><text
   xml:space="preserve"
   style="font-size:4.98902px;line-height:1.25;font-family:'Segoe Script';-inkscape-font-specification:'Segoe Script';fill:#16272a;fill-opacity:0.799714;stroke-width:0.124726"
   x="3.647902"
   y="18.530085"
   id="text17884"
   transform="scale(1.3088264,0.76404327)"><tspan
     sodipodi:role="line"
     id="tspan17882"
     x="3.647902"
     y="18.530085"
     style="stroke-width:0.124726">_</tspan></text><text
   xml:space="preserve"
   style="font-size:5.33667px;line-height:1.25;font-family:'Segoe Script';-inkscape-font-specification:'Segoe Script';fill:#16272a;fill-opacity:0.799714;stroke-width:0.133415"
   x="16.102255"
   y="19.686363"
   id="text17884-6"
   transform="scale(1.400012,0.71427958)"><tspan
     sodipodi:role="line"
     id="tspan17882-2"
     x="16.102255"
     y="19.686363"
     style="stroke-width:0.133415">_</tspan></text><text
   xml:space="preserve"
   style="font-size:4.56087px;line-height:1.25;font-family:'Segoe Script';-inkscape-font-specification:'Segoe Script';fill:#16272a;fill-opacity:0.799714;stroke-width:0.114021"
   x="-19.692781"
   y="18.974272"
   id="text17884-0"
   transform="matrix(-0.01870499,-1.3376578,0.74683122,-0.05321667,0,0)"><tspan
     sodipodi:role="line"
     id="tspan17882-4"
     x="-19.692781"
     y="18.974272"
     style="stroke-width:0.114021">_</tspan></text><text
   xml:space="preserve"
   style="font-size:5.06215px;line-height:1.25;font-family:'Segoe Script';-inkscape-font-specification:'Segoe Script';fill:#16272a;fill-opacity:0.799714;stroke-width:0.126553"
   x="-5.9497142"
   y="19.239639"
   id="text17884-9"
   transform="matrix(5.316367e-4,-1.2858757,0.77767957,0.00139631,0,0)"><tspan
     sodipodi:role="line"
     id="tspan17882-7"
     x="-5.9497142"
     y="19.239639"
     style="stroke-width:0.126553">_</tspan></text><g
   aria-label="c"
   transform="scale(1.0068413,0.99320522)"
   id="text9344"
   style="font-size:6.72783px;line-height:1.25;font-family:'Segoe Script';-inkscape-font-specification:'Segoe Script';fill:#0e0e0e;stroke-width:0.168194"><path
     d="m 17.147464,3.0430606 q 0,0.1182627 -0.08541,0.2135298 -0.0887,0.098552 -0.154399,0.1675387 -0.0657,0.065701 -0.124833,0.1215477 -0.05913,0.055846 -0.124832,0.1084074 -0.0657,0.049276 -0.154399,0.1149776 -0.249665,0.180679 -0.476335,0.3055118 -0.226671,0.1215477 -0.4402,0.2003895 -0.21353,0.075557 -0.423775,0.1084074 -0.206959,0.032851 -0.417204,0.032851 -0.2201,0 -0.394209,-0.082127 Q 14.177758,4.2486825 14.056211,4.1041393 13.937948,3.9595961 13.875532,3.7690618 13.813115,3.5752425 13.813115,3.3617127 v -0.016425 q 0,-0.2168149 0.05585,-0.4599103 0.05585,-0.2463805 0.154399,-0.492761 0.101837,-0.2463805 0.243095,-0.4829057 0.141258,-0.2398104 0.312082,-0.44677 0.06899,-0.082127 0.164254,-0.1741089 0.09855,-0.095267 0.20696,-0.1741088 0.111692,-0.078842 0.229955,-0.1281179 0.121547,-0.0525612 0.236525,-0.0525612 0.07884,0 0.151113,0.0492761 0.07227,0.0459911 0.134688,0.12154767 0.06242,0.075557 0.114978,0.1708238 0.05256,0.091982 0.0887,0.1905343 0.03614,0.095267 0.05585,0.1839641 0.01971,0.088697 0.01971,0.1511134 0,0.095267 -0.05913,0.2463804 -0.05913,0.1511134 -0.141258,0.1511134 -0.118263,0 -0.197104,-0.1609686 -0.02957,-0.062416 -0.05256,-0.1445432 -0.01971,-0.082127 -0.04928,-0.1609686 -0.02628,-0.078842 -0.07227,-0.1445432 -0.04599,-0.068987 -0.128118,-0.1018373 -0.08213,0.01971 -0.167539,0.085412 -0.08213,0.065701 -0.164253,0.1609686 -0.07884,0.095267 -0.157684,0.2168149 -0.07556,0.1182626 -0.144543,0.2463804 -0.0657,0.1182627 -0.128118,0.2726611 -0.06242,0.1511134 -0.111693,0.315367 -0.04928,0.1609686 -0.07884,0.3219372 -0.02957,0.1609686 -0.02957,0.2956566 0,0.095267 0.04599,0.1938193 0.04599,0.095267 0.118263,0.1741089 0.07556,0.078842 0.167538,0.1281179 0.09527,0.049276 0.19382,0.049276 0.486191,0 0.965811,-0.2003895 0.479621,-0.2003895 0.913251,-0.581458 0.23981,-0.2102446 0.397493,-0.2102446 0.04599,0 0.04599,0.088697 z"
     id="path1202" /></g><g
   aria-label="в"
   transform="scale(1.4046703,0.71191083)"
   id="text19318"
   style="font-size:6.44486px;line-height:1.25;font-family:'Segoe Script';-inkscape-font-specification:'Segoe Script';fill:#161616;stroke-width:0.161122"><path
     d="m 20.693636,18.283064 q 0,-0.03776 -0.01573,-0.07553 -0.01259,-0.04091 -0.04091,-0.07238 -0.02518,-0.03462 -0.06923,-0.05664 -0.04091,-0.02203 -0.09755,-0.02203 -0.110142,0 -0.229724,0.07867 -0.116436,0.07867 -0.236018,0.217137 -0.116435,0.135316 -0.226577,0.324131 -0.110142,0.185667 -0.204549,0.402803 -0.09441,0.217137 -0.169933,0.456302 -0.07238,0.236017 -0.116435,0.475182 0.02832,-0.01888 0.08497,-0.05979 0.05664,-0.04406 0.125877,-0.09755 0.07238,-0.05664 0.151051,-0.119583 0.08182,-0.06608 0.154198,-0.129023 0.07553,-0.06294 0.138464,-0.119582 0.06294,-0.05664 0.100701,-0.09755 0.349306,-0.377628 0.500358,-0.654556 0.151051,-0.276928 0.151051,-0.450007 z m -0.09755,3.392362 q -0.09755,0.144758 -0.236018,0.283222 -0.135317,0.135317 -0.298956,0.239165 -0.163639,0.103847 -0.349306,0.163639 -0.18252,0.05979 -0.371335,0.04406 -0.13217,-0.0094 -0.251752,-0.08497 -0.119582,-0.07867 -0.210843,-0.220283 -0.09126,-0.144758 -0.144757,-0.352454 -0.0535,-0.207695 -0.0535,-0.478329 0,-0.17308 0.01888,-0.374482 0.01888,-0.204549 0.05035,-0.412244 0.03147,-0.207696 0.06923,-0.405951 0.04091,-0.198255 0.07867,-0.365041 0.05035,-0.226577 0.13217,-0.44686 0.08182,-0.22343 0.18252,-0.427979 0.100701,-0.207696 0.217137,-0.390216 0.116435,-0.182521 0.239164,-0.330425 0.169933,-0.198255 0.38707,-0.317838 0.220283,-0.119582 0.516092,-0.119582 0.122729,0 0.22343,0.05035 0.100701,0.05035 0.17308,0.13217 0.07238,0.07867 0.110141,0.179374 0.04091,0.100701 0.04091,0.198255 0,0.135317 -0.05664,0.302103 -0.0535,0.163639 -0.157345,0.343012 -0.103848,0.179374 -0.251753,0.361894 -0.147904,0.182521 -0.336718,0.352454 0.04406,0.0031 0.100701,0.01573 0.05979,0.0094 0.122729,0.03776 0.06609,0.02832 0.13217,0.07553 0.06923,0.0472 0.13217,0.119582 0.02832,0.03462 0.06294,0.09441 0.03462,0.05664 0.06294,0.141611 0.03147,0.08182 0.05035,0.188814 0.02203,0.106995 0.02203,0.236018 0,0.251752 -0.09126,0.544414 -0.08811,0.289516 -0.314691,0.623087 z m -0.08811,-1.15806 q 0,-0.17308 -0.05035,-0.289516 -0.05035,-0.119582 -0.119582,-0.188814 -0.06923,-0.07238 -0.141611,-0.100701 -0.07238,-0.03147 -0.116435,-0.03147 -0.04091,0 -0.129023,0.06294 -0.08811,0.06294 -0.188815,0.138464 -0.07552,0.06609 -0.151051,0.122729 -0.07553,0.05665 -0.141611,0.110142 -0.06294,0.0535 -0.116435,0.106995 -0.0535,0.0535 -0.08811,0.113288 -0.08811,0.160492 -0.103848,0.365041 -0.01573,0.204549 -0.01573,0.418538 0,0.141611 0.02832,0.2549 0.03147,0.110141 0.07553,0.188814 0.0472,0.07867 0.100701,0.122729 0.0535,0.04091 0.09755,0.04091 0.106995,0 0.242312,-0.04406 0.135317,-0.04406 0.276927,-0.173079 0.12273,-0.113289 0.220284,-0.2549 0.1007,-0.14161 0.169932,-0.298956 0.07238,-0.157345 0.110142,-0.327278 0.04091,-0.169932 0.04091,-0.336718 z"
     id="path1223" /></g><g
   aria-label="ю"
   transform="scale(0.89610511,1.1159405)"
   id="text11307"
   style="font-size:5.37367px;line-height:1.25;font-family:'Segoe Script';-inkscape-font-specification:'Segoe Script';fill:#151515;stroke-width:0.13434"><path
     d="m 14.692814,25.153461 q 0,-0.0105 -0.01312,-0.01837 -0.0105,-0.0105 -0.02624,-0.02624 -0.01574,-0.01574 -0.02886,-0.04198 -0.0105,-0.02624 -0.0105,-0.07347 0,-0.04198 0.02361,-0.07609 0.02361,-0.03411 0.04985,-0.06297 0.02886,-0.02886 0.05248,-0.05248 0.02624,-0.02361 0.03149,-0.04461 0.04461,-0.25189 0.07609,-0.474919 0.03149,-0.223028 0.03936,-0.372588 0.0026,-0.04461 0,-0.09183 0,-0.04723 -0.0026,-0.09446 -0.0026,-0.03411 -0.0052,-0.0656 0,-0.03149 0,-0.06035 0,-0.03149 0.02361,-0.07084 0.02361,-0.03936 0.05772,-0.07347 0.03673,-0.03411 0.07872,-0.0551 0.04461,-0.02361 0.08659,-0.02361 0.03673,0 0.07347,0.02099 0.03673,0.01837 0.0656,0.0551 0.02886,0.03411 0.04723,0.08659 0.01837,0.04985 0.01837,0.112827 0,0.04723 -0.0079,0.11545 -0.0079,0.06822 -0.02099,0.14956 -0.01312,0.08134 -0.03149,0.170551 -0.01574,0.08921 -0.03149,0.178422 -0.02099,0.123322 -0.04198,0.236148 -0.01837,0.112826 -0.02886,0.194166 0.0105,0.02361 0.01837,0.04198 0.0105,0.01574 0.02624,0.02624 0.01574,0.0105 0.03936,0.01574 0.02624,0.0052 0.06822,0.0052 0.112827,0 0.238772,-0.02361 0.125945,-0.02361 0.238771,-0.06035 0.112826,-0.03674 0.202038,-0.07609 0.09183,-0.04198 0.136441,-0.07872 0.02886,-0.02361 0.06297,-0.06297 0.03673,-0.03936 0.07347,-0.08396 0.03673,-0.04723 0.07084,-0.09183 0.03673,-0.04723 0.06297,-0.08134 0.08921,-0.112826 0.202038,-0.220404 0.112826,-0.107578 0.249267,-0.188918 0.136441,-0.08134 0.293872,-0.131193 0.160056,-0.04985 0.34635,-0.04985 0.141689,0 0.27813,0.07085 0.13644,0.06822 0.241395,0.186294 0.107578,0.118074 0.170551,0.272882 0.0656,0.152184 0.0656,0.320111 0,0.167927 -0.03411,0.306992 -0.03149,0.136441 -0.10233,0.291248 -0.03936,0.08134 -0.136441,0.194166 -0.09708,0.112826 -0.233524,0.233524 -0.133817,0.120698 -0.293872,0.238771 -0.160056,0.118074 -0.325359,0.212533 -0.165304,0.09446 -0.325359,0.152184 -0.157432,0.05773 -0.286001,0.05773 -0.173175,0 -0.296497,-0.05773 -0.123321,-0.06035 -0.202037,-0.154808 -0.07872,-0.09708 -0.11545,-0.220404 -0.03673,-0.123322 -0.03673,-0.249267 0,-0.102331 0.02886,-0.246643 0.03149,-0.146936 0.104955,-0.296496 -0.09971,0.06297 -0.223028,0.09971 -0.120698,0.03673 -0.223029,0.0656 -0.0446,0.01312 -0.09971,0.02361 -0.0551,0.0079 -0.110202,0.01574 -0.05248,0.0079 -0.10233,0.01574 -0.04723,0.0079 -0.08134,0.01312 -0.05248,0.0105 -0.07347,0.04198 -0.01837,0.02886 -0.02886,0.07609 -0.0105,0.04461 -0.03149,0.118074 -0.02099,0.07347 -0.04198,0.152184 -0.02362,0.08396 -0.04985,0.173175 -0.02624,0.08921 -0.04723,0.170551 -0.01837,0.07872 -0.03411,0.146936 -0.01312,0.0656 -0.01312,0.102331 0,0.03411 -0.02886,0.07347 -0.02624,0.03936 -0.06297,0.07347 -0.03411,0.03673 -0.07084,0.06035 -0.03411,0.02361 -0.05248,0.02361 -0.03936,0 -0.07609,-0.02624 -0.03411,-0.02624 -0.06035,-0.06035 -0.02624,-0.03411 -0.04198,-0.06822 -0.01574,-0.03673 -0.01574,-0.0551 0,-0.02361 0.01837,-0.08396 0.02099,-0.06035 0.04198,-0.123321 0.01312,-0.03936 0.03411,-0.107579 0.02099,-0.06822 0.04198,-0.14956 0.02361,-0.08396 0.04461,-0.173175 0.02361,-0.08921 0.04198,-0.167927 0.01837,-0.07872 0.02886,-0.136441 0.0105,-0.06035 0.0105,-0.08659 z m 3.161755,-0.592993 q 0,-0.262386 -0.152185,-0.409323 -0.14956,-0.14956 -0.430313,-0.14956 -0.03936,0 -0.09708,0.03149 -0.05772,0.03149 -0.125945,0.08134 -0.0656,0.04723 -0.133817,0.104955 -0.0656,0.05772 -0.125946,0.112826 -0.05773,0.0551 -0.09971,0.09971 -0.04198,0.0446 -0.05773,0.06297 -0.0551,0.0656 -0.11545,0.181047 -0.05773,0.112826 -0.107579,0.244019 -0.04985,0.131193 -0.08396,0.26501 -0.03149,0.131193 -0.03149,0.2309 0,0.06035 0.01574,0.123321 0.01837,0.06297 0.05248,0.11545 0.03673,0.04985 0.09183,0.08396 0.0551,0.03149 0.128569,0.03149 0.08134,0 0.207285,-0.04723 0.125946,-0.04723 0.26501,-0.131193 0.141689,-0.08396 0.283378,-0.199414 0.144312,-0.11545 0.257138,-0.249267 0.11545,-0.133817 0.186294,-0.280753 0.07347,-0.14956 0.07347,-0.301744 z"
     id="path1160" /></g><g
   aria-label="з"
   transform="scale(1.3892488,0.71981346)"
   id="text16794"
   style="font-size:6.18896px;line-height:1.25;font-family:'Segoe Script';-inkscape-font-specification:'Segoe Script';fill:#131313;stroke-width:0.154725"><path
     d="m 0.77005421,21.654148 q 0.0302195,0 0.0483513,0.02115 0.0211537,0.02115 0.0332415,0.05137 0.0120878,0.03324 0.0151098,0.07253 0.006044,0.03928 0.006044,0.07555 0,0.0695 0.0241756,0.151098 0.0271976,0.08159 0.0846147,0.151098 0.0604391,0.0695 0.15411957,0.114834 0.093681,0.04835 0.2296685,0.04835 0.1843391,0 0.3807661,-0.0967 0.1964269,-0.0967 0.3596124,-0.268954 0.1631855,-0.172251 0.2659319,-0.410986 0.1057683,-0.235712 0.1057683,-0.516754 0,-0.259888 -0.054395,-0.441205 -0.054395,-0.181317 -0.1420318,-0.293129 -0.084615,-0.114835 -0.196427,-0.166208 -0.1118122,-0.05137 -0.2236245,-0.05137 -0.042307,0 -0.09368,0.02115 -0.051373,0.01813 -0.1057684,0.04835 -0.051373,0.0272 -0.1057684,0.06044 -0.051373,0.03324 -0.093681,0.06044 -0.072527,0.04835 -0.1390099,0.08159 -0.063461,0.03324 -0.1692293,0.03324 -0.081593,0 -0.1420318,-0.06044 -0.0574171,-0.06346 -0.0574171,-0.166207 0,-0.07857 0.0543952,-0.132966 0.057417,-0.05439 0.1752733,-0.102746 0.2508221,-0.102747 0.4472491,-0.208515 0.1994489,-0.108791 0.3354368,-0.232691 0.1359879,-0.126922 0.2085147,-0.278019 0.072527,-0.151098 0.072527,-0.344503 0,-0.07555 -0.024176,-0.148076 -0.021154,-0.07555 -0.066483,-0.132966 -0.045329,-0.06044 -0.1118123,-0.0967 -0.063461,-0.03929 -0.1480757,-0.03929 -0.1813172,0 -0.3445026,0.111813 -0.1631855,0.111812 -0.3203271,0.274997 -0.069505,0.07253 -0.1148342,0.105769 -0.045329,0.03022 -0.096702,0.03022 -0.0423073,0 -0.0755488,-0.02115 -0.0302195,-0.02418 -0.0513732,-0.05439 -0.0181317,-0.03324 -0.0302195,-0.06951 -0.009066,-0.03929 -0.009066,-0.06648 0,-0.07253 0.0392854,-0.135988 0.0423073,-0.06648 0.11181231,-0.1239 0.1510976,-0.126922 0.2961514,-0.208515 0.1450537,-0.08159 0.2387343,-0.120878 0.1057683,-0.04231 0.2175806,-0.08159 0.1148342,-0.03928 0.2145587,-0.03928 0.1420318,0 0.2719757,0.05137 0.129944,0.04835 0.2266465,0.145054 0.099724,0.09368 0.1571416,0.23269 0.060439,0.13901 0.060439,0.314283 0,0.253844 -0.1239001,0.504666 -0.1208781,0.250822 -0.4140076,0.486535 0.2024709,0.0091 0.3535685,0.102746 0.1510977,0.09368 0.2508221,0.2478 0.1027464,0.15412 0.1510977,0.356591 0.051373,0.199449 0.051373,0.423073 0,0.223625 -0.060439,0.444227 -0.060439,0.220603 -0.1722513,0.423074 -0.1087903,0.202471 -0.2629099,0.374722 -0.1510977,0.172251 -0.3354368,0.299173 -0.1813172,0.126922 -0.389832,0.199449 -0.2054928,0.07253 -0.4230734,0.07253 -0.2085148,0 -0.3626344,-0.0695 -0.15411961,-0.06648 -0.25686602,-0.169229 -0.0997245,-0.102747 -0.15109766,-0.220603 -0.0513732,-0.117856 -0.0513732,-0.21758 0,-0.07555 0.0271976,-0.163186 0.0302195,-0.08764 0.066483,-0.13901 0.0241756,-0.03324 0.0695049,-0.0695 0.0453293,-0.03324 0.11483422,-0.03324 z"
     id="path1181" /></g></svg>
