<?xml version="1.0" encoding="UTF-8" standalone="no"?>
<!-- Generator: Adobe Illustrator 22.0.1, SVG Export Plug-In . SVG Version: 6.00 Build 0)  -->

<svg
   version="1.1"
   id="Layer_1"
   x="0px"
   y="0px"
   viewBox="0 0 30 30"
   xml:space="preserve"
   sodipodi:docname="southwestWind.svg"
   width="30"
   height="30"
   inkscape:version="1.1.1 (3bf5ae0d25, 2021-09-20)"
   xmlns:inkscape="http://www.inkscape.org/namespaces/inkscape"
   xmlns:sodipodi="http://sodipodi.sourceforge.net/DTD/sodipodi-0.dtd"
   xmlns="http://www.w3.org/2000/svg"
   xmlns:svg="http://www.w3.org/2000/svg"><defs
   id="defs7" /><sodipodi:namedview
   id="namedview5"
   pagecolor="#ffffff"
   bordercolor="#666666"
   borderopacity="1.0"
   inkscape:pageshadow="2"
   inkscape:pageopacity="0.0"
   inkscape:pagecheckerboard="0"
   showgrid="false"
   inkscape:zoom="28.733333"
   inkscape:cx="14.060325"
   inkscape:cy="15.330627"
   inkscape:window-width="2400"
   inkscape:window-height="1321"
   inkscape:window-x="2391"
   inkscape:window-y="-9"
   inkscape:window-maximized="1"
   inkscape:current-layer="Layer_1"
   width="140px" />
<path
   d="m 22.676377,22.58548 c -1.391265,1.282093 -3.009845,2.139103 -4.842458,2.571232 -1.832618,0.432127 -3.652386,0.404488 -5.459311,-0.08292 C 10.567686,24.586384 9.0116355,23.681154 7.699628,22.36439 6.717242,21.37844 5.9782302,20.242861 5.4822333,18.970434 4.9862448,17.698006 4.7695487,16.41704 4.7987688,15.133425 4.8279948,13.849807 5.1293416,12.576712 5.7027997,11.31414 6.2762677,10.051564 7.0712585,8.9456788 8.1215262,7.9778192 9.1581509,7.0225328 10.34775,6.299553 11.677042,5.8086748 c 1.329286,-0.4908784 2.671184,-0.7196455 3.999483,-0.6994705 1.328296,0.02017 2.649458,0.2957804 3.950202,0.8266028 1.300744,0.5308271 2.442484,1.282831 3.431334,2.2752693 0.988855,0.9924367 1.734327,2.1345016 2.23032,3.4069316 0.49599,1.27243 0.719149,2.559877 0.689933,3.843495 -0.02922,1.283617 -0.337026,2.550226 -0.890392,3.806715 -0.553363,1.256493 -1.368101,2.355692 -2.411545,3.317262 z m -1.602846,-1.608659 c 1.616319,-1.489492 2.465395,-3.341998 2.540766,-5.564002 0.06173,-2.209433 -0.683153,-4.08615 -2.240752,-5.6494017 C 20.35238,8.738544 19.13633,8.0301327 17.731506,7.6574338 16.326679,7.2847354 14.905761,7.250378 13.474488,7.5863875 12.043217,7.9223929 10.788987,8.5805089 9.7114371,9.5735039 8.6338966,10.566499 7.8898953,11.749824 7.4797858,13.110704 c -0.4101053,1.36088 -0.4482861,2.727411 -0.1145434,4.09959 0.3337453,1.37218 1.0113745,2.564317 2.0325443,3.589188 1.0211653,1.024871 2.2372163,1.733282 3.6420423,2.105984 1.404821,0.372696 2.832566,0.40077 4.270299,0.07125 1.437733,-0.329524 2.685856,-1.006895 3.763403,-1.99989 z m 0.829204,-6.848503 -11.364556,5.806893 c -0.07466,0.05636 -0.141077,0.05535 -0.199243,-0.0031 -0.05816,-0.05839 -0.05638,-0.122236 0.0053,-0.191566 L 16.867995,9.0753132 c 0.04916,-0.095085 0.110189,-0.1388746 0.183423,-0.1441498 0.07323,-0.00527 0.124938,0.046617 0.155113,0.1556787 l 1.356096,3.0678459 c 0.03735,0.09001 0.101981,0.154872 0.187431,0.18811 l 3.148668,1.45326 c 0.105546,0.02715 0.150787,0.07256 0.135723,0.136219 -0.01508,0.06365 -0.0506,0.146163 -0.131717,0.19604 z"
   id="path2"
   style="fill:#2c4f54;fill-opacity:0.5;stroke:#2e3332;stroke-width:0.0567921;stroke-miterlimit:4;stroke-dasharray:none;stroke-opacity:0.9" />
<path
   style="fill:#1f4347;fill-opacity:0.81;stroke:#e4e7e7;stroke-width:0.0567921;stroke-miterlimit:4;stroke-dasharray:none;stroke-opacity:0.9"
   d="m 21.651813,10.647414 c 0.242218,0.304439 0.486459,0.658915 0.67674,0.982175 1.069939,1.817701 1.237186,4.266478 0.431972,6.324787 -0.433434,1.10795 -0.994503,1.904378 -1.944934,2.760797 -0.975505,0.879072 -1.876381,1.385657 -3.090291,1.737922 -0.818184,0.237424 -1.556338,0.336391 -2.447265,0.3281 -1.7681,-0.01645 -3.322351,-0.504639 -4.733109,-1.486645 C 10.251131,21.090045 10.142321,20.993182 9.6025345,20.455641 8.9473461,19.803157 8.78235,19.60113 8.4280625,19.017544 7.8929981,18.136138 7.5118049,16.968749 7.4094399,15.898029 7.367684,15.461286 7.4027709,14.550449 7.4784708,14.106293 7.661658,13.031355 8.0583332,12.020752 8.6235546,11.189007 9.0403541,10.575655 9.2126815,10.38193 9.8647236,9.7936916 10.324708,9.3787436 10.528289,9.2118798 10.75805,9.061638 c 1.395336,-0.9124785 3.058141,-1.3823877 4.751569,-1.3427879 1.734335,0.040561 3.393424,0.596308 4.733931,1.5857328 0.309015,0.2280835 1.188778,1.0669651 1.40827,1.3428281 z m -1.515926,2.529087 C 19.282409,12.781786 18.555641,12.4416 18.520849,12.420537 18.477901,12.394549 18.231031,11.876277 17.752101,10.806705 17.345986,9.8997566 17.02471,9.2197465 16.995002,9.2042436 c -0.06158,-0.032117 -0.172728,0.02179 -0.241272,0.1170253 -0.02722,0.037814 -1.469533,2.3541481 -3.205163,5.1474181 -3.041424,4.894771 -3.15441,5.081445 -3.120289,5.155262 0.02638,0.05704 0.05175,0.07684 0.09954,0.07752 0.07905,0.0012 11.047266,-5.436812 11.146487,-5.526345 0.08965,-0.08089 0.122624,-0.221311 0.06,-0.255494 -0.02568,-0.01397 -0.744947,-0.348413 -1.598425,-0.743129 z"
   id="path861" /><rect
   style="fill:#c7485e;fill-opacity:1;stroke:#3c4343;stroke-width:0.243985;stroke-opacity:0.9"
   id="rect2803"
   width="2.6743953"
   height="0.03144883"
   x="-22.972675"
   y="-1.8694985"
   transform="matrix(-0.7105166,-0.70368044,0.73681908,-0.67608996,0,0)"
   inkscape:transform-center-x="-2.1782363"
   inkscape:transform-center-y="-0.047139396" /><path
   style="fill:#cd425c;fill-opacity:1;stroke:#e27364;stroke-width:0.02012;stroke-opacity:0.9"
   d="m 14.654734,17.60709 c -0.04442,0.02301 -0.995154,0.530078 -2.112736,1.126864 -1.117581,0.596785 -2.062873,1.094054 -2.100647,1.105036 -0.05944,0.01727 2.315394,-3.980959 2.427637,-4.087145 0.03065,-0.02902 0.285051,0.207481 0.954155,0.886951 0.853162,0.866382 0.907103,0.929221 0.831598,0.968284 z"
   id="path3397"
   inkscape:transform-center-x="-0.76388003"
   inkscape:transform-center-y="1.0935724" /><text
   xml:space="preserve"
   style="font-size:4.96291px;line-height:1.25;font-family:'Segoe Script';-inkscape-font-specification:'Segoe Script';fill:#16272a;fill-opacity:0.799714;stroke-width:0.124071"
   x="3.7545726"
   y="18.901302"
   id="text17884"
   transform="scale(1.3227153,0.75602059)"><tspan
     sodipodi:role="line"
     id="tspan17882"
     x="3.7545726"
     y="18.901302"
     style="stroke-width:0.124071">_</tspan></text><text
   xml:space="preserve"
   style="font-size:5.2901px;line-height:1.25;font-family:'Segoe Script';-inkscape-font-specification:'Segoe Script';fill:#16272a;fill-opacity:0.799714;stroke-width:0.132252"
   x="15.997803"
   y="20.014019"
   id="text17884-6"
   transform="scale(1.4099282,0.70925599)"><tspan
     sodipodi:role="line"
     id="tspan17882-2"
     x="15.997803"
     y="20.014019"
     style="stroke-width:0.132252">_</tspan></text><text
   xml:space="preserve"
   style="font-size:4.49482px;line-height:1.25;font-family:'Segoe Script';-inkscape-font-specification:'Segoe Script';fill:#16272a;fill-opacity:0.799714;stroke-width:0.11237"
   x="-19.688625"
   y="19.106171"
   id="text17884-0"
   transform="matrix(-0.01872773,-1.3360329,0.74773953,-0.05315201,0,0)"><tspan
     sodipodi:role="line"
     id="tspan17882-4"
     x="-19.688625"
     y="19.106171"
     style="stroke-width:0.11237">_</tspan></text><text
   xml:space="preserve"
   style="font-size:4.9422px;line-height:1.25;font-family:'Segoe Script';-inkscape-font-specification:'Segoe Script';fill:#16272a;fill-opacity:0.799714;stroke-width:0.123554"
   x="-6.1998129"
   y="19.177891"
   id="text17884-9"
   transform="matrix(5.3729854e-4,-1.2723257,0.78596167,0.00138159,0,0)"><tspan
     sodipodi:role="line"
     id="tspan17882-7"
     x="-6.1998129"
     y="19.177891"
     style="stroke-width:0.123554">_</tspan></text><g
   aria-label="в"
   transform="scale(1.395599,0.7165382)"
   id="text19318"
   style="font-size:6.39844px;line-height:1.25;font-family:'Segoe Script';-inkscape-font-specification:'Segoe Script';fill:#161616;stroke-width:0.159961"><path
     d="m 20.83397,18.376488 q 0,-0.03749 -0.01562,-0.07498 -0.0125,-0.04061 -0.04062,-0.07186 -0.02499,-0.03437 -0.06873,-0.05624 -0.04061,-0.02187 -0.09685,-0.02187 -0.109348,0 -0.228069,0.07811 -0.115597,0.07811 -0.234318,0.215572 -0.115597,0.134343 -0.224945,0.321797 -0.109349,0.18433 -0.203076,0.399902 -0.09373,0.215573 -0.168709,0.453015 -0.07186,0.234318 -0.115596,0.47176 0.02812,-0.01875 0.08435,-0.05936 0.05624,-0.04374 0.124969,-0.09685 0.07186,-0.05624 0.149964,-0.118721 0.08123,-0.06561 0.153088,-0.128094 0.07498,-0.06248 0.137466,-0.118721 0.06248,-0.05624 0.09998,-0.09685 0.34679,-0.374909 0.496754,-0.649842 0.149963,-0.274933 0.149963,-0.446766 z m -0.09685,3.367929 q -0.09685,0.143715 -0.234318,0.281181 -0.134342,0.134343 -0.296803,0.237442 -0.16246,0.1031 -0.34679,0.162461 -0.181206,0.05936 -0.36866,0.04374 -0.131218,-0.0094 -0.249939,-0.08435 -0.118722,-0.07811 -0.209324,-0.218697 -0.0906,-0.143715 -0.143715,-0.349915 -0.05311,-0.206199 -0.05311,-0.474884 0,-0.171833 0.01874,-0.371784 0.01874,-0.203076 0.04999,-0.409275 0.03124,-0.2062 0.06873,-0.403027 0.04061,-0.196827 0.07811,-0.362412 0.04999,-0.224945 0.131218,-0.443642 0.08123,-0.22182 0.181206,-0.424896 0.09998,-0.2062 0.215572,-0.387405 0.115597,-0.181206 0.237442,-0.328045 0.168709,-0.196827 0.384282,-0.315549 0.218696,-0.118721 0.512375,-0.118721 0.121845,0 0.221821,0.04999 0.09998,0.04999 0.171833,0.131218 0.07186,0.07811 0.109348,0.178082 0.04062,0.09998 0.04062,0.196827 0,0.134342 -0.05624,0.299927 -0.05311,0.16246 -0.156212,0.340542 -0.1031,0.178081 -0.249939,0.359287 -0.146839,0.181206 -0.334294,0.349915 0.04374,0.0031 0.09998,0.01562 0.05936,0.0094 0.121845,0.03749 0.06561,0.02812 0.131218,0.07498 0.06873,0.04686 0.131218,0.118722 0.02812,0.03437 0.06248,0.09373 0.03437,0.05624 0.06248,0.14059 0.03124,0.08123 0.04999,0.187455 0.02187,0.106224 0.02187,0.234318 0,0.249939 -0.0906,0.540493 -0.08748,0.28743 -0.312423,0.618599 z m -0.08748,-1.14972 q 0,-0.171833 -0.04999,-0.28743 -0.04999,-0.118721 -0.118721,-0.187454 -0.06873,-0.07186 -0.140591,-0.09998 -0.07186,-0.03124 -0.115596,-0.03124 -0.04062,0 -0.128094,0.06248 -0.08748,0.06249 -0.187454,0.137466 -0.07498,0.06561 -0.149964,0.121846 -0.07498,0.05624 -0.140591,0.109348 -0.06248,0.05311 -0.115596,0.106224 -0.05311,0.05311 -0.08748,0.112473 -0.08748,0.159336 -0.1031,0.362411 -0.01562,0.203076 -0.01562,0.415524 0,0.140591 0.02812,0.253063 0.03124,0.109349 0.07498,0.187455 0.04686,0.07811 0.09998,0.121845 0.05311,0.04061 0.09685,0.04061 0.106224,0 0.240566,-0.04374 0.134342,-0.04374 0.274933,-0.171834 0.121845,-0.112472 0.218697,-0.253063 0.09998,-0.140591 0.168709,-0.296802 0.07186,-0.156212 0.109348,-0.324921 0.04062,-0.168709 0.04062,-0.334294 z"
     id="path971" /></g><g
   aria-label="ю"
   transform="scale(0.89031812,1.123194)"
   id="text11307"
   style="font-size:5.33496px;line-height:1.25;font-family:'Segoe Script';-inkscape-font-specification:'Segoe Script';fill:#151515;stroke-width:0.133372"><path
     d="m 14.714437,25.115885 q 0,-0.01042 -0.01302,-0.01823 -0.01042,-0.01042 -0.02605,-0.02605 -0.01563,-0.01563 -0.02866,-0.04168 -0.01042,-0.02605 -0.01042,-0.07294 0,-0.04168 0.02344,-0.07554 0.02345,-0.03386 0.04949,-0.06252 0.02866,-0.02865 0.0521,-0.0521 0.02605,-0.02344 0.03126,-0.04428 0.04429,-0.250076 0.07554,-0.471498 0.03126,-0.221421 0.03907,-0.369904 0.0026,-0.04428 0,-0.09117 0,-0.04689 -0.0026,-0.09378 -0.0026,-0.03386 -0.0052,-0.06512 0,-0.03126 0,-0.05991 0,-0.03126 0.02344,-0.07033 0.02345,-0.03908 0.05731,-0.07294 0.03647,-0.03386 0.07815,-0.0547 0.04429,-0.02344 0.08596,-0.02344 0.03647,0 0.07294,0.02084 0.03647,0.01823 0.06512,0.0547 0.02865,0.03386 0.04689,0.08596 0.01824,0.04949 0.01824,0.112013 0,0.04689 -0.0078,0.114618 -0.0078,0.06773 -0.02084,0.148483 -0.01302,0.08075 -0.03126,0.169322 -0.01563,0.08857 -0.03126,0.177138 -0.02084,0.122433 -0.04168,0.234446 -0.01823,0.112013 -0.02865,0.192767 0.01042,0.02344 0.01823,0.04168 0.01042,0.01563 0.02605,0.02605 0.01563,0.01042 0.03907,0.01563 0.02605,0.0052 0.06773,0.0052 0.112013,0 0.237051,-0.02344 0.125039,-0.02344 0.237052,-0.05991 0.112013,-0.03647 0.200582,-0.07554 0.09117,-0.04168 0.135458,-0.07815 0.02865,-0.02344 0.06252,-0.06252 0.03647,-0.03907 0.07294,-0.08336 0.03647,-0.04689 0.07033,-0.09117 0.03647,-0.04689 0.06252,-0.08075 0.08857,-0.112013 0.200582,-0.218816 0.112013,-0.106804 0.247471,-0.187558 0.135458,-0.08075 0.291756,-0.130248 0.158902,-0.04949 0.343855,-0.04949 0.140667,0 0.276125,0.07033 0.135458,0.06773 0.239657,0.184952 0.106803,0.117223 0.169322,0.270916 0.06512,0.151088 0.06512,0.317805 0,0.166718 -0.03386,0.304781 -0.03126,0.135458 -0.101594,0.289151 -0.03907,0.08075 -0.135458,0.192767 -0.09638,0.112013 -0.231841,0.231841 -0.132853,0.119828 -0.291756,0.237052 -0.158902,0.117223 -0.323015,0.211001 -0.164112,0.09378 -0.323015,0.151088 -0.156298,0.05731 -0.283941,0.05731 -0.171927,0 -0.29436,-0.05731 -0.122434,-0.05991 -0.200582,-0.153693 -0.07815,-0.09638 -0.114619,-0.218816 -0.03647,-0.122433 -0.03647,-0.247472 0,-0.101593 0.02865,-0.244866 0.03126,-0.145878 0.104199,-0.29436 -0.09899,0.06252 -0.221422,0.09899 -0.119828,0.03647 -0.221421,0.06512 -0.04429,0.01302 -0.09899,0.02344 -0.0547,0.0078 -0.109408,0.01563 -0.0521,0.0078 -0.101594,0.01563 -0.04689,0.0078 -0.08075,0.01302 -0.0521,0.01042 -0.07294,0.04168 -0.01823,0.02866 -0.02865,0.07554 -0.01042,0.04429 -0.03126,0.117224 -0.02084,0.07294 -0.04168,0.151087 -0.02345,0.08336 -0.04949,0.171928 -0.02605,0.08857 -0.04689,0.169322 -0.01823,0.07815 -0.03386,0.145878 -0.01303,0.06512 -0.01303,0.101593 0,0.03386 -0.02865,0.07294 -0.02605,0.03908 -0.06252,0.07294 -0.03387,0.03647 -0.07033,0.05991 -0.03387,0.02345 -0.0521,0.02345 -0.03907,0 -0.07554,-0.02605 -0.03387,-0.02605 -0.05992,-0.05991 -0.02605,-0.03386 -0.04168,-0.06773 -0.01563,-0.03647 -0.01563,-0.0547 0,-0.02344 0.01823,-0.08336 0.02084,-0.05991 0.04168,-0.122433 0.01303,-0.03907 0.03387,-0.106803 0.02084,-0.06773 0.04168,-0.148483 0.02345,-0.08336 0.04429,-0.171927 0.02344,-0.08857 0.04168,-0.166718 0.01823,-0.07815 0.02865,-0.135458 0.01042,-0.05991 0.01042,-0.08596 z m 3.138978,-0.588721 q 0,-0.260496 -0.151087,-0.406374 -0.148483,-0.148482 -0.427214,-0.148482 -0.03907,0 -0.09638,0.03126 -0.05731,0.03126 -0.125038,0.08075 -0.06512,0.04689 -0.132853,0.104198 -0.06512,0.05731 -0.125038,0.112014 -0.05731,0.0547 -0.09899,0.09899 -0.04168,0.04428 -0.05731,0.06252 -0.0547,0.06512 -0.114618,0.179743 -0.05731,0.112013 -0.106803,0.242261 -0.04949,0.130248 -0.08336,0.263101 -0.03126,0.130248 -0.03126,0.229237 0,0.05991 0.01563,0.122433 0.01824,0.06252 0.0521,0.114618 0.03647,0.04949 0.09117,0.08336 0.0547,0.03126 0.127643,0.03126 0.08075,0 0.205792,-0.04689 0.125038,-0.04689 0.263101,-0.130248 0.140668,-0.08336 0.281336,-0.197977 0.143273,-0.114618 0.255286,-0.247471 0.114618,-0.132853 0.184952,-0.278731 0.07294,-0.148483 0.07294,-0.299571 z"
     id="path992" /></g><g
   aria-label="з"
   transform="scale(1.3802771,0.7244922)"
   id="text16794"
   style="font-size:6.14439px;line-height:1.25;font-family:'Segoe Script';-inkscape-font-specification:'Segoe Script';fill:#131313;stroke-width:0.15361"><path
     d="m 0.9729656,20.663902 q 0.0300019,0 0.048003,0.021 0.021001,0.021 0.033002,0.051 0.012001,0.033 0.015001,0.07201 0.006,0.039 0.006,0.075 0,0.069 0.024002,0.15001 0.027002,0.08101 0.084005,0.150009 0.060004,0.06901 0.1530097,0.114008 0.093006,0.048 0.2280145,0.048 0.1830116,0 0.378024,-0.09601 0.1950124,-0.09601 0.3570227,-0.267017 0.1620103,-0.171011 0.2640168,-0.408026 0.1050066,-0.234015 0.1050066,-0.513033 0,-0.258016 -0.054003,-0.438028 -0.054003,-0.180011 -0.141009,-0.291018 -0.084005,-0.114007 -0.1950123,-0.165011 -0.1110071,-0.051 -0.2220141,-0.051 -0.042003,0 -0.093006,0.021 -0.051003,0.018 -0.1050067,0.048 -0.051003,0.027 -0.1050067,0.06 -0.051003,0.033 -0.093006,0.06 -0.072005,0.048 -0.1380087,0.08101 -0.063004,0.033 -0.1680107,0.033 -0.081005,0 -0.141009,-0.06 -0.057004,-0.063 -0.057004,-0.165011 0,-0.07801 0.054003,-0.132008 0.057004,-0.054 0.1740111,-0.102007 0.2490158,-0.102006 0.4440282,-0.207013 0.1980126,-0.108007 0.3330211,-0.231015 0.1350086,-0.126008 0.2070132,-0.276017 0.072004,-0.15001 0.072004,-0.342022 0,-0.07501 -0.024001,-0.147009 -0.021001,-0.07501 -0.066004,-0.132008 -0.045003,-0.06 -0.111007,-0.09601 -0.063004,-0.039 -0.1470094,-0.039 -0.1800114,0 -0.3420217,0.111007 -0.1620103,0.111007 -0.3180202,0.273017 -0.069004,0.07201 -0.1140072,0.105007 -0.045003,0.03 -0.096006,0.03 -0.042003,0 -0.075005,-0.021 -0.030002,-0.024 -0.051003,-0.054 -0.018001,-0.033 -0.030002,-0.069 -0.009,-0.039 -0.009,-0.066 0,-0.07201 0.039003,-0.135009 0.042003,-0.066 0.1110071,-0.123008 0.1500095,-0.126008 0.2940186,-0.207013 0.1440092,-0.08101 0.2370151,-0.120008 0.1050066,-0.042 0.2160137,-0.08101 0.1140072,-0.039 0.2130135,-0.039 0.141009,0 0.2700172,0.051 0.1290081,0.048 0.2250142,0.144009 0.099006,0.09301 0.1560099,0.231015 0.060004,0.138009 0.060004,0.31202 0,0.252016 -0.1230079,0.501031 -0.1200076,0.249016 -0.411026,0.483031 0.2010127,0.009 0.3510222,0.102007 0.1500096,0.09301 0.2490158,0.246015 0.1020065,0.15301 0.1500096,0.354023 0.051003,0.198012 0.051003,0.420026 0,0.222014 -0.060004,0.441028 -0.060004,0.219014 -0.1710109,0.420027 -0.1080068,0.201013 -0.2610165,0.372024 -0.1500096,0.171011 -0.3330212,0.297019 -0.1800114,0.126008 -0.3870245,0.198012 -0.204013,0.07201 -0.4200267,0.07201 -0.2070132,0 -0.3600229,-0.06901 -0.15300969,-0.066 -0.25501616,-0.16801 -0.0990063,-0.102007 -0.15000953,-0.219014 -0.0510032,-0.117008 -0.0510032,-0.216014 0,-0.07501 0.0270017,-0.16201 0.0300019,-0.08701 0.0660042,-0.138009 0.0240015,-0.033 0.0690044,-0.069 0.0450029,-0.033 0.11400724,-0.033 z"
     id="path1013" /></g><g
   aria-label="c"
   transform="scale(1.0003391,0.999661)"
   id="text9344"
   style="font-size:6.67936px;line-height:1.25;font-family:'Segoe Script';-inkscape-font-specification:'Segoe Script';fill:#0e0e0e;stroke-width:0.166982"><path
     d="m 17.42769,3.3003573 q 0,0.1174106 -0.0848,0.2119914 -0.08806,0.097842 -0.153286,0.1663317 -0.06523,0.065228 -0.123933,0.120672 -0.05871,0.055444 -0.123934,0.1076264 -0.06523,0.048921 -0.153286,0.1141493 Q 16.540587,4.2005054 16.31555,4.3244388 16.090513,4.4451109 15.878522,4.5233846 15.66653,4.598397 15.4578,4.631011 q -0.205468,0.032614 -0.414198,0.032614 -0.218514,0 -0.391369,-0.081535 -0.172854,-0.084796 -0.293526,-0.2282984 -0.117411,-0.1435019 -0.179378,-0.3326634 -0.06197,-0.192423 -0.06197,-0.4044144 v -0.016307 q 0,-0.2152529 0.05544,-0.4565969 0.05544,-0.2446055 0.153287,-0.4892109 0.101103,-0.2446055 0.241344,-0.4794268 0.14024,-0.2380826 0.309833,-0.4435512 0.06849,-0.081535 0.16307,-0.1728545 0.09784,-0.094581 0.205469,-0.1728546 0.110888,-0.078274 0.228299,-0.1271948 0.120672,-0.052183 0.234821,-0.052183 0.07827,0 0.150024,0.048921 0.07175,0.04566 0.133718,0.120672 0.06197,0.075012 0.114149,0.1695931 0.05218,0.091319 0.08806,0.1891616 0.03588,0.094581 0.05544,0.1826388 0.01957,0.088058 0.01957,0.1500246 0,0.094581 -0.05871,0.2446055 -0.0587,0.1500247 -0.14024,0.1500247 -0.117411,0 -0.195685,-0.1598089 -0.02935,-0.061967 -0.05218,-0.1435019 -0.01957,-0.081535 -0.04892,-0.1598089 -0.02609,-0.078274 -0.07175,-0.1435019 -0.04566,-0.06849 -0.127195,-0.1011036 -0.08153,0.019568 -0.166332,0.084797 -0.08154,0.065228 -0.16307,0.1598089 -0.07827,0.094581 -0.156547,0.2152528 -0.07501,0.1174106 -0.143502,0.2446055 -0.06523,0.1174106 -0.127195,0.2706967 -0.06197,0.1500247 -0.110888,0.313095 -0.04892,0.1598089 -0.07827,0.3196178 -0.02935,0.1598089 -0.02935,0.2935266 0,0.094581 0.04566,0.1924229 0.04566,0.094581 0.117411,0.1728546 0.07501,0.078274 0.166332,0.1271948 0.09458,0.048921 0.192423,0.048921 0.482688,0 0.958853,-0.1989458 0.476165,-0.1989458 0.906671,-0.5772689 0.238083,-0.20873 0.39463,-0.20873 0.04566,0 0.04566,0.088058 z"
     id="path950" /></g></svg>
