<?xml version="1.0" encoding="UTF-8" standalone="no"?>
<!-- Created with Inkscape (http://www.inkscape.org/) -->

<svg
   width="8"
   height="12"
   viewBox="0 0 2.1166668 3.1750006"
   version="1.1"
   id="svg2249"
   inkscape:version="1.1.1 (3bf5ae0d25, 2021-09-20)"
   sodipodi:docname="tempMinus.svg"
   xmlns:inkscape="http://www.inkscape.org/namespaces/inkscape"
   xmlns:sodipodi="http://sodipodi.sourceforge.net/DTD/sodipodi-0.dtd"
   xmlns="http://www.w3.org/2000/svg"
   xmlns:svg="http://www.w3.org/2000/svg">
  <sodipodi:namedview
     id="namedview2251"
     pagecolor="#ffffff"
     bordercolor="#666666"
     borderopacity="1.0"
     inkscape:pageshadow="2"
     inkscape:pageopacity="0.0"
     inkscape:pagecheckerboard="0"
     inkscape:document-units="px"
     showgrid="false"
     units="px"
     inkscape:zoom="24.573288"
     inkscape:cx="14.324497"
     inkscape:cy="14.344845"
     inkscape:window-width="2400"
     inkscape:window-height="1321"
     inkscape:window-x="2391"
     inkscape:window-y="-9"
     inkscape:window-maximized="1"
     inkscape:current-layer="layer1"
     height="35px" />
  <defs
     id="defs2246">
    <clipPath
       clipPathUnits="userSpaceOnUse"
       id="clipPath1825">
      <path
         d="m 7278.53,6813.28 h 20.78 v -5.79 h -20.78 z"
         id="path1823" />
    </clipPath>
  </defs>
  <g
     inkscape:label="Слой 1"
     inkscape:groupmode="layer"
     id="layer1"
     style="display:inline">
    <g
       id="g1799"
       transform="matrix(0.04438387,0,0,-0.03942752,0.9357777,2.0441421)"
       style="fill:#e1ebeb;fill-opacity:1">
      <path
         d="m 0,0 c 3.832,0 7.39,-1.134 10.39,-3.063 v 45.73 c 0,4.019 -3.287,7.305 -7.306,7.305 h -6.17 c -4.018,0 -7.305,-3.286 -7.305,-7.305 V -3.065 C -7.393,-1.134 -3.832,0 0,0"
         style="fill:#e1ebeb;fill-opacity:1;fill-rule:nonzero;stroke:none"
         id="path1801" />
    </g>
    <g
       id="g1803"
       transform="matrix(0.04438387,0,0,-0.03496581,1.7834775,2.4459443)"
       style="fill:#e0ebeb;fill-opacity:1">
      <path
         d="m 0,0 c 0,-10.623 -8.612,-19.235 -19.236,-19.235 -10.625,0 -19.239,8.612 -19.239,19.235 0,10.625 8.614,19.239 19.239,19.239 C -8.612,19.239 0,10.625 0,0"
         style="fill:#e0ebeb;fill-opacity:1;fill-rule:nonzero;stroke:none"
         id="path1805" />
    </g>
    <g
       id="g1819"
       transform="matrix(0.04438387,0,0,-0.03496581,-322.58064,239.90994)">
      <g
         id="g1821" />
      <g
         id="g1833">
        <g
           clip-path="url(#clipPath1825)"
           opacity="0.199997"
           id="g1831">
          <g
             transform="translate(7288.918,6813.2813)"
             id="g1829">
            <path
               d="m 0,0 c -3.759,0 -7.296,-0.948 -10.391,-2.611 v -3.178 c 2.998,1.932 6.559,3.065 10.391,3.065 3.832,0 7.39,-1.133 10.39,-3.063 v 3.176 C 7.295,-0.948 3.758,0 0,0"
               style="fill:#122c3d;fill-opacity:1;fill-rule:nonzero;stroke:none"
               id="path1827" />
          </g>
        </g>
      </g>
    </g>
    <g
       id="g1835"
       transform="matrix(0.05774092,0,0,-0.02198708,2.0561097,0.48090414)"
       style="fill:#e0ebeb;fill-opacity:1">
      <path
         d="m 0,0 c 0,-0.353 -0.287,-0.642 -0.64,-0.642 h -9.46 c -0.353,0 -0.64,0.289 -0.64,0.642 v 3.687 c 0,0.353 0.287,0.642 0.64,0.642 h 9.46 C -0.287,4.329 0,4.04 0,3.687 Z"
         style="fill:#e0ebeb;fill-opacity:1;fill-rule:nonzero;stroke:none"
         id="path1837" />
    </g>
    <g
       id="g1839"
       transform="matrix(0.07576153,0,0,-0.01868762,1.8855344,0.83714405)"
       style="fill:#e0ebeb;fill-opacity:1">
      <path
         d="m 0,0 c 0,-0.353 -0.287,-0.64 -0.641,-0.64 h -4.81 c -0.354,0 -0.641,0.287 -0.641,0.64 v 3.687 c 0,0.353 0.287,0.642 0.641,0.642 h 4.81 C -0.287,4.329 0,4.04 0,3.687 Z"
         style="fill:#e0ebeb;fill-opacity:1;fill-rule:nonzero;stroke:none"
         id="path1841" />
    </g>
    <g
       id="g1843"
       transform="matrix(0.05831737,0,0,-0.01848652,1.8031736,1.1622647)"
       style="fill:#e0eaea;fill-opacity:1">
      <path
         d="m 0,0 c 0,-0.353 -0.287,-0.642 -0.641,-0.642 h -4.81 c -0.354,0 -0.641,0.289 -0.641,0.642 v 3.687 c 0,0.353 0.287,0.64 0.641,0.64 h 4.81 C -0.287,4.327 0,4.04 0,3.687 Z"
         style="fill:#e0eaea;fill-opacity:1;fill-rule:nonzero;stroke:none"
         id="path1845" />
    </g>
    <g
       id="g1847"
       transform="matrix(0.05961299,0,0,-0.02313247,2.0702384,1.565193)"
       style="fill:#e0eaea;fill-opacity:1">
      <path
         d="m 0,0 c 0,-0.353 -0.287,-0.642 -0.64,-0.642 h -9.46 c -0.353,0 -0.64,0.289 -0.64,0.642 v 3.687 c 0,0.353 0.287,0.642 0.64,0.642 h 9.46 C -0.287,4.329 0,4.04 0,3.687 Z"
         style="fill:#e0eaea;fill-opacity:1;fill-rule:nonzero;stroke:none"
         id="path1849" />
    </g>
    <path
       style="fill:#4ba0cb;fill-opacity:0.796853;stroke:#3e84ad;stroke-width:0.00334738;stroke-opacity:0.607692"
       d="M 0.88319344,2.9421091 C 0.8773612,2.9415203 0.85588913,2.9394274 0.83547732,2.9374861 0.76827919,2.9310578 0.67241003,2.9058139 0.61103669,2.8783891 0.45635011,2.8092672 0.34643614,2.6998329 0.29824881,2.5669666 c -0.020156,-0.055576 -0.0229965,-0.073253 -0.022936,-0.1427467 4.141e-5,-0.047763 0.001511,-0.067812 0.006465,-0.08818 C 0.32605946,2.1539781 0.47829687,2.0092295 0.69574944,1.9424323 0.9395185,1.8675513 1.2263678,1.9188875 1.4058688,2.0695194 c 0.091333,0.076644 0.1490635,0.1677051 0.1720828,0.2714341 0.010545,0.047513 0.010633,0.1219014 1.999e-4,0.1686951 C 1.5486104,2.642163 1.4603161,2.7574433 1.3267719,2.8378571 1.286358,2.862192 1.2065067,2.8968983 1.158883,2.9108268 1.0740755,2.9356309 0.95398212,2.9492582 0.88319209,2.9421092 Z"
       id="path20198" />
    <path
       style="fill:#4ea2cb;fill-opacity:0.8;stroke:#3e84ad;stroke-width:0.00334738;stroke-opacity:0.607692"
       d="m 0.59517578,1.6942849 c -0.001178,-0.00393 -0.002149,-0.1123434 -0.002177,-0.2409341 l -5.046e-5,-0.233801 H 0.94301238 1.2930748 l -0.00103,0.2390865 c -5.636e-4,0.1314975 -0.00214,0.2400865 -0.00351,0.2413087 -0.00137,0.00122 -0.027608,-0.00362 -0.05832,-0.010762 C 1.1441598,1.669173 1.1035514,1.663931 1.0016795,1.659685 0.85825741,1.653715 0.76870378,1.661905 0.63443863,1.693341 c -0.0189785,0.00444 -0.035095,0.00808 -0.0358166,0.00808 -7.2098e-4,0 -0.002273,-0.00322 -0.003438,-0.00713 z"
       id="path20276" />
    <path
       style="fill:#4ea2cb;fill-opacity:0.8;stroke:#ccf5ff;stroke-width:0.0100879;stroke-miterlimit:4;stroke-dasharray:none;stroke-opacity:0.9"
       d="m 1.4515646,0.83455405 c -0.010717,-8.2096e-4 -0.011997,-0.004449 -0.011929,-0.0337255 5.54e-5,-0.0231248 7.287e-4,-0.0264922 0.00571,-0.0284684 0.00519,-0.002067 0.020384,-0.002272 0.191931,-0.002639 0.1024612,-2.1961e-4 0.1954521,-2.631e-5 0.2066465,4.283e-4 0.018522,7.5499e-4 0.020571,0.001136 0.022767,0.004273 0.00312,0.004464 0.00315,0.0515734 3.92e-5,0.0560212 -0.00173,0.002448 -0.00521,0.003621 -0.012593,0.004207 -0.01125,8.8694e-4 -0.3908093,7.9898e-4 -0.4025636,-1.0166e-4 z"
       id="path20315" />
    <path
       style="fill:#4ea2cb;fill-opacity:0.8;stroke:#ccf7ff;stroke-width:0.0126071;stroke-miterlimit:4;stroke-dasharray:none;stroke-opacity:0.896154"
       d="m 1.4873966,0.47824191 c -0.029691,-0.001154 -0.031933,-0.003886 -0.031933,-0.0389059 v -0.0303762 l 0.011903,-0.003457 c 0.00949,-0.002755 0.019342,-0.003664 0.048563,-0.004479 0.049185,-0.001371 0.4981491,-1.7483e-4 0.5079873,0.001355 0.01241,0.001929 0.014309,0.007231 0.014309,0.0399478 0,0.0276462 -8.319e-4,0.0311511 -0.00788,0.0335352 -0.00737,0.00249 -0.024521,0.002673 -0.2670998,0.002846 -0.1425701,1.0117e-4 -0.2667031,-1.08e-4 -0.2758494,-4.6473e-4 z"
       id="path20432" />
    <path
       style="fill:#4ea2cb;fill-opacity:0.8;stroke:#f9feff;stroke-width:0.00027334;stroke-miterlimit:4;stroke-dasharray:none;stroke-opacity:1"
       d="m 1.5030962,1.5681208 c -0.05215,-9.089e-4 -0.053345,-0.00176 -0.053301,-0.038265 3.9e-5,-0.03279 0.00347,-0.042175 0.01641,-0.044888 0.019372,-0.00406 0.029889,-0.00425 0.2556485,-0.0046 0.1175509,-1.813e-4 0.2351132,5.9e-5 0.262021,5.346e-4 0.044136,7.843e-4 0.049863,0.00108 0.059851,0.00319 0.01077,0.00225 0.011142,0.00272 0.014932,0.018714 0.00235,0.00997 0.00235,0.025439 -8.5e-6,0.039453 -0.00342,0.020256 -0.00481,0.023247 -0.011444,0.024638 -0.00706,0.00148 -0.02378,0.00158 -0.2603545,0.00168 -0.1390442,5.61e-5 -0.2667323,-1.446e-4 -0.2837511,-4.402e-4 z"
       id="path25140" />
    <path
       style="fill:#4ea2cb;fill-opacity:0.8;stroke:#ccf6ff;stroke-width:0.0116809;stroke-miterlimit:4;stroke-dasharray:none;stroke-opacity:0.9"
       d="m 1.4867633,1.1586736 c -0.0025,-1.434e-4 -0.0069,-4.017e-4 -0.00979,-5.744e-4 -0.0033,-1.955e-4 -0.00667,-0.00117 -0.00907,-0.00262 -0.00337,-0.00204 -0.0038,-0.00502 -0.0036,-0.025661 2.453e-4,-0.027013 8.319e-4,-0.028144 0.015713,-0.030197 0.00873,-0.0012 0.013542,-0.00124 0.1473808,-0.00124 0.1030582,0 0.1399198,1.93e-4 0.1444775,7.55e-4 0.00336,4.15e-4 0.00796,0.00152 0.010206,0.00247 0.00378,0.00158 0.00408,0.00367 0.00397,0.027579 -8.48e-5,0.017571 -9.415e-4,0.026386 -0.00266,0.027488 -0.00188,0.00121 -0.00474,0.00172 -0.011216,0.00202 -0.00947,4.316e-4 -0.2780071,4.316e-4 -0.2854032,-2e-7 z"
       id="path25179" />
  </g>
</svg>
