<?xml version="1.0" encoding="UTF-8" standalone="no"?>
<!-- Created with Inkscape (http://www.inkscape.org/) -->

<svg
   width="8"
   height="12"
   viewBox="0 0 2.1166668 3.1750006"
   version="1.1"
   id="svg2249"
   inkscape:version="1.1.1 (3bf5ae0d25, 2021-09-20)"
   sodipodi:docname="tempPlus.svg"
   xmlns:inkscape="http://www.inkscape.org/namespaces/inkscape"
   xmlns:sodipodi="http://sodipodi.sourceforge.net/DTD/sodipodi-0.dtd"
   xmlns="http://www.w3.org/2000/svg"
   xmlns:svg="http://www.w3.org/2000/svg">
  <sodipodi:namedview
     id="namedview2251"
     pagecolor="#ffffff"
     bordercolor="#666666"
     borderopacity="1.0"
     inkscape:pageshadow="2"
     inkscape:pageopacity="0.0"
     inkscape:pagecheckerboard="0"
     inkscape:document-units="px"
     showgrid="false"
     units="px"
     inkscape:zoom="17.375939"
     inkscape:cx="15.135873"
     inkscape:cy="17.006275"
     inkscape:window-width="2400"
     inkscape:window-height="1321"
     inkscape:window-x="2391"
     inkscape:window-y="-9"
     inkscape:window-maximized="1"
     inkscape:current-layer="layer1"
     height="35px" />
  <defs
     id="defs2246">
    <clipPath
       clipPathUnits="userSpaceOnUse"
       id="clipPath1825">
      <path
         d="m 7278.53,6813.28 h 20.78 v -5.79 h -20.78 z"
         id="path1823" />
    </clipPath>
  </defs>
  <g
     inkscape:label="Слой 1"
     inkscape:groupmode="layer"
     id="layer1"
     style="display:inline">
    <g
       id="g1799"
       transform="matrix(0.04594846,0,0,-0.04007931,0.93780758,2.0614862)"
       style="fill:#e1ebeb;fill-opacity:1">
      <path
         d="m 0,0 c 3.832,0 7.39,-1.134 10.39,-3.063 v 45.73 c 0,4.019 -3.287,7.305 -7.306,7.305 h -6.17 c -4.018,0 -7.305,-3.286 -7.305,-7.305 V -3.065 C -7.393,-1.134 -3.832,0 0,0"
         style="fill:#e1ebeb;fill-opacity:1;fill-rule:nonzero;stroke:none"
         id="path1801" />
    </g>
    <g
       id="g1803"
       transform="matrix(0.04594846,0,0,-0.03554385,1.81539,2.4699309)"
       style="fill:#e0ebeb;fill-opacity:1">
      <path
         d="m 0,0 c 0,-10.623 -8.612,-19.235 -19.236,-19.235 -10.625,0 -19.239,8.612 -19.239,19.235 0,10.625 8.614,19.239 19.239,19.239 C -8.612,19.239 0,10.625 0,0"
         style="fill:#e0ebeb;fill-opacity:1;fill-rule:nonzero;stroke:none"
         id="path1805" />
    </g>
    <g
       id="g1819"
       transform="matrix(0.04594846,0,0,-0.03554385,-333.98302,243.85952)">
      <g
         id="g1821" />
      <g
         id="g1833">
        <g
           clip-path="url(#clipPath1825)"
           opacity="0.199997"
           id="g1831">
          <g
             transform="translate(7288.918,6813.2813)"
             id="g1829">
            <path
               d="m 0,0 c -3.759,0 -7.296,-0.948 -10.391,-2.611 v -3.178 c 2.998,1.932 6.559,3.065 10.391,3.065 3.832,0 7.39,-1.133 10.39,-3.063 v 3.176 C 7.295,-0.948 3.758,0 0,0"
               style="fill:#122c3d;fill-opacity:1;fill-rule:nonzero;stroke:none"
               id="path1827" />
          </g>
        </g>
      </g>
    </g>
    <g
       id="g1835"
       transform="matrix(0.05977637,0,0,-0.02235056,2.0976326,0.47240603)"
       style="fill:#e0ebeb;fill-opacity:1">
      <path
         d="m 0,0 c 0,-0.353 -0.287,-0.642 -0.64,-0.642 h -9.46 c -0.353,0 -0.64,0.289 -0.64,0.642 v 3.687 c 0,0.353 0.287,0.642 0.64,0.642 h 9.46 C -0.287,4.329 0,4.04 0,3.687 Z"
         style="fill:#e0ebeb;fill-opacity:1;fill-rule:nonzero;stroke:none"
         id="path1837" />
    </g>
    <g
       id="g1839"
       transform="matrix(0.07843222,0,0,-0.01899655,1.9210444,0.83453498)"
       style="fill:#e0ebeb;fill-opacity:1">
      <path
         d="m 0,0 c 0,-0.353 -0.287,-0.64 -0.641,-0.64 h -4.81 c -0.354,0 -0.641,0.287 -0.641,0.64 v 3.687 c 0,0.353 0.287,0.642 0.641,0.642 h 4.81 C -0.287,4.329 0,4.04 0,3.687 Z"
         style="fill:#e0ebeb;fill-opacity:1;fill-rule:nonzero;stroke:none"
         id="path1841" />
    </g>
    <g
       id="g1843"
       transform="matrix(0.06037314,0,0,-0.01879213,1.8357805,1.1650304)"
       style="fill:#e0eaea;fill-opacity:1">
      <path
         d="m 0,0 c 0,-0.353 -0.287,-0.642 -0.641,-0.642 h -4.81 c -0.354,0 -0.641,0.289 -0.641,0.642 v 3.687 c 0,0.353 0.287,0.64 0.641,0.64 h 4.81 C -0.287,4.327 0,4.04 0,3.687 Z"
         style="fill:#e0eaea;fill-opacity:1;fill-rule:nonzero;stroke:none"
         id="path1845" />
    </g>
    <g
       id="g1847"
       transform="matrix(0.06171443,0,0,-0.02351488,2.1122595,1.5746195)"
       style="fill:#e0eaea;fill-opacity:1">
      <path
         d="m 0,0 c 0,-0.353 -0.287,-0.642 -0.64,-0.642 h -9.46 c -0.353,0 -0.64,0.289 -0.64,0.642 v 3.687 c 0,0.353 0.287,0.642 0.64,0.642 h 9.46 C -0.287,4.329 0,4.04 0,3.687 Z"
         style="fill:#e0eaea;fill-opacity:1;fill-rule:nonzero;stroke:none"
         id="path1849" />
    </g>
    <path
       style="fill:#e57900;fill-opacity:0.6;stroke:#3e84ad;stroke-width:0.00343391;stroke-opacity:0.607692"
       d="m 0.88336961,2.9742979 c -0.00604,-5.973e-4 -0.0282666,-0.00272 -0.0493981,-0.0047 C 0.76440452,2.9630638 0.66515583,2.9374027 0.60161902,2.9095245 0.44147947,2.83926 0.32769092,2.7280166 0.27780489,2.5929537 0.25693833,2.5364585 0.25399775,2.5184897 0.25406032,2.4478474 c 4.288e-5,-0.048553 0.001564,-0.068933 0.006693,-0.089638 0.0458426,-0.1850716 0.20344658,-0.3322132 0.42856466,-0.4001145 0.25236227,-0.076119 0.54932332,-0.023934 0.73515192,0.129188 0.094553,0.077911 0.1543182,0.1704775 0.1781491,0.2759212 0.010915,0.048298 0.011007,0.1239167 2.068e-4,0.171484 -0.030582,0.1347049 -0.1219892,0.2518909 -0.260241,0.3336341 -0.041838,0.024738 -0.1245047,0.060017 -0.1738071,0.074176 -0.087797,0.025214 -0.21212405,0.039066 -0.28540962,0.0318 z"
       id="path20198" />
    <path
       style="fill:#d67300;fill-opacity:0.6;stroke:#3e84ad;stroke-width:0.00343391;stroke-opacity:0.607692"
       d="m 0.58519892,1.7058456 c -0.001211,-0.00399 -0.002226,-0.1142006 -0.00225,-0.2449171 l -5.179e-5,-0.237666 h 0.3623999 0.36240277 l -0.00107,0.2430388 c -5.849e-4,0.1336714 -0.00222,0.2440555 -0.00363,0.245298 -0.00141,0.00124 -0.028582,-0.00369 -0.060377,-0.01094 -0.089091,-0.020342 -0.1311308,-0.02567 -0.2365937,-0.029985 -0.14847782,-0.00608 -0.24118849,0.00226 -0.38018667,0.034212 -0.0196471,0.00451 -0.0363322,0.00821 -0.0370789,0.00821 -7.4593e-4,0 -0.002351,-0.00326 -0.003562,-0.00725 z"
       id="path20276" />
    <path
       style="fill:#e57a00;fill-opacity:0.6;stroke:#ccf5ff;stroke-width:0.0103487;stroke-miterlimit:4;stroke-dasharray:none;stroke-opacity:0.9"
       d="m 1.4717765,0.83190219 c -0.011094,-8.3309e-4 -0.012421,-0.004515 -0.012349,-0.0342824 5.72e-5,-0.0235065 7.533e-4,-0.0269304 0.0059,-0.0289394 0.00537,-0.002098 0.021101,-0.002313 0.1986968,-0.002685 0.1060732,-2.2322e-4 0.2023421,-2.685e-5 0.2139311,4.3529e-4 0.019174,7.6615e-4 0.021296,0.001153 0.02357,0.004351 0.00323,0.00453 0.00326,0.0524258 4.05e-5,0.0569468 -0.00178,0.002492 -0.00539,0.003682 -0.013037,0.00427 -0.011646,9.0748e-4 -0.4045859,8.1078e-4 -0.4167548,-1.0331e-4 z"
       id="path20315" />
    <path
       style="fill:#e57b00;fill-opacity:0.6;stroke:#ccf7ff;stroke-width:0.0129328;stroke-miterlimit:4;stroke-dasharray:none;stroke-opacity:0.896154"
       d="m 1.5088717,0.46969979 c -0.030737,-0.001175 -0.033058,-0.00395 -0.033058,-0.0395491 v -0.0308783 l 0.012324,-0.003515 c 0.00982,-0.002802 0.020024,-0.003725 0.050276,-0.004553 0.050918,-0.001394 0.5157096,-1.7772e-4 0.5258946,0.001378 0.012848,0.001961 0.014814,0.007351 0.014814,0.0406082 0,0.0281031 -8.542e-4,0.0316661 -0.00816,0.0340896 -0.00763,0.002531 -0.025386,0.002717 -0.2765162,0.002892 C 1.6468513,0.470275 1.5183425,0.47006238 1.5088717,0.46969979 Z"
       id="path20432" />
    <path
       style="fill:#e57b00;fill-opacity:0.6;stroke:#f9feff;stroke-width:0.000280405;stroke-miterlimit:4;stroke-dasharray:none;stroke-opacity:1"
       d="m 1.5251248,1.5775957 c -0.053988,-9.297e-4 -0.055224,-0.00179 -0.055179,-0.038898 4.03e-5,-0.033332 0.0036,-0.042873 0.016989,-0.045631 0.020055,-0.00413 0.030942,-0.00432 0.2646606,-0.00468 0.1216946,-1.844e-4 0.2434013,5.99e-5 0.2712577,5.432e-4 0.045692,7.959e-4 0.05162,0.0011 0.06196,0.00323 0.011148,0.00229 0.011535,0.00277 0.015457,0.019023 0.00244,0.010132 0.00244,0.025859 -8.9e-6,0.040105 -0.00354,0.020592 -0.00499,0.023632 -0.011848,0.025044 -0.00731,0.0015 -0.024618,0.00161 -0.2695323,0.00171 -0.1439459,5.57e-5 -0.2761351,-1.484e-4 -0.293754,-4.488e-4 z"
       id="path25140" />
    <path
       style="fill:#e57b00;fill-opacity:0.6;stroke:#ccf6ff;stroke-width:0.0119827;stroke-miterlimit:4;stroke-dasharray:none;stroke-opacity:0.9"
       d="m 1.5082161,1.1613799 c -0.00258,-1.458e-4 -0.00715,-4.084e-4 -0.010135,-5.838e-4 -0.00341,-1.989e-4 -0.00691,-0.00119 -0.00939,-0.00267 -0.00349,-0.00208 -0.00392,-0.0051 -0.00373,-0.026085 2.539e-4,-0.027459 8.677e-4,-0.028609 0.016266,-0.030696 0.00903,-0.00123 0.014019,-0.00126 0.1525763,-0.00126 0.1066912,0 0.1448523,1.962e-4 0.1495706,7.662e-4 0.00348,4.218e-4 0.00824,0.00155 0.010566,0.0025 0.00391,0.00161 0.00422,0.00373 0.0041,0.028035 -8.79e-5,0.017862 -9.686e-4,0.026822 -0.00275,0.027943 -0.00195,0.00123 -0.00491,0.00176 -0.011611,0.00205 -0.0098,4.387e-4 -0.2878071,4.387e-4 -0.295464,-10e-8 z"
       id="path25179" />
  </g>
</svg>
