<?xml version="1.0" encoding="UTF-8" standalone="no"?>
<!-- Generator: Adobe Illustrator 22.0.1, SVG Export Plug-In . SVG Version: 6.00 Build 0)  -->

<svg
   version="1.1"
   id="Layer_1"
   x="0px"
   y="0px"
   viewBox="0 0 30 30"
   xml:space="preserve"
   sodipodi:docname="westWind.svg"
   width="30"
   height="30"
   inkscape:version="1.1.1 (3bf5ae0d25, 2021-09-20)"
   xmlns:inkscape="http://www.inkscape.org/namespaces/inkscape"
   xmlns:sodipodi="http://sodipodi.sourceforge.net/DTD/sodipodi-0.dtd"
   xmlns="http://www.w3.org/2000/svg"
   xmlns:svg="http://www.w3.org/2000/svg"><defs
   id="defs7" /><sodipodi:namedview
   id="namedview5"
   pagecolor="#ffffff"
   bordercolor="#666666"
   borderopacity="1.0"
   inkscape:pageshadow="2"
   inkscape:pageopacity="0.0"
   inkscape:pagecheckerboard="0"
   showgrid="false"
   inkscape:zoom="7.1833332"
   inkscape:cx="60.974479"
   inkscape:cy="18.306265"
   inkscape:window-width="2400"
   inkscape:window-height="1321"
   inkscape:window-x="2391"
   inkscape:window-y="-9"
   inkscape:window-maximized="1"
   inkscape:current-layer="Layer_1"
   width="140px" />
<path
   d="M 15.103519,25.061343 C 13.282518,24.959529 11.621191,24.425513 10.127954,23.468393 8.6347178,22.511268 7.4810267,21.261728 6.6668823,19.719776 5.8527372,18.177824 5.5014259,16.531999 5.6040121,14.781795 5.6808253,13.471302 6.0224041,12.227506 6.6193072,11.058535 7.2162155,9.889569 7.9993965,8.904008 8.9430822,8.0831235 9.8867773,7.2622425 10.998381,6.632393 12.277895,6.1935749 c 1.279524,-0.438814 2.589017,-0.6251047 3.963696,-0.5482539 1.356821,0.075852 2.644922,0.4073633 3.855886,0.9854096 1.210958,0.5780422 2.241201,1.3362816 3.083314,2.2483533 0.84211,0.9120665 1.495578,1.9865961 1.951997,3.2144521 0.456416,1.227859 0.650928,2.492971 0.573608,3.812085 -0.07731,1.319122 -0.4194,2.571536 -1.016306,3.740509 -0.59691,1.168966 -1.380593,2.163144 -2.32428,2.984033 -0.943687,0.820888 -2.054785,1.442116 -3.316959,1.890545 -1.262176,0.448439 -2.579587,0.616982 -3.945332,0.540635 z m 0.125327,-2.138179 c 2.115571,0.118268 3.997883,-0.520394 5.647442,-1.92461 1.631701,-1.40522 2.503482,-3.13837 2.625274,-5.21619 0.07984,-1.362224 -0.193999,-2.649075 -0.831468,-3.843805 C 22.032622,10.743829 21.140998,9.7597937 19.975849,9.0113107 18.810702,8.2628256 17.527653,7.8450994 16.11727,7.7662482 14.706891,7.6874048 13.374487,7.9589167 12.12949,8.5726554 10.884494,9.1863966 9.8752881,10.055522 9.1018733,11.180024 8.3284601,12.30453 7.9065442,13.54383 7.8267005,14.906056 c -0.079847,1.362224 0.1939994,2.649076 0.8314686,3.843807 0.6374698,1.194726 1.5380239,2.179265 2.7026689,2.936367 1.164643,0.757102 2.457628,1.158086 3.868008,1.236934 z M 20.697945,18.999101 9.1848666,15.111733 c -0.088757,-0.01363 -0.1308616,-0.05922 -0.1263069,-0.136817 0.00453,-0.07759 0.051709,-0.118208 0.1414685,-0.121843 L 21.091621,12.282812 c 0.100215,-0.029 0.171121,-0.01638 0.22215,0.02972 0.05102,0.04611 0.04699,0.115075 -0.01222,0.206917 l -1.335802,2.926844 c -0.04077,0.08422 -0.04581,0.170437 -0.01466,0.250031 l 0.983566,3.08246 c 0.0485,0.08921 0.04497,0.14956 -0.01053,0.181059 -0.05559,0.03151 -0.137938,0.06149 -0.226192,0.03923 z"
   id="path2"
   style="fill:#2c4f54;fill-opacity:0.5;stroke:#2e3332;stroke-width:0.054174;stroke-miterlimit:4;stroke-dasharray:none;stroke-opacity:0.9" />
<path
   style="fill:#1f4347;fill-opacity:0.81;stroke:#e4e7e7;stroke-width:0.054174;stroke-miterlimit:4;stroke-dasharray:none;stroke-opacity:0.9"
   d="m 23.11392,16.535169 c -0.05961,0.363857 -0.153633,0.762176 -0.260515,1.103651 -0.601023,1.920111 -2.240767,3.652282 -4.23519,4.473902 -1.073563,0.442259 -2.007812,0.592829 -3.238556,0.521944 -1.263253,-0.07272 -2.211893,-0.341808 -3.254259,-0.92294 -0.702558,-0.391685 -1.254106,-0.821297 -1.828585,-1.424325 -1.1400941,-1.19675 -1.8039986,-2.56215 -2.0217847,-4.157993 -0.04536,-0.332342 -0.047068,-0.469401 -0.014854,-1.187047 0.03912,-0.871088 0.0759,-1.115399 0.2618435,-1.739094 0.2808521,-0.941964 0.866166,-1.96992 1.5640922,-2.746913 0.28468,-0.316934 0.957978,-0.8959673 1.324469,-1.1390282 0.886964,-0.5882637 1.867063,-0.9907807 2.829238,-1.1619279 0.709529,-0.1262159 0.960134,-0.1387958 1.804978,-0.090621 0.595979,0.034008 0.847762,0.060154 1.104731,0.1148623 1.560611,0.3322006 2.979424,1.1365769 4.054339,2.2985568 1.100877,1.190055 1.784836,2.670463 1.951559,4.2241 0.03843,0.358141 0.0125,1.503167 -0.0415,1.832879 z m -2.793608,0.656394 c -0.274133,-0.833556 -0.504661,-1.546051 -0.512284,-1.583322 -0.0094,-0.04599 0.199858,-0.554433 0.651649,-1.583231 0.383095,-0.872377 0.659402,-1.537719 0.651118,-1.5679 -0.01718,-0.06255 -0.128083,-0.101435 -0.240747,-0.0844 -0.04473,0.0068 -2.638459,0.571774 -5.763851,1.25558 -5.4767658,1.19826 -5.6836773,1.245976 -5.7141631,1.317694 -0.023552,0.05543 -0.021167,0.08555 0.00948,0.118051 0.050704,0.05376 11.0793001,3.812676 11.2078731,3.819992 0.116165,0.0066 0.237925,-0.06416 0.221535,-0.12878 -0.0068,-0.02645 -0.236493,-0.73013 -0.510627,-1.563687 z"
   id="path861" /><rect
   style="fill:#c7485e;fill-opacity:1;stroke:#3c4343;stroke-width:0.232608;stroke-opacity:0.9"
   id="rect2803"
   width="2.5215824"
   height="0.030316774"
   x="-16.349459"
   y="13.817656"
   transform="matrix(0.00381646,-0.99999272,0.9999253,0.01222278,0,0)"
   inkscape:transform-center-x="-1.5063253"
   inkscape:transform-center-y="1.3758054" /><path
   style="fill:#cd425c;fill-opacity:1;stroke:#e27364;stroke-width:0.0182847;stroke-opacity:0.9"
   d="m 13.461679,16.35675 c -0.04444,-0.01459 -1.005551,-0.317462 -2.135819,-0.673075 -1.130269,-0.355611 -2.0812077,-0.660942 -2.1131904,-0.678507 -0.050324,-0.02767 4.1988954,-0.920147 4.3437084,-0.912352 0.03956,0.002 0.04489,0.307855 0.02,1.146666 -0.03172,1.069562 -0.03918,1.142053 -0.114694,1.117268 z"
   id="path3397"
   inkscape:transform-center-x="0.81489145"
   inkscape:transform-center-y="1.2483843" /><text
   xml:space="preserve"
   style="font-size:4.79156px;line-height:1.25;font-family:'Segoe Script';-inkscape-font-specification:'Segoe Script';fill:#16272a;fill-opacity:0.799714;stroke-width:0.11979"
   x="4.3129773"
   y="19.482531"
   id="text17884"
   transform="scale(1.3285288,0.75271233)"><tspan
     sodipodi:role="line"
     id="tspan17882"
     x="4.3129773"
     y="19.482531"
     style="stroke-width:0.11979">_</tspan></text><text
   xml:space="preserve"
   style="font-size:4.72029px;line-height:1.25;font-family:'Segoe Script';-inkscape-font-specification:'Segoe Script';fill:#16272a;fill-opacity:0.799714;stroke-width:0.118007"
   x="17.507507"
   y="19.073311"
   id="text17884-6"
   transform="scale(1.3087486,0.7640887)"><tspan
     sodipodi:role="line"
     id="tspan17882-2"
     x="17.507507"
     y="19.073311"
     style="stroke-width:0.118007">_</tspan></text><text
   xml:space="preserve"
   style="font-size:4.06407px;line-height:1.25;font-family:'Segoe Script';-inkscape-font-specification:'Segoe Script';fill:#16272a;fill-opacity:0.799714;stroke-width:0.101601"
   x="-20.309908"
   y="18.613564"
   id="text17884-0"
   transform="matrix(-0.01960633,-1.276162,0.78281956,-0.05077016,0,0)"><tspan
     sodipodi:role="line"
     id="tspan17882-4"
     x="-20.309908"
     y="18.613564"
     style="stroke-width:0.101601">_</tspan></text><text
   xml:space="preserve"
   style="font-size:4.83865px;line-height:1.25;font-family:'Segoe Script';-inkscape-font-specification:'Segoe Script';fill:#16272a;fill-opacity:0.799714;stroke-width:0.120966"
   x="-6.4577217"
   y="20.219681"
   id="text17884-9"
   transform="matrix(5.1948688e-4,-1.3159499,0.75990676,0.00142897,0,0)"><tspan
     sodipodi:role="line"
     id="tspan17882-7"
     x="-6.4577217"
     y="20.219681"
     style="stroke-width:0.120966">_</tspan></text><text
   xml:space="preserve"
   style="font-size:6.33577px;line-height:1.25;font-family:'Segoe Script';-inkscape-font-specification:'Segoe Script';fill:#161616;fill-opacity:1;stroke-width:0.158395"
   x="18.285648"
   y="23.021063"
   id="text19318"
   transform="scale(1.3990385,0.71477661)"><tspan
     sodipodi:role="line"
     id="tspan19316"
     x="18.285648"
     y="23.021063"
     style="fill:#161616;fill-opacity:1;stroke-width:0.158395">в</tspan></text><text
   xml:space="preserve"
   style="font-size:5.28272px;line-height:1.25;font-family:'Segoe Script';-inkscape-font-specification:'Segoe Script';fill:#151515;fill-opacity:1;stroke-width:0.132067"
   x="15.000924"
   y="26.009672"
   id="text11307"
   transform="scale(0.89251233,1.1204327)"><tspan
     sodipodi:role="line"
     id="tspan11305"
     x="15.000924"
     y="26.009672"
     style="fill:#151515;fill-opacity:1;stroke-width:0.132067">ю</tspan></text><text
   xml:space="preserve"
   style="font-size:6.08426px;line-height:1.25;font-family:'Segoe Script';-inkscape-font-specification:'Segoe Script';fill:#131313;fill-opacity:1;stroke-width:0.152106"
   x="0.83366835"
   y="21.868807"
   id="text16794"
   transform="scale(1.3836789,0.72271104)"><tspan
     sodipodi:role="line"
     id="tspan16792"
     x="0.83366835"
     y="21.868807"
     style="fill:#131313;fill-opacity:1;stroke-width:0.152106">з</tspan></text><text
   xml:space="preserve"
   style="font-size:6.61394px;line-height:1.25;font-family:'Segoe Script';-inkscape-font-specification:'Segoe Script';fill:#0e0e0e;fill-opacity:1;stroke-width:0.165348"
   x="13.874318"
   y="5.0386553"
   id="text9344"
   transform="scale(1.0028045,0.99720335)"><tspan
     sodipodi:role="line"
     id="tspan9342"
     x="13.874318"
     y="5.0386553"
     style="fill:#0e0e0e;fill-opacity:1;stroke-width:0.165348">c</tspan></text></svg>
