<?xml version="1.0" encoding="UTF-8" standalone="no"?>
<!-- Generator: Adobe Illustrator 19.0.0, SVG Export Plug-In . SVG Version: 6.00 Build 0)  -->

<svg
   version="1.1"
   id="Capa_1"
   x="0px"
   y="0px"
   viewBox="0 0 14 14"
   xml:space="preserve"
   sodipodi:docname="barometer.svg"
   inkscape:version="1.1.1 (3bf5ae0d25, 2021-09-20)"
   width="14"
   height="14"
   xmlns:inkscape="http://www.inkscape.org/namespaces/inkscape"
   xmlns:sodipodi="http://sodipodi.sourceforge.net/DTD/sodipodi-0.dtd"
   xmlns="http://www.w3.org/2000/svg"
   xmlns:svg="http://www.w3.org/2000/svg"><defs
   id="defs920" /><sodipodi:namedview
   id="namedview918"
   pagecolor="#ffffff"
   bordercolor="#666666"
   borderopacity="1.0"
   inkscape:pageshadow="2"
   inkscape:pageopacity="0.0"
   inkscape:pagecheckerboard="0"
   showgrid="false"
   inkscape:zoom="26.551108"
   inkscape:cx="16.119855"
   inkscape:cy="14.217862"
   inkscape:window-width="2400"
   inkscape:window-height="1321"
   inkscape:window-x="2391"
   inkscape:window-y="-9"
   inkscape:window-maximized="1"
   inkscape:current-layer="Capa_1" />
<g
   id="g885"
   transform="matrix(0.02895327,0,0,0.02862749,0.1593925,0.24227284)"
   style="fill:#bebfb9;fill-opacity:0.585122;stroke:#272727;stroke-width:3.19396;stroke-miterlimit:4;stroke-dasharray:none;stroke-opacity:0.9">
	<path
   d="M 401.17,68.83 C 356.785,24.444 297.771,0 235,0 172.229,0 113.215,24.444 68.83,68.83 24.444,113.216 0,172.229 0,235 0,297.771 24.444,356.784 68.83,401.17 113.215,445.556 172.229,470 235,470 297.771,470 356.785,445.556 401.17,401.17 445.556,356.784 470,297.771 470,235 470,172.229 445.556,113.216 401.17,68.83 Z M 235,455 C 113.691,455 15,356.309 15,235 15,113.691 113.691,15 235,15 c 121.309,0 220,98.691 220,220 0,121.309 -98.691,220 -220,220 z"
   id="path873"
   style="fill:#bebfb9;fill-opacity:0.585122;stroke:#272727;stroke-width:3.19396;stroke-miterlimit:4;stroke-dasharray:none;stroke-opacity:0.9" />
	<path
   d="M 235,30 C 121.962,30 30,121.963 30,235 30,348.037 121.962,440 235,440 348.038,440 440,348.037 440,235 440,121.963 348.038,30 235,30 Z m 0,395 C 130.234,425 45,339.767 45,235 45,130.233 130.234,45 235,45 c 104.766,0 190,85.233 190,190 0,104.767 -85.234,190 -190,190 z"
   id="path875"
   style="fill:#bebfb9;fill-opacity:0.585122;stroke:#272727;stroke-width:3.19396;stroke-miterlimit:4;stroke-dasharray:none;stroke-opacity:0.9" />
	<path
   d="m 369.968,157.838 c -0.092,-0.198 -0.19,-0.395 -0.301,-0.588 -0.136,-0.235 -0.283,-0.458 -0.439,-0.673 -13.509,-23.033 -32.772,-42.296 -55.805,-55.805 -0.214,-0.156 -0.438,-0.304 -0.673,-0.439 -0.193,-0.111 -0.389,-0.208 -0.587,-0.301 C 289.41,86.974 263.062,79.5 235,79.5 c -28.063,0 -54.412,7.474 -77.165,20.534 -0.197,0.092 -0.393,0.189 -0.585,0.299 -0.235,0.136 -0.458,0.283 -0.673,0.439 -23.033,13.509 -42.296,32.772 -55.805,55.805 -0.156,0.214 -0.304,0.438 -0.439,0.673 -0.111,0.193 -0.209,0.39 -0.301,0.588 C 86.974,180.59 79.5,206.938 79.5,235 c 0,27.312 7.215,54.195 20.873,77.762 0.385,0.66 3.967,6.332 11.159,2.183 l 20.697,-11.949 c 3.587,-2.071 4.816,-6.658 2.745,-10.245 -2.071,-3.588 -6.658,-4.815 -10.245,-2.745 0,0 -8.613,4.973 -14.966,8.641 -8.874,-17.413 -14.004,-36.571 -15.052,-56.146 H 112 c 4.142,0 7.5,-3.357 7.5,-7.5 0,-4.143 -3.358,-7.5 -7.5,-7.5 H 94.701 c 1.063,-20.119 6.379,-39.128 15.062,-56.146 l 14.966,8.641 c 1.181,0.682 2.471,1.006 3.743,1.006 2.592,0 5.113,-1.345 6.502,-3.751 2.071,-3.587 0.842,-8.174 -2.745,-10.245 l -14.94,-8.625 c 10.696,-16.377 24.713,-30.394 41.09,-41.09 l 8.625,14.939 c 1.389,2.406 3.91,3.751 6.502,3.751 1.272,0 2.562,-0.324 3.743,-1.006 3.587,-2.071 4.816,-6.658 2.745,-10.245 l -8.641,-14.966 C 188.37,101.081 207.38,95.765 227.498,94.702 V 112 c 0,4.143 3.358,7.5 7.5,7.5 4.142,0 7.5,-3.357 7.5,-7.5 V 94.701 c 20.119,1.063 39.128,6.379 56.145,15.062 l -8.641,14.966 c -2.071,3.587 -0.842,8.174 2.745,10.245 1.181,0.682 2.471,1.006 3.743,1.006 2.592,0 5.113,-1.345 6.502,-3.751 l 8.625,-14.939 c 16.377,10.697 30.394,24.713 41.09,41.09 l -14.94,8.625 c -3.587,2.071 -4.816,6.658 -2.745,10.245 1.389,2.406 3.91,3.751 6.502,3.751 1.272,0 2.562,-0.324 3.743,-1.006 l 14.966,-8.641 c 8.683,17.017 13.998,36.027 15.062,56.146 H 358 c -4.142,0 -7.5,3.357 -7.5,7.5 0,4.143 3.358,7.5 7.5,7.5 h 17.29 c -1.048,19.561 -6.172,38.723 -15.034,56.156 l -14.984,-8.651 c -3.588,-2.071 -8.174,-0.843 -10.245,2.745 -2.071,3.587 -0.842,8.174 2.745,10.245 l 21.651,12.5 c 1.181,0.682 2.47,1.006 3.743,1.006 2.59,0 5.11,-1.344 6.5,-3.748 13.63,-23.58 20.835,-50.467 20.835,-77.753 -10e-4,-28.062 -7.475,-54.41 -20.533,-77.162 z"
   id="path877"
   style="fill:#bebfb9;fill-opacity:0.585122;stroke:#272727;stroke-width:3.19396;stroke-miterlimit:4;stroke-dasharray:none;stroke-opacity:0.9" />
	<path
   d="m 260.554,189.15 c -3.618,-2.01 -8.179,-0.71 -10.192,2.904 l -11.582,20.769 c -1.23,-0.209 -2.491,-0.324 -3.78,-0.324 -12.407,0 -22.5,10.094 -22.5,22.5 0,1.404 0.136,2.776 0.383,4.109 l -62.173,35.896 c -3.587,2.071 -4.816,6.658 -2.745,10.245 1.389,2.406 3.91,3.751 6.502,3.751 1.272,0 2.562,-0.324 3.743,-1.006 l 62.184,-35.902 c 3.934,3.367 9.035,5.407 14.607,5.407 9.66,0 17.915,-6.12 21.098,-14.685 l 23.775,0.354 c 0.038,0.001 0.076,0.001 0.114,0.001 4.085,0 7.429,-3.277 7.497,-7.376 0.157,-9.47 -2.27,-18.821 -7.018,-27.045 -4.748,-8.221 -11.634,-14.998 -19.913,-19.598 z M 235,242.5 c -4.136,0 -7.5,-3.364 -7.5,-7.5 0,-4.136 3.364,-7.5 7.5,-7.5 1.302,0 2.528,0.335 3.596,0.921 0.019,0.011 0.035,0.023 0.054,0.034 2.297,1.29 3.85,3.738 3.85,6.545 0,0.032 -0.004,0.064 -0.005,0.096 -0.063,4.101 -3.398,7.404 -7.495,7.404 z m 21.317,-14.683 c -0.966,-2.858 -2.489,-5.461 -4.443,-7.677 l 7.571,-13.576 c 3.188,2.737 5.908,6.009 8.031,9.686 2.123,3.678 3.596,7.669 4.373,11.799 z"
   id="path879"
   style="fill:#bebfb9;fill-opacity:0.585122;stroke:#272727;stroke-width:3.19396;stroke-miterlimit:4;stroke-dasharray:none;stroke-opacity:0.9" />
	<path
   d="m 261.147,375.5 h -52.294 c -4.142,0 -7.5,3.357 -7.5,7.5 0,4.143 3.358,7.5 7.5,7.5 h 52.294 c 4.142,0 7.5,-3.357 7.5,-7.5 0,-4.143 -3.358,-7.5 -7.5,-7.5 z"
   id="path881"
   style="fill:#bebfb9;fill-opacity:0.585122;stroke:#272727;stroke-width:3.19396;stroke-miterlimit:4;stroke-dasharray:none;stroke-opacity:0.9" />
	<path
   d="m 251.147,360.5 c 4.142,0 7.5,-3.357 7.5,-7.5 0,-4.143 -3.358,-7.5 -7.5,-7.5 h -32.294 c -4.142,0 -7.5,3.357 -7.5,7.5 0,4.143 3.358,7.5 7.5,7.5 z"
   id="path883"
   style="fill:#bebfb9;fill-opacity:0.585122;stroke:#272727;stroke-width:3.19396;stroke-miterlimit:4;stroke-dasharray:none;stroke-opacity:0.9" />
</g>
<g
   id="g887">
</g>
<g
   id="g889">
</g>
<g
   id="g891">
</g>
<g
   id="g893">
</g>
<g
   id="g895">
</g>
<g
   id="g897">
</g>
<g
   id="g899">
</g>
<g
   id="g901">
</g>
<g
   id="g903">
</g>
<g
   id="g905">
</g>
<g
   id="g907">
</g>
<g
   id="g909">
</g>
<g
   id="g911">
</g>
<g
   id="g913">
</g>
<g
   id="g915">
</g>
<path
   style="fill:#c2c7ad;fill-opacity:1;stroke:#dedede;stroke-width:0.00714776;stroke-opacity:0.9"
   d="M 6.6935068,13.256406 C 5.5935244,13.189998 4.6767701,12.924386 3.7781802,12.411748 2.372914,11.610054 1.3005695,10.254988 0.85085526,8.712639 0.35260513,7.0038309 0.61369388,5.1498965 1.5639096,3.6493947 2.0013114,2.9586874 2.5966764,2.3296886 3.2563359,1.8613591 4.1652142,1.2160949 5.2272794,0.82123322 6.3620031,0.70671454 6.6320835,0.67945614 7.2971809,0.67915667 7.565885,0.70617046 c 1.3124435,0.13193769 2.504822,0.63073804 3.505794,1.46656034 0.889763,0.7429605 1.577547,1.7524434 1.940506,2.8481415 0.318879,0.9626279 0.394232,2.0379125 0.213981,3.0534716 -0.269117,1.5162391 -1.120466,2.9025491 -2.376649,3.8700631 -0.9194758,0.708184 -2.0363306,1.153651 -3.2051177,1.278392 -0.2444188,0.02609 -0.7686165,0.04461 -0.9508925,0.03361 z m 0.9247206,-0.447752 c 0.9636596,-0.107276 1.8278205,-0.417186 2.6256116,-0.941616 0.357693,-0.23513 0.594792,-0.428233 0.917146,-0.74696 0.401913,-0.39739 0.696444,-0.775368 0.968024,-1.2422858 C 13.082096,8.2391931 13.161815,6.1797003 12.33872,4.4599816 12.043309,3.8427686 11.67341,3.3282688 11.160395,2.8210269 10.82901,2.4933694 10.586003,2.2955909 10.226639,2.0610597 8.5875261,0.99132697 6.5204426,0.79520041 4.6968005,1.5363899 3.4916365,2.0262072 2.4470544,2.9362997 1.7963265,4.0634246 c -0.86587625,1.499787 -1.0152261,3.335625 -0.4034863,4.959737 0.2127793,0.5649076 0.5440161,1.1391414 0.9403765,1.6302424 0.1973352,0.244504 0.6600846,0.701826 0.9056718,0.895052 1.2554615,0.987785 2.8094402,1.434957 4.3793389,1.260198 z"
   id="path1778" /><path
   style="fill:#48a9c7;fill-opacity:1;stroke:#dedede;stroke-width:0;stroke-miterlimit:4;stroke-dasharray:none;stroke-opacity:0.9"
   d="M 6.6741324,12.404482 C 5.2963731,12.309564 4.1167719,11.796326 3.1517911,10.871933 2.46456,10.213606 1.9672344,9.4020223 1.7012721,8.5048338 1.1985864,6.8090889 1.5595268,4.9969716 2.6781188,3.6005287 2.8644827,3.3678734 3.3157135,2.92172 3.5510166,2.737451 3.9194917,2.4488975 4.362952,2.1845859 4.7810706,2.0043151 6.0178928,1.4710597 7.4048165,1.4072257 8.6833599,1.8247077 11.161461,2.6338796 12.729026,5.0640037 12.42169,7.6200718 12.182682,9.6078682 10.843053,11.312987 8.9458172,12.044256 8.2354447,12.318065 7.3826375,12.453295 6.6741324,12.404482 Z m 1.1792167,-1.000321 c 0.1295315,-0.08391 0.1237742,-0.308451 -0.00965,-0.376675 -0.076649,-0.03919 -1.6692514,-0.03919 -1.7458997,0 -0.063007,0.03221 -0.1041146,0.107136 -0.1041146,0.189748 0,0.07622 0.023644,0.125583 0.08452,0.176464 l 0.046338,0.03873 0.8424581,8e-5 c 0.75329,5.8e-5 0.8471059,-0.003 0.8863565,-0.02835 z M 7.5179705,10.5635 c 0.067351,-0.02783 0.1264357,-0.09614 0.1413927,-0.163469 0.01667,-0.07503 -0.026414,-0.177116 -0.093623,-0.221831 -0.058553,-0.03897 -0.065846,-0.03945 -0.5932166,-0.03938 -0.5047616,5.8e-5 -0.5370887,0.002 -0.5916878,0.03489 -0.1481869,0.08933 -0.1369973,0.301166 0.01996,0.377986 0.068238,0.0334 0.1028765,0.03558 0.5661394,0.03558 0.3799058,1.2e-5 0.5067034,-0.0054 0.5510311,-0.02377 z M 3.6905973,9.1136064 C 4.05684,8.9045229 4.1093941,8.8580226 4.1092738,8.7431644 4.1091314,8.6123148 3.990424,8.5052244 3.8640835,8.5219803 3.8268266,8.5269466 3.7030482,8.5859223 3.5746765,8.6599316 L 3.3503696,8.7892483 3.3132838,8.7178849 C 3.2377709,8.5725666 3.1144048,8.243179 3.0544258,8.026732 2.994468,7.8103604 2.9231894,7.4009838 2.9229971,7.2718949 l -9.53e-5,-0.063534 0.2866716,-0.00544 c 0.3282319,-0.00626 0.3642565,-0.019375 0.4106936,-0.1493592 0.022549,-0.063112 0.022549,-0.080398 0,-0.1435116 C 3.5737601,6.779842 3.538078,6.7669391 3.2071651,6.7606378 L 2.9180859,6.7551376 2.9297189,6.614006 C 2.9640909,6.1969079 3.1070026,5.6713405 3.2856367,5.3050732 L 3.3503693,5.1723479 3.5735605,5.3019651 C 3.8196528,5.4448798 3.8788967,5.4628024 3.974568,5.4232779 4.065851,5.3855627 4.113154,5.3040335 4.1040923,5.2000305 4.0945352,5.090323 4.0634971,5.0607021 3.8022921,4.9120184 3.6832823,4.8442749 3.5859114,4.7833334 3.5859114,4.7765923 c 0,-0.041558 0.3226243,-0.4276945 0.5223013,-0.6251257 0.2215938,-0.2190999 0.600013,-0.5231807 0.6362282,-0.511247 0.0089,0.00293 0.069454,0.097498 0.1345724,0.2101452 0.065117,0.1126466 0.1377191,0.2239196 0.1613386,0.2472726 0.060642,0.059958 0.1904947,0.070086 0.2695573,0.021021 0.068626,-0.042587 0.1149847,-0.1410879 0.1024244,-0.2176223 -0.00495,-0.030138 -0.068117,-0.154714 -0.140381,-0.2768398 L 5.1405652,3.4021447 5.2748745,3.3381403 C 5.6456731,3.1614384 6.1769672,3.0202124 6.5987739,2.9862283 l 0.1427367,-0.011499 0.00557,0.285826 c 0.00637,0.3271897 0.019424,0.3624709 0.151091,0.4084532 0.063831,0.022293 0.081313,0.022293 0.1451434,0 0.1316592,-0.045979 0.1447178,-0.081274 0.1510884,-0.408348 l 0.00559,-0.2857199 0.1507472,0.012102 c 0.4220976,0.03386 1.0278217,0.2000838 1.3733041,0.3768576 L 8.7988097,3.4021545 8.6674709,3.624872 C 8.514524,3.8842308 8.4970173,3.9544975 8.5618397,4.048824 c 0.055991,0.081478 0.1102736,0.1066407 0.2119421,0.098247 0.1089946,-0.009 0.135855,-0.036603 0.2877134,-0.2956961 0.066509,-0.1134784 0.1278652,-0.2086104 0.1363391,-0.2114035 0.035799,-0.0118 0.4164999,0.2947537 0.6350431,0.5113533 0.1998336,0.1980574 0.5227166,0.5842878 0.5227166,0.625271 0,0.00674 -0.09737,0.067683 -0.21638,0.1354265 -0.2774563,0.1579195 -0.2983509,0.1796406 -0.2983509,0.3101389 0,0.1160692 0.040405,0.1746528 0.1437082,0.2083621 0.089152,0.029092 0.1384177,0.012478 0.3834827,-0.1292707 l 0.223055,-0.1290238 0.06313,0.1327861 c 0.186577,0.3924838 0.321841,0.890269 0.358035,1.3176176 l 0.01122,0.132505 -0.28913,0.0055 c -0.330969,0.0063 -0.366643,0.019203 -0.413151,0.1493926 -0.02255,0.063112 -0.02255,0.080397 0,0.1435091 0.04643,0.1299904 0.08246,0.1430917 0.410693,0.14936 l 0.286671,0.00544 -3.39e-4,0.054907 c -5.03e-4,0.09186 -0.04732,0.4070888 -0.08724,0.5882136 -0.04829,0.219122 -0.151861,0.5284242 -0.254636,0.7604605 -0.07796,0.1760123 -0.0821,0.1815827 -0.117918,0.1586693 -0.02041,-0.013062 -0.123086,-0.07268 -0.228154,-0.1324918 -0.226232,-0.12878 -0.301594,-0.144723 -0.3932058,-0.083173 -0.08289,0.055689 -0.1078691,0.1089007 -0.099195,0.2113073 0.00566,0.066989 0.017969,0.094725 0.057442,0.1295822 0.063954,0.056472 0.6810818,0.408388 0.7431898,0.423801 0.06675,0.016559 0.162132,-0.019783 0.215036,-0.08195 0.09664,-0.1135622 0.31445,-0.5887523 0.417249,-0.9103129 0.142041,-0.4443145 0.202281,-0.8491365 0.202281,-1.3593476 0,-0.698332 -0.146077,-1.3247916 -0.453364,-1.9442686 C 10.36981,3.7135508 9.1248335,2.804649 7.6643146,2.5741088 c -0.3883529,-0.061302 -0.998799,-0.061302 -1.3871513,0 C 5.825993,2.6453506 5.4024256,2.7785711 4.9904368,2.9788345 4.0742585,3.4241797 3.3690026,4.1213927 2.9219225,5.0237623 2.6497708,5.5730627 2.5048716,6.1176875 2.4706492,6.7199438 c -0.043799,0.7708085 0.1031449,1.509176 0.4364242,2.1929313 0.066779,0.1370062 0.1418568,0.2755963 0.1668381,0.3079796 0.057568,0.074627 0.1359367,0.1099008 0.2153912,0.096946 0.033586,-0.00544 0.2141687,-0.097362 0.4012937,-0.20419 z m 1.9438661,-1.1090579 0.9057359,-0.5175916 0.080052,0.048751 c 0.088188,0.053704 0.2534389,0.1016153 0.3504903,0.1016153 0.23205,0 0.4904377,-0.1587278 0.5883902,-0.361447 l 0.029784,-0.061636 0.3602936,0.00647 c 0.3154295,0.00564 0.3682857,0.00265 0.4244801,-0.02367 C 8.4697195,7.1519828 8.4965487,7.0875351 8.4919198,6.9130447 8.4793726,6.4401199 8.2184056,5.9830855 7.8103515,5.7193983 7.7090725,5.6539493 7.6662821,5.6362217 7.6097051,5.6362734 7.4824165,5.636357 7.4485406,5.6725806 7.2529823,6.0173342 L 7.0728583,6.3348838 6.947649,6.336986 C 6.7630453,6.3400736 6.6390161,6.3924443 6.5068553,6.5231185 6.3723716,6.656089 6.3208367,6.7768153 6.3182462,6.9649626 L 6.3164645,7.0947763 5.3956358,7.6203351 C 4.5214966,8.1192434 4.4730585,8.1494593 4.4403781,8.2162083 c -0.041719,0.08521 -0.041927,0.091941 -0.00561,0.1816704 0.038708,0.095651 0.1125096,0.140644 0.2154561,0.1313557 0.064713,-0.00585 0.2377178,-0.098064 0.9842497,-0.5246743 z"
   id="path1817" /><path
   style="fill:#48a9c7;fill-opacity:1;stroke:#dedede;stroke-width:0.00714776;stroke-opacity:0.9"
   d="m 7.5665866,6.7018658 c -0.014266,-0.03376 -0.042395,-0.084231 -0.062507,-0.11216 l -0.036573,-0.050778 0.074276,-0.133671 C 7.5826297,6.3317388 7.6298907,6.248828 7.6467949,6.2210141 l 0.030737,-0.050576 0.071228,0.076451 C 7.848511,6.3539532 7.9148975,6.4603662 7.9664886,6.5958883 8.0336603,6.772342 8.0426197,6.7632459 7.80166,6.7632459 H 7.5925237 Z"
   id="path1856" /><path
   style="fill:#48a9c7;fill-opacity:1;stroke:#dedede;stroke-width:0.00714776;stroke-opacity:0.9"
   d="M 6.8644678,7.1434727 C 6.8043717,7.1072396 6.7545735,7.0287533 6.7545735,6.9702625 c 0,-0.092754 0.1134556,-0.2068024 0.2058753,-0.2069509 0.098772,-1.656e-4 0.2127355,0.1107047 0.2127355,0.2069509 0,0.096244 -0.1139634,0.2071093 -0.2127355,0.20695 -0.022066,-2.92e-5 -0.06526,-0.015232 -0.095981,-0.033737 z"
   id="path1895" /></svg>
