<?xml version="1.0" encoding="UTF-8" standalone="no"?>
<!-- Created with Inkscape (http://www.inkscape.org/) -->

<svg
   width="20"
   height="20"
   viewBox="0 0 5.2916667 5.2916666"
   version="1.1"
   id="svg15674"
   inkscape:version="1.1.1 (3bf5ae0d25, 2021-09-20)"
   sodipodi:docname="middeleWind.svg"
   xmlns:inkscape="http://www.inkscape.org/namespaces/inkscape"
   xmlns:sodipodi="http://sodipodi.sourceforge.net/DTD/sodipodi-0.dtd"
   xmlns="http://www.w3.org/2000/svg"
   xmlns:svg="http://www.w3.org/2000/svg">
  <sodipodi:namedview
     id="namedview15676"
     pagecolor="#ffffff"
     bordercolor="#666666"
     borderopacity="1.0"
     inkscape:pageshadow="2"
     inkscape:pageopacity="0.0"
     inkscape:pagecheckerboard="0"
     inkscape:document-units="mm"
     showgrid="false"
     units="px"
     inkscape:zoom="24.573288"
     inkscape:cx="17.010341"
     inkscape:cy="17.274856"
     inkscape:window-width="2400"
     inkscape:window-height="1321"
     inkscape:window-x="2391"
     inkscape:window-y="-9"
     inkscape:window-maximized="1"
     inkscape:current-layer="layer1" />
  <defs
     id="defs15671" />
  <g
     inkscape:label="Слой 1"
     inkscape:groupmode="layer"
     id="layer1">
    <path
       style="fill:#6585aa;fill-opacity:1;stroke:#e4e7e7;stroke-width:0.0876825;stroke-miterlimit:4;stroke-dasharray:none;stroke-opacity:0.9"
       d="M 3.2920589,4.2501688 C 3.2357941,4.2309628 3.166157,4.1925494 3.1132373,4.1513782 3.0656943,4.1143773 2.9967272,4.034454 2.9826463,3.9999672 c -0.037204,-0.091136 0.00318,-0.2061204 0.090215,-0.2569797 0.023314,-0.013651 0.038503,-0.017419 0.069714,-0.017419 0.055414,0 0.072172,0.00753 0.1284448,0.05423 0.027047,0.02269 0.059098,0.045945 0.071225,0.051782 0.056461,0.027211 0.1539617,0.023443 0.2077372,-0.00753 0.036887,-0.021559 0.082138,-0.072118 0.099376,-0.1111058 0.014217,-0.032106 0.0264,-0.1317897 0.021028,-0.1721042 C 3.6613463,3.4729615 3.6010563,3.3821354 3.540871,3.3457281 L 3.511489,3.3279293 1.8701649,3.3232223 0.2288403,3.3185152 0.20441523,3.3041115 C 0.17082038,3.2843388 0.11471617,3.2211652 0.10030623,3.1868385 0.0843246,3.1488024 0.0840065,3.0694628 0.09968371,3.0296755 0.11391716,2.9935224 0.14898206,2.9488016 0.182093,2.9244451 l 0.0261236,-0.019206 h 1.6699838 1.6699838 l 0.044816,0.016853 c 0.1787017,0.067223 0.3212054,0.2087755 0.3945705,0.391839 0.037752,0.094206 0.046841,0.1490003 0.046832,0.2823626 -3.2e-6,0.1033377 -0.00173,0.1255287 -0.013482,0.1727728 -0.044987,0.1809646 -0.1632457,0.3435131 -0.3132483,0.430582 -0.088146,0.051123 -0.1603582,0.067694 -0.2930021,0.067034 -0.060446,-3.012e-4 -0.082377,-0.00376 -0.1226142,-0.017043 z"
       id="path14726"
       inkscape:transform-center-x="2.391572"
       inkscape:transform-center-y="-2.2707169" />
    <path
       style="fill:#6585aa;fill-opacity:1;stroke:#e4e7e7;stroke-width:0.0886451;stroke-miterlimit:4;stroke-dasharray:none;stroke-opacity:0.9"
       d="M 0.20544999,2.624998 C 0.16954816,2.6137297 0.1413561,2.5927207 0.11118651,2.5548092 0.0757704,2.5102131 0.06276876,2.472206 0.06293278,2.4137442 0.06316972,2.3264617 0.10713788,2.2487574 0.17763223,2.2109797 l 0.0369963,-0.019863 2.23541547,-0.00382 2.2354146,-0.00382 0.033861,-0.01929 c 0.067031,-0.038205 0.09928,-0.09321 0.1109136,-0.1777609 0.024414,-0.1773556 -0.093614,-0.3435933 -0.2447588,-0.3150403 -0.044731,0.00859 -0.079201,0.028171 -0.1155362,0.066083 -0.075087,0.078306 -0.1730529,0.089765 -0.251708,0.029317 -0.075227,-0.05787 -0.1008201,-0.1817459 -0.058984,-0.2855967 0.02244,-0.055674 0.1202696,-0.1483801 0.205697,-0.1948383 0.090197,-0.049084 0.1268574,-0.057297 0.2553837,-0.057392 0.1060709,-6.7e-5 0.1155619,9.526e-4 0.1658056,0.018909 0.1720482,0.061212 0.3107194,0.1962707 0.3902495,0.3801749 0.072882,0.1685295 0.077704,0.3937162 0.012284,0.5739247 -0.063248,0.1742481 -0.2116157,0.3314519 -0.3714398,0.3935617 -0.1037026,0.040299 0.036972,0.038103 -2.3731018,0.037625 -1.72773457,-3.246e-4 -2.21762401,-0.00192 -2.23866904,-0.00859 z"
       id="path974"
       sodipodi:nodetypes="cssscccsssssssscsssccc" />
  </g>
</svg>
