<?xml version="1.0" encoding="UTF-8" standalone="no"?>
<!-- Created with Inkscape (http://www.inkscape.org/) -->

<svg
   width="10.6"
   height="19.6"
   viewBox="0 0 2.8045835 5.1858346"
   version="1.1"
   id="svg2249"
   inkscape:version="1.1.1 (3bf5ae0d25, 2021-09-20)"
   sodipodi:docname="tempMinus.svg"
   xmlns:inkscape="http://www.inkscape.org/namespaces/inkscape"
   xmlns:sodipodi="http://sodipodi.sourceforge.net/DTD/sodipodi-0.dtd"
   xmlns="http://www.w3.org/2000/svg"
   xmlns:svg="http://www.w3.org/2000/svg">
  <sodipodi:namedview
     id="namedview2251"
     pagecolor="#ffffff"
     bordercolor="#666666"
     borderopacity="1.0"
     inkscape:pageshadow="2"
     inkscape:pageopacity="0.0"
     inkscape:pagecheckerboard="0"
     inkscape:document-units="px"
     showgrid="false"
     units="px"
     inkscape:zoom="12.286644"
     inkscape:cx="13.266438"
     inkscape:cy="15.58603"
     inkscape:window-width="2400"
     inkscape:window-height="1321"
     inkscape:window-x="2391"
     inkscape:window-y="-9"
     inkscape:window-maximized="1"
     inkscape:current-layer="layer1"
     height="35px" />
  <defs
     id="defs2246">
    <clipPath
       clipPathUnits="userSpaceOnUse"
       id="clipPath1825">
      <path
         d="m 7278.53,6813.28 h 20.78 v -5.79 h -20.78 z"
         id="path1823" />
    </clipPath>
  </defs>
  <g
     inkscape:label="Слой 1"
     inkscape:groupmode="layer"
     id="layer1"
     style="display:inline">
    <g
       id="g1799"
       transform="matrix(0.05747735,0,0,-0.06493603,1.2971449,3.318853)"
       style="fill:#e1ebeb;fill-opacity:1">
      <path
         d="m 0,0 c 3.832,0 7.39,-1.134 10.39,-3.063 v 45.73 c 0,4.019 -3.287,7.305 -7.306,7.305 h -6.17 c -4.018,0 -7.305,-3.286 -7.305,-7.305 V -3.065 C -7.393,-1.134 -3.832,0 0,0"
         style="fill:#e1ebeb;fill-opacity:1;fill-rule:nonzero;stroke:none"
         id="path1801" />
    </g>
    <g
       id="g1803"
       transform="matrix(0.05747735,0,0,-0.05758771,2.3949207,3.98061)"
       style="fill:#e0ebeb;fill-opacity:1">
      <path
         d="m 0,0 c 0,-10.623 -8.612,-19.235 -19.236,-19.235 -10.625,0 -19.239,8.612 -19.239,19.235 0,10.625 8.614,19.239 19.239,19.239 C -8.612,19.239 0,10.625 0,0"
         style="fill:#e0ebeb;fill-opacity:1;fill-rule:nonzero;stroke:none"
         id="path1805" />
    </g>
    <g
       id="g1819"
       transform="matrix(0.05747735,0,0,-0.05758771,-417.65842,395.07716)">
      <g
         id="g1821" />
      <g
         id="g1833">
        <g
           clip-path="url(#clipPath1825)"
           opacity="0.199997"
           id="g1831">
          <g
             transform="translate(7288.918,6813.2813)"
             id="g1829">
            <path
               d="m 0,0 c -3.759,0 -7.296,-0.948 -10.391,-2.611 v -3.178 c 2.998,1.932 6.559,3.065 10.391,3.065 3.832,0 7.39,-1.133 10.39,-3.063 v 3.176 C 7.295,-0.948 3.758,0 0,0"
               style="fill:#122c3d;fill-opacity:1;fill-rule:nonzero;stroke:none"
               id="path1827" />
          </g>
        </g>
      </g>
    </g>
    <g
       id="g1835"
       transform="matrix(0.07477481,0,0,-0.03621211,2.7479809,0.74424392)"
       style="fill:#e0ebeb;fill-opacity:1">
      <path
         d="m 0,0 c 0,-0.353 -0.287,-0.642 -0.64,-0.642 h -9.46 c -0.353,0 -0.64,0.289 -0.64,0.642 v 3.687 c 0,0.353 0.287,0.642 0.64,0.642 h 9.46 C -0.287,4.329 0,4.04 0,3.687 Z"
         style="fill:#e0ebeb;fill-opacity:1;fill-rule:nonzero;stroke:none"
         id="path1837" />
    </g>
    <g
       id="g1839"
       transform="matrix(0.0981116,0,0,-0.03077798,2.527085,1.3309611)"
       style="fill:#e0ebeb;fill-opacity:1">
      <path
         d="m 0,0 c 0,-0.353 -0.287,-0.64 -0.641,-0.64 h -4.81 c -0.354,0 -0.641,0.287 -0.641,0.64 v 3.687 c 0,0.353 0.287,0.642 0.641,0.642 h 4.81 C -0.287,4.329 0,4.04 0,3.687 Z"
         style="fill:#e0ebeb;fill-opacity:1;fill-rule:nonzero;stroke:none"
         id="path1841" />
    </g>
    <g
       id="g1843"
       transform="matrix(0.07552132,0,0,-0.03044678,2.4204274,1.8664257)"
       style="fill:#e0eaea;fill-opacity:1">
      <path
         d="m 0,0 c 0,-0.353 -0.287,-0.642 -0.641,-0.642 h -4.81 c -0.354,0 -0.641,0.289 -0.641,0.642 v 3.687 c 0,0.353 0.287,0.64 0.641,0.64 h 4.81 C -0.287,4.327 0,4.04 0,3.687 Z"
         style="fill:#e0eaea;fill-opacity:1;fill-rule:nonzero;stroke:none"
         id="path1845" />
    </g>
    <g
       id="g1847"
       transform="matrix(0.07719915,0,0,-0.03809854,2.7662777,2.5300372)"
       style="fill:#e0eaea;fill-opacity:1">
      <path
         d="m 0,0 c 0,-0.353 -0.287,-0.642 -0.64,-0.642 h -9.46 c -0.353,0 -0.64,0.289 -0.64,0.642 v 3.687 c 0,0.353 0.287,0.642 0.64,0.642 h 9.46 C -0.287,4.329 0,4.04 0,3.687 Z"
         style="fill:#e0eaea;fill-opacity:1;fill-rule:nonzero;stroke:none"
         id="path1849" />
    </g>
    <path
       style="fill:#4ba0cb;fill-opacity:0.796853;stroke:#3e84ad;stroke-width:0.00488861;stroke-opacity:0.607692"
       d="m 1.2290479,4.7977796 c -0.00755,-9.679e-4 -0.035359,-0.00441 -0.061792,-0.00761 C 1.0802333,4.7795783 0.95608224,4.7380025 0.87660347,4.6928345 0.67628342,4.5789927 0.53394421,4.3987575 0.47154135,4.1799303 0.44543922,4.0883973 0.44176081,4.0592845 0.44183909,3.9448306 0.44189272,3.8661656 0.44379609,3.8331458 0.45021109,3.7996008 0.50755579,3.4997498 0.70470416,3.2613529 0.98630644,3.1513399 1.3019887,3.0280129 1.6734601,3.1125629 1.9059149,3.3606489 2.0241914,3.4868791 2.098953,3.6368545 2.1287632,3.8076932 2.1424182,3.8859452 2.1425322,4.0084613 2.1290219,4.0855293 2.0907669,4.3037768 1.9764244,4.4936402 1.803484,4.6260794 1.751148,4.6661584 1.64774,4.7233184 1.5860671,4.7462585 1.4762407,4.7871095 1.3207191,4.8095535 1.2290456,4.7977805 Z"
       id="path20198" />
    <path
       style="fill:#4ea2cb;fill-opacity:0.8;stroke:#3e84ad;stroke-width:0.00488861;stroke-opacity:0.607692"
       d="M 0.8560634,2.742648 C 0.8545434,2.736188 0.8532774,2.5576216 0.8532434,2.3458364 L 0.85317847,1.9607727 H 1.3065113 1.7598441 l -0.00134,0.3937686 c -7.314e-4,0.2165729 -0.00278,0.3954158 -0.00454,0.3974288 -0.00176,0.00201 -0.035752,-0.00596 -0.075524,-0.017724 -0.1114446,-0.032956 -0.1640326,-0.041589 -0.2959573,-0.048582 -0.1857323,-0.00984 -0.3017049,0.00367 -0.475579,0.05543 -0.0245776,0.00732 -0.0454486,0.013301 -0.0463822,0.013301 -9.3673e-4,0 -0.002939,-0.00529 -0.004459,-0.011748 z"
       id="path20276" />
    <path
       style="fill:#4ea2cb;fill-opacity:0.8;stroke:#ccf5ff;stroke-width:0.0147327;stroke-miterlimit:4;stroke-dasharray:none;stroke-opacity:0.9"
       d="m 1.9650916,1.3266954 c -0.013878,-0.00135 -0.015538,-0.00732 -0.015447,-0.055544 7.17e-5,-0.038086 9.432e-4,-0.043632 0.00738,-0.046887 0.00672,-0.0034 0.026396,-0.00375 0.2485517,-0.00434 0.1326879,-3.616e-4 0.2531116,-4.35e-5 0.2676083,7.057e-4 0.023986,0.00123 0.026639,0.00187 0.029484,0.00705 0.00404,0.00735 0.00408,0.084939 5.07e-5,0.092266 -0.00223,0.00404 -0.00674,0.00596 -0.016307,0.00693 -0.014569,0.00147 -0.5061001,0.00132 -0.5213221,-1.676e-4 z"
       id="path20315" />
    <path
       style="fill:#4ea2cb;fill-opacity:0.8;stroke:#ccf7ff;stroke-width:0.0184116;stroke-miterlimit:4;stroke-dasharray:none;stroke-opacity:0.896154"
       d="m 2.0114943,0.73985928 c -0.038449,-0.001905 -0.041352,-0.006399 -0.041352,-0.0640769 v -0.0500288 l 0.015415,-0.005693 c 0.012287,-0.004539 0.025049,-0.006035 0.06289,-0.007377 0.063694,-0.002258 0.6451058,-2.8794e-4 0.6578464,0.002231 0.016071,0.003177 0.018531,0.0119092 0.018531,0.0657929 0,0.0455325 -0.00107,0.051305 -0.010204,0.0552315 -0.00955,0.004104 -0.031756,0.004399 -0.3458968,0.004687 C 2.184094,0.74079144 2.0233411,0.74044694 2.0114947,0.73985811 Z"
       id="path20432" />
    <path
       style="fill:#4ea2cb;fill-opacity:0.8;stroke:#f9feff;stroke-width:0.000399192;stroke-miterlimit:4;stroke-dasharray:none;stroke-opacity:1"
       d="m 2.0318255,2.5348593 c -0.067535,-0.0015 -0.069081,-0.00291 -0.069025,-0.063022 5.04e-5,-0.054005 0.0045,-0.069461 0.021252,-0.07393 0.025086,-0.00669 0.038706,-0.007 0.3310662,-0.00757 0.1522289,-2.987e-4 0.304473,9.7e-5 0.3393188,8.77e-4 0.057156,0.00129 0.064573,0.00178 0.077507,0.00524 0.013946,0.00372 0.014429,0.00448 0.019336,0.03082 0.00306,0.016416 0.00306,0.041897 -1.11e-5,0.064977 -0.00443,0.033363 -0.00624,0.038287 -0.014819,0.040577 -0.00915,0.00244 -0.030795,0.00261 -0.3371606,0.00276 -0.180064,9.08e-5 -0.3454208,-2.397e-4 -0.3674603,-7.265e-4 z"
       id="path25140" />
    <path
       style="fill:#4ea2cb;fill-opacity:0.8;stroke:#ccf6ff;stroke-width:0.0170589;stroke-miterlimit:4;stroke-dasharray:none;stroke-opacity:0.9"
       d="m 2.0106742,1.8605113 c -0.00323,-2.362e-4 -0.00894,-6.616e-4 -0.012678,-9.455e-4 -0.00427,-3.222e-4 -0.00864,-0.00193 -0.01175,-0.00432 -0.00438,-0.00336 -0.00491,-0.00827 -0.00466,-0.042263 3.176e-4,-0.044488 0.00108,-0.046353 0.020348,-0.049734 0.011302,-0.00199 0.017537,-0.00204 0.190859,-0.00204 0.133461,0 0.1811971,3.178e-4 0.1870993,0.00123 0.00436,6.834e-4 0.010306,0.00251 0.013217,0.00406 0.0049,0.00261 0.00528,0.00605 0.00514,0.045422 -1.098e-4,0.02894 -0.00122,0.043457 -0.00344,0.045272 -0.00244,0.00199 -0.00615,0.00284 -0.014524,0.00332 -0.012259,7.126e-4 -0.3600206,7.126e-4 -0.3695986,-1e-7 z"
       id="path25179" />
  </g>
</svg>
