<?xml version="1.0" encoding="UTF-8" standalone="no"?>
<!-- Created with Inkscape (http://www.inkscape.org/) -->

<svg
   width="10.6"
   height="19.6"
   viewBox="0 0 2.8045835 5.1858346"
   version="1.1"
   id="svg2249"
   inkscape:version="1.1.1 (3bf5ae0d25, 2021-09-20)"
   sodipodi:docname="tempPlus.svg"
   xmlns:inkscape="http://www.inkscape.org/namespaces/inkscape"
   xmlns:sodipodi="http://sodipodi.sourceforge.net/DTD/sodipodi-0.dtd"
   xmlns="http://www.w3.org/2000/svg"
   xmlns:svg="http://www.w3.org/2000/svg">
  <sodipodi:namedview
     id="namedview2251"
     pagecolor="#ffffff"
     bordercolor="#666666"
     borderopacity="1.0"
     inkscape:pageshadow="2"
     inkscape:pageopacity="0.0"
     inkscape:pagecheckerboard="0"
     inkscape:document-units="px"
     showgrid="false"
     units="px"
     inkscape:zoom="17.375939"
     inkscape:cx="15.135873"
     inkscape:cy="17.006275"
     inkscape:window-width="2400"
     inkscape:window-height="1321"
     inkscape:window-x="2391"
     inkscape:window-y="-9"
     inkscape:window-maximized="1"
     inkscape:current-layer="layer1"
     height="35px" />
  <defs
     id="defs2246">
    <clipPath
       clipPathUnits="userSpaceOnUse"
       id="clipPath1825">
      <path
         d="m 7278.53,6813.28 h 20.78 v -5.79 h -20.78 z"
         id="path1823" />
    </clipPath>
  </defs>
  <g
     inkscape:label="Слой 1"
     inkscape:groupmode="layer"
     id="layer1"
     style="display:inline">
    <g
       id="g1799"
       transform="matrix(0.05950287,0,0,-0.06571358,1.246115,3.3272549)"
       style="fill:#e1ebeb;fill-opacity:1">
      <path
         d="m 0,0 c 3.832,0 7.39,-1.134 10.39,-3.063 v 45.73 c 0,4.019 -3.287,7.305 -7.306,7.305 h -6.17 c -4.018,0 -7.305,-3.286 -7.305,-7.305 V -3.065 C -7.393,-1.134 -3.832,0 0,0"
         style="fill:#e1ebeb;fill-opacity:1;fill-rule:nonzero;stroke:none"
         id="path1801" />
    </g>
    <g
       id="g1803"
       transform="matrix(0.05950287,0,0,-0.05827729,2.3825767,3.9969358)"
       style="fill:#e0ebeb;fill-opacity:1">
      <path
         d="m 0,0 c 0,-10.623 -8.612,-19.235 -19.236,-19.235 -10.625,0 -19.239,8.612 -19.239,19.235 0,10.625 8.614,19.239 19.239,19.239 C -8.612,19.239 0,10.625 0,0"
         style="fill:#e0ebeb;fill-opacity:1;fill-rule:nonzero;stroke:none"
         id="path1805" />
    </g>
    <g
       id="g1819"
       transform="matrix(0.05950287,0,0,-0.05827729,-432.47356,399.77653)">
      <g
         id="g1821" />
      <g
         id="g1833">
        <g
           clip-path="url(#clipPath1825)"
           opacity="0.199997"
           id="g1831">
          <g
             transform="translate(7288.918,6813.2813)"
             id="g1829">
            <path
               d="m 0,0 c -3.759,0 -7.296,-0.948 -10.391,-2.611 v -3.178 c 2.998,1.932 6.559,3.065 10.391,3.065 3.832,0 7.39,-1.133 10.39,-3.063 v 3.176 C 7.295,-0.948 3.758,0 0,0"
               style="fill:#122c3d;fill-opacity:1;fill-rule:nonzero;stroke:none"
               id="path1827" />
          </g>
        </g>
      </g>
    </g>
    <g
       id="g1835"
       transform="matrix(0.0774099,0,0,-0.03664572,2.7480788,0.72181713)"
       style="fill:#e0ebeb;fill-opacity:1">
      <path
         d="m 0,0 c 0,-0.353 -0.287,-0.642 -0.64,-0.642 h -9.46 c -0.353,0 -0.64,0.289 -0.64,0.642 v 3.687 c 0,0.353 0.287,0.642 0.64,0.642 h 9.46 C -0.287,4.329 0,4.04 0,3.687 Z"
         style="fill:#e0ebeb;fill-opacity:1;fill-rule:nonzero;stroke:none"
         id="path1837" />
    </g>
    <g
       id="g1839"
       transform="matrix(0.10156908,0,0,-0.03114652,2.5193985,1.3155597)"
       style="fill:#e0ebeb;fill-opacity:1">
      <path
         d="m 0,0 c 0,-0.353 -0.287,-0.64 -0.641,-0.64 h -4.81 c -0.354,0 -0.641,0.287 -0.641,0.64 v 3.687 c 0,0.353 0.287,0.642 0.641,0.642 h 4.81 C -0.287,4.329 0,4.04 0,3.687 Z"
         style="fill:#e0ebeb;fill-opacity:1;fill-rule:nonzero;stroke:none"
         id="path1841" />
    </g>
    <g
       id="g1843"
       transform="matrix(0.07818272,0,0,-0.03081136,2.4089823,1.8574361)"
       style="fill:#e0eaea;fill-opacity:1">
      <path
         d="m 0,0 c 0,-0.353 -0.287,-0.642 -0.641,-0.642 h -4.81 c -0.354,0 -0.641,0.289 -0.641,0.642 v 3.687 c 0,0.353 0.287,0.64 0.641,0.64 h 4.81 C -0.287,4.327 0,4.04 0,3.687 Z"
         style="fill:#e0eaea;fill-opacity:1;fill-rule:nonzero;stroke:none"
         id="path1845" />
    </g>
    <g
       id="g1847"
       transform="matrix(0.07991967,0,0,-0.03855473,2.7670204,2.5289936)"
       style="fill:#e0eaea;fill-opacity:1">
      <path
         d="m 0,0 c 0,-0.353 -0.287,-0.642 -0.64,-0.642 h -9.46 c -0.353,0 -0.64,0.289 -0.64,0.642 v 3.687 c 0,0.353 0.287,0.642 0.64,0.642 h 9.46 C -0.287,4.329 0,4.04 0,3.687 Z"
         style="fill:#e0eaea;fill-opacity:1;fill-rule:nonzero;stroke:none"
         id="path1849" />
    </g>
    <path
       style="fill:#e57900;fill-opacity:0.6;stroke:#3e84ad;stroke-width:0.00500368;stroke-opacity:0.607692"
       d="m 1.1756181,4.8238903 c -0.00782,-9.794e-4 -0.036605,-0.00447 -0.06397,-0.0077 C 1.0215594,4.8054711 0.89303328,4.7633974 0.81075354,4.7176886 0.6033742,4.6024837 0.45601892,4.4200903 0.39141695,4.1986428 0.36439494,4.1060138 0.36058691,4.0765524 0.36066794,3.960728 0.36072348,3.8811212 0.36269404,3.8477058 0.3693355,3.8137591 0.42870114,3.5103178 0.63279695,3.2690662 0.92432306,3.157736 1.25113,3.0329322 1.6356922,3.1184943 1.8763387,3.3695513 1.9987833,3.4972929 2.0761795,3.649064 2.1070403,3.8219484 2.1211763,3.9011374 2.1212943,4.0251207 2.107308,4.1031115 2.067705,4.3239723 1.949333,4.516109 1.7702982,4.6501342 c -0.05418,0.040559 -0.1612326,0.098403 -0.2250789,0.1216181 -0.1136966,0.04134 -0.2746988,0.064052 -0.369603,0.052138 z"
       id="path20198" />
    <path
       style="fill:#d67300;fill-opacity:0.6;stroke:#3e84ad;stroke-width:0.00500368;stroke-opacity:0.607692"
       d="m 0.78948965,2.7441504 c -0.00157,-0.00654 -0.002888,-0.187242 -0.00292,-0.4015632 L 0.7865031,1.9529128 h 0.4693083 0.4693084 l -0.00139,0.3984836 C 1.722977,2.5705626 1.7208598,2.7515469 1.7190298,2.753584 1.7172098,2.755614 1.6820158,2.747554 1.6408418,2.735647 1.5254684,2.702296 1.4710271,2.693561 1.3344535,2.686484 1.1421759,2.676524 1.0221163,2.690194 0.84211491,2.742578 c -0.025443,0.0074 -0.0470503,0.013461 -0.0480172,0.013461 -9.669e-4,0 -0.003043,-0.00535 -0.004614,-0.011888 z"
       id="path20276" />
    <path
       style="fill:#e57a00;fill-opacity:0.6;stroke:#ccf5ff;stroke-width:0.0150796;stroke-miterlimit:4;stroke-dasharray:none;stroke-opacity:0.9"
       d="m 1.9376003,1.3112429 c -0.014367,-0.00137 -0.016085,-0.00741 -0.015991,-0.05621 7.41e-5,-0.038542 9.799e-4,-0.044154 0.00764,-0.047448 0.00696,-0.00344 0.027326,-0.00379 0.2573107,-0.0044 0.1373638,-3.661e-4 0.2620313,-4.41e-5 0.2770389,7.117e-4 0.024832,0.00125 0.027578,0.00189 0.030523,0.00713 0.00419,0.00744 0.00423,0.085956 5.25e-5,0.093371 -0.0023,0.00408 -0.00698,0.00603 -0.016882,0.00701 -0.015082,0.00149 -0.5239353,0.00133 -0.539694,-1.694e-4 z"
       id="path20315" />
    <path
       style="fill:#e57b00;fill-opacity:0.6;stroke:#ccf7ff;stroke-width:0.018845;stroke-miterlimit:4;stroke-dasharray:none;stroke-opacity:0.896154"
       d="m 1.9856382,0.71737992 c -0.039804,-0.001928 -0.042809,-0.006475 -0.042809,-0.0648441 v -0.0506279 l 0.015958,-0.005762 c 0.01272,-0.004594 0.025931,-0.006107 0.065107,-0.007465 0.065939,-0.002283 0.6678397,-2.9142e-4 0.6810291,0.002256 0.016638,0.003215 0.019185,0.0120517 0.019185,0.0665808 0,0.0460774 -0.0011,0.0519196 -0.010565,0.0558929 -0.00989,0.004146 -0.032875,0.004457 -0.3580862,0.004741 C 2.1643193,0.71831828 1.9979015,0.71796965 1.9856374,0.7173764 Z"
       id="path20432" />
    <path
       style="fill:#e57b00;fill-opacity:0.6;stroke:#f9feff;stroke-width:0.00040859;stroke-miterlimit:4;stroke-dasharray:none;stroke-opacity:1"
       d="m 2.0066859,2.5338735 c -0.069915,-0.00151 -0.071516,-0.00294 -0.071458,-0.063776 5.21e-5,-0.054651 0.00465,-0.070293 0.022,-0.074815 0.025971,-0.00677 0.040071,-0.00709 0.3427333,-0.00766 0.1575934,-3.022e-4 0.3152025,9.83e-5 0.3512763,8.915e-4 0.059171,0.0013 0.066848,0.0018 0.080238,0.0053 0.014437,0.00376 0.014938,0.00454 0.020017,0.031189 0.00317,0.016612 0.00317,0.042398 -1.14e-5,0.065755 -0.00459,0.033762 -0.00646,0.038745 -0.015342,0.041063 -0.00947,0.00247 -0.03188,0.00265 -0.3490422,0.0028 C 2.20069,2.5347068 2.029506,2.5343723 2.0066898,2.5338831 Z"
       id="path25140" />
    <path
       style="fill:#e57b00;fill-opacity:0.6;stroke:#ccf6ff;stroke-width:0.0174606;stroke-miterlimit:4;stroke-dasharray:none;stroke-opacity:0.9"
       d="m 1.9847892,1.8514508 c -0.00334,-2.391e-4 -0.00925,-6.674e-4 -0.013124,-9.606e-4 -0.00442,-3.26e-4 -0.00894,-0.00195 -0.012163,-0.00437 -0.00452,-0.0034 -0.00508,-0.00837 -0.00482,-0.04277 3.288e-4,-0.045021 0.00112,-0.046908 0.021065,-0.050329 0.011699,-0.002 0.018154,-0.00207 0.197585,-0.00207 0.1381642,0 0.1875824,3.217e-4 0.1936926,0.00125 0.00451,6.894e-4 0.01067,0.00254 0.013683,0.00411 0.00506,0.00264 0.00547,0.00612 0.00531,0.045966 -1.137e-4,0.029287 -0.00126,0.043978 -0.00356,0.045814 -0.00253,0.00202 -0.00636,0.00287 -0.015036,0.00336 -0.012691,7.186e-4 -0.3727079,7.186e-4 -0.3826235,-2e-7 z"
       id="path25179" />
  </g>
</svg>
