<?xml version="1.0" encoding="UTF-8" standalone="no"?>
<!-- Generator: Adobe Illustrator 22.0.1, SVG Export Plug-In . SVG Version: 6.00 Build 0)  -->

<svg
   version="1.1"
   id="Layer_1"
   x="0px"
   y="0px"
   viewBox="0 0 70 70"
   xml:space="preserve"
   sodipodi:docname="eastWind.svg"
   width="70"
   height="70"
   inkscape:version="1.1.1 (3bf5ae0d25, 2021-09-20)"
   xmlns:inkscape="http://www.inkscape.org/namespaces/inkscape"
   xmlns:sodipodi="http://sodipodi.sourceforge.net/DTD/sodipodi-0.dtd"
   xmlns="http://www.w3.org/2000/svg"
   xmlns:svg="http://www.w3.org/2000/svg"><defs
   id="defs7" /><sodipodi:namedview
   id="namedview5"
   pagecolor="#ffffff"
   bordercolor="#666666"
   borderopacity="1.0"
   inkscape:pageshadow="2"
   inkscape:pageopacity="0.0"
   inkscape:pagecheckerboard="0"
   showgrid="false"
   inkscape:zoom="10.158767"
   inkscape:cx="30.121765"
   inkscape:cy="24.953815"
   inkscape:window-width="2400"
   inkscape:window-height="1321"
   inkscape:window-x="2391"
   inkscape:window-y="-9"
   inkscape:window-maximized="1"
   inkscape:current-layer="Layer_1"
   width="140px" />
<path
   d="m 31.564834,10.527611 c 4.046859,-0.519707 7.915817,0.07324 11.584697,1.760338 3.668874,1.687097 6.708059,4.224341 9.117565,7.611741 2.409511,3.387397 3.842491,7.220735 4.318796,11.497471 0.356644,3.202282 0.104074,6.35459 -0.740186,9.433308 -0.844284,3.078707 -2.171906,5.792123 -3.91868,8.174716 -1.746789,2.38259 -3.939576,4.373728 -6.578396,5.973378 -2.638828,1.599661 -5.444871,2.601094 -8.499865,2.99343 -3.015299,0.387244 -5.981971,0.127155 -8.877821,-0.761711 -2.895852,-0.888873 -5.466409,-2.289634 -7.684801,-4.14164 -2.218386,-1.851993 -4.086939,-4.17632 -5.583502,-6.954412 -1.496553,-2.778101 -2.431891,-5.756482 -2.790879,-8.979832 -0.359,-3.223358 -0.108776,-6.39673 0.735501,-9.475448 0.844281,-3.078712 2.169554,-5.813186 3.916322,-8.195786 1.746778,-2.382597 3.941924,-4.352657 6.538726,-5.968279 2.596801,-1.615641 5.427376,-2.57749 8.462523,-2.967274 z m 0.581898,5.224785 c -4.701505,0.603786 -8.58625,2.940414 -11.651904,7.030956 -3.025979,4.085439 -4.248659,8.644475 -3.683193,13.721781 0.370714,3.328692 1.489292,6.326281 3.370862,8.948089 1.881578,2.621809 4.237752,4.627061 7.101184,5.947479 2.863428,1.320423 5.853558,1.791179 8.987899,1.38866 3.134329,-0.402532 5.956583,-1.619745 8.449302,-3.628009 2.492705,-2.008274 4.36427,-4.535111 5.614678,-7.580509 1.250411,-3.045404 1.681507,-6.220636 1.31079,-9.549326 -0.370726,-3.328691 -1.489297,-6.326279 -3.370874,-8.948092 -1.881567,-2.621797 -4.25759,-4.624512 -7.123368,-5.965994 -2.86578,-1.341482 -5.871049,-1.767558 -9.005376,-1.365035 z m -10.45761,11.792439 26.886886,4.560449 c 0.200722,-0.0044 0.311642,0.0882 0.332742,0.277824 0.02107,0.189612 -0.06632,0.307686 -0.262343,0.354235 L 23.516918,43.956547 c -0.208831,0.112304 -0.369881,0.11162 -0.500631,0.02157 -0.130736,-0.09009 -0.149522,-0.258593 -0.0563,-0.505625 l 1.76471,-7.641667 c 0.05589,-0.220869 0.03243,-0.431548 -0.06806,-0.610966 l -3.400106,-7.042484 c -0.142487,-0.195386 -0.158898,-0.342859 -0.04927,-0.44242 0.109646,-0.09954 0.278791,-0.206756 0.481857,-0.190103 z"
   id="path2"
   style="fill:#2c4f54;fill-opacity:0.5;stroke:#2e3333;stroke-width:0.126934;stroke-miterlimit:4;stroke-dasharray:none;stroke-opacity:0.9" />
<path
   style="fill:#1f4447;fill-opacity:0.809728;stroke:#e4e7e7;stroke-width:0.126934;stroke-miterlimit:4;stroke-dasharray:none;stroke-opacity:0.9"
   d="m 17.270259,34.379087 c -0.0089,-0.905304 0.04464,-1.907973 0.148469,-2.778173 0.583811,-4.893145 3.527927,-9.750926 7.60416,-12.546852 2.194171,-1.504992 4.193898,-2.247238 6.932029,-2.572976 2.810453,-0.334453 5.003612,-0.06617 7.523469,0.919953 1.698393,0.664665 3.078792,1.482204 4.576532,2.71047 2.972356,2.43757 4.960882,5.476036 6.055589,9.252922 0.227981,0.786546 0.284578,1.117789 0.490194,2.868846 0.249527,2.125465 0.262685,2.73202 0.09349,4.317667 -0.255573,2.394809 -1.148612,5.120936 -2.386405,7.284773 -0.50489,0.882628 -1.764735,2.557084 -2.478281,3.293869 -1.726895,1.783168 -3.730527,3.154124 -5.783835,3.957499 -1.514162,0.59244 -2.061281,0.724194 -3.94069,0.948977 -1.325793,0.158523 -1.890449,0.196952 -2.477531,0.168307 -3.565396,-0.173795 -7.000445,-1.54844 -9.815846,-3.928147 -2.883407,-2.437204 -4.96042,-5.746107 -5.926396,-9.441399 -0.222676,-0.851847 -0.606844,-3.635402 -0.614957,-4.455747 z m 5.900186,-2.718763 c 0.925043,1.907952 1.707389,3.540338 1.738542,3.627521 0.03846,0.107587 -0.226532,1.42354 -0.825153,4.097734 -0.507591,2.2676 -0.85976,3.990634 -0.829885,4.060383 0.06195,0.144548 0.321203,0.193896 0.562792,0.107114 0.09591,-0.03445 5.591063,-2.45113 12.211466,-5.370376 11.601227,-5.115533 12.038585,-5.314711 12.078091,-5.500729 0.03055,-0.143759 0.01357,-0.215732 -0.06639,-0.282066 -0.132361,-0.109796 -25.872453,-4.75589 -26.158469,-4.721645 -0.258416,0.03095 -0.499325,0.251563 -0.438321,0.401431 0.02507,0.06137 0.802284,1.672687 1.727327,3.58064 z"
   id="path861" /><rect
   style="fill:#c7485e;fill-opacity:1;stroke:#3c4343;stroke-width:0.545025;stroke-opacity:0.9"
   id="rect2803"
   width="6.1885071"
   height="0.067818888"
   x="35.287579"
   y="-34.169136"
   transform="matrix(0.12069795,0.99268928,-0.9915773,0.12951625,0,0)"
   inkscape:transform-center-x="3.7550983"
   inkscape:transform-center-y="-2.8688908" /><path
   style="fill:#cd425b;fill-opacity:1;stroke:#e27364;stroke-width:0.0427098;stroke-opacity:0.9"
   d="m 38.992638,30.779176 c 0.101503,0.01718 2.291453,0.360326 4.866595,0.76234 2.575154,0.402011 4.744264,0.755342 4.820255,0.785168 0.119575,0.04694 -8.635751,4.019032 -8.95,4.060412 -0.08584,0.0114 -0.224246,-0.738421 -0.519192,-2.811954 -0.376068,-2.643926 -0.390149,-2.825342 -0.217681,-2.795963 z"
   id="path3397"
   inkscape:transform-center-x="-1.1293432"
   inkscape:transform-center-y="-2.5268672" /><text
   xml:space="preserve"
   style="font-size:15.3753px;line-height:1.25;font-family:'Segoe Script';-inkscape-font-specification:'Segoe Script';fill:#0e0e0e;fill-opacity:1;stroke-width:0.384379"
   x="32.765244"
   y="8.4332943"
   id="text9344"
   transform="scale(0.9743041,1.0263736)"><tspan
     sodipodi:role="line"
     id="tspan9342"
     x="32.765244"
     y="8.4332943"
     style="fill:#0e0e0e;fill-opacity:1;stroke-width:0.384379">c</tspan></text><text
   xml:space="preserve"
   style="font-size:12.6976px;line-height:1.25;font-family:'Segoe Script';-inkscape-font-specification:'Segoe Script';fill:#151515;fill-opacity:1;stroke-width:0.317436"
   x="30.959919"
   y="61.105183"
   id="text11307"
   transform="scale(0.89658976,1.1153373)"><tspan
     sodipodi:role="line"
     id="tspan11305"
     x="30.959919"
     y="61.105183"
     style="fill:#151515;fill-opacity:1;stroke-width:0.317436">ю</tspan></text><text
   xml:space="preserve"
   style="font-size:14.6241px;line-height:1.25;font-family:'Segoe Script';-inkscape-font-specification:'Segoe Script';fill:#131313;fill-opacity:1;stroke-width:0.365603"
   x="0.94663608"
   y="47.131577"
   id="text16794"
   transform="scale(1.3900002,0.71942437)"><tspan
     sodipodi:role="line"
     id="tspan16792"
     x="0.94663608"
     y="47.131577"
     style="fill:#131313;fill-opacity:1;stroke-width:0.365603">з</tspan></text><text
   xml:space="preserve"
   style="font-size:15.2287px;line-height:1.25;font-family:'Segoe Script';-inkscape-font-specification:'Segoe Script';fill:#161616;fill-opacity:1;stroke-width:0.38072"
   x="41.985397"
   y="48.997028"
   id="text19318"
   transform="scale(1.40543,0.711526)"><tspan
     sodipodi:role="line"
     id="tspan19316"
     x="41.985397"
     y="48.997028"
     style="fill:#161616;fill-opacity:1;stroke-width:0.38072">в</tspan></text><text
   xml:space="preserve"
   style="font-size:11.2272px;line-height:1.25;font-family:'Segoe Script';-inkscape-font-specification:'Segoe Script';fill:#16272a;fill-opacity:0.799714;stroke-width:0.28068"
   x="9.380434"
   y="40.449505"
   id="text17884"
   transform="scale(1.2669602,0.78929079)"><tspan
     sodipodi:role="line"
     id="tspan17882"
     x="9.380434"
     y="40.449505"
     style="stroke-width:0.28068">_</tspan></text><text
   xml:space="preserve"
   style="font-size:11.4359px;line-height:1.25;font-family:'Segoe Script';-inkscape-font-specification:'Segoe Script';fill:#16272a;fill-opacity:0.799714;stroke-width:0.285896"
   x="38.132755"
   y="40.9128"
   id="text17884-6"
   transform="scale(1.290513,0.77488563)"><tspan
     sodipodi:role="line"
     id="tspan17882-2"
     x="38.132755"
     y="40.9128"
     style="stroke-width:0.285896">_</tspan></text><text
   xml:space="preserve"
   style="font-size:10.0461px;line-height:1.25;font-family:'Segoe Script';-inkscape-font-specification:'Segoe Script';fill:#16272a;fill-opacity:0.799714;stroke-width:0.251154"
   x="-42.80172"
   y="44.898743"
   id="text17884-0"
   transform="matrix(-0.01772302,-1.411772,0.70762457,-0.05616518,0,0)"><tspan
     sodipodi:role="line"
     id="tspan17882-4"
     x="-42.80172"
     y="44.898743"
     style="stroke-width:0.251154">_</tspan></text><text
   xml:space="preserve"
   style="font-size:11.3374px;line-height:1.25;font-family:'Segoe Script';-inkscape-font-specification:'Segoe Script';fill:#16272a;fill-opacity:0.799714;stroke-width:0.283435"
   x="-12.158128"
   y="46.106609"
   id="text17884-9"
   transform="matrix(4.9541204e-4,-1.3798994,0.72468999,0.00149841,0,0)"><tspan
     sodipodi:role="line"
     id="tspan17882-7"
     x="-12.158128"
     y="46.106609"
     style="stroke-width:0.283435">_</tspan></text></svg>
