<?xml version="1.0" encoding="UTF-8" standalone="no"?>
<!-- Generator: Adobe Illustrator 22.0.1, SVG Export Plug-In . SVG Version: 6.00 Build 0)  -->

<svg
   version="1.1"
   id="Layer_1"
   x="0px"
   y="0px"
   viewBox="0 0 70 70"
   xml:space="preserve"
   sodipodi:docname="eastWind.svg"
   width="70"
   height="70"
   inkscape:version="1.1.1 (3bf5ae0d25, 2021-09-20)"
   xmlns:inkscape="http://www.inkscape.org/namespaces/inkscape"
   xmlns:sodipodi="http://sodipodi.sourceforge.net/DTD/sodipodi-0.dtd"
   xmlns="http://www.w3.org/2000/svg"
   xmlns:svg="http://www.w3.org/2000/svg"><defs
   id="defs7" /><sodipodi:namedview
   id="namedview5"
   pagecolor="#ffffff"
   bordercolor="#666666"
   borderopacity="1.0"
   inkscape:pageshadow="2"
   inkscape:pageopacity="0.0"
   inkscape:pagecheckerboard="0"
   showgrid="false"
   inkscape:zoom="10.158767"
   inkscape:cx="72.154426"
   inkscape:cy="53.008402"
   inkscape:window-width="2400"
   inkscape:window-height="1321"
   inkscape:window-x="2391"
   inkscape:window-y="-9"
   inkscape:window-maximized="1"
   inkscape:current-layer="Layer_1"
   width="140px" />
<path
   d="m 31.564834,10.527611 c 4.046859,-0.519707 7.915817,0.07324 11.584697,1.760338 3.668874,1.687097 6.708059,4.224341 9.117565,7.611741 2.409511,3.387397 3.842491,7.220735 4.318796,11.497471 0.356644,3.202282 0.104074,6.35459 -0.740186,9.433308 -0.844284,3.078707 -2.171906,5.792123 -3.91868,8.174716 -1.746789,2.38259 -3.939576,4.373728 -6.578396,5.973378 -2.638828,1.599661 -5.444871,2.601094 -8.499865,2.99343 -3.015299,0.387244 -5.981971,0.127155 -8.877821,-0.761711 -2.895852,-0.888873 -5.466409,-2.289634 -7.684801,-4.14164 -2.218386,-1.851993 -4.086939,-4.17632 -5.583502,-6.954412 -1.496553,-2.778101 -2.431891,-5.756482 -2.790879,-8.979832 -0.359,-3.223358 -0.108776,-6.39673 0.735501,-9.475448 0.844281,-3.078712 2.169554,-5.813186 3.916322,-8.195786 1.746778,-2.382597 3.941924,-4.352657 6.538726,-5.968279 2.596801,-1.615641 5.427376,-2.57749 8.462523,-2.967274 z m 0.581898,5.224785 c -4.701505,0.603786 -8.58625,2.940414 -11.651904,7.030956 -3.025979,4.085439 -4.248659,8.644475 -3.683193,13.721781 0.370714,3.328692 1.489292,6.326281 3.370862,8.948089 1.881578,2.621809 4.237752,4.627061 7.101184,5.947479 2.863428,1.320423 5.853558,1.791179 8.987899,1.38866 3.134329,-0.402532 5.956583,-1.619745 8.449302,-3.628009 2.492705,-2.008274 4.36427,-4.535111 5.614678,-7.580509 1.250411,-3.045404 1.681507,-6.220636 1.31079,-9.549326 -0.370726,-3.328691 -1.489297,-6.326279 -3.370874,-8.948092 -1.881567,-2.621797 -4.25759,-4.624512 -7.123368,-5.965994 -2.86578,-1.341482 -5.871049,-1.767558 -9.005376,-1.365035 z m -10.45761,11.792439 26.886886,4.560449 c 0.200722,-0.0044 0.311642,0.0882 0.332742,0.277824 0.02107,0.189612 -0.06632,0.307686 -0.262343,0.354235 L 23.516918,43.956547 c -0.208831,0.112304 -0.369881,0.11162 -0.500631,0.02157 -0.130736,-0.09009 -0.149522,-0.258593 -0.0563,-0.505625 l 1.76471,-7.641667 c 0.05589,-0.220869 0.03243,-0.431548 -0.06806,-0.610966 l -3.400106,-7.042484 c -0.142487,-0.195386 -0.158898,-0.342859 -0.04927,-0.44242 0.109646,-0.09954 0.278791,-0.206756 0.481857,-0.190103 z"
   id="path2"
   style="fill:#2c4f54;fill-opacity:0.5;stroke:#2e3333;stroke-width:0.126934;stroke-miterlimit:4;stroke-dasharray:none;stroke-opacity:0.9" />
<path
   style="fill:#1f4447;fill-opacity:0.809728;stroke:#e4e7e7;stroke-width:0.129742;stroke-miterlimit:4;stroke-dasharray:none;stroke-opacity:0.9"
   d="m 16.975926,34.306768 c -0.0091,-0.918922 0.04594,-1.936671 0.152814,-2.819962 0.600896,-4.966746 3.631179,-9.897596 7.826713,-12.735577 2.258388,-1.527629 4.316643,-2.281039 7.134911,-2.611677 2.892707,-0.339484 5.150054,-0.06716 7.74366,0.93379 1.748101,0.674663 3.168902,1.504499 4.710476,2.751241 3.059349,2.474235 5.106074,5.558404 6.232821,9.392101 0.234652,0.798375 0.292906,1.134601 0.504539,2.911997 0.25683,2.157436 0.270374,2.773115 0.09622,4.382611 -0.263053,2.430833 -1.182229,5.197964 -2.456248,7.39435 -0.519668,0.895903 -1.816385,2.595545 -2.550814,3.343413 -1.777438,1.80999 -3.839709,3.201567 -5.953113,4.017026 -1.558478,0.601352 -2.12161,0.735088 -4.056023,0.963251 -1.364596,0.160908 -1.945778,0.199915 -2.550042,0.17084 -3.669745,-0.176411 -7.20533,-1.571731 -10.10313,-3.987233 -2.967797,-2.473864 -5.1056,-5.832538 -6.099846,-9.583414 -0.229193,-0.86466 -0.624604,-3.690084 -0.632956,-4.522768 z m 6.072868,-2.759657 c 0.952116,1.93665 1.75736,3.59359 1.789424,3.682084 0.03958,0.109205 -0.233161,1.444952 -0.849303,4.159371 -0.522447,2.301708 -0.884923,4.050659 -0.854174,4.121457 0.06376,0.146723 0.330604,0.196812 0.579264,0.108725 0.09871,-0.03496 5.754699,-2.487999 12.568864,-5.451154 11.940764,-5.19248 12.390922,-5.394653 12.431583,-5.583469 0.03145,-0.145922 0.01397,-0.218978 -0.06832,-0.286309 -0.136235,-0.111447 -26.629671,-4.827427 -26.924058,-4.792667 -0.265979,0.03141 -0.513939,0.255348 -0.451149,0.40747 0.0258,0.0623 0.825764,1.697848 1.777881,3.634499 z"
   id="path861" /><rect
   style="fill:#c7485e;fill-opacity:1;stroke:#3c4343;stroke-width:0.545025;stroke-opacity:0.9"
   id="rect2803"
   width="6.1885071"
   height="0.067818888"
   x="35.287579"
   y="-34.169136"
   transform="matrix(0.12069795,0.99268928,-0.9915773,0.12951625,0,0)"
   inkscape:transform-center-x="3.7550983"
   inkscape:transform-center-y="-2.8688908" /><path
   style="fill:#cd425b;fill-opacity:1;stroke:#e27364;stroke-width:0.0432419;stroke-opacity:0.9"
   d="m 38.749751,30.779176 c 0.104048,0.01718 2.348901,0.360326 4.988604,0.76234 2.639715,0.402011 4.863206,0.755342 4.941103,0.785168 0.122572,0.04694 -8.852256,4.019032 -9.174384,4.060412 -0.08799,0.0114 -0.229868,-0.738421 -0.532208,-2.811954 -0.385497,-2.643926 -0.399931,-2.825342 -0.223139,-2.795963 z"
   id="path3397"
   inkscape:transform-center-x="-1.1576568"
   inkscape:transform-center-y="-2.5268672" /><g
   aria-label="c"
   transform="scale(0.9743041,1.0263736)"
   id="text9344"
   style="font-size:15.3753px;line-height:1.25;font-family:'Segoe Script';-inkscape-font-specification:'Segoe Script';fill:#0e0e0e;stroke-width:0.384379"><path
     d="m 41.346283,5.3252013 q 0,0.270269 -0.195194,0.4879857 -0.202702,0.2252241 -0.352852,0.382881 -0.150149,0.1501494 -0.285283,0.2777764 -0.135135,0.127627 -0.285284,0.2477465 -0.15015,0.1126121 -0.352852,0.2627615 -0.570567,0.4129109 -1.088583,0.6981948 -0.518015,0.2777764 -1.006001,0.4579557 -0.487986,0.1726719 -0.968464,0.2477466 -0.47297,0.075075 -0.953448,0.075075 -0.503001,0 -0.900897,-0.1876868 Q 34.559529,8.0804432 34.281753,7.7501144 34.011484,7.4197857 33.868842,6.9843524 33.7262,6.5414116 33.7262,6.053426 v -0.037537 q 0,-0.4954931 0.127627,-1.051046 0.127627,-0.5630603 0.352851,-1.1261206 0.232732,-0.5630603 0.555553,-1.1035982 0.322821,-0.5480454 0.71321,-1.0210161 0.157656,-0.1876867 0.375373,-0.3978959 0.225224,-0.2177167 0.472971,-0.39789598 0.255254,-0.1801793 0.525523,-0.29279136 0.277776,-0.12011954 0.540538,-0.12011954 0.180179,0 0.345343,0.11261207 0.165165,0.10510459 0.307807,0.27777642 0.142642,0.17267179 0.262761,0.39038849 0.12012,0.2102092 0.202702,0.4354333 0.08258,0.2177167 0.127627,0.4204184 0.04505,0.2027017 0.04505,0.3453436 0,0.2177167 -0.135135,0.5630604 -0.135134,0.3453436 -0.322821,0.3453436 -0.270269,0 -0.450448,-0.3678661 -0.06757,-0.1426419 -0.12012,-0.3303287 -0.04505,-0.1876867 -0.112612,-0.367866 -0.06006,-0.1801793 -0.165164,-0.3303288 -0.105105,-0.1576569 -0.292792,-0.2327316 -0.187686,0.045045 -0.382881,0.1951943 -0.187686,0.1501494 -0.375373,0.3678661 -0.18018,0.2177166 -0.360359,0.495493 -0.172672,0.270269 -0.330329,0.5630604 -0.150149,0.2702689 -0.292791,0.62312 -0.142642,0.3453437 -0.255254,0.7207172 -0.112612,0.3678661 -0.180179,0.7357322 -0.06757,0.3678661 -0.06757,0.6756724 0,0.2177166 0.105105,0.4429408 0.105105,0.2177166 0.270269,0.3978959 0.172672,0.1801793 0.382881,0.2927914 0.217717,0.112612 0.442941,0.112612 1.111106,0 2.207196,-0.4579557 1.096091,-0.4579557 2.087077,-1.3288223 0.548046,-0.4804782 0.908404,-0.4804782 0.105105,0 0.105105,0.2027017 z"
     id="path3226" /></g><g
   aria-label="ю"
   transform="scale(0.89658976,1.1153373)"
   id="text11307"
   style="font-size:12.6976px;line-height:1.25;font-family:'Segoe Script';-inkscape-font-specification:'Segoe Script';fill:#151515;stroke-width:0.317436"><path
     d="m 32.621519,58.544583 q 0,-0.0248 -0.031,-0.0434 -0.0248,-0.0248 -0.062,-0.062 -0.0372,-0.0372 -0.0682,-0.0992 -0.0248,-0.062 -0.0248,-0.1736 0,-0.0992 0.0558,-0.1798 0.0558,-0.0806 0.1178,-0.1488 0.0682,-0.0682 0.124,-0.124 0.062,-0.0558 0.0744,-0.1054 0.1054,-0.5952 0.1798,-1.1222 0.0744,-0.527001 0.093,-0.880401 0.0062,-0.1054 0,-0.217 0,-0.1116 -0.0062,-0.2232 -0.0062,-0.0806 -0.0124,-0.155 0,-0.0744 0,-0.1426 0,-0.0744 0.0558,-0.1674 0.0558,-0.093 0.1364,-0.1736 0.0868,-0.0806 0.186,-0.1302 0.1054,-0.0558 0.2046,-0.0558 0.0868,0 0.1736,0.0496 0.0868,0.0434 0.155,0.1302 0.0682,0.0806 0.1116,0.2046 0.0434,0.1178 0.0434,0.2666 0,0.1116 -0.0186,0.2728 -0.0186,0.1612 -0.0496,0.3534 -0.031,0.1922 -0.0744,0.403001 -0.0372,0.2108 -0.0744,0.4216 -0.0496,0.2914 -0.0992,0.558 -0.0434,0.2666 -0.0682,0.4588 0.0248,0.0558 0.0434,0.0992 0.0248,0.0372 0.062,0.062 0.0372,0.0248 0.093,0.0372 0.062,0.0124 0.1612,0.0124 0.2666,0 0.5642,-0.0558 0.2976,-0.0558 0.5642,-0.1426 0.2666,-0.0868 0.4774,-0.1798 0.217,-0.0992 0.3224,-0.186 0.0682,-0.0558 0.1488,-0.1488 0.0868,-0.093 0.1736,-0.1984 0.0868,-0.1116 0.1674,-0.217 0.0868,-0.1116 0.1488,-0.1922 0.2108,-0.2666 0.4774,-0.520801 0.2666,-0.2542 0.589,-0.4464 0.3224,-0.1922 0.6944,-0.31 0.3782,-0.1178 0.8184,-0.1178 0.3348,0 0.6572,0.1674 0.3224,0.1612 0.5704,0.4402 0.2542,0.279 0.403,0.644801 0.155,0.3596 0.155,0.7564 0,0.3968 -0.0806,0.7254 -0.0744,0.3224 -0.2418,0.6882 -0.093,0.1922 -0.3224,0.4588 -0.2294,0.2666 -0.5518,0.5518 -0.3162,0.2852 -0.6944,0.5642 -0.3782,0.279 -0.7688,0.5022 -0.3906,0.2232 -0.7688,0.3596 -0.372,0.1364 -0.6758,0.1364 -0.4092,0 -0.7006,-0.1364 -0.2914,-0.1426 -0.4774,-0.3658 -0.186,-0.2294 -0.2728,-0.5208 -0.0868,-0.2914 -0.0868,-0.589 0,-0.2418 0.0682,-0.5828 0.0744,-0.3472 0.248,-0.7006 -0.2356,0.1488 -0.527,0.2356 -0.2852,0.0868 -0.527,0.155 -0.1054,0.031 -0.2356,0.0558 -0.1302,0.0186 -0.2604,0.0372 -0.124,0.0186 -0.2418,0.0372 -0.1116,0.0186 -0.1922,0.031 -0.124,0.0248 -0.1736,0.0992 -0.0434,0.0682 -0.0682,0.1798 -0.0248,0.1054 -0.0744,0.279 -0.0496,0.1736 -0.0992,0.3596 -0.0558,0.1984 -0.1178,0.4092 -0.062,0.2108 -0.1116,0.403 -0.0434,0.186 -0.0806,0.3472 -0.031,0.155 -0.031,0.2418 0,0.0806 -0.0682,0.1736 -0.062,0.093 -0.1488,0.1736 -0.0806,0.0868 -0.1674,0.1426 -0.0806,0.0558 -0.124,0.0558 -0.093,0 -0.1798,-0.062 -0.0806,-0.062 -0.1426,-0.1426 -0.062,-0.0806 -0.0992,-0.1612 -0.0372,-0.0868 -0.0372,-0.1302 0,-0.0558 0.0434,-0.1984 0.0496,-0.1426 0.0992,-0.2914 0.031,-0.093 0.0806,-0.2542 0.0496,-0.1612 0.0992,-0.3534 0.0558,-0.1984 0.1054,-0.4092 0.0558,-0.2108 0.0992,-0.3968 0.0434,-0.186 0.0682,-0.3224 0.0248,-0.1426 0.0248,-0.2046 z m 7.471,-1.4012 q 0,-0.62 -0.3596,-0.9672 -0.3534,-0.353401 -1.0168,-0.353401 -0.093,0 -0.2294,0.0744 -0.1364,0.0744 -0.2976,0.192201 -0.155,0.1116 -0.3162,0.248 -0.155,0.1364 -0.2976,0.2666 -0.1364,0.1302 -0.2356,0.2356 -0.0992,0.1054 -0.1364,0.1488 -0.1302,0.155 -0.2728,0.4278 -0.1364,0.2666 -0.2542,0.5766 -0.1178,0.31 -0.1984,0.6262 -0.0744,0.31 -0.0744,0.5456 0,0.1426 0.0372,0.2914 0.0434,0.1488 0.124,0.2728 0.0868,0.1178 0.217,0.1984 0.1302,0.0744 0.3038,0.0744 0.1922,0 0.4898,-0.1116 0.2976,-0.1116 0.6262,-0.31 0.3348,-0.1984 0.6696,-0.4712 0.341,-0.2728 0.6076,-0.589 0.2728,-0.3162 0.4402,-0.6634 0.1736,-0.3534 0.1736,-0.713 z"
     id="path3268" /></g><g
   aria-label="з"
   transform="scale(1.3900002,0.71942437)"
   id="text16794"
   style="font-size:14.6241px;line-height:1.25;font-family:'Segoe Script';-inkscape-font-specification:'Segoe Script';fill:#131313;stroke-width:0.365603"><path
     d="m 1.9963151,47.70283 q 0.071407,0 0.1142508,0.04998 0.049985,0.04998 0.078547,0.121392 0.028563,0.07855 0.035703,0.171376 0.014281,0.09283 0.014281,0.178517 0,0.164235 0.057125,0.357033 0.064266,0.192798 0.1999389,0.357034 0.1428134,0.164235 0.3641743,0.271346 0.2213609,0.11425 0.5426912,0.11425 0.4355811,0 0.8997249,-0.228501 0.4641438,-0.228502 0.8497402,-0.63552 0.3855964,-0.407019 0.6283793,-0.971132 0.2499236,-0.556972 0.2499236,-1.221055 0,-0.614098 -0.1285322,-1.042538 Q 5.7737315,44.796576 5.566652,44.532371 5.3667131,44.261026 5.1025082,44.139634 4.8383032,44.018243 4.5740983,44.018243 q -0.099969,0 -0.2213609,0.04998 -0.1213914,0.04284 -0.2499235,0.11425 -0.1213915,0.06427 -0.2499236,0.142814 -0.1213915,0.07855 -0.2213609,0.142813 -0.1713762,0.114251 -0.328471,0.192798 -0.1499541,0.07855 -0.3998777,0.07855 -0.1927982,0 -0.3356117,-0.142814 -0.1356728,-0.149954 -0.1356728,-0.392737 0,-0.185657 0.1285321,-0.314189 0.1356728,-0.128532 0.4141591,-0.242783 0.5926759,-0.242783 1.0568197,-0.492707 0.4712845,-0.257064 0.7926148,-0.549832 0.3213303,-0.299908 0.4927065,-0.656942 0.1713762,-0.357033 0.1713762,-0.814036 0,-0.178517 -0.057125,-0.349893 -0.049985,-0.178517 -0.1570949,-0.31419 -0.1071101,-0.142813 -0.2642049,-0.228502 -0.1499541,-0.09283 -0.349893,-0.09283 -0.4284404,0 -0.8140368,0.264205 -0.3855964,0.264205 -0.7569114,0.649801 -0.1642355,0.171376 -0.2713456,0.249923 -0.1071101,0.07141 -0.2285016,0.07141 -0.099969,0 -0.1785168,-0.04998 -0.071407,-0.05712 -0.1213915,-0.128532 -0.042844,-0.07855 -0.071407,-0.164235 -0.021422,-0.09283 -0.021422,-0.157095 0,-0.171376 0.092829,-0.32133 0.09997,-0.157095 0.264205,-0.292768 0.3570336,-0.299908 0.699786,-0.492706 0.3427523,-0.192799 0.5641132,-0.285627 0.2499236,-0.09997 0.5141285,-0.192799 0.2713456,-0.09283 0.5069878,-0.09283 0.3356117,0 0.6426607,0.121391 0.3070489,0.114251 0.5355505,0.342753 0.2356422,0.22136 0.371315,0.549831 0.1428135,0.328471 0.1428135,0.74263 0,0.599817 -0.2927676,1.192493 -0.285627,0.592676 -0.9782723,1.149648 0.4784251,0.02142 0.8354588,0.242783 0.3570337,0.221361 0.5926759,0.585536 0.2427829,0.364174 0.3570337,0.842599 0.1213915,0.471285 0.1213915,0.999694 0,0.52841 -0.1428135,1.049679 -0.1428135,0.52127 -0.4070184,0.999695 -0.2570643,0.478425 -0.6212386,0.885443 -0.3570337,0.407019 -0.7926148,0.706927 -0.4284404,0.299908 -0.9211469,0.471284 -0.4855658,0.171377 -0.9996943,0.171377 -0.4927065,0 -0.8568809,-0.164236 Q 2.0605812,49.937861 1.8177983,49.695078 1.582156,49.452295 1.4607646,49.173809 1.3393731,48.895323 1.3393731,48.659681 q 0,-0.178517 0.064266,-0.385597 0.071407,-0.207079 0.1570948,-0.328471 0.057125,-0.07855 0.1642355,-0.164235 0.1071101,-0.07855 0.2713456,-0.07855 z"
     id="path3289" /></g><g
   aria-label="в"
   transform="scale(1.40543,0.711526)"
   id="text19318"
   style="font-size:15.2287px;line-height:1.25;font-family:'Segoe Script';-inkscape-font-specification:'Segoe Script';fill:#161616;stroke-width:0.38072"><path
     d="m 47.755647,39.441912 q 0,-0.08923 -0.03718,-0.178462 -0.02974,-0.09667 -0.09667,-0.171025 -0.05949,-0.08179 -0.16359,-0.133846 -0.09667,-0.05205 -0.230512,-0.05205 -0.260256,0 -0.54282,0.185897 -0.275128,0.185897 -0.557692,0.513076 -0.275128,0.319743 -0.535384,0.765897 -0.260256,0.438717 -0.483332,0.951793 -0.223077,0.513077 -0.401538,1.078204 -0.171026,0.557692 -0.275128,1.122819 0.06692,-0.04462 0.200769,-0.141281 0.133846,-0.104103 0.297435,-0.230513 0.171026,-0.133846 0.356923,-0.282564 0.193333,-0.156153 0.364358,-0.304871 0.178462,-0.148718 0.327179,-0.282564 0.148718,-0.133846 0.237949,-0.230513 0.825384,-0.892306 1.182306,-1.546664 0.356923,-0.654359 0.356923,-1.063332 z m -0.230513,8.015887 q -0.230512,0.342051 -0.557691,0.66923 -0.319744,0.319744 -0.70641,0.565128 -0.386666,0.245384 -0.825383,0.386666 -0.431282,0.141282 -0.877435,0.104103 -0.312308,-0.02231 -0.594871,-0.200769 -0.282564,-0.185898 -0.498205,-0.520513 -0.215641,-0.34205 -0.342051,-0.832819 -0.12641,-0.490769 -0.12641,-1.130255 0,-0.408974 0.04462,-0.884871 0.04462,-0.483333 0.118974,-0.974101 0.07436,-0.490769 0.163589,-0.95923 0.09667,-0.468461 0.185897,-0.862563 0.118975,-0.535384 0.312308,-1.055896 0.193333,-0.527948 0.431281,-1.011281 0.237949,-0.490769 0.513077,-0.92205 0.275128,-0.431282 0.565127,-0.780768 0.401538,-0.468461 0.914614,-0.751025 0.520513,-0.282564 1.219486,-0.282564 0.29,0 0.527948,0.118974 0.237949,0.118974 0.408974,0.312308 0.171026,0.185897 0.260256,0.423845 0.09667,0.237949 0.09667,0.468461 0,0.319743 -0.133846,0.713845 -0.12641,0.386667 -0.371795,0.810512 -0.245384,0.423846 -0.594871,0.855127 -0.349486,0.431282 -0.79564,0.83282 0.104103,0.0074 0.237949,0.03718 0.141282,0.02231 0.289999,0.08923 0.156154,0.06692 0.312308,0.178461 0.163589,0.111539 0.312307,0.282564 0.06692,0.08179 0.148718,0.223077 0.08179,0.133846 0.148717,0.334615 0.07436,0.193333 0.118975,0.446153 0.05205,0.25282 0.05205,0.557692 0,0.594871 -0.215641,1.286409 -0.208205,0.684101 -0.743589,1.472305 z m -0.208205,-2.736407 q 0,-0.408973 -0.118974,-0.684101 -0.118974,-0.282564 -0.282564,-0.446154 -0.163589,-0.171025 -0.334615,-0.237948 -0.171025,-0.07436 -0.275127,-0.07436 -0.09667,0 -0.304872,0.148718 -0.208205,0.148718 -0.446153,0.327179 -0.178461,0.156154 -0.356923,0.29 -0.178461,0.133846 -0.334615,0.260256 -0.148718,0.12641 -0.275128,0.25282 -0.12641,0.12641 -0.208205,0.267692 -0.208204,0.37923 -0.245384,0.862563 -0.03718,0.483333 -0.03718,0.988973 0,0.334615 0.06692,0.602307 0.07436,0.260256 0.178461,0.446153 0.111538,0.185898 0.237948,0.29 0.126411,0.09667 0.230513,0.09667 0.25282,0 0.572563,-0.104103 0.319744,-0.104102 0.654359,-0.408974 0.289999,-0.267692 0.520512,-0.602307 0.237948,-0.334615 0.401538,-0.706409 0.171025,-0.371794 0.260256,-0.773332 0.09667,-0.401538 0.09667,-0.795641 z"
     id="path3247" /></g><text
   xml:space="preserve"
   style="font-size:11.2272px;line-height:1.25;font-family:'Segoe Script';-inkscape-font-specification:'Segoe Script';fill:#16272a;fill-opacity:0.799714;stroke-width:0.28068"
   x="9.6135206"
   y="40.387146"
   id="text17884"
   transform="scale(1.2669602,0.78929078)"><tspan
     sodipodi:role="line"
     id="tspan17882"
     x="9.6135206"
     y="40.387146"
     style="stroke-width:0.28068">_</tspan></text><text
   xml:space="preserve"
   style="font-size:11.4359px;line-height:1.25;font-family:'Segoe Script';-inkscape-font-specification:'Segoe Script';fill:#16272a;fill-opacity:0.799714;stroke-width:0.285896"
   x="38.704838"
   y="40.9128"
   id="text17884-6"
   transform="scale(1.290513,0.77488564)"><tspan
     sodipodi:role="line"
     id="tspan17882-2"
     x="38.704838"
     y="40.9128"
     style="stroke-width:0.285896">_</tspan></text><text
   xml:space="preserve"
   style="font-size:10.0461px;line-height:1.25;font-family:'Segoe Script';-inkscape-font-specification:'Segoe Script';fill:#16272a;fill-opacity:0.799714;stroke-width:0.251154"
   x="-42.80172"
   y="44.898743"
   id="text17884-0"
   transform="matrix(-0.01772302,-1.411772,0.70762457,-0.05616518,0,0)"><tspan
     sodipodi:role="line"
     id="tspan17882-4"
     x="-42.80172"
     y="44.898743"
     style="stroke-width:0.251154">_</tspan></text><text
   xml:space="preserve"
   style="font-size:11.3374px;line-height:1.25;font-family:'Segoe Script';-inkscape-font-specification:'Segoe Script';fill:#16272a;fill-opacity:0.799714;stroke-width:0.283435"
   x="-12.586146"
   y="46.106903"
   id="text17884-9"
   transform="matrix(4.9541203e-4,-1.3798994,0.72468998,0.00149841,0,0)"><tspan
     sodipodi:role="line"
     id="tspan17882-7"
     x="-12.586146"
     y="46.106903"
     style="stroke-width:0.283435">_</tspan></text></svg>
