<?xml version="1.0" encoding="UTF-8" standalone="no"?>
<!-- Generator: Adobe Illustrator 22.0.1, SVG Export Plug-In . SVG Version: 6.00 Build 0)  -->

<svg
   version="1.1"
   id="Layer_1"
   x="0px"
   y="0px"
   viewBox="0 0 70 70"
   xml:space="preserve"
   sodipodi:docname="northwestWind.svg"
   width="70"
   height="70"
   inkscape:version="1.1.1 (3bf5ae0d25, 2021-09-20)"
   xmlns:inkscape="http://www.inkscape.org/namespaces/inkscape"
   xmlns:sodipodi="http://sodipodi.sourceforge.net/DTD/sodipodi-0.dtd"
   xmlns="http://www.w3.org/2000/svg"
   xmlns:svg="http://www.w3.org/2000/svg"><defs
   id="defs7" /><sodipodi:namedview
   id="namedview5"
   pagecolor="#ffffff"
   bordercolor="#666666"
   borderopacity="1.0"
   inkscape:pageshadow="2"
   inkscape:pageopacity="0.0"
   inkscape:pagecheckerboard="0"
   showgrid="false"
   inkscape:zoom="5.0793835"
   inkscape:cx="90.759046"
   inkscape:cy="75.10754"
   inkscape:window-width="2400"
   inkscape:window-height="1321"
   inkscape:window-x="2391"
   inkscape:window-y="-9"
   inkscape:window-maximized="1"
   inkscape:current-layer="Layer_1"
   width="140px" />
<path
   d="M 17.927836,52.868831 C 14.554387,49.848855 12.181949,46.223878 10.812316,42.024873 9.4426908,37.825859 9.1998967,33.575955 10.083938,29.27515 c 0.884038,-4.300803 2.83291,-8.089872 5.83007,-11.382036 2.244171,-2.465058 4.895868,-4.388706 7.923764,-5.76953 3.027898,-1.380807 6.124323,-2.111599 9.26917,-2.2691996 3.144861,-0.1575788 6.310396,0.3214636 9.496603,1.4371286 3.186222,1.115688 6.026947,2.775689 8.573585,5.055461 2.513562,2.250158 4.48496,4.898024 5.912448,7.912576 1.427484,3.014538 2.215968,6.104599 2.393197,9.206725 0.177227,3.102112 -0.27159,6.232512 -1.348166,9.360167 -1.076593,3.127657 -2.72133,5.923297 -4.980268,8.404576 -2.258937,2.481295 -4.925397,4.42115 -7.953301,5.801969 -3.027903,1.380807 -6.13908,2.127816 -9.283938,2.285428 -3.144856,0.157597 -6.295626,-0.337653 -9.463528,-1.407524 -3.16791,-1.069861 -5.995645,-2.777103 -8.525738,-5.04206 z m 3.661558,-4.021954 c 3.919165,3.508475 8.595431,5.163326 14.04356,4.948343 5.415046,-0.244595 9.878648,-2.312292 13.436852,-6.220708 2.332764,-2.562371 3.858196,-5.523688 4.530237,-8.866326 0.672031,-3.342641 0.513703,-6.663313 -0.552349,-9.942998 -1.066049,-3.279683 -2.889811,-6.089725 -5.502588,-8.428718 -2.61278,-2.338971 -5.634232,-3.866407 -9.033048,-4.583734 -3.398815,-0.717315 -6.748017,-0.566034 -10.047594,0.453839 -3.299576,1.019879 -6.100094,2.810286 -8.432855,5.372661 -2.332768,2.562369 -3.858191,5.52369 -4.530235,8.866331 -0.672035,3.34263 -0.497172,6.678127 0.554127,9.974018 1.051291,3.295902 2.921116,6.088311 5.533893,8.427292 z M 38.483037,49.576672 22.340231,24.087464 c -0.150598,-0.16425 -0.159454,-0.319359 -0.02655,-0.465318 0.132913,-0.145925 0.289387,-0.153025 0.469504,-0.02124 l 27.201271,13.342305 c 0.240976,0.09796 0.358498,0.232616 0.383889,0.402519 0.02535,0.169914 -0.09272,0.29965 -0.354521,0.389065 l -7.272983,3.702993 c -0.213796,0.102957 -0.361441,0.265134 -0.428165,0.470311 l -3.01776,7.600618 c -0.04843,0.250988 -0.151781,0.364508 -0.309888,0.340709 -0.158277,-0.02397 -0.366162,-0.09232 -0.502001,-0.272782 z"
   id="path2"
   style="fill:#2c4f54;fill-opacity:0.5;stroke:#2e3332;stroke-width:0.136018;stroke-miterlimit:4;stroke-dasharray:none;stroke-opacity:0.9" />
<path
   style="fill:#1f4347;fill-opacity:0.81;stroke:#e4e7e7;stroke-width:0.136018;stroke-miterlimit:4;stroke-dasharray:none;stroke-opacity:0.9"
   d="m 46.988409,48.508279 c -0.700728,0.621524 -1.523453,1.257077 -2.279575,1.760983 -4.251738,2.833468 -10.209635,3.679331 -15.388267,2.184727 -2.787559,-0.804527 -4.836386,-1.964683 -7.102208,-4.021662 -2.32574,-2.111241 -3.727148,-4.117785 -4.807707,-6.883052 -0.728294,-1.863808 -1.103563,-3.56676 -1.244131,-5.645947 -0.278981,-4.12627 0.634218,-7.841662 2.780866,-11.314352 0.447047,-0.723199 0.664267,-0.994977 1.881285,-2.353821 1.477263,-1.64936 1.941494,-2.071738 3.304602,-3.006572 2.058739,-1.411841 4.844583,-2.518096 7.444374,-2.956126 1.060445,-0.178675 3.294087,-0.266401 4.393864,-0.172551 2.66166,0.227092 5.20454,0.964015 7.340481,2.127284 1.575097,0.857801 2.079932,1.223606 3.636088,2.634669 1.097735,0.995442 1.542527,1.439129 1.951401,1.946966 2.483223,3.084064 3.932502,6.874254 4.141386,10.8307 0.213917,4.052023 -0.845552,8.024472 -3.023025,11.334717 -0.50195,0.76308 -2.394483,2.970833 -3.029426,3.534056 z m -6.458152,-3.064348 c 0.81113,-2.063787 1.51179,-3.821936 1.55702,-3.906995 0.0558,-0.104986 1.278578,-0.777169 3.807583,-2.093134 2.144481,-1.115892 3.749334,-1.991691 3.781883,-2.063854 0.06742,-0.149578 -0.08445,-0.398747 -0.329729,-0.540862 -0.09738,-0.05641 -6.021985,-2.98873 -13.165818,-6.516253 -12.518457,-6.181437 -12.995334,-6.410173 -13.169682,-6.316865 -0.134726,0.07213 -0.178565,0.134992 -0.171603,0.246573 0.01154,0.184559 15.289252,24.750171 15.526101,24.964879 0.213977,0.194015 0.563323,0.244764 0.635599,0.09235 0.02955,-0.06247 0.717506,-1.80207 1.528637,-3.865856 z"
   id="path861" /><rect
   style="fill:#c7485e;fill-opacity:1;stroke:#3c4343;stroke-width:0.584014;stroke-opacity:0.9"
   id="rect2803"
   width="6.4009047"
   height="0.075285673"
   x="-8.1614323"
   y="43.672165"
   transform="matrix(0.63137233,-0.77547984,0.77513101,0.63180054,0,0)"
   inkscape:transform-center-x="-0.73428083"
   inkscape:transform-center-y="5.0435958" /><path
   style="fill:#cd425b;fill-opacity:1;stroke:#e27364;stroke-width:0.0457663;stroke-opacity:0.9"
   d="m 28.230248,33.01805 c -0.05877,-0.09755 -1.34989,-2.183092 -2.869243,-4.63454 -1.519354,-2.451444 -2.787429,-4.526065 -2.817937,-4.610255 -0.04799,-0.132487 9.374235,4.679798 9.631751,4.919281 0.07037,0.06538 -0.428505,0.67757 -1.870941,2.296024 -1.839229,2.063664 -1.973807,2.195311 -2.073606,2.029507 z"
   id="path3397"
   inkscape:transform-center-x="2.5012501"
   inkscape:transform-center-y="2.026692" /><text
   xml:space="preserve"
   style="font-size:12.0307px;line-height:1.25;font-family:'Segoe Script';-inkscape-font-specification:'Segoe Script';fill:#16272a;fill-opacity:0.799714;stroke-width:0.300764"
   x="7.4743776"
   y="43.483067"
   id="text17884"
   transform="scale(1.3184319,0.7584768)"><tspan
     sodipodi:role="line"
     id="tspan17882"
     x="7.4743776"
     y="43.483067"
     style="stroke-width:0.300764">_</tspan></text><text
   xml:space="preserve"
   style="font-size:12.2542px;line-height:1.25;font-family:'Segoe Script';-inkscape-font-specification:'Segoe Script';fill:#16272a;fill-opacity:0.799714;stroke-width:0.306355"
   x="38.734409"
   y="43.783798"
   id="text17884-6"
   transform="scale(1.3429415,0.74463408)"><tspan
     sodipodi:role="line"
     id="tspan17882-2"
     x="38.734409"
     y="43.783798"
     style="stroke-width:0.306355">_</tspan></text><text
   xml:space="preserve"
   style="font-size:10.765px;line-height:1.25;font-family:'Segoe Script';-inkscape-font-specification:'Segoe Script';fill:#16272a;fill-opacity:0.799714;stroke-width:0.269126"
   x="-45.204563"
   y="43.246346"
   id="text17884-0"
   transform="matrix(-0.01844304,-1.3566564,0.73637259,-0.0539725,0,0)"><tspan
     sodipodi:role="line"
     id="tspan17882-4"
     x="-45.204563"
     y="43.246346"
     style="stroke-width:0.269126">_</tspan></text><text
   xml:space="preserve"
   style="font-size:12.1488px;line-height:1.25;font-family:'Segoe Script';-inkscape-font-specification:'Segoe Script';fill:#16272a;fill-opacity:0.799714;stroke-width:0.303717"
   x="-12.85316"
   y="44.508411"
   id="text17884-9"
   transform="matrix(5.1553874e-4,-1.3260279,0.75413138,0.00143992,0,0)"><tspan
     sodipodi:role="line"
     id="tspan17882-7"
     x="-12.85316"
     y="44.508411"
     style="stroke-width:0.303717">_</tspan></text><g
   aria-label="c"
   transform="scale(1.0350715,0.96611687)"
   id="text9344"
   style="font-size:14.288px;line-height:1.25;font-family:'Segoe Script';-inkscape-font-specification:'Segoe Script';fill:#0e0e0e;stroke-width:0.357198"><path
     d="m 37.687536,5.6109173 q 0,0.2511562 -0.18139,0.4534765 -0.188367,0.2092969 -0.327899,0.3558047 -0.139531,0.1395313 -0.265109,0.2581328 -0.125578,0.1186016 -0.265109,0.2302266 -0.139532,0.1046484 -0.327899,0.2441797 -0.530219,0.3837109 -1.011601,0.6488203 -0.481383,0.2581328 -0.93486,0.4255703 -0.453476,0.160461 -0.899976,0.2302266 -0.439524,0.069766 -0.886024,0.069766 -0.467429,0 -0.837187,-0.174414 Q 31.380724,8.1713157 31.122591,7.864347 30.871435,7.5573782 30.73888,7.1527376 30.606326,6.7411204 30.606326,6.2876438 V 6.252761 q 0,-0.4604531 0.118601,-0.9767187 0.118602,-0.5232422 0.327899,-1.0464844 0.216273,-0.5232422 0.516265,-1.0255547 0.299992,-0.5092891 0.662774,-0.9488125 0.146507,-0.1744141 0.348828,-0.3697578 0.209297,-0.2023203 0.439523,-0.3697578 0.237203,-0.1674375 0.48836,-0.272086 0.258132,-0.111625 0.502312,-0.111625 0.167438,0 0.320922,0.1046485 0.153484,0.097672 0.286039,0.2581328 0.132555,0.1604609 0.24418,0.3627812 0.111625,0.1953438 0.188367,0.4046407 0.07674,0.2023203 0.118601,0.3906875 0.04186,0.1883671 0.04186,0.3209218 0,0.2023203 -0.125578,0.5232422 -0.125578,0.3209219 -0.299993,0.3209219 -0.251156,0 -0.418593,-0.3418516 Q 34.303904,3.3435344 34.255068,3.1691204 34.213208,2.9947063 34.150419,2.8272688 34.094607,2.6598313 33.996935,2.5203001 33.899263,2.3737923 33.724849,2.3040266 33.550435,2.345886 33.369044,2.4854173 33.19463,2.6249485 33.020216,2.8272688 32.852779,3.0295891 32.685341,3.2877219 32.52488,3.5388782 32.378372,3.8109641 q -0.139531,0.2511563 -0.272086,0.5790547 -0.132554,0.3209219 -0.237203,0.66975 -0.104648,0.3418516 -0.167437,0.6837032 -0.06279,0.3418515 -0.06279,0.6278906 0,0.2023203 0.09767,0.4116172 0.09767,0.2023203 0.251156,0.3697578 0.160461,0.1674375 0.355805,0.2720859 0.20232,0.1046485 0.411617,0.1046485 1.032531,0 2.051109,-0.4255703 1.018578,-0.4255704 1.939485,-1.2348516 0.509289,-0.4465 0.844164,-0.4465 0.09767,0 0.09767,0.1883672 z"
     id="path3827" /></g><g
   aria-label="в"
   transform="scale(1.4105403,0.7089482)"
   id="text19318"
   style="font-size:13.7317px;line-height:1.25;font-family:'Segoe Script';-inkscape-font-specification:'Segoe Script';fill:#161616;stroke-width:0.343295"><path
     d="m 48.260636,45.137901 q 0,-0.08046 -0.03352,-0.160918 -0.02682,-0.08716 -0.08716,-0.154214 -0.05364,-0.07375 -0.147509,-0.120688 -0.08716,-0.04693 -0.207853,-0.04693 -0.234672,0 -0.48946,0.167623 -0.248082,0.167624 -0.50287,0.462641 -0.248082,0.288312 -0.482755,0.690608 -0.234672,0.395591 -0.43582,0.858231 -0.201148,0.46264 -0.362066,0.972215 -0.154214,0.50287 -0.248083,1.012445 0.06034,-0.04023 0.181033,-0.127394 0.120689,-0.09387 0.268197,-0.207853 0.154214,-0.120689 0.321837,-0.254787 0.174328,-0.140804 0.328542,-0.274902 0.160918,-0.134099 0.295017,-0.254788 0.134098,-0.120689 0.214558,-0.207853 0.744247,-0.804592 1.066084,-1.394625 0.321836,-0.590034 0.321836,-0.958806 z m -0.207852,7.227917 q -0.207853,0.308426 -0.50287,0.603443 -0.288312,0.288312 -0.636969,0.509575 -0.348656,0.221263 -0.744247,0.348657 -0.388886,0.127393 -0.791182,0.09387 -0.281607,-0.02012 -0.536395,-0.181033 -0.254787,-0.167624 -0.44923,-0.469346 -0.194443,-0.308427 -0.308427,-0.750952 -0.113984,-0.442525 -0.113984,-1.01915 0,-0.368771 0.04023,-0.797886 0.04023,-0.435821 0.107279,-0.878347 0.06705,-0.442525 0.147508,-0.864936 0.08716,-0.42241 0.167624,-0.777772 0.107278,-0.482755 0.281607,-0.9521 0.174328,-0.47605 0.388886,-0.911871 0.214558,-0.442525 0.46264,-0.831411 0.248082,-0.388886 0.509575,-0.704018 0.362066,-0.422411 0.824706,-0.677198 0.469346,-0.254788 1.099609,-0.254788 0.261492,0 0.47605,0.107279 0.214558,0.107279 0.368772,0.281607 0.154213,0.167624 0.234672,0.382182 0.08716,0.214557 0.08716,0.42241 0,0.288312 -0.120689,0.643674 -0.113983,0.348656 -0.335246,0.730837 -0.221263,0.382181 -0.536395,0.771067 -0.315131,0.388886 -0.717427,0.750953 0.09387,0.0067 0.214558,0.03352 0.127393,0.02012 0.261492,0.08046 0.140803,0.06034 0.281607,0.160918 0.147508,0.100574 0.281607,0.254787 0.06034,0.07375 0.134099,0.201148 0.07375,0.120689 0.134098,0.301722 0.06705,0.174328 0.107279,0.402296 0.04694,0.227968 0.04694,0.50287 0,0.536394 -0.194443,1.159953 -0.187738,0.616854 -0.670493,1.327577 z m -0.187738,-2.467415 q 0,-0.368772 -0.107279,-0.616854 -0.107279,-0.254787 -0.254788,-0.402296 -0.147508,-0.154213 -0.301722,-0.214558 -0.154213,-0.06705 -0.248082,-0.06705 -0.08716,0 -0.274902,0.134099 -0.187738,0.134098 -0.402296,0.295017 -0.160919,0.140803 -0.321837,0.261492 -0.160918,0.120689 -0.301722,0.234673 -0.134099,0.113983 -0.248082,0.227967 -0.113984,0.113984 -0.187738,0.241378 -0.187739,0.341951 -0.221263,0.777772 -0.03352,0.43582 -0.03352,0.891756 0,0.301722 0.06034,0.543099 0.06705,0.234673 0.160918,0.402296 0.100574,0.167623 0.214558,0.261492 0.113984,0.08716 0.207853,0.08716 0.227967,0 0.516279,-0.09387 0.288312,-0.09387 0.590034,-0.368771 0.261493,-0.241377 0.469346,-0.543099 0.214557,-0.301722 0.362066,-0.636969 0.154213,-0.335246 0.234672,-0.697313 0.08716,-0.362066 0.08716,-0.717427 z"
     id="path3848" /></g><g
   aria-label="ю"
   transform="scale(0.89985039,1.1112958)"
   id="text11307"
   style="font-size:11.4493px;line-height:1.25;font-family:'Segoe Script';-inkscape-font-specification:'Segoe Script';fill:#151515;stroke-width:0.286232"><path
     d="m 34.916247,59.519608 q 0,-0.02236 -0.02795,-0.03913 -0.02236,-0.02236 -0.05591,-0.0559 -0.03354,-0.03354 -0.06149,-0.08945 -0.02236,-0.05591 -0.02236,-0.156534 0,-0.08945 0.05031,-0.162124 0.05031,-0.07268 0.10622,-0.134171 0.0615,-0.0615 0.111809,-0.11181 0.0559,-0.05031 0.06709,-0.09504 0.09504,-0.536686 0.162124,-1.011876 0.06708,-0.475191 0.08386,-0.793848 0.0056,-0.09504 0,-0.195667 0,-0.100629 -0.0056,-0.201257 -0.0056,-0.07268 -0.01118,-0.139762 0,-0.06709 0,-0.128581 0,-0.06709 0.05032,-0.150943 0.05031,-0.08386 0.12299,-0.156534 0.07827,-0.07268 0.167715,-0.1174 0.09504,-0.05031 0.184485,-0.05031 0.07827,0 0.156534,0.04472 0.07827,0.03913 0.139762,0.1174 0.0615,0.07268 0.100628,0.184486 0.03913,0.106219 0.03913,0.24039 0,0.100629 -0.01677,0.245981 -0.01677,0.145353 -0.04472,0.318658 -0.02795,0.173304 -0.06708,0.363381 -0.03354,0.190076 -0.06709,0.380152 -0.04472,0.262753 -0.08945,0.503143 -0.03913,0.240391 -0.0615,0.413696 0.02236,0.05031 0.03913,0.08945 0.02236,0.03354 0.05591,0.05591 0.03354,0.02236 0.08386,0.03354 0.0559,0.01118 0.145353,0.01118 0.24039,0 0.508733,-0.05031 0.268343,-0.05032 0.508734,-0.128581 0.24039,-0.07827 0.430467,-0.162124 0.195666,-0.08945 0.290705,-0.167715 0.0615,-0.05031 0.134171,-0.134171 0.07827,-0.08386 0.156533,-0.178895 0.07827,-0.100629 0.150943,-0.195667 0.07827,-0.100629 0.134172,-0.173305 0.190076,-0.240391 0.430467,-0.4696 0.24039,-0.22921 0.531095,-0.402515 0.290705,-0.173304 0.626134,-0.279524 0.341019,-0.106219 0.737943,-0.106219 0.301886,0 0.592591,0.150943 0.290705,0.145353 0.514324,0.396924 0.229209,0.251572 0.363381,0.58141 0.139762,0.324248 0.139762,0.682038 0,0.357791 -0.07268,0.654086 -0.06708,0.290705 -0.218028,0.620543 -0.08386,0.173305 -0.290705,0.413696 -0.206848,0.24039 -0.497553,0.497552 -0.285114,0.257162 -0.626133,0.508734 -0.341019,0.251571 -0.69322,0.452829 -0.3522,0.201257 -0.693219,0.324247 -0.335429,0.122991 -0.609362,0.122991 -0.368972,0 -0.631724,-0.122991 -0.262753,-0.128581 -0.430467,-0.329838 -0.167714,-0.206847 -0.245981,-0.4696 -0.07827,-0.262752 -0.07827,-0.531095 0,-0.218029 0.0615,-0.525505 0.06708,-0.313067 0.223619,-0.631724 -0.212438,0.134171 -0.475191,0.212438 -0.257162,0.07827 -0.475191,0.139762 -0.09504,0.02795 -0.212438,0.05031 -0.1174,0.01677 -0.2348,0.03354 -0.111809,0.01677 -0.218029,0.03354 -0.100628,0.01677 -0.173304,0.02795 -0.11181,0.02236 -0.156534,0.08945 -0.03913,0.0615 -0.0615,0.162124 -0.02236,0.09504 -0.06709,0.251571 -0.04472,0.156534 -0.08945,0.324248 -0.05031,0.178895 -0.106219,0.368972 -0.0559,0.190076 -0.100629,0.363381 -0.03913,0.167714 -0.07268,0.313066 -0.02795,0.139762 -0.02795,0.218029 0,0.07268 -0.0615,0.156533 -0.05591,0.08386 -0.134171,0.156534 -0.07268,0.07827 -0.150943,0.128581 -0.07268,0.05031 -0.11181,0.05031 -0.08386,0 -0.162124,-0.0559 -0.07268,-0.0559 -0.128581,-0.128581 -0.05591,-0.07268 -0.08945,-0.145352 -0.03354,-0.07827 -0.03354,-0.1174 0,-0.05031 0.03913,-0.178895 0.04472,-0.128581 0.08945,-0.262753 0.02795,-0.08386 0.07268,-0.22921 0.04472,-0.145352 0.08945,-0.318657 0.05031,-0.178895 0.09504,-0.368971 0.05031,-0.190077 0.08945,-0.357791 0.03913,-0.167714 0.0615,-0.290705 0.02236,-0.128581 0.02236,-0.184486 z m 6.736527,-1.263448 q 0,-0.559048 -0.324248,-0.872114 -0.318657,-0.318658 -0.916838,-0.318658 -0.08386,0 -0.206848,0.06709 -0.12299,0.06709 -0.268343,0.173305 -0.139762,0.100629 -0.285114,0.223619 -0.139762,0.122991 -0.268343,0.240391 -0.122991,0.1174 -0.212438,0.212438 -0.08945,0.09504 -0.122991,0.134171 -0.1174,0.139762 -0.245981,0.385743 -0.122991,0.240391 -0.22921,0.519915 -0.106219,0.279524 -0.178895,0.564638 -0.06709,0.279524 -0.06709,0.491962 0,0.128581 0.03354,0.262753 0.03913,0.134171 0.11181,0.245981 0.07827,0.106219 0.195667,0.178895 0.1174,0.06709 0.273933,0.06709 0.173305,0 0.441648,-0.100629 0.268343,-0.100628 0.564638,-0.279524 0.301886,-0.178895 0.603772,-0.424876 0.307476,-0.245981 0.547867,-0.531096 0.245981,-0.285114 0.396924,-0.598181 0.156533,-0.318657 0.156533,-0.642905 z"
     id="path3869" /></g><g
   aria-label="з"
   transform="scale(1.3950593,0.71681543)"
   id="text16794"
   style="font-size:13.1865px;line-height:1.25;font-family:'Segoe Script';-inkscape-font-specification:'Segoe Script';fill:#131313;stroke-width:0.329663"><path
     d="m 0.9912218,49.950179 q 0.0643872,0 0.1030195,0.04507 0.045071,0.04507 0.070826,0.109458 0.025755,0.07083 0.032194,0.15453 0.012877,0.0837 0.012877,0.160968 0,0.14809 0.05151,0.321936 0.057948,0.173845 0.1802841,0.321936 0.1287744,0.14809 0.3283748,0.244671 0.1996003,0.10302 0.4893427,0.10302 0.392762,0 0.8112788,-0.206039 0.4185169,-0.206039 0.7662078,-0.573047 0.3476909,-0.367007 0.5666074,-0.875665 0.2253552,-0.502221 0.2253552,-1.101022 0,-0.55373 -0.115897,-0.940053 Q 4.3973049,47.32962 4.2105821,47.091387 4.0302979,46.846716 3.7920652,46.737258 3.5538326,46.627799 3.3155999,46.627799 q -0.090142,0 -0.1996003,0.04507 -0.1094583,0.03863 -0.2253553,0.10302 -0.1094582,0.05795 -0.2253552,0.128774 -0.1094582,0.07083 -0.1996003,0.128775 -0.1545293,0.103019 -0.2961811,0.173845 -0.1352132,0.07083 -0.3605684,0.07083 -0.1738455,0 -0.3026199,-0.128774 -0.1223357,-0.135213 -0.1223357,-0.35413 0,-0.167407 0.115897,-0.283304 0.1223357,-0.115897 0.3734458,-0.218916 0.5344138,-0.218917 0.9529306,-0.444272 0.4249556,-0.231794 0.714698,-0.495781 0.2897424,-0.270427 0.4442717,-0.592363 0.1545293,-0.321936 0.1545293,-0.734014 0,-0.160968 -0.05151,-0.315497 -0.045071,-0.160968 -0.1416519,-0.283304 -0.096581,-0.128774 -0.2382326,-0.206039 -0.1352132,-0.0837 -0.3154974,-0.0837 -0.3863232,0 -0.7340141,0.238232 -0.3476909,0.238233 -0.6825044,0.585924 -0.1480905,0.154529 -0.2446713,0.225355 -0.096581,0.06439 -0.2060391,0.06439 -0.090142,0 -0.160968,-0.04507 -0.064387,-0.05151 -0.1094583,-0.115897 -0.038632,-0.07083 -0.064387,-0.14809 -0.019316,-0.0837 -0.019316,-0.141652 0,-0.154529 0.083703,-0.289742 0.090142,-0.141652 0.2382327,-0.263988 0.321936,-0.270426 0.6309946,-0.444272 0.3090586,-0.173845 0.5086589,-0.257548 0.2253552,-0.09014 0.4635879,-0.173846 0.2446714,-0.0837 0.4571492,-0.0837 0.3026198,0 0.5794848,0.109458 0.276865,0.103019 0.482904,0.309059 0.2124778,0.1996 0.3348135,0.495781 0.1287744,0.296181 0.1287744,0.669627 0,0.540852 -0.2639875,1.075266 -0.2575488,0.534414 -0.8821047,1.036634 0.4313942,0.01932 0.7533303,0.218917 0.321936,0.1996 0.5344138,0.527975 0.2189165,0.328375 0.321936,0.759769 0.1094582,0.424955 0.1094582,0.901421 0,0.476465 -0.1287744,0.946492 -0.1287744,0.470026 -0.367007,0.901421 -0.231794,0.431394 -0.5601687,0.798401 -0.321936,0.367007 -0.714698,0.637433 -0.3863232,0.270426 -0.8305949,0.424956 -0.437833,0.154529 -0.9014209,0.154529 -0.4442717,0 -0.7726465,-0.148091 Q 1.0491703,51.965499 0.83025379,51.746582 0.61777601,51.527666 0.50831776,51.276556 0.39885951,51.025445 0.39885951,50.812968 q 0,-0.160968 0.0579485,-0.347691 0.0643872,-0.186723 0.14165185,-0.296181 0.0515098,-0.07083 0.14809057,-0.148091 0.0965808,-0.07083 0.24467138,-0.07083 z"
     id="path3806" /></g></svg>
