<?xml version="1.0" encoding="UTF-8" standalone="no"?>
<!-- Generator: Adobe Illustrator 22.0.1, SVG Export Plug-In . SVG Version: 6.00 Build 0)  -->

<svg
   version="1.1"
   id="Layer_1"
   x="0px"
   y="0px"
   viewBox="0 0 70 70"
   xml:space="preserve"
   sodipodi:docname="northWind.svg"
   width="70"
   height="70"
   inkscape:version="1.1.1 (3bf5ae0d25, 2021-09-20)"
   xmlns:inkscape="http://www.inkscape.org/namespaces/inkscape"
   xmlns:sodipodi="http://sodipodi.sourceforge.net/DTD/sodipodi-0.dtd"
   xmlns="http://www.w3.org/2000/svg"
   xmlns:svg="http://www.w3.org/2000/svg"><defs
   id="defs7" /><sodipodi:namedview
   id="namedview5"
   pagecolor="#ffffff"
   bordercolor="#666666"
   borderopacity="1.0"
   inkscape:pageshadow="2"
   inkscape:pageopacity="0.0"
   inkscape:pagecheckerboard="0"
   showgrid="false"
   inkscape:zoom="10.158767"
   inkscape:cx="47.003735"
   inkscape:cy="32.238164"
   inkscape:window-width="2400"
   inkscape:window-height="1321"
   inkscape:window-x="2391"
   inkscape:window-y="-9"
   inkscape:window-maximized="1"
   inkscape:current-layer="Layer_1"
   width="140px" />
<path
   d="m 10.996604,34.217195 c 0.08652,-4.326464 1.265304,-8.313981 3.514467,-11.941762 2.24917,-3.62778 5.258611,-6.477364 9.028348,-8.548763 3.769728,-2.071402 7.840969,-3.055054 12.214161,-2.97219 3.274503,0.06205 6.407043,0.757899 9.376487,2.065916 2.969425,1.308028 5.498694,3.074464 7.632123,5.236508 2.133411,2.162059 3.805977,4.739682 5.017645,7.732903 1.211678,2.993233 1.796487,6.080651 1.7312,9.34671 -0.06446,3.223637 -0.772624,6.307777 -2.102578,9.231627 -1.329954,2.923839 -3.125793,5.435757 -5.322467,7.515749 -2.196667,2.079996 -4.815739,3.727647 -7.835199,4.922191 -3.019469,1.194536 -6.155902,1.771581 -9.451949,1.709124 -3.296056,-0.06245 -6.450131,-0.758709 -9.419565,-2.066735 -2.969435,-1.308031 -5.520238,-3.074868 -7.653667,-5.236907 -2.133429,-2.162047 -3.784443,-4.739275 -5.018493,-7.690494 -1.234078,-2.95122 -1.775381,-6.059035 -1.710513,-9.303877 z m 5.342617,0.101235 c -0.100471,5.026331 1.664881,9.430313 5.31759,13.21236 3.653567,3.739628 8.054931,5.647622 13.24675,5.746005 3.403766,0.0645 6.587089,-0.702608 9.507318,-2.323347 2.920239,-1.620742 5.291799,-3.824712 7.050914,-6.655565 1.759116,-2.830844 2.682728,-5.910905 2.749721,-9.261796 0.06701,-3.350882 -0.732426,-6.484805 -2.377066,-9.38016 -1.644642,-2.895347 -3.904361,-5.208301 -6.77916,-6.938852 -2.87479,-1.730555 -6.0035,-2.617271 -9.407275,-2.681769 -3.403767,-0.0645 -6.587089,0.702609 -9.507328,2.323347 -2.92022,1.62074 -5.292208,3.845926 -7.072868,6.676369 -1.78065,2.830443 -2.661603,5.93252 -2.728596,9.283408 z m 10.286423,12.606385 8.634361,-27.65079 c 0.0258,-0.211667 0.135617,-0.315669 0.329521,-0.311975 0.193885,0.0038 0.299489,0.111757 0.316803,0.324224 l 7.501182,27.956544 c 0.0815,0.234928 0.05662,0.404181 -0.0537,0.529388 -0.11029,0.125181 -0.282604,0.121937 -0.517033,-0.0098 l -7.42024,-2.898709 c -0.213734,-0.08892 -0.429162,-0.09301 -0.624744,-0.01183 l -7.595098,2.614189 c -0.217972,0.123158 -0.368769,0.120298 -0.452401,-0.0085 -0.08361,-0.128889 -0.165986,-0.321384 -0.118659,-0.532651 z"
   id="path2"
   style="fill:#2c4f54;fill-opacity:0.5;stroke:#2e3332;stroke-width:0.131805;stroke-miterlimit:4;stroke-dasharray:none;stroke-opacity:0.9" />
<path
   style="fill:#1f4347;fill-opacity:0.81;stroke:#e4e7e7;stroke-width:0.131805;stroke-miterlimit:4;stroke-dasharray:none;stroke-opacity:0.9"
   d="m 32.820003,52.498271 c -0.912051,-0.11293 -1.912731,-0.304779 -2.772669,-0.531559 -4.835402,-1.275231 -9.283473,-5.028166 -11.488618,-9.693218 -1.186988,-2.511116 -1.635642,-4.71466 -1.555256,-7.63855 0.08242,-3.001131 0.679154,-5.271567 2.046716,-7.788614 0.92176,-1.696498 1.949919,-3.037878 3.408753,-4.447181 2.895138,-2.796836 6.24814,-4.477718 10.210768,-5.118741 0.82523,-0.133494 1.166895,-0.148263 2.959069,-0.12791 2.175359,0.02477 2.787512,0.0929 4.357419,0.485109 2.371049,0.592409 4.980393,1.900054 6.972698,3.494316 0.812666,0.650293 2.309372,2.201617 2.944234,3.051654 1.536458,2.057247 2.617012,4.349842 3.119184,6.617997 0.37032,1.672594 0.421313,2.265848 0.367348,4.272918 -0.03811,1.415842 -0.08361,2.014923 -0.199911,2.628521 -0.706214,3.726484 -2.60102,7.153598 -5.41457,9.793176 -2.881499,2.703352 -6.51974,4.440753 -10.381114,4.957392 -0.890125,0.119099 -3.747591,0.147017 -4.574051,0.04471 z m -1.855694,-6.572988 c 2.057229,-0.715112 3.815979,-1.317377 3.908327,-1.338363 0.113965,-0.02593 1.398296,0.430616 3.99927,1.421581 2.205519,0.840285 3.886373,1.443513 3.960997,1.421518 0.154636,-0.04562 0.242917,-0.311633 0.191624,-0.577452 -0.02034,-0.105534 -1.632525,-6.211709 -3.582562,-13.569288 -3.41715,-12.893023 -3.552339,-13.379928 -3.733579,-13.446621 -0.140076,-0.05153 -0.214991,-0.0435 -0.293654,0.03173 -0.130165,0.124358 -8.640241,26.569088 -8.648419,26.874533 -0.0073,0.275975 0.17865,0.559166 0.33851,0.515258 0.06546,-0.01807 1.802258,-0.617789 3.859495,-1.332901 z"
   id="path861" /><rect
   style="fill:#c7485e;fill-opacity:1;stroke:#3c4343;stroke-width:0.586498;stroke-opacity:0.9"
   id="rect2803"
   width="6.9478641"
   height="0.069949277"
   x="30.513557"
   y="33.166122"
   transform="matrix(0.99987756,-0.01564835,0.03706837,0.99931273,0,0)"
   inkscape:transform-center-x="3.6102171"
   inkscape:transform-center-y="3.5438556" /><path
   style="fill:#cd415c;fill-opacity:1;stroke:#e27364;stroke-width:0.0509228;stroke-opacity:0.9"
   d="m 32.130696,31.786551 c 0.03706,-0.120304 0.802933,-2.720637 1.701914,-5.778567 0.898979,-3.057926 1.673148,-5.631426 1.720373,-5.718879 0.0743,-0.137624 3.166793,11.083701 3.16126,11.470831 -0.001,0.105746 -0.888427,0.157646 -3.326512,0.194738 -3.108752,0.04729 -3.320072,0.03633 -3.257035,-0.168092 z"
   id="path3397"
   inkscape:transform-center-x="3.4706479"
   inkscape:transform-center-y="-2.0405706" /><text
   xml:space="preserve"
   style="font-size:11.6579px;line-height:1.25;font-family:'Segoe Script';-inkscape-font-specification:'Segoe Script';fill:#16272a;fill-opacity:0.799714;stroke-width:0.291446"
   x="8.6556587"
   y="43.257183"
   id="text17884"
   transform="scale(1.3305635,0.75156128)"><tspan
     sodipodi:role="line"
     id="tspan17882"
     x="8.6556587"
     y="43.257183"
     style="stroke-width:0.291446">_</tspan></text><text
   xml:space="preserve"
   style="font-size:11.8745px;line-height:1.25;font-family:'Segoe Script';-inkscape-font-specification:'Segoe Script';fill:#16272a;fill-opacity:0.799714;stroke-width:0.296864"
   x="38.563126"
   y="43.761593"
   id="text17884-6"
   transform="scale(1.3552987,0.7378447)"><tspan
     sodipodi:role="line"
     id="tspan17882-2"
     x="38.563126"
     y="43.761593"
     style="stroke-width:0.296864">_</tspan></text><text
   xml:space="preserve"
   style="font-size:10.4316px;line-height:1.25;font-family:'Segoe Script';-inkscape-font-specification:'Segoe Script';fill:#16272a;fill-opacity:0.799714;stroke-width:0.260788"
   x="-45.070335"
   y="44.722477"
   id="text17884-0"
   transform="matrix(-0.01861275,-1.3442868,0.7431484,-0.0534804,0,0)"><tspan
     sodipodi:role="line"
     id="tspan17882-4"
     x="-45.070335"
     y="44.722477"
     style="stroke-width:0.260788">_</tspan></text><text
   xml:space="preserve"
   style="font-size:11.7725px;line-height:1.25;font-family:'Segoe Script';-inkscape-font-specification:'Segoe Script';fill:#16272a;fill-opacity:0.799714;stroke-width:0.294309"
   x="-13.344927"
   y="46.037205"
   id="text17884-9"
   transform="matrix(5.2028254e-4,-1.3139375,0.76107063,0.00142679,0,0)"><tspan
     sodipodi:role="line"
     id="tspan17882-7"
     x="-13.344927"
     y="46.037205"
     style="stroke-width:0.294309">_</tspan></text><g
   aria-label="c"
   transform="scale(1.0073858,0.99266836)"
   id="text9344"
   style="font-size:15.8974px;line-height:1.25;font-family:'Segoe Script';-inkscape-font-specification:'Segoe Script';fill:#0e0e0e;stroke-width:0.39743"><path
     d="m 39.762339,6.0259151 q 0,0.2794465 -0.201822,0.5045561 -0.209585,0.2328721 -0.364833,0.3958826 -0.155248,0.155248 -0.294971,0.2872088 -0.139724,0.1319609 -0.294972,0.2561593 -0.155248,0.116436 -0.364832,0.2716841 -0.589943,0.4269321 -1.125549,0.7219034 -0.535606,0.2872089 -1.040162,0.4735065 -0.504556,0.1785353 -1.00135,0.2561593 -0.489031,0.077624 -0.985825,0.077624 -0.520081,0 -0.931488,-0.19406 Q 32.745128,8.8747167 32.457919,8.533171 32.178472,8.1916253 32.030987,7.741406 31.883501,7.2834243 31.883501,6.7788681 v -0.038812 q 0,-0.5123186 0.131961,-1.0867363 0.131961,-0.5821802 0.364833,-1.1643604 0.240634,-0.5821801 0.574418,-1.1410731 0.333783,-0.5666554 0.737428,-1.0556867 0.16301,-0.1940601 0.38812,-0.4114073 0.232872,-0.2251097 0.489031,-0.4114074 0.263922,-0.1862976 0.543368,-0.3027337 0.287209,-0.1241984 0.558893,-0.1241984 0.186298,0 0.357071,0.116436 0.170773,0.1086737 0.318258,0.2872089 0.147486,0.1785353 0.271684,0.403645 0.124199,0.2173472 0.209585,0.4502193 0.08539,0.2251097 0.131961,0.4346945 0.04657,0.2095849 0.04657,0.3570705 0,0.2251097 -0.139724,0.5821802 -0.139723,0.3570705 -0.333783,0.3570705 -0.279446,0 -0.465744,-0.3803577 -0.06986,-0.1474857 -0.124199,-0.3415457 -0.04657,-0.1940601 -0.116436,-0.3803577 -0.0621,-0.1862977 -0.170772,-0.3415457 -0.108674,-0.1630105 -0.302734,-0.2406345 -0.19406,0.046574 -0.395883,0.2018225 -0.19406,0.155248 -0.38812,0.3803577 -0.186297,0.2251096 -0.372595,0.5123185 -0.178535,0.2794465 -0.341546,0.5821802 -0.155248,0.2794465 -0.302733,0.6442794 -0.147486,0.3570705 -0.263922,0.7451906 -0.116436,0.3803577 -0.186298,0.7607154 -0.06986,0.3803577 -0.06986,0.6986162 0,0.2251097 0.108673,0.4579818 0.108674,0.2251096 0.279447,0.4114073 0.178535,0.1862976 0.395882,0.3027337 0.22511,0.116436 0.457982,0.116436 1.148835,0 2.282146,-0.4735065 1.133311,-0.4735066 2.157948,-1.3739452 0.566655,-0.4967938 0.939251,-0.4967938 0.108673,0 0.108673,0.2095849 z"
     id="path4035" /></g><g
   aria-label="в"
   transform="scale(1.40543,0.711526)"
   id="text19318"
   style="font-size:15.2287px;line-height:1.25;font-family:'Segoe Script';-inkscape-font-specification:'Segoe Script';fill:#161616;stroke-width:0.38072"><path
     d="m 47.824174,41.493814 q 0,-0.08923 -0.03718,-0.178461 -0.02974,-0.09667 -0.09667,-0.171025 -0.05949,-0.08179 -0.163589,-0.133846 -0.09667,-0.05205 -0.230513,-0.05205 -0.260256,0 -0.54282,0.185898 -0.275128,0.185897 -0.557692,0.513076 -0.275127,0.319743 -0.535384,0.765896 -0.260256,0.438718 -0.483332,0.951794 -0.223077,0.513076 -0.401538,1.078204 -0.171026,0.557692 -0.275128,1.122819 0.06692,-0.04462 0.200769,-0.141282 0.133846,-0.104102 0.297435,-0.230512 0.171026,-0.133846 0.356923,-0.282564 0.193333,-0.156154 0.364359,-0.304871 0.178461,-0.148718 0.327179,-0.282564 0.148717,-0.133846 0.237948,-0.230513 0.825384,-0.892306 1.182306,-1.546665 0.356923,-0.654358 0.356923,-1.063332 z m -0.230512,8.015888 q -0.230513,0.342051 -0.557692,0.66923 -0.319743,0.319743 -0.70641,0.565128 -0.386666,0.245384 -0.825383,0.386666 -0.431282,0.141282 -0.877435,0.104102 -0.312307,-0.02231 -0.594871,-0.200769 -0.282564,-0.185897 -0.498205,-0.520512 -0.21564,-0.342051 -0.34205,-0.832819 -0.126411,-0.490769 -0.126411,-1.130255 0,-0.408974 0.04462,-0.884871 0.04462,-0.483333 0.118974,-0.974102 0.07436,-0.490768 0.163589,-0.959229 0.09667,-0.468461 0.185898,-0.862563 0.118974,-0.535384 0.312307,-1.055896 0.193333,-0.527948 0.431282,-1.011281 0.237948,-0.490769 0.513076,-0.92205 0.275128,-0.431282 0.565127,-0.780769 0.401538,-0.468461 0.914615,-0.751024 0.520512,-0.282564 1.219485,-0.282564 0.29,0 0.527948,0.118974 0.237949,0.118974 0.408974,0.312307 0.171026,0.185898 0.260256,0.423846 0.09667,0.237948 0.09667,0.468461 0,0.319743 -0.133846,0.713845 -0.12641,0.386666 -0.371794,0.810512 -0.245385,0.423846 -0.594872,0.855127 -0.349486,0.431282 -0.79564,0.83282 0.104103,0.0074 0.237949,0.03718 0.141282,0.02231 0.29,0.08923 0.156153,0.06692 0.312307,0.178461 0.163589,0.111539 0.312307,0.282564 0.06692,0.08179 0.148718,0.223077 0.08179,0.133846 0.148718,0.334615 0.07436,0.193333 0.118974,0.446153 0.05205,0.25282 0.05205,0.557692 0,0.594871 -0.215641,1.286408 -0.208205,0.684102 -0.743588,1.472306 z m -0.208205,-2.736407 q 0,-0.408974 -0.118975,-0.684102 -0.118974,-0.282563 -0.282563,-0.446153 -0.16359,-0.171025 -0.334615,-0.237948 -0.171026,-0.07436 -0.275128,-0.07436 -0.09667,0 -0.304872,0.148718 -0.208205,0.148717 -0.446153,0.327179 -0.178461,0.156153 -0.356923,0.289999 -0.178461,0.133846 -0.334615,0.260256 -0.148717,0.126411 -0.275127,0.252821 -0.126411,0.12641 -0.208205,0.267692 -0.208205,0.37923 -0.245385,0.862563 -0.03718,0.483332 -0.03718,0.988973 0,0.334615 0.06692,0.602307 0.07436,0.260256 0.178461,0.446153 0.111539,0.185897 0.237949,0.29 0.12641,0.09667 0.230512,0.09667 0.25282,0 0.572564,-0.104102 0.319743,-0.104102 0.654358,-0.408974 0.289999,-0.267692 0.520512,-0.602307 0.237948,-0.334615 0.401538,-0.706409 0.171025,-0.371795 0.260256,-0.773333 0.09667,-0.401538 0.09667,-0.79564 z"
     id="path4056" /></g><g
   aria-label="ю"
   transform="scale(0.89658976,1.1153373)"
   id="text11307"
   style="font-size:12.6976px;line-height:1.25;font-family:'Segoe Script';-inkscape-font-specification:'Segoe Script';fill:#151515;stroke-width:0.317436"><path
     d="m 34.090853,58.535683 q 0,-0.0248 -0.031,-0.0434 -0.0248,-0.0248 -0.062,-0.062 -0.0372,-0.0372 -0.0682,-0.0992 -0.0248,-0.062 -0.0248,-0.1736 0,-0.0992 0.0558,-0.1798 0.0558,-0.0806 0.1178,-0.1488 0.0682,-0.0682 0.124,-0.124 0.062,-0.0558 0.0744,-0.1054 0.1054,-0.5952 0.1798,-1.1222 0.0744,-0.527 0.093,-0.8804 0.0062,-0.1054 0,-0.217 0,-0.1116 -0.0062,-0.2232 -0.0062,-0.0806 -0.0124,-0.155 0,-0.0744 0,-0.1426 0,-0.0744 0.0558,-0.1674 0.0558,-0.093 0.1364,-0.1736 0.0868,-0.0806 0.186,-0.1302 0.1054,-0.0558 0.2046,-0.0558 0.0868,0 0.1736,0.0496 0.0868,0.0434 0.155,0.1302 0.0682,0.0806 0.1116,0.2046 0.0434,0.1178 0.0434,0.2666 0,0.1116 -0.0186,0.2728 -0.0186,0.1612 -0.0496,0.3534 -0.031,0.1922 -0.0744,0.403 -0.0372,0.2108 -0.0744,0.4216 -0.0496,0.2914 -0.0992,0.558 -0.0434,0.2666 -0.0682,0.4588 0.0248,0.0558 0.0434,0.0992 0.0248,0.0372 0.062,0.062 0.0372,0.0248 0.093,0.0372 0.062,0.0124 0.1612,0.0124 0.2666,0 0.5642,-0.0558 0.2976,-0.0558 0.5642,-0.1426 0.2666,-0.0868 0.4774,-0.1798 0.217,-0.0992 0.3224,-0.186 0.0682,-0.0558 0.1488,-0.1488 0.0868,-0.093 0.1736,-0.1984 0.0868,-0.1116 0.1674,-0.217 0.0868,-0.1116 0.1488,-0.1922 0.2108,-0.2666 0.4774,-0.5208 0.2666,-0.2542 0.589,-0.4464 0.3224,-0.1922 0.6944,-0.31 0.3782,-0.1178 0.8184,-0.1178 0.3348,0 0.6572,0.1674 0.3224,0.1612 0.5704,0.4402 0.2542,0.279 0.403,0.6448 0.155,0.3596 0.155,0.7564 0,0.3968 -0.0806,0.7254 -0.0744,0.3224 -0.2418,0.6882 -0.093,0.1922 -0.3224,0.4588 -0.2294,0.2666 -0.5518,0.5518 -0.3162,0.2852 -0.6944,0.5642 -0.3782,0.279 -0.7688,0.5022 -0.3906,0.2232 -0.7688,0.3596 -0.372,0.1364 -0.6758,0.1364 -0.4092,0 -0.7006,-0.1364 -0.2914,-0.1426 -0.4774,-0.3658 -0.186,-0.2294 -0.2728,-0.5208 -0.0868,-0.2914 -0.0868,-0.589 0,-0.2418 0.0682,-0.5828 0.0744,-0.3472 0.248,-0.7006 -0.2356,0.1488 -0.527,0.2356 -0.2852,0.0868 -0.527,0.155 -0.1054,0.031 -0.2356,0.0558 -0.1302,0.0186 -0.2604,0.0372 -0.124,0.0186 -0.2418,0.0372 -0.1116,0.0186 -0.1922,0.031 -0.124,0.0248 -0.1736,0.0992 -0.0434,0.0682 -0.0682,0.1798 -0.0248,0.1054 -0.0744,0.279 -0.0496,0.1736 -0.0992,0.3596 -0.0558,0.1984 -0.1178,0.4092 -0.062,0.2108 -0.1116,0.403 -0.0434,0.186 -0.0806,0.3472 -0.031,0.155 -0.031,0.2418 0,0.0806 -0.0682,0.1736 -0.062,0.093 -0.1488,0.1736 -0.0806,0.0868 -0.1674,0.1426 -0.0806,0.0558 -0.124,0.0558 -0.093,0 -0.1798,-0.062 -0.0806,-0.062 -0.1426,-0.1426 -0.062,-0.0806 -0.0992,-0.1612 -0.0372,-0.0868 -0.0372,-0.1302 0,-0.0558 0.0434,-0.1984 0.0496,-0.1426 0.0992,-0.2914 0.031,-0.093 0.0806,-0.2542 0.0496,-0.1612 0.0992,-0.3534 0.0558,-0.1984 0.1054,-0.4092 0.0558,-0.2108 0.0992,-0.3968 0.0434,-0.186 0.0682,-0.3224 0.0248,-0.1426 0.0248,-0.2046 z m 7.471,-1.4012 q 0,-0.62 -0.3596,-0.9672 -0.3534,-0.3534 -1.0168,-0.3534 -0.093,0 -0.2294,0.0744 -0.1364,0.0744 -0.2976,0.1922 -0.155,0.1116 -0.3162,0.248 -0.155,0.1364 -0.2976,0.2666 -0.1364,0.1302 -0.2356,0.2356 -0.0992,0.1054 -0.1364,0.1488 -0.1302,0.155 -0.2728,0.4278 -0.1364,0.2666 -0.2542,0.5766 -0.1178,0.31 -0.1984,0.6262 -0.0744,0.31 -0.0744,0.5456 0,0.1426 0.0372,0.2914 0.0434,0.1488 0.124,0.2728 0.0868,0.1178 0.217,0.1984 0.1302,0.0744 0.3038,0.0744 0.1922,0 0.4898,-0.1116 0.2976,-0.1116 0.6262,-0.31 0.3348,-0.1984 0.6696,-0.4712 0.341,-0.2728 0.6076,-0.589 0.2728,-0.3162 0.4402,-0.6634 0.1736,-0.3534 0.1736,-0.713 z"
     id="path4077" /></g><g
   aria-label="з"
   transform="scale(1.3900002,0.71942436)"
   id="text16794"
   style="font-size:14.6241px;line-height:1.25;font-family:'Segoe Script';-inkscape-font-specification:'Segoe Script';fill:#131313;stroke-width:0.365603"><path
     d="m 1.9926305,47.029018 q 0.071407,0 0.1142508,0.04998 0.049985,0.04998 0.078547,0.121392 0.028563,0.07855 0.035703,0.171376 0.014281,0.09283 0.014281,0.178517 0,0.164235 0.057125,0.357033 0.064266,0.192799 0.1999388,0.357034 0.1428135,0.164236 0.3641744,0.271346 0.2213609,0.11425 0.5426912,0.11425 0.4355811,0 0.8997249,-0.228501 0.4641438,-0.228502 0.8497401,-0.63552 0.3855964,-0.407018 0.6283793,-0.971132 0.2499236,-0.556972 0.2499236,-1.221055 0,-0.614098 -0.1285321,-1.042538 Q 5.7700469,44.122763 5.5629673,43.858558 5.3630285,43.587213 5.0988235,43.465821 4.8346186,43.34443 4.5704137,43.34443 q -0.099969,0 -0.2213609,0.04998 -0.1213915,0.04284 -0.2499236,0.11425 -0.1213914,0.06427 -0.2499236,0.142814 -0.1213914,0.07855 -0.2213608,0.142813 -0.1713762,0.114251 -0.328471,0.192799 -0.1499542,0.07855 -0.3998778,0.07855 -0.1927982,0 -0.3356116,-0.142813 -0.1356728,-0.149955 -0.1356728,-0.392738 0,-0.185657 0.1285321,-0.314189 0.1356728,-0.128532 0.4141591,-0.242783 0.5926759,-0.242783 1.0568197,-0.492707 0.4712844,-0.257064 0.7926148,-0.549831 0.3213303,-0.299909 0.4927064,-0.656942 0.1713762,-0.357034 0.1713762,-0.814037 0,-0.178517 -0.057125,-0.349893 -0.049985,-0.178517 -0.1570948,-0.31419 -0.1071101,-0.142813 -0.2642049,-0.228501 -0.1499542,-0.09283 -0.349893,-0.09283 -0.4284405,0 -0.8140368,0.264205 -0.3855964,0.264205 -0.7569115,0.649801 -0.1642354,0.171376 -0.2713456,0.249924 -0.1071101,0.07141 -0.2285015,0.07141 -0.099969,0 -0.1785169,-0.04998 -0.071407,-0.05713 -0.1213914,-0.128532 -0.042844,-0.07855 -0.071407,-0.164236 -0.021422,-0.09283 -0.021422,-0.157095 0,-0.171376 0.092829,-0.32133 0.099969,-0.157095 0.2642049,-0.292768 0.3570337,-0.299908 0.699786,-0.492706 0.3427524,-0.192798 0.5641133,-0.285627 0.2499235,-0.09997 0.5141285,-0.192798 0.2713456,-0.09283 0.5069878,-0.09283 0.3356117,0 0.6426606,0.121391 0.307049,0.114251 0.5355506,0.342753 0.2356422,0.221361 0.371315,0.549832 0.1428135,0.328471 0.1428135,0.74263 0,0.599816 -0.2927676,1.192492 -0.285627,0.592676 -0.9782723,1.149649 0.4784251,0.02142 0.8354588,0.242782 0.3570337,0.221361 0.5926759,0.585536 0.2427829,0.364174 0.3570337,0.842599 0.1213914,0.471285 0.1213914,0.999695 0,0.528409 -0.1428134,1.049679 -0.1428135,0.521269 -0.4070184,0.999694 -0.2570643,0.478425 -0.6212387,0.885443 -0.3570336,0.407019 -0.7926147,0.706927 -0.4284405,0.299908 -0.9211469,0.471285 -0.4855659,0.171376 -0.9996944,0.171376 -0.4927064,0 -0.8568808,-0.164236 Q 2.0568965,49.264048 1.8141136,49.021266 1.5784714,48.778483 1.4570799,48.499996 1.3356885,48.22151 1.3356885,47.985868 q 0,-0.178517 0.064266,-0.385597 0.071407,-0.207079 0.1570948,-0.328471 0.057125,-0.07855 0.1642355,-0.164235 0.1071101,-0.07855 0.2713456,-0.07855 z"
     id="path4098" /></g></svg>
