<?xml version="1.0" encoding="UTF-8" standalone="no"?>
<!-- Generator: Adobe Illustrator 22.0.1, SVG Export Plug-In . SVG Version: 6.00 Build 0)  -->

<svg
   version="1.1"
   id="Layer_1"
   x="0px"
   y="0px"
   viewBox="0 0 70 70"
   xml:space="preserve"
   sodipodi:docname="northEastWind.svg"
   width="70"
   height="70"
   inkscape:version="1.1.1 (3bf5ae0d25, 2021-09-20)"
   xmlns:inkscape="http://www.inkscape.org/namespaces/inkscape"
   xmlns:sodipodi="http://sodipodi.sourceforge.net/DTD/sodipodi-0.dtd"
   xmlns="http://www.w3.org/2000/svg"
   xmlns:svg="http://www.w3.org/2000/svg"><defs
   id="defs7" /><sodipodi:namedview
   id="namedview5"
   pagecolor="#ffffff"
   bordercolor="#666666"
   borderopacity="1.0"
   inkscape:pageshadow="2"
   inkscape:pageopacity="0.0"
   inkscape:pagecheckerboard="0"
   showgrid="false"
   inkscape:zoom="14.366666"
   inkscape:cx="27.703017"
   inkscape:cy="33.445476"
   inkscape:window-width="2400"
   inkscape:window-height="1321"
   inkscape:window-x="2391"
   inkscape:window-y="-9"
   inkscape:window-maximized="1"
   inkscape:current-layer="Layer_1"
   width="140px" />
<path
   d="m 17.884467,18.245424 c 3.008363,-3.320828 6.599478,-5.637848 10.742841,-6.949678 4.143368,-1.3118276 8.323344,-1.5014123 12.539946,-0.568757 4.2166,0.932651 7.917562,2.918938 11.117655,5.942567 2.39612,2.263996 4.255257,4.926992 5.576392,7.957795 1.321119,3.030803 2.002546,6.121845 2.120022,9.254073 0.117462,3.13223 -0.391024,6.27724 -1.525507,9.435024 -1.134487,3.157796 -2.79985,5.965029 -5.070868,8.471939 -2.241517,2.474346 -4.867478,4.40417 -7.847363,5.788108 -2.979879,1.383929 -6.026384,2.130891 -9.077467,2.269277 -3.051074,0.138394 -6.1225,-0.346708 -9.183762,-1.456632 -3.061257,-1.109938 -5.789434,-2.781321 -8.201321,-5.060214 -2.4119,-2.278889 -4.286791,-4.956779 -5.607921,-7.98759 -1.321121,-3.030806 -2.018309,-6.136733 -2.135796,-9.26896 -0.117477,-3.13223 0.406789,-6.262344 1.496023,-9.402469 1.08922,-3.140138 2.80086,-5.933862 5.057126,-8.424483 z m 3.909472,3.693897 c -3.495002,3.858027 -5.177146,8.492361 -5.030674,13.917904 0.175967,5.39298 2.15512,9.861258 5.954238,13.450888 2.490706,2.353373 5.383139,3.908031 8.660511,4.617924 3.277375,0.709887 6.54304,0.592989 9.779223,-0.427938 3.236177,-1.020917 6.019774,-2.8018 8.349783,-5.373818 2.329992,-2.572017 3.867211,-5.560762 4.612689,-8.935055 0.745471,-3.374292 0.636636,-6.70984 -0.326505,-10.00664 -0.963139,-3.296802 -2.68955,-6.106292 -5.180262,-8.459662 -2.490705,-2.353372 -5.383137,-3.908031 -8.660515,-4.617924 -3.277366,-0.709883 -6.557791,-0.576706 -9.80973,0.429327 -3.251942,1.006034 -6.018756,2.832977 -8.348758,5.404994 z M 20.87562,38.745817 46.120219,22.990122 c 0.163227,-0.147888 0.315786,-0.154807 0.457662,-0.02072 0.141835,0.134093 0.146961,0.289921 0.01528,0.467591 l -13.4374,26.911827 c -0.09915,0.238657 -0.232898,0.353988 -0.400193,0.377184 -0.167303,0.02315 -0.293412,-0.09596 -0.378337,-0.357478 l -3.553002,-7.284694 c -0.09865,-0.214067 -0.256289,-0.363016 -0.45716,-0.431947 L 20.932583,39.55495 c -0.24611,-0.05129 -0.356455,-0.155545 -0.331035,-0.312796 0.02544,-0.157249 0.09509,-0.363336 0.274082,-0.496338 z"
   id="path2"
   style="fill:#2c4f54;fill-opacity:0.5;stroke:#2e3332;stroke-width:0.134546;stroke-miterlimit:4;stroke-dasharray:none;stroke-opacity:0.9" />
<path
   style="fill:#1f4347;fill-opacity:0.81;stroke:#e4e7e7;stroke-width:0.134546;stroke-miterlimit:4;stroke-dasharray:none;stroke-opacity:0.9"
   d="M 21.84432,47.147494 C 21.243576,46.440799 20.630806,45.61247 20.146457,44.852379 17.423001,40.57836 16.677645,34.635685 18.221326,29.503422 c 0.830941,-2.762606 2.000748,-4.784628 4.055119,-7.009306 2.10856,-2.283522 4.100885,-3.648568 6.834269,-4.682988 1.842324,-0.697191 3.521461,-1.045391 5.56698,-1.154404 4.059457,-0.216336 7.697885,0.74781 11.079981,2.936063 0.704331,0.455708 0.968307,0.675952 2.286264,1.907489 1.599712,1.494901 2.008145,1.963241 2.907259,3.333881 1.357892,2.070122 2.404949,4.859419 2.797942,7.453592 0.160302,1.058154 0.214284,3.282683 0.106182,4.375937 -0.261606,2.645865 -1.022581,5.165929 -2.1967,7.274619 -0.865812,1.555005 -1.232623,2.052043 -2.641915,3.579971 -0.994196,1.077815 -1.436684,1.513943 -1.941705,1.913356 -3.066958,2.425804 -6.812995,3.811992 -10.704536,3.961091 -3.985547,0.152694 -7.874508,-0.960875 -11.0965,-3.17739 -0.742736,-0.510954 -2.885287,-2.427468 -3.429665,-3.067832 z m 3.104943,-6.382481 c 2.016653,0.838027 3.734508,1.561549 3.817452,1.607831 0.10238,0.0571 0.745373,1.284163 2.00225,3.820933 1.065786,2.151061 1.903388,3.761446 1.973845,3.794913 0.146038,0.06933 0.393118,-0.07813 0.536336,-0.320144 0.05686,-0.09608 3.024326,-5.94948 6.59439,-13.007558 6.255986,-12.368189 6.487676,-12.839442 6.398487,-13.014368 -0.06895,-0.135178 -0.130087,-0.179748 -0.239873,-0.174454 -0.181566,0.0086 -24.545931,14.850069 -24.760377,15.082621 -0.193758,0.210112 -0.24869,0.557059 -0.09994,0.631265 0.06098,0.03034 1.760783,0.740939 3.777433,1.578962 z"
   id="path861" /><rect
   style="fill:#c7485e;fill-opacity:1;stroke:#3c4343;stroke-width:0.577714;stroke-opacity:0.9"
   id="rect2803"
   width="6.3308153"
   height="0.074485093"
   x="46.762505"
   y="-3.1400478"
   transform="matrix(0.7361055,0.67686682,-0.66786193,0.74428519,0,0)"
   inkscape:transform-center-x="4.9888713"
   inkscape:transform-center-y="0.45756371" /><path
   style="fill:#cd425c;fill-opacity:1;stroke:#e27364;stroke-width:0.0452706;stroke-opacity:0.9"
   d="m 37.238628,28.787266 c 0.09611,-0.05811 2.150931,-1.335239 4.566281,-2.838124 2.415347,-1.502882 4.459347,-2.757094 4.542213,-2.787133 0.130407,-0.04728 -4.635339,9.313249 -4.871706,9.568656 -0.06454,0.0698 -0.664387,-0.429184 -2.249771,-1.871337 -2.021495,-1.838866 -2.150386,-1.973342 -1.987036,-2.072042 z"
   id="path3397"
   inkscape:transform-center-x="1.9753301"
   inkscape:transform-center-y="-2.4892449" /><g
   aria-label="c"
   transform="scale(1.0008802,0.99912055)"
   id="text9344"
   style="font-size:14.5435px;line-height:1.25;font-family:'Segoe Script';-inkscape-font-specification:'Segoe Script';stroke-width:0.363586"><path
     d="m 40.924538,5.5229963 q 0,0.2556475 -0.184634,0.4615857 -0.191735,0.2130396 -0.333762,0.3621673 -0.142026,0.1420263 -0.26985,0.2627487 -0.127824,0.1207225 -0.26985,0.2343435 -0.142026,0.1065198 -0.333762,0.2485462 -0.5397,0.3905725 -1.029691,0.6604226 -0.489991,0.2627488 -0.951577,0.4331804 -0.461585,0.1633303 -0.91607,0.2343435 -0.447383,0.071013 -0.901867,0.071013 -0.475789,0 -0.852158,-0.177533 Q 34.504947,8.1291802 34.242198,7.8167222 33.98655,7.5042641 33.851625,7.0923877 33.7167,6.6734099 33.7167,6.2118242 v -0.035507 q 0,-0.468687 0.120723,-0.9941845 0.120722,-0.5325989 0.333762,-1.0651978 0.220141,-0.5325989 0.525497,-1.0438938 0.305357,-0.5183962 0.674626,-0.9657793 0.149127,-0.1775329 0.355065,-0.3763699 0.21304,-0.2059382 0.447384,-0.3763698 0.241444,-0.1704317 0.497092,-0.2769514 0.262749,-0.11362114 0.511295,-0.11362114 0.170431,0 0.32666,0.10651974 0.156229,0.099418 0.291154,0.2627488 0.134925,0.1633303 0.248547,0.3692686 0.113621,0.1988369 0.191735,0.4118764 0.07811,0.2059383 0.120723,0.3976739 0.04261,0.1917356 0.04261,0.3266606 0,0.2059382 -0.127823,0.5325989 -0.127824,0.3266606 -0.305357,0.3266606 -0.255647,0 -0.426079,-0.3479646 Q 37.480399,3.2150679 37.43069,3.0375349 37.388082,2.860002 37.32417,2.6895703 37.26736,2.5191387 37.167941,2.3771123 37.068523,2.2279846 36.89099,2.1569714 q -0.177533,0.042608 -0.362168,0.1846343 -0.177533,0.1420264 -0.355065,0.3479646 -0.170432,0.2059383 -0.340864,0.468687 -0.16333,0.2556475 -0.312458,0.5325989 -0.142026,0.2556475 -0.276951,0.5894094 -0.134925,0.3266607 -0.241445,0.6817266 -0.10652,0.3479646 -0.170432,0.6959292 -0.06391,0.3479646 -0.06391,0.6391186 0,0.2059383 0.09942,0.4189778 0.09942,0.2059382 0.255647,0.3763699 0.163331,0.1704316 0.362168,0.2769514 0.205938,0.1065198 0.418977,0.1065198 1.050996,0 2.087788,-0.4331804 1.036792,-0.4331805 1.974167,-1.2569334 0.518396,-0.4544844 0.859259,-0.4544844 0.09942,0 0.09942,0.1917356 z"
     id="path3577" /></g><text
   xml:space="preserve"
   style="font-size:11.9002px;line-height:1.25;font-family:'Segoe Script';-inkscape-font-specification:'Segoe Script';fill:#16272a;fill-opacity:0.799714;stroke-width:0.297507"
   x="9.2068834"
   y="41.636753"
   id="text17884"
   transform="scale(1.2991528,0.76973239)"><tspan
     sodipodi:role="line"
     id="tspan17882"
     x="9.2068834"
     y="41.636753"
     style="stroke-width:0.297507">_</tspan></text><text
   xml:space="preserve"
   style="font-size:12.1215px;line-height:1.25;font-family:'Segoe Script';-inkscape-font-specification:'Segoe Script';fill:#16272a;fill-opacity:0.799714;stroke-width:0.303038"
   x="39.696575"
   y="42.104801"
   id="text17884-6"
   transform="scale(1.323304,0.75568427)"><tspan
     sodipodi:role="line"
     id="tspan17882-2"
     x="39.696575"
     y="42.104801"
     style="stroke-width:0.303038">_</tspan></text><text
   xml:space="preserve"
   style="font-size:10.6487px;line-height:1.25;font-family:'Segoe Script';-inkscape-font-specification:'Segoe Script';fill:#16272a;fill-opacity:0.799714;stroke-width:0.266212"
   x="-44.927231"
   y="46.284096"
   id="text17884-0"
   transform="matrix(-0.01817336,-1.3767887,0.72560486,-0.05477344,0,0)"><tspan
     sodipodi:role="line"
     id="tspan17882-4"
     x="-44.927231"
     y="46.284096"
     style="stroke-width:0.266212">_</tspan></text><text
   xml:space="preserve"
   style="font-size:12.0174px;line-height:1.25;font-family:'Segoe Script';-inkscape-font-specification:'Segoe Script';fill:#16272a;fill-opacity:0.799714;stroke-width:0.300429"
   x="-12.852672"
   y="47.678013"
   id="text17884-9"
   transform="matrix(5.0800014e-4,-1.3457058,0.74310392,0.00146129,0,0)"><tspan
     sodipodi:role="line"
     id="tspan17882-7"
     x="-12.852672"
     y="47.678013"
     style="stroke-width:0.300429">_</tspan></text><g
   aria-label="в"
   transform="scale(1.3764846,0.72648835)"
   id="text19318"
   style="font-size:14.1329px;line-height:1.25;font-family:'Segoe Script';-inkscape-font-specification:'Segoe Script';fill:#161616;stroke-width:0.353323"><path
     d="m 49.542579,38.877867 q 0,-0.08281 -0.03451,-0.16562 -0.0276,-0.08971 -0.08971,-0.158719 -0.05521,-0.07591 -0.151819,-0.124215 -0.08971,-0.04831 -0.213925,-0.04831 -0.241529,0 -0.503761,0.172521 -0.255331,0.172521 -0.517562,0.476157 -0.255331,0.296736 -0.49686,0.710786 -0.241529,0.407149 -0.448554,0.883306 -0.207025,0.476157 -0.372645,1.00062 -0.158719,0.517563 -0.255331,1.042026 0.06211,-0.04141 0.186323,-0.131116 0.124215,-0.09661 0.276033,-0.213926 0.158719,-0.124215 0.33124,-0.262231 0.179422,-0.144918 0.338141,-0.282934 0.16562,-0.138017 0.303636,-0.262232 0.138017,-0.124215 0.220827,-0.213926 0.765992,-0.828099 1.097232,-1.435372 0.33124,-0.607273 0.33124,-0.986819 z m -0.213926,7.439095 q -0.213926,0.317438 -0.517562,0.621075 -0.296736,0.296735 -0.655579,0.524463 -0.358843,0.227727 -0.765992,0.358843 -0.400249,0.131116 -0.814298,0.09661 -0.289835,-0.0207 -0.552067,-0.186323 -0.262231,-0.172521 -0.462355,-0.483058 -0.200125,-0.317438 -0.317439,-0.772893 -0.117314,-0.455455 -0.117314,-1.048926 0,-0.379546 0.0414,-0.821199 0.04141,-0.448554 0.110414,-0.904009 0.06901,-0.455454 0.151818,-0.890207 0.08971,-0.434752 0.172521,-0.800496 0.110413,-0.49686 0.289834,-0.979918 0.179422,-0.489959 0.400249,-0.938513 0.220826,-0.455455 0.476157,-0.855703 0.255331,-0.400248 0.524463,-0.724587 0.372645,-0.434752 0.848802,-0.696984 0.483058,-0.262231 1.131736,-0.262231 0.269133,0 0.489959,0.110413 0.220827,0.110413 0.379546,0.289835 0.158719,0.172521 0.241529,0.393347 0.08971,0.220827 0.08971,0.434752 0,0.296736 -0.124215,0.66248 -0.117314,0.358843 -0.345042,0.752191 -0.227727,0.393347 -0.552066,0.793595 -0.324339,0.400248 -0.738389,0.772893 0.09661,0.0069 0.220827,0.0345 0.131115,0.0207 0.269132,0.08281 0.144917,0.06211 0.289835,0.16562 0.151818,0.103513 0.289835,0.262232 0.06211,0.07591 0.138016,0.207025 0.07591,0.124214 0.138017,0.310537 0.06901,0.179421 0.110413,0.41405 0.04831,0.234628 0.04831,0.517562 0,0.552066 -0.200124,1.193844 -0.193223,0.634876 -0.690083,1.366364 z M 49.13543,43.777456 q 0,-0.379545 -0.110414,-0.634876 -0.110413,-0.262231 -0.262231,-0.41405 -0.151819,-0.158719 -0.310538,-0.220826 -0.158719,-0.06901 -0.25533,-0.06901 -0.08971,0 -0.282934,0.138017 -0.193224,0.138017 -0.41405,0.303637 -0.16562,0.144917 -0.33124,0.269132 -0.16562,0.124215 -0.310537,0.241529 -0.138017,0.117314 -0.255331,0.234628 -0.117314,0.117314 -0.193223,0.24843 -0.193224,0.351942 -0.227728,0.800496 -0.0345,0.448554 -0.0345,0.917811 0,0.310537 0.06211,0.558967 0.06901,0.241529 0.16562,0.41405 0.103512,0.172521 0.220826,0.269132 0.117314,0.08971 0.213926,0.08971 0.234628,0 0.531364,-0.09661 0.296735,-0.09661 0.607273,-0.379545 0.269132,-0.24843 0.483058,-0.558968 0.220826,-0.310537 0.372645,-0.655578 0.158719,-0.345042 0.241529,-0.717687 0.08971,-0.372645 0.08971,-0.738389 z"
     id="path3598" /></g><g
   aria-label="ю"
   transform="scale(0.87812411,1.1387912)"
   id="text11307"
   style="font-size:11.7839px;line-height:1.25;font-family:'Segoe Script';-inkscape-font-specification:'Segoe Script';fill:#151515;stroke-width:0.294592"><path
     d="m 36.008636,57.85878 q 0,-0.02302 -0.02877,-0.04028 -0.02302,-0.02302 -0.05754,-0.05754 -0.03452,-0.03452 -0.06329,-0.09206 -0.02302,-0.05754 -0.02302,-0.161108 0,-0.09206 0.05179,-0.166862 0.05179,-0.0748 0.109323,-0.138092 0.06329,-0.06329 0.115078,-0.115077 0.05754,-0.05179 0.06905,-0.09782 0.09781,-0.55237 0.166862,-1.041448 0.06905,-0.489078 0.08631,-0.817048 0.0058,-0.09782 0,-0.201385 0,-0.103569 -0.0058,-0.207139 -0.0058,-0.0748 -0.01151,-0.143846 0,-0.06905 0,-0.132339 0,-0.06905 0.05178,-0.155354 0.05178,-0.08631 0.126585,-0.161108 0.08055,-0.0748 0.172615,-0.120831 0.09782,-0.05178 0.189878,-0.05178 0.08055,0 0.161108,0.04603 0.08055,0.04028 0.143846,0.120831 0.06329,0.0748 0.10357,0.189877 0.04028,0.109324 0.04028,0.247416 0,0.10357 -0.01726,0.25317 -0.01726,0.1496 -0.04603,0.32797 -0.02877,0.178369 -0.06905,0.374 -0.03452,0.195632 -0.06905,0.391263 -0.04603,0.270431 -0.09206,0.517847 -0.04028,0.247416 -0.06329,0.425785 0.02302,0.05178 0.04028,0.09206 0.02302,0.03452 0.05754,0.05754 0.03452,0.02302 0.08631,0.03452 0.05754,0.01151 0.1496,0.01151 0.247416,0 0.523601,-0.05179 0.276185,-0.05178 0.523601,-0.132339 0.247416,-0.08055 0.443047,-0.166862 0.201385,-0.09206 0.299201,-0.172615 0.06329,-0.05179 0.138092,-0.138093 0.08055,-0.08631 0.161108,-0.184123 0.08055,-0.10357 0.155355,-0.201385 0.08055,-0.10357 0.138092,-0.17837 0.195631,-0.247416 0.443047,-0.483324 0.247416,-0.235908 0.546617,-0.414278 0.2992,-0.178369 0.644432,-0.287693 0.350985,-0.109323 0.759509,-0.109323 0.310708,0 0.609909,0.155354 0.2992,0.1496 0.529355,0.408524 0.235908,0.258924 0.374,0.598401 0.143847,0.333724 0.143847,0.701971 0,0.368247 -0.0748,0.673201 -0.06905,0.299201 -0.224401,0.638678 -0.08631,0.17837 -0.2992,0.425786 -0.212893,0.247416 -0.512094,0.512093 -0.293446,0.264678 -0.644432,0.523601 -0.350985,0.258924 -0.713478,0.466063 -0.362493,0.207139 -0.713478,0.333723 -0.345232,0.126585 -0.627171,0.126585 -0.379754,0 -0.650186,-0.126585 -0.270431,-0.132338 -0.443047,-0.339477 -0.172616,-0.212893 -0.25317,-0.483324 -0.08055,-0.270432 -0.08055,-0.546617 0,-0.2244 0.06329,-0.540862 0.06905,-0.322216 0.230154,-0.650186 -0.218646,0.138092 -0.489078,0.218646 -0.264677,0.08055 -0.489078,0.143847 -0.09782,0.02877 -0.218646,0.05179 -0.120831,0.01726 -0.241662,0.03452 -0.115077,0.01726 -0.224401,0.03452 -0.103569,0.01726 -0.178369,0.02877 -0.115077,0.02302 -0.161108,0.09206 -0.04028,0.06329 -0.06329,0.166862 -0.02302,0.09782 -0.06905,0.258923 -0.04603,0.161108 -0.09206,0.333724 -0.05178,0.184123 -0.109323,0.379755 -0.05754,0.195631 -0.103569,0.374 -0.04028,0.172616 -0.0748,0.322216 -0.02877,0.143847 -0.02877,0.224401 0,0.0748 -0.06329,0.161108 -0.05754,0.08631 -0.138093,0.161108 -0.0748,0.08055 -0.155354,0.132339 -0.0748,0.05178 -0.115077,0.05178 -0.08631,0 -0.166862,-0.05754 -0.0748,-0.05754 -0.132339,-0.132339 -0.05754,-0.0748 -0.09206,-0.1496 -0.03452,-0.08055 -0.03452,-0.120831 0,-0.05179 0.04028,-0.184124 0.04603,-0.132338 0.09206,-0.270431 0.02877,-0.08631 0.0748,-0.235908 0.04603,-0.149601 0.09206,-0.32797 0.05179,-0.184124 0.09782,-0.379755 0.05178,-0.195631 0.09206,-0.368247 0.04028,-0.172615 0.06329,-0.2992 0.02302,-0.132339 0.02302,-0.189877 z m 6.933398,-1.300372 q 0,-0.575386 -0.333723,-0.897602 -0.32797,-0.32797 -0.943633,-0.32797 -0.08631,0 -0.212893,0.06905 -0.126584,0.06905 -0.276185,0.17837 -0.143846,0.103569 -0.293447,0.230154 -0.143846,0.126585 -0.276185,0.247416 -0.126585,0.120831 -0.218646,0.218647 -0.09206,0.09782 -0.126585,0.138092 -0.120831,0.143847 -0.25317,0.397016 -0.126585,0.247416 -0.235908,0.535109 -0.109323,0.287693 -0.184123,0.58114 -0.06905,0.287693 -0.06905,0.506339 0,0.132339 0.03452,0.270432 0.04028,0.138092 0.115078,0.253169 0.08055,0.109324 0.201385,0.184124 0.120831,0.06905 0.281939,0.06905 0.178369,0 0.454554,-0.103569 0.276185,-0.10357 0.58114,-0.287693 0.310708,-0.184124 0.621417,-0.437293 0.316462,-0.25317 0.563878,-0.546617 0.253169,-0.293447 0.408523,-0.615663 0.161108,-0.32797 0.161108,-0.661693 z"
     id="path3619" /></g><g
   aria-label="з"
   transform="scale(1.3613725,0.73455279)"
   id="text16794"
   style="font-size:13.5717px;line-height:1.25;font-family:'Segoe Script';-inkscape-font-specification:'Segoe Script';fill:#131313;stroke-width:0.339295"><path
     d="m 1.6230649,46.822369 q 0.066268,0 0.1060289,0.04639 0.046388,0.04639 0.072895,0.112656 0.026507,0.07289 0.033134,0.159043 0.013254,0.08615 0.013254,0.16567 0,0.152417 0.053014,0.331341 0.059641,0.178923 0.1855505,0.33134 0.1325362,0.152417 0.3379672,0.251819 0.205431,0.106029 0.5036373,0.106029 0.4042352,0 0.8349776,-0.212058 0.4307425,-0.212058 0.78859,-0.589786 0.3578476,-0.377728 0.583159,-0.901246 0.2319383,-0.516891 0.2319383,-1.133184 0,-0.569905 -0.1192826,-0.967514 -0.1192825,-0.397608 -0.3114599,-0.6428 -0.1855506,-0.251818 -0.4307424,-0.364474 -0.2451919,-0.112656 -0.4903837,-0.112656 -0.092775,0 -0.205431,0.04639 -0.1126557,0.03976 -0.2319383,0.106029 -0.1126557,0.05964 -0.2319382,0.132536 -0.1126557,0.07289 -0.205431,0.132536 -0.1590434,0.106029 -0.3048331,0.178924 -0.1391629,0.0729 -0.3711012,0.0729 -0.1789238,0 -0.3114599,-0.132536 -0.1259093,-0.139163 -0.1259093,-0.364475 0,-0.172297 0.1192825,-0.291579 0.1259093,-0.119283 0.3843548,-0.225312 0.5500249,-0.225311 0.9807674,-0.457249 0.4373692,-0.238565 0.7355755,-0.510265 0.2982063,-0.278325 0.4572497,-0.609666 0.1590433,-0.33134 0.1590433,-0.755456 0,-0.16567 -0.053014,-0.324713 -0.046388,-0.16567 -0.1457898,-0.29158 -0.099402,-0.132536 -0.2451918,-0.212058 -0.1391629,-0.08615 -0.3247135,-0.08615 -0.3976084,0 -0.755456,0.245192 -0.3578476,0.245192 -0.7024415,0.603039 -0.1524166,0.159044 -0.2518187,0.231938 -0.099402,0.06627 -0.2120578,0.06627 -0.092775,0 -0.1656701,-0.04639 -0.066268,-0.05301 -0.1126558,-0.119283 -0.039761,-0.0729 -0.066268,-0.152416 -0.01988,-0.08615 -0.01988,-0.14579 0,-0.159043 0.086148,-0.298206 0.092775,-0.14579 0.2451919,-0.271699 0.3313403,-0.278326 0.6494271,-0.45725 0.3180867,-0.178924 0.5235177,-0.265072 0.2319382,-0.09278 0.4771301,-0.178924 0.2518186,-0.08615 0.4705032,-0.08615 0.31146,0 0.5964126,0.112656 0.2849527,0.106029 0.4970105,0.318087 0.2186847,0.205431 0.344594,0.510264 0.1325361,0.304833 0.1325361,0.689188 0,0.556652 -0.2716991,1.106677 -0.2650722,0.550025 -0.9078725,1.066915 0.4439961,0.01988 0.7753364,0.225312 0.3313403,0.205431 0.550025,0.543398 0.2253114,0.337967 0.3313403,0.781963 0.1126557,0.43737 0.1126557,0.927753 0,0.490384 -0.1325361,0.974141 -0.1325362,0.483757 -0.377728,0.927753 -0.238565,0.443996 -0.5765322,0.821724 -0.3313403,0.377728 -0.7355755,0.656054 -0.3976084,0.278325 -0.8548581,0.437369 -0.4506228,0.159043 -0.9277529,0.159043 -0.4572497,0 -0.7952168,-0.152416 Q 1.6827061,48.89656 1.4573947,48.671248 1.2387101,48.445937 1.1260544,48.187492 1.0133987,47.929046 1.0133987,47.710362 q 0,-0.165671 0.059641,-0.357848 0.066268,-0.192177 0.1457898,-0.304833 0.053014,-0.07289 0.1524165,-0.152417 0.099402,-0.07289 0.2518187,-0.07289 z"
     id="path3640" /></g></svg>
