<?xml version="1.0" encoding="UTF-8" standalone="no"?>
<!-- Generator: Adobe Illustrator 22.0.1, SVG Export Plug-In . SVG Version: 6.00 Build 0)  -->

<svg
   version="1.1"
   id="Layer_1"
   x="0px"
   y="0px"
   viewBox="0 0 70 70"
   xml:space="preserve"
   sodipodi:docname="northWind.svg"
   width="70"
   height="70"
   inkscape:version="1.1.1 (3bf5ae0d25, 2021-09-20)"
   xmlns:inkscape="http://www.inkscape.org/namespaces/inkscape"
   xmlns:sodipodi="http://sodipodi.sourceforge.net/DTD/sodipodi-0.dtd"
   xmlns="http://www.w3.org/2000/svg"
   xmlns:svg="http://www.w3.org/2000/svg"><defs
   id="defs7" /><sodipodi:namedview
   id="namedview5"
   pagecolor="#ffffff"
   bordercolor="#666666"
   borderopacity="1.0"
   inkscape:pageshadow="2"
   inkscape:pageopacity="0.0"
   inkscape:pagecheckerboard="0"
   showgrid="false"
   inkscape:zoom="2.5396918"
   inkscape:cx="-48.824822"
   inkscape:cy="92.334038"
   inkscape:window-width="2400"
   inkscape:window-height="1321"
   inkscape:window-x="2391"
   inkscape:window-y="-9"
   inkscape:window-maximized="1"
   inkscape:current-layer="Layer_1"
   width="140px" />
<path
   d="m 10.996604,34.217195 c 0.08652,-4.326464 1.265304,-8.313981 3.514467,-11.941762 2.24917,-3.62778 5.258611,-6.477364 9.028348,-8.548763 3.769728,-2.071402 7.840969,-3.055054 12.214161,-2.97219 3.274503,0.06205 6.407043,0.757899 9.376487,2.065916 2.969425,1.308028 5.498694,3.074464 7.632123,5.236508 2.133411,2.162059 3.805977,4.739682 5.017645,7.732903 1.211678,2.993233 1.796487,6.080651 1.7312,9.34671 -0.06446,3.223637 -0.772624,6.307777 -2.102578,9.231627 -1.329954,2.923839 -3.125793,5.435757 -5.322467,7.515749 -2.196667,2.079996 -4.815739,3.727647 -7.835199,4.922191 -3.019469,1.194536 -6.155902,1.771581 -9.451949,1.709124 -3.296056,-0.06245 -6.450131,-0.758709 -9.419565,-2.066735 -2.969435,-1.308031 -5.520238,-3.074868 -7.653667,-5.236907 -2.133429,-2.162047 -3.784443,-4.739275 -5.018493,-7.690494 -1.234078,-2.95122 -1.775381,-6.059035 -1.710513,-9.303877 z m 5.342617,0.101235 c -0.100471,5.026331 1.664881,9.430313 5.31759,13.21236 3.653567,3.739628 8.054931,5.647622 13.24675,5.746005 3.403766,0.0645 6.587089,-0.702608 9.507318,-2.323347 2.920239,-1.620742 5.291799,-3.824712 7.050914,-6.655565 1.759116,-2.830844 2.682728,-5.910905 2.749721,-9.261796 0.06701,-3.350882 -0.732426,-6.484805 -2.377066,-9.38016 -1.644642,-2.895347 -3.904361,-5.208301 -6.77916,-6.938852 -2.87479,-1.730555 -6.0035,-2.617271 -9.407275,-2.681769 -3.403767,-0.0645 -6.587089,0.702609 -9.507328,2.323347 -2.92022,1.62074 -5.292208,3.845926 -7.072868,6.676369 -1.78065,2.830443 -2.661603,5.93252 -2.728596,9.283408 z m 10.286423,12.606385 8.634361,-27.65079 c 0.0258,-0.211667 0.135617,-0.315669 0.329521,-0.311975 0.193885,0.0038 0.299489,0.111757 0.316803,0.324224 l 7.501182,27.956544 c 0.0815,0.234928 0.05662,0.404181 -0.0537,0.529388 -0.11029,0.125181 -0.282604,0.121937 -0.517033,-0.0098 l -7.42024,-2.898709 c -0.213734,-0.08892 -0.429162,-0.09301 -0.624744,-0.01183 l -7.595098,2.614189 c -0.217972,0.123158 -0.368769,0.120298 -0.452401,-0.0085 -0.08361,-0.128889 -0.165986,-0.321384 -0.118659,-0.532651 z"
   id="path2"
   style="fill:#2c4f54;fill-opacity:0.5;stroke:#2e3332;stroke-width:0.131805;stroke-miterlimit:4;stroke-dasharray:none;stroke-opacity:0.9" />
<path
   style="fill:#1f4347;fill-opacity:0.81;stroke:#e4e7e7;stroke-width:0.131805;stroke-miterlimit:4;stroke-dasharray:none;stroke-opacity:0.9"
   d="m 32.820003,52.498271 c -0.912051,-0.11293 -1.912731,-0.304779 -2.772669,-0.531559 -4.835402,-1.275231 -9.283473,-5.028166 -11.488618,-9.693218 -1.186988,-2.511116 -1.635642,-4.71466 -1.555256,-7.63855 0.08242,-3.001131 0.679154,-5.271567 2.046716,-7.788614 0.92176,-1.696498 1.949919,-3.037878 3.408753,-4.447181 2.895138,-2.796836 6.24814,-4.477718 10.210768,-5.118741 0.82523,-0.133494 1.166895,-0.148263 2.959069,-0.12791 2.175359,0.02477 2.787512,0.0929 4.357419,0.485109 2.371049,0.592409 4.980393,1.900054 6.972698,3.494316 0.812666,0.650293 2.309372,2.201617 2.944234,3.051654 1.536458,2.057247 2.617012,4.349842 3.119184,6.617997 0.37032,1.672594 0.421313,2.265848 0.367348,4.272918 -0.03811,1.415842 -0.08361,2.014923 -0.199911,2.628521 -0.706214,3.726484 -2.60102,7.153598 -5.41457,9.793176 -2.881499,2.703352 -6.51974,4.440753 -10.381114,4.957392 -0.890125,0.119099 -3.747591,0.147017 -4.574051,0.04471 z m -1.855694,-6.572988 c 2.057229,-0.715112 3.815979,-1.317377 3.908327,-1.338363 0.113965,-0.02593 1.398296,0.430616 3.99927,1.421581 2.205519,0.840285 3.886373,1.443513 3.960997,1.421518 0.154636,-0.04562 0.242917,-0.311633 0.191624,-0.577452 -0.02034,-0.105534 -1.632525,-6.211709 -3.582562,-13.569288 -3.41715,-12.893023 -3.552339,-13.379928 -3.733579,-13.446621 -0.140076,-0.05153 -0.214991,-0.0435 -0.293654,0.03173 -0.130165,0.124358 -8.640241,26.569088 -8.648419,26.874533 -0.0073,0.275975 0.17865,0.559166 0.33851,0.515258 0.06546,-0.01807 1.802258,-0.617789 3.859495,-1.332901 z"
   id="path861" /><rect
   style="fill:#c7485e;fill-opacity:1;stroke:#3c4343;stroke-width:0.586498;stroke-opacity:0.9"
   id="rect2803"
   width="6.9478641"
   height="0.069949277"
   x="30.513557"
   y="33.166122"
   transform="matrix(0.99987756,-0.01564835,0.03706837,0.99931273,0,0)"
   inkscape:transform-center-x="3.6102171"
   inkscape:transform-center-y="3.5438556" /><path
   style="fill:#cd415c;fill-opacity:1;stroke:#e27364;stroke-width:0.0509228;stroke-opacity:0.9"
   d="m 32.130696,31.786551 c 0.03706,-0.120304 0.802933,-2.720637 1.701914,-5.778567 0.898979,-3.057926 1.673148,-5.631426 1.720373,-5.718879 0.0743,-0.137624 3.166793,11.083701 3.16126,11.470831 -0.001,0.105746 -0.888427,0.157646 -3.326512,0.194738 -3.108752,0.04729 -3.320072,0.03633 -3.257035,-0.168092 z"
   id="path3397"
   inkscape:transform-center-x="3.4706479"
   inkscape:transform-center-y="-2.0405706" /><text
   xml:space="preserve"
   style="font-size:11.6579px;line-height:1.25;font-family:'Segoe Script';-inkscape-font-specification:'Segoe Script';fill:#16272a;fill-opacity:0.799714;stroke-width:0.291446"
   x="8.6556587"
   y="43.257183"
   id="text17884"
   transform="scale(1.3305635,0.75156128)"><tspan
     sodipodi:role="line"
     id="tspan17882"
     x="8.6556587"
     y="43.257183"
     style="stroke-width:0.291446">_</tspan></text><text
   xml:space="preserve"
   style="font-size:11.8745px;line-height:1.25;font-family:'Segoe Script';-inkscape-font-specification:'Segoe Script';fill:#16272a;fill-opacity:0.799714;stroke-width:0.296864"
   x="38.563126"
   y="43.761593"
   id="text17884-6"
   transform="scale(1.3552987,0.7378447)"><tspan
     sodipodi:role="line"
     id="tspan17882-2"
     x="38.563126"
     y="43.761593"
     style="stroke-width:0.296864">_</tspan></text><text
   xml:space="preserve"
   style="font-size:10.4316px;line-height:1.25;font-family:'Segoe Script';-inkscape-font-specification:'Segoe Script';fill:#16272a;fill-opacity:0.799714;stroke-width:0.260788"
   x="-45.070335"
   y="44.722477"
   id="text17884-0"
   transform="matrix(-0.01861275,-1.3442868,0.7431484,-0.0534804,0,0)"><tspan
     sodipodi:role="line"
     id="tspan17882-4"
     x="-45.070335"
     y="44.722477"
     style="stroke-width:0.260788">_</tspan></text><text
   xml:space="preserve"
   style="font-size:11.7725px;line-height:1.25;font-family:'Segoe Script';-inkscape-font-specification:'Segoe Script';fill:#16272a;fill-opacity:0.799714;stroke-width:0.294309"
   x="-13.344927"
   y="46.037205"
   id="text17884-9"
   transform="matrix(5.2028254e-4,-1.3139375,0.76107063,0.00142679,0,0)"><tspan
     sodipodi:role="line"
     id="tspan17882-7"
     x="-13.344927"
     y="46.037205"
     style="stroke-width:0.294309">_</tspan></text><text
   xml:space="preserve"
   style="font-size:15.8974px;line-height:1.25;font-family:'Segoe Script';-inkscape-font-specification:'Segoe Script';fill:#0e0e0e;fill-opacity:1;stroke-width:0.39743"
   x="30.889914"
   y="9.2395496"
   id="text9344"
   transform="scale(1.0073858,0.99266836)"><tspan
     sodipodi:role="line"
     id="tspan9342"
     x="30.889914"
     y="9.2395496"
     style="fill:#0e0e0e;fill-opacity:1;stroke-width:0.39743">c</tspan></text><text
   xml:space="preserve"
   style="font-size:15.2287px;line-height:1.25;font-family:'Segoe Script';-inkscape-font-specification:'Segoe Script';fill:#161616;fill-opacity:1;stroke-width:0.38072"
   x="42.053925"
   y="51.048931"
   id="text19318"
   transform="scale(1.40543,0.711526)"><tspan
     sodipodi:role="line"
     id="tspan19316"
     x="42.053925"
     y="51.048931"
     style="fill:#161616;fill-opacity:1;stroke-width:0.38072">в</tspan></text><text
   xml:space="preserve"
   style="font-size:12.6976px;line-height:1.25;font-family:'Segoe Script';-inkscape-font-specification:'Segoe Script';fill:#151515;fill-opacity:1;stroke-width:0.317436"
   x="32.429253"
   y="61.096283"
   id="text11307"
   transform="scale(0.89658976,1.1153373)"><tspan
     sodipodi:role="line"
     id="tspan11305"
     x="32.429253"
     y="61.096283"
     style="fill:#151515;fill-opacity:1;stroke-width:0.317436">ю</tspan></text><text
   xml:space="preserve"
   style="font-size:14.6241px;line-height:1.25;font-family:'Segoe Script';-inkscape-font-specification:'Segoe Script';fill:#131313;fill-opacity:1;stroke-width:0.365603"
   x="0.94295144"
   y="46.457764"
   id="text16794"
   transform="scale(1.3900002,0.71942436)"><tspan
     sodipodi:role="line"
     id="tspan16792"
     x="0.94295144"
     y="46.457764"
     style="fill:#131313;fill-opacity:1;stroke-width:0.365603">з</tspan></text></svg>
