<?xml version="1.0" encoding="UTF-8" standalone="no"?>
<!-- Generator: Adobe Illustrator 22.0.1, SVG Export Plug-In . SVG Version: 6.00 Build 0)  -->

<svg
   version="1.1"
   id="Layer_1"
   x="0px"
   y="0px"
   viewBox="0 0 70 70"
   xml:space="preserve"
   sodipodi:docname="northwestWind.svg"
   width="70"
   height="70"
   inkscape:version="1.1.1 (3bf5ae0d25, 2021-09-20)"
   xmlns:inkscape="http://www.inkscape.org/namespaces/inkscape"
   xmlns:sodipodi="http://sodipodi.sourceforge.net/DTD/sodipodi-0.dtd"
   xmlns="http://www.w3.org/2000/svg"
   xmlns:svg="http://www.w3.org/2000/svg"><defs
   id="defs7" /><sodipodi:namedview
   id="namedview5"
   pagecolor="#ffffff"
   bordercolor="#666666"
   borderopacity="1.0"
   inkscape:pageshadow="2"
   inkscape:pageopacity="0.0"
   inkscape:pagecheckerboard="0"
   showgrid="false"
   inkscape:zoom="5.0793835"
   inkscape:cx="18.899931"
   inkscape:cy="43.607654"
   inkscape:window-width="2400"
   inkscape:window-height="1321"
   inkscape:window-x="2391"
   inkscape:window-y="-9"
   inkscape:window-maximized="1"
   inkscape:current-layer="Layer_1"
   width="140px" />
<path
   d="M 17.927836,52.868831 C 14.554387,49.848855 12.181949,46.223878 10.812316,42.024873 9.4426908,37.825859 9.1998967,33.575955 10.083938,29.27515 c 0.884038,-4.300803 2.83291,-8.089872 5.83007,-11.382036 2.244171,-2.465058 4.895868,-4.388706 7.923764,-5.76953 3.027898,-1.380807 6.124323,-2.111599 9.26917,-2.2691996 3.144861,-0.1575788 6.310396,0.3214636 9.496603,1.4371286 3.186222,1.115688 6.026947,2.775689 8.573585,5.055461 2.513562,2.250158 4.48496,4.898024 5.912448,7.912576 1.427484,3.014538 2.215968,6.104599 2.393197,9.206725 0.177227,3.102112 -0.27159,6.232512 -1.348166,9.360167 -1.076593,3.127657 -2.72133,5.923297 -4.980268,8.404576 -2.258937,2.481295 -4.925397,4.42115 -7.953301,5.801969 -3.027903,1.380807 -6.13908,2.127816 -9.283938,2.285428 -3.144856,0.157597 -6.295626,-0.337653 -9.463528,-1.407524 -3.16791,-1.069861 -5.995645,-2.777103 -8.525738,-5.04206 z m 3.661558,-4.021954 c 3.919165,3.508475 8.595431,5.163326 14.04356,4.948343 5.415046,-0.244595 9.878648,-2.312292 13.436852,-6.220708 2.332764,-2.562371 3.858196,-5.523688 4.530237,-8.866326 0.672031,-3.342641 0.513703,-6.663313 -0.552349,-9.942998 -1.066049,-3.279683 -2.889811,-6.089725 -5.502588,-8.428718 -2.61278,-2.338971 -5.634232,-3.866407 -9.033048,-4.583734 -3.398815,-0.717315 -6.748017,-0.566034 -10.047594,0.453839 -3.299576,1.019879 -6.100094,2.810286 -8.432855,5.372661 -2.332768,2.562369 -3.858191,5.52369 -4.530235,8.866331 -0.672035,3.34263 -0.497172,6.678127 0.554127,9.974018 1.051291,3.295902 2.921116,6.088311 5.533893,8.427292 z M 38.483037,49.576672 22.340231,24.087464 c -0.150598,-0.16425 -0.159454,-0.319359 -0.02655,-0.465318 0.132913,-0.145925 0.289387,-0.153025 0.469504,-0.02124 l 27.201271,13.342305 c 0.240976,0.09796 0.358498,0.232616 0.383889,0.402519 0.02535,0.169914 -0.09272,0.29965 -0.354521,0.389065 l -7.272983,3.702993 c -0.213796,0.102957 -0.361441,0.265134 -0.428165,0.470311 l -3.01776,7.600618 c -0.04843,0.250988 -0.151781,0.364508 -0.309888,0.340709 -0.158277,-0.02397 -0.366162,-0.09232 -0.502001,-0.272782 z"
   id="path2"
   style="fill:#2c4f54;fill-opacity:0.5;stroke:#2e3332;stroke-width:0.136018;stroke-miterlimit:4;stroke-dasharray:none;stroke-opacity:0.9" />
<path
   style="fill:#1f4347;fill-opacity:0.81;stroke:#e4e7e7;stroke-width:0.136018;stroke-miterlimit:4;stroke-dasharray:none;stroke-opacity:0.9"
   d="m 46.988409,48.508279 c -0.700728,0.621524 -1.523453,1.257077 -2.279575,1.760983 -4.251738,2.833468 -10.209635,3.679331 -15.388267,2.184727 -2.787559,-0.804527 -4.836386,-1.964683 -7.102208,-4.021662 -2.32574,-2.111241 -3.727148,-4.117785 -4.807707,-6.883052 -0.728294,-1.863808 -1.103563,-3.56676 -1.244131,-5.645947 -0.278981,-4.12627 0.634218,-7.841662 2.780866,-11.314352 0.447047,-0.723199 0.664267,-0.994977 1.881285,-2.353821 1.477263,-1.64936 1.941494,-2.071738 3.304602,-3.006572 2.058739,-1.411841 4.844583,-2.518096 7.444374,-2.956126 1.060445,-0.178675 3.294087,-0.266401 4.393864,-0.172551 2.66166,0.227092 5.20454,0.964015 7.340481,2.127284 1.575097,0.857801 2.079932,1.223606 3.636088,2.634669 1.097735,0.995442 1.542527,1.439129 1.951401,1.946966 2.483223,3.084064 3.932502,6.874254 4.141386,10.8307 0.213917,4.052023 -0.845552,8.024472 -3.023025,11.334717 -0.50195,0.76308 -2.394483,2.970833 -3.029426,3.534056 z m -6.458152,-3.064348 c 0.81113,-2.063787 1.51179,-3.821936 1.55702,-3.906995 0.0558,-0.104986 1.278578,-0.777169 3.807583,-2.093134 2.144481,-1.115892 3.749334,-1.991691 3.781883,-2.063854 0.06742,-0.149578 -0.08445,-0.398747 -0.329729,-0.540862 -0.09738,-0.05641 -6.021985,-2.98873 -13.165818,-6.516253 -12.518457,-6.181437 -12.995334,-6.410173 -13.169682,-6.316865 -0.134726,0.07213 -0.178565,0.134992 -0.171603,0.246573 0.01154,0.184559 15.289252,24.750171 15.526101,24.964879 0.213977,0.194015 0.563323,0.244764 0.635599,0.09235 0.02955,-0.06247 0.717506,-1.80207 1.528637,-3.865856 z"
   id="path861" /><rect
   style="fill:#c7485e;fill-opacity:1;stroke:#3c4343;stroke-width:0.584014;stroke-opacity:0.9"
   id="rect2803"
   width="6.4009047"
   height="0.075285673"
   x="-8.1614323"
   y="43.672165"
   transform="matrix(0.63137233,-0.77547984,0.77513101,0.63180054,0,0)"
   inkscape:transform-center-x="-0.73428083"
   inkscape:transform-center-y="5.0435958" /><path
   style="fill:#cd425b;fill-opacity:1;stroke:#e27364;stroke-width:0.0457663;stroke-opacity:0.9"
   d="m 28.230248,33.01805 c -0.05877,-0.09755 -1.34989,-2.183092 -2.869243,-4.63454 -1.519354,-2.451444 -2.787429,-4.526065 -2.817937,-4.610255 -0.04799,-0.132487 9.374235,4.679798 9.631751,4.919281 0.07037,0.06538 -0.428505,0.67757 -1.870941,2.296024 -1.839229,2.063664 -1.973807,2.195311 -2.073606,2.029507 z"
   id="path3397"
   inkscape:transform-center-x="2.5012501"
   inkscape:transform-center-y="2.026692" /><text
   xml:space="preserve"
   style="font-size:12.0307px;line-height:1.25;font-family:'Segoe Script';-inkscape-font-specification:'Segoe Script';fill:#16272a;fill-opacity:0.799714;stroke-width:0.300764"
   x="7.2877221"
   y="43.353283"
   id="text17884"
   transform="scale(1.3184319,0.7584768)"><tspan
     sodipodi:role="line"
     id="tspan17882"
     x="7.2877221"
     y="43.353283"
     style="stroke-width:0.300764">_</tspan></text><text
   xml:space="preserve"
   style="font-size:12.2542px;line-height:1.25;font-family:'Segoe Script';-inkscape-font-specification:'Segoe Script';fill:#16272a;fill-opacity:0.799714;stroke-width:0.306355"
   x="38.14801"
   y="43.849895"
   id="text17884-6"
   transform="scale(1.3429415,0.74463409)"><tspan
     sodipodi:role="line"
     id="tspan17882-2"
     x="38.14801"
     y="43.849895"
     style="stroke-width:0.306355">_</tspan></text><text
   xml:space="preserve"
   style="font-size:10.765px;line-height:1.25;font-family:'Segoe Script';-inkscape-font-specification:'Segoe Script';fill:#16272a;fill-opacity:0.799714;stroke-width:0.269126"
   x="-45.673069"
   y="43.16777"
   id="text17884-0"
   transform="matrix(-0.01844304,-1.3566564,0.73637259,-0.0539725,0,0)"><tspan
     sodipodi:role="line"
     id="tspan17882-4"
     x="-45.673069"
     y="43.16777"
     style="stroke-width:0.269126">_</tspan></text><text
   xml:space="preserve"
   style="font-size:12.1488px;line-height:1.25;font-family:'Segoe Script';-inkscape-font-specification:'Segoe Script';fill:#16272a;fill-opacity:0.799714;stroke-width:0.303717"
   x="-13.038675"
   y="44.573803"
   id="text17884-9"
   transform="matrix(5.1553874e-4,-1.3260279,0.75413138,0.00143992,0,0)"><tspan
     sodipodi:role="line"
     id="tspan17882-7"
     x="-13.038675"
     y="44.573803"
     style="stroke-width:0.303717">_</tspan></text><text
   xml:space="preserve"
   style="font-size:14.288px;line-height:1.25;font-family:'Segoe Script';-inkscape-font-specification:'Segoe Script';fill:#0e0e0e;fill-opacity:1;stroke-width:0.357198"
   x="29.713326"
   y="8.4992142"
   id="text9344"
   transform="scale(1.0350715,0.96611687)"><tspan
     sodipodi:role="line"
     id="tspan9342"
     x="29.713326"
     y="8.4992142"
     style="fill:#0e0e0e;fill-opacity:1;stroke-width:0.357198">c</tspan></text><text
   xml:space="preserve"
   style="font-size:13.7317px;line-height:1.25;font-family:'Segoe Script';-inkscape-font-specification:'Segoe Script';fill:#161616;fill-opacity:1;stroke-width:0.343295"
   x="43.05761"
   y="53.753738"
   id="text19318"
   transform="scale(1.4105403,0.7089482)"><tspan
     sodipodi:role="line"
     id="tspan19316"
     x="43.05761"
     y="53.753738"
     style="fill:#161616;fill-opacity:1;stroke-width:0.343295">в</tspan></text><text
   xml:space="preserve"
   style="font-size:11.4493px;line-height:1.25;font-family:'Segoe Script';-inkscape-font-specification:'Segoe Script';fill:#151515;fill-opacity:1;stroke-width:0.286232"
   x="33.417999"
   y="61.828476"
   id="text11307"
   transform="scale(0.89985039,1.1112958)"><tspan
     sodipodi:role="line"
     id="tspan11305"
     x="33.417999"
     y="61.828476"
     style="fill:#151515;fill-opacity:1;stroke-width:0.286232">ю</tspan></text><text
   xml:space="preserve"
   style="font-size:13.1865px;line-height:1.25;font-family:'Segoe Script';-inkscape-font-specification:'Segoe Script';fill:#131313;fill-opacity:1;stroke-width:0.329663"
   x="0.044729885"
   y="49.435081"
   id="text16794"
   transform="scale(1.3950593,0.71681543)"><tspan
     sodipodi:role="line"
     id="tspan16792"
     x="0.044729885"
     y="49.435081"
     style="fill:#131313;fill-opacity:1;stroke-width:0.329663">з</tspan></text></svg>
