<?xml version="1.0" encoding="UTF-8" standalone="no"?>
<!-- Generator: Adobe Illustrator 22.0.1, SVG Export Plug-In . SVG Version: 6.00 Build 0)  -->

<svg
   version="1.1"
   id="Layer_1"
   x="0px"
   y="0px"
   viewBox="0 0 70 70"
   xml:space="preserve"
   sodipodi:docname="northEastWind.svg"
   width="70"
   height="70"
   inkscape:version="1.1.1 (3bf5ae0d25, 2021-09-20)"
   xmlns:inkscape="http://www.inkscape.org/namespaces/inkscape"
   xmlns:sodipodi="http://sodipodi.sourceforge.net/DTD/sodipodi-0.dtd"
   xmlns="http://www.w3.org/2000/svg"
   xmlns:svg="http://www.w3.org/2000/svg"><defs
   id="defs7" /><sodipodi:namedview
   id="namedview5"
   pagecolor="#ffffff"
   bordercolor="#666666"
   borderopacity="1.0"
   inkscape:pageshadow="2"
   inkscape:pageopacity="0.0"
   inkscape:pagecheckerboard="0"
   showgrid="false"
   inkscape:zoom="7.1833332"
   inkscape:cx="68.35267"
   inkscape:cy="41.972159"
   inkscape:window-width="2400"
   inkscape:window-height="1321"
   inkscape:window-x="2391"
   inkscape:window-y="-9"
   inkscape:window-maximized="1"
   inkscape:current-layer="Layer_1"
   width="140px" />
<path
   d="m 17.884467,18.245424 c 3.008363,-3.320828 6.599478,-5.637848 10.742841,-6.949678 4.143368,-1.3118276 8.323344,-1.5014123 12.539946,-0.568757 4.2166,0.932651 7.917562,2.918938 11.117655,5.942567 2.39612,2.263996 4.255257,4.926992 5.576392,7.957795 1.321119,3.030803 2.002546,6.121845 2.120022,9.254073 0.117462,3.13223 -0.391024,6.27724 -1.525507,9.435024 -1.134487,3.157796 -2.79985,5.965029 -5.070868,8.471939 -2.241517,2.474346 -4.867478,4.40417 -7.847363,5.788108 -2.979879,1.383929 -6.026384,2.130891 -9.077467,2.269277 -3.051074,0.138394 -6.1225,-0.346708 -9.183762,-1.456632 -3.061257,-1.109938 -5.789434,-2.781321 -8.201321,-5.060214 -2.4119,-2.278889 -4.286791,-4.956779 -5.607921,-7.98759 -1.321121,-3.030806 -2.018309,-6.136733 -2.135796,-9.26896 -0.117477,-3.13223 0.406789,-6.262344 1.496023,-9.402469 1.08922,-3.140138 2.80086,-5.933862 5.057126,-8.424483 z m 3.909472,3.693897 c -3.495002,3.858027 -5.177146,8.492361 -5.030674,13.917904 0.175967,5.39298 2.15512,9.861258 5.954238,13.450888 2.490706,2.353373 5.383139,3.908031 8.660511,4.617924 3.277375,0.709887 6.54304,0.592989 9.779223,-0.427938 3.236177,-1.020917 6.019774,-2.8018 8.349783,-5.373818 2.329992,-2.572017 3.867211,-5.560762 4.612689,-8.935055 0.745471,-3.374292 0.636636,-6.70984 -0.326505,-10.00664 -0.963139,-3.296802 -2.68955,-6.106292 -5.180262,-8.459662 -2.490705,-2.353372 -5.383137,-3.908031 -8.660515,-4.617924 -3.277366,-0.709883 -6.557791,-0.576706 -9.80973,0.429327 -3.251942,1.006034 -6.018756,2.832977 -8.348758,5.404994 z M 20.87562,38.745817 46.120219,22.990122 c 0.163227,-0.147888 0.315786,-0.154807 0.457662,-0.02072 0.141835,0.134093 0.146961,0.289921 0.01528,0.467591 l -13.4374,26.911827 c -0.09915,0.238657 -0.232898,0.353988 -0.400193,0.377184 -0.167303,0.02315 -0.293412,-0.09596 -0.378337,-0.357478 l -3.553002,-7.284694 c -0.09865,-0.214067 -0.256289,-0.363016 -0.45716,-0.431947 L 20.932583,39.55495 c -0.24611,-0.05129 -0.356455,-0.155545 -0.331035,-0.312796 0.02544,-0.157249 0.09509,-0.363336 0.274082,-0.496338 z"
   id="path2"
   style="fill:#2c4f54;fill-opacity:0.5;stroke:#2e3332;stroke-width:0.134546;stroke-miterlimit:4;stroke-dasharray:none;stroke-opacity:0.9" />
<path
   style="fill:#1f4347;fill-opacity:0.81;stroke:#e4e7e7;stroke-width:0.134546;stroke-miterlimit:4;stroke-dasharray:none;stroke-opacity:0.9"
   d="M 21.84432,47.147494 C 21.243576,46.440799 20.630806,45.61247 20.146457,44.852379 17.423001,40.57836 16.677645,34.635685 18.221326,29.503422 c 0.830941,-2.762606 2.000748,-4.784628 4.055119,-7.009306 2.10856,-2.283522 4.100885,-3.648568 6.834269,-4.682988 1.842324,-0.697191 3.521461,-1.045391 5.56698,-1.154404 4.059457,-0.216336 7.697885,0.74781 11.079981,2.936063 0.704331,0.455708 0.968307,0.675952 2.286264,1.907489 1.599712,1.494901 2.008145,1.963241 2.907259,3.333881 1.357892,2.070122 2.404949,4.859419 2.797942,7.453592 0.160302,1.058154 0.214284,3.282683 0.106182,4.375937 -0.261606,2.645865 -1.022581,5.165929 -2.1967,7.274619 -0.865812,1.555005 -1.232623,2.052043 -2.641915,3.579971 -0.994196,1.077815 -1.436684,1.513943 -1.941705,1.913356 -3.066958,2.425804 -6.812995,3.811992 -10.704536,3.961091 -3.985547,0.152694 -7.874508,-0.960875 -11.0965,-3.17739 -0.742736,-0.510954 -2.885287,-2.427468 -3.429665,-3.067832 z m 3.104943,-6.382481 c 2.016653,0.838027 3.734508,1.561549 3.817452,1.607831 0.10238,0.0571 0.745373,1.284163 2.00225,3.820933 1.065786,2.151061 1.903388,3.761446 1.973845,3.794913 0.146038,0.06933 0.393118,-0.07813 0.536336,-0.320144 0.05686,-0.09608 3.024326,-5.94948 6.59439,-13.007558 6.255986,-12.368189 6.487676,-12.839442 6.398487,-13.014368 -0.06895,-0.135178 -0.130087,-0.179748 -0.239873,-0.174454 -0.181566,0.0086 -24.545931,14.850069 -24.760377,15.082621 -0.193758,0.210112 -0.24869,0.557059 -0.09994,0.631265 0.06098,0.03034 1.760783,0.740939 3.777433,1.578962 z"
   id="path861" /><rect
   style="fill:#c7485e;fill-opacity:1;stroke:#3c4343;stroke-width:0.577714;stroke-opacity:0.9"
   id="rect2803"
   width="6.3308153"
   height="0.074485093"
   x="46.762505"
   y="-3.1400478"
   transform="matrix(0.7361055,0.67686682,-0.66786193,0.74428519,0,0)"
   inkscape:transform-center-x="4.9888713"
   inkscape:transform-center-y="0.45756371" /><path
   style="fill:#cd425c;fill-opacity:1;stroke:#e27364;stroke-width:0.0452706;stroke-opacity:0.9"
   d="m 37.238628,28.787266 c 0.09611,-0.05811 2.150931,-1.335239 4.566281,-2.838124 2.415347,-1.502882 4.459347,-2.757094 4.542213,-2.787133 0.130407,-0.04728 -4.635339,9.313249 -4.871706,9.568656 -0.06454,0.0698 -0.664387,-0.429184 -2.249771,-1.871337 -2.021495,-1.838866 -2.150386,-1.973342 -1.987036,-2.072042 z"
   id="path3397"
   inkscape:transform-center-x="1.9753301"
   inkscape:transform-center-y="-2.4892449" /><text
   xml:space="preserve"
   style="font-size:14.5435px;line-height:1.25;font-family:'Segoe Script';-inkscape-font-specification:'Segoe Script';fill:#000000;fill-opacity:1;stroke-width:0.363586"
   x="32.807732"
   y="8.4629421"
   id="text9344"
   transform="scale(1.0008802,0.99912055)"><tspan
     sodipodi:role="line"
     id="tspan9342"
     x="32.807732"
     y="8.4629421"
     style="fill:#000000;fill-opacity:1;stroke-width:0.363586">c</tspan></text><text
   xml:space="preserve"
   style="font-size:11.9002px;line-height:1.25;font-family:'Segoe Script';-inkscape-font-specification:'Segoe Script';fill:#16272a;fill-opacity:0.799714;stroke-width:0.297507"
   x="9.2068834"
   y="41.636753"
   id="text17884"
   transform="scale(1.2991528,0.76973239)"><tspan
     sodipodi:role="line"
     id="tspan17882"
     x="9.2068834"
     y="41.636753"
     style="stroke-width:0.297507">_</tspan></text><text
   xml:space="preserve"
   style="font-size:12.1215px;line-height:1.25;font-family:'Segoe Script';-inkscape-font-specification:'Segoe Script';fill:#16272a;fill-opacity:0.799714;stroke-width:0.303038"
   x="39.696575"
   y="42.104801"
   id="text17884-6"
   transform="scale(1.323304,0.75568427)"><tspan
     sodipodi:role="line"
     id="tspan17882-2"
     x="39.696575"
     y="42.104801"
     style="stroke-width:0.303038">_</tspan></text><text
   xml:space="preserve"
   style="font-size:10.6487px;line-height:1.25;font-family:'Segoe Script';-inkscape-font-specification:'Segoe Script';fill:#16272a;fill-opacity:0.799714;stroke-width:0.266212"
   x="-44.624195"
   y="46.291687"
   id="text17884-0"
   transform="matrix(-0.01817336,-1.3767887,0.72560486,-0.05477344,0,0)"><tspan
     sodipodi:role="line"
     id="tspan17882-4"
     x="-44.624195"
     y="46.291687"
     style="stroke-width:0.266212">_</tspan></text><text
   xml:space="preserve"
   style="font-size:12.0174px;line-height:1.25;font-family:'Segoe Script';-inkscape-font-specification:'Segoe Script';fill:#16272a;fill-opacity:0.799714;stroke-width:0.300429"
   x="-12.180359"
   y="47.583885"
   id="text17884-9"
   transform="matrix(5.0800014e-4,-1.3457058,0.74310391,0.00146129,0,0)"><tspan
     sodipodi:role="line"
     id="tspan17882-7"
     x="-12.180359"
     y="47.583885"
     style="stroke-width:0.300429">_</tspan></text><text
   xml:space="preserve"
   style="font-size:14.1329px;line-height:1.25;font-family:'Segoe Script';-inkscape-font-specification:'Segoe Script';fill:#161616;fill-opacity:1;stroke-width:0.353323"
   x="44.187534"
   y="47.745434"
   id="text19318"
   transform="scale(1.3764846,0.72648835)"><tspan
     sodipodi:role="line"
     id="tspan19316"
     x="44.187534"
     y="47.745434"
     style="fill:#161616;fill-opacity:1;stroke-width:0.353323">в</tspan></text><text
   xml:space="preserve"
   style="font-size:11.7839px;line-height:1.25;font-family:'Segoe Script';-inkscape-font-specification:'Segoe Script';fill:#151515;fill-opacity:1;stroke-width:0.294592"
   x="34.466602"
   y="60.235123"
   id="text11307"
   transform="scale(0.87812411,1.1387912)"><tspan
     sodipodi:role="line"
     id="tspan11305"
     x="34.466602"
     y="60.235123"
     style="fill:#151515;fill-opacity:1;stroke-width:0.294592">ю</tspan></text><text
   xml:space="preserve"
   style="font-size:13.5717px;line-height:1.25;font-family:'Segoe Script';-inkscape-font-specification:'Segoe Script';fill:#131313;fill-opacity:1;stroke-width:0.339295"
   x="0.64892429"
   y="46.292225"
   id="text16794"
   transform="scale(1.3613725,0.73455279)"><tspan
     sodipodi:role="line"
     id="tspan16792"
     x="0.64892429"
     y="46.292225"
     style="fill:#131313;fill-opacity:1;stroke-width:0.339295">з</tspan></text></svg>
