<?xml version="1.0" encoding="UTF-8" standalone="no"?>
<!-- Generator: Adobe Illustrator 22.0.1, SVG Export Plug-In . SVG Version: 6.00 Build 0)  -->

<svg
   version="1.1"
   id="Layer_1"
   x="0px"
   y="0px"
   viewBox="0 0 70 70"
   xml:space="preserve"
   sodipodi:docname="southWind.svg"
   width="70"
   height="70"
   inkscape:version="1.1.1 (3bf5ae0d25, 2021-09-20)"
   xmlns:inkscape="http://www.inkscape.org/namespaces/inkscape"
   xmlns:sodipodi="http://sodipodi.sourceforge.net/DTD/sodipodi-0.dtd"
   xmlns="http://www.w3.org/2000/svg"
   xmlns:svg="http://www.w3.org/2000/svg"><defs
   id="defs7" /><sodipodi:namedview
   id="namedview5"
   pagecolor="#ffffff"
   bordercolor="#666666"
   borderopacity="1.0"
   inkscape:pageshadow="2"
   inkscape:pageopacity="0.0"
   inkscape:pagecheckerboard="0"
   showgrid="false"
   inkscape:zoom="7.1833332"
   inkscape:cx="34.663574"
   inkscape:cy="40.580047"
   inkscape:window-width="2400"
   inkscape:window-height="1321"
   inkscape:window-x="2391"
   inkscape:window-y="-9"
   inkscape:window-maximized="1"
   inkscape:current-layer="Layer_1"
   width="140px" />
<path
   d="m 60.380642,35.338241 c -0.151794,4.443725 -1.433326,8.524561 -3.821487,12.221441 -2.388168,3.696881 -5.554888,6.584062 -9.500176,8.661546 -3.945285,2.077484 -8.188182,3.0334 -12.729445,2.889551 -3.400342,-0.107707 -6.64415,-0.864662 -9.709785,-2.248348 -3.065622,-1.383699 -5.66748,-3.232445 -7.852513,-5.482307 -2.185026,-2.249885 -3.885395,-4.920529 -5.101113,-8.011936 -1.215704,-3.091429 -1.7789413,-6.271207 -1.664359,-9.625789 0.11309,-3.311007 0.892849,-6.470057 2.316148,-9.456081 1.423292,-2.986015 3.324602,-5.542575 5.636081,-7.650008 2.311466,-2.107433 5.05549,-3.765021 8.20892,-4.951722 3.153435,-1.186692 6.419507,-1.7374226 9.842226,-1.629002 3.422726,0.108409 6.688899,0.866076 9.754534,2.249771 3.065626,1.3837 5.689843,3.233146 7.874891,5.483008 2.185037,2.249871 3.863041,4.919806 5.102593,7.968374 1.239573,3.048567 1.757325,6.248713 1.643485,9.581502 z m -5.547945,-0.175739 c 0.176342,-5.16256 -1.59427,-9.710788 -5.334194,-13.645398 -3.741413,-3.891037 -8.2858,-5.91035 -13.677142,-6.08113 -3.534575,-0.111969 -6.852087,0.633402 -9.908547,2.259293 -3.056461,1.625898 -5.551359,3.858352 -7.419096,6.743073 -1.867739,2.884709 -2.871199,6.036676 -2.988769,9.47839 -0.117551,3.441699 0.667912,6.672137 2.334741,9.668823 1.666837,2.99668 3.980896,5.403282 6.942166,7.219803 2.961274,1.816515 6.198375,2.769513 9.732953,2.88147 3.534575,0.111965 6.852087,-0.633408 9.908552,-2.259296 3.056449,-1.625893 5.552106,-3.880141 7.442205,-6.764151 1.890102,-2.88401 2.849569,-6.05917 2.967131,-9.500877 z M 44.328688,22.072957 34.964212,50.364668 c -0.02981,0.217118 -0.14539,0.322486 -0.346743,0.316089 -0.201332,-0.0064 -0.309471,-0.118839 -0.324409,-0.337354 L 26.901888,21.520938 c -0.08131,-0.242453 -0.05298,-0.41601 0.06333,-0.543159 0.116344,-0.127129 0.295283,-0.121483 0.5369,0.01701 l 7.66591,3.077685 c 0.220734,0.09423 0.444441,0.101311 0.648754,0.02055 l 7.926481,-2.583774 c 0.228165,-0.123602 0.38476,-0.118637 0.469783,0.01489 0.085,0.133541 0.167806,0.332411 0.115629,0.548825 z"
   id="path2"
   style="fill:#2c4f54;fill-opacity:0.5;stroke:#2e3332;stroke-width:0.136169;stroke-miterlimit:4;stroke-dasharray:none;stroke-opacity:0.9" />
<path
   style="fill:#1f4347;fill-opacity:0.81;stroke:#e4e7e7;stroke-width:0.136169;stroke-miterlimit:4;stroke-dasharray:none;stroke-opacity:0.9"
   d="m 37.788315,16.360392 c 0.947147,0.118202 1.986159,0.317701 2.878876,0.552753 5.019753,1.321751 9.630852,5.188325 11.909711,9.986729 1.226662,2.582895 1.687133,4.848022 1.596208,7.852015 -0.09322,3.083344 -0.718874,5.414708 -2.14588,7.997626 -0.96182,1.740895 -2.033261,3.116667 -3.552259,4.5612 -3.014542,2.866759 -6.501883,4.585822 -10.619863,5.235019 -0.857579,0.1352 -1.212531,0.149562 -3.074179,0.12438 -2.259691,-0.03059 -2.895409,-0.102069 -4.525234,-0.508782 -2.461523,-0.614318 -5.168767,-1.964077 -7.234321,-3.606859 -0.842536,-0.670081 -2.393373,-2.267568 -3.05069,-3.142467 -1.590854,-2.117398 -2.707504,-4.475523 -3.223393,-6.807164 -0.380448,-1.719402 -0.43192,-2.32907 -0.370765,-4.391125 0.04319,-1.454638 0.09198,-2.070056 0.214343,-2.700229 0.743057,-3.827137 2.720069,-7.343856 5.649446,-10.049233 3.00015,-2.770721 6.783938,-4.547183 10.796409,-5.068831 0.924959,-0.12025 3.893341,-0.142145 4.751601,-0.03505 z m 1.911004,6.757906 c -2.138847,0.729857 -3.96735,1.344476 -4.063333,1.365819 -0.118455,0.02637 -1.451445,-0.445766 -4.15081,-1.470131 -2.288943,-0.868606 -4.033475,-1.492398 -4.111042,-1.469975 -0.160753,0.0465 -0.253138,0.319612 -0.200525,0.592855 0.0209,0.10848 1.680096,6.38617 3.68712,13.950439 3.516996,13.255204 3.656201,13.755805 3.844299,13.824757 0.145378,0.05326 0.223221,0.0452 0.305124,-0.03189 0.13555,-0.12744 9.042819,-27.278155 9.052088,-27.591969 0.0084,-0.283535 -0.184162,-0.574944 -0.35033,-0.530209 -0.06808,0.01841 -1.873745,0.630465 -4.012594,1.360321 z"
   id="path861" /><rect
   style="fill:#c7485e;fill-opacity:1;stroke:#3c4343;stroke-width:0.584681;stroke-opacity:0.9"
   id="rect2803"
   width="6.5353746"
   height="0.073904909"
   x="-38.682102"
   y="-39.365925"
   transform="matrix(-0.99999895,0.00145187,0.0100096,-0.9999499,0,0)"
   inkscape:transform-center-x="-3.5547896"
   inkscape:transform-center-y="-3.68988" /><path
   style="fill:#cd425c;fill-opacity:1;stroke:#e27364;stroke-width:0.0464608;stroke-opacity:0.9"
   d="m 38.066823,39.99439 c -0.03662,0.109426 -0.796617,2.475224 -1.688817,5.257401 -0.892196,2.782173 -1.659022,5.123182 -1.704051,5.202228 -0.07087,0.124374 -2.594735,-10.240559 -2.58,-10.595414 0.0039,-0.09694 0.809881,-0.122942 3.02249,-0.09763 2.821259,0.03228 3.012686,0.04748 2.950375,0.233387 z"
   id="path3397"
   inkscape:transform-center-x="-3.2392228"
   inkscape:transform-center-y="1.9604008" /><text
   xml:space="preserve"
   style="font-size:11.7887px;line-height:1.25;font-family:'Segoe Script';-inkscape-font-specification:'Segoe Script';fill:#16272a;fill-opacity:0.799714;stroke-width:0.294719"
   x="7.9076352"
   y="42.131069"
   id="text17884"
   transform="scale(1.3095343,0.76363026)"><tspan
     sodipodi:role="line"
     id="tspan17882"
     x="7.9076352"
     y="42.131069"
     style="stroke-width:0.294719">_</tspan></text><text
   xml:space="preserve"
   style="font-size:12.6102px;line-height:1.25;font-family:'Segoe Script';-inkscape-font-specification:'Segoe Script';fill:#16272a;fill-opacity:0.799714;stroke-width:0.31525"
   x="37.382763"
   y="44.74802"
   id="text17884-6"
   transform="scale(1.4007692,0.71389348)"><tspan
     sodipodi:role="line"
     id="tspan17882-2"
     x="37.382763"
     y="44.74802"
     style="stroke-width:0.31525">_</tspan></text><text
   xml:space="preserve"
   style="font-size:10.777px;line-height:1.25;font-family:'Segoe Script';-inkscape-font-specification:'Segoe Script';fill:#16272a;fill-opacity:0.799714;stroke-width:0.269424"
   x="-45.539131"
   y="43.611774"
   id="text17884-0"
   transform="matrix(-0.0187151,-1.3369347,0.74723514,-0.0531879,0,0)"><tspan
     sodipodi:role="line"
     id="tspan17882-4"
     x="-45.539131"
     y="43.611774"
     style="stroke-width:0.269424">_</tspan></text><text
   xml:space="preserve"
   style="font-size:11.9615px;line-height:1.25;font-family:'Segoe Script';-inkscape-font-specification:'Segoe Script';fill:#16272a;fill-opacity:0.799714;stroke-width:0.299036"
   x="-13.077158"
   y="44.262768"
   id="text17884-9"
   transform="matrix(5.3192425e-4,-1.2851806,0.77810019,0.00139555,0,0)"><tspan
     sodipodi:role="line"
     id="tspan17882-7"
     x="-13.077158"
     y="44.262768"
     style="stroke-width:0.299036">_</tspan></text><text
   xml:space="preserve"
   style="font-size:15.8974px;line-height:1.25;font-family:'Segoe Script';-inkscape-font-specification:'Segoe Script';fill:#0e0e0e;fill-opacity:1;stroke-width:0.39743"
   x="30.72014"
   y="9.1316395"
   id="text9344"
   transform="scale(1.0073858,0.99266836)"><tspan
     sodipodi:role="line"
     id="tspan9342"
     x="30.72014"
     y="9.1316395"
     style="fill:#0e0e0e;fill-opacity:1;stroke-width:0.39743">c</tspan></text><text
   xml:space="preserve"
   style="font-size:15.2287px;line-height:1.25;font-family:'Segoe Script';-inkscape-font-specification:'Segoe Script';fill:#161616;fill-opacity:1;stroke-width:0.38072"
   x="42.46381"
   y="50.981384"
   id="text19318"
   transform="scale(1.40543,0.711526)"><tspan
     sodipodi:role="line"
     id="tspan19316"
     x="42.46381"
     y="50.981384"
     style="fill:#161616;fill-opacity:1;stroke-width:0.38072">в</tspan></text><text
   xml:space="preserve"
   style="font-size:12.6976px;line-height:1.25;font-family:'Segoe Script';-inkscape-font-specification:'Segoe Script';fill:#151515;fill-opacity:1;stroke-width:0.317436"
   x="32.016403"
   y="60.863861"
   id="text11307"
   transform="scale(0.89658976,1.1153373)"><tspan
     sodipodi:role="line"
     id="tspan11305"
     x="32.016403"
     y="60.863861"
     style="fill:#151515;fill-opacity:1;stroke-width:0.317436">ю</tspan></text><text
   xml:space="preserve"
   style="font-size:14.6241px;line-height:1.25;font-family:'Segoe Script';-inkscape-font-specification:'Segoe Script';fill:#131313;fill-opacity:1;stroke-width:0.365603"
   x="0.099032126"
   y="48.840111"
   id="text16794"
   transform="scale(1.3900002,0.71942436)"><tspan
     sodipodi:role="line"
     id="tspan16792"
     x="0.099032126"
     y="48.840111"
     style="fill:#131313;fill-opacity:1;stroke-width:0.365603">з</tspan></text></svg>
