<?xml version="1.0" encoding="UTF-8" standalone="no"?>
<!-- Generator: Adobe Illustrator 22.0.1, SVG Export Plug-In . SVG Version: 6.00 Build 0)  -->

<svg
   version="1.1"
   id="Layer_1"
   x="0px"
   y="0px"
   viewBox="0 0 70 70"
   xml:space="preserve"
   sodipodi:docname="southWind.svg"
   width="70"
   height="70"
   inkscape:version="1.1.1 (3bf5ae0d25, 2021-09-20)"
   xmlns:inkscape="http://www.inkscape.org/namespaces/inkscape"
   xmlns:sodipodi="http://sodipodi.sourceforge.net/DTD/sodipodi-0.dtd"
   xmlns="http://www.w3.org/2000/svg"
   xmlns:svg="http://www.w3.org/2000/svg"><defs
   id="defs7" /><sodipodi:namedview
   id="namedview5"
   pagecolor="#ffffff"
   bordercolor="#666666"
   borderopacity="1.0"
   inkscape:pageshadow="2"
   inkscape:pageopacity="0.0"
   inkscape:pagecheckerboard="0"
   showgrid="false"
   inkscape:zoom="7.1833332"
   inkscape:cx="34.802785"
   inkscape:cy="40.580047"
   inkscape:window-width="2400"
   inkscape:window-height="1321"
   inkscape:window-x="2391"
   inkscape:window-y="-9"
   inkscape:window-maximized="1"
   inkscape:current-layer="Layer_1"
   width="140px" />
<path
   d="m 60.380642,35.338241 c -0.151794,4.443725 -1.433326,8.524561 -3.821487,12.221441 -2.388168,3.696881 -5.554888,6.584062 -9.500176,8.661546 -3.945285,2.077484 -8.188182,3.0334 -12.729445,2.889551 -3.400342,-0.107707 -6.64415,-0.864662 -9.709785,-2.248348 -3.065622,-1.383699 -5.66748,-3.232445 -7.852513,-5.482307 -2.185026,-2.249885 -3.885395,-4.920529 -5.101113,-8.011936 -1.215704,-3.091429 -1.7789413,-6.271207 -1.664359,-9.625789 0.11309,-3.311007 0.892849,-6.470057 2.316148,-9.456081 1.423292,-2.986015 3.324602,-5.542575 5.636081,-7.650008 2.311466,-2.107433 5.05549,-3.765021 8.20892,-4.951722 3.153435,-1.186692 6.419507,-1.7374226 9.842226,-1.629002 3.422726,0.108409 6.688899,0.866076 9.754534,2.249771 3.065626,1.3837 5.689843,3.233146 7.874891,5.483008 2.185037,2.249871 3.863041,4.919806 5.102593,7.968374 1.239573,3.048567 1.757325,6.248713 1.643485,9.581502 z m -5.547945,-0.175739 c 0.176342,-5.16256 -1.59427,-9.710788 -5.334194,-13.645398 -3.741413,-3.891037 -8.2858,-5.91035 -13.677142,-6.08113 -3.534575,-0.111969 -6.852087,0.633402 -9.908547,2.259293 -3.056461,1.625898 -5.551359,3.858352 -7.419096,6.743073 -1.867739,2.884709 -2.871199,6.036676 -2.988769,9.47839 -0.117551,3.441699 0.667912,6.672137 2.334741,9.668823 1.666837,2.99668 3.980896,5.403282 6.942166,7.219803 2.961274,1.816515 6.198375,2.769513 9.732953,2.88147 3.534575,0.111965 6.852087,-0.633408 9.908552,-2.259296 3.056449,-1.625893 5.552106,-3.880141 7.442205,-6.764151 1.890102,-2.88401 2.849569,-6.05917 2.967131,-9.500877 z M 44.328688,22.072957 34.964212,50.364668 c -0.02981,0.217118 -0.14539,0.322486 -0.346743,0.316089 -0.201332,-0.0064 -0.309471,-0.118839 -0.324409,-0.337354 L 26.901888,21.520938 c -0.08131,-0.242453 -0.05298,-0.41601 0.06333,-0.543159 0.116344,-0.127129 0.295283,-0.121483 0.5369,0.01701 l 7.66591,3.077685 c 0.220734,0.09423 0.444441,0.101311 0.648754,0.02055 l 7.926481,-2.583774 c 0.228165,-0.123602 0.38476,-0.118637 0.469783,0.01489 0.085,0.133541 0.167806,0.332411 0.115629,0.548825 z"
   id="path2"
   style="fill:#2c4f54;fill-opacity:0.5;stroke:#2e3332;stroke-width:0.136169;stroke-miterlimit:4;stroke-dasharray:none;stroke-opacity:0.9" />
<path
   style="fill:#1f4347;fill-opacity:0.81;stroke:#e4e7e7;stroke-width:0.136169;stroke-miterlimit:4;stroke-dasharray:none;stroke-opacity:0.9"
   d="m 37.788315,16.360392 c 0.947147,0.118202 1.986159,0.317701 2.878876,0.552753 5.019753,1.321751 9.630852,5.188325 11.909711,9.986729 1.226662,2.582895 1.687133,4.848022 1.596208,7.852015 -0.09322,3.083344 -0.718874,5.414708 -2.14588,7.997626 -0.96182,1.740895 -2.033261,3.116667 -3.552259,4.5612 -3.014542,2.866759 -6.501883,4.585822 -10.619863,5.235019 -0.857579,0.1352 -1.212531,0.149562 -3.074179,0.12438 -2.259691,-0.03059 -2.895409,-0.102069 -4.525234,-0.508782 -2.461523,-0.614318 -5.168767,-1.964077 -7.234321,-3.606859 -0.842536,-0.670081 -2.393373,-2.267568 -3.05069,-3.142467 -1.590854,-2.117398 -2.707504,-4.475523 -3.223393,-6.807164 -0.380448,-1.719402 -0.43192,-2.32907 -0.370765,-4.391125 0.04319,-1.454638 0.09198,-2.070056 0.214343,-2.700229 0.743057,-3.827137 2.720069,-7.343856 5.649446,-10.049233 3.00015,-2.770721 6.783938,-4.547183 10.796409,-5.068831 0.924959,-0.12025 3.893341,-0.142145 4.751601,-0.03505 z m 1.911004,6.757906 c -2.138847,0.729857 -3.96735,1.344476 -4.063333,1.365819 -0.118455,0.02637 -1.451445,-0.445766 -4.15081,-1.470131 -2.288943,-0.868606 -4.033475,-1.492398 -4.111042,-1.469975 -0.160753,0.0465 -0.253138,0.319612 -0.200525,0.592855 0.0209,0.10848 1.680096,6.38617 3.68712,13.950439 3.516996,13.255204 3.656201,13.755805 3.844299,13.824757 0.145378,0.05326 0.223221,0.0452 0.305124,-0.03189 0.13555,-0.12744 9.042819,-27.278155 9.052088,-27.591969 0.0084,-0.283535 -0.184162,-0.574944 -0.35033,-0.530209 -0.06808,0.01841 -1.873745,0.630465 -4.012594,1.360321 z"
   id="path861" /><rect
   style="fill:#c7485e;fill-opacity:1;stroke:#3c4343;stroke-width:0.584681;stroke-opacity:0.9"
   id="rect2803"
   width="6.5353746"
   height="0.073904909"
   x="-38.682102"
   y="-39.365925"
   transform="matrix(-0.99999895,0.00145187,0.0100096,-0.9999499,0,0)"
   inkscape:transform-center-x="-3.5547896"
   inkscape:transform-center-y="-3.68988" /><path
   style="fill:#cd425c;fill-opacity:1;stroke:#e27364;stroke-width:0.0464608;stroke-opacity:0.9"
   d="m 38.066823,39.99439 c -0.03662,0.109426 -0.796617,2.475224 -1.688817,5.257401 -0.892196,2.782173 -1.659022,5.123182 -1.704051,5.202228 -0.07087,0.124374 -2.594735,-10.240559 -2.58,-10.595414 0.0039,-0.09694 0.809881,-0.122942 3.02249,-0.09763 2.821259,0.03228 3.012686,0.04748 2.950375,0.233387 z"
   id="path3397"
   inkscape:transform-center-x="-3.2392228"
   inkscape:transform-center-y="1.9604008" /><text
   xml:space="preserve"
   style="font-size:11.7887px;line-height:1.25;font-family:'Segoe Script';-inkscape-font-specification:'Segoe Script';fill:#16272a;fill-opacity:0.799714;stroke-width:0.294719"
   x="7.9076352"
   y="42.131069"
   id="text17884"
   transform="scale(1.3095343,0.76363026)"><tspan
     sodipodi:role="line"
     id="tspan17882"
     x="7.9076352"
     y="42.131069"
     style="stroke-width:0.294719">_</tspan></text><text
   xml:space="preserve"
   style="font-size:12.6102px;line-height:1.25;font-family:'Segoe Script';-inkscape-font-specification:'Segoe Script';fill:#16272a;fill-opacity:0.799714;stroke-width:0.31525"
   x="37.382763"
   y="44.74802"
   id="text17884-6"
   transform="scale(1.4007692,0.71389348)"><tspan
     sodipodi:role="line"
     id="tspan17882-2"
     x="37.382763"
     y="44.74802"
     style="stroke-width:0.31525">_</tspan></text><text
   xml:space="preserve"
   style="font-size:10.777px;line-height:1.25;font-family:'Segoe Script';-inkscape-font-specification:'Segoe Script';fill:#16272a;fill-opacity:0.799714;stroke-width:0.269424"
   x="-45.539131"
   y="43.611774"
   id="text17884-0"
   transform="matrix(-0.0187151,-1.3369347,0.74723514,-0.0531879,0,0)"><tspan
     sodipodi:role="line"
     id="tspan17882-4"
     x="-45.539131"
     y="43.611774"
     style="stroke-width:0.269424">_</tspan></text><text
   xml:space="preserve"
   style="font-size:11.9615px;line-height:1.25;font-family:'Segoe Script';-inkscape-font-specification:'Segoe Script';fill:#16272a;fill-opacity:0.799714;stroke-width:0.299036"
   x="-13.077158"
   y="44.262768"
   id="text17884-9"
   transform="matrix(5.3192425e-4,-1.2851806,0.77810019,0.00139555,0,0)"><tspan
     sodipodi:role="line"
     id="tspan17882-7"
     x="-13.077158"
     y="44.262768"
     style="stroke-width:0.299036">_</tspan></text><g
   aria-label="c"
   transform="scale(1.0073858,0.99266836)"
   id="text9344"
   style="font-size:15.8974px;line-height:1.25;font-family:'Segoe Script';-inkscape-font-specification:'Segoe Script';fill:#0e0e0e;stroke-width:0.39743"><path
     d="m 39.592566,5.9180049 q 0,0.2794465 -0.201822,0.5045562 -0.209585,0.232872 -0.364833,0.3958825 -0.155248,0.155248 -0.294971,0.2872089 -0.139724,0.1319608 -0.294972,0.2561593 -0.155248,0.116436 -0.364833,0.271684 -0.589942,0.4269322 -1.125548,0.7219035 -0.535606,0.2872088 -1.040162,0.4735065 -0.504556,0.1785352 -1.00135,0.2561593 -0.489031,0.077624 -0.985825,0.077624 -0.520081,0 -0.931488,-0.1940601 Q 32.575355,8.7668066 32.288146,8.4252609 32.008699,8.0837152 31.861214,7.6334958 31.713728,7.1755141 31.713728,6.670958 v -0.038812 q 0,-0.5123185 0.131961,-1.0867363 0.131961,-0.5821802 0.364833,-1.1643603 0.240634,-0.5821802 0.574417,-1.1410732 0.333784,-0.5666553 0.737429,-1.0556867 0.16301,-0.19406 0.38812,-0.4114073 0.232872,-0.2251097 0.489031,-0.4114073 0.263922,-0.1862977 0.543368,-0.3027337 0.287209,-0.12419844 0.558893,-0.12419844 0.186298,0 0.357071,0.11643604 0.170773,0.1086736 0.318258,0.2872089 0.147486,0.1785352 0.271684,0.4036449 0.124199,0.2173473 0.209585,0.4502193 0.08539,0.2251097 0.131961,0.4346946 0.04657,0.2095848 0.04657,0.3570705 0,0.2251096 -0.139723,0.5821801 -0.139723,0.3570705 -0.333783,0.3570705 -0.279447,0 -0.465744,-0.3803577 -0.06986,-0.1474856 -0.124199,-0.3415457 -0.04657,-0.19406 -0.116436,-0.3803577 -0.0621,-0.1862976 -0.170773,-0.3415457 -0.108673,-0.1630104 -0.302733,-0.2406345 -0.19406,0.046574 -0.395883,0.2018225 -0.19406,0.155248 -0.38812,0.3803577 -0.186298,0.2251097 -0.372595,0.5123186 -0.178535,0.2794464 -0.341546,0.5821801 -0.155248,0.2794465 -0.302734,0.6442794 -0.147485,0.3570705 -0.263921,0.7451906 -0.116436,0.3803578 -0.186298,0.7607155 -0.06986,0.3803577 -0.06986,0.6986162 0,0.2251096 0.108674,0.4579817 0.108674,0.2251097 0.279447,0.4114073 0.178535,0.1862977 0.395882,0.3027337 0.22511,0.1164361 0.457982,0.1164361 1.148835,0 2.282146,-0.4735066 1.133311,-0.4735065 2.157948,-1.3739452 0.566655,-0.4967937 0.939251,-0.4967937 0.108673,0 0.108673,0.2095848 z"
     id="path4774" /></g><g
   aria-label="в"
   transform="scale(1.40543,0.711526)"
   id="text19318"
   style="font-size:15.2287px;line-height:1.25;font-family:'Segoe Script';-inkscape-font-specification:'Segoe Script';fill:#161616;stroke-width:0.38072"><path
     d="m 48.234059,41.426268 q 0,-0.08923 -0.03718,-0.178462 -0.02974,-0.09667 -0.09667,-0.171025 -0.05949,-0.08179 -0.163589,-0.133846 -0.09667,-0.05205 -0.230513,-0.05205 -0.260256,0 -0.542819,0.185897 -0.275128,0.185897 -0.557692,0.513076 -0.275128,0.319743 -0.535384,0.765897 -0.260256,0.438717 -0.483333,0.951793 -0.223077,0.513077 -0.401538,1.078204 -0.171025,0.557692 -0.275128,1.122819 0.06692,-0.04462 0.200769,-0.141282 0.133846,-0.104102 0.297436,-0.230512 0.171025,-0.133846 0.356922,-0.282564 0.193334,-0.156154 0.364359,-0.304871 0.178461,-0.148718 0.327179,-0.282564 0.148718,-0.133846 0.237949,-0.230513 0.825383,-0.892306 1.182306,-1.546664 0.356922,-0.654359 0.356922,-1.063332 z m -0.230512,8.015887 q -0.230513,0.342051 -0.557692,0.66923 -0.319743,0.319744 -0.706409,0.565128 -0.386666,0.245384 -0.825384,0.386666 -0.431281,0.141282 -0.877435,0.104102 -0.312307,-0.02231 -0.594871,-0.200768 -0.282563,-0.185898 -0.498204,-0.520513 -0.215641,-0.342051 -0.342051,-0.832819 -0.12641,-0.490769 -0.12641,-1.130255 0,-0.408974 0.04462,-0.884871 0.04462,-0.483333 0.118974,-0.974101 0.07436,-0.490769 0.16359,-0.95923 0.09667,-0.468461 0.185897,-0.862563 0.118974,-0.535384 0.312307,-1.055896 0.193334,-0.527948 0.431282,-1.011281 0.237948,-0.490769 0.513076,-0.92205 0.275128,-0.431282 0.565128,-0.780769 0.401538,-0.468461 0.914614,-0.751024 0.520512,-0.282564 1.219486,-0.282564 0.289999,0 0.527948,0.118974 0.237948,0.118974 0.408974,0.312307 0.171025,0.185898 0.260256,0.423846 0.09667,0.237949 0.09667,0.468461 0,0.319743 -0.133846,0.713845 -0.12641,0.386667 -0.371794,0.810512 -0.245384,0.423846 -0.594871,0.855127 -0.349487,0.431282 -0.79564,0.83282 0.104102,0.0074 0.237948,0.03718 0.141282,0.02231 0.29,0.08923 0.156154,0.06692 0.312307,0.178461 0.16359,0.111539 0.312308,0.282564 0.06692,0.08179 0.148717,0.223077 0.08179,0.133846 0.148718,0.334615 0.07436,0.193333 0.118974,0.446153 0.05205,0.25282 0.05205,0.557692 0,0.594871 -0.215641,1.286408 -0.208205,0.684102 -0.743589,1.472306 z m -0.208205,-2.736407 q 0,-0.408973 -0.118974,-0.684101 -0.118974,-0.282564 -0.282564,-0.446154 -0.163589,-0.171025 -0.334615,-0.237948 -0.171025,-0.07436 -0.275128,-0.07436 -0.09667,0 -0.304871,0.148718 -0.208205,0.148718 -0.446154,0.327179 -0.178461,0.156154 -0.356922,0.29 -0.178462,0.133846 -0.334615,0.260256 -0.148718,0.12641 -0.275128,0.25282 -0.12641,0.12641 -0.208205,0.267692 -0.208205,0.37923 -0.245384,0.862563 -0.03718,0.483333 -0.03718,0.988973 0,0.334615 0.06692,0.602307 0.07436,0.260256 0.178462,0.446153 0.111538,0.185898 0.237948,0.29 0.12641,0.09667 0.230513,0.09667 0.25282,0 0.572563,-0.104103 0.319743,-0.104102 0.654358,-0.408974 0.29,-0.267692 0.520512,-0.602307 0.237949,-0.334615 0.401538,-0.706409 0.171026,-0.371795 0.260256,-0.773333 0.09667,-0.401538 0.09667,-0.79564 z"
     id="path4795" /></g><g
   aria-label="ю"
   transform="scale(0.89658976,1.1153373)"
   id="text11307"
   style="font-size:12.6976px;line-height:1.25;font-family:'Segoe Script';-inkscape-font-specification:'Segoe Script';fill:#151515;stroke-width:0.317436"><path
     d="m 33.678003,58.303261 q 0,-0.0248 -0.031,-0.0434 -0.0248,-0.0248 -0.062,-0.062 -0.0372,-0.0372 -0.0682,-0.0992 -0.0248,-0.062 -0.0248,-0.1736 0,-0.0992 0.0558,-0.1798 0.0558,-0.0806 0.1178,-0.1488 0.0682,-0.0682 0.124,-0.124 0.062,-0.0558 0.0744,-0.1054 0.1054,-0.5952 0.1798,-1.1222 0.0744,-0.527 0.093,-0.8804 0.0062,-0.1054 0,-0.217 0,-0.1116 -0.0062,-0.2232 -0.0062,-0.0806 -0.0124,-0.155 0,-0.0744 0,-0.1426 0,-0.0744 0.0558,-0.1674 0.0558,-0.093 0.1364,-0.1736 0.0868,-0.0806 0.186,-0.1302 0.1054,-0.0558 0.2046,-0.0558 0.0868,0 0.1736,0.0496 0.0868,0.0434 0.155,0.1302 0.0682,0.0806 0.1116,0.2046 0.0434,0.1178 0.0434,0.2666 0,0.1116 -0.0186,0.2728 -0.0186,0.1612 -0.0496,0.3534 -0.031,0.1922 -0.0744,0.403 -0.0372,0.2108 -0.0744,0.4216 -0.0496,0.2914 -0.0992,0.558 -0.0434,0.2666 -0.0682,0.4588 0.0248,0.0558 0.0434,0.0992 0.0248,0.0372 0.062,0.062 0.0372,0.0248 0.093,0.0372 0.062,0.0124 0.1612,0.0124 0.2666,0 0.5642,-0.0558 0.2976,-0.0558 0.5642,-0.1426 0.2666,-0.0868 0.4774,-0.1798 0.217,-0.0992 0.3224,-0.186 0.0682,-0.0558 0.1488,-0.1488 0.0868,-0.093 0.1736,-0.1984 0.0868,-0.1116 0.1674,-0.217 0.0868,-0.1116 0.1488,-0.1922 0.2108,-0.2666 0.4774,-0.5208 0.2666,-0.2542 0.589,-0.4464 0.3224,-0.1922 0.6944,-0.31 0.3782,-0.1178 0.8184,-0.1178 0.3348,0 0.6572,0.1674 0.3224,0.1612 0.5704,0.4402 0.2542,0.279 0.403,0.6448 0.155,0.3596 0.155,0.7564 0,0.3968 -0.0806,0.7254 -0.0744,0.3224 -0.2418,0.6882 -0.093,0.1922 -0.3224,0.4588 -0.2294,0.2666 -0.5518,0.5518 -0.3162,0.2852 -0.6944,0.5642 -0.3782,0.279 -0.7688,0.5022 -0.3906,0.2232 -0.7688,0.3596 -0.372,0.1364 -0.6758,0.1364 -0.4092,0 -0.7006,-0.1364 -0.2914,-0.1426 -0.4774,-0.3658 -0.186,-0.2294 -0.2728,-0.5208 -0.0868,-0.2914 -0.0868,-0.589 0,-0.2418 0.0682,-0.5828 0.0744,-0.3472 0.248,-0.7006 -0.2356,0.1488 -0.527,0.2356 -0.2852,0.0868 -0.527,0.155 -0.1054,0.031 -0.2356,0.0558 -0.1302,0.0186 -0.2604,0.0372 -0.124,0.0186 -0.2418,0.0372 -0.1116,0.0186 -0.1922,0.031 -0.124,0.0248 -0.1736,0.0992 -0.0434,0.0682 -0.0682,0.1798 -0.0248,0.1054 -0.0744,0.279 -0.0496,0.1736 -0.0992,0.3596 -0.0558,0.1984 -0.1178,0.4092 -0.062,0.2108 -0.1116,0.403 -0.0434,0.186 -0.0806,0.3472 -0.031,0.155 -0.031,0.2418 0,0.0806 -0.0682,0.1736 -0.062,0.093 -0.1488,0.1736 -0.0806,0.0868 -0.1674,0.1426 -0.0806,0.0558 -0.124,0.0558 -0.093,0 -0.1798,-0.062 -0.0806,-0.062 -0.1426,-0.1426 -0.062,-0.0806 -0.0992,-0.1612 -0.0372,-0.0868 -0.0372,-0.1302 0,-0.0558 0.0434,-0.1984 0.0496,-0.1426 0.0992,-0.2914 0.031,-0.093 0.0806,-0.2542 0.0496,-0.1612 0.0992,-0.3534 0.0558,-0.1984 0.1054,-0.4092 0.0558,-0.2108 0.0992,-0.3968 0.0434,-0.186 0.0682,-0.3224 0.0248,-0.1426 0.0248,-0.2046 z m 7.471,-1.4012 q 0,-0.62 -0.3596,-0.9672 -0.3534,-0.3534 -1.0168,-0.3534 -0.093,0 -0.2294,0.0744 -0.1364,0.0744 -0.2976,0.1922 -0.155,0.1116 -0.3162,0.248 -0.155,0.1364 -0.2976,0.2666 -0.1364,0.1302 -0.2356,0.2356 -0.0992,0.1054 -0.1364,0.1488 -0.1302,0.155 -0.2728,0.4278 -0.1364,0.2666 -0.2542,0.5766 -0.1178,0.31 -0.1984,0.6262 -0.0744,0.31 -0.0744,0.5456 0,0.1426 0.0372,0.2914 0.0434,0.1488 0.124,0.2728 0.0868,0.1178 0.217,0.1984 0.1302,0.0744 0.3038,0.0744 0.1922,0 0.4898,-0.1116 0.2976,-0.1116 0.6262,-0.31 0.3348,-0.1984 0.6696,-0.4712 0.341,-0.2728 0.6076,-0.589 0.2728,-0.3162 0.4402,-0.6634 0.1736,-0.3534 0.1736,-0.713 z"
     id="path4816" /></g><g
   aria-label="з"
   transform="scale(1.3900002,0.71942436)"
   id="text16794"
   style="font-size:14.6241px;line-height:1.25;font-family:'Segoe Script';-inkscape-font-specification:'Segoe Script';fill:#131313;stroke-width:0.365603"><path
     d="m 1.1487112,49.411365 q 0.071407,0 0.1142507,0.04998 0.049985,0.04998 0.078547,0.121392 0.028563,0.07855 0.035703,0.171376 0.014281,0.09283 0.014281,0.178517 0,0.164235 0.057125,0.357034 0.064266,0.192798 0.1999388,0.357033 0.1428135,0.164236 0.3641744,0.271346 0.2213609,0.114251 0.5426912,0.114251 0.4355811,0 0.8997249,-0.228502 0.4641438,-0.228502 0.8497401,-0.63552 0.3855964,-0.407018 0.6283793,-0.971132 0.2499236,-0.556972 0.2499236,-1.221055 0,-0.614098 -0.1285321,-1.042538 Q 4.9261275,46.50511 4.719048,46.240906 4.5191091,45.96956 4.2549042,45.848168 3.9906993,45.726777 3.7264944,45.726777 q -0.099969,0 -0.2213609,0.04998 -0.1213915,0.04284 -0.2499236,0.114251 -0.1213915,0.06427 -0.2499236,0.142813 -0.1213914,0.07855 -0.2213609,0.142813 -0.1713761,0.114251 -0.328471,0.192799 -0.1499541,0.07855 -0.3998777,0.07855 -0.1927982,0 -0.3356116,-0.142813 -0.1356728,-0.149955 -0.1356728,-0.392737 0,-0.185658 0.1285321,-0.31419 0.1356728,-0.128532 0.4141591,-0.242783 0.5926759,-0.242783 1.0568197,-0.492706 0.4712844,-0.257065 0.7926147,-0.549832 0.3213304,-0.299909 0.4927065,-0.656942 0.1713762,-0.357034 0.1713762,-0.814037 0,-0.178517 -0.057125,-0.349893 -0.049985,-0.178517 -0.1570948,-0.31419 -0.1071101,-0.142813 -0.2642049,-0.228501 -0.1499542,-0.09283 -0.3498931,-0.09283 -0.4284404,0 -0.8140368,0.264205 -0.3855963,0.264205 -0.7569114,0.649801 -0.1642355,0.171376 -0.2713456,0.249924 -0.1071101,0.07141 -0.2285015,0.07141 -0.09997,0 -0.1785169,-0.04998 -0.071407,-0.05713 -0.1213914,-0.128532 -0.042844,-0.07855 -0.071407,-0.164236 -0.021422,-0.09283 -0.021422,-0.157095 0,-0.171376 0.092829,-0.32133 0.099969,-0.157095 0.2642049,-0.292768 0.3570337,-0.299908 0.699786,-0.492706 0.3427524,-0.192798 0.5641133,-0.285627 0.2499235,-0.09997 0.5141285,-0.192798 0.2713456,-0.09283 0.5069878,-0.09283 0.3356117,0 0.6426606,0.121391 0.307049,0.114251 0.5355506,0.342753 0.2356422,0.221361 0.371315,0.549832 0.1428135,0.328471 0.1428135,0.74263 0,0.599816 -0.2927677,1.192492 -0.2856269,0.592676 -0.9782723,1.149649 0.4784252,0.02142 0.8354589,0.242783 0.3570336,0.22136 0.5926759,0.585535 0.2427829,0.364174 0.3570337,0.842599 0.1213914,0.471285 0.1213914,0.999695 0,0.528409 -0.1428135,1.049679 Q 6.032932,49.25427 5.768727,49.732695 5.5116628,50.21112 5.1474884,50.618139 4.7904547,51.025157 4.3548736,51.325065 3.9264332,51.624974 3.4337267,51.79635 q -0.4855658,0.171376 -0.9996943,0.171376 -0.4927065,0 -0.8568808,-0.164236 Q 1.2129772,51.646396 0.97019432,51.403613 0.73455209,51.16083 0.61316063,50.882343 0.49176918,50.603857 0.49176918,50.368215 q 0,-0.178517 0.0642661,-0.385596 0.0714067,-0.20708 0.15709482,-0.328471 0.0571254,-0.07855 0.1642355,-0.164236 0.1071101,-0.07855 0.27134564,-0.07855 z"
     id="path4753" /></g></svg>
