<?xml version="1.0" encoding="UTF-8" standalone="no"?>
<!-- Generator: Adobe Illustrator 22.0.1, SVG Export Plug-In . SVG Version: 6.00 Build 0)  -->

<svg
   version="1.1"
   id="Layer_1"
   x="0px"
   y="0px"
   viewBox="0 0 70 70"
   xml:space="preserve"
   sodipodi:docname="southwestWind.svg"
   width="70"
   height="70"
   inkscape:version="1.1.1 (3bf5ae0d25, 2021-09-20)"
   xmlns:inkscape="http://www.inkscape.org/namespaces/inkscape"
   xmlns:sodipodi="http://sodipodi.sourceforge.net/DTD/sodipodi-0.dtd"
   xmlns="http://www.w3.org/2000/svg"
   xmlns:svg="http://www.w3.org/2000/svg"><defs
   id="defs7" /><sodipodi:namedview
   id="namedview5"
   pagecolor="#ffffff"
   bordercolor="#666666"
   borderopacity="1.0"
   inkscape:pageshadow="2"
   inkscape:pageopacity="0.0"
   inkscape:pagecheckerboard="0"
   showgrid="false"
   inkscape:zoom="7.1833332"
   inkscape:cx="82.204178"
   inkscape:cy="36.821346"
   inkscape:window-width="2400"
   inkscape:window-height="1321"
   inkscape:window-x="2391"
   inkscape:window-y="-9"
   inkscape:window-maximized="1"
   inkscape:current-layer="Layer_1"
   width="140px" />
<path
   d="m 53.007914,51.734638 c -3.334642,3.030132 -7.214117,5.055611 -11.606599,6.076915 -4.392491,1.021299 -8.754182,0.955976 -13.085092,-0.195978 -4.330904,-1.15195 -8.060509,-3.291393 -11.205181,-6.403468 -2.354622,-2.330219 -4.125915,-5.014074 -5.31474,-8.021361 -1.188805,-3.00729 -1.708191,-6.034757 -1.638155,-9.068484 0.07005,-3.033737 0.79233,-6.042601 2.166817,-9.026596 1.374511,-2.984003 3.279977,-5.597682 5.797301,-7.885145 2.484623,-2.257749 5.335903,-3.966457 8.522003,-5.126612 3.186085,-1.160154 6.402399,-1.700828 9.586121,-1.653146 3.183712,0.04767 6.350327,0.699055 9.468001,1.953614 3.117676,1.254571 5.854243,3.031876 8.224358,5.37743 2.370128,2.34555 4.156906,5.044735 5.345722,8.052029 1.188808,3.007293 1.723685,6.050078 1.653658,9.083812 -0.07004,3.033735 -0.807796,6.027271 -2.134127,8.996887 -1.326323,2.96963 -3.279119,5.567504 -5.780087,7.840103 z m -3.841767,-3.801947 c 3.874058,-3.520301 5.909158,-7.898561 6.089812,-13.150102 0.147957,-5.221831 -1.637409,-9.657311 -5.370726,-13.351941 -2.44757,-2.422211 -5.362245,-4.096489 -8.729385,-4.977335 -3.367145,-0.880844 -6.772857,-0.962046 -10.203389,-0.167912 -3.430528,0.794124 -6.436717,2.349532 -9.019432,4.696401 -2.582692,2.346871 -4.365944,5.143571 -5.348911,8.359908 -0.982957,3.216338 -1.07447,6.446032 -0.274542,9.689076 0.799934,3.243044 2.424102,6.060573 4.871683,8.482778 2.447571,2.422207 5.362249,4.096483 8.729391,4.977335 3.367133,0.880842 6.789209,0.947192 10.235225,0.168384 3.446017,-0.778805 6.437567,-2.379723 9.020274,-4.726592 z M 51.153618,31.746765 23.914594,45.470924 c -0.178946,0.133206 -0.338138,0.130812 -0.477554,-0.0072 -0.139391,-0.137996 -0.135141,-0.288896 0.01281,-0.452752 L 39.086151,19.804366 c 0.117837,-0.224726 0.264106,-0.32822 0.439634,-0.340687 0.175532,-0.01244 0.299458,0.110175 0.371782,0.367934 l 3.250345,7.250627 c 0.08952,0.212725 0.244432,0.366028 0.449243,0.444582 l 7.546854,3.434672 c 0.252977,0.06418 0.361411,0.171501 0.325304,0.321944 -0.03614,0.150439 -0.121264,0.345445 -0.315704,0.463326 z"
   id="path2"
   style="fill:#2c4f54;fill-opacity:0.5;stroke:#2e3332;stroke-width:0.135169;stroke-miterlimit:4;stroke-dasharray:none;stroke-opacity:0.9" />
<path
   style="fill:#1f4347;fill-opacity:0.81;stroke:#e4e7e7;stroke-width:0.135169;stroke-miterlimit:4;stroke-dasharray:none;stroke-opacity:0.9"
   d="m 50.552197,23.519909 c 0.580559,0.719518 1.165964,1.557297 1.622038,2.321297 2.564471,4.296 2.965336,10.083502 1.035368,14.948163 -1.038871,2.618558 -2.383664,4.500854 -4.661696,6.524937 -2.338129,2.077622 -4.497386,3.274897 -7.406934,4.10745 -1.961056,0.561134 -3.730292,0.795034 -5.865702,0.775439 -4.237852,-0.03888 -7.963143,-1.192677 -11.344505,-3.513575 -0.704179,-0.483331 -0.964979,-0.712261 -2.258762,-1.982698 -1.570381,-1.542099 -1.96585,-2.019573 -2.815021,-3.398835 -1.282463,-2.083138 -2.196122,-4.842175 -2.441475,-7.37274 -0.100083,-1.03221 -0.01599,-3.184906 0.165456,-4.234636 0.43907,-2.540535 1.389837,-4.92902 2.744583,-6.894788 0.999001,-1.44961 1.412043,-1.907465 2.974883,-3.297723 1.102509,-0.980699 1.59046,-1.375069 2.14116,-1.730155 3.344397,-2.156574 7.329875,-3.26717 11.38875,-3.173579 4.156924,0.09586 8.133495,1.40933 11.346476,3.747762 0.74066,0.539058 2.84931,2.521692 3.375399,3.173675 z m -3.633431,5.977309 c -2.04565,-0.932881 -3.787598,-1.736883 -3.870988,-1.786666 -0.102935,-0.06142 -0.694647,-1.286316 -1.842567,-3.814172 -0.973393,-2.143504 -1.74344,-3.750657 -1.814645,-3.787297 -0.147592,-0.07591 -0.414,0.0515 -0.57829,0.276581 -0.06523,0.08937 -3.522235,5.563852 -7.682263,12.165537 -7.289805,11.568427 -7.560616,12.009619 -7.478835,12.184079 0.06323,0.134817 0.124042,0.181614 0.238596,0.183223 0.189476,0.0028 26.478529,-12.849502 26.716344,-13.061105 0.214871,-0.191179 0.293912,-0.523054 0.143803,-0.60384 -0.06155,-0.03303 -1.785517,-0.82345 -3.831168,-1.756331 z"
   id="path861" /><rect
   style="fill:#c7485e;fill-opacity:1;stroke:#3c4343;stroke-width:0.580925;stroke-opacity:0.9"
   id="rect2803"
   width="6.3660045"
   height="0.074899301"
   x="-52.558064"
   y="-4.2143149"
   transform="matrix(-0.71543788,-0.69867635,0.74152642,-0.67092367,0,0)"
   inkscape:transform-center-x="-5.2208839"
   inkscape:transform-center-y="-0.11141007" /><path
   style="fill:#cd425c;fill-opacity:1;stroke:#e27364;stroke-width:0.0478871;stroke-opacity:0.9"
   d="m 33.781319,39.968584 c -0.10648,0.05438 -2.385225,1.2528 -5.063892,2.663258 -2.67866,1.410457 -4.944376,2.585716 -5.034912,2.61167 -0.142467,0.04082 5.549628,-9.408699 5.818656,-9.65966 0.07345,-0.06859 0.683222,0.490363 2.286957,2.09624 2.044894,2.04763 2.174181,2.196147 1.993208,2.288469 z"
   id="path3397"
   inkscape:transform-center-x="-1.8308992"
   inkscape:transform-center-y="2.5845767" /><text
   xml:space="preserve"
   style="font-size:11.8121px;line-height:1.25;font-family:'Segoe Script';-inkscape-font-specification:'Segoe Script';fill:#16272a;fill-opacity:0.799714;stroke-width:0.295299"
   x="7.9273763"
   y="42.796024"
   id="text17884"
   transform="scale(1.3320329,0.75073221)"><tspan
     sodipodi:role="line"
     id="tspan17882"
     x="7.9273763"
     y="42.796024"
     style="stroke-width:0.295299">_</tspan></text><text
   xml:space="preserve"
   style="font-size:12.5908px;line-height:1.25;font-family:'Segoe Script';-inkscape-font-specification:'Segoe Script';fill:#16272a;fill-opacity:0.799714;stroke-width:0.31477"
   x="37.12957"
   y="45.299946"
   id="text17884-6"
   transform="scale(1.4198601,0.70429475)"><tspan
     sodipodi:role="line"
     id="tspan17882-2"
     x="37.12957"
     y="45.299946"
     style="stroke-width:0.31477">_</tspan></text><text
   xml:space="preserve"
   style="font-size:10.698px;line-height:1.25;font-family:'Segoe Script';-inkscape-font-specification:'Segoe Script';fill:#16272a;fill-opacity:0.799714;stroke-width:0.267448"
   x="-45.55117"
   y="43.722401"
   id="text17884-0"
   transform="matrix(-0.01885966,-1.3266873,0.75300682,-0.05278021,0,0)"><tspan
     sodipodi:role="line"
     id="tspan17882-4"
     x="-45.55117"
     y="43.722401"
     style="stroke-width:0.267448">_</tspan></text><text
   xml:space="preserve"
   style="font-size:11.7628px;line-height:1.25;font-family:'Segoe Script';-inkscape-font-specification:'Segoe Script';fill:#16272a;fill-opacity:0.799714;stroke-width:0.294068"
   x="-13.45627"
   y="43.946201"
   id="text17884-9"
   transform="matrix(5.4108342e-4,-1.2634258,0.79149819,0.00137192,0,0)"><tspan
     sodipodi:role="line"
     id="tspan17882-7"
     x="-13.45627"
     y="43.946201"
     style="stroke-width:0.294068">_</tspan></text><g
   aria-label="в"
   transform="scale(1.40543,0.711526)"
   id="text19318"
   style="font-size:15.2287px;line-height:1.25;font-family:'Segoe Script';-inkscape-font-specification:'Segoe Script';fill:#161616;stroke-width:0.38072"><path
     d="m 48.630269,41.426268 q 0,-0.08923 -0.03718,-0.178462 -0.02974,-0.09667 -0.09667,-0.171025 -0.05949,-0.08179 -0.163589,-0.133846 -0.09667,-0.05205 -0.230513,-0.05205 -0.260256,0 -0.54282,0.185897 -0.275128,0.185897 -0.557691,0.513076 -0.275128,0.319743 -0.535384,0.765897 -0.260256,0.438717 -0.483333,0.951793 -0.223077,0.513077 -0.401538,1.078204 -0.171026,0.557692 -0.275128,1.122819 0.06692,-0.04462 0.200769,-0.141282 0.133846,-0.104102 0.297436,-0.230512 0.171025,-0.133846 0.356922,-0.282564 0.193333,-0.156154 0.364359,-0.304871 0.178461,-0.148718 0.327179,-0.282564 0.148718,-0.133846 0.237948,-0.230513 0.825384,-0.892306 1.182307,-1.546664 0.356922,-0.654359 0.356922,-1.063332 z m -0.230512,8.015887 q -0.230513,0.342051 -0.557692,0.66923 -0.319743,0.319744 -0.706409,0.565128 -0.386667,0.245384 -0.825384,0.386666 -0.431282,0.141282 -0.877435,0.104102 -0.312307,-0.02231 -0.594871,-0.200768 -0.282564,-0.185898 -0.498205,-0.520513 -0.21564,-0.342051 -0.34205,-0.832819 -0.12641,-0.490769 -0.12641,-1.130255 0,-0.408974 0.04462,-0.884871 0.04462,-0.483333 0.118974,-0.974101 0.07436,-0.490769 0.16359,-0.95923 0.09667,-0.468461 0.185897,-0.862563 0.118974,-0.535384 0.312307,-1.055896 0.193333,-0.527948 0.431282,-1.011281 0.237948,-0.490769 0.513076,-0.92205 0.275128,-0.431282 0.565128,-0.780769 0.401537,-0.468461 0.914614,-0.751024 0.520512,-0.282564 1.219486,-0.282564 0.289999,0 0.527948,0.118974 0.237948,0.118974 0.408973,0.312307 0.171026,0.185898 0.260257,0.423846 0.09667,0.237949 0.09667,0.468461 0,0.319743 -0.133846,0.713845 -0.12641,0.386667 -0.371794,0.810512 -0.245385,0.423846 -0.594871,0.855127 -0.349487,0.431282 -0.79564,0.83282 0.104102,0.0074 0.237948,0.03718 0.141282,0.02231 0.29,0.08923 0.156153,0.06692 0.312307,0.178461 0.16359,0.111539 0.312307,0.282564 0.06692,0.08179 0.148718,0.223077 0.08179,0.133846 0.148718,0.334615 0.07436,0.193333 0.118974,0.446153 0.05205,0.25282 0.05205,0.557692 0,0.594871 -0.215641,1.286408 -0.208204,0.684102 -0.743588,1.472306 z m -0.208205,-2.736407 q 0,-0.408973 -0.118974,-0.684101 -0.118975,-0.282564 -0.282564,-0.446154 -0.16359,-0.171025 -0.334615,-0.237948 -0.171026,-0.07436 -0.275128,-0.07436 -0.09667,0 -0.304872,0.148718 -0.208204,0.148718 -0.446153,0.327179 -0.178461,0.156154 -0.356922,0.29 -0.178462,0.133846 -0.334615,0.260256 -0.148718,0.12641 -0.275128,0.25282 -0.12641,0.12641 -0.208205,0.267692 -0.208205,0.37923 -0.245385,0.862563 -0.03718,0.483333 -0.03718,0.988973 0,0.334615 0.06692,0.602307 0.07436,0.260256 0.178461,0.446153 0.111539,0.185898 0.237949,0.29 0.12641,0.09667 0.230512,0.09667 0.252821,0 0.572564,-0.104103 0.319743,-0.104102 0.654358,-0.408974 0.29,-0.267692 0.520512,-0.602307 0.237949,-0.334615 0.401538,-0.706409 0.171026,-0.371795 0.260256,-0.773333 0.09667,-0.401538 0.09667,-0.79564 z"
     id="path4520" /></g><g
   aria-label="ю"
   transform="scale(0.89658976,1.1153373)"
   id="text11307"
   style="font-size:12.6976px;line-height:1.25;font-family:'Segoe Script';-inkscape-font-specification:'Segoe Script';fill:#151515;stroke-width:0.317436"><path
     d="m 33.522736,58.303261 q 0,-0.0248 -0.031,-0.0434 -0.0248,-0.0248 -0.062,-0.062 -0.0372,-0.0372 -0.0682,-0.0992 -0.0248,-0.062 -0.0248,-0.1736 0,-0.0992 0.0558,-0.1798 0.0558,-0.0806 0.1178,-0.1488 0.0682,-0.0682 0.124,-0.124 0.062,-0.0558 0.0744,-0.1054 0.1054,-0.5952 0.1798,-1.1222 0.0744,-0.527 0.093,-0.8804 0.0062,-0.1054 0,-0.217 0,-0.1116 -0.0062,-0.2232 -0.0062,-0.0806 -0.0124,-0.155 0,-0.0744 0,-0.1426 0,-0.0744 0.0558,-0.1674 0.0558,-0.093 0.1364,-0.1736 0.0868,-0.0806 0.186,-0.1302 0.1054,-0.0558 0.2046,-0.0558 0.0868,0 0.1736,0.0496 0.0868,0.0434 0.155,0.1302 0.0682,0.0806 0.1116,0.2046 0.0434,0.1178 0.0434,0.2666 0,0.1116 -0.0186,0.2728 -0.0186,0.1612 -0.0496,0.3534 -0.031,0.1922 -0.0744,0.403 -0.0372,0.2108 -0.0744,0.4216 -0.0496,0.2914 -0.0992,0.558 -0.0434,0.2666 -0.0682,0.4588 0.0248,0.0558 0.0434,0.0992 0.0248,0.0372 0.062,0.062 0.0372,0.0248 0.093,0.0372 0.062,0.0124 0.1612,0.0124 0.2666,0 0.5642,-0.0558 0.2976,-0.0558 0.5642,-0.1426 0.2666,-0.0868 0.4774,-0.1798 0.217,-0.0992 0.3224,-0.186 0.0682,-0.0558 0.1488,-0.1488 0.0868,-0.093 0.1736,-0.1984 0.0868,-0.1116 0.1674,-0.217 0.0868,-0.1116 0.1488,-0.1922 0.2108,-0.2666 0.4774,-0.5208 0.2666,-0.2542 0.589,-0.4464 0.3224,-0.1922 0.6944,-0.31 0.3782,-0.1178 0.8184,-0.1178 0.3348,0 0.6572,0.1674 0.3224,0.1612 0.5704,0.4402 0.2542,0.279 0.403,0.6448 0.155,0.3596 0.155,0.7564 0,0.3968 -0.0806,0.7254 -0.0744,0.3224 -0.2418,0.6882 -0.093,0.1922 -0.3224,0.4588 -0.2294,0.2666 -0.5518,0.5518 -0.3162,0.2852 -0.6944,0.5642 -0.3782,0.279 -0.7688,0.5022 -0.3906,0.2232 -0.7688,0.3596 -0.372,0.1364 -0.6758,0.1364 -0.4092,0 -0.7006,-0.1364 -0.2914,-0.1426 -0.4774,-0.3658 -0.186,-0.2294 -0.2728,-0.5208 -0.0868,-0.2914 -0.0868,-0.589 0,-0.2418 0.0682,-0.5828 0.0744,-0.3472 0.248,-0.7006 -0.2356,0.1488 -0.527,0.2356 -0.2852,0.0868 -0.527,0.155 -0.1054,0.031 -0.2356,0.0558 -0.1302,0.0186 -0.2604,0.0372 -0.124,0.0186 -0.2418,0.0372 -0.1116,0.0186 -0.1922,0.031 -0.124,0.0248 -0.1736,0.0992 -0.0434,0.0682 -0.0682,0.1798 -0.0248,0.1054 -0.0744,0.279 -0.0496,0.1736 -0.0992,0.3596 -0.0558,0.1984 -0.1178,0.4092 -0.062,0.2108 -0.1116,0.403 -0.0434,0.186 -0.0806,0.3472 -0.031,0.155 -0.031,0.2418 0,0.0806 -0.0682,0.1736 -0.062,0.093 -0.1488,0.1736 -0.0806,0.0868 -0.1674,0.1426 -0.0806,0.0558 -0.124,0.0558 -0.093,0 -0.1798,-0.062 -0.0806,-0.062 -0.1426,-0.1426 -0.062,-0.0806 -0.0992,-0.1612 -0.0372,-0.0868 -0.0372,-0.1302 0,-0.0558 0.0434,-0.1984 0.0496,-0.1426 0.0992,-0.2914 0.031,-0.093 0.0806,-0.2542 0.0496,-0.1612 0.0992,-0.3534 0.0558,-0.1984 0.1054,-0.4092 0.0558,-0.2108 0.0992,-0.3968 0.0434,-0.186 0.0682,-0.3224 0.0248,-0.1426 0.0248,-0.2046 z m 7.471,-1.4012 q 0,-0.62 -0.3596,-0.9672 -0.3534,-0.3534 -1.0168,-0.3534 -0.093,0 -0.2294,0.0744 -0.1364,0.0744 -0.2976,0.1922 -0.155,0.1116 -0.3162,0.248 -0.155,0.1364 -0.2976,0.2666 -0.1364,0.1302 -0.2356,0.2356 -0.0992,0.1054 -0.1364,0.1488 -0.1302,0.155 -0.2728,0.4278 -0.1364,0.2666 -0.2542,0.5766 -0.1178,0.31 -0.1984,0.6262 -0.0744,0.31 -0.0744,0.5456 0,0.1426 0.0372,0.2914 0.0434,0.1488 0.124,0.2728 0.0868,0.1178 0.217,0.1984 0.1302,0.0744 0.3038,0.0744 0.1922,0 0.4898,-0.1116 0.2976,-0.1116 0.6262,-0.31 0.3348,-0.1984 0.6696,-0.4712 0.341,-0.2728 0.6076,-0.589 0.2728,-0.3162 0.4402,-0.6634 0.1736,-0.3534 0.1736,-0.713 z"
     id="path4541" /></g><g
   aria-label="з"
   transform="scale(1.3900002,0.71942436)"
   id="text16794"
   style="font-size:14.6241px;line-height:1.25;font-family:'Segoe Script';-inkscape-font-specification:'Segoe Script';fill:#131313;stroke-width:0.365603"><path
     d="m 1.3490149,46.89582 q 0.071407,0 0.1142508,0.04998 0.049985,0.04998 0.078547,0.121392 0.028563,0.07855 0.035703,0.171376 0.014281,0.09283 0.014281,0.178517 0,0.164235 0.057125,0.357034 0.064266,0.192798 0.1999389,0.357033 0.1428135,0.164236 0.3641743,0.271346 0.2213609,0.114251 0.5426912,0.114251 0.4355811,0 0.8997249,-0.228502 0.4641438,-0.228501 0.8497402,-0.63552 0.3855964,-0.407018 0.6283793,-0.971131 0.2499236,-0.556973 0.2499236,-1.221056 0,-0.614098 -0.1285322,-1.042538 Q 5.1264313,43.989566 4.9193518,43.725361 4.7194129,43.454015 4.455208,43.332624 4.1910031,43.211232 3.9267981,43.211232 q -0.099969,0 -0.2213608,0.04998 -0.1213915,0.04284 -0.2499236,0.114251 -0.1213915,0.06427 -0.2499236,0.142813 -0.1213915,0.07855 -0.2213609,0.142814 -0.1713762,0.11425 -0.328471,0.192798 -0.1499541,0.07855 -0.3998777,0.07855 -0.1927982,0 -0.3356117,-0.142813 Q 1.784596,43.639673 1.784596,43.39689 q 0,-0.185658 0.1285322,-0.31419 0.1356728,-0.128532 0.414159,-0.242783 0.5926759,-0.242783 1.0568197,-0.492706 0.4712845,-0.257065 0.7926148,-0.549832 0.3213303,-0.299909 0.4927065,-0.656942 0.1713762,-0.357034 0.1713762,-0.814037 0,-0.178517 -0.057125,-0.349893 -0.049985,-0.178517 -0.1570948,-0.31419 -0.1071101,-0.142813 -0.264205,-0.228501 -0.1499541,-0.09283 -0.349893,-0.09283 -0.4284404,0 -0.8140368,0.264205 -0.3855964,0.264205 -0.7569114,0.649801 -0.1642355,0.171376 -0.2713456,0.249924 -0.1071101,0.07141 -0.2285016,0.07141 -0.099969,0 -0.1785168,-0.04998 -0.071407,-0.05713 -0.1213914,-0.128532 -0.042844,-0.07855 -0.071407,-0.164236 -0.021422,-0.09283 -0.021422,-0.157095 0,-0.171376 0.092829,-0.32133 0.099969,-0.157095 0.2642049,-0.292768 0.3570337,-0.299908 0.699786,-0.492706 0.3427523,-0.192798 0.5641132,-0.285627 0.2499236,-0.09997 0.5141285,-0.192798 0.2713456,-0.09283 0.5069879,-0.09283 0.3356116,0 0.6426606,0.121392 0.307049,0.11425 0.5355505,0.342752 0.2356423,0.221361 0.3713151,0.549832 0.1428134,0.328471 0.1428134,0.74263 0,0.599816 -0.2927676,1.192492 -0.2856269,0.592676 -0.9782723,1.149649 0.4784251,0.02142 0.8354588,0.242783 0.3570337,0.221361 0.5926759,0.585535 0.242783,0.364174 0.3570337,0.842599 0.1213915,0.471285 0.1213915,0.999695 0,0.52841 -0.1428135,1.049679 -0.1428135,0.521269 -0.4070184,0.999694 -0.2570642,0.478425 -0.6212386,0.885444 -0.3570337,0.407018 -0.7926148,0.706926 -0.4284404,0.299909 -0.9211469,0.471285 -0.4855658,0.171376 -0.9996943,0.171376 -0.4927065,0 -0.8568808,-0.164236 Q 1.413281,49.130851 1.1704981,48.888068 0.93485586,48.645285 0.8134644,48.366799 0.69207295,48.088312 0.69207295,47.85267 q 0,-0.178517 0.0642661,-0.385596 0.0714067,-0.20708 0.15709482,-0.328471 0.0571254,-0.07855 0.16423547,-0.164236 0.1071101,-0.07855 0.2713456,-0.07855 z"
     id="path4562" /></g><g
   aria-label="c"
   transform="scale(1.0073858,0.99266836)"
   id="text9344"
   style="font-size:15.8974px;line-height:1.25;font-family:'Segoe Script';-inkscape-font-specification:'Segoe Script';fill:#0e0e0e;stroke-width:0.39743"><path
     d="m 40.145327,6.1984834 q 0,0.2794465 -0.201822,0.5045562 -0.209585,0.232872 -0.364833,0.3958825 -0.155248,0.155248 -0.294971,0.2872089 -0.139724,0.1319608 -0.294972,0.2561592 -0.155248,0.1164361 -0.364832,0.2716841 -0.589943,0.4269321 -1.125549,0.7219034 -0.535606,0.2872089 -1.040162,0.4735066 -0.504556,0.1785352 -1.00135,0.2561592 -0.489031,0.077624 -0.985825,0.077624 -0.520081,0 -0.931488,-0.1940601 Q 33.128116,9.0472851 32.840907,8.7057393 32.56146,8.3641936 32.413975,7.9139743 32.266489,7.4559926 32.266489,6.9514364 v -0.038812 q 0,-0.5123185 0.131961,-1.0867363 0.131961,-0.5821802 0.364833,-1.1643603 0.240634,-0.5821802 0.574418,-1.1410732 0.333783,-0.5666554 0.737428,-1.0556867 0.16301,-0.1940601 0.38812,-0.4114073 0.232872,-0.2251097 0.489031,-0.4114073 0.263922,-0.1862977 0.543368,-0.3027337 0.287209,-0.1241985 0.558893,-0.1241985 0.186298,0 0.357071,0.1164361 0.170773,0.1086736 0.318258,0.2872089 0.147486,0.1785352 0.271684,0.4036449 0.124199,0.2173472 0.209585,0.4502193 0.08539,0.2251097 0.131961,0.4346945 0.04657,0.2095849 0.04657,0.3570705 0,0.2251097 -0.139724,0.5821802 -0.139723,0.3570705 -0.333783,0.3570705 -0.279446,0 -0.465744,-0.3803577 Q 36.380562,3.6757027 36.326225,3.4816426 36.279651,3.2875825 36.209789,3.1012849 36.14769,2.9149872 36.039017,2.7597392 35.930343,2.5967287 35.736283,2.5191047 35.542223,2.5656791 35.3404,2.7209272 35.14634,2.8761752 34.95228,3.1012849 34.765983,3.3263946 34.579685,3.6136034 34.40115,3.8930499 34.238139,4.1957836 34.082891,4.4752301 33.935406,4.840063 33.78792,5.1971335 33.671484,5.5852536 q -0.116436,0.3803577 -0.186298,0.7607155 -0.06986,0.3803577 -0.06986,0.6986162 0,0.2251096 0.108673,0.4579817 0.108674,0.2251097 0.279447,0.4114073 0.178535,0.1862977 0.395882,0.3027337 0.22511,0.116436 0.457982,0.116436 1.148835,0 2.282146,-0.4735065 1.133311,-0.4735065 2.157948,-1.3739452 0.566655,-0.4967938 0.939251,-0.4967938 0.108673,0 0.108673,0.2095849 z"
     id="path4583" /></g></svg>
