<?xml version="1.0" encoding="UTF-8" standalone="no"?>
<!-- Generator: Adobe Illustrator 22.0.1, SVG Export Plug-In . SVG Version: 6.00 Build 0)  -->

<svg
   version="1.1"
   id="Layer_1"
   x="0px"
   y="0px"
   viewBox="0 0 70 70"
   xml:space="preserve"
   sodipodi:docname="southEastWind.svg"
   width="70"
   height="70"
   inkscape:version="1.1.1 (3bf5ae0d25, 2021-09-20)"
   xmlns:inkscape="http://www.inkscape.org/namespaces/inkscape"
   xmlns:sodipodi="http://sodipodi.sourceforge.net/DTD/sodipodi-0.dtd"
   xmlns="http://www.w3.org/2000/svg"
   xmlns:svg="http://www.w3.org/2000/svg"><defs
   id="defs7" /><sodipodi:namedview
   id="namedview5"
   pagecolor="#ffffff"
   bordercolor="#666666"
   borderopacity="1.0"
   inkscape:pageshadow="2"
   inkscape:pageopacity="0.0"
   inkscape:pagecheckerboard="0"
   showgrid="false"
   inkscape:zoom="2.5396918"
   inkscape:cx="-97.255895"
   inkscape:cy="-8.0718456"
   inkscape:window-width="2400"
   inkscape:window-height="1321"
   inkscape:window-x="2391"
   inkscape:window-y="-9"
   inkscape:window-maximized="1"
   inkscape:current-layer="Layer_1"
   width="140px" />
<path
   d="m 50.456048,15.708194 c 3.502623,2.859791 6.039478,6.373906 7.607293,10.511388 1.56781,4.137485 2.017593,8.380611 1.349347,12.729392 -0.668246,4.34878 -2.420453,8.236903 -5.239441,11.678412 -2.11076,2.576883 -4.653303,4.631498 -7.596554,6.160908 -2.943254,1.529392 -5.986514,2.411331 -9.106031,2.72175 -3.119529,0.3104 -6.290822,-0.01557 -9.513887,-0.977906 -3.223076,-0.962361 -6.129277,-2.486444 -8.773423,-4.645302 -2.609799,-2.130814 -4.699971,-4.686119 -6.267252,-7.634941 -1.567277,-2.948808 -2.502832,-6.004242 -2.831141,-9.101421 -0.328317,-3.097167 -0.03548,-6.253038 0.881741,-9.436632 0.917233,-3.183594 2.415706,-6.062359 4.540359,-8.656199 2.124649,-2.593853 4.68108,-4.665411 7.62434,-6.194816 2.943257,-1.529395 6.00039,-2.428282 9.119912,-2.738712 3.119524,-0.3104192 6.276932,0.0325 9.479548,0.949874 3.202626,0.917359 6.098226,2.489371 8.725189,4.634205 z m -3.443885,4.204403 c -4.069222,-3.322394 -8.800433,-4.752234 -14.20752,-4.272571 -5.372741,0.507698 -9.709985,2.794471 -13.056662,6.880194 -2.194092,2.678605 -3.565802,5.717452 -4.07021,9.096646 -0.504402,3.379198 -0.184167,6.696099 1.036702,9.92791 1.220861,3.231807 3.172173,5.956643 5.884989,8.171584 2.712816,2.214918 5.792233,3.597507 9.207186,4.150717 3.414955,0.553201 6.737987,0.239189 9.969092,-0.94203 3.231105,-1.181226 5.928167,-3.109666 8.122254,-5.788281 2.194089,-2.678607 3.565798,-5.717454 4.070209,-9.096651 0.504398,-3.37919 0.166995,-6.710124 -1.039991,-9.958883 -1.206986,-3.248759 -3.203233,-5.953704 -5.916049,-8.168635 z m -16.83484,0.08927 17.302008,24.735761 c 0.157811,0.157134 0.17422,0.311998 0.04921,0.464578 -0.125019,0.152544 -0.280265,0.167251 -0.465834,0.04404 L 19.35964,33.208431 c -0.244428,-0.08638 -0.367895,-0.215492 -0.401477,-0.384365 -0.03355,-0.168881 0.07751,-0.3045 0.333282,-0.406877 l 7.050727,-4.060347 c 0.207551,-0.113456 0.346418,-0.282989 0.402712,-0.491647 l 2.628248,-7.756044 c 0.03586,-0.253633 0.133061,-0.372302 0.291626,-0.356009 0.158564,0.01631 0.368638,0.07465 0.512567,0.248739 z"
   id="path2"
   style="fill:#2c4f54;fill-opacity:0.5;stroke:#2e3332;stroke-width:0.135879;stroke-miterlimit:4;stroke-dasharray:none;stroke-opacity:0.9" />
<path
   style="fill:#2d6166;fill-opacity:0.81;stroke:#e4e7e7;stroke-width:0.135879;stroke-miterlimit:4;stroke-dasharray:none;stroke-opacity:0.9"
   d="m 21.84957,21.552797 c 0.664701,-0.657916 1.449977,-1.336096 2.17582,-1.879098 4.081457,-3.053266 9.961687,-4.203844 15.187673,-2.971755 2.813052,0.66322 4.909912,1.720118 7.26872,3.663722 2.421186,1.994862 3.917929,3.932057 5.134746,6.645133 0.820128,1.828633 1.280964,3.514245 1.527829,5.588455 0.489916,4.116391 -0.226666,7.882267 -2.182159,11.468087 -0.407233,0.746759 -0.609208,1.029898 -1.749269,2.452242 -1.383863,1.72642 -1.823674,2.172927 -3.130827,3.178257 -1.974234,1.518318 -4.687158,2.767803 -7.24951,3.338872 -1.045172,0.232943 -3.261513,0.434665 -4.359831,0.396803 -2.658123,-0.09159 -5.224412,-0.699624 -7.408047,-1.755194 -1.610274,-0.778383 -2.131062,-1.118829 -3.750996,-2.452021 -1.142725,-0.940509 -1.607828,-1.361981 -2.040517,-1.849505 -2.627876,-2.960683 -4.264093,-6.68096 -4.675575,-10.630924 -0.421411,-4.045384 0.427371,-8.076048 2.421873,-11.500824 0.459778,-0.789483 2.227751,-3.096085 2.830062,-3.692269 z m 6.579038,2.73824 c -0.700189,2.107329 -1.306276,3.903061 -1.346866,3.990513 -0.05007,0.107944 -1.231227,0.843188 -3.677975,2.289512 -2.074728,1.226425 -3.625288,2.184989 -3.653928,2.258889 -0.05934,0.153175 0.104514,0.394857 0.355695,0.524618 0.09973,0.0515 6.141477,2.684782 13.426127,5.851719 12.765226,5.549569 13.251156,5.754227 13.419705,5.651931 0.130234,-0.07909 0.17059,-0.14424 0.157904,-0.255594 C 47.08841,44.418443 30.632638,20.60605 30.386086,20.403189 c -0.222763,-0.183293 -0.572708,-0.216295 -0.636723,-0.06004 -0.02616,0.06406 -0.620571,1.840563 -1.320757,3.947889 z"
   id="path861" /><rect
   style="fill:#c7485e;fill-opacity:1;stroke:#3c4343;stroke-width:0.56838;stroke-opacity:0.9"
   id="rect2803"
   width="6.2322507"
   height="0.073237129"
   x="3.4578619"
   y="-53.649239"
   transform="matrix(-0.60534397,0.79596399,-0.79317298,-0.60899641,0,0)"
   inkscape:transform-center-x="0.86562325"
   inkscape:transform-center-y="-4.8941127" /><path
   style="fill:#cd425e;fill-opacity:1;stroke:#e27364;stroke-width:0.0457193;stroke-opacity:0.9"
   d="m 40.917899,35.985925 c 0.06524,0.09344 1.494521,2.08866 3.176257,4.433823 1.681738,2.345158 3.087353,4.331068 3.123586,4.413119 0.057,0.129126 -9.639756,-4.025069 -9.912385,-4.246555 -0.0745,-0.06048 0.377793,-0.70741 1.696227,-2.426374 1.681114,-2.191824 1.805488,-2.33285 1.916292,-2.174027 z"
   id="path3397"
   inkscape:transform-center-x="-2.4947084"
   inkscape:transform-center-y="-2.336461" /><text
   xml:space="preserve"
   style="font-size:12.0183px;line-height:1.25;font-family:'Segoe Script';-inkscape-font-specification:'Segoe Script';fill:#16272a;fill-opacity:0.799714;stroke-width:0.300455"
   x="7.7671309"
   y="42.557743"
   id="text17884"
   transform="scale(1.3139619,0.76105708)"><tspan
     sodipodi:role="line"
     id="tspan17882"
     x="7.7671309"
     y="42.557743"
     style="stroke-width:0.300455">_</tspan></text><text
   xml:space="preserve"
   style="font-size:12.2418px;line-height:1.25;font-family:'Segoe Script';-inkscape-font-specification:'Segoe Script';fill:#16272a;fill-opacity:0.799714;stroke-width:0.306039"
   x="38.586926"
   y="43.039879"
   id="text17884-6"
   transform="scale(1.3383884,0.74716725)"><tspan
     sodipodi:role="line"
     id="tspan17882-2"
     x="38.586926"
     y="43.039879"
     style="stroke-width:0.306039">_</tspan></text><text
   xml:space="preserve"
   style="font-size:10.7541px;line-height:1.25;font-family:'Segoe Script';-inkscape-font-specification:'Segoe Script';fill:#16272a;fill-opacity:0.799714;stroke-width:0.268852"
   x="-45.241413"
   y="44.004906"
   id="text17884-0"
   transform="matrix(-0.01838052,-1.3612715,0.73387607,-0.05415612,0,0)"><tspan
     sodipodi:role="line"
     id="tspan17882-4"
     x="-45.241413"
     y="44.004906"
     style="stroke-width:0.268852">_</tspan></text><text
   xml:space="preserve"
   style="font-size:12.1364px;line-height:1.25;font-family:'Segoe Script';-inkscape-font-specification:'Segoe Script';fill:#16272a;fill-opacity:0.799714;stroke-width:0.303406"
   x="-12.594753"
   y="45.379044"
   id="text17884-9"
   transform="matrix(5.1379084e-4,-1.330539,0.75157457,0.00144482,0,0)"><tspan
     sodipodi:role="line"
     id="tspan17882-7"
     x="-12.594753"
     y="45.379044"
     style="stroke-width:0.303406">_</tspan></text><text
   xml:space="preserve"
   style="font-size:15.8974px;line-height:1.25;font-family:'Segoe Script';-inkscape-font-specification:'Segoe Script';fill:#0e0e0e;fill-opacity:1;stroke-width:0.39743"
   x="31.026276"
   y="9.0412312"
   id="text9344"
   transform="scale(1.0073858,0.99266836)"><tspan
     sodipodi:role="line"
     id="tspan9342"
     x="31.026276"
     y="9.0412312"
     style="fill:#0e0e0e;fill-opacity:1;stroke-width:0.39743">c</tspan></text><text
   xml:space="preserve"
   style="font-size:15.2287px;line-height:1.25;font-family:'Segoe Script';-inkscape-font-specification:'Segoe Script';fill:#161616;fill-opacity:1;stroke-width:0.38072"
   x="42.474178"
   y="51.602322"
   id="text19318"
   transform="scale(1.40543,0.711526)"
   inkscape:transform-center-x="-0.78749713"
   inkscape:transform-center-y="13.7812"><tspan
     sodipodi:role="line"
     id="tspan19316"
     x="42.474178"
     y="51.602322"
     style="fill:#161616;fill-opacity:1;stroke-width:0.38072">в</tspan></text><text
   xml:space="preserve"
   style="font-size:12.6976px;line-height:1.25;font-family:'Segoe Script';-inkscape-font-specification:'Segoe Script';fill:#151515;fill-opacity:1;stroke-width:0.317436"
   x="31.990089"
   y="61.272789"
   id="text11307"
   transform="scale(0.89658976,1.1153373)"
   inkscape:transform-center-x="4.5281085"
   inkscape:transform-center-y="-0.39374856"><tspan
     sodipodi:role="line"
     id="tspan11305"
     x="31.990089"
     y="61.272789"
     style="fill:#151515;fill-opacity:1;stroke-width:0.317436">ю</tspan></text><text
   xml:space="preserve"
   style="font-size:14.6241px;line-height:1.25;font-family:'Segoe Script';-inkscape-font-specification:'Segoe Script';fill:#131313;fill-opacity:1;stroke-width:0.365603"
   x="0.23477191"
   y="48.647011"
   id="text16794"
   transform="scale(1.3900002,0.71942436)"><tspan
     sodipodi:role="line"
     id="tspan16792"
     x="0.23477191"
     y="48.647011"
     style="fill:#131313;fill-opacity:1;stroke-width:0.365603">з</tspan></text></svg>
