<?xml version="1.0" encoding="UTF-8" standalone="no"?>
<!-- Generator: Adobe Illustrator 22.0.1, SVG Export Plug-In . SVG Version: 6.00 Build 0)  -->

<svg
   version="1.1"
   id="Layer_1"
   x="0px"
   y="0px"
   viewBox="0 0 70 70"
   xml:space="preserve"
   sodipodi:docname="southwestWind.svg"
   width="70"
   height="70"
   inkscape:version="1.1.1 (3bf5ae0d25, 2021-09-20)"
   xmlns:inkscape="http://www.inkscape.org/namespaces/inkscape"
   xmlns:sodipodi="http://sodipodi.sourceforge.net/DTD/sodipodi-0.dtd"
   xmlns="http://www.w3.org/2000/svg"
   xmlns:svg="http://www.w3.org/2000/svg"><defs
   id="defs7" /><sodipodi:namedview
   id="namedview5"
   pagecolor="#ffffff"
   bordercolor="#666666"
   borderopacity="1.0"
   inkscape:pageshadow="2"
   inkscape:pageopacity="0.0"
   inkscape:pagecheckerboard="0"
   showgrid="false"
   inkscape:zoom="7.1833332"
   inkscape:cx="24.083527"
   inkscape:cy="36.821346"
   inkscape:window-width="2400"
   inkscape:window-height="1321"
   inkscape:window-x="2391"
   inkscape:window-y="-9"
   inkscape:window-maximized="1"
   inkscape:current-layer="Layer_1"
   width="140px" />
<path
   d="m 53.007914,51.734638 c -3.334642,3.030132 -7.214117,5.055611 -11.606599,6.076915 -4.392491,1.021299 -8.754182,0.955976 -13.085092,-0.195978 -4.330904,-1.15195 -8.060509,-3.291393 -11.205181,-6.403468 -2.354622,-2.330219 -4.125915,-5.014074 -5.31474,-8.021361 -1.188805,-3.00729 -1.708191,-6.034757 -1.638155,-9.068484 0.07005,-3.033737 0.79233,-6.042601 2.166817,-9.026596 1.374511,-2.984003 3.279977,-5.597682 5.797301,-7.885145 2.484623,-2.257749 5.335903,-3.966457 8.522003,-5.126612 3.186085,-1.160154 6.402399,-1.700828 9.586121,-1.653146 3.183712,0.04767 6.350327,0.699055 9.468001,1.953614 3.117676,1.254571 5.854243,3.031876 8.224358,5.37743 2.370128,2.34555 4.156906,5.044735 5.345722,8.052029 1.188808,3.007293 1.723685,6.050078 1.653658,9.083812 -0.07004,3.033735 -0.807796,6.027271 -2.134127,8.996887 -1.326323,2.96963 -3.279119,5.567504 -5.780087,7.840103 z m -3.841767,-3.801947 c 3.874058,-3.520301 5.909158,-7.898561 6.089812,-13.150102 0.147957,-5.221831 -1.637409,-9.657311 -5.370726,-13.351941 -2.44757,-2.422211 -5.362245,-4.096489 -8.729385,-4.977335 -3.367145,-0.880844 -6.772857,-0.962046 -10.203389,-0.167912 -3.430528,0.794124 -6.436717,2.349532 -9.019432,4.696401 -2.582692,2.346871 -4.365944,5.143571 -5.348911,8.359908 -0.982957,3.216338 -1.07447,6.446032 -0.274542,9.689076 0.799934,3.243044 2.424102,6.060573 4.871683,8.482778 2.447571,2.422207 5.362249,4.096483 8.729391,4.977335 3.367133,0.880842 6.789209,0.947192 10.235225,0.168384 3.446017,-0.778805 6.437567,-2.379723 9.020274,-4.726592 z M 51.153618,31.746765 23.914594,45.470924 c -0.178946,0.133206 -0.338138,0.130812 -0.477554,-0.0072 -0.139391,-0.137996 -0.135141,-0.288896 0.01281,-0.452752 L 39.086151,19.804366 c 0.117837,-0.224726 0.264106,-0.32822 0.439634,-0.340687 0.175532,-0.01244 0.299458,0.110175 0.371782,0.367934 l 3.250345,7.250627 c 0.08952,0.212725 0.244432,0.366028 0.449243,0.444582 l 7.546854,3.434672 c 0.252977,0.06418 0.361411,0.171501 0.325304,0.321944 -0.03614,0.150439 -0.121264,0.345445 -0.315704,0.463326 z"
   id="path2"
   style="fill:#2c4f54;fill-opacity:0.5;stroke:#2e3332;stroke-width:0.135169;stroke-miterlimit:4;stroke-dasharray:none;stroke-opacity:0.9" />
<path
   style="fill:#1f4347;fill-opacity:0.81;stroke:#e4e7e7;stroke-width:0.135169;stroke-miterlimit:4;stroke-dasharray:none;stroke-opacity:0.9"
   d="m 50.552197,23.519909 c 0.580559,0.719518 1.165964,1.557297 1.622038,2.321297 2.564471,4.296 2.965336,10.083502 1.035368,14.948163 -1.038871,2.618558 -2.383664,4.500854 -4.661696,6.524937 -2.338129,2.077622 -4.497386,3.274897 -7.406934,4.10745 -1.961056,0.561134 -3.730292,0.795034 -5.865702,0.775439 -4.237852,-0.03888 -7.963143,-1.192677 -11.344505,-3.513575 -0.704179,-0.483331 -0.964979,-0.712261 -2.258762,-1.982698 -1.570381,-1.542099 -1.96585,-2.019573 -2.815021,-3.398835 -1.282463,-2.083138 -2.196122,-4.842175 -2.441475,-7.37274 -0.100083,-1.03221 -0.01599,-3.184906 0.165456,-4.234636 0.43907,-2.540535 1.389837,-4.92902 2.744583,-6.894788 0.999001,-1.44961 1.412043,-1.907465 2.974883,-3.297723 1.102509,-0.980699 1.59046,-1.375069 2.14116,-1.730155 3.344397,-2.156574 7.329875,-3.26717 11.38875,-3.173579 4.156924,0.09586 8.133495,1.40933 11.346476,3.747762 0.74066,0.539058 2.84931,2.521692 3.375399,3.173675 z m -3.633431,5.977309 c -2.04565,-0.932881 -3.787598,-1.736883 -3.870988,-1.786666 -0.102935,-0.06142 -0.694647,-1.286316 -1.842567,-3.814172 -0.973393,-2.143504 -1.74344,-3.750657 -1.814645,-3.787297 -0.147592,-0.07591 -0.414,0.0515 -0.57829,0.276581 -0.06523,0.08937 -3.522235,5.563852 -7.682263,12.165537 -7.289805,11.568427 -7.560616,12.009619 -7.478835,12.184079 0.06323,0.134817 0.124042,0.181614 0.238596,0.183223 0.189476,0.0028 26.478529,-12.849502 26.716344,-13.061105 0.214871,-0.191179 0.293912,-0.523054 0.143803,-0.60384 -0.06155,-0.03303 -1.785517,-0.82345 -3.831168,-1.756331 z"
   id="path861" /><rect
   style="fill:#c7485e;fill-opacity:1;stroke:#3c4343;stroke-width:0.580925;stroke-opacity:0.9"
   id="rect2803"
   width="6.3660045"
   height="0.074899301"
   x="-52.558064"
   y="-4.2143149"
   transform="matrix(-0.71543788,-0.69867635,0.74152642,-0.67092367,0,0)"
   inkscape:transform-center-x="-5.2208839"
   inkscape:transform-center-y="-0.11141007" /><path
   style="fill:#cd425c;fill-opacity:1;stroke:#e27364;stroke-width:0.0478871;stroke-opacity:0.9"
   d="m 33.781319,39.968584 c -0.10648,0.05438 -2.385225,1.2528 -5.063892,2.663258 -2.67866,1.410457 -4.944376,2.585716 -5.034912,2.61167 -0.142467,0.04082 5.549628,-9.408699 5.818656,-9.65966 0.07345,-0.06859 0.683222,0.490363 2.286957,2.09624 2.044894,2.04763 2.174181,2.196147 1.993208,2.288469 z"
   id="path3397"
   inkscape:transform-center-x="-1.8308992"
   inkscape:transform-center-y="2.5845767" /><text
   xml:space="preserve"
   style="font-size:11.8121px;line-height:1.25;font-family:'Segoe Script';-inkscape-font-specification:'Segoe Script';fill:#16272a;fill-opacity:0.799714;stroke-width:0.295299"
   x="7.9273763"
   y="42.796024"
   id="text17884"
   transform="scale(1.3320329,0.75073221)"><tspan
     sodipodi:role="line"
     id="tspan17882"
     x="7.9273763"
     y="42.796024"
     style="stroke-width:0.295299">_</tspan></text><text
   xml:space="preserve"
   style="font-size:12.5908px;line-height:1.25;font-family:'Segoe Script';-inkscape-font-specification:'Segoe Script';fill:#16272a;fill-opacity:0.799714;stroke-width:0.31477"
   x="37.12957"
   y="45.299946"
   id="text17884-6"
   transform="scale(1.4198601,0.70429475)"><tspan
     sodipodi:role="line"
     id="tspan17882-2"
     x="37.12957"
     y="45.299946"
     style="stroke-width:0.31477">_</tspan></text><text
   xml:space="preserve"
   style="font-size:10.698px;line-height:1.25;font-family:'Segoe Script';-inkscape-font-specification:'Segoe Script';fill:#16272a;fill-opacity:0.799714;stroke-width:0.267448"
   x="-45.55117"
   y="43.722401"
   id="text17884-0"
   transform="matrix(-0.01885966,-1.3266873,0.75300682,-0.05278021,0,0)"><tspan
     sodipodi:role="line"
     id="tspan17882-4"
     x="-45.55117"
     y="43.722401"
     style="stroke-width:0.267448">_</tspan></text><text
   xml:space="preserve"
   style="font-size:11.7628px;line-height:1.25;font-family:'Segoe Script';-inkscape-font-specification:'Segoe Script';fill:#16272a;fill-opacity:0.799714;stroke-width:0.294068"
   x="-13.45627"
   y="43.946201"
   id="text17884-9"
   transform="matrix(5.4108342e-4,-1.2634258,0.79149819,0.00137192,0,0)"><tspan
     sodipodi:role="line"
     id="tspan17882-7"
     x="-13.45627"
     y="43.946201"
     style="stroke-width:0.294068">_</tspan></text><text
   xml:space="preserve"
   style="font-size:15.2287px;line-height:1.25;font-family:'Segoe Script';-inkscape-font-specification:'Segoe Script';fill:#161616;fill-opacity:1;stroke-width:0.38072"
   x="42.86002"
   y="50.981384"
   id="text19318"
   transform="scale(1.40543,0.711526)"><tspan
     sodipodi:role="line"
     id="tspan19316"
     x="42.86002"
     y="50.981384"
     style="fill:#161616;fill-opacity:1;stroke-width:0.38072">в</tspan></text><text
   xml:space="preserve"
   style="font-size:12.6976px;line-height:1.25;font-family:'Segoe Script';-inkscape-font-specification:'Segoe Script';fill:#151515;fill-opacity:1;stroke-width:0.317436"
   x="31.861135"
   y="60.863861"
   id="text11307"
   transform="scale(0.89658976,1.1153373)"><tspan
     sodipodi:role="line"
     id="tspan11305"
     x="31.861135"
     y="60.863861"
     style="fill:#151515;fill-opacity:1;stroke-width:0.317436">ю</tspan></text><text
   xml:space="preserve"
   style="font-size:14.6241px;line-height:1.25;font-family:'Segoe Script';-inkscape-font-specification:'Segoe Script';fill:#131313;fill-opacity:1;stroke-width:0.365603"
   x="0.2993359"
   y="46.324566"
   id="text16794"
   transform="scale(1.3900002,0.71942436)"><tspan
     sodipodi:role="line"
     id="tspan16792"
     x="0.2993359"
     y="46.324566"
     style="fill:#131313;fill-opacity:1;stroke-width:0.365603">з</tspan></text><text
   xml:space="preserve"
   style="font-size:15.8974px;line-height:1.25;font-family:'Segoe Script';-inkscape-font-specification:'Segoe Script';fill:#0e0e0e;fill-opacity:1;stroke-width:0.39743"
   x="31.272902"
   y="9.412118"
   id="text9344"
   transform="scale(1.0073858,0.99266836)"><tspan
     sodipodi:role="line"
     id="tspan9342"
     x="31.272902"
     y="9.412118"
     style="fill:#0e0e0e;fill-opacity:1;stroke-width:0.39743">c</tspan></text></svg>
