<?xml version="1.0" encoding="UTF-8" standalone="no"?>
<!-- Generator: Adobe Illustrator 22.0.1, SVG Export Plug-In . SVG Version: 6.00 Build 0)  -->

<svg
   version="1.1"
   id="Layer_1"
   x="0px"
   y="0px"
   viewBox="0 0 70 70"
   xml:space="preserve"
   sodipodi:docname="southEastWind.svg"
   width="70"
   height="70"
   inkscape:version="1.1.1 (3bf5ae0d25, 2021-09-20)"
   xmlns:inkscape="http://www.inkscape.org/namespaces/inkscape"
   xmlns:sodipodi="http://sodipodi.sourceforge.net/DTD/sodipodi-0.dtd"
   xmlns="http://www.w3.org/2000/svg"
   xmlns:svg="http://www.w3.org/2000/svg"><defs
   id="defs7" /><sodipodi:namedview
   id="namedview5"
   pagecolor="#ffffff"
   bordercolor="#666666"
   borderopacity="1.0"
   inkscape:pageshadow="2"
   inkscape:pageopacity="0.0"
   inkscape:pagecheckerboard="0"
   showgrid="false"
   inkscape:zoom="10.158767"
   inkscape:cx="13.485888"
   inkscape:cy="45.920926"
   inkscape:window-width="2400"
   inkscape:window-height="1321"
   inkscape:window-x="2391"
   inkscape:window-y="-9"
   inkscape:window-maximized="1"
   inkscape:current-layer="Layer_1"
   width="140px" />
<path
   d="m 50.456048,15.708194 c 3.502623,2.859791 6.039478,6.373906 7.607293,10.511388 1.56781,4.137485 2.017593,8.380611 1.349347,12.729392 -0.668246,4.34878 -2.420453,8.236903 -5.239441,11.678412 -2.11076,2.576883 -4.653303,4.631498 -7.596554,6.160908 -2.943254,1.529392 -5.986514,2.411331 -9.106031,2.72175 -3.119529,0.3104 -6.290822,-0.01557 -9.513887,-0.977906 -3.223076,-0.962361 -6.129277,-2.486444 -8.773423,-4.645302 -2.609799,-2.130814 -4.699971,-4.686119 -6.267252,-7.634941 -1.567277,-2.948808 -2.502832,-6.004242 -2.831141,-9.101421 -0.328317,-3.097167 -0.03548,-6.253038 0.881741,-9.436632 0.917233,-3.183594 2.415706,-6.062359 4.540359,-8.656199 2.124649,-2.593853 4.68108,-4.665411 7.62434,-6.194816 2.943257,-1.529395 6.00039,-2.428282 9.119912,-2.738712 3.119524,-0.3104192 6.276932,0.0325 9.479548,0.949874 3.202626,0.917359 6.098226,2.489371 8.725189,4.634205 z m -3.443885,4.204403 c -4.069222,-3.322394 -8.800433,-4.752234 -14.20752,-4.272571 -5.372741,0.507698 -9.709985,2.794471 -13.056662,6.880194 -2.194092,2.678605 -3.565802,5.717452 -4.07021,9.096646 -0.504402,3.379198 -0.184167,6.696099 1.036702,9.92791 1.220861,3.231807 3.172173,5.956643 5.884989,8.171584 2.712816,2.214918 5.792233,3.597507 9.207186,4.150717 3.414955,0.553201 6.737987,0.239189 9.969092,-0.94203 3.231105,-1.181226 5.928167,-3.109666 8.122254,-5.788281 2.194089,-2.678607 3.565798,-5.717454 4.070209,-9.096651 0.504398,-3.37919 0.166995,-6.710124 -1.039991,-9.958883 -1.206986,-3.248759 -3.203233,-5.953704 -5.916049,-8.168635 z m -16.83484,0.08927 17.302008,24.735761 c 0.157811,0.157134 0.17422,0.311998 0.04921,0.464578 -0.125019,0.152544 -0.280265,0.167251 -0.465834,0.04404 L 19.35964,33.208431 c -0.244428,-0.08638 -0.367895,-0.215492 -0.401477,-0.384365 -0.03355,-0.168881 0.07751,-0.3045 0.333282,-0.406877 l 7.050727,-4.060347 c 0.207551,-0.113456 0.346418,-0.282989 0.402712,-0.491647 l 2.628248,-7.756044 c 0.03586,-0.253633 0.133061,-0.372302 0.291626,-0.356009 0.158564,0.01631 0.368638,0.07465 0.512567,0.248739 z"
   id="path2"
   style="fill:#2c4f54;fill-opacity:0.5;stroke:#2e3332;stroke-width:0.135879;stroke-miterlimit:4;stroke-dasharray:none;stroke-opacity:0.9" />
<path
   style="fill:#2d6166;fill-opacity:0.81;stroke:#e4e7e7;stroke-width:0.135879;stroke-miterlimit:4;stroke-dasharray:none;stroke-opacity:0.9"
   d="m 21.84957,21.552797 c 0.664701,-0.657916 1.449977,-1.336096 2.17582,-1.879098 4.081457,-3.053266 9.961687,-4.203844 15.187673,-2.971755 2.813052,0.66322 4.909912,1.720118 7.26872,3.663722 2.421186,1.994862 3.917929,3.932057 5.134746,6.645133 0.820128,1.828633 1.280964,3.514245 1.527829,5.588455 0.489916,4.116391 -0.226666,7.882267 -2.182159,11.468087 -0.407233,0.746759 -0.609208,1.029898 -1.749269,2.452242 -1.383863,1.72642 -1.823674,2.172927 -3.130827,3.178257 -1.974234,1.518318 -4.687158,2.767803 -7.24951,3.338872 -1.045172,0.232943 -3.261513,0.434665 -4.359831,0.396803 -2.658123,-0.09159 -5.224412,-0.699624 -7.408047,-1.755194 -1.610274,-0.778383 -2.131062,-1.118829 -3.750996,-2.452021 -1.142725,-0.940509 -1.607828,-1.361981 -2.040517,-1.849505 -2.627876,-2.960683 -4.264093,-6.68096 -4.675575,-10.630924 -0.421411,-4.045384 0.427371,-8.076048 2.421873,-11.500824 0.459778,-0.789483 2.227751,-3.096085 2.830062,-3.692269 z m 6.579038,2.73824 c -0.700189,2.107329 -1.306276,3.903061 -1.346866,3.990513 -0.05007,0.107944 -1.231227,0.843188 -3.677975,2.289512 -2.074728,1.226425 -3.625288,2.184989 -3.653928,2.258889 -0.05934,0.153175 0.104514,0.394857 0.355695,0.524618 0.09973,0.0515 6.141477,2.684782 13.426127,5.851719 12.765226,5.549569 13.251156,5.754227 13.419705,5.651931 0.130234,-0.07909 0.17059,-0.14424 0.157904,-0.255594 C 47.08841,44.418443 30.632638,20.60605 30.386086,20.403189 c -0.222763,-0.183293 -0.572708,-0.216295 -0.636723,-0.06004 -0.02616,0.06406 -0.620571,1.840563 -1.320757,3.947889 z"
   id="path861" /><rect
   style="fill:#c7485e;fill-opacity:1;stroke:#3c4343;stroke-width:0.56838;stroke-opacity:0.9"
   id="rect2803"
   width="6.2322507"
   height="0.073237129"
   x="3.4578619"
   y="-53.649239"
   transform="matrix(-0.60534397,0.79596399,-0.79317298,-0.60899641,0,0)"
   inkscape:transform-center-x="0.86562325"
   inkscape:transform-center-y="-4.8941127" /><path
   style="fill:#cd425e;fill-opacity:1;stroke:#e27364;stroke-width:0.0457193;stroke-opacity:0.9"
   d="m 40.917899,35.985925 c 0.06524,0.09344 1.494521,2.08866 3.176257,4.433823 1.681738,2.345158 3.087353,4.331068 3.123586,4.413119 0.057,0.129126 -9.639756,-4.025069 -9.912385,-4.246555 -0.0745,-0.06048 0.377793,-0.70741 1.696227,-2.426374 1.681114,-2.191824 1.805488,-2.33285 1.916292,-2.174027 z"
   id="path3397"
   inkscape:transform-center-x="-2.4947084"
   inkscape:transform-center-y="-2.336461" /><text
   xml:space="preserve"
   style="font-size:12.0183px;line-height:1.25;font-family:'Segoe Script';-inkscape-font-specification:'Segoe Script';fill:#16272a;fill-opacity:0.799714;stroke-width:0.300455"
   x="7.7671309"
   y="42.557743"
   id="text17884"
   transform="scale(1.3139619,0.76105708)"><tspan
     sodipodi:role="line"
     id="tspan17882"
     x="7.7671309"
     y="42.557743"
     style="stroke-width:0.300455">_</tspan></text><text
   xml:space="preserve"
   style="font-size:12.2418px;line-height:1.25;font-family:'Segoe Script';-inkscape-font-specification:'Segoe Script';fill:#16272a;fill-opacity:0.799714;stroke-width:0.306039"
   x="39.028217"
   y="43.039879"
   id="text17884-6"
   transform="scale(1.3383884,0.74716726)"><tspan
     sodipodi:role="line"
     id="tspan17882-2"
     x="39.028217"
     y="43.039879"
     style="stroke-width:0.306039">_</tspan></text><text
   xml:space="preserve"
   style="font-size:10.7541px;line-height:1.25;font-family:'Segoe Script';-inkscape-font-specification:'Segoe Script';fill:#16272a;fill-opacity:0.799714;stroke-width:0.268852"
   x="-45.241413"
   y="44.004906"
   id="text17884-0"
   transform="matrix(-0.01838052,-1.3612715,0.73387607,-0.05415612,0,0)"><tspan
     sodipodi:role="line"
     id="tspan17882-4"
     x="-45.241413"
     y="44.004906"
     style="stroke-width:0.268852">_</tspan></text><text
   xml:space="preserve"
   style="font-size:12.1364px;line-height:1.25;font-family:'Segoe Script';-inkscape-font-specification:'Segoe Script';fill:#16272a;fill-opacity:0.799714;stroke-width:0.303406"
   x="-12.964525"
   y="45.510273"
   id="text17884-9"
   transform="matrix(5.1379084e-4,-1.330539,0.75157456,0.00144482,0,0)"><tspan
     sodipodi:role="line"
     id="tspan17882-7"
     x="-12.964525"
     y="45.510273"
     style="stroke-width:0.303406">_</tspan></text><g
   aria-label="c"
   transform="scale(1.0073858,0.99266836)"
   id="text9344"
   style="font-size:15.8974px;line-height:1.25;font-family:'Segoe Script';-inkscape-font-specification:'Segoe Script';fill:#0e0e0e;stroke-width:0.39743"><path
     d="m 39.898701,5.8275966 q 0,0.2794465 -0.201822,0.5045562 -0.209585,0.232872 -0.364833,0.3958825 -0.155248,0.155248 -0.294971,0.2872089 -0.139723,0.1319608 -0.294971,0.2561592 -0.155249,0.1164361 -0.364833,0.2716841 -0.589943,0.4269321 -1.125549,0.7219034 -0.535605,0.2872089 -1.040162,0.4735066 -0.504556,0.1785352 -1.00135,0.2561592 -0.489031,0.077624 -0.985825,0.077624 -0.520081,0 -0.931488,-0.1940601 Q 32.88149,8.6763982 32.594281,8.3348525 32.314834,7.9933068 32.167349,7.5430875 32.019863,7.0851058 32.019863,6.5805496 v -0.038812 q 0,-0.5123185 0.131961,-1.0867363 0.131961,-0.5821802 0.364833,-1.1643603 0.240634,-0.5821802 0.574418,-1.1410732 0.333783,-0.5666554 0.737428,-1.0556867 0.16301,-0.1940601 0.38812,-0.4114073 0.232872,-0.2251097 0.489031,-0.4114073 0.263922,-0.1862977 0.543368,-0.30273373 0.287209,-0.12419844 0.558893,-0.12419844 0.186298,0 0.357071,0.11643604 0.170773,0.10867363 0.318258,0.28720893 0.147486,0.1785352 0.271685,0.4036449 0.124198,0.2173472 0.209584,0.4502193 0.08539,0.2251097 0.131961,0.4346945 0.04657,0.2095849 0.04657,0.3570705 0,0.2251097 -0.139724,0.5821802 -0.139723,0.3570705 -0.333783,0.3570705 -0.279446,0 -0.465744,-0.3803577 Q 36.133936,3.3048159 36.0796,3.1107558 36.033025,2.9166957 35.963163,2.7303981 35.901064,2.5441004 35.792391,2.3888524 35.683717,2.2258419 35.489657,2.1482179 q -0.19406,0.046574 -0.395883,0.2018225 -0.19406,0.155248 -0.38812,0.3803577 -0.186297,0.2251097 -0.372595,0.5123185 -0.178535,0.2794465 -0.341546,0.5821802 -0.155248,0.2794465 -0.302733,0.6442794 -0.147486,0.3570705 -0.263922,0.7451906 -0.116436,0.3803577 -0.186298,0.7607154 -0.06986,0.3803578 -0.06986,0.6986163 0,0.2251096 0.108673,0.4579817 0.108674,0.2251097 0.279447,0.4114073 0.178535,0.1862977 0.395882,0.3027337 0.22511,0.116436 0.457982,0.116436 1.148836,0 2.282146,-0.4735065 1.133311,-0.4735065 2.157948,-1.3739452 0.566656,-0.4967938 0.939251,-0.4967938 0.108673,0 0.108673,0.2095849 z"
     id="path4312" /></g><g
   aria-label="в"
   transform="scale(1.40543,0.711526)"
   id="text19318"
   style="font-size:15.2287px;line-height:1.25;font-family:'Segoe Script';-inkscape-font-specification:'Segoe Script';fill:#161616;stroke-width:0.38072"
   inkscape:transform-center-x="-0.78749713"
   inkscape:transform-center-y="13.7812"><path
     d="m 48.244428,42.047205 q 0,-0.08923 -0.03718,-0.178461 -0.02974,-0.09667 -0.09667,-0.171026 -0.05949,-0.08179 -0.16359,-0.133846 -0.09667,-0.05205 -0.230512,-0.05205 -0.260256,0 -0.54282,0.185897 -0.275128,0.185897 -0.557692,0.513076 -0.275128,0.319744 -0.535384,0.765897 -0.260256,0.438717 -0.483333,0.951794 -0.223076,0.513076 -0.401537,1.078204 -0.171026,0.557691 -0.275128,1.122819 0.06692,-0.04462 0.200769,-0.141282 0.133846,-0.104103 0.297435,-0.230513 0.171026,-0.133846 0.356923,-0.282564 0.193333,-0.156153 0.364358,-0.304871 0.178462,-0.148718 0.327179,-0.282564 0.148718,-0.133846 0.237949,-0.230512 0.825384,-0.892307 1.182306,-1.546665 0.356923,-0.654358 0.356923,-1.063332 z m -0.230513,8.015888 q -0.230512,0.342051 -0.557691,0.66923 -0.319744,0.319743 -0.70641,0.565127 -0.386666,0.245385 -0.825383,0.386666 -0.431282,0.141282 -0.877435,0.104103 -0.312308,-0.02231 -0.594871,-0.200769 -0.282564,-0.185897 -0.498205,-0.520512 -0.215641,-0.342051 -0.342051,-0.83282 -0.12641,-0.490769 -0.12641,-1.130255 0,-0.408974 0.04462,-0.884871 0.04462,-0.483332 0.118975,-0.974101 0.07436,-0.490769 0.163589,-0.95923 0.09667,-0.468461 0.185897,-0.862563 0.118975,-0.535384 0.312308,-1.055896 0.193333,-0.527948 0.431281,-1.011281 0.237949,-0.490768 0.513077,-0.92205 0.275127,-0.431281 0.565127,-0.780768 0.401538,-0.468461 0.914614,-0.751025 0.520513,-0.282564 1.219486,-0.282564 0.29,0 0.527948,0.118975 0.237949,0.118974 0.408974,0.312307 0.171026,0.185897 0.260256,0.423845 0.09667,0.237949 0.09667,0.468461 0,0.319744 -0.133846,0.713846 -0.12641,0.386666 -0.371795,0.810512 -0.245384,0.423845 -0.594871,0.855127 -0.349487,0.431281 -0.79564,0.832819 0.104103,0.0074 0.237949,0.03718 0.141281,0.02231 0.289999,0.08923 0.156154,0.06692 0.312308,0.178462 0.163589,0.111538 0.312307,0.282563 0.06692,0.08179 0.148718,0.223077 0.08179,0.133846 0.148717,0.334615 0.07436,0.193333 0.118975,0.446153 0.05205,0.252821 0.05205,0.557692 0,0.594871 -0.215641,1.286409 -0.208205,0.684102 -0.743589,1.472306 z M 47.80571,47.326686 q 0,-0.408974 -0.118974,-0.684102 -0.118974,-0.282564 -0.282564,-0.446153 -0.163589,-0.171026 -0.334615,-0.237949 -0.171025,-0.07436 -0.275127,-0.07436 -0.09667,0 -0.304872,0.148718 -0.208205,0.148718 -0.446153,0.327179 -0.178462,0.156154 -0.356923,0.29 -0.178461,0.133846 -0.334615,0.260256 -0.148718,0.12641 -0.275128,0.25282 -0.12641,0.12641 -0.208205,0.267692 -0.208204,0.37923 -0.245384,0.862563 -0.03718,0.483333 -0.03718,0.988973 0,0.334615 0.06692,0.602307 0.07436,0.260256 0.178461,0.446154 0.111538,0.185897 0.237948,0.289999 0.126411,0.09667 0.230513,0.09667 0.25282,0 0.572563,-0.104103 0.319744,-0.104102 0.654359,-0.408973 0.289999,-0.267692 0.520512,-0.602307 0.237948,-0.334615 0.401538,-0.70641 0.171025,-0.371794 0.260256,-0.773332 0.09667,-0.401538 0.09667,-0.79564 z"
     id="path4333" /></g><g
   aria-label="ю"
   transform="scale(0.89658976,1.1153373)"
   id="text11307"
   style="font-size:12.6976px;line-height:1.25;font-family:'Segoe Script';-inkscape-font-specification:'Segoe Script';fill:#151515;stroke-width:0.317436"
   inkscape:transform-center-x="4.5281085"
   inkscape:transform-center-y="-0.39374856"><path
     d="m 33.651689,58.712189 q 0,-0.0248 -0.031,-0.0434 -0.0248,-0.0248 -0.062,-0.062 -0.0372,-0.0372 -0.0682,-0.0992 -0.0248,-0.062 -0.0248,-0.1736 0,-0.0992 0.0558,-0.1798 0.0558,-0.0806 0.1178,-0.1488 0.0682,-0.0682 0.124,-0.124 0.062,-0.0558 0.0744,-0.1054 0.1054,-0.5952 0.1798,-1.1222 0.0744,-0.527 0.093,-0.8804 0.0062,-0.1054 0,-0.217 0,-0.1116 -0.0062,-0.2232 -0.0062,-0.0806 -0.0124,-0.155 0,-0.0744 0,-0.1426 0,-0.0744 0.0558,-0.1674 0.0558,-0.093 0.1364,-0.1736 0.0868,-0.0806 0.186,-0.1302 0.1054,-0.0558 0.2046,-0.0558 0.0868,0 0.1736,0.0496 0.0868,0.0434 0.155001,0.1302 0.0682,0.0806 0.1116,0.2046 0.0434,0.1178 0.0434,0.2666 0,0.1116 -0.0186,0.2728 -0.0186,0.1612 -0.0496,0.3534 -0.031,0.1922 -0.0744,0.403 -0.0372,0.2108 -0.0744,0.4216 -0.0496,0.2914 -0.0992,0.558 -0.0434,0.2666 -0.0682,0.4588 0.0248,0.0558 0.0434,0.0992 0.0248,0.0372 0.062,0.062 0.0372,0.0248 0.093,0.0372 0.062,0.0124 0.1612,0.0124 0.2666,0 0.5642,-0.0558 0.2976,-0.0558 0.5642,-0.1426 0.2666,-0.0868 0.4774,-0.1798 0.217,-0.0992 0.3224,-0.186 0.0682,-0.0558 0.1488,-0.1488 0.0868,-0.093 0.1736,-0.1984 0.0868,-0.1116 0.1674,-0.217 0.0868,-0.1116 0.1488,-0.1922 0.2108,-0.2666 0.4774,-0.5208 0.2666,-0.2542 0.589,-0.4464 0.3224,-0.1922 0.6944,-0.31 0.3782,-0.1178 0.8184,-0.1178 0.3348,0 0.6572,0.1674 0.3224,0.1612 0.5704,0.4402 0.2542,0.279 0.403,0.6448 0.155,0.3596 0.155,0.7564 0,0.3968 -0.0806,0.7254 -0.0744,0.3224 -0.2418,0.6882 -0.093,0.1922 -0.3224,0.4588 -0.2294,0.2666 -0.5518,0.5518 -0.3162,0.2852 -0.6944,0.5642 -0.3782,0.279 -0.7688,0.5022 -0.3906,0.2232 -0.7688,0.3596 -0.372,0.1364 -0.6758,0.1364 -0.4092,0 -0.7006,-0.1364 -0.2914,-0.1426 -0.4774,-0.3658 -0.186,-0.2294 -0.2728,-0.5208 -0.0868,-0.2914 -0.0868,-0.589 0,-0.2418 0.0682,-0.5828 0.0744,-0.3472 0.248,-0.7006 -0.2356,0.1488 -0.527,0.2356 -0.2852,0.0868 -0.527,0.155 -0.1054,0.031 -0.2356,0.0558 -0.1302,0.0186 -0.2604,0.0372 -0.124,0.0186 -0.2418,0.0372 -0.111601,0.0186 -0.192201,0.031 -0.124,0.0248 -0.1736,0.0992 -0.0434,0.0682 -0.0682,0.1798 -0.0248,0.1054 -0.0744,0.279 -0.0496,0.1736 -0.0992,0.3596 -0.0558,0.1984 -0.1178,0.4092 -0.062,0.2108 -0.1116,0.403 -0.0434,0.186 -0.0806,0.3472 -0.031,0.155 -0.031,0.2418 0,0.0806 -0.0682,0.1736 -0.062,0.093 -0.1488,0.1736 -0.0806,0.0868 -0.1674,0.1426 -0.0806,0.0558 -0.124,0.0558 -0.093,0 -0.1798,-0.062 -0.0806,-0.062 -0.1426,-0.1426 -0.062,-0.0806 -0.0992,-0.1612 -0.0372,-0.0868 -0.0372,-0.1302 0,-0.0558 0.0434,-0.1984 0.0496,-0.1426 0.0992,-0.2914 0.031,-0.093 0.0806,-0.2542 0.0496,-0.1612 0.0992,-0.3534 0.0558,-0.1984 0.1054,-0.4092 0.0558,-0.2108 0.0992,-0.3968 0.0434,-0.186 0.0682,-0.3224 0.0248,-0.1426 0.0248,-0.2046 z m 7.471001,-1.4012 q 0,-0.62 -0.3596,-0.9672 -0.3534,-0.3534 -1.0168,-0.3534 -0.093,0 -0.2294,0.0744 -0.1364,0.0744 -0.2976,0.1922 -0.155,0.1116 -0.3162,0.248 -0.155,0.1364 -0.2976,0.2666 -0.1364,0.1302 -0.2356,0.2356 -0.0992,0.1054 -0.1364,0.1488 -0.1302,0.155 -0.2728,0.4278 -0.1364,0.2666 -0.2542,0.5766 -0.1178,0.31 -0.1984,0.6262 -0.0744,0.31 -0.0744,0.5456 0,0.1426 0.0372,0.2914 0.0434,0.1488 0.124,0.2728 0.0868,0.1178 0.217,0.1984 0.1302,0.0744 0.3038,0.0744 0.1922,0 0.4898,-0.1116 0.2976,-0.1116 0.6262,-0.31 0.3348,-0.1984 0.6696,-0.4712 0.341,-0.2728 0.6076,-0.589 0.2728,-0.3162 0.4402,-0.6634 0.1736,-0.3534 0.1736,-0.713 z"
     id="path4354" /></g><g
   aria-label="з"
   transform="scale(1.3900002,0.71942436)"
   id="text16794"
   style="font-size:14.6241px;line-height:1.25;font-family:'Segoe Script';-inkscape-font-specification:'Segoe Script';fill:#131313;stroke-width:0.365603"><path
     d="m 1.2844509,49.218265 q 0.071407,0 0.1142508,0.04998 0.049985,0.04998 0.078547,0.121392 0.028563,0.07855 0.035703,0.171376 0.014281,0.09283 0.014281,0.178517 0,0.164235 0.057125,0.357034 0.064266,0.192798 0.1999389,0.357033 0.1428135,0.164236 0.3641744,0.271346 0.2213608,0.114251 0.5426912,0.114251 0.4355811,0 0.8997248,-0.228502 0.4641438,-0.228501 0.8497402,-0.63552 0.3855964,-0.407018 0.6283793,-0.971132 0.2499236,-0.556972 0.2499236,-1.221055 0,-0.614098 -0.1285321,-1.042538 Q 5.0618673,46.312011 4.8547878,46.047806 4.6548489,45.77646 4.390644,45.655069 4.1264391,45.533677 3.8622341,45.533677 q -0.099969,0 -0.2213608,0.04998 -0.1213915,0.04284 -0.2499236,0.114251 -0.1213915,0.06427 -0.2499236,0.142813 -0.1213915,0.07855 -0.2213609,0.142814 -0.1713762,0.11425 -0.328471,0.192798 -0.1499541,0.07855 -0.3998777,0.07855 -0.1927982,0 -0.3356117,-0.142813 -0.1356728,-0.149955 -0.1356728,-0.392737 0,-0.185658 0.1285322,-0.31419 0.1356728,-0.128532 0.414159,-0.242783 0.592676,-0.242783 1.0568197,-0.492706 0.4712845,-0.257065 0.7926148,-0.549832 0.3213303,-0.299909 0.4927065,-0.656942 0.1713762,-0.357034 0.1713762,-0.814037 0,-0.178517 -0.057125,-0.349893 -0.049985,-0.178517 -0.1570948,-0.31419 -0.1071101,-0.142813 -0.264205,-0.228501 -0.1499541,-0.09283 -0.349893,-0.09283 -0.4284404,0 -0.8140368,0.264205 -0.3855964,0.264205 -0.7569114,0.649801 -0.1642355,0.171376 -0.2713456,0.249924 -0.1071101,0.07141 -0.2285015,0.07141 -0.099969,0 -0.1785169,-0.04998 -0.071407,-0.05713 -0.1213914,-0.128532 -0.042844,-0.07855 -0.071407,-0.164236 -0.021422,-0.09283 -0.021422,-0.157095 0,-0.171376 0.092829,-0.32133 0.099969,-0.157095 0.2642049,-0.292768 0.3570337,-0.299908 0.699786,-0.492706 0.3427523,-0.192798 0.5641132,-0.285627 0.2499236,-0.09997 0.5141285,-0.192798 0.2713456,-0.09283 0.5069879,-0.09283 0.3356116,0 0.6426606,0.121391 0.307049,0.114251 0.5355505,0.342753 0.2356423,0.221361 0.3713151,0.549832 0.1428134,0.328471 0.1428134,0.74263 0,0.599816 -0.2927676,1.192492 -0.2856269,0.592676 -0.9782723,1.149649 0.4784252,0.02142 0.8354588,0.242783 0.3570337,0.22136 0.592676,0.585535 0.2427829,0.364174 0.3570336,0.842599 0.1213915,0.471285 0.1213915,0.999695 0,0.52841 -0.1428135,1.049679 -0.1428135,0.521269 -0.4070184,0.999694 -0.2570642,0.478425 -0.6212386,0.885444 -0.3570337,0.407018 -0.7926148,0.706926 -0.4284404,0.299909 -0.9211469,0.471285 -0.4855658,0.171376 -0.9996943,0.171376 -0.4927065,0 -0.8568808,-0.164236 Q 1.348717,51.453296 1.1059341,51.210513 0.87029187,50.96773 0.74890041,50.689243 0.62750896,50.410757 0.62750896,50.175115 q 0,-0.178517 0.0642661,-0.385596 0.0714067,-0.20708 0.15709483,-0.328471 0.0571254,-0.07855 0.16423545,-0.164236 0.1071101,-0.07855 0.2713456,-0.07855 z"
     id="path4291" /></g></svg>
