<?xml version="1.0" encoding="UTF-8" standalone="no"?>
<!-- Created with Inkscape (http://www.inkscape.org/) -->

<svg
   width="15"
   height="20"
   viewBox="0 0 3.9687502 5.2916678"
   version="1.1"
   id="svg2249"
   inkscape:version="1.1.1 (3bf5ae0d25, 2021-09-20)"
   sodipodi:docname="tempMinus.svg"
   xmlns:inkscape="http://www.inkscape.org/namespaces/inkscape"
   xmlns:sodipodi="http://sodipodi.sourceforge.net/DTD/sodipodi-0.dtd"
   xmlns="http://www.w3.org/2000/svg"
   xmlns:svg="http://www.w3.org/2000/svg">
  <sodipodi:namedview
     id="namedview2251"
     pagecolor="#ffffff"
     bordercolor="#666666"
     borderopacity="1.0"
     inkscape:pageshadow="2"
     inkscape:pageopacity="0.0"
     inkscape:pagecheckerboard="0"
     inkscape:document-units="px"
     showgrid="false"
     units="px"
     inkscape:zoom="12.286644"
     inkscape:cx="13.266438"
     inkscape:cy="15.504641"
     inkscape:window-width="2400"
     inkscape:window-height="1321"
     inkscape:window-x="2391"
     inkscape:window-y="-9"
     inkscape:window-maximized="1"
     inkscape:current-layer="layer1"
     height="35px" />
  <defs
     id="defs2246">
    <clipPath
       clipPathUnits="userSpaceOnUse"
       id="clipPath1825">
      <path
         d="m 7278.53,6813.28 h 20.78 v -5.79 h -20.78 z"
         id="path1823" />
    </clipPath>
  </defs>
  <g
     inkscape:label="Слой 1"
     inkscape:groupmode="layer"
     id="layer1"
     style="display:inline">
    <g
       id="g1799"
       transform="matrix(0.08032542,0,0,-0.06647734,1.8475137,3.3958754)"
       style="fill:#e1ebeb;fill-opacity:1">
      <path
         d="m 0,0 c 3.832,0 7.39,-1.134 10.39,-3.063 v 45.73 c 0,4.019 -3.287,7.305 -7.306,7.305 h -6.17 c -4.018,0 -7.305,-3.286 -7.305,-7.305 V -3.065 C -7.393,-1.134 -3.832,0 0,0"
         style="fill:#e1ebeb;fill-opacity:1;fill-rule:nonzero;stroke:none"
         id="path1801" />
    </g>
    <g
       id="g1803"
       transform="matrix(0.08032542,0,0,-0.05895461,3.3816709,4.0733397)"
       style="fill:#e0ebeb;fill-opacity:1">
      <path
         d="m 0,0 c 0,-10.623 -8.612,-19.235 -19.236,-19.235 -10.625,0 -19.239,8.612 -19.239,19.235 0,10.625 8.614,19.239 19.239,19.239 C -8.612,19.239 0,10.625 0,0"
         style="fill:#e0ebeb;fill-opacity:1;fill-rule:nonzero;stroke:none"
         id="path1805" />
    </g>
    <g
       id="g1819"
       transform="matrix(0.08032542,0,0,-0.05895461,-583.64881,404.4529)">
      <g
         id="g1821" />
      <g
         id="g1833">
        <g
           clip-path="url(#clipPath1825)"
           opacity="0.199997"
           id="g1831">
          <g
             transform="translate(7288.918,6813.2813)"
             id="g1829">
            <path
               d="m 0,0 c -3.759,0 -7.296,-0.948 -10.391,-2.611 v -3.178 c 2.998,1.932 6.559,3.065 10.391,3.065 3.832,0 7.39,-1.133 10.39,-3.063 v 3.176 C 7.295,-0.948 3.758,0 0,0"
               style="fill:#122c3d;fill-opacity:1;fill-rule:nonzero;stroke:none"
               id="path1827" />
          </g>
        </g>
      </g>
    </g>
    <g
       id="g1835"
       transform="matrix(0.10449885,0,0,-0.03707163,3.8750776,0.76015578)"
       style="fill:#e0ebeb;fill-opacity:1">
      <path
         d="m 0,0 c 0,-0.353 -0.287,-0.642 -0.64,-0.642 h -9.46 c -0.353,0 -0.64,0.289 -0.64,0.642 v 3.687 c 0,0.353 0.287,0.642 0.64,0.642 h 9.46 C -0.287,4.329 0,4.04 0,3.687 Z"
         style="fill:#e0ebeb;fill-opacity:1;fill-rule:nonzero;stroke:none"
         id="path1837" />
    </g>
    <g
       id="g1839"
       transform="matrix(0.13711235,0,0,-0.03150853,3.5663724,1.3607992)"
       style="fill:#e0ebeb;fill-opacity:1">
      <path
         d="m 0,0 c 0,-0.353 -0.287,-0.64 -0.641,-0.64 h -4.81 c -0.354,0 -0.641,0.287 -0.641,0.64 v 3.687 c 0,0.353 0.287,0.642 0.641,0.642 h 4.81 C -0.287,4.329 0,4.04 0,3.687 Z"
         style="fill:#e0ebeb;fill-opacity:1;fill-rule:nonzero;stroke:none"
         id="path1841" />
    </g>
    <g
       id="g1843"
       transform="matrix(0.10554211,0,0,-0.03116946,3.4173169,1.9089735)"
       style="fill:#e0eaea;fill-opacity:1">
      <path
         d="m 0,0 c 0,-0.353 -0.287,-0.642 -0.641,-0.642 h -4.81 c -0.354,0 -0.641,0.289 -0.641,0.642 v 3.687 c 0,0.353 0.287,0.64 0.641,0.64 h 4.81 C -0.287,4.327 0,4.04 0,3.687 Z"
         style="fill:#e0eaea;fill-opacity:1;fill-rule:nonzero;stroke:none"
         id="path1845" />
    </g>
    <g
       id="g1847"
       transform="matrix(0.10788691,0,0,-0.03900284,3.9006476,2.5883364)"
       style="fill:#e0eaea;fill-opacity:1">
      <path
         d="m 0,0 c 0,-0.353 -0.287,-0.642 -0.64,-0.642 h -9.46 c -0.353,0 -0.64,0.289 -0.64,0.642 v 3.687 c 0,0.353 0.287,0.642 0.64,0.642 h 9.46 C -0.287,4.329 0,4.04 0,3.687 Z"
         style="fill:#e0eaea;fill-opacity:1;fill-rule:nonzero;stroke:none"
         id="path1849" />
    </g>
    <path
       style="fill:#4ba0cb;fill-opacity:0.796853;stroke:#3e84ad;stroke-width:0.00584732;stroke-opacity:0.607692"
       d="M 1.7523472,4.9099055 C 1.7417921,4.9089127 1.7029322,4.905384 1.6659912,4.9021108 1.5443768,4.8912722 1.3708739,4.8487095 1.2598011,4.8024695 0.97985106,4.6859256 0.78093001,4.5014123 0.69372113,4.2773911 0.65724302,4.1836854 0.65210238,4.1538816 0.65221179,4.036711 0.65228674,3.9561789 0.65494695,3.9223752 0.66391248,3.888034 0.74405256,3.581066 1.0195701,3.3370105 1.4131133,3.2243862 1.8542837,3.098132 2.3734203,3.1846885 2.6982792,3.4386633 2.8635723,3.5678897 2.9680526,3.7214249 3.0097127,3.8963185 3.0287955,3.976428 3.0289557,4.1018521 3.0100743,4.1807494 2.956612,4.4041772 2.7968171,4.598547 2.5551305,4.7341299 2.4819903,4.7751607 2.3374759,4.8336771 2.2512872,4.8571615 2.0978034,4.8989826 1.8804598,4.9219588 1.7523447,4.909906 Z"
       id="path20198" />
    <path
       style="fill:#4ea2cb;fill-opacity:0.8;stroke:#3e84ad;stroke-width:0.00584732;stroke-opacity:0.607692"
       d="m 1.2310961,2.8059937 c -0.00213,-0.00662 -0.00389,-0.1894182 -0.00394,-0.4062303 l -9.13e-5,-0.3942035 h 0.633541 0.6335391 l -0.00187,0.4031151 c -0.00102,0.2217134 -0.00388,0.4048012 -0.00635,0.406862 -0.00247,0.00206 -0.049964,-0.0061 -0.1055457,-0.018145 C 2.2246376,2.763654 2.1511451,2.754816 1.9667785,2.747657 1.707215,2.737579 1.5451417,2.751407 1.3021502,2.804403 c -0.034347,0.00749 -0.063515,0.013617 -0.06482,0.013617 -0.0013,0 -0.00411,-0.00542 -0.00622,-0.012026 z"
       id="path20276" />
    <path
       style="fill:#4ea2cb;fill-opacity:0.8;stroke:#ccf5ff;stroke-width:0.017622;stroke-miterlimit:4;stroke-dasharray:none;stroke-opacity:0.9"
       d="m 2.7809788,1.3564322 c -0.019395,-0.00139 -0.021714,-0.0075 -0.021588,-0.056863 1.002e-4,-0.03899 0.00132,-0.044668 0.010318,-0.047999 0.0094,-0.00348 0.03689,-0.00383 0.3473545,-0.00445 0.1854332,-3.702e-4 0.353727,-4.44e-5 0.3739864,7.222e-4 0.03352,0.00127 0.037229,0.00192 0.041204,0.00721 0.00565,0.00753 0.0057,0.086956 7.09e-5,0.094455 -0.00312,0.00413 -0.00943,0.0061 -0.02279,0.00709 -0.02036,0.0015 -0.7072821,0.00135 -0.728555,-1.715e-4 z"
       id="path20315" />
    <path
       style="fill:#4ea2cb;fill-opacity:0.8;stroke:#ccf7ff;stroke-width:0.0220224;stroke-miterlimit:4;stroke-dasharray:none;stroke-opacity:0.896154"
       d="M 2.8458271,0.7556671 C 2.792094,0.7537201 2.7880361,0.7491151 2.7880361,0.6900693 V 0.638853 l 0.021542,-0.005829 c 0.017172,-0.004646 0.035006,-0.006178 0.08789,-0.007552 0.089014,-0.002312 0.9015445,-2.9479e-4 0.9193495,0.002284 0.02246,0.003253 0.025897,0.012192 0.025897,0.0673545 0,0.0466132 -0.0015,0.0525228 -0.014262,0.0565425 C 3.8151073,0.755851 3.784075,0.756159 3.3450584,0.756451 3.0870357,0.75662122 2.8623812,0.75626856 2.8458261,0.7556671 Z"
       id="path20432" />
    <path
       style="fill:#4ea2cb;fill-opacity:0.8;stroke:#f9feff;stroke-width:0.000477479;stroke-miterlimit:4;stroke-dasharray:none;stroke-opacity:1"
       d="m 2.8742403,2.593273 c -0.094381,-0.00153 -0.096542,-0.00297 -0.096464,-0.064517 7.05e-5,-0.055286 0.00628,-0.07111 0.029699,-0.075684 0.035058,-0.00685 0.054092,-0.00717 0.4626698,-0.00776 0.2127421,-3.057e-4 0.4255052,9.94e-5 0.4742027,9.013e-4 0.079877,0.00132 0.090242,0.00183 0.1083173,0.00537 0.01949,0.0038 0.020165,0.00459 0.027023,0.031552 0.00427,0.016805 0.00427,0.042892 -1.55e-5,0.066519 -0.0062,0.034154 -0.00871,0.039196 -0.02071,0.041541 -0.012781,0.0025 -0.043037,0.00267 -0.4711867,0.00283 -0.2516405,9.47e-5 -0.482729,-2.437e-4 -0.5135294,-7.421e-4 z"
       id="path25140" />
    <path
       style="fill:#4ea2cb;fill-opacity:0.8;stroke:#ccf6ff;stroke-width:0.0204045;stroke-miterlimit:4;stroke-dasharray:none;stroke-opacity:0.9"
       d="m 2.844681,1.9029187 c -0.00452,-2.419e-4 -0.012488,-6.773e-4 -0.017717,-9.685e-4 -0.00597,-3.297e-4 -0.012074,-0.00197 -0.01642,-0.00442 -0.00611,-0.00344 -0.00687,-0.00846 -0.00652,-0.043266 4.439e-4,-0.045545 0.00151,-0.047453 0.028437,-0.050914 0.015795,-0.00203 0.024508,-0.00209 0.2667282,-0.00209 0.1865136,0 0.2532254,3.253e-4 0.2614737,0.00127 0.00609,6.997e-4 0.014402,0.00257 0.018471,0.00416 0.00684,0.00267 0.00738,0.00619 0.00718,0.0465 -1.535e-4,0.029627 -0.0017,0.044489 -0.00481,0.046347 -0.00341,0.00204 -0.00858,0.00291 -0.020298,0.0034 -0.017132,7.277e-4 -0.503134,7.277e-4 -0.5165194,-2e-7 z"
       id="path25179" />
  </g>
</svg>
