<?xml version="1.0" encoding="UTF-8" standalone="no"?>
<!-- Created with Inkscape (http://www.inkscape.org/) -->

<svg
   width="15"
   height="20"
   viewBox="0 0 3.9687502 5.2916678"
   version="1.1"
   id="svg2249"
   inkscape:version="1.1.1 (3bf5ae0d25, 2021-09-20)"
   sodipodi:docname="tempPlus.svg"
   xmlns:inkscape="http://www.inkscape.org/namespaces/inkscape"
   xmlns:sodipodi="http://sodipodi.sourceforge.net/DTD/sodipodi-0.dtd"
   xmlns="http://www.w3.org/2000/svg"
   xmlns:svg="http://www.w3.org/2000/svg">
  <sodipodi:namedview
     id="namedview2251"
     pagecolor="#ffffff"
     bordercolor="#666666"
     borderopacity="1.0"
     inkscape:pageshadow="2"
     inkscape:pageopacity="0.0"
     inkscape:pagecheckerboard="0"
     inkscape:document-units="px"
     showgrid="false"
     units="px"
     inkscape:zoom="17.375939"
     inkscape:cx="15.135873"
     inkscape:cy="17.006275"
     inkscape:window-width="2400"
     inkscape:window-height="1321"
     inkscape:window-x="2391"
     inkscape:window-y="-9"
     inkscape:window-maximized="1"
     inkscape:current-layer="layer1"
     height="35px" />
  <defs
     id="defs2246">
    <clipPath
       clipPathUnits="userSpaceOnUse"
       id="clipPath1825">
      <path
         d="m 7278.53,6813.28 h 20.78 v -5.79 h -20.78 z"
         id="path1823" />
    </clipPath>
  </defs>
  <g
     inkscape:label="Слой 1"
     inkscape:groupmode="layer"
     id="layer1"
     style="display:inline">
    <g
       id="g1799"
       transform="matrix(0.07204069,0,0,-0.06669951,1.8697194,3.4222048)"
       style="fill:#e1ebeb;fill-opacity:1">
      <path
         d="m 0,0 c 3.832,0 7.39,-1.134 10.39,-3.063 v 45.73 c 0,4.019 -3.287,7.305 -7.306,7.305 h -6.17 c -4.018,0 -7.305,-3.286 -7.305,-7.305 V -3.065 C -7.393,-1.134 -3.832,0 0,0"
         style="fill:#e1ebeb;fill-opacity:1;fill-rule:nonzero;stroke:none"
         id="path1801" />
    </g>
    <g
       id="g1803"
       transform="matrix(0.07204069,0,0,-0.05915164,3.2456446,4.1019334)"
       style="fill:#e0ebeb;fill-opacity:1">
      <path
         d="m 0,0 c 0,-10.623 -8.612,-19.235 -19.236,-19.235 -10.625,0 -19.239,8.612 -19.239,19.235 0,10.625 8.614,19.239 19.239,19.239 C -8.612,19.239 0,10.625 0,0"
         style="fill:#e0ebeb;fill-opacity:1;fill-rule:nonzero;stroke:none"
         id="path1805" />
    </g>
    <g
       id="g1819"
       transform="matrix(0.07204069,0,0,-0.05915164,-523.23884,405.8196)">
      <g
         id="g1821" />
      <g
         id="g1833">
        <g
           clip-path="url(#clipPath1825)"
           opacity="0.199997"
           id="g1831">
          <g
             transform="translate(7288.918,6813.2813)"
             id="g1829">
            <path
               d="m 0,0 c -3.759,0 -7.296,-0.948 -10.391,-2.611 v -3.178 c 2.998,1.932 6.559,3.065 10.391,3.065 3.832,0 7.39,-1.133 10.39,-3.063 v 3.176 C 7.295,-0.948 3.758,0 0,0"
               style="fill:#122c3d;fill-opacity:1;fill-rule:nonzero;stroke:none"
               id="path1827" />
          </g>
        </g>
      </g>
    </g>
    <g
       id="g1835"
       transform="matrix(0.09372091,0,0,-0.03719553,3.6881614,0.77767642)"
       style="fill:#e0ebeb;fill-opacity:1">
      <path
         d="m 0,0 c 0,-0.353 -0.287,-0.642 -0.64,-0.642 h -9.46 c -0.353,0 -0.64,0.289 -0.64,0.642 v 3.687 c 0,0.353 0.287,0.642 0.64,0.642 h 9.46 C -0.287,4.329 0,4.04 0,3.687 Z"
         style="fill:#e0ebeb;fill-opacity:1;fill-rule:nonzero;stroke:none"
         id="path1837" />
    </g>
    <g
       id="g1839"
       transform="matrix(0.12297066,0,0,-0.03161383,3.4112959,1.3803272)"
       style="fill:#e0ebeb;fill-opacity:1">
      <path
         d="m 0,0 c 0,-0.353 -0.287,-0.64 -0.641,-0.64 h -4.81 c -0.354,0 -0.641,0.287 -0.641,0.64 v 3.687 c 0,0.353 0.287,0.642 0.641,0.642 h 4.81 C -0.287,4.329 0,4.04 0,3.687 Z"
         style="fill:#e0ebeb;fill-opacity:1;fill-rule:nonzero;stroke:none"
         id="path1841" />
    </g>
    <g
       id="g1843"
       transform="matrix(0.09465656,0,0,-0.03127363,3.277614,1.9303336)"
       style="fill:#e0eaea;fill-opacity:1">
      <path
         d="m 0,0 c 0,-0.353 -0.287,-0.642 -0.641,-0.642 h -4.81 c -0.354,0 -0.641,0.289 -0.641,0.642 v 3.687 c 0,0.353 0.287,0.64 0.641,0.64 h 4.81 C -0.287,4.327 0,4.04 0,3.687 Z"
         style="fill:#e0eaea;fill-opacity:1;fill-rule:nonzero;stroke:none"
         id="path1845" />
    </g>
    <g
       id="g1847"
       transform="matrix(0.09675951,0,0,-0.03913319,3.7110942,2.6119669)"
       style="fill:#e0eaea;fill-opacity:1">
      <path
         d="m 0,0 c 0,-0.353 -0.287,-0.642 -0.64,-0.642 h -9.46 c -0.353,0 -0.64,0.289 -0.64,0.642 v 3.687 c 0,0.353 0.287,0.642 0.64,0.642 h 9.46 C -0.287,4.329 0,4.04 0,3.687 Z"
         style="fill:#e0eaea;fill-opacity:1;fill-rule:nonzero;stroke:none"
         id="path1849" />
    </g>
    <path
       style="fill:#e57900;fill-opacity:0.6;stroke:#3e84ad;stroke-width:0.00554682;stroke-opacity:0.607692"
       d="M 1.7843683,4.941295 C 1.7748983,4.9403009 1.7400503,4.936765 1.7069193,4.933475 1.5978478,4.9225994 1.44224,4.8798945 1.3426232,4.8334999 1.091547,4.7165665 0.91314262,4.5314366 0.83492836,4.3066666 0.80221255,4.2126479 0.79760213,4.1827444 0.79770023,4.0651823 0.79776747,3.9843813 0.80015323,3.9504644 0.80819413,3.9160084 0.88006873,3.6080143 1.1271694,3.3631432 1.4801228,3.2501426 1.8757912,3.1234664 2.3413843,3.2103126 2.6327374,3.4651358 2.7809822,3.5947941 2.8746865,3.7488423 2.9120499,3.9243205 2.9291639,4.0046985 2.9293079,4.1305411 2.9123741,4.209702 2.8644261,4.4338765 2.7211122,4.628896 2.504353,4.764932 2.438757,4.8061 2.3091472,4.864812 2.231848,4.8883748 2.0941943,4.9303358 1.8992674,4.9533888 1.784366,4.9412958 Z"
       id="path20198" />
    <path
       style="fill:#d67300;fill-opacity:0.6;stroke:#3e84ad;stroke-width:0.00554682;stroke-opacity:0.607692"
       d="m 1.3168788,2.8303518 c -0.0019,-0.00664 -0.00349,-0.1900513 -0.00353,-0.407588 l -8.17e-5,-0.395521 H 1.881459 2.4496552 l -0.00168,0.4044623 C 2.447058,2.6541595 2.4444952,2.8378593 2.4422838,2.839927 2.4400738,2.841997 2.3974708,2.833797 2.3476208,2.821721 2.2079389,2.787869 2.1420263,2.779003 1.9766753,2.77182 1.743883,2.761708 1.5985258,2.77559 1.3805963,2.828755 c -0.030804,0.00751 -0.056964,0.013663 -0.058135,0.013663 -0.00117,0 -0.00369,-0.00543 -0.00559,-0.012066 z"
       id="path20276" />
    <path
       style="fill:#e57a00;fill-opacity:0.6;stroke:#ccf5ff;stroke-width:0.0167164;stroke-miterlimit:4;stroke-dasharray:none;stroke-opacity:0.9"
       d="m 2.7069073,1.3759457 c -0.017394,-0.00139 -0.019474,-0.00752 -0.019361,-0.057053 8.97e-5,-0.03912 0.00118,-0.044817 0.00925,-0.04816 0.00843,-0.00349 0.033084,-0.00385 0.3115285,-0.00447 0.1663078,-3.714e-4 0.3172438,-4.46e-5 0.3354137,7.246e-4 0.030063,0.00127 0.033389,0.00192 0.036955,0.00724 0.00506,0.00755 0.00512,0.087246 6.35e-5,0.094771 -0.00279,0.00415 -0.00845,0.00612 -0.020439,0.00711 -0.01826,0.00151 -0.6343335,0.00135 -0.6534127,-1.719e-4 z"
       id="path20315" />
    <path
       style="fill:#e57b00;fill-opacity:0.6;stroke:#ccf7ff;stroke-width:0.0208905;stroke-miterlimit:4;stroke-dasharray:none;stroke-opacity:0.896154"
       d="m 2.7650673,0.77317273 c -0.048191,-0.001954 -0.05183,-0.006574 -0.05183,-0.0658171 v -0.0513874 l 0.019321,-0.005848 c 0.015401,-0.004662 0.031395,-0.006199 0.078825,-0.007577 0.079833,-0.00232 0.8085598,-2.9576e-4 0.8245284,0.002292 0.020144,0.003263 0.023227,0.0122327 0.023227,0.0675797 0,0.046769 -0.00134,0.0526983 -0.012791,0.0567315 -0.01197,0.004212 -0.039802,0.004521 -0.4335384,0.004813 -0.2314105,1.704e-4 -0.4328942,-1.8344e-4 -0.447742,-7.867e-4 z"
       id="path20432" />
    <path
       style="fill:#e57b00;fill-opacity:0.6;stroke:#f9feff;stroke-width:0.00045294;stroke-miterlimit:4;stroke-dasharray:none;stroke-opacity:1"
       d="M 2.7905499,2.61692 C 2.7059039,2.61538 2.7039649,2.61394 2.7040359,2.552187 c 6.32e-5,-0.055471 0.00564,-0.071348 0.026636,-0.075938 0.031443,-0.00687 0.048513,-0.00719 0.4149504,-0.00778 0.1907999,-3.069e-4 0.3816188,9.97e-5 0.4252937,9.042e-4 0.071639,0.00132 0.080934,0.00183 0.097145,0.00538 0.017479,0.00382 0.018085,0.00461 0.024235,0.031657 0.00383,0.016862 0.00383,0.043035 -1.39e-5,0.066742 -0.00555,0.034268 -0.00782,0.039327 -0.018575,0.041679 -0.011463,0.0025 -0.038598,0.00268 -0.4225887,0.00284 -0.2256868,9.25e-5 -0.4329409,-2.47e-4 -0.4605647,-7.47e-4 z"
       id="path25140" />
    <path
       style="fill:#e57b00;fill-opacity:0.6;stroke:#ccf6ff;stroke-width:0.0193558;stroke-miterlimit:4;stroke-dasharray:none;stroke-opacity:0.9"
       d="m 2.7640394,1.9242586 c -0.00404,-2.427e-4 -0.0112,-6.796e-4 -0.01589,-9.717e-4 -0.00535,-3.309e-4 -0.010829,-0.00198 -0.014726,-0.00444 -0.00548,-0.00345 -0.00615,-0.00849 -0.00584,-0.043411 3.981e-4,-0.045697 0.00136,-0.047611 0.025503,-0.051085 0.014165,-0.00204 0.02198,-0.0021 0.2392181,-0.0021 0.1672766,0 0.2271078,3.264e-4 0.2345055,0.00127 0.00546,7.02e-4 0.012917,0.00257 0.016566,0.00417 0.00612,0.00268 0.00662,0.00621 0.00643,0.046655 -1.377e-4,0.029726 -0.00152,0.044637 -0.00431,0.046502 -0.00306,0.00205 -0.0077,0.00292 -0.018205,0.00341 -0.015365,7.302e-4 -0.451241,7.302e-4 -0.4632459,-1e-7 z"
       id="path25179" />
  </g>
</svg>
