<?xml version="1.0" encoding="UTF-8" standalone="no"?>
<!-- Generator: Adobe Illustrator 22.0.1, SVG Export Plug-In . SVG Version: 6.00 Build 0)  -->

<svg
   version="1.1"
   id="Layer_1"
   x="0px"
   y="0px"
   viewBox="0 0 70 70"
   xml:space="preserve"
   sodipodi:docname="westWind.svg"
   width="70"
   height="70"
   inkscape:version="1.1.1 (3bf5ae0d25, 2021-09-20)"
   xmlns:inkscape="http://www.inkscape.org/namespaces/inkscape"
   xmlns:sodipodi="http://sodipodi.sourceforge.net/DTD/sodipodi-0.dtd"
   xmlns="http://www.w3.org/2000/svg"
   xmlns:svg="http://www.w3.org/2000/svg"><defs
   id="defs7" /><sodipodi:namedview
   id="namedview5"
   pagecolor="#ffffff"
   bordercolor="#666666"
   borderopacity="1.0"
   inkscape:pageshadow="2"
   inkscape:pageopacity="0.0"
   inkscape:pagecheckerboard="0"
   showgrid="false"
   inkscape:zoom="7.1833332"
   inkscape:cx="60.835268"
   inkscape:cy="73.990721"
   inkscape:window-width="2400"
   inkscape:window-height="1321"
   inkscape:window-x="2391"
   inkscape:window-y="-9"
   inkscape:window-maximized="1"
   inkscape:current-layer="Layer_1"
   width="140px" />
<path
   d="m 34.517147,57.702213 c -4.39696,-0.243608 -8.408376,-1.521334 -12.013924,-3.811409 -3.605547,-2.290088 -6.391232,-5.27983 -8.357053,-8.969217 -1.965822,-3.689386 -2.814093,-7.627309 -2.56639,-11.814976 0.185472,-3.13558 1.010243,-6.111577 2.451516,-8.908543 1.441286,-2.796955 3.332344,-5.155081 5.610953,-7.11919 2.278632,-1.964099 4.962694,-3.471123 8.052189,-4.521071 3.08952,-1.049939 6.251403,-1.495672 9.570682,-1.311793 3.276161,0.181488 6.38639,0.974687 9.310365,2.357763 2.923962,1.383067 5.411571,3.197286 7.444925,5.379576 2.033346,2.182277 3.6112,4.753275 4.713261,7.691133 1.102056,2.937866 1.571722,5.964865 1.385027,9.121073 -0.18668,3.156231 -1.012679,6.152848 -2.453959,8.949816 -1.441288,2.796956 -3.333559,5.175699 -5.612171,7.139817 -2.278614,1.964117 -4.961452,3.450514 -8.009079,4.523458 -3.047631,1.072967 -6.228632,1.476237 -9.526342,1.293563 z m 0.302615,-5.115964 c 5.108227,0.282976 9.653228,-1.245134 13.63623,-4.604963 3.939879,-3.362233 6.044869,-7.509094 6.338944,-12.48064 0.192794,-3.259358 -0.468424,-6.338371 -2.007649,-9.196969 -1.53923,-2.858598 -3.692131,-5.213074 -6.505484,-7.003949 -2.813346,-1.79088 -5.911377,-2.790363 -9.316867,-2.979027 -3.40548,-0.188647 -6.622682,0.460992 -9.628834,1.929467 -3.006149,1.468483 -5.442963,3.548015 -7.310439,6.238583 -1.867471,2.690574 -2.886223,5.655814 -3.079012,8.915176 -0.192799,3.259358 0.468427,6.338373 2.007651,9.196975 1.539224,2.858589 3.71369,5.21427 6.525823,7.025768 2.812133,1.811497 5.934153,2.770923 9.339637,2.959579 z M 48.025367,43.197248 20.226059,33.896046 c -0.214313,-0.03262 -0.315978,-0.141689 -0.304979,-0.327359 0.01097,-0.185648 0.124856,-0.282832 0.341588,-0.29153 l 28.713263,-6.149795 c 0.241976,-0.06939 0.413186,-0.03919 0.5364,0.07111 0.123196,0.110324 0.113457,0.275339 -0.02952,0.495085 l -3.225407,7.002983 c -0.09843,0.201508 -0.110627,0.4078 -0.0354,0.598243 l 2.374904,7.375319 c 0.117117,0.213443 0.108574,0.357849 -0.02541,0.433216 -0.134219,0.07539 -0.333065,0.147124 -0.54616,0.09387 z"
   id="path2"
   style="fill:#2c4f54;fill-opacity:0.5;stroke:#2e3332;stroke-width:0.130212;stroke-miterlimit:4;stroke-dasharray:none;stroke-opacity:0.9" />
<path
   style="fill:#1f4347;fill-opacity:0.81;stroke:#e4e7e7;stroke-width:0.130212;stroke-miterlimit:4;stroke-dasharray:none;stroke-opacity:0.9"
   d="m 53.858942,37.301864 c -0.14393,0.87059 -0.370958,1.823637 -0.629034,2.640675 -1.451221,4.5942 -5.410523,8.738718 -10.226228,10.704586 -2.592207,1.058181 -4.848032,1.418446 -7.819767,1.248842 C 32.133679,51.721965 29.843108,51.078132 27.326227,49.687674 25.629841,48.7505 24.29808,47.722579 22.910951,46.27973 20.158097,43.416297 18.555044,40.14934 18.02918,36.331009 c -0.109516,-0.795185 -0.113652,-1.123123 -0.03586,-2.840215 0.09446,-2.08423 0.183268,-2.668786 0.632243,-4.161085 0.678141,-2.253811 2.091432,-4.713374 3.776634,-6.572464 0.687386,-0.758321 2.313121,-2.143757 3.198044,-2.725323 2.14165,-1.407523 4.508183,-2.370614 6.831437,-2.780114 1.713217,-0.301994 2.318324,-0.332093 4.358272,-0.216826 1.439042,0.08136 2.046994,0.14393 2.667468,0.274829 3.768228,0.794847 7.194072,2.719456 9.789545,5.499695 2.658164,2.847411 4.30964,6.389544 4.712207,10.10689 0.0928,0.856915 0.03018,3.596588 -0.10021,4.38548 z m -6.745403,1.570535 c -0.661917,-1.994427 -1.218546,-3.699195 -1.236954,-3.788371 -0.02274,-0.110048 0.482574,-1.326577 1.573464,-3.788154 0.925014,-2.087314 1.592179,-3.67926 1.572177,-3.751474 -0.04147,-0.14966 -0.309266,-0.2427 -0.581301,-0.201949 -0.108007,0.01619 -6.370785,1.368069 -13.91731,3.004193 -13.224118,2.867044 -13.723724,2.981214 -13.797334,3.152811 -0.05687,0.132628 -0.0511,0.204686 0.02291,0.282458 0.122429,0.128629 26.751911,9.122489 27.062364,9.139993 0.280492,0.01582 0.574492,-0.153526 0.534916,-0.308127 -0.01629,-0.0633 -0.571034,-1.746965 -1.23295,-3.741392 z"
   id="path861" /><rect
   style="fill:#c7485e;fill-opacity:1;stroke:#3c4343;stroke-width:0.559098;stroke-opacity:0.9"
   id="rect2803"
   width="6.0333233"
   height="0.073202334"
   x="-36.881248"
   y="31.403515"
   transform="matrix(0.00385141,-0.99999258,0.99992665,0.01211188,0,0)"
   inkscape:transform-center-x="-3.6371511"
   inkscape:transform-center-y="3.2918504" /><path
   style="fill:#cd425c;fill-opacity:1;stroke:#e27364;stroke-width:0.0439491;stroke-opacity:0.9"
   d="m 30.552786,36.874965 c -0.107307,-0.03491 -2.427987,-0.759585 -5.157118,-1.610449 -2.729129,-0.850862 -5.025253,-1.581419 -5.102478,-1.623445 -0.12151,-0.0662 10.13859,-2.201612 10.488253,-2.182961 0.09552,0.0048 0.108377,0.736597 0.04831,2.743598 -0.07659,2.559111 -0.09461,2.732558 -0.276938,2.673257 z"
   id="path3397"
   inkscape:transform-center-x="1.967627"
   inkscape:transform-center-y="2.9869758" /><text
   xml:space="preserve"
   style="font-size:11.517px;line-height:1.25;font-family:'Segoe Script';-inkscape-font-specification:'Segoe Script';fill:#16272a;fill-opacity:0.799714;stroke-width:0.287927"
   x="8.9043894"
   y="43.810238"
   id="text17884"
   transform="scale(1.3345982,0.74928919)"><tspan
     sodipodi:role="line"
     id="tspan17882"
     x="8.9043894"
     y="43.810238"
     style="stroke-width:0.287927">_</tspan></text><text
   xml:space="preserve"
   style="font-size:11.3457px;line-height:1.25;font-family:'Segoe Script';-inkscape-font-specification:'Segoe Script';fill:#16272a;fill-opacity:0.799714;stroke-width:0.283642"
   x="40.596718"
   y="42.871574"
   id="text17884-6"
   transform="scale(1.3147276,0.76061383)"><tspan
     sodipodi:role="line"
     id="tspan17882-2"
     x="40.596718"
     y="42.871574"
     style="stroke-width:0.283642">_</tspan></text><text
   xml:space="preserve"
   style="font-size:9.76842px;line-height:1.25;font-family:'Segoe Script';-inkscape-font-specification:'Segoe Script';fill:#16272a;fill-opacity:0.799714;stroke-width:0.244208"
   x="-46.939995"
   y="42.304974"
   id="text17884-0"
   transform="matrix(-0.0196959,-1.2703584,0.78639586,-0.05053928,0,0)"><tspan
     sodipodi:role="line"
     id="tspan17882-4"
     x="-46.939995"
     y="42.304974"
     style="stroke-width:0.244208">_</tspan></text><text
   xml:space="preserve"
   style="font-size:11.6302px;line-height:1.25;font-family:'Segoe Script';-inkscape-font-specification:'Segoe Script';fill:#16272a;fill-opacity:0.799714;stroke-width:0.290755"
   x="-13.798284"
   y="46.042423"
   id="text17884-9"
   transform="matrix(5.2186014e-4,-1.3099654,0.76337837,0.00142247,0,0)"><tspan
     sodipodi:role="line"
     id="tspan17882-7"
     x="-13.798284"
     y="46.042423"
     style="stroke-width:0.290755">_</tspan></text><text
   xml:space="preserve"
   style="font-size:15.2287px;line-height:1.25;font-family:'Segoe Script';-inkscape-font-specification:'Segoe Script';fill:#161616;fill-opacity:1;stroke-width:0.38072"
   x="42.562862"
   y="52.155293"
   id="text19318"
   transform="scale(1.40543,0.711526)"><tspan
     sodipodi:role="line"
     id="tspan19316"
     x="42.562862"
     y="52.155293"
     style="fill:#161616;fill-opacity:1;stroke-width:0.38072">в</tspan></text><text
   xml:space="preserve"
   style="font-size:12.6976px;line-height:1.25;font-family:'Segoe Script';-inkscape-font-specification:'Segoe Script';fill:#151515;fill-opacity:1;stroke-width:0.317436"
   x="33.879612"
   y="60.489414"
   id="text11307"
   transform="scale(0.89658976,1.1153373)"><tspan
     sodipodi:role="line"
     id="tspan11305"
     x="33.879612"
     y="60.489414"
     style="fill:#151515;fill-opacity:1;stroke-width:0.317436">ю</tspan></text><text
   xml:space="preserve"
   style="font-size:14.6241px;line-height:1.25;font-family:'Segoe Script';-inkscape-font-specification:'Segoe Script';fill:#131313;fill-opacity:1;stroke-width:0.365603"
   x="0.59979159"
   y="49.42062"
   id="text16794"
   transform="scale(1.3900002,0.71942436)"><tspan
     sodipodi:role="line"
     id="tspan16792"
     x="0.59979159"
     y="49.42062"
     style="fill:#131313;fill-opacity:1;stroke-width:0.365603">з</tspan></text><text
   xml:space="preserve"
   style="font-size:15.8974px;line-height:1.25;font-family:'Segoe Script';-inkscape-font-specification:'Segoe Script';fill:#0e0e0e;fill-opacity:1;stroke-width:0.39743"
   x="31.411095"
   y="9.8328362"
   id="text9344"
   transform="scale(1.0073858,0.99266836)"><tspan
     sodipodi:role="line"
     id="tspan9342"
     x="31.411095"
     y="9.8328362"
     style="fill:#0e0e0e;fill-opacity:1;stroke-width:0.39743">c</tspan></text></svg>
