<?xml version="1.0" encoding="UTF-8" standalone="no"?>
<!-- Generator: Adobe Illustrator 22.0.1, SVG Export Plug-In . SVG Version: 6.00 Build 0)  -->

<svg
   version="1.1"
   id="Layer_1"
   x="0px"
   y="0px"
   viewBox="0 0 70 70"
   xml:space="preserve"
   sodipodi:docname="westWind.svg"
   width="70"
   height="70"
   inkscape:version="1.1.1 (3bf5ae0d25, 2021-09-20)"
   xmlns:inkscape="http://www.inkscape.org/namespaces/inkscape"
   xmlns:sodipodi="http://sodipodi.sourceforge.net/DTD/sodipodi-0.dtd"
   xmlns="http://www.w3.org/2000/svg"
   xmlns:svg="http://www.w3.org/2000/svg"><defs
   id="defs7" /><sodipodi:namedview
   id="namedview5"
   pagecolor="#ffffff"
   bordercolor="#666666"
   borderopacity="1.0"
   inkscape:pageshadow="2"
   inkscape:pageopacity="0.0"
   inkscape:pagecheckerboard="0"
   showgrid="false"
   inkscape:zoom="7.1833332"
   inkscape:cx="60.974479"
   inkscape:cy="73.990721"
   inkscape:window-width="2400"
   inkscape:window-height="1321"
   inkscape:window-x="2391"
   inkscape:window-y="-9"
   inkscape:window-maximized="1"
   inkscape:current-layer="Layer_1"
   width="140px" />
<path
   d="m 34.517147,57.702213 c -4.39696,-0.243608 -8.408376,-1.521334 -12.013924,-3.811409 -3.605547,-2.290088 -6.391232,-5.27983 -8.357053,-8.969217 -1.965822,-3.689386 -2.814093,-7.627309 -2.56639,-11.814976 0.185472,-3.13558 1.010243,-6.111577 2.451516,-8.908543 1.441286,-2.796955 3.332344,-5.155081 5.610953,-7.11919 2.278632,-1.964099 4.962694,-3.471123 8.052189,-4.521071 3.08952,-1.049939 6.251403,-1.495672 9.570682,-1.311793 3.276161,0.181488 6.38639,0.974687 9.310365,2.357763 2.923962,1.383067 5.411571,3.197286 7.444925,5.379576 2.033346,2.182277 3.6112,4.753275 4.713261,7.691133 1.102056,2.937866 1.571722,5.964865 1.385027,9.121073 -0.18668,3.156231 -1.012679,6.152848 -2.453959,8.949816 -1.441288,2.796956 -3.333559,5.175699 -5.612171,7.139817 -2.278614,1.964117 -4.961452,3.450514 -8.009079,4.523458 -3.047631,1.072967 -6.228632,1.476237 -9.526342,1.293563 z m 0.302615,-5.115964 c 5.108227,0.282976 9.653228,-1.245134 13.63623,-4.604963 3.939879,-3.362233 6.044869,-7.509094 6.338944,-12.48064 0.192794,-3.259358 -0.468424,-6.338371 -2.007649,-9.196969 -1.53923,-2.858598 -3.692131,-5.213074 -6.505484,-7.003949 -2.813346,-1.79088 -5.911377,-2.790363 -9.316867,-2.979027 -3.40548,-0.188647 -6.622682,0.460992 -9.628834,1.929467 -3.006149,1.468483 -5.442963,3.548015 -7.310439,6.238583 -1.867471,2.690574 -2.886223,5.655814 -3.079012,8.915176 -0.192799,3.259358 0.468427,6.338373 2.007651,9.196975 1.539224,2.858589 3.71369,5.21427 6.525823,7.025768 2.812133,1.811497 5.934153,2.770923 9.339637,2.959579 z M 48.025367,43.197248 20.226059,33.896046 c -0.214313,-0.03262 -0.315978,-0.141689 -0.304979,-0.327359 0.01097,-0.185648 0.124856,-0.282832 0.341588,-0.29153 l 28.713263,-6.149795 c 0.241976,-0.06939 0.413186,-0.03919 0.5364,0.07111 0.123196,0.110324 0.113457,0.275339 -0.02952,0.495085 l -3.225407,7.002983 c -0.09843,0.201508 -0.110627,0.4078 -0.0354,0.598243 l 2.374904,7.375319 c 0.117117,0.213443 0.108574,0.357849 -0.02541,0.433216 -0.134219,0.07539 -0.333065,0.147124 -0.54616,0.09387 z"
   id="path2"
   style="fill:#2c4f54;fill-opacity:0.5;stroke:#2e3332;stroke-width:0.130212;stroke-miterlimit:4;stroke-dasharray:none;stroke-opacity:0.9" />
<path
   style="fill:#1f4347;fill-opacity:0.81;stroke:#e4e7e7;stroke-width:0.130212;stroke-miterlimit:4;stroke-dasharray:none;stroke-opacity:0.9"
   d="m 53.858942,37.301864 c -0.14393,0.87059 -0.370958,1.823637 -0.629034,2.640675 -1.451221,4.5942 -5.410523,8.738718 -10.226228,10.704586 -2.592207,1.058181 -4.848032,1.418446 -7.819767,1.248842 C 32.133679,51.721965 29.843108,51.078132 27.326227,49.687674 25.629841,48.7505 24.29808,47.722579 22.910951,46.27973 20.158097,43.416297 18.555044,40.14934 18.02918,36.331009 c -0.109516,-0.795185 -0.113652,-1.123123 -0.03586,-2.840215 0.09446,-2.08423 0.183268,-2.668786 0.632243,-4.161085 0.678141,-2.253811 2.091432,-4.713374 3.776634,-6.572464 0.687386,-0.758321 2.313121,-2.143757 3.198044,-2.725323 2.14165,-1.407523 4.508183,-2.370614 6.831437,-2.780114 1.713217,-0.301994 2.318324,-0.332093 4.358272,-0.216826 1.439042,0.08136 2.046994,0.14393 2.667468,0.274829 3.768228,0.794847 7.194072,2.719456 9.789545,5.499695 2.658164,2.847411 4.30964,6.389544 4.712207,10.10689 0.0928,0.856915 0.03018,3.596588 -0.10021,4.38548 z m -6.745403,1.570535 c -0.661917,-1.994427 -1.218546,-3.699195 -1.236954,-3.788371 -0.02274,-0.110048 0.482574,-1.326577 1.573464,-3.788154 0.925014,-2.087314 1.592179,-3.67926 1.572177,-3.751474 -0.04147,-0.14966 -0.309266,-0.2427 -0.581301,-0.201949 -0.108007,0.01619 -6.370785,1.368069 -13.91731,3.004193 -13.224118,2.867044 -13.723724,2.981214 -13.797334,3.152811 -0.05687,0.132628 -0.0511,0.204686 0.02291,0.282458 0.122429,0.128629 26.751911,9.122489 27.062364,9.139993 0.280492,0.01582 0.574492,-0.153526 0.534916,-0.308127 -0.01629,-0.0633 -0.571034,-1.746965 -1.23295,-3.741392 z"
   id="path861" /><rect
   style="fill:#c7485e;fill-opacity:1;stroke:#3c4343;stroke-width:0.559098;stroke-opacity:0.9"
   id="rect2803"
   width="6.0333233"
   height="0.073202334"
   x="-36.881248"
   y="31.403515"
   transform="matrix(0.00385141,-0.99999258,0.99992665,0.01211188,0,0)"
   inkscape:transform-center-x="-3.6371511"
   inkscape:transform-center-y="3.2918504" /><path
   style="fill:#cd425c;fill-opacity:1;stroke:#e27364;stroke-width:0.0439491;stroke-opacity:0.9"
   d="m 30.552786,36.874965 c -0.107307,-0.03491 -2.427987,-0.759585 -5.157118,-1.610449 -2.729129,-0.850862 -5.025253,-1.581419 -5.102478,-1.623445 -0.12151,-0.0662 10.13859,-2.201612 10.488253,-2.182961 0.09552,0.0048 0.108377,0.736597 0.04831,2.743598 -0.07659,2.559111 -0.09461,2.732558 -0.276938,2.673257 z"
   id="path3397"
   inkscape:transform-center-x="1.967627"
   inkscape:transform-center-y="2.9869758" /><text
   xml:space="preserve"
   style="font-size:11.517px;line-height:1.25;font-family:'Segoe Script';-inkscape-font-specification:'Segoe Script';fill:#16272a;fill-opacity:0.799714;stroke-width:0.287927"
   x="8.9043894"
   y="43.810238"
   id="text17884"
   transform="scale(1.3345982,0.74928919)"><tspan
     sodipodi:role="line"
     id="tspan17882"
     x="8.9043894"
     y="43.810238"
     style="stroke-width:0.287927">_</tspan></text><text
   xml:space="preserve"
   style="font-size:11.3457px;line-height:1.25;font-family:'Segoe Script';-inkscape-font-specification:'Segoe Script';fill:#16272a;fill-opacity:0.799714;stroke-width:0.283642"
   x="40.596718"
   y="42.871574"
   id="text17884-6"
   transform="scale(1.3147276,0.76061383)"><tspan
     sodipodi:role="line"
     id="tspan17882-2"
     x="40.596718"
     y="42.871574"
     style="stroke-width:0.283642">_</tspan></text><text
   xml:space="preserve"
   style="font-size:9.76842px;line-height:1.25;font-family:'Segoe Script';-inkscape-font-specification:'Segoe Script';fill:#16272a;fill-opacity:0.799714;stroke-width:0.244208"
   x="-46.939995"
   y="42.304974"
   id="text17884-0"
   transform="matrix(-0.0196959,-1.2703584,0.78639586,-0.05053928,0,0)"><tspan
     sodipodi:role="line"
     id="tspan17882-4"
     x="-46.939995"
     y="42.304974"
     style="stroke-width:0.244208">_</tspan></text><text
   xml:space="preserve"
   style="font-size:11.6302px;line-height:1.25;font-family:'Segoe Script';-inkscape-font-specification:'Segoe Script';fill:#16272a;fill-opacity:0.799714;stroke-width:0.290755"
   x="-13.798284"
   y="46.042423"
   id="text17884-9"
   transform="matrix(5.2186014e-4,-1.3099654,0.76337837,0.00142247,0,0)"><tspan
     sodipodi:role="line"
     id="tspan17882-7"
     x="-13.798284"
     y="46.042423"
     style="stroke-width:0.290755">_</tspan></text><g
   aria-label="в"
   transform="scale(1.40543,0.711526)"
   id="text19318"
   style="font-size:15.2287px;line-height:1.25;font-family:'Segoe Script';-inkscape-font-specification:'Segoe Script';fill:#161616;stroke-width:0.38072"><path
     d="m 48.333112,42.600176 q 0,-0.08923 -0.03718,-0.178462 -0.02974,-0.09667 -0.09667,-0.171025 -0.05949,-0.08179 -0.16359,-0.133846 -0.09667,-0.05205 -0.230512,-0.05205 -0.260256,0 -0.54282,0.185897 -0.275128,0.185897 -0.557692,0.513076 -0.275128,0.319744 -0.535384,0.765897 -0.260256,0.438717 -0.483332,0.951794 -0.223077,0.513076 -0.401538,1.078203 -0.171026,0.557692 -0.275128,1.12282 0.06692,-0.04462 0.200769,-0.141282 0.133846,-0.104103 0.297435,-0.230513 0.171026,-0.133846 0.356923,-0.282564 0.193333,-0.156153 0.364358,-0.304871 0.178462,-0.148718 0.32718,-0.282564 0.148717,-0.133846 0.237948,-0.230512 0.825384,-0.892307 1.182306,-1.546665 0.356923,-0.654358 0.356923,-1.063332 z m -0.230513,8.015888 q -0.230512,0.34205 -0.557691,0.66923 -0.319744,0.319743 -0.70641,0.565127 -0.386666,0.245384 -0.825383,0.386666 -0.431282,0.141282 -0.877435,0.104103 -0.312307,-0.02231 -0.594871,-0.200769 -0.282564,-0.185897 -0.498205,-0.520512 -0.215641,-0.342051 -0.342051,-0.83282 -0.12641,-0.490769 -0.12641,-1.130255 0,-0.408974 0.04462,-0.884871 0.04462,-0.483333 0.118974,-0.974101 0.07436,-0.490769 0.163589,-0.95923 0.09667,-0.468461 0.185898,-0.862563 0.118974,-0.535384 0.312307,-1.055896 0.193333,-0.527948 0.431281,-1.011281 0.237949,-0.490768 0.513077,-0.92205 0.275128,-0.431282 0.565127,-0.780768 0.401538,-0.468461 0.914615,-0.751025 0.520512,-0.282564 1.219485,-0.282564 0.29,0 0.527948,0.118974 0.237949,0.118975 0.408974,0.312308 0.171026,0.185897 0.260256,0.423845 0.09667,0.237949 0.09667,0.468461 0,0.319744 -0.133846,0.713846 -0.12641,0.386666 -0.371795,0.810511 -0.245384,0.423846 -0.594871,0.855128 -0.349486,0.431281 -0.79564,0.832819 0.104103,0.0074 0.237949,0.03718 0.141282,0.02231 0.289999,0.08923 0.156154,0.06692 0.312308,0.178462 0.163589,0.111538 0.312307,0.282563 0.06692,0.08179 0.148718,0.223077 0.08179,0.133846 0.148718,0.334615 0.07436,0.193333 0.118974,0.446153 0.05205,0.252821 0.05205,0.557692 0,0.594871 -0.215641,1.286409 -0.208205,0.684101 -0.743589,1.472306 z m -0.208205,-2.736407 q 0,-0.408974 -0.118974,-0.684102 -0.118974,-0.282564 -0.282564,-0.446153 -0.163589,-0.171026 -0.334614,-0.237949 -0.171026,-0.07436 -0.275128,-0.07436 -0.09667,0 -0.304872,0.148718 -0.208205,0.148718 -0.446153,0.327179 -0.178461,0.156154 -0.356923,0.29 -0.178461,0.133846 -0.334615,0.260256 -0.148718,0.12641 -0.275128,0.25282 -0.12641,0.12641 -0.208205,0.267692 -0.208204,0.37923 -0.245384,0.862563 -0.03718,0.483333 -0.03718,0.988973 0,0.334615 0.06692,0.602307 0.07436,0.260256 0.178461,0.446154 0.111538,0.185897 0.237948,0.289999 0.126411,0.09667 0.230513,0.09667 0.25282,0 0.572563,-0.104103 0.319744,-0.104102 0.654359,-0.408974 0.289999,-0.267692 0.520512,-0.602307 0.237948,-0.334614 0.401538,-0.706409 0.171025,-0.371794 0.260256,-0.773332 0.09667,-0.401538 0.09667,-0.79564 z"
     id="path5049" /></g><g
   aria-label="ю"
   transform="scale(0.89658976,1.1153373)"
   id="text11307"
   style="font-size:12.6976px;line-height:1.25;font-family:'Segoe Script';-inkscape-font-specification:'Segoe Script';fill:#151515;stroke-width:0.317436"><path
     d="m 35.541212,57.928814 q 0,-0.0248 -0.031,-0.0434 -0.0248,-0.0248 -0.062,-0.062 -0.0372,-0.0372 -0.0682,-0.0992 -0.0248,-0.062 -0.0248,-0.1736 0,-0.0992 0.0558,-0.1798 0.0558,-0.0806 0.1178,-0.1488 0.0682,-0.0682 0.124,-0.124 0.062,-0.0558 0.0744,-0.1054 0.1054,-0.5952 0.1798,-1.1222 0.0744,-0.527 0.093,-0.8804 0.0062,-0.1054 0,-0.217 0,-0.1116 -0.0062,-0.2232 -0.0062,-0.0806 -0.0124,-0.155 0,-0.0744 0,-0.1426 0,-0.0744 0.0558,-0.1674 0.0558,-0.093 0.1364,-0.1736 0.0868,-0.0806 0.186,-0.1302 0.1054,-0.0558 0.2046,-0.0558 0.0868,0 0.1736,0.0496 0.0868,0.0434 0.155,0.1302 0.0682,0.0806 0.1116,0.2046 0.0434,0.1178 0.0434,0.2666 0,0.1116 -0.0186,0.2728 -0.0186,0.1612 -0.0496,0.3534 -0.031,0.1922 -0.0744,0.403 -0.0372,0.2108 -0.0744,0.4216 -0.0496,0.2914 -0.0992,0.558 -0.0434,0.2666 -0.0682,0.4588 0.0248,0.0558 0.0434,0.0992 0.0248,0.0372 0.062,0.062 0.0372,0.0248 0.093,0.0372 0.062,0.0124 0.1612,0.0124 0.2666,0 0.5642,-0.0558 0.2976,-0.0558 0.5642,-0.1426 0.2666,-0.0868 0.4774,-0.1798 0.217,-0.0992 0.3224,-0.186 0.0682,-0.0558 0.1488,-0.1488 0.0868,-0.093 0.1736,-0.1984 0.0868,-0.1116 0.1674,-0.217 0.0868,-0.1116 0.1488,-0.1922 0.2108,-0.2666 0.4774,-0.5208 0.2666,-0.2542 0.589,-0.4464 0.3224,-0.1922 0.6944,-0.31 0.3782,-0.1178 0.8184,-0.1178 0.3348,0 0.6572,0.1674 0.3224,0.1612 0.5704,0.4402 0.2542,0.279 0.403,0.6448 0.155,0.3596 0.155,0.7564 0,0.3968 -0.0806,0.7254 -0.0744,0.3224 -0.2418,0.6882 -0.093,0.1922 -0.3224,0.4588 -0.2294,0.2666 -0.5518,0.5518 -0.3162,0.2852 -0.6944,0.5642 -0.3782,0.279 -0.7688,0.5022 -0.3906,0.2232 -0.7688,0.3596 -0.372,0.1364 -0.6758,0.1364 -0.4092,0 -0.7006,-0.1364 -0.2914,-0.1426 -0.4774,-0.3658 -0.186,-0.2294 -0.2728,-0.5208 -0.0868,-0.2914 -0.0868,-0.589 0,-0.2418 0.0682,-0.5828 0.0744,-0.3472 0.248,-0.7006 -0.2356,0.1488 -0.527,0.2356 -0.2852,0.0868 -0.527,0.155 -0.1054,0.031 -0.2356,0.0558 -0.1302,0.0186 -0.2604,0.0372 -0.124,0.0186 -0.2418,0.0372 -0.1116,0.0186 -0.1922,0.031 -0.124,0.0248 -0.1736,0.0992 -0.0434,0.0682 -0.0682,0.1798 -0.0248,0.1054 -0.0744,0.279 -0.0496,0.1736 -0.0992,0.3596 -0.0558,0.1984 -0.1178,0.4092 -0.062,0.2108 -0.1116,0.403 -0.0434,0.186 -0.0806,0.3472 -0.031,0.155 -0.031,0.2418 0,0.0806 -0.0682,0.1736 -0.062,0.093 -0.1488,0.1736 -0.0806,0.0868 -0.1674,0.1426 -0.0806,0.0558 -0.124,0.0558 -0.093,0 -0.1798,-0.062 -0.0806,-0.062 -0.1426,-0.1426 -0.062,-0.0806 -0.0992,-0.1612 -0.0372,-0.0868 -0.0372,-0.1302 0,-0.0558 0.0434,-0.1984 0.0496,-0.1426 0.0992,-0.2914 0.031,-0.093 0.0806,-0.2542 0.0496,-0.1612 0.0992,-0.3534 0.0558,-0.1984 0.1054,-0.4092 0.0558,-0.2108 0.0992,-0.3968 0.0434,-0.186 0.0682,-0.3224 0.0248,-0.1426 0.0248,-0.2046 z m 7.471,-1.4012 q 0,-0.62 -0.3596,-0.9672 -0.3534,-0.3534 -1.0168,-0.3534 -0.093,0 -0.2294,0.0744 -0.1364,0.0744 -0.2976,0.1922 -0.155,0.1116 -0.3162,0.248 -0.155,0.1364 -0.2976,0.2666 -0.1364,0.1302 -0.2356,0.2356 -0.0992,0.1054 -0.1364,0.1488 -0.1302,0.155 -0.2728,0.4278 -0.1364,0.2666 -0.2542,0.5766 -0.1178,0.31 -0.1984,0.6262 -0.0744,0.31 -0.0744,0.5456 0,0.1426 0.0372,0.2914 0.0434,0.1488 0.124,0.2728 0.0868,0.1178 0.217,0.1984 0.1302,0.0744 0.3038,0.0744 0.1922,0 0.4898,-0.1116 0.2976,-0.1116 0.6262,-0.31 0.3348,-0.1984 0.6696,-0.4712 0.341,-0.2728 0.6076,-0.589 0.2728,-0.3162 0.4402,-0.6634 0.1736,-0.3534 0.1736,-0.713 z"
     id="path4986" /></g><g
   aria-label="з"
   transform="scale(1.3900002,0.71942436)"
   id="text16794"
   style="font-size:14.6241px;line-height:1.25;font-family:'Segoe Script';-inkscape-font-specification:'Segoe Script';fill:#131313;stroke-width:0.365603"><path
     d="m 1.6494706,49.991874 q 0.071407,0 0.1142508,0.04998 0.049985,0.04998 0.078547,0.121391 0.028563,0.07855 0.035703,0.171376 0.014281,0.09283 0.014281,0.178517 0,0.164236 0.057125,0.357034 0.064266,0.192798 0.1999389,0.357033 0.1428135,0.164236 0.3641743,0.271346 0.2213609,0.114251 0.5426912,0.114251 0.4355811,0 0.8997249,-0.228502 0.4641438,-0.228501 0.8497402,-0.63552 0.3855964,-0.407018 0.6283793,-0.971131 0.2499236,-0.556973 0.2499236,-1.221056 0,-0.614097 -0.1285322,-1.042538 Q 5.426887,47.08562 5.2198075,46.821415 5.0198686,46.550069 4.7556637,46.428678 4.4914588,46.307286 4.2272538,46.307286 q -0.099969,0 -0.2213609,0.04998 -0.1213914,0.04284 -0.2499235,0.114251 -0.1213915,0.06427 -0.2499236,0.142813 -0.1213915,0.07855 -0.2213609,0.142814 -0.1713762,0.11425 -0.328471,0.192798 -0.1499541,0.07855 -0.3998777,0.07855 -0.1927982,0 -0.3356117,-0.142813 -0.1356728,-0.149954 -0.1356728,-0.392737 0,-0.185658 0.1285321,-0.31419 0.1356728,-0.128532 0.4141591,-0.242783 0.5926759,-0.242783 1.0568197,-0.492706 0.4712845,-0.257065 0.7926148,-0.549832 0.3213303,-0.299908 0.4927065,-0.656942 0.1713762,-0.357034 0.1713762,-0.814037 0,-0.178517 -0.057125,-0.349893 Q 5.03415,42.894044 4.9270398,42.758371 4.8199297,42.615558 4.6628349,42.52987 q -0.1499541,-0.09283 -0.349893,-0.09283 -0.4284404,0 -0.8140368,0.264205 -0.3855964,0.264205 -0.7569114,0.649801 -0.1642355,0.171376 -0.2713456,0.249924 -0.1071101,0.07141 -0.2285016,0.07141 -0.099969,0 -0.1785168,-0.04998 -0.071407,-0.05712 -0.1213915,-0.128532 -0.042844,-0.07855 -0.071407,-0.164236 -0.021422,-0.09283 -0.021422,-0.157095 0,-0.171376 0.092829,-0.32133 0.09997,-0.157095 0.264205,-0.292767 0.3570337,-0.299909 0.699786,-0.492707 0.3427523,-0.192798 0.5641132,-0.285627 0.2499236,-0.09997 0.5141285,-0.192798 0.2713456,-0.09283 0.5069879,-0.09283 0.3356116,0 0.6426606,0.121392 0.307049,0.11425 0.5355505,0.342752 0.2356422,0.221361 0.371315,0.549832 0.1428135,0.328471 0.1428135,0.74263 0,0.599816 -0.2927676,1.192492 -0.285627,0.592676 -0.9782723,1.149649 0.4784251,0.02142 0.8354588,0.242783 0.3570337,0.221361 0.5926759,0.585535 0.2427829,0.364174 0.3570337,0.8426 0.1213915,0.471284 0.1213915,0.999694 0,0.52841 -0.1428135,1.049679 -0.1428135,0.521269 -0.4070184,0.999694 -0.2570643,0.478425 -0.6212386,0.885444 -0.3570337,0.407018 -0.7926148,0.706926 -0.4284404,0.299909 -0.9211469,0.471285 -0.4855658,0.171376 -0.9996943,0.171376 -0.4927065,0 -0.8568809,-0.164235 Q 1.7137367,52.226905 1.4709538,51.984122 1.2353115,51.741339 1.1139201,51.462853 0.99252864,51.184366 0.99252864,50.948724 q 0,-0.178517 0.0642661,-0.385596 0.071407,-0.20708 0.1570948,-0.328471 0.057125,-0.07855 0.1642355,-0.164236 0.1071101,-0.07855 0.2713456,-0.07855 z"
     id="path5007" /></g><g
   aria-label="c"
   transform="scale(1.0073858,0.99266836)"
   id="text9344"
   style="font-size:15.8974px;line-height:1.25;font-family:'Segoe Script';-inkscape-font-specification:'Segoe Script';fill:#0e0e0e;stroke-width:0.39743"><path
     d="m 40.28352,6.6192016 q 0,0.2794465 -0.201822,0.5045561 -0.209585,0.2328721 -0.364833,0.3958826 -0.155248,0.155248 -0.294971,0.2872089 -0.139723,0.1319608 -0.294971,0.2561592 -0.155248,0.1164361 -0.364833,0.2716841 -0.589943,0.4269321 -1.125549,0.7219034 -0.535605,0.2872089 -1.040162,0.4735066 -0.504556,0.1785352 -1.001349,0.2561592 -0.489032,0.077624 -0.985826,0.077624 -0.520081,0 -0.931488,-0.1940601 Q 33.266309,9.4680032 32.9791,9.1264575 32.699653,8.7849118 32.552168,8.3346925 32.404682,7.8767108 32.404682,7.3721546 v -0.038812 q 0,-0.5123185 0.131961,-1.0867363 0.131961,-0.5821802 0.364833,-1.1643604 0.240634,-0.5821801 0.574418,-1.1410731 0.333783,-0.5666554 0.737428,-1.0556867 0.16301,-0.1940601 0.38812,-0.4114073 0.232872,-0.2251097 0.489031,-0.4114073 0.263922,-0.1862977 0.543369,-0.3027337 0.287208,-0.1241985 0.558892,-0.1241985 0.186298,0 0.357071,0.1164361 0.170773,0.1086736 0.318258,0.2872088 0.147486,0.1785353 0.271685,0.403645 0.124198,0.2173472 0.209584,0.4502193 0.08539,0.2251097 0.131961,0.4346945 0.04657,0.2095849 0.04657,0.3570705 0,0.2251097 -0.139724,0.5821802 -0.139723,0.3570705 -0.333783,0.3570705 -0.279446,0 -0.465744,-0.3803577 Q 36.518755,4.0964209 36.464419,3.9023608 36.417844,3.7083007 36.347983,3.5220031 36.285883,3.3357054 36.17721,3.1804574 36.068536,3.0174469 35.874476,2.9398229 q -0.19406,0.046574 -0.395883,0.2018225 -0.19406,0.155248 -0.38812,0.3803577 -0.186297,0.2251097 -0.372595,0.5123185 -0.178535,0.2794465 -0.341546,0.5821802 -0.155248,0.2794465 -0.302733,0.6442794 -0.147486,0.3570705 -0.263922,0.7451906 -0.116436,0.3803577 -0.186298,0.7607154 -0.06986,0.3803578 -0.06986,0.6986163 0,0.2251096 0.108673,0.4579817 0.108674,0.2251097 0.279447,0.4114073 0.178535,0.1862977 0.395882,0.3027337 0.22511,0.116436 0.457982,0.116436 1.148836,0 2.282146,-0.4735065 1.133311,-0.4735065 2.157948,-1.3739452 0.566656,-0.4967938 0.939251,-0.4967938 0.108673,0 0.108673,0.2095849 z"
     id="path5028" /></g></svg>
