<?xml version="1.0" encoding="UTF-8" standalone="no"?>
<!-- Created with Inkscape (http://www.inkscape.org/) -->

<svg
   width="20"
   height="20"
   viewBox="0 0 5.2916665 5.2916669"
   version="1.1"
   id="svg3335"
   inkscape:version="1.1.1 (3bf5ae0d25, 2021-09-20)"
   sodipodi:docname="hurricaneWind.svg"
   xmlns:inkscape="http://www.inkscape.org/namespaces/inkscape"
   xmlns:sodipodi="http://sodipodi.sourceforge.net/DTD/sodipodi-0.dtd"
   xmlns="http://www.w3.org/2000/svg"
   xmlns:svg="http://www.w3.org/2000/svg">
  <sodipodi:namedview
     id="namedview3337"
     pagecolor="#ffffff"
     bordercolor="#666666"
     borderopacity="1.0"
     inkscape:pageshadow="2"
     inkscape:pageopacity="0.0"
     inkscape:pagecheckerboard="0"
     inkscape:document-units="mm"
     showgrid="false"
     units="px"
     inkscape:zoom="24.573288"
     inkscape:cx="24.0912"
     inkscape:cy="16.542353"
     inkscape:window-width="2400"
     inkscape:window-height="1321"
     inkscape:window-x="2391"
     inkscape:window-y="-9"
     inkscape:window-maximized="1"
     inkscape:current-layer="layer1" />
  <defs
     id="defs3332" />
  <g
     inkscape:label="Слой 1"
     inkscape:groupmode="layer"
     id="layer1">
    <path
       style="fill:#6285ac;fill-opacity:1;stroke:#e4e7e7;stroke-width:0.0764873;stroke-miterlimit:4;stroke-dasharray:none;stroke-opacity:0.9"
       d="M 3.2066493,5.1780712 C 3.1177498,5.1574949 3.0115766,5.1127645 2.940893,5.0661066 2.8207387,4.9867937 2.7114006,4.8549849 2.6619446,4.7298298 2.6320745,4.6542401 2.6128512,4.5203831 2.6223268,4.4539617 l 0.00316,-0.022185 0.1864252,0.019567 0.1864252,0.019567 0.0018,0.011703 c 9.873e-4,0.00643 0.00101,0.017469 5.1e-5,0.024516 -0.00334,0.024416 0.00688,0.074918 0.024275,0.120035 0.025279,0.065564 0.083017,0.1301964 0.152918,0.1711776 0.1104131,0.064732 0.2319827,0.077474 0.3571707,0.037433 0.046672,-0.014926 0.067398,-0.025336 0.1119349,-0.05621 0.09021,-0.062538 0.1334392,-0.1310448 0.1482625,-0.2349519 0.00921,-0.064564 0.00306,-0.1114307 -0.022821,-0.1740331 C 3.7398988,4.2931161 3.6558683,4.2144375 3.5679699,4.1796102 3.5233913,4.1619476 3.2014528,4.1243959 2.1088876,4.0094207 L 1.1125514,3.9045666 1.1362853,3.7381957 1.1600191,3.571825 2.3836184,3.7002398 3.6072176,3.8286546 3.6751766,3.8532636 C 3.8304154,3.9094786 3.9297852,3.976374 4.0238822,4.0880105 4.1143692,4.195364 4.1633549,4.3094191 4.1779463,4.446722 4.1861363,4.52375 4.1681863,4.6491446 4.1383833,4.723175 4.0858368,4.8536977 4.0046918,4.9540331 3.8812923,5.0410687 3.7482972,5.1348725 3.6139559,5.1824929 3.449498,5.1941284 3.3833663,5.1988078 3.2614044,5.1907442 3.2066473,5.1780709 Z"
       id="path2995" />
    <path
       style="fill:#6285ac;fill-opacity:1;stroke:#e4e7e7;stroke-width:0.0803129;stroke-miterlimit:4;stroke-dasharray:none;stroke-opacity:0.9"
       d="M 0.52244117,3.6387438 0.5407365,3.4770038 0.75265089,3.507323 0.96456528,3.5376422 0.94626979,3.6993821 0.9279743,3.861122 0.71605984,3.8308028 0.50414561,3.8004837 Z"
       id="path3034"
       inkscape:transform-center-x="-0.02650358"
       inkscape:transform-center-y="-0.043216398" />
    <path
       style="fill:#6285ac;fill-opacity:1;stroke:#e4e7e7;stroke-width:0.0875765;stroke-miterlimit:4;stroke-dasharray:none;stroke-opacity:0.9"
       d="m 4.4305789,4.0844964 5.4e-6,-0.2237079 0.1184262,-0.00494 c 0.1136778,-0.00474 0.1197599,-0.00569 0.1516858,-0.02378 0.041897,-0.023732 0.073112,-0.060872 0.093964,-0.1117978 0.014643,-0.03576 0.01627,-0.046492 0.016268,-0.1072292 -2.8e-6,-0.060778 -0.00157,-0.071039 -0.015687,-0.1031552 -0.020806,-0.047305 -0.052571,-0.084278 -0.093862,-0.1092433 l -0.033812,-0.020444 -1.0947218,-1.7e-6 c -0.6020964,-5.2e-6 -1.6177015,-0.00203 -2.2568997,-0.0045 L 0.15376673,3.371209 V 3.1496067 2.9280043 H 2.4290437 4.7043206 l 0.056124,0.020981 c 0.1058795,0.039581 0.1791617,0.089214 0.2468386,0.1671823 0.07376,0.084976 0.1227821,0.1779949 0.1551561,0.294401 0.086845,0.3122673 -0.039797,0.6680721 -0.2917232,0.8196212 -0.094768,0.057009 -0.1668846,0.073043 -0.3429373,0.076246 l -0.097206,0.00177 z"
       id="path2956" />
    <path
       style="fill:#6285ac;fill-opacity:1;stroke:#e4e7e7;stroke-width:0.0715206;stroke-miterlimit:4;stroke-dasharray:none;stroke-opacity:0.9"
       d="m 4.5078602,1.8614423 -5.004e-4,0.1658715 0.1059077,0.00414 c 0.1017576,0.00397 0.1070776,0.00471 0.1357735,0.018369 0.05811,0.027672 0.094063,0.079931 0.099285,0.1443098 0.00299,0.036872 -0.00624,0.080338 -0.022623,0.1066412 -0.016372,0.026269 -0.050075,0.056838 -0.078301,0.071017 L 4.718489,2.3863158 4.2680176,2.3843458 C 4.020259,2.3832688 3.5808367,2.3828441 3.2915241,2.383422 l -0.5260231,0.00104 -4.957e-4,0.1650515 -4.956e-4,0.1650577 0.9019179,0.00359 c 0.4960546,0.00198 0.9496047,0.002 1.007889,4.35e-5 0.096665,-0.00324 0.1095198,-0.00476 0.1463787,-0.017239 0.1172362,-0.039721 0.2163329,-0.1136094 0.2781622,-0.2074091 0.029558,-0.044829 0.044166,-0.074696 0.06384,-0.130421 l 0.016829,-0.04768 4.91e-4,-0.1005372 C 5.1805565,2.1050218 5.1787438,2.0943321 5.1457118,2.0155979 5.1103669,1.9312799 5.0354206,1.8386053 4.9628167,1.7894414 4.9169177,1.7583593 4.8452201,1.7254109 4.795699,1.7126403 4.7598162,1.7033855 4.733682,1.7011643 4.6307126,1.6986071 L 4.508362,1.6955774 4.5078616,1.8614469 Z"
       id="path2917" />
    <path
       style="fill:#6285ac;fill-opacity:1;stroke:#e4e7e7;stroke-width:0.0632624;stroke-miterlimit:4;stroke-dasharray:none;stroke-opacity:0.9"
       d="M 1.0118205,2.5477318 V 2.3929176 H 1.7567014 2.5015821 V 2.5477318 2.7025459 H 1.7567014 1.0118205 Z"
       id="path2878" />
    <path
       style="fill:#6285ac;fill-opacity:1;stroke:#e4e7e7;stroke-width:0.0419913;stroke-miterlimit:4;stroke-dasharray:none;stroke-opacity:0.9"
       d="M 0.21521273,2.5535774 V 2.4074767 H 0.46134639 0.70748004 V 2.5535774 2.6996783 H 0.46134639 0.21521273 Z"
       id="path2839" />
    <path
       style="fill:#6285ac;fill-opacity:1;stroke:#e4e7e7;stroke-width:0.0820969;stroke-miterlimit:4;stroke-dasharray:none;stroke-opacity:0.9"
       d="M 0.11435627,1.9703042 0.09435786,1.7492653 2.1727377,1.5766082 C 4.2222999,1.4063449 4.2516792,1.4037255 4.2916353,1.3876951 4.4973379,1.3051677 4.5951961,1.0244854 4.5021972,0.78375022 4.476329,0.71678828 4.4472367,0.67216157 4.3946881,0.61883397 4.3120575,0.53497819 4.2257581,0.50055334 4.1200932,0.50929799 c -0.06537,0.00541 -0.1131861,0.022604 -0.1627129,0.0585096 -0.074252,0.05383 -0.1279171,0.13281403 -0.1552234,0.22845438 -0.014278,0.0500096 -0.023759,0.1270215 -0.020318,0.16504551 l 0.00209,0.0230899 -0.1848768,0.0153591 -0.1848768,0.0153584 -0.00168,-0.0604303 C 3.4064323,0.7349095 3.4680908,0.52606251 3.5879308,0.36049269 3.6429426,0.28448853 3.6950556,0.23201387 3.7633277,0.18387831 3.9923721,0.02238923 4.2769358,0.0252836 4.5186473,0.19156081 4.5816861,0.23492611 4.6818749,0.33762684 4.7289408,0.40712667 4.8292263,0.55521373 4.8846723,0.71196517 4.9014522,0.89483449 4.9180858,1.0761893 4.8927393,1.2382284 4.8225613,1.399042 4.7336759,1.6027238 4.5881604,1.7440742 4.3862353,1.8228791 4.3516401,1.83638 4.2184908,1.848267 2.2418528,2.0143088 L 0.13435477,2.1913444 Z"
       id="path2455" />
  </g>
</svg>
