<?xml version="1.0" encoding="UTF-8" standalone="no"?>
<!-- Created with Inkscape (http://www.inkscape.org/) -->

<svg
   width="20"
   height="20"
   viewBox="0 0 5.2916659 5.291666"
   version="1.1"
   id="svg15674"
   inkscape:version="1.1.1 (3bf5ae0d25, 2021-09-20)"
   sodipodi:docname="strongWind.svg"
   xmlns:inkscape="http://www.inkscape.org/namespaces/inkscape"
   xmlns:sodipodi="http://sodipodi.sourceforge.net/DTD/sodipodi-0.dtd"
   xmlns="http://www.w3.org/2000/svg"
   xmlns:svg="http://www.w3.org/2000/svg">
  <sodipodi:namedview
     id="namedview15676"
     pagecolor="#ffffff"
     bordercolor="#666666"
     borderopacity="1.0"
     inkscape:pageshadow="2"
     inkscape:pageopacity="0.0"
     inkscape:pagecheckerboard="0"
     inkscape:document-units="mm"
     showgrid="false"
     units="px"
     inkscape:zoom="17.375939"
     inkscape:cx="26.933796"
     inkscape:cy="21.207487"
     inkscape:window-width="2400"
     inkscape:window-height="1321"
     inkscape:window-x="2391"
     inkscape:window-y="-9"
     inkscape:window-maximized="1"
     inkscape:current-layer="layer1"
     height="35px" />
  <defs
     id="defs15671" />
  <g
     inkscape:label="Слой 1"
     inkscape:groupmode="layer"
     id="layer1">
    <path
       style="fill:#6585aa;fill-opacity:1;stroke:#e4e7e7;stroke-width:0.111807;stroke-miterlimit:4;stroke-dasharray:none;stroke-opacity:0.9"
       d="M 4.171558,5.1500085 C 4.0996448,5.1207765 4.0118385,5.0664583 3.9460916,5.0103381 3.887026,4.9599044 3.8034913,4.8542247 3.7879231,4.8101393 3.7467908,4.693637 3.8089479,4.5550884 3.9267769,4.5004902 c 0.031567,-0.01466 0.051712,-0.017858 0.092476,-0.014842 0.072375,0.00536 0.093644,0.016306 0.1633179,0.079596 0.033468,0.030723 0.073426,0.062631 0.088786,0.071035 0.071514,0.039167 0.1991635,0.043924 0.271932,0.010746 C 4.5932298,4.6238792 4.656466,4.5656182 4.682171,4.5189837 4.703366,4.4805837 4.727434,4.3582632 4.72372,4.3077995 4.71747,4.2228275 4.646156,4.1044795 4.5705301,4.053559 L 4.5336136,4.0286729 2.3903422,3.8642314 0.24706993,3.6997895 0.21634831,3.6795834 C 0.17408949,3.6518427 0.10598405,3.5681561 0.08997295,3.524237 0.07221259,3.4755705 0.07828961,3.3772477 0.10202078,3.3294709 c 0.0215481,-0.043414 0.0710043,-0.095429 0.11624211,-0.122404 l 0.0356905,-0.021269 2.18108771,0.1613794 2.1810877,0.1613794 0.057153,0.025209 c 0.2278926,0.1005487 0.402426,0.2896867 0.4832653,0.5235697 0.041601,0.1203576 0.048983,0.1891196 0.03806,0.3543385 -0.00846,0.1280224 -0.012527,0.1553476 -0.031745,0.2127414 C 5.089297,4.844261 4.9215435,5.0342105 4.7185072,5.1275831 4.5992002,5.1823996 4.5035315,5.1959498 4.3303454,5.1823156 4.251425,5.1761011 4.2230635,5.1697028 4.1715993,5.1493514 Z"
       id="path14726"
       inkscape:transform-center-x="2.9167067"
       inkscape:transform-center-y="-3.0659423" />
    <path
       style="fill:#6585aa;fill-opacity:1;stroke:#e4e7e7;stroke-width:0.0936729;stroke-miterlimit:4;stroke-dasharray:none;stroke-opacity:0.9"
       d="M 0.21536185,2.9845787 C 0.18002371,2.9717952 0.15227426,2.9479617 0.12257834,2.9049531 0.08771829,2.8543609 0.07492078,2.8112439 0.07508222,2.7449218 0.07531543,2.6459044 0.11859329,2.5577528 0.18798085,2.5148958 l 0.0364155,-0.022534 2.20031865,-0.00432 2.2003178,-0.00433 0.033327,-0.021883 C 4.7243414,2.4184782 4.7560832,2.3560777 4.7675344,2.2601587 4.7915636,2.0589494 4.6753898,1.8703614 4.5266185,1.9027533 4.4825904,1.9125033 4.4486602,1.9347119 4.4128961,1.9777205 4.3389879,2.0665546 4.2425602,2.0795547 4.16514,2.0109791 4.091094,1.9453285 4.0659027,1.8047975 4.1070825,1.686984 4.1291701,1.6238251 4.2254638,1.5186544 4.30955,1.4659498 c 0.088781,-0.055684 0.1248659,-0.065001 0.2513741,-0.065109 0.1044056,-7.6e-5 0.1137478,0.00108 0.1632025,0.02145 0.1693469,0.069442 0.3058407,0.2226594 0.3841228,0.4312894 0.071737,0.1911882 0.076483,0.4466512 0.01209,0.6510886 C 5.0580844,2.7023463 4.9120457,2.880686 4.7547313,2.9511467 4.652657,2.9968637 4.7911223,2.9943717 2.4188879,2.9938307 0.7182797,2.9934624 0.23608177,2.9916607 0.21536715,2.9840807 Z"
       id="path974"
       sodipodi:nodetypes="cssscccsssssssscsssccc" />
    <path
       style="fill:#6585aa;fill-opacity:1;stroke:#e4e7e7;stroke-width:0.109003;stroke-miterlimit:4;stroke-dasharray:none;stroke-opacity:0.9"
       d="m 3.7909275,0.14057553 c -0.065349,0.0322691 -0.1439497,0.0905647 -0.201816,0.14988453 -0.051985,0.0533082 -0.1233093,0.16354619 -0.1350422,0.2088317 -0.030998,0.11967143 0.035986,0.25794118 0.1495877,0.30903518 0.030442,0.0137211 0.049477,0.0162319 0.087388,0.011689 0.067307,-0.008069 0.086488,-0.0199485 0.147566,-0.0866855 0.029319,-0.0323846 0.064628,-0.0662036 0.078448,-0.0752872 0.064341,-0.0423329 0.183353,-0.0518031 0.2534922,-0.0208014 0.048157,0.0216589 0.1109938,0.0784554 0.1380022,0.12482264 0.022268,0.0381805 0.052587,0.16137836 0.052341,0.21270135 C 4.3604791,1.0611836 4.3013964,1.183826 4.2339631,1.2382309 l -0.032917,0.026585 -1.992834,0.2448488 -1.99283385,0.2448489 -0.0274234,0.021615 c -0.037729,0.029678 -0.09603479,0.1170452 -0.10819253,0.1621775 -0.01348768,0.050011 -0.0015234,0.149524 0.0237045,0.1971232 0.0229159,0.043253 0.0724704,0.094213 0.1164797,0.1199273 l 0.0347208,0.020274 2.02837588,-0.24312 2.0283769,-0.2431202 0.051807,-0.027651 C 4.5698132,1.65145 4.7208597,1.4532425 4.7814659,1.21306 4.8126538,1.0894607 4.8151572,1.0194434 4.7943867,0.85225129 4.7782931,0.72269938 4.7727771,0.69512658 4.7511126,0.63761293 4.6682926,0.4172923 4.4993472,0.23072568 4.3035958,0.14340726 4.1885732,0.09214871 4.0982835,0.08188779 3.9372753,0.10202453 c -0.073371,0.009177 -0.099471,0.0167027 -0.1462747,0.0392168 z"
       id="path14726-8"
       inkscape:transform-center-x="2.5096753"
       inkscape:transform-center-y="3.2264654" />
  </g>
</svg>
