<?xml version="1.0" encoding="UTF-8" standalone="no"?>
<!-- Created with Inkscape (http://www.inkscape.org/) -->

<svg
   width="10.6"
   height="15"
   viewBox="0 0 2.8045835 3.9687509"
   version="1.1"
   id="svg2249"
   inkscape:version="1.1.1 (3bf5ae0d25, 2021-09-20)"
   sodipodi:docname="tempMinus.svg"
   xmlns:inkscape="http://www.inkscape.org/namespaces/inkscape"
   xmlns:sodipodi="http://sodipodi.sourceforge.net/DTD/sodipodi-0.dtd"
   xmlns="http://www.w3.org/2000/svg"
   xmlns:svg="http://www.w3.org/2000/svg">
  <sodipodi:namedview
     id="namedview2251"
     pagecolor="#ffffff"
     bordercolor="#666666"
     borderopacity="1.0"
     inkscape:pageshadow="2"
     inkscape:pageopacity="0.0"
     inkscape:pagecheckerboard="0"
     inkscape:document-units="px"
     showgrid="false"
     units="px"
     inkscape:zoom="12.286644"
     inkscape:cx="13.266438"
     inkscape:cy="15.58603"
     inkscape:window-width="2400"
     inkscape:window-height="1321"
     inkscape:window-x="2391"
     inkscape:window-y="-9"
     inkscape:window-maximized="1"
     inkscape:current-layer="layer1"
     height="35px" />
  <defs
     id="defs2246">
    <clipPath
       clipPathUnits="userSpaceOnUse"
       id="clipPath1825">
      <path
         d="m 7278.53,6813.28 h 20.78 v -5.79 h -20.78 z"
         id="path1823" />
    </clipPath>
  </defs>
  <g
     inkscape:label="Слой 1"
     inkscape:groupmode="layer"
     id="layer1"
     style="display:inline">
    <g
       id="g1799"
       transform="matrix(0.05747735,0,0,-0.0491462,1.2971449,2.5298035)"
       style="fill:#e1ebeb;fill-opacity:1">
      <path
         d="m 0,0 c 3.832,0 7.39,-1.134 10.39,-3.063 v 45.73 c 0,4.019 -3.287,7.305 -7.306,7.305 h -6.17 c -4.018,0 -7.305,-3.286 -7.305,-7.305 V -3.065 C -7.393,-1.134 -3.832,0 0,0"
         style="fill:#e1ebeb;fill-opacity:1;fill-rule:nonzero;stroke:none"
         id="path1801" />
    </g>
    <g
       id="g1803"
       transform="matrix(0.05355949,0,0,-0.04358469,2.3087838,3.0306478)"
       style="fill:#e0ebeb;fill-opacity:1">
      <path
         d="m 0,0 c 0,-10.623 -8.612,-19.235 -19.236,-19.235 -10.625,0 -19.239,8.612 -19.239,19.235 0,10.625 8.614,19.239 19.239,19.239 C -8.612,19.239 0,10.625 0,0"
         style="fill:#e0ebeb;fill-opacity:1;fill-rule:nonzero;stroke:none"
         id="path1805" />
    </g>
    <g
       id="g1819"
       transform="matrix(0.05747735,0,0,-0.04358469,-417.65842,299.02824)">
      <g
         id="g1821" />
      <g
         id="g1833">
        <g
           clip-path="url(#clipPath1825)"
           opacity="0.199997"
           id="g1831">
          <g
             transform="translate(7288.918,6813.2813)"
             id="g1829">
            <path
               d="m 0,0 c -3.759,0 -7.296,-0.948 -10.391,-2.611 v -3.178 c 2.998,1.932 6.559,3.065 10.391,3.065 3.832,0 7.39,-1.133 10.39,-3.063 v 3.176 C 7.295,-0.948 3.758,0 0,0"
               style="fill:#122c3d;fill-opacity:1;fill-rule:nonzero;stroke:none"
               id="path1827" />
          </g>
        </g>
      </g>
    </g>
    <g
       id="g1835"
       transform="matrix(0.07477481,0,0,-0.02740678,2.7479809,0.58123586)"
       style="fill:#e0ebeb;fill-opacity:1">
      <path
         d="m 0,0 c 0,-0.353 -0.287,-0.642 -0.64,-0.642 h -9.46 c -0.353,0 -0.64,0.289 -0.64,0.642 v 3.687 c 0,0.353 0.287,0.642 0.64,0.642 h 9.46 C -0.287,4.329 0,4.04 0,3.687 Z"
         style="fill:#e0ebeb;fill-opacity:1;fill-rule:nonzero;stroke:none"
         id="path1837" />
    </g>
    <g
       id="g1839"
       transform="matrix(0.0981116,0,0,-0.02329401,2.527085,1.025287)"
       style="fill:#e0ebeb;fill-opacity:1">
      <path
         d="m 0,0 c 0,-0.353 -0.287,-0.64 -0.641,-0.64 h -4.81 c -0.354,0 -0.641,0.287 -0.641,0.64 v 3.687 c 0,0.353 0.287,0.642 0.641,0.642 h 4.81 C -0.287,4.329 0,4.04 0,3.687 Z"
         style="fill:#e0ebeb;fill-opacity:1;fill-rule:nonzero;stroke:none"
         id="path1841" />
    </g>
    <g
       id="g1843"
       transform="matrix(0.07552132,0,0,-0.02304335,2.4204274,1.4305481)"
       style="fill:#e0eaea;fill-opacity:1">
      <path
         d="m 0,0 c 0,-0.353 -0.287,-0.642 -0.641,-0.642 h -4.81 c -0.354,0 -0.641,0.289 -0.641,0.642 v 3.687 c 0,0.353 0.287,0.64 0.641,0.64 h 4.81 C -0.287,4.327 0,4.04 0,3.687 Z"
         style="fill:#e0eaea;fill-opacity:1;fill-rule:nonzero;stroke:none"
         id="path1845" />
    </g>
    <g
       id="g1847"
       transform="matrix(0.07719915,0,0,-0.02883451,2.7662777,1.932796)"
       style="fill:#e0eaea;fill-opacity:1">
      <path
         d="m 0,0 c 0,-0.353 -0.287,-0.642 -0.64,-0.642 h -9.46 c -0.353,0 -0.64,0.289 -0.64,0.642 v 3.687 c 0,0.353 0.287,0.642 0.64,0.642 h 9.46 C -0.287,4.329 0,4.04 0,3.687 Z"
         style="fill:#e0eaea;fill-opacity:1;fill-rule:nonzero;stroke:none"
         id="path1849" />
    </g>
    <path
       style="fill:#4ba0cb;fill-opacity:0.796853;stroke:#3e84ad;stroke-width:0.00410542;stroke-opacity:0.607692"
       d="M 1.222381,3.6491146 C 1.215341,3.6483821 1.189432,3.6457746 1.164801,3.6433546 1.0837101,3.6353391 0.96802162,3.6038729 0.8939604,3.569688 0.70729487,3.4835279 0.574658,3.3471187 0.51650873,3.1815014 0.49218582,3.1122256 0.48875814,3.0901918 0.48883108,3.0035685 0.48888106,2.9440317 0.49065469,2.919041 0.49663242,2.8936528 0.5500683,2.6667135 0.73377835,2.4862851 0.99618563,2.4030229 1.2903499,2.309684 1.6365005,2.3736749 1.8531104,2.5614363 1.9633247,2.6569723 2.0329903,2.7704798 2.0607685,2.8997774 2.0734925,2.9590014 2.0735995,3.0517268 2.0610096,3.110055 2.0253626,3.2752334 1.9188137,3.4189297 1.7576615,3.519165 1.7088925,3.549498 1.6125336,3.592759 1.5550645,3.610121 1.4527243,3.641039 1.3078036,3.658025 1.2223789,3.649115 Z"
       id="path20198" />
    <path
       style="fill:#4ea2cb;fill-opacity:0.8;stroke:#3e84ad;stroke-width:0.00425292;stroke-opacity:0.607692"
       d="m 0.8560634,2.0937084 c -0.00152,-0.00489 -0.002786,-0.1400354 -0.00282,-0.300323 L 0.85317847,1.5019537 H 1.3065113 1.7598441 l -0.00134,0.29802 c -7.314e-4,0.163911 -0.00278,0.2992665 -0.00454,0.3007901 -0.00176,0.00152 -0.035752,-0.00451 -0.075524,-0.013414 -0.1114446,-0.024942 -0.1640326,-0.031476 -0.2959573,-0.036769 -0.1857323,-0.00745 -0.3017049,0.00278 -0.475579,0.041952 -0.0245776,0.00554 -0.0454486,0.010067 -0.0463822,0.010067 -9.3673e-4,0 -0.002939,-0.004 -0.004459,-0.00889 z"
       id="path20276" />
    <path
       style="fill:#4ea2cb;fill-opacity:0.8;stroke:#ccf5ff;stroke-width:0.0128169;stroke-miterlimit:4;stroke-dasharray:none;stroke-opacity:0.9"
       d="m 1.9650916,1.0220586 c -0.013878,-0.00102 -0.015538,-0.00554 -0.015447,-0.042038 7.17e-5,-0.028825 9.432e-4,-0.0330225 0.00738,-0.035486 0.00672,-0.002573 0.026396,-0.002838 0.2485517,-0.003285 0.1326879,-2.7367e-4 0.2531116,-3.292e-5 0.2676083,5.341e-4 0.023986,9.3092e-4 0.026639,0.001415 0.029484,0.005336 0.00404,0.005563 0.00408,0.0642852 5.07e-5,0.0698306 -0.00223,0.00306 -0.00674,0.00451 -0.016307,0.00524 -0.014569,0.00111 -0.5061001,9.99e-4 -0.5213221,-1.268e-4 z"
       id="path20315" />
    <path
       style="fill:#4ea2cb;fill-opacity:0.8;stroke:#ccf7ff;stroke-width:0.0160175;stroke-miterlimit:4;stroke-dasharray:none;stroke-opacity:0.896154"
       d="m 2.0114943,0.57791739 c -0.038449,-0.001442 -0.041352,-0.004843 -0.041352,-0.048496 v -0.0378638 l 0.015415,-0.004309 c 0.012287,-0.003435 0.025049,-0.004568 0.06289,-0.005583 0.063694,-0.001709 0.6451058,-2.1793e-4 0.6578464,0.001689 0.016071,0.002404 0.018531,0.009013 0.018531,0.0497947 0,0.0344608 -0.00107,0.0388297 -0.010204,0.0418014 -0.00955,0.003106 -0.031756,0.003329 -0.3458968,0.003547 -0.1846299,1.252e-4 -0.3453828,-1.3553e-4 -0.3572296,-5.803e-4 z"
       id="path20432" />
    <path
       style="fill:#4ea2cb;fill-opacity:0.8;stroke:#f9feff;stroke-width:0.000347283;stroke-miterlimit:4;stroke-dasharray:none;stroke-opacity:1"
       d="m 2.0318255,1.9364456 c -0.067535,-0.00114 -0.069081,-0.0022 -0.069025,-0.047698 5.04e-5,-0.040873 0.0045,-0.052571 0.021252,-0.055953 0.025086,-0.00506 0.038706,-0.0053 0.3310662,-0.00573 0.1522289,-2.261e-4 0.304473,7.34e-5 0.3393188,6.638e-4 0.057156,9.763e-4 0.064573,0.00135 0.077507,0.00397 0.013946,0.00282 0.014429,0.00339 0.019336,0.023326 0.00306,0.012424 0.00306,0.031709 -1.11e-5,0.049177 -0.00443,0.025251 -0.00624,0.028977 -0.014819,0.03071 -0.00915,0.00185 -0.030795,0.00198 -0.3371606,0.00209 C 2.2192258,1.9370701 2.053869,1.93682 2.0318295,1.9364516 Z"
       id="path25140" />
    <path
       style="fill:#4ea2cb;fill-opacity:0.8;stroke:#ccf6ff;stroke-width:0.0148407;stroke-miterlimit:4;stroke-dasharray:none;stroke-opacity:0.9"
       d="m 2.0106742,1.4260719 c -0.00323,-1.788e-4 -0.00894,-5.007e-4 -0.012678,-7.156e-4 -0.00427,-2.439e-4 -0.00864,-0.00146 -0.01175,-0.00327 -0.00438,-0.00254 -0.00491,-0.00626 -0.00466,-0.031986 3.176e-4,-0.03367 0.00108,-0.035082 0.020348,-0.037641 0.011302,-0.00151 0.017537,-0.00154 0.190859,-0.00154 0.133461,0 0.1811971,2.405e-4 0.1870993,9.309e-4 0.00436,5.172e-4 0.010306,0.0019 0.013217,0.00307 0.0049,0.00198 0.00528,0.00458 0.00514,0.034377 -1.098e-4,0.021903 -0.00122,0.03289 -0.00344,0.034264 -0.00244,0.00151 -0.00615,0.00215 -0.014524,0.00251 -0.012259,5.394e-4 -0.3600206,5.394e-4 -0.3695986,0 z"
       id="path25179" />
  </g>
</svg>
