<?xml version="1.0" encoding="UTF-8" standalone="no"?>
<!-- Created with Inkscape (http://www.inkscape.org/) -->

<svg
   width="10.6"
   height="15"
   viewBox="0 0 2.8045835 3.9687509"
   version="1.1"
   id="svg2249"
   inkscape:version="1.1.1 (3bf5ae0d25, 2021-09-20)"
   sodipodi:docname="tempPlus.svg"
   xmlns:inkscape="http://www.inkscape.org/namespaces/inkscape"
   xmlns:sodipodi="http://sodipodi.sourceforge.net/DTD/sodipodi-0.dtd"
   xmlns="http://www.w3.org/2000/svg"
   xmlns:svg="http://www.w3.org/2000/svg">
  <sodipodi:namedview
     id="namedview2251"
     pagecolor="#ffffff"
     bordercolor="#666666"
     borderopacity="1.0"
     inkscape:pageshadow="2"
     inkscape:pageopacity="0.0"
     inkscape:pagecheckerboard="0"
     inkscape:document-units="px"
     showgrid="false"
     units="px"
     inkscape:zoom="17.375939"
     inkscape:cx="15.135873"
     inkscape:cy="17.006275"
     inkscape:window-width="2400"
     inkscape:window-height="1321"
     inkscape:window-x="2391"
     inkscape:window-y="-9"
     inkscape:window-maximized="1"
     inkscape:current-layer="layer1"
     height="35px" />
  <defs
     id="defs2246">
    <clipPath
       clipPathUnits="userSpaceOnUse"
       id="clipPath1825">
      <path
         d="m 7278.53,6813.28 h 20.78 v -5.79 h -20.78 z"
         id="path1823" />
    </clipPath>
  </defs>
  <g
     inkscape:label="Слой 1"
     inkscape:groupmode="layer"
     id="layer1"
     style="display:inline">
    <g
       id="g1799"
       transform="matrix(0.05950287,0,0,-0.05066687,1.246115,2.5753407)"
       style="fill:#e1ebeb;fill-opacity:1">
      <path
         d="m 0,0 c 3.832,0 7.39,-1.134 10.39,-3.063 v 45.73 c 0,4.019 -3.287,7.305 -7.306,7.305 h -6.17 c -4.018,0 -7.305,-3.286 -7.305,-7.305 V -3.065 C -7.393,-1.134 -3.832,0 0,0"
         style="fill:#e1ebeb;fill-opacity:1;fill-rule:nonzero;stroke:none"
         id="path1801" />
    </g>
    <g
       id="g1803"
       transform="matrix(0.05435795,0,0,-0.0449333,2.2912147,3.076455)"
       style="fill:#e0ebeb;fill-opacity:1">
      <path
         d="m 0,0 c 0,-10.623 -8.612,-19.235 -19.236,-19.235 -10.625,0 -19.239,8.612 -19.239,19.235 0,10.625 8.614,19.239 19.239,19.239 C -8.612,19.239 0,10.625 0,0"
         style="fill:#e0ebeb;fill-opacity:1;fill-rule:nonzero;stroke:none"
         id="path1805" />
    </g>
    <g
       id="g1819"
       transform="matrix(0.05950287,0,0,-0.0449333,-432.47356,308.24799)">
      <g
         id="g1821" />
      <g
         id="g1833">
        <g
           clip-path="url(#clipPath1825)"
           opacity="0.199997"
           id="g1831">
          <g
             transform="translate(7288.918,6813.2813)"
             id="g1829">
            <path
               d="m 0,0 c -3.759,0 -7.296,-0.948 -10.391,-2.611 v -3.178 c 2.998,1.932 6.559,3.065 10.391,3.065 3.832,0 7.39,-1.133 10.39,-3.063 v 3.176 C 7.295,-0.948 3.758,0 0,0"
               style="fill:#122c3d;fill-opacity:1;fill-rule:nonzero;stroke:none"
               id="path1827" />
          </g>
        </g>
      </g>
    </g>
    <g
       id="g1835"
       transform="matrix(0.0774099,0,0,-0.0282548,2.7480788,0.56648079)"
       style="fill:#e0ebeb;fill-opacity:1">
      <path
         d="m 0,0 c 0,-0.353 -0.287,-0.642 -0.64,-0.642 h -9.46 c -0.353,0 -0.64,0.289 -0.64,0.642 v 3.687 c 0,0.353 0.287,0.642 0.64,0.642 h 9.46 C -0.287,4.329 0,4.04 0,3.687 Z"
         style="fill:#e0ebeb;fill-opacity:1;fill-rule:nonzero;stroke:none"
         id="path1837" />
    </g>
    <g
       id="g1839"
       transform="matrix(0.10156908,0,0,-0.02401477,2.5193985,1.0242717)"
       style="fill:#e0ebeb;fill-opacity:1">
      <path
         d="m 0,0 c 0,-0.353 -0.287,-0.64 -0.641,-0.64 h -4.81 c -0.354,0 -0.641,0.287 -0.641,0.64 v 3.687 c 0,0.353 0.287,0.642 0.641,0.642 h 4.81 C -0.287,4.329 0,4.04 0,3.687 Z"
         style="fill:#e0ebeb;fill-opacity:1;fill-rule:nonzero;stroke:none"
         id="path1841" />
    </g>
    <g
       id="g1843"
       transform="matrix(0.07818272,0,0,-0.02375636,2.4089823,1.4420724)"
       style="fill:#e0eaea;fill-opacity:1">
      <path
         d="m 0,0 c 0,-0.353 -0.287,-0.642 -0.641,-0.642 h -4.81 c -0.354,0 -0.641,0.289 -0.641,0.642 v 3.687 c 0,0.353 0.287,0.64 0.641,0.64 h 4.81 C -0.287,4.327 0,4.04 0,3.687 Z"
         style="fill:#e0eaea;fill-opacity:1;fill-rule:nonzero;stroke:none"
         id="path1845" />
    </g>
    <g
       id="g1847"
       transform="matrix(0.07991967,0,0,-0.02972669,2.7670204,1.9598606)"
       style="fill:#e0eaea;fill-opacity:1">
      <path
         d="m 0,0 c 0,-0.353 -0.287,-0.642 -0.64,-0.642 h -9.46 c -0.353,0 -0.64,0.289 -0.64,0.642 v 3.687 c 0,0.353 0.287,0.642 0.64,0.642 h 9.46 C -0.287,4.329 0,4.04 0,3.687 Z"
         style="fill:#e0eaea;fill-opacity:1;fill-rule:nonzero;stroke:none"
         id="path1849" />
    </g>
    <path
       style="fill:#e57900;fill-opacity:0.6;stroke:#3e84ad;stroke-width:0.0041994;stroke-opacity:0.607692"
       d="M 1.188616,3.7140583 C 1.181476,3.7133032 1.155176,3.7106083 1.130177,3.7081183 1.047878,3.6998566 0.93046489,3.6674167 0.85529948,3.6321741 0.66585122,3.5433481 0.53123704,3.4027181 0.47222089,3.2319763 0.44753534,3.160557 0.44405657,3.1378415 0.44413059,3.0485379 0.44418133,2.987159 0.44598151,2.9613948 0.45204871,2.935221 0.50628129,2.7012599 0.69272993,2.5152487 0.95904919,2.4294103 1.2575987,2.3331833 1.6089097,2.3991539 1.8287487,2.5927253 c 0.1118574,0.098492 0.1825615,0.2155115 0.2107539,0.3488099 0.012914,0.061057 0.013022,0.1566511 2.446e-4,0.216784 -0.036179,0.1702894 -0.1443157,0.3184318 -0.3078702,0.4217687 -0.049495,0.031272 -0.1472916,0.075871 -0.2056174,0.093771 -0.1038658,0.031874 -0.250947,0.049386 -0.3376453,0.0402 z"
       id="path20198" />
    <path
       style="fill:#d67300;fill-opacity:0.6;stroke:#3e84ad;stroke-width:0.00439364;stroke-opacity:0.607692"
       d="m 0.78948965,2.1257521 c -0.00157,-0.00504 -0.002888,-0.1443685 -0.00292,-0.3096157 l -6.655e-5,-0.300449 h 0.4693083 0.4693084 l -0.00139,0.3072412 c -7.528e-4,0.1689828 -0.00287,0.3085263 -0.0047,0.310097 -0.00182,0.00157 -0.037014,-0.00465 -0.078188,-0.01383 -0.1153734,-0.025715 -0.1698147,-0.032449 -0.3063883,-0.037906 -0.1922776,-0.00768 -0.3123372,0.00286 -0.49233859,0.04325 -0.025443,0.00571 -0.0470503,0.010379 -0.0480172,0.010379 -9.669e-4,0 -0.003043,-0.00413 -0.004614,-0.00917 z"
       id="path20276" />
    <path
       style="fill:#e57a00;fill-opacity:0.6;stroke:#ccf5ff;stroke-width:0.0132411;stroke-miterlimit:4;stroke-dasharray:none;stroke-opacity:0.9"
       d="m 1.9376003,1.0209433 c -0.014367,-0.00106 -0.016085,-0.00571 -0.015991,-0.0433394 7.41e-5,-0.0297169 9.799e-4,-0.0340439 0.00764,-0.0365836 0.00696,-0.002652 0.027326,-0.002922 0.2573107,-0.003393 0.1373638,-2.8227e-4 0.2620313,-3.4e-5 0.2770389,5.4874e-4 0.024832,9.6379e-4 0.027578,0.001457 0.030523,0.005497 0.00419,0.005736 0.00423,0.0662742 5.25e-5,0.0719915 -0.0023,0.00315 -0.00698,0.00465 -0.016882,0.0054 -0.015082,0.00115 -0.5239353,0.00103 -0.539694,-1.306e-4 z"
       id="path20315" />
    <path
       style="fill:#e57b00;fill-opacity:0.6;stroke:#ccf7ff;stroke-width:0.0165474;stroke-miterlimit:4;stroke-dasharray:none;stroke-opacity:0.896154"
       d="m 1.9856382,0.56305959 c -0.039804,-0.001487 -0.042809,-0.004992 -0.042809,-0.0499965 v -0.0390354 l 0.015958,-0.004443 c 0.01272,-0.003542 0.025931,-0.004709 0.065107,-0.005756 0.065939,-0.00176 0.6678397,-2.2469e-4 0.6810291,0.001739 0.016638,0.002479 0.019185,0.009292 0.019185,0.0513355 0,0.0355269 -0.0011,0.0400314 -0.010565,0.0430949 -0.00989,0.003197 -0.032875,0.003436 -0.3580862,0.003655 -0.1911378,1.285e-4 -0.3575556,-1.403e-4 -0.3698197,-5.9772e-4 z"
       id="path20432" />
    <path
       style="fill:#e57b00;fill-opacity:0.6;stroke:#f9feff;stroke-width:0.000358775;stroke-miterlimit:4;stroke-dasharray:none;stroke-opacity:1"
       d="m 2.0066859,1.9636231 c -0.069915,-0.00116 -0.071516,-0.00227 -0.071458,-0.049173 5.21e-5,-0.042137 0.00465,-0.054198 0.022,-0.057684 0.025971,-0.00522 0.040071,-0.00547 0.3427333,-0.00591 0.1575934,-2.33e-4 0.3152025,7.58e-5 0.3512763,6.874e-4 0.059171,10e-4 0.066848,0.00139 0.080238,0.00409 0.014437,0.0029 0.014938,0.0035 0.020017,0.024048 0.00317,0.012808 0.00317,0.03269 -1.14e-5,0.050699 -0.00459,0.026031 -0.00646,0.029873 -0.015342,0.031661 -0.00947,0.0019 -0.03188,0.00204 -0.3490422,0.00216 C 2.20069,1.9642656 2.029506,1.9640077 2.0066898,1.9636305 Z"
       id="path25140" />
    <path
       style="fill:#e57b00;fill-opacity:0.6;stroke:#ccf6ff;stroke-width:0.0153318;stroke-miterlimit:4;stroke-dasharray:none;stroke-opacity:0.9"
       d="m 1.9847892,1.4374576 c -0.00334,-1.844e-4 -0.00925,-5.146e-4 -0.013124,-7.407e-4 -0.00442,-2.513e-4 -0.00894,-0.0015 -0.012163,-0.00337 -0.00452,-0.00262 -0.00508,-0.00645 -0.00482,-0.032977 3.288e-4,-0.034712 0.00112,-0.036167 0.021065,-0.038805 0.011699,-0.00154 0.018154,-0.0016 0.197585,-0.0016 0.1381642,0 0.1875824,2.48e-4 0.1936926,9.638e-4 0.00451,5.315e-4 0.01067,0.00196 0.013683,0.00317 0.00506,0.00204 0.00547,0.00472 0.00531,0.035441 -1.137e-4,0.022581 -0.00126,0.033908 -0.00356,0.035324 -0.00253,0.00156 -0.00636,0.00221 -0.015036,0.00259 -0.012691,5.54e-4 -0.3727079,5.54e-4 -0.3826235,-2e-7 z"
       id="path25179" />
  </g>
</svg>
