<?xml version="1.0" encoding="UTF-8" standalone="no"?>
<!-- Generator: Adobe Illustrator 22.0.1, SVG Export Plug-In . SVG Version: 6.00 Build 0)  -->

<svg
   version="1.1"
   id="Layer_1"
   x="0px"
   y="0px"
   viewBox="0 0 56 56"
   xml:space="preserve"
   sodipodi:docname="eastWind.svg"
   width="56"
   height="56"
   inkscape:version="1.1.1 (3bf5ae0d25, 2021-09-20)"
   xmlns:inkscape="http://www.inkscape.org/namespaces/inkscape"
   xmlns:sodipodi="http://sodipodi.sourceforge.net/DTD/sodipodi-0.dtd"
   xmlns="http://www.w3.org/2000/svg"
   xmlns:svg="http://www.w3.org/2000/svg"><defs
   id="defs7" /><sodipodi:namedview
   id="namedview5"
   pagecolor="#ffffff"
   bordercolor="#666666"
   borderopacity="1.0"
   inkscape:pageshadow="2"
   inkscape:pageopacity="0.0"
   inkscape:pagecheckerboard="0"
   showgrid="false"
   inkscape:zoom="14.366666"
   inkscape:cx="33.967519"
   inkscape:cy="25.719259"
   inkscape:window-width="2400"
   inkscape:window-height="1321"
   inkscape:window-x="2391"
   inkscape:window-y="-9"
   inkscape:window-maximized="1"
   inkscape:current-layer="Layer_1"
   width="140px" />
<path
   d="m 25.16442,8.5612634 c 3.335781,-0.4227165 6.52492,0.059572 9.549136,1.4318141 3.024212,1.3722415 5.529378,3.4359725 7.515507,6.1911965 1.986133,2.755223 3.167323,5.873163 3.559935,9.351752 0.293978,2.604655 0.08578,5.168662 -0.610127,7.672813 -0.695934,2.504142 -1.790278,4.711166 -3.230123,6.649107 -1.439859,1.937938 -3.247349,3.557479 -5.422499,4.858593 -2.175156,1.301125 -4.488146,2.115664 -7.006344,2.43478 -2.485477,0.314975 -4.930871,0.103425 -7.317888,-0.619556 -2.387018,-0.722987 -4.5059,-1.86233 -6.334495,-3.368705 C 14.03893,41.656694 12.498703,39.766145 11.265104,37.506516 10.031512,35.246879 9.2605225,32.824339 8.964613,30.202549 8.6686933,27.580751 8.8749501,24.999611 9.5708778,22.49546 c 0.6959312,-2.504146 1.7883402,-4.728298 3.2281802,-6.666244 1.43985,-1.937944 3.249284,-3.540341 5.3898,-4.854447 2.140513,-1.3141216 4.473724,-2.0964652 6.975562,-2.4135056 z m 0.479652,4.2497076 c -3.875398,0.491104 -7.077549,2.391658 -9.604534,5.718801 -2.494281,3.322993 -3.502122,7.031196 -3.036015,11.160949 0.305576,2.707473 1.227607,5.145636 2.778564,7.278148 1.550964,2.132513 3.493132,3.763534 5.853426,4.837528 2.360292,1.073998 4.825023,1.4569 7.408625,1.129501 2.583593,-0.327409 4.909944,-1.317459 6.964665,-2.95093 2.054709,-1.63348 3.597419,-3.688744 4.628117,-6.165794 1.0307,-2.477054 1.386047,-5.059708 1.080469,-7.767179 -0.305585,-2.707473 -1.227611,-5.145635 -2.778573,-7.278152 -1.550956,-2.132503 -3.509485,-3.76146 -5.871713,-4.852588 -2.362231,-1.091126 -4.83944,-1.437686 -7.423031,-1.110284 z m -8.62009,9.591671 22.162559,3.709353 c 0.165452,-0.0036 0.256883,0.07174 0.274275,0.225975 0.01736,0.154226 -0.05466,0.250263 -0.216246,0.288126 l -20.713957,9.125416 c -0.172137,0.09134 -0.304889,0.09079 -0.412665,0.01754 -0.107764,-0.07328 -0.123249,-0.210333 -0.04641,-0.411263 l 1.454631,-6.215538 c 0.04607,-0.179648 0.02674,-0.35101 -0.05611,-0.496944 L 16.667391,22.91713 c -0.117451,-0.158923 -0.130979,-0.278873 -0.04061,-0.359854 0.09038,-0.08096 0.229804,-0.168169 0.397189,-0.154624 z"
   id="path2"
   style="fill:#2c4f54;fill-opacity:0.5;stroke:#2e3333;stroke-width:0.103936;stroke-miterlimit:4;stroke-dasharray:none;stroke-opacity:0.9" />
<path
   style="fill:#1f4447;fill-opacity:0.809728;stroke:#e4e7e7;stroke-width:0.103936;stroke-miterlimit:4;stroke-dasharray:none;stroke-opacity:0.9"
   d="m 13.381562,27.961449 c -0.0074,-0.736352 0.0368,-1.551897 0.122381,-2.259696 0.481229,-3.97996 2.908031,-7.931155 6.268024,-10.205291 1.808631,-1.224122 3.456984,-1.827846 5.713994,-2.092793 2.316625,-0.272036 4.124422,-0.05383 6.201512,0.748267 1.399966,0.540621 2.537813,1.205586 3.772383,2.204627 2.45008,1.982657 4.0892,4.454068 4.991555,7.526092 0.187922,0.639756 0.234574,0.909181 0.404062,2.333447 0.205682,1.728798 0.216527,2.222155 0.07707,3.51188 -0.210666,1.947877 -0.946788,4.165239 -1.967087,5.925249 -0.416175,0.717908 -1.454651,2.079867 -2.042819,2.67915 -1.42346,1.450384 -3.075031,2.565484 -4.767551,3.21893 -1.248107,0.481875 -1.69909,0.58904 -3.248266,0.771872 -1.092836,0.12894 -1.558276,0.160196 -2.042202,0.136898 -2.938919,-0.141361 -5.770392,-1.259462 -8.091096,-3.195056 -2.376759,-1.98236 -4.088818,-4.673737 -4.885061,-7.679394 -0.18355,-0.69287 -0.500215,-2.956943 -0.506902,-3.624191 z m 4.863457,-2.211373 c 0.762502,1.55188 1.407382,2.87962 1.433061,2.950534 0.0317,0.08751 -0.186728,1.157871 -0.680164,3.332992 -0.418402,1.844408 -0.708691,3.24588 -0.684066,3.302613 0.05107,0.117571 0.264765,0.15771 0.463903,0.08713 0.07906,-0.02802 4.608651,-1.993686 10.065776,-4.368127 9.562761,-4.160845 9.923271,-4.322851 9.955835,-4.474153 0.02518,-0.11693 0.01118,-0.175471 -0.05473,-0.229425 C 38.635529,26.26233 17.41826,22.483319 17.1825,22.511173 c -0.21301,0.02517 -0.411588,0.204615 -0.361303,0.326514 0.02066,0.04992 0.661313,1.360521 1.423816,2.912402 z"
   id="path861" /><rect
   style="fill:#c7485e;fill-opacity:1;stroke:#3c4343;stroke-width:0.446268;stroke-opacity:0.9"
   id="rect2803"
   width="5.0345654"
   height="0.055890016"
   x="28.59687"
   y="-27.311499"
   transform="matrix(0.12229346,0.99249398,-0.99179615,0.12782957,0,0)"
   inkscape:transform-center-x="3.095286"
   inkscape:transform-center-y="-2.3334828" /><path
   style="fill:#cd425b;fill-opacity:1;stroke:#e27364;stroke-width:0.0349714;stroke-opacity:0.9"
   d="m 31.287076,25.033372 c 0.08367,0.01397 1.888819,0.29308 4.01148,0.620069 2.122671,0.326985 3.910644,0.614376 3.973282,0.638635 0.09856,0.03818 -7.118353,3.268979 -7.377385,3.302636 -0.07076,0.0093 -0.184843,-0.600612 -0.427964,-2.287172 -0.309989,-2.150502 -0.321595,-2.298062 -0.179432,-2.274165 z"
   id="path3397"
   inkscape:transform-center-x="-0.93090506"
   inkscape:transform-center-y="-2.0552894" /><g
   aria-label="c"
   transform="scale(0.98081909,1.019556)"
   id="text9344"
   style="font-size:12.5895px;line-height:1.25;font-family:'Segoe Script';-inkscape-font-specification:'Segoe Script';fill:#0e0e0e;stroke-width:0.314735"><path
     d="m 32.984071,4.3587511 q 0,0.2212998 -0.159828,0.3995691 -0.165975,0.1844165 -0.288919,0.3135081 -0.122944,0.1229443 -0.233594,0.227447 -0.11065,0.1045027 -0.233594,0.2028581 -0.122945,0.092208 -0.28892,0.2151526 -0.467188,0.338097 -0.891346,0.5716912 -0.424158,0.227447 -0.823727,0.3749803 -0.399569,0.1413859 -0.792991,0.2028581 -0.387275,0.061472 -0.780697,0.061472 -0.411863,0 -0.737666,-0.1536804 Q 27.426987,6.6147797 27.19954,6.3443022 26.97824,6.0738246 26.861443,5.717286 26.744646,5.3546002 26.744646,4.9550311 V 4.924295 q 0,-0.4057163 0.104502,-0.8606103 0.104503,-0.4610413 0.288919,-0.9220826 0.190564,-0.4610413 0.454895,-0.9036409 0.26433,-0.4487468 0.583985,-0.8360215 0.129092,-0.1536804 0.307361,-0.3258025 0.184417,-0.17826929 0.387275,-0.3258025 0.209005,-0.14753321 0.430305,-0.23974146 0.227447,-0.0983555 0.442599,-0.0983555 0.147534,0 0.282772,0.0922083 0.135239,0.086061 0.252036,0.22744703 0.116797,0.14138599 0.215153,0.31965525 0.09836,0.1721221 0.165975,0.3565386 0.06762,0.1782693 0.104503,0.3442442 0.03688,0.1659748 0.03688,0.282772 0,0.1782692 -0.11065,0.4610412 -0.11065,0.282772 -0.26433,0.282772 -0.2213,0 -0.368833,-0.3012136 -0.05532,-0.1167971 -0.09836,-0.2704776 -0.03688,-0.1536804 -0.09221,-0.3012136 -0.04918,-0.1475332 -0.135239,-0.2704776 -0.08606,-0.1290915 -0.239741,-0.1905637 -0.153681,0.036883 -0.313508,0.1598277 -0.153681,0.1229443 -0.307361,0.3012136 -0.147534,0.1782693 -0.295067,0.4057163 -0.141386,0.2212998 -0.270477,0.4610413 -0.122945,0.2212998 -0.239742,0.510219 -0.116797,0.282772 -0.209005,0.5901328 -0.09221,0.3012137 -0.147533,0.6024273 -0.05532,0.3012136 -0.05532,0.5532495 0,0.1782693 0.08606,0.3626858 0.08606,0.1782693 0.2213,0.3258025 0.141386,0.1475332 0.313508,0.2397415 0.178269,0.092208 0.362685,0.092208 0.909789,0 1.807282,-0.3749803 0.897494,-0.3749802 1.708927,-1.0880574 0.448746,-0.3934219 0.743813,-0.3934219 0.08606,0 0.08606,0.1659749 z"
     id="path4002" /></g><g
   aria-label="ю"
   transform="scale(0.9025851,1.1079288)"
   id="text11307"
   style="font-size:10.397px;line-height:1.25;font-family:'Segoe Script';-inkscape-font-specification:'Segoe Script';fill:#151515;stroke-width:0.259921"><path
     d="m 25.764643,47.935623 q 0,-0.02031 -0.02538,-0.03554 -0.02031,-0.02031 -0.05077,-0.05077 -0.03046,-0.03046 -0.05584,-0.08123 -0.02031,-0.05077 -0.02031,-0.142146 0,-0.08123 0.04569,-0.147223 0.04569,-0.066 0.09646,-0.12184 0.05584,-0.05584 0.101533,-0.101533 0.05077,-0.04569 0.06092,-0.0863 0.0863,-0.487359 0.147223,-0.918875 0.06092,-0.431516 0.07615,-0.720886 0.0051,-0.0863 0,-0.177683 0,-0.09138 -0.0051,-0.18276 -0.0051,-0.066 -0.01015,-0.126916 0,-0.06092 0,-0.116763 0,-0.06092 0.04569,-0.13707 0.04569,-0.07615 0.111687,-0.142147 0.07107,-0.066 0.1523,-0.10661 0.0863,-0.04569 0.167529,-0.04569 0.07107,0 0.142147,0.04061 0.07107,0.03554 0.126916,0.10661 0.05584,0.066 0.09138,0.167529 0.03554,0.09646 0.03554,0.218297 0,0.09138 -0.01523,0.223373 -0.01523,0.131993 -0.04061,0.289369 -0.02538,0.157377 -0.06092,0.329983 -0.03046,0.172607 -0.06092,0.345213 -0.04061,0.238603 -0.08123,0.4569 -0.03554,0.218296 -0.05584,0.375673 0.02031,0.04569 0.03554,0.08123 0.02031,0.03046 0.05077,0.05077 0.03046,0.02031 0.07615,0.03046 0.05077,0.01015 0.131993,0.01015 0.218297,0 0.461976,-0.04569 0.24368,-0.04569 0.461976,-0.116763 0.218297,-0.07107 0.390903,-0.147223 0.177683,-0.08123 0.263987,-0.1523 0.05584,-0.04569 0.121839,-0.12184 0.07107,-0.07615 0.142147,-0.162453 0.07107,-0.09138 0.13707,-0.177683 0.07107,-0.09138 0.12184,-0.157377 0.172606,-0.218296 0.390902,-0.426439 0.218297,-0.208143 0.482283,-0.36552 0.263987,-0.157376 0.568586,-0.253833 0.309676,-0.09646 0.670119,-0.09646 0.27414,0 0.538126,0.13707 0.263987,0.131993 0.467053,0.360442 0.208143,0.22845 0.329983,0.527973 0.126917,0.294446 0.126917,0.619353 0,0.324906 -0.066,0.593969 -0.06092,0.263986 -0.19799,0.563509 -0.07615,0.157377 -0.263986,0.375673 -0.187837,0.218297 -0.451823,0.451823 -0.25891,0.233526 -0.568586,0.461976 -0.309676,0.22845 -0.629506,0.411209 -0.319829,0.18276 -0.629506,0.294447 -0.304599,0.111686 -0.553356,0.111686 -0.335059,0 -0.573662,-0.111686 -0.238603,-0.116763 -0.390903,-0.299523 -0.1523,-0.187837 -0.223373,-0.42644 -0.07107,-0.238603 -0.07107,-0.482282 0,-0.19799 0.05584,-0.477206 0.06092,-0.284293 0.203066,-0.573663 -0.192913,0.12184 -0.431516,0.192913 -0.233526,0.07107 -0.431516,0.126917 -0.0863,0.02538 -0.192913,0.04569 -0.10661,0.01523 -0.21322,0.03046 -0.101533,0.01523 -0.19799,0.03046 -0.09138,0.01523 -0.157376,0.02538 -0.101533,0.02031 -0.142146,0.08123 -0.03554,0.05584 -0.05584,0.147223 -0.02031,0.0863 -0.06092,0.22845 -0.04061,0.142147 -0.08123,0.294446 -0.04569,0.162454 -0.09646,0.33506 -0.05077,0.172606 -0.09138,0.329983 -0.03554,0.1523 -0.066,0.284293 -0.02538,0.126916 -0.02538,0.19799 0,0.066 -0.05584,0.142146 -0.05077,0.07615 -0.12184,0.142147 -0.066,0.07107 -0.137069,0.116763 -0.066,0.04569 -0.101534,0.04569 -0.07615,0 -0.147223,-0.05077 -0.066,-0.05077 -0.116763,-0.116763 -0.05077,-0.066 -0.08123,-0.131993 -0.03046,-0.07107 -0.03046,-0.10661 0,-0.04569 0.03554,-0.162453 0.04061,-0.116763 0.08123,-0.238603 0.02538,-0.07615 0.066,-0.208143 0.04061,-0.131993 0.08123,-0.28937 0.04569,-0.162453 0.0863,-0.33506 0.04569,-0.172606 0.08123,-0.324906 0.03554,-0.1523 0.05584,-0.263986 0.02031,-0.116763 0.02031,-0.16753 z m 6.117376,-1.147325 q 0,-0.507666 -0.294446,-0.791959 -0.28937,-0.28937 -0.832572,-0.28937 -0.07615,0 -0.187837,0.06092 -0.111686,0.06092 -0.24368,0.157377 -0.126916,0.09138 -0.258909,0.203066 -0.126917,0.111687 -0.24368,0.218296 -0.111686,0.10661 -0.192913,0.192913 -0.08123,0.0863 -0.111687,0.12184 -0.106609,0.126917 -0.223373,0.35029 -0.111686,0.218296 -0.208143,0.472129 -0.09646,0.253833 -0.162453,0.512743 -0.06092,0.253833 -0.06092,0.446746 0,0.116763 0.03046,0.238603 0.03554,0.12184 0.101533,0.223373 0.07107,0.09646 0.177684,0.162453 0.106609,0.06092 0.248756,0.06092 0.157376,0 0.401056,-0.09138 0.24368,-0.09138 0.512743,-0.253833 0.274139,-0.162453 0.548279,-0.385826 0.279216,-0.223373 0.497513,-0.482283 0.223373,-0.258909 0.360443,-0.543202 0.142146,-0.28937 0.142146,-0.583816 z"
     id="path4044" /></g><g
   aria-label="з"
   transform="scale(1.3992949,0.71464564)"
   id="text16794"
   style="font-size:11.9744px;line-height:1.25;font-family:'Segoe Script';-inkscape-font-specification:'Segoe Script';fill:#131313;stroke-width:0.29936"><path
     d="m 1.0242165,39.057445 q 0.058469,0 0.09355,0.04093 0.040928,0.04093 0.064316,0.0994 0.023388,0.06432 0.029234,0.140325 0.011694,0.07601 0.011694,0.146172 0,0.134478 0.046775,0.292344 0.052622,0.157865 0.1637125,0.292343 0.1169375,0.134478 0.2981907,0.222182 0.1812531,0.09355 0.4443624,0.09355 0.3566594,0 0.7367063,-0.1871 0.3800468,-0.1871 0.6957781,-0.520372 0.3157312,-0.333272 0.5145249,-0.795175 0.2046407,-0.456057 0.2046407,-0.999816 0,-0.502831 -0.1052438,-0.853644 Q 4.1172133,36.677767 3.9476539,36.461433 3.7839414,36.239251 3.567607,36.139854 q -0.2163343,-0.0994 -0.4326687,-0.0994 -0.081856,0 -0.1812531,0.04093 -0.099397,0.03508 -0.2046406,0.09355 -0.099397,0.05262 -0.2046406,0.116937 -0.099397,0.06432 -0.1812532,0.116938 -0.140325,0.09355 -0.2689562,0.157865 -0.1227844,0.06432 -0.327425,0.06432 -0.1578656,0 -0.2748031,-0.116938 -0.1110906,-0.122784 -0.1110906,-0.321578 0,-0.152018 0.1052437,-0.257262 0.1110906,-0.105244 0.3391188,-0.198794 0.4852906,-0.198794 0.8653374,-0.403434 0.3858938,-0.210488 0.6490031,-0.45021 0.2631094,-0.245568 0.4034344,-0.537912 0.140325,-0.292344 0.140325,-0.666544 0,-0.146172 -0.046775,-0.286497 -0.040928,-0.146172 -0.1286313,-0.257262 -0.087703,-0.116938 -0.2163343,-0.1871 -0.1227844,-0.07601 -0.2864969,-0.07601 -0.3508125,0 -0.6665437,0.216335 -0.3157313,0.216334 -0.6197687,0.532065 -0.1344782,0.140325 -0.2221813,0.204641 -0.087703,0.05847 -0.1871,0.05847 -0.081856,0 -0.1461719,-0.04093 -0.058469,-0.04678 -0.099397,-0.105244 -0.035081,-0.06432 -0.058469,-0.134478 -0.017541,-0.07601 -0.017541,-0.128631 0,-0.140325 0.076009,-0.26311 0.081856,-0.128631 0.2163343,-0.239722 0.2923438,-0.245568 0.5729938,-0.403434 0.28065,-0.157866 0.4619031,-0.233875 0.2046406,-0.08186 0.420975,-0.157866 0.2221812,-0.07601 0.4151281,-0.07601 0.2748031,0 0.5262187,0.0994 0.2514156,0.09355 0.4385156,0.28065 0.1929469,0.181253 0.3040375,0.450209 0.1169375,0.268956 0.1169375,0.608075 0,0.491138 -0.2397219,0.976428 -0.233875,0.485291 -0.8010218,0.941347 0.3917406,0.01754 0.6840843,0.198794 0.2923438,0.181253 0.4852906,0.479444 0.1987938,0.29819 0.2923438,0.689931 0.099397,0.385894 0.099397,0.818562 0,0.432669 -0.1169375,0.859491 -0.1169375,0.426822 -0.3332719,0.818562 -0.2104875,0.391741 -0.5086781,0.725013 -0.2923437,0.333272 -0.6490031,0.57884 -0.3508125,0.245569 -0.7542469,0.385894 -0.3975874,0.140325 -0.8185624,0.140325 -0.4034344,0 -0.701625,-0.134478 Q 1.0768384,40.887517 0.87804464,40.688723 0.68509777,40.489929 0.5857009,40.261901 q -0.0993969,-0.228028 -0.0993969,-0.420975 0,-0.146172 0.0526219,-0.315731 0.0584688,-0.169559 0.12863125,-0.268956 0.046775,-0.06432 0.13447812,-0.134478 0.0877031,-0.06432 0.22218123,-0.06432 z"
     id="path3981" /></g><g
   aria-label="в"
   transform="scale(1.4148279,0.70679975)"
   id="text19318"
   style="font-size:12.4694px;line-height:1.25;font-family:'Segoe Script';-inkscape-font-specification:'Segoe Script';fill:#161616;stroke-width:0.311739"><path
     d="m 38.499251,32.293305 q 0,-0.07306 -0.03044,-0.146126 -0.02435,-0.07915 -0.07915,-0.140037 -0.04871,-0.06698 -0.133948,-0.109595 -0.07915,-0.04262 -0.188746,-0.04262 -0.2131,0 -0.444466,0.152215 -0.225277,0.152214 -0.456643,0.420111 -0.225277,0.261809 -0.438377,0.627123 -0.2131,0.359226 -0.395758,0.779338 -0.182657,0.420111 -0.328783,0.882843 -0.140037,0.456643 -0.225277,0.919375 0.0548,-0.03653 0.164392,-0.115683 0.109594,-0.08524 0.243543,-0.188746 0.140037,-0.109594 0.292251,-0.231366 0.158303,-0.12786 0.29834,-0.249631 0.146126,-0.121772 0.267898,-0.231366 0.121771,-0.109594 0.194834,-0.188746 0.675832,-0.730629 0.968083,-1.266423 0.292252,-0.535795 0.292252,-0.870666 z m -0.188746,6.563483 q -0.188746,0.280074 -0.456643,0.547971 -0.261809,0.261809 -0.578415,0.462732 -0.316606,0.200923 -0.675831,0.316606 -0.353138,0.115683 -0.718452,0.08524 -0.25572,-0.01827 -0.487086,-0.164391 -0.231366,-0.152215 -0.407935,-0.426201 -0.176568,-0.280074 -0.280074,-0.68192 -0.103506,-0.401846 -0.103506,-0.925463 0,-0.334872 0.03653,-0.724541 0.03653,-0.395757 0.09742,-0.797603 0.06089,-0.401846 0.133948,-0.785426 0.07915,-0.38358 0.152215,-0.706275 0.09742,-0.438377 0.25572,-0.864577 0.158303,-0.432289 0.353137,-0.828046 0.194835,-0.401846 0.420112,-0.754984 0.225277,-0.353137 0.462732,-0.6393 0.328783,-0.38358 0.748894,-0.614946 0.4262,-0.231366 0.998526,-0.231366 0.237455,0 0.432289,0.09742 0.194835,0.09742 0.334872,0.255721 0.140037,0.152214 0.2131,0.347048 0.07915,0.194835 0.07915,0.38358 0,0.261809 -0.109594,0.584504 -0.103506,0.316605 -0.304429,0.663654 -0.200923,0.347049 -0.487086,0.700186 -0.286163,0.353138 -0.651477,0.681921 0.08524,0.0061 0.194834,0.03044 0.115683,0.01826 0.237455,0.07306 0.12786,0.0548 0.25572,0.146126 0.133948,0.09133 0.25572,0.231366 0.0548,0.06697 0.121771,0.182657 0.06697,0.109595 0.121772,0.273986 0.06089,0.158303 0.09742,0.365315 0.04262,0.207011 0.04262,0.456643 0,0.487086 -0.176569,1.053323 -0.17048,0.560149 -0.608857,1.205538 z m -0.17048,-2.240596 q 0,-0.334871 -0.09742,-0.560148 -0.09742,-0.231366 -0.231366,-0.365315 -0.133949,-0.140037 -0.273986,-0.194834 -0.140037,-0.06089 -0.225277,-0.06089 -0.07915,0 -0.249632,0.121771 -0.17048,0.121772 -0.365314,0.267898 -0.146126,0.12786 -0.292252,0.237454 -0.146126,0.109594 -0.273986,0.2131 -0.121771,0.103506 -0.225277,0.207012 -0.103506,0.103505 -0.17048,0.219188 -0.17048,0.310518 -0.200923,0.706275 -0.03044,0.395757 -0.03044,0.80978 0,0.273986 0.0548,0.493175 0.06089,0.2131 0.146126,0.365314 0.09133,0.152215 0.194835,0.237455 0.103505,0.07915 0.188745,0.07915 0.207012,0 0.468821,-0.08524 0.261808,-0.08524 0.535794,-0.334871 0.237455,-0.219189 0.4262,-0.493175 0.194835,-0.273986 0.328783,-0.578414 0.140038,-0.304429 0.2131,-0.633212 0.07915,-0.328783 0.07915,-0.651478 z"
     id="path4023" /></g><text
   xml:space="preserve"
   style="font-size:9.19298px;line-height:1.25;font-family:'Segoe Script';-inkscape-font-specification:'Segoe Script';fill:#16272a;fill-opacity:0.799714;stroke-width:0.229825"
   x="7.1203041"
   y="33.118526"
   id="text17884"
   transform="scale(1.2754322,0.78404795)"><tspan
     sodipodi:role="line"
     id="tspan17882"
     x="7.1203041"
     y="33.118526"
     style="stroke-width:0.229825">_</tspan></text><text
   xml:space="preserve"
   style="font-size:9.36387px;line-height:1.25;font-family:'Segoe Script';-inkscape-font-specification:'Segoe Script';fill:#16272a;fill-opacity:0.799714;stroke-width:0.234096"
   x="31.155527"
   y="33.588264"
   id="text17884-6"
   transform="scale(1.2991425,0.76973852)"><tspan
     sodipodi:role="line"
     id="tspan17882-2"
     x="31.155527"
     y="33.588264"
     style="stroke-width:0.234096">_</tspan></text><text
   xml:space="preserve"
   style="font-size:8.22588px;line-height:1.25;font-family:'Segoe Script';-inkscape-font-specification:'Segoe Script';fill:#16272a;fill-opacity:0.799714;stroke-width:0.205648"
   x="-34.997814"
   y="35.565914"
   id="text17884-0"
   transform="matrix(-0.01784153,-1.4023944,0.71235636,-0.05579211,0,0)"><tspan
     sodipodi:role="line"
     id="tspan17882-4"
     x="-34.997814"
     y="35.565914"
     style="stroke-width:0.205648">_</tspan></text><text
   xml:space="preserve"
   style="font-size:9.28322px;line-height:1.25;font-family:'Segoe Script';-inkscape-font-specification:'Segoe Script';fill:#16272a;fill-opacity:0.799714;stroke-width:0.23208"
   x="-10.259898"
   y="36.677563"
   id="text17884-9"
   transform="matrix(4.9872477e-4,-1.3707335,0.72953587,0.00148846,0,0)"><tspan
     sodipodi:role="line"
     id="tspan17882-7"
     x="-10.259898"
     y="36.677563"
     style="stroke-width:0.23208">_</tspan></text></svg>
