<?xml version="1.0" encoding="UTF-8" standalone="no"?>
<!-- Generator: Adobe Illustrator 22.0.1, SVG Export Plug-In . SVG Version: 6.00 Build 0)  -->

<svg
   version="1.1"
   id="Layer_1"
   x="0px"
   y="0px"
   viewBox="0 0 56 56"
   xml:space="preserve"
   sodipodi:docname="northwestWind.svg"
   width="56"
   height="56"
   inkscape:version="1.1.1 (3bf5ae0d25, 2021-09-20)"
   xmlns:inkscape="http://www.inkscape.org/namespaces/inkscape"
   xmlns:sodipodi="http://sodipodi.sourceforge.net/DTD/sodipodi-0.dtd"
   xmlns="http://www.w3.org/2000/svg"
   xmlns:svg="http://www.w3.org/2000/svg"><defs
   id="defs7" /><sodipodi:namedview
   id="namedview5"
   pagecolor="#ffffff"
   bordercolor="#666666"
   borderopacity="1.0"
   inkscape:pageshadow="2"
   inkscape:pageopacity="0.0"
   inkscape:pagecheckerboard="0"
   showgrid="false"
   inkscape:zoom="20.317534"
   inkscape:cx="43.681482"
   inkscape:cy="32.361211"
   inkscape:window-width="2400"
   inkscape:window-height="1321"
   inkscape:window-x="2391"
   inkscape:window-y="-9"
   inkscape:window-maximized="1"
   inkscape:current-layer="Layer_1"
   width="140px" />
<path
   d="M 14.447895,42.373145 C 11.750235,39.965368 9.8530574,37.075233 8.7577973,33.727435 7.6625435,30.37963 7.4683873,26.991251 8.1753323,23.56229 c 0.7069423,-3.42896 2.2654047,-6.449922 4.6621557,-9.074711 1.794606,-1.96535 3.915099,-3.499043 6.33643,-4.5999516 2.421331,-1.1008948 4.897462,-1.6835432 7.412315,-1.8091956 2.514864,-0.125635 5.046261,0.2562976 7.594188,1.1457991 2.547939,0.8895201 4.819594,2.2130111 6.856074,4.0306361 2.010031,1.794014 3.586507,3.905114 4.728032,6.308567 1.141522,2.403442 1.772052,4.867097 1.913778,7.340371 0.141723,2.473263 -0.217184,4.96908 -1.078094,7.462708 -0.860924,2.49363 -2.176177,4.722548 -3.982591,6.700831 -1.806414,1.978296 -3.938713,3.52491 -6.36005,4.625815 -2.421335,1.100894 -4.909263,1.696472 -7.424125,1.822134 -2.51486,0.125649 -5.034449,-0.269205 -7.567738,-1.122196 -2.533296,-0.852983 -4.794562,-2.214139 -6.817812,-4.019952 z m 2.928053,-3.206638 c 3.134055,2.79725 6.873544,4.116635 11.230272,3.945233 4.330272,-0.195012 7.899699,-1.843553 10.745103,-4.959669 1.865451,-2.042936 3.085299,-4.403946 3.622713,-7.068976 0.537406,-2.665033 0.410795,-5.31255 -0.441699,-7.927389 -0.852492,-2.614838 -2.310907,-4.855238 -4.400278,-6.720079 -2.089372,-1.864823 -4.505549,-3.082623 -7.223494,-3.654536 -2.717945,-0.571904 -5.396215,-0.45129 -8.034801,0.361838 -2.638586,0.813133 -4.878088,2.240595 -6.743537,4.283535 -1.865454,2.042935 -3.085295,4.403947 -3.622711,7.06898 -0.537409,2.665024 -0.397576,5.324361 0.443121,7.952121 0.84069,2.627769 2.335941,4.854111 4.425311,6.718942 z M 30.885357,39.748361 17.976373,19.426233 c -0.12043,-0.130954 -0.127511,-0.25462 -0.02123,-0.370991 0.106288,-0.116343 0.231416,-0.122004 0.375451,-0.01693 l 21.752153,10.637601 c 0.192702,0.0781 0.286681,0.185461 0.306986,0.320922 0.02027,0.13547 -0.07415,0.238906 -0.283502,0.310195 l -5.816016,2.952336 c -0.170967,0.08209 -0.289035,0.211387 -0.342393,0.374971 l -2.413224,6.059848 c -0.03873,0.200109 -0.121375,0.290617 -0.24781,0.271642 -0.12657,-0.01911 -0.29281,-0.07361 -0.401437,-0.217485 z"
   id="path2"
   style="fill:#2c4f54;fill-opacity:0.5;stroke:#2e3332;stroke-width:0.108607;stroke-miterlimit:4;stroke-dasharray:none;stroke-opacity:0.9" />
<path
   style="fill:#1f4347;fill-opacity:0.81;stroke:#e4e7e7;stroke-width:0.108607;stroke-miterlimit:4;stroke-dasharray:none;stroke-opacity:0.9"
   d="m 37.686883,38.896549 c -0.560354,0.49553 -1.218266,1.002246 -1.822917,1.404002 -3.400005,2.259078 -8.164381,2.933471 -12.305599,1.741847 -2.229139,-0.641436 -3.867533,-1.566409 -5.679452,-3.206405 -1.859834,-1.683258 -2.980504,-3.283042 -3.844599,-5.487744 -0.582398,-1.485984 -0.882491,-2.84372 -0.994899,-4.501421 -0.223094,-3.289808 0.507167,-6.252029 2.223786,-9.020748 0.357492,-0.576595 0.531197,-0.793279 1.504415,-1.876663 1.181329,-1.315007 1.552563,-1.651762 2.642605,-2.39709 1.64632,-1.125638 3.874088,-2.007637 5.953073,-2.356871 0.848011,-0.142455 2.634196,-0.212397 3.51366,-0.137572 2.12846,0.181057 4.161936,0.768593 5.869992,1.696048 1.259565,0.683911 1.663268,0.975561 2.907686,2.100579 0.87783,0.793649 1.233519,1.147394 1.560485,1.552284 1.985769,2.458874 3.14472,5.48073 3.311759,8.63514 0.171064,3.230611 -0.676166,6.39778 -2.417435,9.036984 -0.401396,0.608391 -1.914806,2.368596 -2.422553,2.817645 z m -5.164417,-2.443155 c 0.64864,-1.645423 1.208939,-3.047167 1.245109,-3.114983 0.04462,-0.0837 1.022445,-0.619624 3.044825,-1.668821 1.714886,-0.889683 2.998246,-1.587943 3.024274,-1.645477 0.05391,-0.119257 -0.06753,-0.317915 -0.263675,-0.431221 -0.07787,-0.04497 -4.815626,-2.382865 -10.528364,-5.195302 -10.010687,-4.928358 -10.392033,-5.110725 -10.531455,-5.036333 -0.107736,0.05751 -0.142793,0.107627 -0.137226,0.196589 0.0092,0.147146 12.226419,19.732906 12.415821,19.904089 0.171112,0.154685 0.450475,0.195146 0.508272,0.07363 0.02363,-0.04981 0.573771,-1.436761 1.222412,-3.082183 z"
   id="path861" /><rect
   style="fill:#c7485e;fill-opacity:1;stroke:#3c4343;stroke-width:0.466323;stroke-opacity:0.9"
   id="rect2803"
   width="5.1094418"
   height="0.060132232"
   x="-6.616508"
   y="35.108425"
   transform="matrix(0.63250872,-0.77455324,0.77605622,0.63066373,0,0)"
   inkscape:transform-center-x="-0.58718475"
   inkscape:transform-center-y="4.0211757" /><path
   style="fill:#cd425b;fill-opacity:1;stroke:#e27364;stroke-width:0.0365434;stroke-opacity:0.9"
   d="m 22.686467,26.546443 c -0.047,-0.07777 -1.079472,-1.740544 -2.294459,-3.695043 -1.214988,-1.954496 -2.229035,-3.608557 -2.253432,-3.675681 -0.03838,-0.105629 7.496334,3.731126 7.702262,3.922062 0.05627,0.05213 -0.342664,0.540216 -1.496143,1.830583 -1.470784,1.645325 -1.578402,1.750285 -1.658209,1.618092 z"
   id="path3397"
   inkscape:transform-center-x="2.0001856"
   inkscape:transform-center-y="1.6158481" /><text
   xml:space="preserve"
   style="font-size:9.60625px;line-height:1.25;font-family:'Segoe Script';-inkscape-font-specification:'Segoe Script';fill:#16272a;fill-opacity:0.799714;stroke-width:0.240153"
   x="6.164432"
   y="34.909367"
   id="text17884"
   transform="scale(1.320407,0.75734225)"><tspan
     sodipodi:role="line"
     id="tspan17882"
     x="6.164432"
     y="34.909367"
     style="stroke-width:0.240153">_</tspan></text><text
   xml:space="preserve"
   style="font-size:9.78471px;line-height:1.25;font-family:'Segoe Script';-inkscape-font-specification:'Segoe Script';fill:#16272a;fill-opacity:0.799714;stroke-width:0.244618"
   x="31.09215"
   y="35.311344"
   id="text17884-6"
   transform="scale(1.3449533,0.74352024)"><tspan
     sodipodi:role="line"
     id="tspan17882-2"
     x="31.09215"
     y="35.311344"
     style="stroke-width:0.244618">_</tspan></text><text
   xml:space="preserve"
   style="font-size:8.59562px;line-height:1.25;font-family:'Segoe Script';-inkscape-font-specification:'Segoe Script';fill:#16272a;fill-opacity:0.799714;stroke-width:0.214891"
   x="-36.317066"
   y="34.756947"
   id="text17884-0"
   transform="matrix(-0.01847067,-1.3546271,0.73747571,-0.05389177,0,0)"><tspan
     sodipodi:role="line"
     id="tspan17882-4"
     x="-36.317066"
     y="34.756947"
     style="stroke-width:0.214891">_</tspan></text><text
   xml:space="preserve"
   style="font-size:9.70055px;line-height:1.25;font-family:'Segoe Script';-inkscape-font-specification:'Segoe Script';fill:#16272a;fill-opacity:0.799714;stroke-width:0.242511"
   x="-10.42968"
   y="35.7388"
   id="text17884-9"
   transform="matrix(5.1631104e-4,-1.3240444,0.75526112,0.00143777,0,0)"><tspan
     sodipodi:role="line"
     id="tspan17882-7"
     x="-10.42968"
     y="35.7388"
     style="stroke-width:0.242511">_</tspan></text><g
   aria-label="c"
   transform="scale(1.0366221,0.96467173)"
   id="text9344"
   style="font-size:11.4087px;line-height:1.25;font-family:'Segoe Script';-inkscape-font-specification:'Segoe Script';fill:#0e0e0e;stroke-width:0.285215"><path
     d="m 30.200224,4.7099959 q 0,0.2005436 -0.144837,0.3620925 -0.150408,0.1671197 -0.261821,0.2841034 -0.111413,0.1114131 -0.211685,0.2061142 -0.100272,0.094701 -0.211685,0.1838316 -0.111413,0.08356 -0.261821,0.1949729 -0.423369,0.306386 -0.807744,0.5180709 -0.384376,0.2061142 -0.746468,0.3398099 -0.362093,0.128125 -0.718614,0.1838316 -0.350952,0.055706 -0.707474,0.055706 -0.373233,0 -0.668478,-0.1392663 Q 25.164352,6.754426 24.958238,6.5093173 24.757694,6.2642085 24.651852,5.9411105 24.54601,5.6124419 24.54601,5.2503494 v -0.027853 q 0,-0.3676632 0.0947,-0.7798916 0.0947,-0.4177991 0.26182,-0.8355981 0.172691,-0.4177991 0.412229,-0.8188862 0.239538,-0.4066578 0.529212,-0.757609 0.116984,-0.1392664 0.278533,-0.2952447 0.167119,-0.1615489 0.350951,-0.2952447 0.189402,-0.1336957 0.389946,-0.2172555 0.206114,-0.08913 0.401087,-0.08913 0.133696,0 0.25625,0.08356 0.122554,0.077989 0.228397,0.2061142 0.105842,0.128125 0.194973,0.289674 0.08913,0.1559783 0.150407,0.323098 0.06128,0.1615489 0.0947,0.3119566 0.03342,0.1504077 0.03342,0.2562501 0,0.161549 -0.100271,0.4177991 -0.100272,0.2562501 -0.239538,0.2562501 -0.200544,0 -0.33424,-0.2729621 -0.05014,-0.1058424 -0.08913,-0.2451088 -0.03342,-0.1392663 -0.08356,-0.272962 Q 27.331337,2.3536092 27.253348,2.2421961 27.175358,2.1252123 27.036092,2.0695058 26.896826,2.1029297 26.751989,2.2143428 26.612722,2.3257559 26.473456,2.4873049 26.33976,2.6488538 26.206065,2.854968 26.07794,3.0555116 25.960956,3.2727671 25.849543,3.4733107 25.7437,3.7351314 q -0.105842,0.2562501 -0.189402,0.5347828 -0.08356,0.2729621 -0.133696,0.5459242 -0.05014,0.272962 -0.05014,0.5013588 0,0.161549 0.07799,0.3286686 0.07799,0.161549 0.200543,0.2952447 0.128125,0.1336957 0.284104,0.2172555 0.161548,0.08356 0.328668,0.08356 0.824457,0 1.637772,-0.3398099 0.813316,-0.3398099 1.548642,-0.9860058 0.406658,-0.3565218 0.67405,-0.3565218 0.07799,0 0.07799,0.1504076 z"
     id="path4932" /></g><g
   aria-label="в"
   transform="scale(1.4126533,0.70788775)"
   id="text19318"
   style="font-size:10.9645px;line-height:1.25;font-family:'Segoe Script';-inkscape-font-specification:'Segoe Script';fill:#161616;stroke-width:0.274114"><path
     d="m 38.613979,36.354771 q 0,-0.06425 -0.02677,-0.128491 -0.02141,-0.0696 -0.0696,-0.123136 -0.04283,-0.05889 -0.117782,-0.09637 -0.0696,-0.03748 -0.165967,-0.03748 -0.187382,0 -0.390824,0.133844 -0.19809,0.133844 -0.401532,0.369409 -0.19809,0.230212 -0.385471,0.551438 -0.187382,0.315871 -0.347995,0.685281 -0.160612,0.369409 -0.289103,0.776295 -0.123136,0.401532 -0.198089,0.808418 0.04818,-0.03212 0.144552,-0.101722 0.09637,-0.07495 0.21415,-0.165966 0.123137,-0.09637 0.256981,-0.203443 0.139197,-0.112429 0.262334,-0.219504 0.12849,-0.107075 0.235565,-0.203443 0.107076,-0.09637 0.171321,-0.165967 0.594267,-0.642451 0.851247,-1.113582 0.256981,-0.471131 0.256981,-0.765587 z m -0.165967,5.771353 q -0.165966,0.246273 -0.401532,0.481838 -0.230211,0.230212 -0.508607,0.406886 -0.278395,0.176674 -0.594267,0.278395 -0.310518,0.101722 -0.631744,0.07495 -0.224858,-0.01606 -0.428301,-0.144551 -0.203443,-0.133844 -0.358702,-0.374764 -0.155259,-0.246273 -0.246273,-0.599621 -0.09101,-0.353348 -0.09101,-0.813771 0,-0.294457 0.03212,-0.637098 0.03212,-0.347994 0.08566,-0.701342 0.05354,-0.353348 0.117783,-0.690635 0.0696,-0.337287 0.133844,-0.621036 0.08566,-0.385471 0.224858,-0.760234 0.139198,-0.380117 0.310518,-0.728112 0.17132,-0.353348 0.369409,-0.663866 0.19809,-0.310518 0.406886,-0.562145 0.289103,-0.337287 0.658513,-0.540729 0.374763,-0.203443 0.878016,-0.203443 0.208797,0 0.380117,0.08566 0.171321,0.08566 0.294457,0.224858 0.123137,0.133844 0.187382,0.305164 0.0696,0.17132 0.0696,0.337287 0,0.230212 -0.09637,0.513961 -0.09101,0.278395 -0.267688,0.58356 -0.176674,0.305164 -0.428301,0.615682 -0.251627,0.310518 -0.572852,0.599621 0.07495,0.0054 0.17132,0.02677 0.101722,0.01606 0.208797,0.06424 0.112429,0.04818 0.224858,0.12849 0.117782,0.08031 0.224858,0.203443 0.04818,0.05889 0.107075,0.160613 0.05889,0.09637 0.107075,0.240919 0.05354,0.139198 0.08566,0.321226 0.03748,0.182028 0.03748,0.401532 0,0.428301 -0.155259,0.9262 -0.149905,0.492546 -0.535376,1.060045 z M 38.298107,40.15594 q 0,-0.294457 -0.08566,-0.492546 -0.08566,-0.203443 -0.203443,-0.321225 -0.117783,-0.123137 -0.240919,-0.171321 -0.123137,-0.05354 -0.198089,-0.05354 -0.0696,0 -0.219504,0.107075 -0.149906,0.107075 -0.321226,0.235565 -0.12849,0.112429 -0.25698,0.208797 -0.128491,0.09637 -0.24092,0.187382 -0.107075,0.09101 -0.198089,0.182027 -0.09101,0.09101 -0.149905,0.192736 -0.149905,0.273042 -0.176674,0.621036 -0.02677,0.347994 -0.02677,0.71205 0,0.240919 0.04818,0.433655 0.05354,0.187381 0.12849,0.321225 0.08031,0.133844 0.17132,0.208797 0.09101,0.0696 0.165967,0.0696 0.182028,0 0.41224,-0.07495 0.230211,-0.07495 0.47113,-0.294457 0.208797,-0.192735 0.374764,-0.433654 0.17132,-0.24092 0.289103,-0.508608 0.123136,-0.267688 0.187381,-0.556791 0.0696,-0.289103 0.0696,-0.572852 z"
     id="path4851" /></g><g
   aria-label="ю"
   transform="scale(0.90119843,1.1096335)"
   id="text11307"
   style="font-size:9.14201px;line-height:1.25;font-family:'Segoe Script';-inkscape-font-specification:'Segoe Script';fill:#151515;stroke-width:0.22855"><path
     d="m 28.003542,47.724887 q 0,-0.01786 -0.02232,-0.03125 -0.01786,-0.01786 -0.04464,-0.04464 -0.02678,-0.02678 -0.0491,-0.07142 -0.01786,-0.04464 -0.01786,-0.124988 0,-0.07142 0.04018,-0.129452 0.04017,-0.05803 0.08481,-0.107133 0.0491,-0.0491 0.08928,-0.08928 0.04464,-0.04017 0.05357,-0.07589 0.07589,-0.428531 0.129452,-0.80796 0.05357,-0.37943 0.06696,-0.63387 0.0045,-0.07589 0,-0.156236 0,-0.08035 -0.0045,-0.160699 -0.0045,-0.05803 -0.0089,-0.111597 0,-0.05357 0,-0.102669 0,-0.05357 0.04018,-0.120525 0.04017,-0.06696 0.0982,-0.124988 0.06249,-0.05803 0.133916,-0.09374 0.07589,-0.04017 0.147308,-0.04017 0.06249,0 0.124988,0.03571 0.06249,0.03125 0.111597,0.09374 0.0491,0.05803 0.08035,0.147308 0.03125,0.08481 0.03125,0.191946 0,0.08035 -0.01339,0.196411 -0.01339,0.11606 -0.03571,0.254441 -0.02232,0.13838 -0.05357,0.290151 -0.02678,0.151772 -0.05357,0.303543 -0.03571,0.209802 -0.07142,0.401749 -0.03125,0.191946 -0.0491,0.330326 0.01786,0.04018 0.03125,0.07142 0.01786,0.02678 0.04464,0.04464 0.02678,0.01786 0.06696,0.02678 0.04464,0.0089 0.11606,0.0089 0.191947,0 0.406213,-0.04017 0.214266,-0.04018 0.406212,-0.102669 0.191947,-0.06249 0.343718,-0.129452 0.156236,-0.07142 0.232122,-0.133916 0.0491,-0.04018 0.107132,-0.107133 0.06249,-0.06696 0.124989,-0.142844 0.06249,-0.08035 0.120524,-0.156236 0.0625,-0.08035 0.107133,-0.13838 0.151772,-0.191946 0.343718,-0.374965 0.191947,-0.183019 0.424068,-0.321399 0.232122,-0.13838 0.499954,-0.223193 0.272296,-0.08481 0.589231,-0.08481 0.241049,0 0.47317,0.120525 0.232122,0.11606 0.410677,0.316935 0.183018,0.200874 0.290151,0.464242 0.111597,0.258905 0.111597,0.544593 0,0.285688 -0.05803,0.522273 -0.05357,0.232121 -0.174091,0.49549 -0.06696,0.13838 -0.232122,0.330326 -0.165163,0.191947 -0.397284,0.397285 -0.227658,0.205338 -0.499954,0.406212 -0.272296,0.200874 -0.55352,0.361574 -0.281224,0.160699 -0.55352,0.258904 -0.267832,0.09821 -0.486562,0.09821 -0.294616,0 -0.504418,-0.09821 -0.209802,-0.102669 -0.343718,-0.263368 -0.133916,-0.165164 -0.19641,-0.374965 -0.06249,-0.209802 -0.06249,-0.424068 0,-0.174091 0.0491,-0.419604 0.05357,-0.249977 0.178555,-0.504418 -0.169627,0.107133 -0.379429,0.169627 -0.205338,0.06249 -0.379429,0.111597 -0.07589,0.02232 -0.169627,0.04018 -0.09374,0.01339 -0.187483,0.02678 -0.08928,0.01339 -0.174091,0.02678 -0.08035,0.01339 -0.13838,0.02232 -0.08928,0.01786 -0.124988,0.07142 -0.03125,0.0491 -0.0491,0.129452 -0.01786,0.07589 -0.05357,0.200874 -0.03571,0.124989 -0.07142,0.258905 -0.04018,0.142844 -0.08481,0.294615 -0.04464,0.151772 -0.08035,0.290152 -0.03125,0.133916 -0.05803,0.249977 -0.02232,0.111597 -0.02232,0.174091 0,0.05803 -0.0491,0.124988 -0.04464,0.06696 -0.107133,0.124989 -0.05803,0.06249 -0.120524,0.102669 -0.05803,0.04017 -0.08928,0.04017 -0.06696,0 -0.129452,-0.04464 -0.05803,-0.04464 -0.102669,-0.102669 -0.04464,-0.05803 -0.07142,-0.116061 -0.02678,-0.06249 -0.02678,-0.09374 0,-0.04017 0.03125,-0.142844 0.03571,-0.102669 0.07142,-0.209802 0.02232,-0.06696 0.05803,-0.183019 0.03571,-0.11606 0.07142,-0.25444 0.04017,-0.142844 0.07589,-0.294616 0.04017,-0.151772 0.07142,-0.285688 0.03125,-0.133916 0.0491,-0.232121 0.01786,-0.102669 0.01786,-0.147308 z m 5.378966,-1.008835 q 0,-0.446387 -0.258905,-0.696364 -0.254441,-0.254441 -0.732075,-0.254441 -0.06696,0 -0.165163,0.05357 -0.09821,0.05357 -0.214266,0.13838 -0.111597,0.08035 -0.227658,0.178555 -0.111596,0.09821 -0.214265,0.191946 -0.09821,0.09374 -0.169627,0.169627 -0.07142,0.07589 -0.09821,0.107133 -0.09374,0.111597 -0.19641,0.308007 -0.09821,0.191947 -0.183019,0.41514 -0.08481,0.223194 -0.142844,0.450852 -0.05357,0.223193 -0.05357,0.39282 0,0.102669 0.02678,0.209802 0.03125,0.107133 0.08928,0.196411 0.06249,0.08481 0.156235,0.142844 0.09374,0.05357 0.21873,0.05357 0.13838,0 0.352646,-0.08035 0.214265,-0.08035 0.450851,-0.223193 0.241049,-0.142844 0.482098,-0.339255 0.245513,-0.19641 0.437459,-0.424067 0.196411,-0.227658 0.316935,-0.477635 0.124989,-0.25444 0.124989,-0.513345 z"
     id="path4872" /></g><g
   aria-label="з"
   transform="scale(1.3971491,0.7157432)"
   id="text16794"
   style="font-size:10.5291px;line-height:1.25;font-family:'Segoe Script';-inkscape-font-specification:'Segoe Script';fill:#131313;stroke-width:0.263229"><path
     d="m 0.87124905,40.193855 q 0.0514116,0 0.0822586,0.03599 0.0359881,0.03599 0.0565527,0.0874 0.020565,0.05655 0.025706,0.123388 0.010282,0.06683 0.010282,0.128529 0,0.118247 0.041129,0.257058 0.04627,0.138812 0.1439525,0.257058 0.1028233,0.118247 0.2621993,0.195364 0.159376,0.08226 0.3907283,0.08226 0.3136109,0 0.6477865,-0.164517 0.3341755,-0.164517 0.6117983,-0.457564 0.2776228,-0.293046 0.4524223,-0.699198 0.1799407,-0.40101 0.1799407,-0.879138 0,-0.44214 -0.092541,-0.75061 -0.092541,-0.30847 -0.2416346,-0.498693 -0.1439525,-0.195364 -0.3341755,-0.282764 -0.190223,-0.0874 -0.3804461,-0.0874 -0.071976,0 -0.159376,0.03599 -0.0874,0.03085 -0.1799407,0.08226 -0.0874,0.04627 -0.1799406,0.102823 -0.0874,0.05655 -0.1593761,0.102824 -0.1233879,0.08226 -0.2364934,0.138811 -0.1079645,0.05655 -0.2879051,0.05655 -0.1388114,0 -0.2416347,-0.102823 -0.097682,-0.107965 -0.097682,-0.282764 0,-0.133671 0.092541,-0.226211 0.097682,-0.09254 0.2981874,-0.1748 0.4267165,-0.174799 0.760892,-0.35474 0.3393167,-0.185082 0.570669,-0.39587 0.2313523,-0.215928 0.3547402,-0.472987 0.1233879,-0.257058 0.1233879,-0.586092 0,-0.128529 -0.041129,-0.251917 Q 3.30816,35.08354 3.2310426,34.985858 3.1539251,34.883035 3.0408195,34.821341 q -0.1079644,-0.06683 -0.2519169,-0.06683 -0.3084697,0 -0.5860925,0.190223 -0.2776228,0.190223 -0.5449632,0.467845 -0.1182467,0.123388 -0.1953642,0.179941 -0.077117,0.05141 -0.1645172,0.05141 -0.071976,0 -0.128529,-0.03599 -0.051412,-0.04113 -0.0874,-0.09254 -0.030847,-0.05655 -0.051412,-0.118247 -0.015424,-0.06683 -0.015424,-0.113106 0,-0.123388 0.066835,-0.231352 0.071976,-0.113106 0.190223,-0.210788 0.2570581,-0.215929 0.5038339,-0.35474 0.2467758,-0.138811 0.4061518,-0.205646 0.1799407,-0.07198 0.3701637,-0.138812 0.1953642,-0.06684 0.3650226,-0.06684 0.2416346,0 0.4627046,0.0874 0.2210699,0.08226 0.3855871,0.246776 0.1696584,0.159376 0.2673405,0.395869 0.1028232,0.236494 0.1028232,0.534681 0,0.431858 -0.2107876,0.858574 -0.2056465,0.426717 -0.7043393,0.827727 0.3444579,0.01542 0.601516,0.1748 0.2570581,0.159376 0.4267165,0.421575 0.1747995,0.262199 0.2570581,0.606657 0.0874,0.339317 0.0874,0.719763 0,0.380446 -0.1028233,0.755751 -0.1028232,0.375305 -0.2930462,0.719763 -0.1850819,0.344457 -0.4472812,0.637504 -0.2570581,0.293046 -0.570669,0.508975 -0.3084697,0.215929 -0.6632099,0.339316 -0.349599,0.123388 -0.7197627,0.123388 -0.3547402,0 -0.6169395,-0.118246 -0.26219929,-0.113106 -0.43699881,-0.287905 -0.16965835,-0.1748 -0.25705811,-0.375305 -0.0873998,-0.200506 -0.0873998,-0.370164 0,-0.128529 0.0462705,-0.277623 0.0514116,-0.149093 0.11310557,-0.236493 0.0411293,-0.05655 0.11824673,-0.118247 0.0771174,-0.05655 0.19536417,-0.05655 z"
     id="path4893" /></g></svg>
