<?xml version="1.0" encoding="UTF-8" standalone="no"?>
<!-- Generator: Adobe Illustrator 22.0.1, SVG Export Plug-In . SVG Version: 6.00 Build 0)  -->

<svg
   version="1.1"
   id="Layer_1"
   x="0px"
   y="0px"
   viewBox="0 0 56 56"
   xml:space="preserve"
   sodipodi:docname="northEastWind.svg"
   width="56"
   height="56"
   inkscape:version="1.1.1 (3bf5ae0d25, 2021-09-20)"
   xmlns:inkscape="http://www.inkscape.org/namespaces/inkscape"
   xmlns:sodipodi="http://sodipodi.sourceforge.net/DTD/sodipodi-0.dtd"
   xmlns="http://www.w3.org/2000/svg"
   xmlns:svg="http://www.w3.org/2000/svg"><defs
   id="defs7" /><sodipodi:namedview
   id="namedview5"
   pagecolor="#ffffff"
   bordercolor="#666666"
   borderopacity="1.0"
   inkscape:pageshadow="2"
   inkscape:pageopacity="0.0"
   inkscape:pagecheckerboard="0"
   showgrid="false"
   inkscape:zoom="7.1833332"
   inkscape:cx="68.491881"
   inkscape:cy="41.972159"
   inkscape:window-width="2400"
   inkscape:window-height="1321"
   inkscape:window-x="2391"
   inkscape:window-y="-9"
   inkscape:window-maximized="1"
   inkscape:current-layer="Layer_1"
   width="140px" />
<path
   d="m 13.805834,14.642126 c 2.442565,-2.681947 5.35828,-4.553206 8.722378,-5.6126579 3.364103,-1.0594504 6.757929,-1.2125616 10.181492,-0.4593361 3.423562,0.753222 6.428465,2.357376 9.026699,4.7993 1.945469,1.828436 3.454948,3.979108 4.527611,6.426827 1.072648,2.447719 1.625916,4.944089 1.721298,7.47372 0.09537,2.529632 -0.317482,5.069587 -1.238597,7.619857 -0.921118,2.55028 -2.273268,4.817441 -4.117163,6.842057 -1.819943,1.998317 -3.952026,3.556869 -6.371468,4.674557 -2.419438,1.117681 -4.89297,1.720938 -7.37022,1.8327 -2.477243,0.11177 -4.971009,-0.280006 -7.456523,-1.176396 -2.485511,-0.896402 -4.700585,-2.246234 -6.658855,-4.0867 -1.958282,-1.840462 -3.480553,-4.003164 -4.55321,-6.45089 -1.0726509,-2.447721 -1.6387151,-4.956112 -1.7341057,-7.485742 -0.095382,-2.529633 0.330282,-5.057557 1.2146585,-7.593566 0.8843642,-2.53602 2.2740862,-4.79227 4.1060052,-6.80373 z m 3.174196,2.983243 c -2.837677,3.115796 -4.203452,6.85855 -4.084528,11.240295 0.142872,4.355446 1.749795,7.96409 4.834394,10.863125 2.022265,1.900617 4.370703,3.156181 7.031682,3.7295 2.660982,0.573315 5.312457,0.478906 7.939994,-0.345609 2.627532,-0.824507 4.887602,-2.262772 6.779395,-4.339971 1.891777,-2.077197 3.139884,-4.490949 3.745155,-7.216075 0.605267,-2.725126 0.516901,-5.418961 -0.265097,-8.081503 -0.781996,-2.662544 -2.183712,-4.931527 -4.205983,-6.832142 -2.022265,-1.900616 -4.370702,-3.156181 -7.031686,-3.7295 -2.660975,-0.573311 -5.324433,-0.465755 -7.964762,0.346731 -2.640332,0.812487 -4.886777,2.287952 -6.778564,4.365149 z M 16.234425,31.19853 36.731139,18.47401 c 0.132528,-0.119436 0.256394,-0.125024 0.371587,-0.01673 0.115159,0.108294 0.119321,0.234143 0.01241,0.377633 L 26.204978,40.569277 c -0.0805,0.192743 -0.189096,0.285886 -0.324927,0.30462 -0.135837,0.0187 -0.238228,-0.0775 -0.307181,-0.288704 L 22.6881,34.701971 C 22.608,34.529088 22.480013,34.408794 22.31692,34.353125 l -6.036243,-2.501129 c -0.199822,-0.04142 -0.289413,-0.125619 -0.268775,-0.252618 0.02065,-0.126997 0.0772,-0.293435 0.222534,-0.40085 z"
   id="path2"
   style="fill:#2c4f54;fill-opacity:0.5;stroke:#2e3332;stroke-width:0.10895;stroke-miterlimit:4;stroke-dasharray:none;stroke-opacity:0.9" />
<path
   style="fill:#1f4347;fill-opacity:0.81;stroke:#e4e7e7;stroke-width:0.10895;stroke-miterlimit:4;stroke-dasharray:none;stroke-opacity:0.9"
   d="M 17.020936,37.983843 C 16.533178,37.413106 16.035655,36.744136 15.6424,36.130276 13.431158,32.678518 12.825985,27.87913 14.079338,23.734242 14.754,21.503123 15.703795,19.87011 17.371789,18.073429 c 1.711993,-1.844204 3.32961,-2.946635 5.548912,-3.782047 1.495829,-0.563061 2.859161,-0.844272 4.519969,-0.932313 3.295973,-0.174716 6.250103,0.603942 8.99611,2.371206 0.571864,0.368036 0.786193,0.545908 1.856275,1.540515 1.298846,1.207303 1.630462,1.585541 2.360475,2.692489 1.102506,1.671859 1.952638,3.924535 2.271719,6.019626 0.130153,0.854579 0.173982,2.651141 0.08621,3.534068 -0.212405,2.136837 -0.830258,4.172076 -1.783555,5.875084 -0.702974,1.255844 -1.000797,1.657259 -2.145036,2.891235 -0.807212,0.870458 -1.166479,1.222681 -1.576518,1.545253 -2.490139,1.959113 -5.531639,3.078618 -8.691277,3.199033 -3.235965,0.123317 -6.393508,-0.776016 -9.009523,-2.566105 -0.603046,-0.412654 -2.342636,-1.960458 -2.78463,-2.477625 z m 2.52098,-5.154581 c 1.637371,0.676802 3.032139,1.261129 3.099484,1.298507 0.08312,0.04611 0.605187,1.037107 1.625677,3.085838 0.865337,1.737227 1.545407,3.037797 1.602613,3.064826 0.118571,0.05599 0.319182,-0.0631 0.435465,-0.258553 0.04616,-0.07759 2.455524,-4.804883 5.354148,-10.505086 5.079389,-9.988723 5.267504,-10.369314 5.19509,-10.510586 -0.05599,-0.109173 -0.105622,-0.145168 -0.194759,-0.140892 -0.147418,0.0069 -19.929449,11.993124 -20.103563,12.180936 -0.157316,0.16969 -0.201918,0.449889 -0.08114,0.509818 0.04951,0.02451 1.429623,0.598393 3.06699,1.275193 z"
   id="path861" /><rect
   style="fill:#c7485e;fill-opacity:1;stroke:#3c4343;stroke-width:0.467802;stroke-opacity:0.9"
   id="rect2803"
   width="5.1276608"
   height="0.060298633"
   x="37.282112"
   y="-2.1281402"
   transform="matrix(0.73789778,0.67491249,-0.66982962,0.74251483,0,0)"
   inkscape:transform-center-x="4.0505877"
   inkscape:transform-center-y="0.36953536" /><path
   style="fill:#cd425c;fill-opacity:1;stroke:#e27364;stroke-width:0.0366586;stroke-opacity:0.9"
   d="m 29.519956,23.155865 c 0.07803,-0.04693 1.746394,-1.078358 3.707476,-2.292108 1.96108,-1.213749 3.620654,-2.226668 3.687935,-2.250928 0.10588,-0.03818 -3.763546,7.52151 -3.955458,7.727781 -0.0524,0.05637 -0.539433,-0.346615 -1.826646,-1.511318 -1.641301,-1.485095 -1.745951,-1.593699 -1.613323,-1.673411 z"
   id="path3397"
   inkscape:transform-center-x="1.6038195"
   inkscape:transform-center-y="-2.0103487" /><text
   xml:space="preserve"
   style="font-size:11.7769px;line-height:1.25;font-family:'Segoe Script';-inkscape-font-specification:'Segoe Script';fill:#000000;fill-opacity:1;stroke-width:0.29442"
   x="25.854122"
   y="6.7595415"
   id="text9344"
   transform="scale(1.0035478,0.99646475)"><tspan
     sodipodi:role="line"
     id="tspan9342"
     x="25.854122"
     y="6.7595415"
     style="fill:#000000;fill-opacity:1;stroke-width:0.29442">c</tspan></text><text
   xml:space="preserve"
   style="font-size:9.63638px;line-height:1.25;font-family:'Segoe Script';-inkscape-font-specification:'Segoe Script';fill:#16272a;fill-opacity:0.799714;stroke-width:0.240911"
   x="6.9065251"
   y="33.594727"
   id="text17884"
   transform="scale(1.3026154,0.76768632)"><tspan
     sodipodi:role="line"
     id="tspan17882"
     x="6.9065251"
     y="33.594727"
     style="stroke-width:0.240911">_</tspan></text><text
   xml:space="preserve"
   style="font-size:9.81558px;line-height:1.25;font-family:'Segoe Script';-inkscape-font-specification:'Segoe Script';fill:#16272a;fill-opacity:0.799714;stroke-width:0.24539"
   x="31.606073"
   y="33.971485"
   id="text17884-6"
   transform="scale(1.3268309,0.75367556)"><tspan
     sodipodi:role="line"
     id="tspan17882-2"
     x="31.606073"
     y="33.971485"
     style="stroke-width:0.24539">_</tspan></text><text
   xml:space="preserve"
   style="font-size:8.62296px;line-height:1.25;font-family:'Segoe Script';-inkscape-font-specification:'Segoe Script';fill:#16272a;fill-opacity:0.799714;stroke-width:0.215569"
   x="-36.028358"
   y="36.505356"
   id="text17884-0"
   transform="matrix(-0.0182218,-1.373129,0.72753877,-0.05462785,0,0)"><tspan
     sodipodi:role="line"
     id="tspan17882-4"
     x="-36.028358"
     y="36.505356"
     style="stroke-width:0.215569">_</tspan></text><text
   xml:space="preserve"
   style="font-size:9.73129px;line-height:1.25;font-family:'Segoe Script';-inkscape-font-specification:'Segoe Script';fill:#16272a;fill-opacity:0.799714;stroke-width:0.243277"
   x="-9.7948952"
   y="37.572159"
   id="text17884-9"
   transform="matrix(5.0935408e-4,-1.3421288,0.74508445,0.00145741,0,0)"><tspan
     sodipodi:role="line"
     id="tspan17882-7"
     x="-9.7948952"
     y="37.572159"
     style="stroke-width:0.243277">_</tspan></text><text
   xml:space="preserve"
   style="font-size:11.4444px;line-height:1.25;font-family:'Segoe Script';-inkscape-font-specification:'Segoe Script';fill:#161616;fill-opacity:1;stroke-width:0.286109"
   x="35.263523"
   y="38.534115"
   id="text19318"
   transform="scale(1.3801532,0.72455723)"><tspan
     sodipodi:role="line"
     id="tspan19316"
     x="35.263523"
     y="38.534115"
     style="fill:#161616;fill-opacity:1;stroke-width:0.286109">в</tspan></text><text
   xml:space="preserve"
   style="font-size:9.54221px;line-height:1.25;font-family:'Segoe Script';-inkscape-font-specification:'Segoe Script';fill:#151515;fill-opacity:1;stroke-width:0.23855"
   x="27.09782"
   y="48.694382"
   id="text11307"
   transform="scale(0.8804645,1.1357641)"><tspan
     sodipodi:role="line"
     id="tspan11305"
     x="27.09782"
     y="48.694382"
     style="fill:#151515;fill-opacity:1;stroke-width:0.23855">ю</tspan></text><text
   xml:space="preserve"
   style="font-size:10.9899px;line-height:1.25;font-family:'Segoe Script';-inkscape-font-specification:'Segoe Script';fill:#131313;fill-opacity:1;stroke-width:0.27475"
   x="0.0016629512"
   y="37.358765"
   id="text16794"
   transform="scale(1.3650009,0.73260025)"><tspan
     sodipodi:role="line"
     id="tspan16792"
     x="0.0016629512"
     y="37.358765"
     style="fill:#131313;fill-opacity:1;stroke-width:0.27475">з</tspan></text></svg>
