<?xml version="1.0" encoding="UTF-8" standalone="no"?>
<!-- Generator: Adobe Illustrator 22.0.1, SVG Export Plug-In . SVG Version: 6.00 Build 0)  -->

<svg
   version="1.1"
   id="Layer_1"
   x="0px"
   y="0px"
   viewBox="0 0 56 56"
   xml:space="preserve"
   sodipodi:docname="southWind.svg"
   width="56"
   height="56"
   inkscape:version="1.1.1 (3bf5ae0d25, 2021-09-20)"
   xmlns:inkscape="http://www.inkscape.org/namespaces/inkscape"
   xmlns:sodipodi="http://sodipodi.sourceforge.net/DTD/sodipodi-0.dtd"
   xmlns="http://www.w3.org/2000/svg"
   xmlns:svg="http://www.w3.org/2000/svg"><defs
   id="defs7" /><sodipodi:namedview
   id="namedview5"
   pagecolor="#ffffff"
   bordercolor="#666666"
   borderopacity="1.0"
   inkscape:pageshadow="2"
   inkscape:pageopacity="0.0"
   inkscape:pagecheckerboard="0"
   showgrid="false"
   inkscape:zoom="7.1833332"
   inkscape:cx="34.802785"
   inkscape:cy="40.580047"
   inkscape:window-width="2400"
   inkscape:window-height="1321"
   inkscape:window-x="2391"
   inkscape:window-y="-9"
   inkscape:window-maximized="1"
   inkscape:current-layer="Layer_1"
   width="140px" />
<path
   d="m 48.372805,28.93824 c -0.121261,3.617239 -1.145018,6.939082 -3.05281,9.948382 -1.907797,3.0093 -4.437543,5.359495 -7.589252,7.050589 -3.151706,1.691094 -6.541161,2.46922 -10.168967,2.352125 C 24.8454,48.201661 22.254072,47.585492 19.805077,46.459157 17.356093,45.332812 15.277589,43.827913 13.532067,41.996502 11.78655,40.165072 10.428204,37.991139 9.4570228,35.474701 8.485853,32.958246 8.0359087,30.369873 8.1274432,27.639208 c 0.090342,-2.695194 0.7132559,-5.266694 1.8502638,-7.697349 1.137002,-2.430648 2.655871,-4.511715 4.502405,-6.227187 1.846524,-1.715473 4.038598,-3.064767 6.557728,-4.0307538 2.519133,-0.9659798 5.128248,-1.4142803 7.8625,-1.3260248 2.734258,0.088246 5.343453,0.704995 7.792447,1.8313376 2.448987,1.126346 4.545353,2.631814 6.290887,4.463226 1.745526,1.831418 3.086006,4.004774 4.076227,6.48634 0.990237,2.481565 1.403846,5.086518 1.312904,7.799443 z m -4.431997,-0.143053 c 0.140871,-4.202378 -1.273589,-7.904684 -4.261242,-11.107498 -2.988842,-3.167345 -6.619143,-4.811087 -10.926038,-4.950103 -2.823609,-0.09114 -5.473816,0.515596 -7.915481,1.839088 -2.441666,1.323498 -4.434725,3.140739 -5.926773,5.488932 -1.492051,2.348184 -2.293669,4.913918 -2.38759,7.715509 -0.09391,2.801579 0.533564,5.43119 1.865117,7.870524 1.331559,2.439329 3.180154,4.398328 5.545776,5.876995 2.365625,1.478663 4.951596,2.254413 7.775207,2.345547 2.823609,0.09114 5.473816,-0.515601 7.915485,-1.83909 2.441656,-1.323494 4.435322,-3.158476 5.945235,-5.50609 1.509915,-2.347615 2.276389,-4.932229 2.370304,-7.733814 z M 35.549639,18.14016 28.068791,41.16991 c -0.02381,0.176736 -0.116145,0.262507 -0.276997,0.257299 C 27.63096,41.422 27.544572,41.330473 27.532639,41.1526 L 21.628173,17.69081 c -0.06496,-0.197359 -0.04232,-0.338636 0.05059,-0.442137 0.09294,-0.103484 0.235888,-0.09889 0.428905,0.01385 l 6.123942,2.505268 c 0.176334,0.0767 0.355043,0.08247 0.518259,0.01673 l 6.3321,-2.103219 c 0.182271,-0.100613 0.307367,-0.09657 0.375288,0.01212 0.0679,0.108704 0.134053,0.270586 0.09237,0.446749 z"
   id="path2"
   style="fill:#2c4f54;fill-opacity:0.5;stroke:#2e3332;stroke-width:0.109806;stroke-miterlimit:4;stroke-dasharray:none;stroke-opacity:0.9" />
<path
   style="fill:#1f4347;fill-opacity:0.81;stroke:#e4e7e7;stroke-width:0.109806;stroke-miterlimit:4;stroke-dasharray:none;stroke-opacity:0.9"
   d="m 30.324837,13.490072 c 0.756632,0.09622 1.586651,0.258612 2.299801,0.449946 4.010049,1.07592 7.693644,4.223352 9.514119,8.129303 0.979924,2.102503 1.347773,3.946341 1.275137,6.391623 -0.07447,2.509874 -0.574275,4.407629 -1.714245,6.510151 -0.768353,1.417107 -1.624278,2.537 -2.837735,3.712865 -2.408179,2.333572 -5.194055,3.732907 -8.483719,4.26136 -0.68508,0.110055 -0.968635,0.121745 -2.45582,0.101247 -1.805163,-0.0249 -2.313009,-0.08309 -3.615001,-0.414154 -1.966397,-0.500061 -4.129089,-1.598779 -5.779165,-2.936021 -0.673063,-0.545453 -1.911955,-1.845824 -2.437055,-2.558001 -1.27086,-1.723584 -2.162901,-3.643123 -2.57502,-5.541103 -0.303923,-1.399612 -0.345041,-1.895888 -0.296187,-3.574422 0.0345,-1.184091 0.07348,-1.685047 0.171228,-2.198015 0.593594,-3.11533 2.172938,-5.977976 4.513082,-8.180181 2.396682,-2.255396 5.419375,-3.701455 8.624753,-4.126082 0.738907,-0.09788 3.110211,-0.115707 3.795835,-0.02853 z m 1.526613,5.501006 c -1.708626,0.594111 -3.169333,1.094418 -3.246009,1.111791 -0.09463,0.02147 -1.159493,-0.362858 -3.315891,-1.196702 -1.828531,-0.707054 -3.222157,-1.214827 -3.284122,-1.196575 -0.128418,0.03785 -0.20222,0.260168 -0.16019,0.48259 0.0167,0.0883 1.342151,5.19841 2.94547,11.355804 2.809566,10.789876 2.92077,11.19737 3.071033,11.253498 0.116136,0.04335 0.178321,0.03679 0.24375,-0.02596 0.108284,-0.103738 7.223891,-22.204705 7.231295,-22.460153 0.0067,-0.2308 -0.147118,-0.46801 -0.279862,-0.431596 -0.05439,0.01499 -1.496849,0.513206 -3.205476,1.107316 z"
   id="path861" /><rect
   style="fill:#c7485e;fill-opacity:1;stroke:#3c4343;stroke-width:0.471484;stroke-opacity:0.9"
   id="rect2803"
   width="5.2208095"
   height="0.060159262"
   x="-31.040541"
   y="-32.216972"
   transform="matrix(-0.99999891,0.00147942,0.00982324,-0.99995175,0,0)"
   inkscape:transform-center-x="-2.8397574"
   inkscape:transform-center-y="-3.003601" /><path
   style="fill:#cd425c;fill-opacity:1;stroke:#e27364;stroke-width:0.0374658;stroke-opacity:0.9"
   d="m 30.547324,32.728394 c -0.02925,0.08907 -0.63638,2.014859 -1.349118,4.27958 -0.712734,2.264718 -1.325316,4.170324 -1.361287,4.234668 -0.05662,0.101242 -2.072815,-8.335922 -2.061043,-8.624778 0.0031,-0.07891 0.646976,-0.100076 2.414527,-0.07947 2.253774,0.02628 2.406696,0.03865 2.356919,0.18998 z"
   id="path3397"
   inkscape:transform-center-x="-2.5876659"
   inkscape:transform-center-y="1.5957871" /><text
   xml:space="preserve"
   style="font-size:9.50637px;line-height:1.25;font-family:'Segoe Script';-inkscape-font-specification:'Segoe Script';fill:#16272a;fill-opacity:0.799714;stroke-width:0.23766"
   x="6.482677"
   y="34.198185"
   id="text17884"
   transform="scale(1.2972854,0.77084038)"><tspan
     sodipodi:role="line"
     id="tspan17882"
     x="6.482677"
     y="34.198185"
     style="stroke-width:0.23766">_</tspan></text><text
   xml:space="preserve"
   style="font-size:10.1688px;line-height:1.25;font-family:'Segoe Script';-inkscape-font-specification:'Segoe Script';fill:#16272a;fill-opacity:0.799714;stroke-width:0.254217"
   x="30.244415"
   y="36.324081"
   id="text17884-6"
   transform="scale(1.387667,0.720634)"><tspan
     sodipodi:role="line"
     id="tspan17882-2"
     x="30.244415"
     y="36.324081"
     style="stroke-width:0.254217">_</tspan></text><text
   xml:space="preserve"
   style="font-size:8.69054px;line-height:1.25;font-family:'Segoe Script';-inkscape-font-specification:'Segoe Script';fill:#16272a;fill-opacity:0.799714;stroke-width:0.217263"
   x="-36.857704"
   y="35.350746"
   id="text17884-0"
   transform="matrix(-0.01854005,-1.3495579,0.7402458,-0.0536901,0,0)"><tspan
     sodipodi:role="line"
     id="tspan17882-4"
     x="-36.857704"
     y="35.350746"
     style="stroke-width:0.217263">_</tspan></text><text
   xml:space="preserve"
   style="font-size:9.64571px;line-height:1.25;font-family:'Segoe Script';-inkscape-font-specification:'Segoe Script';fill:#16272a;fill-opacity:0.799714;stroke-width:0.241142"
   x="-10.67818"
   y="35.871811"
   id="text17884-9"
   transform="matrix(5.2694884e-4,-1.2973152,0.77082215,0.00140873,0,0)"><tspan
     sodipodi:role="line"
     id="tspan17882-7"
     x="-10.67818"
     y="35.871811"
     style="stroke-width:0.241142">_</tspan></text><text
   xml:space="preserve"
   style="font-size:12.8196px;line-height:1.25;font-family:'Segoe Script';-inkscape-font-specification:'Segoe Script';fill:#0e0e0e;fill-opacity:1;stroke-width:0.320486"
   x="24.910393"
   y="7.535912"
   id="text9344"
   transform="scale(0.99796311,1.002041)"><tspan
     sodipodi:role="line"
     id="tspan9342"
     x="24.910393"
     y="7.535912"
     style="fill:#0e0e0e;fill-opacity:1;stroke-width:0.320486">c</tspan></text><text
   xml:space="preserve"
   style="font-size:12.2804px;line-height:1.25;font-family:'Segoe Script';-inkscape-font-specification:'Segoe Script';fill:#161616;fill-opacity:1;stroke-width:0.307011"
   x="34.341427"
   y="41.35144"
   id="text19318"
   transform="scale(1.3922842,0.71824417)"><tspan
     sodipodi:role="line"
     id="tspan19316"
     x="34.341427"
     y="41.35144"
     style="fill:#161616;fill-opacity:1;stroke-width:0.307011">в</tspan></text><text
   xml:space="preserve"
   style="font-size:10.2393px;line-height:1.25;font-family:'Segoe Script';-inkscape-font-specification:'Segoe Script';fill:#151515;fill-opacity:1;stroke-width:0.255979"
   x="25.972719"
   y="49.233662"
   id="text11307"
   transform="scale(0.88820342,1.1258682)"><tspan
     sodipodi:role="line"
     id="tspan11305"
     x="25.972719"
     y="49.233662"
     style="fill:#151515;fill-opacity:1;stroke-width:0.255979">ю</tspan></text><text
   xml:space="preserve"
   style="font-size:11.7928px;line-height:1.25;font-family:'Segoe Script';-inkscape-font-specification:'Segoe Script';fill:#131313;fill-opacity:1;stroke-width:0.294821"
   x="0.17971061"
   y="39.622086"
   id="text16794"
   transform="scale(1.3769987,0.7262171)"><tspan
     sodipodi:role="line"
     id="tspan16792"
     x="0.17971061"
     y="39.622086"
     style="fill:#131313;fill-opacity:1;stroke-width:0.294821">з</tspan></text></svg>
