<?xml version="1.0" encoding="UTF-8" standalone="no"?>
<!-- Generator: Adobe Illustrator 22.0.1, SVG Export Plug-In . SVG Version: 6.00 Build 0)  -->

<svg
   version="1.1"
   id="Layer_1"
   x="0px"
   y="0px"
   viewBox="0 0 56 56"
   xml:space="preserve"
   sodipodi:docname="southWind.svg"
   width="56"
   height="56"
   inkscape:version="1.1.1 (3bf5ae0d25, 2021-09-20)"
   xmlns:inkscape="http://www.inkscape.org/namespaces/inkscape"
   xmlns:sodipodi="http://sodipodi.sourceforge.net/DTD/sodipodi-0.dtd"
   xmlns="http://www.w3.org/2000/svg"
   xmlns:svg="http://www.w3.org/2000/svg"><defs
   id="defs7" /><sodipodi:namedview
   id="namedview5"
   pagecolor="#ffffff"
   bordercolor="#666666"
   borderopacity="1.0"
   inkscape:pageshadow="2"
   inkscape:pageopacity="0.0"
   inkscape:pagecheckerboard="0"
   showgrid="false"
   inkscape:zoom="7.1833332"
   inkscape:cx="34.941996"
   inkscape:cy="40.580047"
   inkscape:window-width="2400"
   inkscape:window-height="1321"
   inkscape:window-x="2391"
   inkscape:window-y="-9"
   inkscape:window-maximized="1"
   inkscape:current-layer="Layer_1"
   width="140px" />
<path
   d="m 48.372805,28.93824 c -0.121261,3.617239 -1.145018,6.939082 -3.05281,9.948382 -1.907797,3.0093 -4.437543,5.359495 -7.589252,7.050589 -3.151706,1.691094 -6.541161,2.46922 -10.168967,2.352125 C 24.8454,48.201661 22.254072,47.585492 19.805077,46.459157 17.356093,45.332812 15.277589,43.827913 13.532067,41.996502 11.78655,40.165072 10.428204,37.991139 9.4570228,35.474701 8.485853,32.958246 8.0359087,30.369873 8.1274432,27.639208 c 0.090342,-2.695194 0.7132559,-5.266694 1.8502638,-7.697349 1.137002,-2.430648 2.655871,-4.511715 4.502405,-6.227187 1.846524,-1.715473 4.038598,-3.064767 6.557728,-4.0307538 2.519133,-0.9659798 5.128248,-1.4142803 7.8625,-1.3260248 2.734258,0.088246 5.343453,0.704995 7.792447,1.8313376 2.448987,1.126346 4.545353,2.631814 6.290887,4.463226 1.745526,1.831418 3.086006,4.004774 4.076227,6.48634 0.990237,2.481565 1.403846,5.086518 1.312904,7.799443 z m -4.431997,-0.143053 c 0.140871,-4.202378 -1.273589,-7.904684 -4.261242,-11.107498 -2.988842,-3.167345 -6.619143,-4.811087 -10.926038,-4.950103 -2.823609,-0.09114 -5.473816,0.515596 -7.915481,1.839088 -2.441666,1.323498 -4.434725,3.140739 -5.926773,5.488932 -1.492051,2.348184 -2.293669,4.913918 -2.38759,7.715509 -0.09391,2.801579 0.533564,5.43119 1.865117,7.870524 1.331559,2.439329 3.180154,4.398328 5.545776,5.876995 2.365625,1.478663 4.951596,2.254413 7.775207,2.345547 2.823609,0.09114 5.473816,-0.515601 7.915485,-1.83909 2.441656,-1.323494 4.435322,-3.158476 5.945235,-5.50609 1.509915,-2.347615 2.276389,-4.932229 2.370304,-7.733814 z M 35.549639,18.14016 28.068791,41.16991 c -0.02381,0.176736 -0.116145,0.262507 -0.276997,0.257299 C 27.63096,41.422 27.544572,41.330473 27.532639,41.1526 L 21.628173,17.69081 c -0.06496,-0.197359 -0.04232,-0.338636 0.05059,-0.442137 0.09294,-0.103484 0.235888,-0.09889 0.428905,0.01385 l 6.123942,2.505268 c 0.176334,0.0767 0.355043,0.08247 0.518259,0.01673 l 6.3321,-2.103219 c 0.182271,-0.100613 0.307367,-0.09657 0.375288,0.01212 0.0679,0.108704 0.134053,0.270586 0.09237,0.446749 z"
   id="path2"
   style="fill:#2c4f54;fill-opacity:0.5;stroke:#2e3332;stroke-width:0.109806;stroke-miterlimit:4;stroke-dasharray:none;stroke-opacity:0.9" />
<path
   style="fill:#1f4347;fill-opacity:0.81;stroke:#e4e7e7;stroke-width:0.109806;stroke-miterlimit:4;stroke-dasharray:none;stroke-opacity:0.9"
   d="m 30.324837,13.490072 c 0.756632,0.09622 1.586651,0.258612 2.299801,0.449946 4.010049,1.07592 7.693644,4.223352 9.514119,8.129303 0.979924,2.102503 1.347773,3.946341 1.275137,6.391623 -0.07447,2.509874 -0.574275,4.407629 -1.714245,6.510151 -0.768353,1.417107 -1.624278,2.537 -2.837735,3.712865 -2.408179,2.333572 -5.194055,3.732907 -8.483719,4.26136 -0.68508,0.110055 -0.968635,0.121745 -2.45582,0.101247 -1.805163,-0.0249 -2.313009,-0.08309 -3.615001,-0.414154 -1.966397,-0.500061 -4.129089,-1.598779 -5.779165,-2.936021 -0.673063,-0.545453 -1.911955,-1.845824 -2.437055,-2.558001 -1.27086,-1.723584 -2.162901,-3.643123 -2.57502,-5.541103 -0.303923,-1.399612 -0.345041,-1.895888 -0.296187,-3.574422 0.0345,-1.184091 0.07348,-1.685047 0.171228,-2.198015 0.593594,-3.11533 2.172938,-5.977976 4.513082,-8.180181 2.396682,-2.255396 5.419375,-3.701455 8.624753,-4.126082 0.738907,-0.09788 3.110211,-0.115707 3.795835,-0.02853 z m 1.526613,5.501006 c -1.708626,0.594111 -3.169333,1.094418 -3.246009,1.111791 -0.09463,0.02147 -1.159493,-0.362858 -3.315891,-1.196702 -1.828531,-0.707054 -3.222157,-1.214827 -3.284122,-1.196575 -0.128418,0.03785 -0.20222,0.260168 -0.16019,0.48259 0.0167,0.0883 1.342151,5.19841 2.94547,11.355804 2.809566,10.789876 2.92077,11.19737 3.071033,11.253498 0.116136,0.04335 0.178321,0.03679 0.24375,-0.02596 0.108284,-0.103738 7.223891,-22.204705 7.231295,-22.460153 0.0067,-0.2308 -0.147118,-0.46801 -0.279862,-0.431596 -0.05439,0.01499 -1.496849,0.513206 -3.205476,1.107316 z"
   id="path861" /><rect
   style="fill:#c7485e;fill-opacity:1;stroke:#3c4343;stroke-width:0.471484;stroke-opacity:0.9"
   id="rect2803"
   width="5.2208095"
   height="0.060159262"
   x="-31.040541"
   y="-32.216972"
   transform="matrix(-0.99999891,0.00147942,0.00982324,-0.99995175,0,0)"
   inkscape:transform-center-x="-2.8397574"
   inkscape:transform-center-y="-3.003601" /><path
   style="fill:#cd425c;fill-opacity:1;stroke:#e27364;stroke-width:0.0374658;stroke-opacity:0.9"
   d="m 30.547324,32.728394 c -0.02925,0.08907 -0.63638,2.014859 -1.349118,4.27958 -0.712734,2.264718 -1.325316,4.170324 -1.361287,4.234668 -0.05662,0.101242 -2.072815,-8.335922 -2.061043,-8.624778 0.0031,-0.07891 0.646976,-0.100076 2.414527,-0.07947 2.253774,0.02628 2.406696,0.03865 2.356919,0.18998 z"
   id="path3397"
   inkscape:transform-center-x="-2.5876659"
   inkscape:transform-center-y="1.5957871" /><text
   xml:space="preserve"
   style="font-size:9.50637px;line-height:1.25;font-family:'Segoe Script';-inkscape-font-specification:'Segoe Script';fill:#16272a;fill-opacity:0.799714;stroke-width:0.23766"
   x="6.482677"
   y="34.198185"
   id="text17884"
   transform="scale(1.2972854,0.77084038)"><tspan
     sodipodi:role="line"
     id="tspan17882"
     x="6.482677"
     y="34.198185"
     style="stroke-width:0.23766">_</tspan></text><text
   xml:space="preserve"
   style="font-size:10.1688px;line-height:1.25;font-family:'Segoe Script';-inkscape-font-specification:'Segoe Script';fill:#16272a;fill-opacity:0.799714;stroke-width:0.254217"
   x="30.244415"
   y="36.324081"
   id="text17884-6"
   transform="scale(1.387667,0.720634)"><tspan
     sodipodi:role="line"
     id="tspan17882-2"
     x="30.244415"
     y="36.324081"
     style="stroke-width:0.254217">_</tspan></text><text
   xml:space="preserve"
   style="font-size:8.69054px;line-height:1.25;font-family:'Segoe Script';-inkscape-font-specification:'Segoe Script';fill:#16272a;fill-opacity:0.799714;stroke-width:0.217263"
   x="-36.857704"
   y="35.350746"
   id="text17884-0"
   transform="matrix(-0.01854005,-1.3495579,0.7402458,-0.0536901,0,0)"><tspan
     sodipodi:role="line"
     id="tspan17882-4"
     x="-36.857704"
     y="35.350746"
     style="stroke-width:0.217263">_</tspan></text><text
   xml:space="preserve"
   style="font-size:9.64571px;line-height:1.25;font-family:'Segoe Script';-inkscape-font-specification:'Segoe Script';fill:#16272a;fill-opacity:0.799714;stroke-width:0.241142"
   x="-10.67818"
   y="35.871811"
   id="text17884-9"
   transform="matrix(5.2694884e-4,-1.2973152,0.77082215,0.00140873,0,0)"><tspan
     sodipodi:role="line"
     id="tspan17882-7"
     x="-10.67818"
     y="35.871811"
     style="stroke-width:0.241142">_</tspan></text><g
   aria-label="c"
   transform="scale(0.99796311,1.002041)"
   id="text9344"
   style="font-size:12.8196px;line-height:1.25;font-family:'Segoe Script';-inkscape-font-specification:'Segoe Script';fill:#0e0e0e;stroke-width:0.320486"><path
     d="m 32.065082,4.9444499 q 0,0.2253445 -0.162749,0.4068721 -0.169009,0.1877871 -0.2942,0.3192381 -0.125191,0.1251914 -0.237864,0.2316041 -0.112672,0.1064127 -0.237863,0.2065658 -0.125192,0.093893 -0.2942,0.219085 -0.475727,0.3442763 -0.907638,0.58214 -0.43191,0.2316041 -0.838782,0.3818338 -0.406872,0.1439701 -0.807485,0.2065658 -0.394353,0.062596 -0.794965,0.062596 -0.419391,0 -0.751149,-0.1564892 Q 26.40643,7.2417122 26.174826,6.9662911 25.949481,6.69087 25.83055,6.327815 25.711618,5.9585003 25.711618,5.5516282 v -0.031298 q 0,-0.4131317 0.106412,-0.8763399 0.106413,-0.4694677 0.2942,-0.9389355 0.194047,-0.4694678 0.463208,-0.9201569 0.269162,-0.4569486 0.59466,-0.8513015 0.131451,-0.1564893 0.312978,-0.3317573 0.187787,-0.1815275 0.394353,-0.3317572 0.212826,-0.1502297 0.43817,-0.2441232 0.231604,-0.10015317 0.450689,-0.10015317 0.15023,0 0.28794,0.0938936 0.137711,0.087634 0.256643,0.2316041 0.118932,0.1439701 0.219085,0.3254977 0.100153,0.1752679 0.169008,0.363055 0.06885,0.1815276 0.106413,0.350536 0.03756,0.1690084 0.03756,0.2879402 0,0.1815275 -0.112672,0.4694678 -0.112672,0.2879402 -0.269162,0.2879402 -0.225344,0 -0.375574,-0.3067189 Q 29.02919,2.9100895 28.985373,2.7536003 28.947816,2.597111 28.89148,2.4468813 28.841403,2.2966516 28.753769,2.1714602 28.666135,2.0400093 28.509646,1.9774136 28.353156,2.014971 28.190408,2.1401624 28.033918,2.2653538 27.877429,2.4468813 27.727199,2.6284089 27.57697,2.860013 27.433,3.0853575 27.301549,3.3294808 27.176357,3.5548253 27.057425,3.8490251 26.938494,4.1369653 26.8446,4.4499438 q -0.09389,0.306719 -0.15023,0.6134379 -0.05634,0.306719 -0.05634,0.5633614 0,0.1815275 0.08763,0.3693146 0.08763,0.1815276 0.225345,0.3317573 0.14397,0.1502296 0.319238,0.2441232 0.181527,0.093894 0.369314,0.093894 0.926417,0 1.840314,-0.3818338 0.913897,-0.3818338 1.740161,-1.107944 0.456948,-0.4006125 0.757408,-0.4006125 0.08763,0 0.08763,0.1690084 z"
     id="path5865" /></g><g
   aria-label="в"
   transform="scale(1.3922842,0.71824417)"
   id="text19318"
   style="font-size:12.2804px;line-height:1.25;font-family:'Segoe Script';-inkscape-font-specification:'Segoe Script';fill:#161616;stroke-width:0.307011"><path
     d="m 38.994547,33.646209 q 0,-0.07196 -0.02998,-0.143911 -0.02398,-0.07795 -0.07795,-0.137915 -0.04797,-0.06596 -0.131918,-0.107933 -0.07795,-0.04197 -0.185885,-0.04197 -0.20987,0 -0.437729,0.149907 -0.221863,0.149907 -0.449722,0.413744 -0.221863,0.257841 -0.431733,0.617618 -0.20987,0.353781 -0.389759,0.767525 -0.179888,0.413744 -0.323799,0.869462 -0.137915,0.449722 -0.221863,0.90544 0.05397,-0.03598 0.1619,-0.11393 0.107933,-0.08395 0.239851,-0.185885 0.137915,-0.107933 0.287822,-0.227859 0.155904,-0.125922 0.293818,-0.245848 0.143911,-0.119926 0.263837,-0.227859 0.119926,-0.107933 0.191881,-0.185885 0.665589,-0.719554 0.95341,-1.247228 0.287822,-0.527673 0.287822,-0.857469 z m -0.185885,6.464 q -0.185885,0.275829 -0.449721,0.539666 -0.257841,0.25784 -0.569648,0.455718 -0.311807,0.197877 -0.665588,0.311807 -0.347785,0.113929 -0.707562,0.08395 -0.251844,-0.01799 -0.479703,-0.1619 -0.227859,-0.149907 -0.401752,-0.41974 -0.173892,-0.27583 -0.275829,-0.671585 -0.101937,-0.395755 -0.101937,-0.911436 0,-0.329796 0.03598,-0.713558 0.03598,-0.389759 0.09594,-0.785514 0.05996,-0.395755 0.131918,-0.773521 0.07795,-0.377767 0.149907,-0.69557 0.09594,-0.431733 0.251844,-0.851473 0.155904,-0.425736 0.347785,-0.815495 0.191881,-0.395755 0.413744,-0.74354 0.221863,-0.347785 0.455718,-0.629611 0.3238,-0.377766 0.737544,-0.605625 0.41974,-0.227859 0.983391,-0.227859 0.233855,0 0.425737,0.09594 0.191881,0.09594 0.329795,0.251844 0.137915,0.149907 0.209871,0.341789 0.07795,0.191881 0.07795,0.377766 0,0.25784 -0.107933,0.575644 -0.101937,0.311807 -0.299814,0.653595 -0.197878,0.341789 -0.479703,0.689573 -0.281826,0.347785 -0.641603,0.671585 0.08395,0.006 0.191881,0.02998 0.113929,0.01799 0.233855,0.07196 0.125922,0.05397 0.251844,0.143911 0.131919,0.08994 0.251844,0.227859 0.05397,0.06596 0.119926,0.179888 0.06596,0.107933 0.119926,0.269833 0.05996,0.155904 0.09594,0.359778 0.04197,0.203873 0.04197,0.449721 0,0.479703 -0.173893,1.037358 -0.167896,0.551659 -0.599629,1.187266 z m -0.167896,-2.206635 q 0,-0.329796 -0.09594,-0.551658 -0.09594,-0.227859 -0.227859,-0.359778 -0.131919,-0.137914 -0.269833,-0.191881 -0.137915,-0.05996 -0.221863,-0.05996 -0.07795,0 -0.245848,0.119926 -0.167896,0.119926 -0.359777,0.263837 -0.143911,0.125922 -0.287822,0.233855 -0.143911,0.107933 -0.269833,0.20987 -0.119926,0.101937 -0.221863,0.203874 -0.101937,0.101937 -0.167896,0.215866 -0.167896,0.305811 -0.197878,0.69557 -0.02998,0.389759 -0.02998,0.797506 0,0.269833 0.05397,0.4857 0.05996,0.20987 0.143911,0.359777 0.08994,0.149907 0.191881,0.233855 0.101937,0.07795 0.185885,0.07795 0.203874,0 0.461714,-0.08395 0.25784,-0.08395 0.527673,-0.329796 0.233856,-0.215866 0.419741,-0.485699 0.191881,-0.269833 0.323799,-0.569648 0.137915,-0.299814 0.20987,-0.623614 0.07795,-0.3238 0.07795,-0.641603 z"
     id="path5886" /></g><g
   aria-label="ю"
   transform="scale(0.88820342,1.1258682)"
   id="text11307"
   style="font-size:10.2393px;line-height:1.25;font-family:'Segoe Script';-inkscape-font-specification:'Segoe Script';fill:#151515;stroke-width:0.255979"><path
     d="m 27.312628,47.168803 q 0,-0.02 -0.025,-0.035 -0.02,-0.02 -0.05,-0.05 -0.03,-0.03 -0.055,-0.08 -0.02,-0.05 -0.02,-0.13999 0,-0.08 0.045,-0.14499 0.045,-0.065 0.09499,-0.119992 0.055,-0.055 0.09999,-0.09999 0.05,-0.045 0.06,-0.08499 0.08499,-0.479967 0.14499,-0.904938 0.06,-0.424971 0.07499,-0.709951 0.005,-0.08499 0,-0.174988 0,-0.08999 -0.005,-0.179988 -0.005,-0.065 -0.01,-0.124991 0,-0.06 0,-0.114992 0,-0.06 0.045,-0.134991 0.045,-0.075 0.109993,-0.139991 0.06999,-0.06499 0.149989,-0.104992 0.08499,-0.045 0.164989,-0.045 0.06999,0 0.139991,0.04 0.06999,0.035 0.124991,0.104993 0.055,0.06499 0.08999,0.164988 0.035,0.09499 0.035,0.214986 0,0.08999 -0.015,0.219985 -0.015,0.129991 -0.04,0.28498 -0.025,0.15499 -0.06,0.324978 -0.03,0.169988 -0.06,0.339977 -0.04,0.234984 -0.07999,0.449969 -0.035,0.214985 -0.055,0.369975 0.02,0.045 0.035,0.07999 0.02,0.03 0.05,0.05 0.03,0.02 0.075,0.03 0.05,0.01 0.129991,0.01 0.214985,0 0.454969,-0.045 0.239983,-0.045 0.454969,-0.114992 0.214985,-0.07 0.384973,-0.14499 0.174988,-0.08 0.259983,-0.14999 0.055,-0.045 0.119991,-0.119992 0.07,-0.07499 0.139991,-0.159989 0.06999,-0.08999 0.134991,-0.174988 0.07,-0.08999 0.119991,-0.154989 0.169989,-0.214985 0.384974,-0.419971 0.214985,-0.204986 0.474967,-0.359976 0.259983,-0.154989 0.559962,-0.249983 0.304979,-0.09499 0.659955,-0.09499 0.269982,0 0.529964,0.134991 0.259982,0.129991 0.459968,0.354975 0.204986,0.224985 0.324978,0.519965 0.124992,0.28998 0.124992,0.609958 0,0.319978 -0.065,0.58496 -0.06,0.259982 -0.194987,0.554962 -0.07499,0.154989 -0.259982,0.369975 -0.184987,0.214985 -0.444969,0.444969 -0.254983,0.229985 -0.559962,0.454969 -0.304979,0.224985 -0.619958,0.404973 -0.314978,0.179987 -0.619957,0.28998 -0.29998,0.109992 -0.544963,0.109992 -0.329977,0 -0.564961,-0.109992 -0.234984,-0.114992 -0.384974,-0.29498 -0.14999,-0.184987 -0.219985,-0.419971 -0.07,-0.234984 -0.07,-0.474968 0,-0.194987 0.055,-0.469968 0.06,-0.279981 0.199986,-0.564961 -0.189987,0.119992 -0.424971,0.189987 -0.229984,0.06999 -0.424971,0.124991 -0.08499,0.025 -0.189987,0.045 -0.104992,0.015 -0.209985,0.03 -0.09999,0.015 -0.194987,0.03 -0.08999,0.015 -0.154989,0.025 -0.09999,0.02 -0.139991,0.08 -0.035,0.055 -0.055,0.14499 -0.02,0.08499 -0.06,0.224985 -0.04,0.13999 -0.07999,0.28998 -0.045,0.159989 -0.09499,0.329977 -0.05,0.169989 -0.08999,0.324978 -0.035,0.14999 -0.06499,0.279981 -0.025,0.124991 -0.025,0.194987 0,0.06499 -0.055,0.13999 -0.05,0.075 -0.119992,0.13999 -0.06499,0.07 -0.13499,0.114993 -0.065,0.045 -0.09999,0.045 -0.07499,0 -0.14499,-0.05 -0.06499,-0.05 -0.114992,-0.114992 -0.05,-0.065 -0.07999,-0.129991 -0.03,-0.07 -0.03,-0.104993 0,-0.045 0.035,-0.159989 0.04,-0.114992 0.08,-0.234984 0.025,-0.075 0.06499,-0.204986 0.04,-0.129991 0.08,-0.284981 0.045,-0.159989 0.08499,-0.329977 0.045,-0.169988 0.08,-0.319978 0.035,-0.14999 0.055,-0.259982 0.02,-0.114993 0.02,-0.164989 z m 6.024588,-1.129923 q 0,-0.499966 -0.289981,-0.779947 -0.28498,-0.28498 -0.819944,-0.28498 -0.07499,0 -0.184987,0.06 -0.109992,0.06 -0.239983,0.154989 -0.124992,0.08999 -0.254983,0.199987 -0.124991,0.109992 -0.239984,0.214985 -0.109992,0.104993 -0.189987,0.189987 -0.07999,0.08499 -0.109992,0.119992 -0.104993,0.124991 -0.219985,0.344976 -0.109993,0.214985 -0.204986,0.464968 -0.09499,0.249983 -0.159989,0.504966 -0.06,0.249983 -0.06,0.43997 0,0.114992 0.03,0.234984 0.035,0.119991 0.09999,0.219985 0.06999,0.09499 0.174988,0.159989 0.104993,0.06 0.244983,0.06 0.15499,0 0.394973,-0.08999 0.239984,-0.08999 0.504966,-0.249983 0.269981,-0.159989 0.539963,-0.379974 0.274981,-0.219985 0.489966,-0.474968 0.219985,-0.254982 0.354976,-0.534963 0.139991,-0.284981 0.139991,-0.574961 z"
     id="path5907" /></g><g
   aria-label="з"
   transform="scale(1.3769987,0.7262171)"
   id="text16794"
   style="font-size:11.7928px;line-height:1.25;font-family:'Segoe Script';-inkscape-font-specification:'Segoe Script';fill:#131313;stroke-width:0.294821"><path
     d="m 1.0261665,40.082742 q 0.057582,0 0.092131,0.04031 0.040307,0.04031 0.06334,0.09789 0.023033,0.06334 0.028791,0.138197 0.011516,0.07486 0.011516,0.143955 0,0.132438 0.046066,0.28791 0.051824,0.155471 0.1612297,0.28791 0.115164,0.132439 0.2936683,0.218812 0.1785043,0.09213 0.4376235,0.09213 0.3512504,0 0.7255336,-0.184263 0.3742832,-0.184262 0.6852261,-0.51248 0.310943,-0.328217 0.5067219,-0.783115 0.2015371,-0.44914 0.2015371,-0.984653 0,-0.495205 -0.1036476,-0.840698 Q 4.0722559,37.739153 3.905268,37.5261 3.7440383,37.307288 3.5309848,37.209398 q -0.2130535,-0.09789 -0.426107,-0.09789 -0.080615,0 -0.1785043,0.04031 -0.097889,0.03455 -0.2015371,0.09213 -0.097889,0.05182 -0.2015371,0.115164 -0.097889,0.06334 -0.1785043,0.115164 -0.1381969,0.09213 -0.2648774,0.155471 -0.1209222,0.06334 -0.3224593,0.06334 -0.1554715,0 -0.2706356,-0.115165 -0.1094058,-0.120922 -0.1094058,-0.316701 0,-0.149713 0.1036476,-0.253361 0.1094059,-0.103647 0.3339758,-0.195779 0.4779308,-0.195778 0.8522141,-0.397316 0.3800414,-0.207295 0.6391605,-0.443381 0.2591191,-0.241845 0.397316,-0.529755 0.1381969,-0.28791 0.1381969,-0.656435 0,-0.143955 -0.046066,-0.282152 -0.040308,-0.143955 -0.1266805,-0.253361 -0.086373,-0.115164 -0.2130535,-0.184262 -0.1209223,-0.07486 -0.282152,-0.07486 -0.3454922,0 -0.6564351,0.213053 -0.310943,0.213054 -0.6103696,0.523997 -0.1324386,0.138197 -0.2188117,0.201537 -0.086373,0.05758 -0.1842625,0.05758 -0.080615,0 -0.1439551,-0.04031 -0.057582,-0.04607 -0.097889,-0.103648 -0.034549,-0.06334 -0.057582,-0.132439 -0.017275,-0.07486 -0.017275,-0.12668 0,-0.138197 0.074857,-0.259119 0.080615,-0.126681 0.2130535,-0.236087 0.2879102,-0.241844 0.5643039,-0.397316 0.2763938,-0.155471 0.4548981,-0.230328 0.2015371,-0.08062 0.4145906,-0.155471 0.2188117,-0.07486 0.4088324,-0.07486 0.2706355,0 0.5182383,0.09789 0.2476027,0.09213 0.4318652,0.276393 0.1900207,0.178505 0.2994266,0.443382 0.115164,0.264877 0.115164,0.598853 0,0.483689 -0.2360863,0.96162 -0.2303281,0.477931 -0.7888738,0.927071 0.3857996,0.01727 0.6737097,0.195779 0.2879102,0.178504 0.4779309,0.472172 0.1957789,0.293669 0.2879102,0.679468 0.097889,0.380042 0.097889,0.806149 0,0.426107 -0.115164,0.846456 -0.1151641,0.420348 -0.3282176,0.806148 -0.2072953,0.3858 -0.5009637,0.714017 -0.2879102,0.328218 -0.6391605,0.570062 -0.3454922,0.241845 -0.7428082,0.380042 -0.3915579,0.138197 -0.8061485,0.138197 -0.397316,0 -0.6909843,-0.132439 -0.2936684,-0.126681 -0.48944731,-0.32246 -0.1900207,-0.195778 -0.28791016,-0.420348 -0.0978894,-0.22457 -0.0978894,-0.414591 0,-0.143955 0.0518238,-0.310943 0.057582,-0.166988 0.12668047,-0.264877 0.0460656,-0.06334 0.13243867,-0.132439 0.086373,-0.06334 0.21881175,-0.06334 z"
     id="path5928" /></g></svg>
