<?xml version="1.0" encoding="UTF-8" standalone="no"?>
<!-- Generator: Adobe Illustrator 22.0.1, SVG Export Plug-In . SVG Version: 6.00 Build 0)  -->

<svg
   version="1.1"
   id="Layer_1"
   x="0px"
   y="0px"
   viewBox="0 0 56 56"
   xml:space="preserve"
   sodipodi:docname="westWind.svg"
   width="56"
   height="56"
   inkscape:version="1.1.1 (3bf5ae0d25, 2021-09-20)"
   xmlns:inkscape="http://www.inkscape.org/namespaces/inkscape"
   xmlns:sodipodi="http://sodipodi.sourceforge.net/DTD/sodipodi-0.dtd"
   xmlns="http://www.w3.org/2000/svg"
   xmlns:svg="http://www.w3.org/2000/svg"><defs
   id="defs7" /><sodipodi:namedview
   id="namedview5"
   pagecolor="#ffffff"
   bordercolor="#666666"
   borderopacity="1.0"
   inkscape:pageshadow="2"
   inkscape:pageopacity="0.0"
   inkscape:pagecheckerboard="0"
   showgrid="false"
   inkscape:zoom="7.1833332"
   inkscape:cx="60.974479"
   inkscape:cy="18.445476"
   inkscape:window-width="2400"
   inkscape:window-height="1321"
   inkscape:window-x="2391"
   inkscape:window-y="-9"
   inkscape:window-maximized="1"
   inkscape:current-layer="Layer_1"
   width="140px" />
<path
   d="M 27.729166,46.979039 C 24.232891,46.782013 21.043184,45.74861 18.176207,43.896437 15.30923,42.044254 13.094172,39.626202 11.531035,36.64229 9.9678968,33.658378 9.2933879,30.473455 9.4903508,27.086542 c 0.1474794,-2.536003 0.8033022,-4.942938 1.9493412,-7.205076 1.146049,-2.262128 2.649737,-4.169339 4.46159,-5.757876 1.811871,-1.58853 3.946123,-2.807385 6.402757,-3.656565 2.456654,-0.8491721 4.970848,-1.2096732 7.610198,-1.0609551 2.605063,0.1467844 5.078184,0.7883101 7.403205,1.9069181 2.325009,1.1186 4.303049,2.585909 5.919886,4.350907 1.61683,1.764988 2.871472,3.844367 3.747784,6.220456 0.876308,2.376094 1.249766,4.824279 1.101314,7.376966 -0.148439,2.552704 -0.805238,4.976316 -1.951283,7.238456 -1.146051,2.262129 -2.650703,4.186015 -4.462559,5.77456 -1.811856,1.588544 -3.945135,2.790715 -6.368478,3.658494 -2.423346,0.867797 -4.952742,1.193955 -7.57494,1.046212 z m 0.240626,-4.137704 c 4.061844,0.228866 7.675835,-1.007042 10.842948,-3.724414 3.132824,-2.719316 4.806622,-6.073225 5.040459,-10.094125 0.153301,-2.636112 -0.372472,-5.126365 -1.596398,-7.438349 -1.22393,-2.311985 -2.935825,-4.216244 -5.172883,-5.664673 -2.237053,-1.448433 -4.700475,-2.256797 -7.408375,-2.409386 -2.707892,-0.152574 -5.266074,0.372843 -7.656438,1.560521 -2.390361,1.187683 -4.328011,2.869573 -5.812948,5.045657 -1.484934,2.17609 -2.295002,4.574325 -2.4483,7.21044 -0.153305,2.636112 0.372474,5.126367 1.596399,7.438354 1.223926,2.311977 2.952967,4.217211 5.189056,5.682319 2.236087,1.465107 4.718585,2.241074 7.42648,2.393656 z M 38.470326,35.247674 16.365502,27.725023 c -0.170412,-0.02638 -0.251251,-0.114595 -0.242506,-0.264762 0.0087,-0.150149 0.09928,-0.22875 0.271616,-0.235785 l 22.831561,-4.973847 c 0.19241,-0.05612 0.328549,-0.0317 0.426523,0.05751 0.09796,0.08923 0.09022,0.222689 -0.02347,0.400416 l -2.564706,5.663891 c -0.07827,0.162976 -0.08796,0.329821 -0.02815,0.483848 l 1.888422,5.965031 c 0.09313,0.172628 0.08634,0.289422 -0.02021,0.350377 -0.106725,0.06098 -0.264839,0.118991 -0.434283,0.07592 z"
   id="path2"
   style="fill:#2c4f54;fill-opacity:0.5;stroke:#2e3332;stroke-width:0.104423;stroke-miterlimit:4;stroke-dasharray:none;stroke-opacity:0.9" />
<path
   style="fill:#1f4347;fill-opacity:0.81;stroke:#e4e7e7;stroke-width:0.104423;stroke-miterlimit:4;stroke-dasharray:none;stroke-opacity:0.9"
   d="m 43.108936,30.47959 c -0.114447,0.704118 -0.29497,1.474926 -0.500182,2.135732 -1.153948,3.715709 -4.302216,7.067724 -8.131459,8.657684 -2.061213,0.855838 -3.854948,1.147214 -6.217946,1.010042 -2.425415,-0.14073 -4.246779,-0.661452 -6.248096,-1.78603 -1.348894,-0.75797 -2.407853,-1.589335 -3.510838,-2.756286 -2.188952,-2.315895 -3.463632,-4.958153 -3.881776,-8.046353 -0.08709,-0.643131 -0.09037,-0.908362 -0.02852,-2.297116 0.07511,-1.685689 0.145727,-2.158469 0.502733,-3.365414 0.539229,-1.822844 1.663017,-3.812095 3.003018,-5.315695 0.54658,-0.613317 1.839295,-1.733834 2.542948,-2.204194 1.702949,-1.13838 3.584714,-1.917312 5.432067,-2.248508 1.362277,-0.244247 1.843432,-0.268591 3.465512,-0.175365 1.144265,0.06581 1.627682,0.116408 2.121056,0.222276 2.996334,0.642859 5.72042,2.19945 7.784229,4.448059 2.113658,2.302937 3.426841,5.167753 3.746946,8.174278 0.07379,0.693057 0.024,2.908857 -0.07968,3.5469 z m -5.363657,1.270221 c -0.526328,-1.613058 -0.968936,-2.991844 -0.983573,-3.063969 -0.01808,-0.089 0.383723,-1.072912 1.251151,-3.063793 0.735532,-1.688183 1.266034,-2.975722 1.250129,-3.034127 -0.03298,-0.121042 -0.245916,-0.196292 -0.462227,-0.163333 -0.08588,0.0131 -5.065776,1.10647 -11.06645,2.42974 -10.515254,2.318815 -10.912519,2.411154 -10.971051,2.549939 -0.04522,0.107266 -0.04064,0.165546 0.01821,0.228446 0.09735,0.104034 21.271978,7.378111 21.518837,7.392268 0.223035,0.01279 0.456811,-0.124169 0.425342,-0.249208 -0.01296,-0.05119 -0.454061,-1.412914 -0.98039,-3.025973 z"
   id="path861" /><rect
   style="fill:#c7485e;fill-opacity:1;stroke:#3c4343;stroke-width:0.448364;stroke-opacity:0.9"
   id="rect2803"
   width="4.8796463"
   height="0.058207519"
   x="-30.135902"
   y="25.254585"
   transform="matrix(0.00378653,-0.99999283,0.99992411,0.01231939,0,0)"
   inkscape:transform-center-x="-2.8921065"
   inkscape:transform-center-y="2.6623919" /><path
   style="fill:#cd425c;fill-opacity:1;stroke:#e27364;stroke-width:0.0352446;stroke-opacity:0.9"
   d="m 24.576875,30.134321 c -0.08532,-0.02823 -1.930632,-0.614338 -4.10072,-1.302503 -2.170087,-0.688162 -3.995866,-1.279024 -4.057272,-1.313014 -0.09662,-0.05354 8.061774,-1.780626 8.339811,-1.765541 0.07595,0.0038 0.08618,0.595747 0.03841,2.218974 -0.0609,2.069765 -0.07523,2.210046 -0.220209,2.162084 z"
   id="path3397"
   inkscape:transform-center-x="1.5645728"
   inkscape:transform-center-y="2.4158142" /><text
   xml:space="preserve"
   style="font-size:9.23596px;line-height:1.25;font-family:'Segoe Script';-inkscape-font-specification:'Segoe Script';fill:#16272a;fill-opacity:0.799714;stroke-width:0.230901"
   x="7.3543544"
   y="35.544102"
   id="text17884"
   transform="scale(1.3233086,0.75568163)"><tspan
     sodipodi:role="line"
     id="tspan17882"
     x="7.3543544"
     y="35.544102"
     style="stroke-width:0.230901">_</tspan></text><text
   xml:space="preserve"
   style="font-size:9.09859px;line-height:1.25;font-family:'Segoe Script';-inkscape-font-specification:'Segoe Script';fill:#16272a;fill-opacity:0.799714;stroke-width:0.227465"
   x="32.772961"
   y="34.785229"
   id="text17884-6"
   transform="scale(1.3036061,0.76710286)"><tspan
     sodipodi:role="line"
     id="tspan17882-2"
     x="32.772961"
     y="34.785229"
     style="stroke-width:0.227465">_</tspan></text><text
   xml:space="preserve"
   style="font-size:7.83369px;line-height:1.25;font-family:'Segoe Script';-inkscape-font-specification:'Segoe Script';fill:#16272a;fill-opacity:0.799714;stroke-width:0.19584"
   x="-37.899616"
   y="34.282101"
   id="text17884-0"
   transform="matrix(-0.01952929,-1.2811962,0.77974362,-0.05097044,0,0)"><tspan
     sodipodi:role="line"
     id="tspan17882-4"
     x="-37.899616"
     y="34.282101"
     style="stroke-width:0.19584">_</tspan></text><text
   xml:space="preserve"
   style="font-size:9.32673px;line-height:1.25;font-family:'Segoe Script';-inkscape-font-specification:'Segoe Script';fill:#16272a;fill-opacity:0.799714;stroke-width:0.233168"
   x="-11.30002"
   y="37.296829"
   id="text17884-9"
   transform="matrix(5.1744566e-4,-1.3211411,0.75692085,0.00143461,0,0)"><tspan
     sodipodi:role="line"
     id="tspan17882-7"
     x="-11.30002"
     y="37.296829"
     style="stroke-width:0.233168">_</tspan></text><g
   aria-label="в"
   transform="scale(1.3935413,0.71759627)"
   id="text19318"
   style="font-size:12.2125px;line-height:1.25;font-family:'Segoe Script';-inkscape-font-specification:'Segoe Script';fill:#161616;stroke-width:0.305315"><path
     d="m 38.963093,34.59552 q 0,-0.07156 -0.02981,-0.143115 -0.02385,-0.07752 -0.07752,-0.137152 -0.0477,-0.0656 -0.131189,-0.107336 -0.07752,-0.04174 -0.184857,-0.04174 -0.20871,0 -0.435309,0.149078 -0.220636,0.149078 -0.447235,0.411456 -0.220636,0.256415 -0.429346,0.614203 -0.208709,0.351825 -0.387603,0.763281 -0.178895,0.411457 -0.32201,0.864655 -0.137152,0.447235 -0.220636,0.900433 0.05367,-0.03578 0.161005,-0.113299 0.107336,-0.08348 0.238525,-0.184858 0.137152,-0.107336 0.286231,-0.226599 0.155041,-0.125226 0.292193,-0.244488 0.143116,-0.119263 0.262378,-0.226599 0.119263,-0.107337 0.190821,-0.184858 0.661908,-0.715576 0.948138,-1.240331 0.28623,-0.524756 0.28623,-0.852729 z m -0.184857,6.428259 q -0.184857,0.274305 -0.447235,0.536682 -0.256415,0.256415 -0.566498,0.453199 -0.310083,0.196783 -0.661908,0.310083 -0.345861,0.113299 -0.703649,0.08348 -0.250452,-0.01789 -0.477051,-0.161005 -0.226599,-0.149078 -0.39953,-0.417419 -0.172931,-0.274305 -0.274304,-0.667872 -0.101374,-0.393566 -0.101374,-0.906396 0,-0.327972 0.03578,-0.709613 0.03578,-0.387604 0.09541,-0.781171 0.05963,-0.393567 0.131189,-0.769244 0.07752,-0.375678 0.149079,-0.691724 0.09541,-0.429345 0.250451,-0.846765 0.155042,-0.423382 0.345862,-0.810986 0.19082,-0.393567 0.411456,-0.739429 0.220636,-0.345862 0.453199,-0.626129 0.322009,-0.375677 0.733465,-0.602276 0.41742,-0.2266 0.977954,-0.2266 0.232562,0 0.423383,0.09541 0.19082,0.09541 0.327972,0.250451 0.137152,0.149079 0.20871,0.339899 0.07752,0.19082 0.07752,0.375677 0,0.256415 -0.107337,0.572461 -0.101373,0.310083 -0.298157,0.649982 -0.196783,0.339899 -0.47705,0.68576 -0.280268,0.345862 -0.638056,0.667872 0.08348,0.006 0.190821,0.02981 0.113299,0.01789 0.232562,0.07156 0.125226,0.05367 0.250451,0.143115 0.131189,0.08945 0.250452,0.226599 0.05367,0.06559 0.119263,0.178894 0.06559,0.107337 0.119263,0.268341 0.05963,0.155042 0.09541,0.357788 0.04174,0.202747 0.04174,0.447235 0,0.477051 -0.172931,1.031623 -0.166968,0.548608 -0.596314,1.1807 z m -0.166968,-2.194433 q 0,-0.327973 -0.09541,-0.548609 -0.09541,-0.226599 -0.226599,-0.357788 -0.131189,-0.137152 -0.268341,-0.19082 -0.137152,-0.05963 -0.220636,-0.05963 -0.07752,0 -0.244488,0.119262 -0.166968,0.119263 -0.357788,0.262378 -0.143116,0.125226 -0.286231,0.232563 -0.143115,0.107336 -0.268341,0.208709 -0.119263,0.101374 -0.220636,0.202747 -0.101373,0.101373 -0.166968,0.214673 -0.166967,0.30412 -0.196783,0.691723 -0.02982,0.387604 -0.02982,0.793097 0,0.268341 0.05367,0.483014 0.05963,0.20871 0.143116,0.357788 0.08945,0.149079 0.19082,0.232562 0.101373,0.07752 0.184857,0.07752 0.202747,0 0.459161,-0.08348 0.256415,-0.08348 0.524756,-0.327972 0.232563,-0.214673 0.41742,-0.483014 0.19082,-0.268341 0.322009,-0.566498 0.137152,-0.298157 0.20871,-0.620166 0.07752,-0.322009 0.07752,-0.638055 z"
     id="path971" /></g><g
   aria-label="ю"
   transform="scale(0.88900539,1.1248526)"
   id="text11307"
   style="font-size:10.1827px;line-height:1.25;font-family:'Segoe Script';-inkscape-font-specification:'Segoe Script';fill:#151515;stroke-width:0.254565"><path
     d="m 28.819841,46.731524 q 0,-0.01989 -0.02486,-0.0348 -0.01989,-0.01989 -0.04972,-0.04972 -0.02983,-0.02983 -0.05469,-0.07955 -0.01989,-0.04972 -0.01989,-0.139217 0,-0.07955 0.04475,-0.144189 0.04475,-0.06464 0.09447,-0.119328 0.05469,-0.05469 0.09944,-0.09944 0.04972,-0.04475 0.05966,-0.08452 0.08453,-0.477314 0.144189,-0.899936 0.05966,-0.422622 0.07458,-0.706027 0.005,-0.08452 0,-0.174021 0,-0.0895 -0.005,-0.178992 -0.005,-0.06464 -0.0099,-0.124301 0,-0.05966 0,-0.114356 0,-0.05967 0.04475,-0.134245 0.04475,-0.07458 0.109384,-0.139217 0.06961,-0.06464 0.149161,-0.104412 0.08452,-0.04475 0.164076,-0.04475 0.06961,0 0.139217,0.03978 0.06961,0.0348 0.1243,0.104412 0.05469,0.06464 0.0895,0.164077 0.0348,0.09447 0.0348,0.213797 0,0.0895 -0.01492,0.218769 -0.01492,0.129273 -0.03978,0.283405 -0.02486,0.154133 -0.05966,0.323182 -0.02983,0.169048 -0.05966,0.338097 -0.03978,0.233685 -0.07955,0.447482 -0.0348,0.213797 -0.05469,0.36793 0.01989,0.04475 0.0348,0.07955 0.01989,0.02983 0.04972,0.04972 0.02983,0.01989 0.07458,0.02983 0.04972,0.0099 0.129273,0.0099 0.213797,0 0.452454,-0.04475 0.238657,-0.04475 0.452454,-0.114356 0.213797,-0.06961 0.382846,-0.144189 0.17402,-0.07955 0.258545,-0.149161 0.05469,-0.04475 0.119328,-0.119328 0.06961,-0.07458 0.139217,-0.159105 0.06961,-0.0895 0.134244,-0.174021 0.06961,-0.0895 0.119329,-0.154132 0.169049,-0.213797 0.382846,-0.41765 0.213796,-0.203853 0.472342,-0.357986 0.258545,-0.154132 0.556866,-0.248601 0.303293,-0.09447 0.656307,-0.09447 0.268489,0 0.527034,0.134245 0.258545,0.129272 0.457426,0.353013 0.203853,0.223741 0.323182,0.51709 0.1243,0.288378 0.1243,0.606587 0,0.318209 -0.06464,0.581726 -0.05966,0.258546 -0.193909,0.551895 -0.07458,0.154133 -0.258545,0.367929 -0.183965,0.213797 -0.44251,0.44251 -0.253573,0.228713 -0.556867,0.452454 -0.303293,0.223741 -0.61653,0.402734 -0.313238,0.178993 -0.616531,0.288377 -0.298321,0.109385 -0.54195,0.109385 -0.328154,0 -0.561839,-0.109385 -0.233685,-0.114356 -0.382845,-0.293349 -0.149161,-0.183965 -0.218769,-0.41765 -0.06961,-0.233685 -0.06961,-0.472342 0,-0.193909 0.05469,-0.46737 0.05966,-0.278433 0.198881,-0.561838 -0.188937,0.119328 -0.422622,0.188937 -0.228713,0.06961 -0.422622,0.1243 -0.08452,0.02486 -0.188937,0.04475 -0.104412,0.01492 -0.208825,0.02983 -0.09944,0.01492 -0.193909,0.02983 -0.0895,0.01492 -0.154132,0.02486 -0.09944,0.01989 -0.139217,0.07955 -0.0348,0.05469 -0.05469,0.144189 -0.01989,0.08452 -0.05966,0.223741 -0.03978,0.139216 -0.07955,0.288377 -0.04475,0.159105 -0.09447,0.328153 -0.04972,0.169049 -0.0895,0.323182 -0.0348,0.14916 -0.06464,0.278433 -0.02486,0.1243 -0.02486,0.193909 0,0.06464 -0.05469,0.139216 -0.04972,0.07458 -0.119329,0.139217 -0.06464,0.06961 -0.134244,0.114356 -0.06464,0.04475 -0.09944,0.04475 -0.07458,0 -0.144188,-0.04972 -0.06464,-0.04972 -0.114357,-0.114356 -0.04972,-0.06464 -0.07955,-0.129273 -0.02983,-0.06961 -0.02983,-0.104412 0,-0.04475 0.0348,-0.159105 0.03978,-0.114356 0.07955,-0.233685 0.02486,-0.07458 0.06464,-0.203853 0.03978,-0.129272 0.07955,-0.283405 0.04475,-0.159105 0.08452,-0.328153 0.04475,-0.169049 0.07955,-0.31821 0.03481,-0.14916 0.05469,-0.258545 0.01989,-0.114356 0.01989,-0.164077 z m 5.991286,-1.123676 q 0,-0.497203 -0.288377,-0.775636 -0.283406,-0.283405 -0.815412,-0.283405 -0.07458,0 -0.183965,0.05966 -0.109384,0.05966 -0.238657,0.154133 -0.1243,0.0895 -0.253573,0.198881 -0.1243,0.109384 -0.238657,0.213797 -0.109384,0.104412 -0.188937,0.188936 -0.07955,0.08452 -0.109384,0.119329 -0.104413,0.124301 -0.218769,0.34307 -0.109385,0.213796 -0.203853,0.462398 -0.09447,0.248601 -0.159105,0.502174 -0.05966,0.248601 -0.05966,0.437538 0,0.114356 0.02983,0.233685 0.0348,0.119328 0.09944,0.218769 0.06961,0.09447 0.17402,0.159104 0.104413,0.05966 0.243629,0.05966 0.154133,0 0.39279,-0.0895 0.238657,-0.0895 0.502174,-0.248601 0.268489,-0.159105 0.536979,-0.377874 0.273461,-0.218769 0.487258,-0.472342 0.218769,-0.253573 0.353013,-0.532006 0.139217,-0.283405 0.139217,-0.571782 z"
     id="path992" /></g><g
   aria-label="з"
   transform="scale(1.378242,0.72556199)"
   id="text16794"
   style="font-size:11.7277px;line-height:1.25;font-family:'Segoe Script';-inkscape-font-specification:'Segoe Script';fill:#131313;stroke-width:0.293192"><path
     d="m 1.5278274,40.518466 q 0.057264,0 0.091623,0.04009 0.040085,0.04008 0.062991,0.09735 0.022906,0.06299 0.028632,0.137434 0.011453,0.07444 0.011453,0.14316 0,0.131708 0.045811,0.286321 0.051538,0.154613 0.1603396,0.286321 0.1145283,0.131707 0.2920472,0.217603 0.1775189,0.09162 0.4352077,0.09162 0.3493113,0 0.7215284,-0.183245 0.372217,-0.183246 0.6814435,-0.509651 0.3092265,-0.326406 0.5039246,-0.778793 0.2004246,-0.44666 0.2004246,-0.979217 0,-0.492472 -0.1030755,-0.836057 Q 4.5571015,38.187814 4.3910355,37.975937 4.2306958,37.758333 4.0188184,37.660984 3.806941,37.563635 3.5950636,37.563635 q -0.08017,0 -0.1775189,0.04009 -0.097349,0.03436 -0.2004246,0.09162 -0.097349,0.05154 -0.2004245,0.114529 -0.097349,0.06299 -0.1775189,0.114528 -0.137434,0.09162 -0.2634152,0.154613 -0.1202547,0.06299 -0.3206793,0.06299 -0.1546132,0 -0.2691415,-0.114528 -0.1088019,-0.120255 -0.1088019,-0.314953 0,-0.148887 0.1030755,-0.251963 0.1088019,-0.103075 0.3321321,-0.194698 0.4752925,-0.194698 0.8475096,-0.395122 0.3779434,-0.206151 0.6356322,-0.440935 0.2576887,-0.240509 0.3951227,-0.52683 0.137434,-0.286321 0.137434,-0.652811 0,-0.143161 -0.045811,-0.280595 -0.040085,-0.14316 -0.1259811,-0.251962 -0.085896,-0.114528 -0.2118774,-0.183245 -0.1202547,-0.07444 -0.2805944,-0.07444 -0.343585,0 -0.6528114,0.211878 -0.3092265,0.211877 -0.6070001,0.521104 -0.1317076,0.137434 -0.2176039,0.200424 -0.085896,0.05726 -0.1832453,0.05726 -0.08017,0 -0.1431604,-0.04008 -0.057264,-0.04581 -0.097349,-0.103075 -0.034358,-0.06299 -0.057264,-0.131708 -0.017179,-0.07444 -0.017179,-0.125981 0,-0.137434 0.074443,-0.257689 0.08017,-0.125981 0.2118774,-0.234783 0.2863209,-0.240509 0.5611888,-0.395122 0.274868,-0.154614 0.4523869,-0.229057 0.2004246,-0.08017 0.412302,-0.154613 0.2176038,-0.07444 0.4065755,-0.07444 0.2691416,0 0.5153775,0.09735 0.2462359,0.09162 0.4294812,0.274868 0.1889717,0.177519 0.2977736,0.440935 0.1145283,0.263415 0.1145283,0.595547 0,0.481019 -0.234783,0.956311 -0.2290567,0.475293 -0.784519,0.921953 0.3836698,0.01718 0.6699906,0.194698 0.2863209,0.177519 0.4752926,0.469567 0.1946981,0.292047 0.2863208,0.675717 0.097349,0.377943 0.097349,0.801698 0,0.423755 -0.1145284,0.841783 -0.1145283,0.418028 -0.3264057,0.801698 -0.206151,0.38367 -0.4981982,0.710076 -0.2863208,0.326406 -0.6356322,0.566915 -0.3435849,0.24051 -0.7387077,0.377944 -0.3893962,0.137434 -0.8016982,0.137434 -0.3951227,0 -0.6871699,-0.131708 Q 1.5793651,42.310834 1.384667,42.116136 1.1956953,41.921438 1.0983462,41.698107 q -0.097349,-0.22333 -0.097349,-0.412302 0,-0.14316 0.051538,-0.309226 0.057264,-0.166066 0.1259812,-0.263415 0.045811,-0.06299 0.1317076,-0.131708 0.085896,-0.06299 0.2176038,-0.06299 z"
     id="path1013" /></g><g
   aria-label="c"
   transform="scale(0.99886416,1.0011371)"
   id="text9344"
   style="font-size:12.7487px;line-height:1.25;font-family:'Segoe Script';-inkscape-font-specification:'Segoe Script';fill:#0e0e0e;stroke-width:0.318716"><path
     d="m 32.587892,5.618361 q 0,0.2240983 -0.161849,0.4046219 -0.168074,0.1867485 -0.292573,0.3174725 -0.124499,0.124499 -0.236548,0.2303232 -0.112049,0.1058241 -0.236548,0.2054234 -0.124499,0.093374 -0.292573,0.2178732 -0.473096,0.3423724 -0.902618,0.5789205 -0.429521,0.2303232 -0.834143,0.379722 -0.404622,0.1431739 -0.803019,0.2054234 -0.392172,0.06225 -0.790568,0.06225 -0.417072,0 -0.746995,-0.1556237 Q 26.960536,7.9029181 26.730213,7.6290203 26.506115,7.3551224 26.38784,6.9940752 26.269566,6.6268031 26.269566,6.2221813 v -0.031125 q 0,-0.4108467 0.105825,-0.8714931 0.105824,-0.4668714 0.292572,-0.9337427 0.192974,-0.4668714 0.460647,-0.9150679 0.267673,-0.4544214 0.59137,-0.8465933 0.130724,-0.1556238 0.311248,-0.3299224 0.186748,-0.1805236 0.392171,-0.3299225 0.211649,-0.1493988 0.435747,-0.2427731 0.230323,-0.099599 0.448197,-0.099599 0.149398,0 0.286347,0.093374 0.136949,0.087149 0.255223,0.2303232 0.118274,0.1431739 0.217874,0.3236975 0.0996,0.1742986 0.168073,0.3610471 0.06847,0.1805236 0.105824,0.3485973 0.03735,0.1680737 0.03735,0.2863478 0,0.1805235 -0.112049,0.4668713 -0.112049,0.2863478 -0.267673,0.2863478 -0.224098,0 -0.373497,-0.3050227 -0.05602,-0.118274 -0.0996,-0.2738978 -0.03735,-0.1556238 -0.09337,-0.3050226 -0.0498,-0.1493989 -0.136949,-0.2738979 -0.08715,-0.130724 -0.242773,-0.1929735 -0.155624,0.03735 -0.317473,0.1618488 -0.155624,0.124499 -0.311248,0.3050226 -0.149398,0.1805236 -0.298797,0.4108468 -0.143174,0.2240982 -0.273898,0.4668713 -0.124499,0.2240982 -0.242773,0.516671 -0.118274,0.2863477 -0.211648,0.5975953 -0.09338,0.3050226 -0.149399,0.6100452 -0.05603,0.3050226 -0.05603,0.5602456 0,0.1805236 0.08715,0.3672721 0.08715,0.1805236 0.224099,0.3299224 0.143174,0.1493989 0.317472,0.2427731 0.180524,0.093374 0.367272,0.093374 0.921293,0 1.830136,-0.379722 0.908843,-0.379722 1.730536,-1.1018164 0.454422,-0.3983969 0.75322,-0.3983969 0.08715,0 0.08715,0.1680737 z"
     id="path950" /></g></svg>
