<?xml version="1.0" encoding="UTF-8" standalone="no"?>
<!-- Generator: Adobe Illustrator 22.0.1, SVG Export Plug-In . SVG Version: 6.00 Build 0)  -->

<svg
   version="1.1"
   id="Layer_1"
   x="0px"
   y="0px"
   viewBox="0 0 77 77"
   xml:space="preserve"
   sodipodi:docname="eastWind.svg"
   width="77"
   height="77"
   inkscape:version="1.1.1 (3bf5ae0d25, 2021-09-20)"
   xmlns:inkscape="http://www.inkscape.org/namespaces/inkscape"
   xmlns:sodipodi="http://sodipodi.sourceforge.net/DTD/sodipodi-0.dtd"
   xmlns="http://www.w3.org/2000/svg"
   xmlns:svg="http://www.w3.org/2000/svg"><defs
   id="defs7" /><sodipodi:namedview
   id="namedview5"
   pagecolor="#ffffff"
   bordercolor="#666666"
   borderopacity="1.0"
   inkscape:pageshadow="2"
   inkscape:pageopacity="0.0"
   inkscape:pagecheckerboard="0"
   showgrid="false"
   inkscape:zoom="10.158767"
   inkscape:cx="40.851414"
   inkscape:cy="51.925592"
   inkscape:window-width="2400"
   inkscape:window-height="1321"
   inkscape:window-x="2391"
   inkscape:window-y="-9"
   inkscape:window-maximized="1"
   inkscape:current-layer="Layer_1"
   width="140px" />
<path
   d="m 36.61569,9.018761 c 5.361047,-0.6396396 10.486413,0.090147 15.346725,2.166566 4.860313,2.076426 8.886449,5.199185 12.078426,9.368288 3.191975,4.169099 5.090297,8.88705 5.72128,14.150721 0.472472,3.941262 0.137882,7.821027 -0.980552,11.610213 -1.118456,3.789173 -2.877216,7.128759 -5.19124,10.061177 -2.314045,2.932414 -5.218917,5.383044 -8.714673,7.351843 -3.495765,1.96881 -7.213047,3.201345 -11.260116,3.684221 -3.994501,0.476605 -7.924569,0.156501 -11.760831,-0.937497 -3.836244,-1.093993 -7.241573,-2.818005 -10.180366,-5.097395 -2.938789,-2.279374 -5.414137,-5.140082 -7.396696,-8.559267 -1.982546,-3.419198 -3.221628,-7.084893 -3.697194,-11.05209 -0.475581,-3.967201 -0.144101,-7.872889 0.974348,-11.662077 1.118455,-3.78918 2.874099,-7.154681 5.188116,-10.087111 2.314029,-2.932425 5.222026,-5.35711 8.66212,-7.345567 3.440091,-1.988479 7.189877,-3.1722912 11.210653,-3.652025 z m 0.770858,6.430498 c -6.228269,0.743121 -11.374554,3.618968 -15.435754,8.653473 -4.008634,5.028228 -5.628373,10.639347 -4.879278,16.888331 0.491102,4.096848 1.972931,7.786182 4.465525,11.01302 2.4926,3.226837 5.613925,5.694837 9.407232,7.319966 3.793295,1.625135 7.754449,2.204525 11.906638,1.709119 4.15217,-0.495423 7.890938,-1.993532 11.193141,-4.465238 3.302194,-2.471717 5.781529,-5.581668 7.437999,-9.329849 1.656468,-3.748183 2.227564,-7.656153 1.736453,-11.753002 C 62.727398,31.388232 61.245572,27.698898 58.752978,24.472053 56.260379,21.24523 53.112762,18.780352 49.316351,17.1293 45.519938,15.478247 41.538729,14.953846 37.386548,15.449259 Z M 23.532926,29.963015 59.151102,35.57587 c 0.2659,-0.0054 0.412842,0.108547 0.440797,0.341936 0.0279,0.23337 -0.08789,0.378691 -0.347545,0.435984 L 25.954285,50.162026 c -0.276647,0.138229 -0.489996,0.137373 -0.663209,0.02654 -0.173192,-0.110869 -0.198082,-0.31827 -0.0746,-0.62231 l 2.337785,-9.405115 c 0.07404,-0.271839 0.04296,-0.531134 -0.09014,-0.751955 l -4.504262,-8.667674 c -0.188748,-0.240476 -0.210502,-0.421982 -0.06526,-0.544517 0.145257,-0.122514 0.369324,-0.254469 0.638338,-0.233972 z"
   id="path2"
   style="fill:#2c4f54;fill-opacity:0.5;stroke:#2e3332;stroke-width:0.162081;stroke-miterlimit:4;stroke-dasharray:none;stroke-opacity:0.9" />
<path
   style="fill:#2c4f53;fill-opacity:0.499285;stroke:#e4e7e7;stroke-width:0.162081;stroke-miterlimit:4;stroke-dasharray:none;stroke-opacity:0.9"
   d="m 17.679077,38.374391 c -0.01184,-1.114218 0.05915,-2.348268 0.196681,-3.419284 0.773399,-6.022327 4.673588,-12.001128 10.073544,-15.442264 2.906706,-1.852294 5.55583,-2.765827 9.183149,-3.166737 3.723122,-0.411633 6.62849,-0.08143 9.966649,1.13225 2.249933,0.818048 4.0786,1.82425 6.062721,3.335958 3.937603,3.000084 6.571881,6.739732 8.022092,11.388203 0.302016,0.968055 0.376991,1.375738 0.649381,3.530883 0.33056,2.615951 0.347983,3.36248 0.123852,5.314045 -0.338571,2.947453 -1.521621,6.302681 -3.161377,8.965869 -0.668848,1.086307 -2.337813,3.147173 -3.283081,4.053987 -2.287691,2.194663 -4.941979,3.881992 -7.662084,4.870758 -2.005865,0.729159 -2.730668,0.891316 -5.22039,1.167974 -1.75634,0.195107 -2.504358,0.2424 -3.282088,0.207151 C 34.624891,60.099281 30.074339,58.40741 26.344657,55.47854 22.524888,52.478908 19.773383,48.40642 18.493716,43.858369 18.198728,42.809946 17.689802,39.384036 17.679053,38.374382 Z m 7.816218,-3.346164 c 1.225441,2.348247 2.261848,4.357333 2.303119,4.464637 0.05096,0.132419 -0.300094,1.752045 -1.09311,5.043361 -0.672431,2.790891 -1.138965,4.911545 -1.099388,4.997387 0.08206,0.177898 0.425511,0.238641 0.745555,0.131831 0.12706,-0.0424 7.406719,-3.016769 16.177038,-6.609687 15.368629,-6.296031 15.948006,-6.541178 16.000349,-6.770119 0.04041,-0.176936 0.01806,-0.265518 -0.08798,-0.347159 -0.175308,-0.135134 -34.274287,-5.853398 -34.65318,-5.81125 -0.342336,0.03808 -0.661475,0.309614 -0.580663,0.494069 0.0332,0.07554 1.062819,2.058689 2.288261,4.406935 z"
   id="path861" /><rect
   style="fill:#c7485e;fill-opacity:1;stroke:#3c4343;stroke-width:0.69595;stroke-opacity:0.9"
   id="rect2803"
   width="7.6254077"
   height="0.089739315"
   x="38.944771"
   y="-40.56855"
   transform="matrix(0.12976389,0.99154492,-0.99271732,0.12046708,0,0)"
   inkscape:transform-center-x="4.9745315"
   inkscape:transform-center-y="-3.5309381" /><path
   style="fill:#a06f78;fill-opacity:1;stroke:#e27364;stroke-width:0.0545358;stroke-opacity:0.9"
   d="m 46.455612,33.943737 c 0.134455,0.02125 3.035575,0.443479 6.446984,0.938265 3.411404,0.494783 6.28492,0.92965 6.385583,0.96636 0.158404,0.05777 -11.440135,4.946494 -11.856433,4.997427 -0.113708,0.01395 -0.297072,-0.908827 -0.68779,-3.460864 -0.498198,-3.254062 -0.516852,-3.477341 -0.288375,-3.441183 z"
   id="path3397"
   inkscape:transform-center-x="-1.4960858"
   inkscape:transform-center-y="-3.1099882" /><g
   aria-label="c"
   transform="scale(1.0231246,0.97739808)"
   id="text9344"
   style="font-size:8.53389px;line-height:1.25;font-family:'Segoe Script';-inkscape-font-specification:'Segoe Script';fill:#e0e0e0;stroke-width:0.213348"><path
     d="m 41.694001,4.5151763 q 0,0.1500097 -0.10834,0.2708509 -0.112508,0.1250082 -0.195846,0.2125139 -0.08334,0.083339 -0.158344,0.1541767 -0.075,0.070838 -0.158344,0.137509 -0.08334,0.062504 -0.195846,0.1458428 -0.316687,0.2291816 -0.604206,0.3875253 -0.287519,0.1541767 -0.55837,0.2541832 -0.270851,0.09584 -0.537535,0.137509 -0.262517,0.041669 -0.529201,0.041669 -0.279185,0 -0.500033,-0.1041735 Q 37.927089,6.0444426 37.772912,5.8610973 37.622902,5.6777521 37.54373,5.4360696 37.464559,5.1902203 37.464559,4.9193693 v -0.020835 q 0,-0.275018 0.07084,-0.5833714 0.07084,-0.3125204 0.195846,-0.6250407 0.129175,-0.3125204 0.308353,-0.61254 0.179178,-0.3041865 0.395859,-0.5667036 0.08751,-0.1041735 0.208347,-0.2208477 0.125008,-0.1208412 0.262517,-0.2208478 0.141676,-0.1000065 0.291686,-0.1625106 0.154177,-0.066671 0.30002,-0.066671 0.100006,0 0.191679,0.062504 0.09167,0.058337 0.170844,0.1541767 0.07917,0.09584 0.145843,0.2166808 0.06667,0.1166743 0.112507,0.2416824 0.04584,0.1208412 0.07084,0.2333486 0.025,0.1125073 0.025,0.1916791 0,0.1208413 -0.075,0.3125204 -0.075,0.1916792 -0.179178,0.1916792 -0.15001,0 -0.250017,-0.20418 -0.0375,-0.079172 -0.06667,-0.1833453 -0.025,-0.1041734 -0.0625,-0.20418 -0.03334,-0.1000065 -0.09167,-0.1833452 -0.05834,-0.087506 -0.162511,-0.1291751 -0.104173,0.025002 -0.212514,0.1083404 -0.104173,0.083339 -0.208347,0.2041799 -0.100006,0.1208413 -0.200013,0.275018 -0.09584,0.1500098 -0.183345,0.3125204 -0.08334,0.1500097 -0.162511,0.3458558 -0.07917,0.1916792 -0.141676,0.4000261 -0.0625,0.20418 -0.100006,0.40836 -0.0375,0.20418 -0.0375,0.3750244 0,0.1208412 0.05834,0.2458494 0.05834,0.1208412 0.150009,0.2208477 0.09584,0.1000066 0.212514,0.1625106 0.120841,0.062504 0.24585,0.062504 0.616706,0 1.225079,-0.2541832 0.608373,-0.2541833 1.158409,-0.7375481 0.304187,-0.2666841 0.5042,-0.2666841 0.05834,0 0.05834,0.1125074 z"
     id="path1499" /></g><g
   aria-label="ю"
   transform="scale(0.88946316,1.1242737)"
   id="text11307"
   style="font-size:6.83842px;line-height:1.25;font-family:'Segoe Script';-inkscape-font-specification:'Segoe Script';fill:#e0e0e0;stroke-width:0.170959"><path
     d="m 41.934182,65.299415 q 0,-0.01336 -0.0167,-0.02337 -0.01336,-0.01336 -0.03339,-0.03339 -0.02004,-0.02003 -0.03673,-0.05343 -0.01336,-0.03339 -0.01336,-0.09349 0,-0.05343 0.03005,-0.09683 0.03005,-0.04341 0.06344,-0.08014 0.03673,-0.03673 0.06678,-0.06678 0.03339,-0.03005 0.04007,-0.05676 0.05676,-0.320551 0.09683,-0.604372 0.04007,-0.283821 0.05009,-0.474149 0.0033,-0.05676 0,-0.116867 0,-0.0601 -0.0033,-0.120207 -0.0033,-0.04341 -0.0067,-0.08348 0,-0.04007 0,-0.0768 0,-0.04007 0.03005,-0.09015 0.03005,-0.05009 0.07346,-0.09349 0.04675,-0.04341 0.100172,-0.07012 0.05677,-0.03005 0.11019,-0.03005 0.04675,0 0.09349,0.02671 0.04675,0.02337 0.08348,0.07012 0.03673,0.04341 0.0601,0.110189 0.02337,0.06344 0.02337,0.14358 0,0.0601 -0.01002,0.14692 -0.01002,0.08682 -0.02671,0.190327 -0.0167,0.103511 -0.04007,0.217039 -0.02004,0.113529 -0.04007,0.227057 -0.02671,0.156937 -0.05342,0.300517 -0.02337,0.14358 -0.03673,0.247091 0.01336,0.03005 0.02337,0.05343 0.01336,0.02004 0.03339,0.03339 0.02004,0.01336 0.05009,0.02003 0.03339,0.0067 0.08682,0.0067 0.14358,0 0.303856,-0.03005 0.160275,-0.03005 0.303855,-0.0768 0.14358,-0.04675 0.257109,-0.09683 0.116867,-0.05343 0.173632,-0.100172 0.03673,-0.03005 0.08014,-0.08014 0.04675,-0.05009 0.09349,-0.10685 0.04675,-0.0601 0.09016,-0.116868 0.04675,-0.0601 0.08014,-0.103511 0.113528,-0.14358 0.257109,-0.280482 0.14358,-0.136902 0.317211,-0.240413 0.173632,-0.103511 0.373976,-0.166954 0.203684,-0.06344 0.440758,-0.06344 0.18031,0 0.353942,0.09015 0.173631,0.08682 0.307194,0.237074 0.136902,0.150258 0.21704,0.347263 0.08348,0.193667 0.08348,0.407367 0,0.213701 -0.04341,0.390672 -0.04007,0.173631 -0.130224,0.370637 -0.05009,0.103511 -0.173632,0.247091 -0.123545,0.14358 -0.297177,0.297178 -0.170293,0.153597 -0.373976,0.303855 -0.203684,0.150258 -0.414045,0.270465 -0.210362,0.120207 -0.414045,0.193666 -0.200344,0.07346 -0.363959,0.07346 -0.220379,0 -0.377315,-0.07346 -0.156937,-0.0768 -0.257109,-0.197005 -0.100172,-0.123546 -0.146919,-0.280482 -0.04675,-0.156937 -0.04675,-0.317212 0,-0.130224 0.03673,-0.313873 0.04007,-0.186988 0.133563,-0.377315 -0.126885,0.08014 -0.283821,0.126885 -0.153598,0.04675 -0.283821,0.08348 -0.05676,0.01669 -0.126885,0.03005 -0.07012,0.01002 -0.140241,0.02003 -0.06678,0.01002 -0.130224,0.02003 -0.0601,0.01002 -0.103511,0.01669 -0.06678,0.01336 -0.09349,0.05343 -0.02337,0.03673 -0.03673,0.09683 -0.01336,0.05676 -0.04007,0.150258 -0.02671,0.09349 -0.05342,0.193666 -0.03005,0.10685 -0.06344,0.220379 -0.03339,0.113528 -0.0601,0.21704 -0.02337,0.100172 -0.04341,0.186988 -0.01669,0.08348 -0.01669,0.130223 0,0.04341 -0.03673,0.09349 -0.03339,0.05009 -0.08014,0.09349 -0.04341,0.04675 -0.09016,0.0768 -0.04341,0.03005 -0.06678,0.03005 -0.05009,0 -0.09683,-0.03339 -0.04341,-0.03339 -0.0768,-0.0768 -0.03339,-0.04341 -0.05343,-0.08682 -0.02003,-0.04675 -0.02003,-0.07012 0,-0.03005 0.02337,-0.10685 0.02671,-0.0768 0.05342,-0.156937 0.0167,-0.05009 0.04341,-0.136902 0.02671,-0.08682 0.05342,-0.190327 0.03005,-0.10685 0.05677,-0.220379 0.03005,-0.113528 0.05342,-0.2137 0.02337,-0.100172 0.03673,-0.173632 0.01336,-0.0768 0.01336,-0.110189 z m 4.023582,-0.754631 q 0,-0.333907 -0.193666,-0.520895 -0.190327,-0.190327 -0.547608,-0.190327 -0.05009,0 -0.123546,0.04007 -0.07346,0.04007 -0.160275,0.103511 -0.08348,0.0601 -0.170293,0.133563 -0.08348,0.07346 -0.160275,0.14358 -0.07346,0.07012 -0.126885,0.126885 -0.05343,0.05676 -0.07346,0.08014 -0.07012,0.08348 -0.146919,0.230396 -0.07346,0.14358 -0.136902,0.310533 -0.06344,0.166954 -0.10685,0.337247 -0.04007,0.166953 -0.04007,0.293838 0,0.0768 0.02003,0.156936 0.02337,0.08014 0.06678,0.14692 0.04675,0.06344 0.116867,0.10685 0.07012,0.04007 0.163615,0.04007 0.103511,0 0.263787,-0.0601 0.160275,-0.0601 0.337246,-0.166953 0.18031,-0.106851 0.36062,-0.25377 0.183649,-0.146919 0.327229,-0.317212 0.146919,-0.170292 0.237074,-0.35728 0.09349,-0.190327 0.09349,-0.383994 z"
     id="path1457" /></g><g
   aria-label="з"
   transform="scale(1.3789526,0.72518806)"
   id="text16794"
   style="font-size:7.87599px;line-height:1.25;font-family:'Segoe Script';-inkscape-font-specification:'Segoe Script';fill:#e0e0e0;stroke-width:0.196897"><path
     d="m 1.9180648,50.237153 q 0.038457,0 0.061531,0.02692 0.02692,0.02692 0.042303,0.06538 0.015383,0.0423 0.019229,0.0923 0.00769,0.04999 0.00769,0.09614 0,0.08845 0.030766,0.192284 0.034611,0.103834 0.1076795,0.192285 0.076914,0.08845 0.1961306,0.146137 0.1192167,0.06153 0.2922731,0.06153 0.2345876,0 0.484558,-0.123062 0.2499703,-0.123063 0.457638,-0.342267 0.2076677,-0.219205 0.3384215,-0.523015 0.1345994,-0.299965 0.1345994,-0.657615 0,-0.33073 -0.069222,-0.561472 -0.069223,-0.230742 -0.1807479,-0.373032 -0.1076795,-0.146137 -0.2499703,-0.211514 -0.1422909,-0.06538 -0.2845817,-0.06538 -0.05384,0 -0.1192167,0.02692 -0.065377,0.02307 -0.1345994,0.06153 -0.065377,0.03461 -0.1345994,0.07691 -0.065377,0.0423 -0.1192167,0.07691 -0.092297,0.06153 -0.1769021,0.103834 -0.08076,0.0423 -0.2153591,0.0423 -0.1038338,0 -0.1807478,-0.07691 -0.073068,-0.08076 -0.073068,-0.211513 0,-0.09999 0.069223,-0.169211 0.073068,-0.06922 0.2230505,-0.130754 0.3191929,-0.130754 0.5691633,-0.265353 0.2538161,-0.138445 0.4268725,-0.296119 0.1730564,-0.161519 0.2653532,-0.353804 0.092297,-0.192285 0.092297,-0.43841 0,-0.09614 -0.030766,-0.188439 -0.02692,-0.09614 -0.084605,-0.169211 -0.057685,-0.07691 -0.1422908,-0.123062 -0.08076,-0.04999 -0.1884392,-0.04999 -0.2307419,0 -0.4384096,0.142291 -0.2076677,0.142291 -0.407644,0.349958 -0.088451,0.0923 -0.1461366,0.1346 -0.057685,0.03846 -0.1230623,0.03846 -0.05384,0 -0.096143,-0.02692 -0.038457,-0.03077 -0.065377,-0.06922 -0.023074,-0.0423 -0.038457,-0.08845 -0.011537,-0.04999 -0.011537,-0.0846 0,-0.0923 0.049994,-0.173057 0.05384,-0.08461 0.1422908,-0.157673 0.1922849,-0.16152 0.3768784,-0.265353 0.1845935,-0.103834 0.3038102,-0.153828 0.1345994,-0.05384 0.2768902,-0.103834 0.1461366,-0.04999 0.2730446,-0.04999 0.1807478,0 0.3461129,0.06538 0.165365,0.06153 0.2884273,0.184593 0.1269081,0.119217 0.1999763,0.296119 0.076914,0.176902 0.076914,0.399953 0,0.323038 -0.1576736,0.642231 -0.153828,0.319193 -0.5268607,0.619158 0.2576618,0.01154 0.4499467,0.130753 0.1922849,0.119217 0.319193,0.315348 0.1307537,0.19613 0.1922849,0.453792 0.065377,0.253816 0.065377,0.538398 0,0.284581 -0.076914,0.565317 -0.076914,0.280736 -0.2192048,0.538398 -0.1384452,0.257662 -0.3345758,0.476867 -0.1922849,0.219204 -0.4268725,0.380724 -0.2307419,0.161519 -0.496095,0.253816 -0.2615075,0.0923 -0.5383978,0.0923 -0.2653532,0 -0.4614838,-0.08845 -0.1961306,-0.08461 -0.3268843,-0.21536 -0.1269081,-0.130753 -0.1922849,-0.280736 -0.065377,-0.149982 -0.065377,-0.27689 0,-0.09614 0.034611,-0.207668 0.038457,-0.111525 0.084605,-0.176902 0.030766,-0.0423 0.088451,-0.08845 0.057686,-0.0423 0.1461365,-0.0423 z"
     id="path1478" /></g><g
   aria-label="в"
   transform="scale(1.3942581,0.7172273)"
   id="text19318"
   style="font-size:8.20159px;line-height:1.25;font-family:'Segoe Script';-inkscape-font-specification:'Segoe Script';fill:#e0e0e0;stroke-width:0.205039"><path
     d="m 53.911318,46.431509 q 0,-0.04806 -0.02002,-0.09611 -0.01602,-0.05206 -0.05206,-0.09211 -0.03204,-0.04405 -0.0881,-0.07208 -0.05206,-0.02803 -0.124145,-0.02803 -0.140164,0 -0.292341,0.100117 -0.148174,0.100117 -0.300352,0.276323 -0.148173,0.172202 -0.288337,0.412482 -0.140164,0.236277 -0.260304,0.5126 -0.120141,0.276323 -0.216253,0.580679 -0.09211,0.300351 -0.148173,0.604707 0.03604,-0.02403 0.108126,-0.07609 0.07208,-0.05607 0.160187,-0.124145 0.09211,-0.07208 0.192225,-0.152178 0.104122,-0.0841 0.19623,-0.164192 0.09611,-0.08009 0.176206,-0.152178 0.08009,-0.07208 0.12815,-0.124145 0.444519,-0.480562 0.636744,-0.832974 0.192225,-0.352412 0.192225,-0.57267 z m -0.124145,4.317048 q -0.124146,0.184215 -0.300352,0.360421 -0.172201,0.172202 -0.380444,0.304356 -0.208244,0.132155 -0.44452,0.208244 -0.232272,0.07609 -0.472553,0.05607 -0.168196,-0.01201 -0.320374,-0.108126 -0.152178,-0.100117 -0.268314,-0.280328 -0.116136,-0.184215 -0.184215,-0.448524 -0.06808,-0.26431 -0.06808,-0.608712 0,-0.220258 0.02403,-0.476557 0.02403,-0.260305 0.06408,-0.524614 0.04005,-0.264309 0.0881,-0.516604 0.05206,-0.252295 0.100117,-0.464543 0.06407,-0.288337 0.168197,-0.568665 0.104122,-0.284332 0.232271,-0.544637 0.12815,-0.264309 0.276323,-0.49658 0.148174,-0.232272 0.304356,-0.420492 0.216253,-0.252295 0.492576,-0.404473 0.280328,-0.152178 0.656768,-0.152178 0.156183,0 0.284333,0.06408 0.128149,0.06407 0.220257,0.168197 0.09211,0.100117 0.140164,0.228267 0.05206,0.128149 0.05206,0.252295 0,0.172201 -0.07208,0.384449 -0.06808,0.208244 -0.200234,0.436511 -0.132155,0.228266 -0.320375,0.460538 -0.18822,0.232272 -0.428501,0.448524 0.05606,0.004 0.12815,0.02002 0.07609,0.01201 0.156182,0.04806 0.0841,0.03604 0.168197,0.09611 0.0881,0.06007 0.168197,0.152178 0.03604,0.04405 0.08009,0.120141 0.04405,0.07208 0.08009,0.180211 0.04005,0.104121 0.06408,0.24028 0.02803,0.13616 0.02803,0.300352 0,0.320374 -0.116136,0.69281 -0.112131,0.36843 -0.400468,0.792927 z m -0.112131,-1.473723 q 0,-0.220258 -0.06407,-0.368431 -0.06408,-0.152178 -0.152178,-0.240281 -0.0881,-0.09211 -0.180211,-0.12815 -0.09211,-0.04005 -0.148173,-0.04005 -0.05206,0 -0.164192,0.08009 -0.112131,0.08009 -0.240281,0.176206 -0.09611,0.0841 -0.192225,0.156183 -0.09611,0.07208 -0.180211,0.140163 -0.08009,0.06808 -0.148173,0.13616 -0.06808,0.06808 -0.112131,0.144168 -0.112131,0.204239 -0.132155,0.464543 -0.02002,0.260305 -0.02002,0.532623 0,0.180211 0.03604,0.324379 0.04005,0.140164 0.09611,0.240281 0.06007,0.100117 0.128149,0.156183 0.06808,0.05206 0.124146,0.05206 0.136159,0 0.30836,-0.05607 0.172201,-0.05606 0.352412,-0.220257 0.156183,-0.144169 0.280328,-0.324379 0.12815,-0.180211 0.216253,-0.380445 0.09211,-0.200234 0.140164,-0.416487 0.05206,-0.216253 0.05206,-0.428501 z"
     id="path1436" /></g><text
   xml:space="preserve"
   style="font-size:14.3358px;line-height:1.25;font-family:'Segoe Script';-inkscape-font-specification:'Segoe Script';fill:#16272a;fill-opacity:0.799714;stroke-width:0.358395"
   x="8.2467299"
   y="46.472961"
   id="text17884"
   transform="scale(1.314439,0.76078085)"><tspan
     sodipodi:role="line"
     id="tspan17882"
     x="8.2467299"
     y="46.472961"
     style="stroke-width:0.358395">_</tspan></text><text
   xml:space="preserve"
   style="font-size:14.6024px;line-height:1.25;font-family:'Segoe Script';-inkscape-font-specification:'Segoe Script';fill:#16272a;fill-opacity:0.799714;stroke-width:0.365059"
   x="45.46954"
   y="46.968292"
   id="text17884-6"
   transform="scale(1.3388745,0.746896)"><tspan
     sodipodi:role="line"
     id="tspan17882-2"
     x="45.46954"
     y="46.968292"
     style="stroke-width:0.365059">_</tspan></text><text
   xml:space="preserve"
   style="font-size:12.8279px;line-height:1.25;font-family:'Segoe Script';-inkscape-font-specification:'Segoe Script';fill:#16272a;fill-opacity:0.799714;stroke-width:0.320697"
   x="-51.48037"
   y="50.327759"
   id="text17884-0"
   transform="matrix(-0.01838719,-1.3607775,0.7341425,-0.05413647,0,0)"><tspan
     sodipodi:role="line"
     id="tspan17882-4"
     x="-51.48037"
     y="50.327759"
     style="stroke-width:0.320697">_</tspan></text><text
   xml:space="preserve"
   style="font-size:14.4767px;line-height:1.25;font-family:'Segoe Script';-inkscape-font-specification:'Segoe Script';fill:#16272a;fill-opacity:0.799714;stroke-width:0.361915"
   x="-13.089189"
   y="51.955719"
   id="text17884-9"
   transform="matrix(5.1397742e-4,-1.330056,0.75184747,0.00144429,0,0)"><tspan
     sodipodi:role="line"
     id="tspan17882-7"
     x="-13.089189"
     y="51.955719"
     style="stroke-width:0.361915">_</tspan></text></svg>
