<?xml version="1.0" encoding="UTF-8" standalone="no"?>
<!-- Generator: Adobe Illustrator 22.0.1, SVG Export Plug-In . SVG Version: 6.00 Build 0)  -->

<svg
   version="1.1"
   id="Layer_1"
   x="0px"
   y="0px"
   viewBox="0 0 77 77"
   xml:space="preserve"
   sodipodi:docname="eastWind.svg"
   width="77"
   height="77"
   inkscape:version="1.1.1 (3bf5ae0d25, 2021-09-20)"
   xmlns:inkscape="http://www.inkscape.org/namespaces/inkscape"
   xmlns:sodipodi="http://sodipodi.sourceforge.net/DTD/sodipodi-0.dtd"
   xmlns="http://www.w3.org/2000/svg"
   xmlns:svg="http://www.w3.org/2000/svg"><defs
   id="defs7" /><sodipodi:namedview
   id="namedview5"
   pagecolor="#ffffff"
   bordercolor="#666666"
   borderopacity="1.0"
   inkscape:pageshadow="2"
   inkscape:pageopacity="0.0"
   inkscape:pagecheckerboard="0"
   showgrid="false"
   inkscape:zoom="2.5396918"
   inkscape:cx="127.96828"
   inkscape:cy="72.252862"
   inkscape:window-width="2400"
   inkscape:window-height="1321"
   inkscape:window-x="2391"
   inkscape:window-y="-9"
   inkscape:window-maximized="1"
   inkscape:current-layer="Layer_1"
   width="140px" />
<path
   d="m 36.61569,9.018761 c 5.361047,-0.6396396 10.486413,0.090147 15.346725,2.166566 4.860313,2.076426 8.886449,5.199185 12.078426,9.368288 3.191975,4.169099 5.090297,8.88705 5.72128,14.150721 0.472472,3.941262 0.137882,7.821027 -0.980552,11.610213 -1.118456,3.789173 -2.877216,7.128759 -5.19124,10.061177 -2.314045,2.932414 -5.218917,5.383044 -8.714673,7.351843 -3.495765,1.96881 -7.213047,3.201345 -11.260116,3.684221 -3.994501,0.476605 -7.924569,0.156501 -11.760831,-0.937497 -3.836244,-1.093993 -7.241573,-2.818005 -10.180366,-5.097395 -2.938789,-2.279374 -5.414137,-5.140082 -7.396696,-8.559267 -1.982546,-3.419198 -3.221628,-7.084893 -3.697194,-11.05209 -0.475581,-3.967201 -0.144101,-7.872889 0.974348,-11.662077 1.118455,-3.78918 2.874099,-7.154681 5.188116,-10.087111 2.314029,-2.932425 5.222026,-5.35711 8.66212,-7.345567 3.440091,-1.988479 7.189877,-3.1722912 11.210653,-3.652025 z m 0.770858,6.430498 c -6.228269,0.743121 -11.374554,3.618968 -15.435754,8.653473 -4.008634,5.028228 -5.628373,10.639347 -4.879278,16.888331 0.491102,4.096848 1.972931,7.786182 4.465525,11.01302 2.4926,3.226837 5.613925,5.694837 9.407232,7.319966 3.793295,1.625135 7.754449,2.204525 11.906638,1.709119 4.15217,-0.495423 7.890938,-1.993532 11.193141,-4.465238 3.302194,-2.471717 5.781529,-5.581668 7.437999,-9.329849 1.656468,-3.748183 2.227564,-7.656153 1.736453,-11.753002 C 62.727398,31.388232 61.245572,27.698898 58.752978,24.472053 56.260379,21.24523 53.112762,18.780352 49.316351,17.1293 45.519938,15.478247 41.538729,14.953846 37.386548,15.449259 Z M 23.532926,29.963015 59.151102,35.57587 c 0.2659,-0.0054 0.412842,0.108547 0.440797,0.341936 0.0279,0.23337 -0.08789,0.378691 -0.347545,0.435984 L 25.954285,50.162026 c -0.276647,0.138229 -0.489996,0.137373 -0.663209,0.02654 -0.173192,-0.110869 -0.198082,-0.31827 -0.0746,-0.62231 l 2.337785,-9.405115 c 0.07404,-0.271839 0.04296,-0.531134 -0.09014,-0.751955 l -4.504262,-8.667674 c -0.188748,-0.240476 -0.210502,-0.421982 -0.06526,-0.544517 0.145257,-0.122514 0.369324,-0.254469 0.638338,-0.233972 z"
   id="path2"
   style="fill:#2c4f54;fill-opacity:0.5;stroke:#2e3332;stroke-width:0.162081;stroke-miterlimit:4;stroke-dasharray:none;stroke-opacity:0.9" />
<path
   style="fill:#2c4f53;fill-opacity:0.499285;stroke:#e4e7e7;stroke-width:0.162081;stroke-miterlimit:4;stroke-dasharray:none;stroke-opacity:0.9"
   d="m 17.679077,38.374391 c -0.01184,-1.114218 0.05915,-2.348268 0.196681,-3.419284 0.773399,-6.022327 4.673588,-12.001128 10.073544,-15.442264 2.906706,-1.852294 5.55583,-2.765827 9.183149,-3.166737 3.723122,-0.411633 6.62849,-0.08143 9.966649,1.13225 2.249933,0.818048 4.0786,1.82425 6.062721,3.335958 3.937603,3.000084 6.571881,6.739732 8.022092,11.388203 0.302016,0.968055 0.376991,1.375738 0.649381,3.530883 0.33056,2.615951 0.347983,3.36248 0.123852,5.314045 -0.338571,2.947453 -1.521621,6.302681 -3.161377,8.965869 -0.668848,1.086307 -2.337813,3.147173 -3.283081,4.053987 -2.287691,2.194663 -4.941979,3.881992 -7.662084,4.870758 -2.005865,0.729159 -2.730668,0.891316 -5.22039,1.167974 -1.75634,0.195107 -2.504358,0.2424 -3.282088,0.207151 C 34.624891,60.099281 30.074339,58.40741 26.344657,55.47854 22.524888,52.478908 19.773383,48.40642 18.493716,43.858369 18.198728,42.809946 17.689802,39.384036 17.679053,38.374382 Z m 7.816218,-3.346164 c 1.225441,2.348247 2.261848,4.357333 2.303119,4.464637 0.05096,0.132419 -0.300094,1.752045 -1.09311,5.043361 -0.672431,2.790891 -1.138965,4.911545 -1.099388,4.997387 0.08206,0.177898 0.425511,0.238641 0.745555,0.131831 0.12706,-0.0424 7.406719,-3.016769 16.177038,-6.609687 15.368629,-6.296031 15.948006,-6.541178 16.000349,-6.770119 0.04041,-0.176936 0.01806,-0.265518 -0.08798,-0.347159 -0.175308,-0.135134 -34.274287,-5.853398 -34.65318,-5.81125 -0.342336,0.03808 -0.661475,0.309614 -0.580663,0.494069 0.0332,0.07554 1.062819,2.058689 2.288261,4.406935 z"
   id="path861" /><rect
   style="fill:#c7485e;fill-opacity:1;stroke:#3c4343;stroke-width:0.69595;stroke-opacity:0.9"
   id="rect2803"
   width="7.6254077"
   height="0.089739315"
   x="38.944771"
   y="-40.56855"
   transform="matrix(0.12976389,0.99154492,-0.99271732,0.12046708,0,0)"
   inkscape:transform-center-x="4.9745315"
   inkscape:transform-center-y="-3.5309381" /><path
   style="fill:#a06f78;fill-opacity:1;stroke:#e27364;stroke-width:0.0545358;stroke-opacity:0.9"
   d="m 46.455612,33.943737 c 0.134455,0.02125 3.035575,0.443479 6.446984,0.938265 3.411404,0.494783 6.28492,0.92965 6.385583,0.96636 0.158404,0.05777 -11.440135,4.946494 -11.856433,4.997427 -0.113708,0.01395 -0.297072,-0.908827 -0.68779,-3.460864 -0.498198,-3.254062 -0.516852,-3.477341 -0.288375,-3.441183 z"
   id="path3397"
   inkscape:transform-center-x="-1.4960858"
   inkscape:transform-center-y="-3.1099882" /><text
   xml:space="preserve"
   style="font-size:8.53389px;line-height:1.25;font-family:'Segoe Script';-inkscape-font-specification:'Segoe Script';fill:#e0e0e0;fill-opacity:1;stroke-width:0.213348"
   x="36.93119"
   y="6.2402887"
   id="text9344"
   transform="scale(1.0231246,0.97739808)"><tspan
     sodipodi:role="line"
     id="tspan9342"
     x="36.93119"
     y="6.2402887"
     style="fill:#e0e0e0;fill-opacity:1;stroke-width:0.213348">c</tspan></text><text
   xml:space="preserve"
   style="font-size:6.83842px;line-height:1.25;font-family:'Segoe Script';-inkscape-font-specification:'Segoe Script';fill:#e0e0e0;fill-opacity:1;stroke-width:0.170959"
   x="41.03931"
   y="66.678452"
   id="text11307"
   transform="scale(0.88946316,1.1242737)"><tspan
     sodipodi:role="line"
     id="tspan11305"
     x="41.03931"
     y="66.678452"
     style="fill:#e0e0e0;fill-opacity:1;stroke-width:0.170959">ю</tspan></text><text
   xml:space="preserve"
   style="font-size:7.87599px;line-height:1.25;font-family:'Segoe Script';-inkscape-font-specification:'Segoe Script';fill:#e0e0e0;fill-opacity:1;stroke-width:0.196897"
   x="1.3527472"
   y="49.929497"
   id="text16794"
   transform="scale(1.3789526,0.72518806)"><tspan
     sodipodi:role="line"
     id="tspan16792"
     x="1.3527472"
     y="49.929497"
     style="fill:#e0e0e0;fill-opacity:1;stroke-width:0.196897">з</tspan></text><text
   xml:space="preserve"
   style="font-size:8.20159px;line-height:1.25;font-family:'Segoe Script';-inkscape-font-specification:'Segoe Script';fill:#e0e0e0;fill-opacity:1;stroke-width:0.205039"
   x="50.803684"
   y="51.577526"
   id="text19318"
   transform="scale(1.3942581,0.7172273)"><tspan
     sodipodi:role="line"
     id="tspan19316"
     x="50.803684"
     y="51.577526"
     style="fill:#e0e0e0;fill-opacity:1;stroke-width:0.205039">в</tspan></text><text
   xml:space="preserve"
   style="font-size:14.3358px;line-height:1.25;font-family:'Segoe Script';-inkscape-font-specification:'Segoe Script';fill:#16272a;fill-opacity:0.799714;stroke-width:0.358395"
   x="8.0220623"
   y="46.472961"
   id="text17884"
   transform="scale(1.314439,0.76078086)"><tspan
     sodipodi:role="line"
     id="tspan17882"
     x="8.0220623"
     y="46.472961"
     style="stroke-width:0.358395">_</tspan></text><text
   xml:space="preserve"
   style="font-size:14.6024px;line-height:1.25;font-family:'Segoe Script';-inkscape-font-specification:'Segoe Script';fill:#16272a;fill-opacity:0.799714;stroke-width:0.365059"
   x="44.807838"
   y="46.968292"
   id="text17884-6"
   transform="scale(1.3388745,0.746896)"><tspan
     sodipodi:role="line"
     id="tspan17882-2"
     x="44.807838"
     y="46.968292"
     style="stroke-width:0.365059">_</tspan></text><text
   xml:space="preserve"
   style="font-size:12.8279px;line-height:1.25;font-family:'Segoe Script';-inkscape-font-specification:'Segoe Script';fill:#16272a;fill-opacity:0.799714;stroke-width:0.320697"
   x="-51.48037"
   y="50.327759"
   id="text17884-0"
   transform="matrix(-0.01838719,-1.3607775,0.7341425,-0.05413647,0,0)"><tspan
     sodipodi:role="line"
     id="tspan17882-4"
     x="-51.48037"
     y="50.327759"
     style="stroke-width:0.320697">_</tspan></text><text
   xml:space="preserve"
   style="font-size:14.4767px;line-height:1.25;font-family:'Segoe Script';-inkscape-font-specification:'Segoe Script';fill:#16272a;fill-opacity:0.799714;stroke-width:0.361915"
   x="-12.571121"
   y="51.955364"
   id="text17884-9"
   transform="matrix(5.1397741e-4,-1.330056,0.75184746,0.00144429,0,0)"><tspan
     sodipodi:role="line"
     id="tspan17882-7"
     x="-12.571121"
     y="51.955364"
     style="stroke-width:0.361915">_</tspan></text></svg>
