<?xml version="1.0" encoding="UTF-8" standalone="no"?>
<!-- Generator: Adobe Illustrator 22.0.1, SVG Export Plug-In . SVG Version: 6.00 Build 0)  -->

<svg
   version="1.1"
   id="Layer_1"
   x="0px"
   y="0px"
   viewBox="0 0 77 77"
   xml:space="preserve"
   sodipodi:docname="northEastWind.svg"
   width="77"
   height="77"
   inkscape:version="1.1.1 (3bf5ae0d25, 2021-09-20)"
   xmlns:inkscape="http://www.inkscape.org/namespaces/inkscape"
   xmlns:sodipodi="http://sodipodi.sourceforge.net/DTD/sodipodi-0.dtd"
   xmlns="http://www.w3.org/2000/svg"
   xmlns:svg="http://www.w3.org/2000/svg"><defs
   id="defs7" /><sodipodi:namedview
   id="namedview5"
   pagecolor="#ffffff"
   bordercolor="#666666"
   borderopacity="1.0"
   inkscape:pageshadow="2"
   inkscape:pageopacity="0.0"
   inkscape:pagecheckerboard="0"
   showgrid="false"
   inkscape:zoom="8"
   inkscape:cx="32"
   inkscape:cy="17.3125"
   inkscape:window-width="2400"
   inkscape:window-height="1321"
   inkscape:window-x="2391"
   inkscape:window-y="-9"
   inkscape:window-maximized="1"
   inkscape:current-layer="Layer_1"
   width="140px" />
<path
   d="m 17.285577,18.694155 c 3.721679,-4.059982 8.164286,-6.892726 13.290089,-8.496544 5.125806,-1.6038165 10.296901,-1.8355993 15.513305,-0.6953525 5.216403,1.1402415 9.794904,3.5686385 13.753774,7.2652715 2.964268,2.767917 5.264225,6.023646 6.898618,9.729047 1.634371,3.705402 2.477374,7.484452 2.622702,11.313855 0.145317,3.829405 -0.483739,7.674434 -1.887221,11.535081 -1.403487,3.860663 -3.463727,7.292729 -6.273227,10.357631 -2.773006,3.025087 -6.021611,5.384455 -9.708062,7.076432 -3.686441,1.691966 -7.455305,2.60519 -11.229834,2.774374 -3.774517,0.1692 -7.574213,-0.423877 -11.361332,-1.780847 C 25.117271,66.416111 21.742215,64.372711 18.758443,61.586577 15.774655,58.80045 13.455205,55.526515 11.820821,51.821105 10.186446,48.115696 9.3239475,44.318451 9.1786035,40.489048 9.0332727,36.659643 9.6818467,32.832825 11.029351,28.993768 12.376835,25.154695 14.494327,21.73914 17.285577,18.694155 Z m 4.836451,4.516088 c -4.323704,4.716749 -6.404705,10.3826 -6.223503,17.015766 0.21769,6.593354 2.666124,12.056186 7.366055,16.4448 3.081279,2.877193 6.659541,4.777883 10.714014,5.645788 4.054478,0.867894 8.094469,0.724977 12.097985,-0.523189 4.00351,-1.248153 7.44713,-3.425428 10.329611,-6.569929 2.882459,-3.144498 4.784168,-6.798481 5.70641,-10.923829 0.922228,-4.125345 0.787587,-8.203323 -0.403924,-12.233928 -1.191512,-4.030609 -3.327274,-7.465437 -6.40856,-10.342623 -3.08128,-2.877187 -6.659539,-4.777884 -10.71402,-5.645787 C 40.531631,15.209423 36.47338,15.372242 32.45037,16.6022 28.427357,17.832157 25.0045,20.065744 22.122028,23.210243 Z M 20.985966,43.757547 52.21634,24.494931 c 0.20193,-0.180805 0.390662,-0.189263 0.566179,-0.02534 0.175467,0.163938 0.181807,0.354451 0.0189,0.571667 L 36.177871,57.943155 c -0.122661,0.291781 -0.288121,0.432778 -0.495084,0.461139 -0.206973,0.0283 -0.362982,-0.117323 -0.468043,-0.437047 l -4.39546,-8.906125 c -0.12204,-0.261715 -0.317058,-0.443816 -0.565557,-0.52809 l -9.197292,-3.786255 c -0.304465,-0.06269 -0.440975,-0.190167 -0.409526,-0.38242 0.03148,-0.192247 0.117635,-0.444206 0.33907,-0.606812 z"
   id="path2"
   style="fill:#2c4f54;fill-opacity:0.5;stroke:#2e3332;stroke-width:0.165468;stroke-miterlimit:4;stroke-dasharray:none;stroke-opacity:0.9" />
<path
   style="fill:#2c4f53;fill-opacity:0.499285;stroke:#e4e7e7;stroke-width:0.165468;stroke-miterlimit:4;stroke-dasharray:none;stroke-opacity:0.9"
   d="M 22.184356,54.029278 C 21.441169,53.165287 20.683102,52.152585 20.08391,51.223315 16.714692,45.99798 15.792605,38.732576 17.702308,32.457968 c 1.027968,-3.377507 2.47515,-5.849595 5.016634,-8.569443 2.608524,-2.791792 5.073249,-4.46067 8.454751,-5.725332 2.279159,-0.852374 4.356436,-1.278076 6.886972,-1.411355 5.021999,-0.264486 9.523139,0.914261 13.707168,3.589577 0.871335,0.55714 1.197902,0.826405 2.828363,2.33206 1.979019,1.827639 2.484297,2.40022 3.596601,4.07594 1.679864,2.530892 2.975189,5.941032 3.461366,9.11262 0.198311,1.29368 0.265093,4.013345 0.131359,5.349936 -0.323635,3.234785 -1.265048,6.315769 -2.717563,8.893814 -1.071105,1.901118 -1.524891,2.50879 -3.268341,4.376804 -1.229932,1.317716 -1.777338,1.850914 -2.402106,2.339231 -3.794168,2.965744 -8.428431,4.660469 -13.242699,4.842757 -4.930564,0.186679 -9.741643,-1.174747 -13.727605,-3.884616 -0.918847,-0.624684 -3.569419,-2.967777 -4.242877,-3.750674 z m 3.841159,-7.803099 c 2.494823,1.024554 4.62,1.909118 4.722612,1.965703 0.126655,0.06981 0.92211,1.569993 2.477007,4.671398 1.318494,2.629847 2.354701,4.598676 2.441864,4.639593 0.180665,0.08477 0.486331,-0.09553 0.663507,-0.391407 0.07034,-0.117459 3.741428,-7.27372 8.157994,-15.902791 7.739349,-15.121116 8.025975,-15.69726 7.915639,-15.911121 -0.08529,-0.165265 -0.160933,-0.219754 -0.29675,-0.213283 -0.224617,0.01055 -30.366043,18.155411 -30.631337,18.439726 -0.2397,0.256879 -0.307658,0.681049 -0.123637,0.771772 0.07544,0.03708 2.178285,0.905858 4.673107,1.930411 z"
   id="path861" /><rect
   style="fill:#c7485e;fill-opacity:1;stroke:#3c4343;stroke-width:0.710463;stroke-opacity:0.9"
   id="rect2803"
   width="7.7899132"
   height="0.091548376"
   x="51.528896"
   y="-3.2781167"
   transform="matrix(0.74007512,0.67252421,-0.67222411,0.74034772,0,0)"
   inkscape:transform-center-x="6.1717854"
   inkscape:transform-center-y="0.55941083" /><path
   style="fill:#a06f78;fill-opacity:1;stroke:#e27364;stroke-width:0.0556749;stroke-opacity:0.9"
   d="m 41.228823,31.582411 c 0.118906,-0.07103 2.660942,-1.632439 5.648999,-3.469836 2.988053,-1.837397 5.516707,-3.370771 5.619222,-3.407497 0.161328,-0.05779 -5.73443,11.386202 -6.026842,11.698459 -0.07985,0.08532 -0.821921,-0.524712 -2.783216,-2.287863 -2.500814,-2.248164 -2.660267,-2.41257 -2.458185,-2.533238 z"
   id="path3397"
   inkscape:transform-center-x="2.4437029"
   inkscape:transform-center-y="-3.0433043" /><g
   aria-label="c"
   transform="scale(1.0172175,0.98307392)"
   id="text9344"
   style="font-size:8.71215px;line-height:1.25;font-family:'Segoe Script';-inkscape-font-specification:'Segoe Script';fill:#e0e0e0;stroke-width:0.217804"><path
     d="m 41.832677,3.8633376 q 0,0.1531432 -0.110603,0.2765086 -0.114858,0.1276194 -0.199937,0.216953 -0.08508,0.08508 -0.161651,0.1573972 -0.07657,0.072318 -0.161652,0.1403813 -0.08508,0.06381 -0.199937,0.1488893 -0.323302,0.2339689 -0.616827,0.3956201 -0.293524,0.1573972 -0.570033,0.2594927 -0.276509,0.097842 -0.548763,0.1403813 -0.268001,0.04254 -0.540256,0.04254 -0.285016,0 -0.510477,-0.1063494 Q 37.98708,5.424548 37.829683,5.2373729 37.676539,5.0501978 37.595714,4.803467 37.514888,4.5524822 37.514888,4.2759736 v -0.02127 q 0,-0.2807627 0.07232,-0.5955571 0.07232,-0.3190485 0.199937,-0.6380969 0.131873,-0.3190485 0.314794,-0.625335 0.182921,-0.3105405 0.404128,-0.5785412 0.08933,-0.1063494 0.212699,-0.2254609 0.12762,-0.1233654 0.268001,-0.2254609 0.144635,-0.1020955 0.297779,-0.1659052 0.157397,-0.068064 0.306286,-0.068064 0.102096,0 0.195683,0.06381 0.09359,0.059556 0.174413,0.1573972 0.08083,0.097842 0.14889,0.2212069 0.06806,0.1191114 0.114857,0.2467308 0.04679,0.1233654 0.07232,0.2382229 0.02552,0.1148574 0.02552,0.195683 0,0.1233654 -0.07657,0.3190485 -0.07657,0.195683 -0.182921,0.195683 -0.153143,0 -0.255239,-0.208445 -0.03829,-0.080826 -0.06806,-0.1871751 -0.02552,-0.1063495 -0.06381,-0.208445 -0.03403,-0.1020955 -0.09359,-0.187175 -0.05956,-0.089334 -0.165905,-0.1318734 -0.10635,0.025524 -0.216953,0.1106035 -0.106349,0.085079 -0.212699,0.2084449 -0.102095,0.1233654 -0.204191,0.2807627 -0.09784,0.1531432 -0.187175,0.3190484 -0.08508,0.1531433 -0.165905,0.3530803 -0.08083,0.1956831 -0.144636,0.408382 -0.06381,0.208445 -0.102095,0.41689 -0.03829,0.208445 -0.03829,0.3828581 0,0.1233654 0.05956,0.2509848 0.05956,0.1233654 0.153143,0.2254609 0.09784,0.1020955 0.216953,0.1659052 0.123365,0.06381 0.250985,0.06381 0.629589,0 1.25067,-0.2594927 0.621081,-0.2594928 1.182606,-0.7529544 0.310541,-0.2722547 0.514732,-0.2722547 0.05955,0 0.05955,0.1148575 z"
     id="path1773" /></g><g
   aria-label="ю"
   transform="scale(0.88432786,1.1308023)"
   id="text11307"
   style="font-size:6.98124px;line-height:1.25;font-family:'Segoe Script';-inkscape-font-specification:'Segoe Script';fill:#e0e0e0;stroke-width:0.17453"><path
     d="m 41.967836,66.014739 q 0,-0.01364 -0.01704,-0.02386 -0.01364,-0.01363 -0.03409,-0.03409 -0.02045,-0.02045 -0.0375,-0.05454 -0.01364,-0.03409 -0.01364,-0.09545 0,-0.05454 0.03068,-0.09886 0.03068,-0.04431 0.06477,-0.08181 0.0375,-0.0375 0.06818,-0.06818 0.03409,-0.03068 0.0409,-0.05795 0.05795,-0.327246 0.09886,-0.616994 0.04091,-0.289749 0.05113,-0.484051 0.0034,-0.05795 0,-0.119309 0,-0.06136 -0.0034,-0.122717 -0.0034,-0.04431 -0.0068,-0.08522 0,-0.04091 0,-0.0784 0,-0.04091 0.03068,-0.09204 0.03068,-0.05113 0.07499,-0.09545 0.04772,-0.04431 0.102264,-0.07158 0.05795,-0.03068 0.112491,-0.03068 0.04772,0 0.09545,0.02727 0.04772,0.02386 0.08522,0.07158 0.0375,0.04431 0.06136,0.112491 0.02386,0.06477 0.02386,0.146579 0,0.06136 -0.01023,0.149987 -0.01023,0.08863 -0.02727,0.194302 -0.01704,0.105673 -0.04091,0.221573 -0.02045,0.115899 -0.04091,0.231799 -0.02727,0.160214 -0.05454,0.306793 -0.02386,0.146578 -0.0375,0.252252 0.01364,0.03068 0.02386,0.05454 0.01364,0.02045 0.03409,0.03409 0.02045,0.01363 0.05113,0.02045 0.03409,0.0068 0.08863,0.0068 0.146579,0 0.310202,-0.03068 0.163623,-0.03068 0.310202,-0.0784 0.146578,-0.04772 0.262478,-0.09886 0.119308,-0.05454 0.177258,-0.102265 0.0375,-0.03068 0.08181,-0.08181 0.04772,-0.05113 0.09545,-0.109082 0.04772,-0.06136 0.09204,-0.119308 0.04772,-0.06136 0.08181,-0.105673 0.1159,-0.146579 0.262478,-0.28634 0.146579,-0.139761 0.323837,-0.245434 0.177258,-0.105673 0.381787,-0.170441 0.207937,-0.06477 0.449962,-0.06477 0.184076,0 0.361334,0.09204 0.177258,0.08863 0.313611,0.242025 0.139761,0.153396 0.221572,0.354516 0.08522,0.197711 0.08522,0.415875 0,0.218164 -0.04431,0.39883 -0.04091,0.177258 -0.132944,0.378378 -0.05113,0.105673 -0.177258,0.252252 -0.126126,0.146579 -0.303384,0.303384 -0.173849,0.156805 -0.381786,0.310202 -0.207938,0.153396 -0.422693,0.276113 -0.214754,0.122717 -0.422692,0.197711 -0.204528,0.07499 -0.37156,0.07499 -0.224981,0 -0.385195,-0.07499 -0.160214,-0.0784 -0.262479,-0.20112 -0.102264,-0.126126 -0.149987,-0.28634 -0.04772,-0.160214 -0.04772,-0.323837 0,-0.132943 0.0375,-0.320428 0.04091,-0.190893 0.136353,-0.385195 -0.129535,0.08181 -0.289749,0.129535 -0.156805,0.04772 -0.289749,0.08522 -0.05795,0.01704 -0.129534,0.03068 -0.07159,0.01023 -0.14317,0.02045 -0.06818,0.01023 -0.132944,0.02045 -0.06136,0.01023 -0.105673,0.01704 -0.06818,0.01363 -0.09545,0.05454 -0.02386,0.0375 -0.0375,0.09886 -0.01364,0.05795 -0.04091,0.153397 -0.02727,0.09545 -0.05454,0.197711 -0.03068,0.109082 -0.06477,0.224981 -0.03409,0.1159 -0.06136,0.221573 -0.02386,0.102264 -0.04431,0.190893 -0.01704,0.08522 -0.01704,0.132943 0,0.04431 -0.0375,0.09545 -0.03409,0.05113 -0.08181,0.09545 -0.04431,0.04772 -0.09204,0.0784 -0.04431,0.03068 -0.06818,0.03068 -0.05113,0 -0.09886,-0.03409 -0.04431,-0.03409 -0.0784,-0.0784 -0.03409,-0.04431 -0.05454,-0.08863 -0.02045,-0.04772 -0.02045,-0.07158 0,-0.03068 0.02386,-0.109082 0.02727,-0.0784 0.05454,-0.160214 0.01704,-0.05113 0.04431,-0.139761 0.02727,-0.08863 0.05454,-0.194302 0.03068,-0.109082 0.05795,-0.224982 0.03068,-0.115899 0.05454,-0.218163 0.02386,-0.102265 0.0375,-0.177258 0.01364,-0.0784 0.01364,-0.112491 z m 4.107614,-0.770391 q 0,-0.340881 -0.19771,-0.531774 -0.194303,-0.194302 -0.559045,-0.194302 -0.05113,0 -0.126126,0.04091 -0.07499,0.0409 -0.163623,0.105673 -0.08522,0.06136 -0.173849,0.136352 -0.08522,0.07499 -0.163623,0.146579 -0.07499,0.07158 -0.129535,0.129535 -0.05454,0.05795 -0.07499,0.08181 -0.07159,0.08522 -0.149988,0.235208 -0.07499,0.146579 -0.139761,0.317019 -0.06477,0.17044 -0.109082,0.34429 -0.04091,0.17044 -0.04091,0.299975 0,0.0784 0.02045,0.160214 0.02386,0.08181 0.06818,0.149987 0.04772,0.06477 0.119309,0.109082 0.07158,0.04091 0.167031,0.04091 0.105673,0 0.269296,-0.06136 0.163623,-0.06136 0.34429,-0.17044 0.184075,-0.109082 0.368151,-0.259069 0.187485,-0.149988 0.334063,-0.323837 0.149988,-0.173849 0.242026,-0.364743 0.09545,-0.194302 0.09545,-0.392013 z"
     id="path1731" /></g><g
   aria-label="з"
   transform="scale(1.3709912,0.72939926)"
   id="text16794"
   style="font-size:8.04048px;line-height:1.25;font-family:'Segoe Script';-inkscape-font-specification:'Segoe Script';fill:#e0e0e0;stroke-width:0.20101"><path
     d="m 1.4148378,50.28087 q 0.03926,0 0.062816,0.02748 0.027482,0.02748 0.043186,0.06674 0.015704,0.04319 0.01963,0.09422 0.00785,0.05104 0.00785,0.09815 0,0.0903 0.031408,0.1963 0.035334,0.106003 0.1099284,0.196301 0.07852,0.0903 0.2002268,0.149189 0.1217065,0.06282 0.2983772,0.06282 0.2394869,0 0.4946779,-0.125633 0.2551911,-0.125632 0.4671959,-0.349415 0.2120048,-0.223783 0.3454893,-0.533938 0.1374106,-0.306229 0.1374106,-0.671349 0,-0.337637 -0.070668,-0.573198 -0.070668,-0.235561 -0.1845227,-0.380823 -0.1099285,-0.149189 -0.255191,-0.215931 -0.1452626,-0.06674 -0.2905252,-0.06674 -0.054964,0 -0.1217064,0.02748 -0.066742,0.02356 -0.1374106,0.06282 -0.066742,0.03533 -0.1374105,0.07852 -0.066742,0.04319 -0.1217065,0.07852 -0.094224,0.06282 -0.1805967,0.106003 -0.082446,0.04319 -0.2198569,0.04319 -0.1060024,0 -0.1845227,-0.07852 -0.074594,-0.08245 -0.074594,-0.215931 0,-0.102076 0.070668,-0.172745 0.074594,-0.07067 0.2277089,-0.133484 0.3258593,-0.133485 0.5810503,-0.270895 0.259117,-0.141337 0.4357877,-0.302304 0.1766707,-0.164892 0.270895,-0.361193 0.094224,-0.196301 0.094224,-0.447566 0,-0.09815 -0.031408,-0.192374 -0.027482,-0.09815 -0.086372,-0.172745 -0.05889,-0.07852 -0.1452625,-0.125633 -0.082446,-0.05104 -0.1923748,-0.05104 -0.2355609,0 -0.4475657,0.145263 -0.2120049,0.145262 -0.4161577,0.357267 -0.090298,0.09422 -0.1491886,0.137411 -0.05889,0.03926 -0.1256325,0.03926 -0.054964,0 -0.09815,-0.02748 -0.03926,-0.03141 -0.066742,-0.07067 -0.023556,-0.04319 -0.03926,-0.0903 -0.011778,-0.05104 -0.011778,-0.08637 0,-0.09423 0.051038,-0.176671 0.054964,-0.08637 0.1452626,-0.160967 0.1963007,-0.164892 0.3847495,-0.270895 0.1884487,-0.106002 0.3101552,-0.15704 0.1374105,-0.05497 0.2826731,-0.106003 0.1491886,-0.05104 0.2787471,-0.05104 0.1845227,0 0.3533414,0.06674 0.1688187,0.06282 0.2944512,0.188449 0.1295585,0.121707 0.2041528,0.302303 0.07852,0.180597 0.07852,0.408306 0,0.329785 -0.1609667,0.655644 -0.1570406,0.32586 -0.5378641,0.632089 0.2630431,0.01178 0.4593438,0.133484 0.1963008,0.121707 0.3258593,0.321934 0.1334845,0.200227 0.1963008,0.46327 0.066742,0.259117 0.066742,0.549642 0,0.290525 -0.07852,0.577124 -0.07852,0.286599 -0.2237828,0.549642 -0.1413366,0.263043 -0.3415634,0.486826 -0.1963008,0.223783 -0.4357877,0.388676 -0.2355609,0.164892 -0.506456,0.259117 -0.2669691,0.09422 -0.5496422,0.09422 -0.270895,0 -0.4711218,-0.0903 -0.2002268,-0.08637 -0.3337113,-0.219857 -0.1295585,-0.133485 -0.1963008,-0.286599 -0.066742,-0.153115 -0.066742,-0.282673 0,-0.09815 0.035334,-0.212005 0.03926,-0.113855 0.086372,-0.180597 0.031408,-0.04319 0.090298,-0.0903 0.05889,-0.04319 0.1491886,-0.04319 z"
     id="path1752" /></g><g
   aria-label="в"
   transform="scale(1.3862084,0.72139227)"
   id="text19318"
   style="font-size:8.37289px;line-height:1.25;font-family:'Segoe Script';-inkscape-font-specification:'Segoe Script';fill:#e0e0e0;stroke-width:0.209323"><path
     d="m 54.500097,46.384582 q 0,-0.04906 -0.02044,-0.09812 -0.01635,-0.05315 -0.05315,-0.09403 -0.03271,-0.04497 -0.08994,-0.07359 -0.05315,-0.02862 -0.126738,-0.02862 -0.143091,0 -0.298448,0.102208 -0.151268,0.102208 -0.306624,0.282095 -0.151268,0.175798 -0.29436,0.421097 -0.143091,0.241211 -0.265741,0.523306 -0.122649,0.282094 -0.220769,0.592807 -0.09403,0.306624 -0.151268,0.617337 0.0368,-0.02453 0.110384,-0.07768 0.07359,-0.05724 0.163533,-0.126738 0.09403,-0.07359 0.19624,-0.155357 0.106297,-0.08585 0.200328,-0.167621 0.09812,-0.08177 0.179886,-0.155356 0.08177,-0.07359 0.130827,-0.126738 0.453804,-0.490599 0.650044,-0.850372 0.196239,-0.359773 0.196239,-0.584631 z m -0.126738,4.407215 q -0.126738,0.188063 -0.306624,0.36795 -0.175798,0.175798 -0.388391,0.310712 -0.212593,0.134915 -0.453804,0.212593 -0.237123,0.07768 -0.482423,0.05724 -0.171709,-0.01226 -0.327066,-0.110385 -0.155356,-0.102208 -0.273918,-0.286183 -0.118561,-0.188063 -0.188063,-0.457892 -0.0695,-0.26983 -0.0695,-0.621426 0,-0.224858 0.02453,-0.48651 0.02453,-0.265742 0.06541,-0.535571 0.04088,-0.26983 0.08994,-0.527394 0.05315,-0.257565 0.102208,-0.474246 0.06541,-0.294359 0.17171,-0.580542 0.106296,-0.290271 0.237123,-0.556012 0.130826,-0.26983 0.282094,-0.506953 0.151268,-0.237123 0.310713,-0.429274 0.22077,-0.257564 0.502864,-0.412921 0.286183,-0.155356 0.670485,-0.155356 0.159445,0 0.290272,0.06541 0.130826,0.06541 0.224857,0.17171 0.09403,0.102208 0.143092,0.233034 0.05315,0.130827 0.05315,0.257565 0,0.175798 -0.07359,0.392479 -0.0695,0.212593 -0.204416,0.445628 -0.134915,0.233034 -0.327066,0.470157 -0.192151,0.237123 -0.437451,0.457892 0.05724,0.0041 0.130827,0.02044 0.07768,0.01227 0.159444,0.04906 0.08586,0.03679 0.17171,0.09812 0.08994,0.06132 0.17171,0.155356 0.03679,0.04497 0.08177,0.12265 0.04497,0.07359 0.08177,0.183975 0.04088,0.106296 0.06541,0.245299 0.02862,0.139003 0.02862,0.306625 0,0.327066 -0.118561,0.70728 -0.114474,0.376126 -0.408833,0.809488 z m -0.114473,-1.504504 q 0,-0.224857 -0.06541,-0.376125 -0.06541,-0.155357 -0.155357,-0.2453 -0.08994,-0.09403 -0.183974,-0.130826 -0.09403,-0.04088 -0.151268,-0.04088 -0.05315,0 -0.167622,0.08177 -0.114473,0.08177 -0.245299,0.179886 -0.09812,0.08585 -0.19624,0.159445 -0.09812,0.07359 -0.183974,0.143091 -0.08177,0.0695 -0.151268,0.139003 -0.0695,0.0695 -0.114474,0.14718 -0.114473,0.208505 -0.134914,0.474246 -0.02044,0.265741 -0.02044,0.543747 0,0.183975 0.03679,0.331154 0.04088,0.143092 0.09812,0.2453 0.06132,0.102208 0.130826,0.159445 0.0695,0.05315 0.126738,0.05315 0.139003,0 0.314801,-0.05724 0.175798,-0.05724 0.359773,-0.224858 0.159445,-0.147179 0.286183,-0.331154 0.130826,-0.183975 0.220769,-0.388391 0.09403,-0.204416 0.143092,-0.425186 0.05315,-0.220769 0.05315,-0.437451 z"
     id="path1710" /></g><text
   xml:space="preserve"
   style="font-size:14.6354px;line-height:1.25;font-family:'Segoe Script';-inkscape-font-specification:'Segoe Script';fill:#16272a;fill-opacity:0.799714;stroke-width:0.365881"
   x="7.6196752"
   y="46.4851"
   id="text17884"
   transform="scale(1.30685,0.76519876)"><tspan
     sodipodi:role="line"
     id="tspan17882"
     x="7.6196752"
     y="46.4851"
     style="stroke-width:0.365881">_</tspan></text><text
   xml:space="preserve"
   style="font-size:14.9074px;line-height:1.25;font-family:'Segoe Script';-inkscape-font-specification:'Segoe Script';fill:#16272a;fill-opacity:0.799714;stroke-width:0.372684"
   x="45.372047"
   y="46.97295"
   id="text17884-6"
   transform="scale(1.3311443,0.75123334)"><tspan
     sodipodi:role="line"
     id="tspan17882-2"
     x="45.372047"
     y="46.97295"
     style="stroke-width:0.372684">_</tspan></text><text
   xml:space="preserve"
   style="font-size:13.0959px;line-height:1.25;font-family:'Segoe Script';-inkscape-font-specification:'Segoe Script';fill:#16272a;fill-opacity:0.799714;stroke-width:0.327395"
   x="-52.527172"
   y="50.359268"
   id="text17884-0"
   transform="matrix(-0.01828102,-1.3686796,0.7299039,-0.05445084,0,0)"><tspan
     sodipodi:role="line"
     id="tspan17882-4"
     x="-52.527172"
     y="50.359268"
     style="stroke-width:0.327395">_</tspan></text><text
   xml:space="preserve"
   style="font-size:14.779px;line-height:1.25;font-family:'Segoe Script';-inkscape-font-specification:'Segoe Script';fill:#16272a;fill-opacity:0.799714;stroke-width:0.369475"
   x="-12.847107"
   y="52.044193"
   id="text17884-9"
   transform="matrix(5.1100992e-4,-1.3377798,0.74750663,0.00145266,0,0)"><tspan
     sodipodi:role="line"
     id="tspan17882-7"
     x="-12.847107"
     y="52.044193"
     style="stroke-width:0.369475">_</tspan></text></svg>
