<?xml version="1.0" encoding="UTF-8" standalone="no"?>
<!-- Generator: Adobe Illustrator 22.0.1, SVG Export Plug-In . SVG Version: 6.00 Build 0)  -->

<svg
   version="1.1"
   id="Layer_1"
   x="0px"
   y="0px"
   viewBox="0 0 77 77"
   xml:space="preserve"
   sodipodi:docname="northwestWind.svg"
   width="77"
   height="77"
   inkscape:version="1.1.1 (3bf5ae0d25, 2021-09-20)"
   xmlns:inkscape="http://www.inkscape.org/namespaces/inkscape"
   xmlns:sodipodi="http://sodipodi.sourceforge.net/DTD/sodipodi-0.dtd"
   xmlns="http://www.w3.org/2000/svg"
   xmlns:svg="http://www.w3.org/2000/svg"><defs
   id="defs7" /><sodipodi:namedview
   id="namedview5"
   pagecolor="#ffffff"
   bordercolor="#666666"
   borderopacity="1.0"
   inkscape:pageshadow="2"
   inkscape:pageopacity="0.0"
   inkscape:pagecheckerboard="0"
   showgrid="false"
   inkscape:zoom="7.183333"
   inkscape:cx="81.57773"
   inkscape:cy="55.197218"
   inkscape:window-width="2400"
   inkscape:window-height="1321"
   inkscape:window-x="2391"
   inkscape:window-y="-9"
   inkscape:window-maximized="1"
   inkscape:current-layer="Layer_1"
   width="140px" />
<path
   d="M 19.811286,59.855511 C 15.745208,56.172521 12.885664,51.751707 11.234821,46.630837 9.5839867,41.50996 9.291342,36.327018 10.356893,31.082003 c 1.065546,-5.245014 3.414558,-9.865949 7.027089,-13.880883 2.704941,-3.006247 5.901079,-5.352215 9.550656,-7.036191 3.649581,-1.6839538 7.381757,-2.5751857 11.172299,-2.7673863 3.790558,-0.1921743 7.606032,0.3920381 11.446427,1.7526401 3.840409,1.3606292 7.264387,3.3850712 10.333897,6.1653512 3.02964,2.744165 5.405805,5.973352 7.126382,9.649728 1.720571,3.676358 2.670945,7.444821 2.884561,11.227999 0.213613,3.783157 -0.327352,7.600815 -1.624967,11.415126 -1.297637,3.814313 -3.280068,7.223715 -6.002809,10.249742 -2.722736,3.026045 -5.936669,5.391784 -9.586257,7.07575 -3.649586,1.683955 -7.399542,2.594964 -11.190098,2.787178 -3.790551,0.192197 -7.588231,-0.411783 -11.40656,-1.716536 -3.818341,-1.304741 -7.22666,-3.386798 -10.276227,-6.14901 z m 4.413341,-4.904945 c 4.723841,4.278737 10.360228,6.296899 16.926957,6.034718 6.526854,-0.298295 11.906916,-2.81994 16.195682,-7.586422 2.811722,-3.124923 4.650354,-6.736375 5.460376,-10.812865 0.810011,-4.076495 0.619175,-8.126198 -0.665757,-12.125916 -1.284927,-3.999715 -3.483141,-7.42668 -6.632368,-10.279185 -3.149231,-2.852475 -6.79104,-4.715248 -10.887696,-5.590059 -4.096655,-0.874798 -8.133508,-0.690304 -12.110547,0.553475 -3.977039,1.243788 -7.352552,3.427265 -10.164274,6.552193 -2.811725,3.124917 -4.650347,6.736376 -5.460372,10.812871 -0.810015,4.076482 -0.59925,8.144263 0.667898,12.163745 1.267141,4.019494 3.520873,7.424955 6.670101,10.277445 z M 44.58684,55.840583 25.129627,24.755395 c -0.18152,-0.200309 -0.192194,-0.389472 -0.032,-0.567474 0.1602,-0.177963 0.348803,-0.186621 0.565901,-0.02589 l 32.786187,16.271514 c 0.290452,0.119467 0.432105,0.283686 0.462711,0.49089 0.03056,0.207216 -0.111755,0.365437 -0.427314,0.474482 l -8.766256,4.515958 c -0.257694,0.125561 -0.435651,0.323343 -0.516077,0.573565 l -3.637359,9.26928 c -0.05837,0.306093 -0.182945,0.444534 -0.373514,0.415511 -0.190774,-0.02924 -0.441341,-0.112584 -0.605072,-0.33267 z"
   id="path2"
   style="fill:#2c4f54;fill-opacity:0.5;stroke:#2e3332;stroke-width:0.16491;stroke-miterlimit:4;stroke-dasharray:none;stroke-opacity:0.9" />
<path
   style="fill:#2c4f53;fill-opacity:0.499285;stroke:#e4e7e7;stroke-width:0.16491;stroke-miterlimit:4;stroke-dasharray:none;stroke-opacity:0.9"
   d="m 54.83852,54.537631 c -0.844599,0.757975 -1.836245,1.53306 -2.747614,2.147596 -5.124695,3.455536 -12.305857,4.487101 -18.547754,2.664368 -3.359897,-0.981156 -5.829385,-2.396015 -8.560421,-4.904591 -2.803257,-2.574751 -4.4924,-5.021816 -5.794818,-8.394177 -0.877824,-2.272994 -1.330142,-4.349818 -1.499572,-6.885476 -0.33626,-5.032164 0.764434,-9.563244 3.351828,-13.798339 0.538833,-0.881973 0.800652,-1.213418 2.267547,-2.870586 1.78057,-2.011466 2.340118,-2.526574 3.983096,-3.666644 2.481435,-1.721803 5.839264,-3.070927 8.972839,-3.605124 1.278176,-0.217902 3.970424,-0.324888 5.296006,-0.210434 3.208144,0.276949 6.273123,1.175658 8.847611,2.594314 1.898494,1.046127 2.506981,1.492242 4.382645,3.213092 1.323118,1.213985 1.859235,1.755081 2.352057,2.37441 2.993074,3.76115 4.739916,8.383449 4.991689,13.208505 0.257837,4.941617 -1.01916,9.78619 -3.643707,13.823176 -0.605011,0.930609 -2.886114,3.623058 -3.651422,4.309932 z m -7.784128,-3.737105 c 0.977671,-2.516876 1.822191,-4.661015 1.876706,-4.764746 0.06726,-0.128036 1.541092,-0.947792 4.589347,-2.552668 2.584782,-1.360879 4.519139,-2.428953 4.558372,-2.516961 0.08127,-0.182415 -0.101806,-0.486286 -0.397426,-0.659605 -0.11737,-0.0688 -7.25841,-3.644883 -15.869,-7.94685 -15.088723,-7.538527 -15.663512,-7.817482 -15.873657,-7.703688 -0.162388,0.08798 -0.215226,0.164628 -0.206834,0.300706 0.01392,0.225078 18.428411,30.183898 18.71389,30.445745 0.257909,0.236611 0.678983,0.298499 0.766098,0.112629 0.03561,-0.07619 0.864821,-2.197701 1.842492,-4.714578 z"
   id="path861" /><rect
   style="fill:#c7485e;fill-opacity:1;stroke:#3c4343;stroke-width:0.669797;stroke-opacity:0.9"
   id="rect2803"
   width="7.3248315"
   height="0.086536311"
   x="-7.802608"
   y="48.601311"
   transform="matrix(0.63969848,-0.76862595,0.78187106,0.62344017,0,0)"
   inkscape:transform-center-x="-0.85135026"
   inkscape:transform-center-y="5.7205945" /><path
   style="fill:#a06f78;fill-opacity:1;stroke:#e27364;stroke-width:0.0554873;stroke-opacity:0.9"
   d="m 32.22897,35.64663 c -0.07083,-0.118969 -1.627049,-2.662374 -3.458352,-5.65202 -1.831303,-2.989644 -3.359739,-5.519732 -3.396508,-5.622406 -0.05784,-0.161573 11.298935,5.707216 11.609321,5.999276 0.08482,0.07974 -0.516482,0.826325 -2.255077,2.8001 -2.216857,2.516727 -2.379067,2.677277 -2.499357,2.47507 z"
   id="path3397"
   inkscape:transform-center-x="3.0148014"
   inkscape:transform-center-y="2.4716382" /><g
   aria-label="c"
   transform="scale(1.0202299,0.98017125)"
   id="text9344"
   style="font-size:8.68282px;line-height:1.25;font-family:'Segoe Script';-inkscape-font-specification:'Segoe Script';fill:#e0e0e0;stroke-width:0.21707"><path
     d="m 41.525167,3.9885249 q 0,0.1526277 -0.110231,0.2755778 -0.114471,0.1271897 -0.199264,0.2162225 -0.08479,0.084793 -0.161107,0.1568674 -0.07631,0.072074 -0.161107,0.1399087 -0.08479,0.063595 -0.199264,0.1483881 -0.322214,0.2331812 -0.614751,0.3942882 -0.292536,0.1568673 -0.568114,0.2586191 -0.275578,0.097512 -0.546916,0.1399088 -0.267098,0.042397 -0.538436,0.042397 -0.284058,0 -0.508759,-0.1059915 -0.224702,-0.1102311 -0.38157,-0.2967761 -0.152627,-0.186545 -0.233181,-0.4324451 -0.08055,-0.2501399 -0.08055,-0.5257177 v -0.021198 q 0,-0.2798174 0.07207,-0.5935521 0.07207,-0.3179744 0.199264,-0.6359488 0.131429,-0.3179744 0.313734,-0.6232298 0.182306,-0.309495 0.402768,-0.5765935 0.08903,-0.1059915 0.211983,-0.2247019 0.12719,-0.1229501 0.267098,-0.2247019 0.144149,-0.1017518 0.296777,-0.1653467 0.156867,-0.067835 0.305255,-0.067835 0.101752,0 0.195024,0.063595 0.09327,0.059355 0.173826,0.1568673 0.08055,0.097512 0.148388,0.2204623 0.06784,0.1187104 0.114471,0.2459001 0.04664,0.1229501 0.07207,0.2374209 0.02544,0.1144708 0.02544,0.1950243 0,0.1229501 -0.07631,0.3179744 -0.07631,0.1950243 -0.182305,0.1950243 -0.152628,0 -0.25438,-0.2077433 -0.03816,-0.080553 -0.06783,-0.186545 -0.02544,-0.1059914 -0.06359,-0.2077432 -0.03392,-0.1017518 -0.09327,-0.186545 -0.05936,-0.089033 -0.165347,-0.1314294 -0.105992,0.025438 -0.216223,0.1102311 -0.105991,0.084793 -0.211983,0.2077433 -0.101751,0.1229501 -0.203503,0.2798174 -0.09751,0.1526277 -0.186545,0.3179744 -0.08479,0.1526277 -0.165347,0.3518916 -0.08055,0.1950243 -0.144148,0.4070072 -0.06359,0.2077433 -0.101752,0.4154866 -0.03816,0.2077432 -0.03816,0.3815692 0,0.1229501 0.05935,0.2501399 0.05936,0.1229501 0.152628,0.2247019 0.09751,0.1017518 0.216223,0.1653466 0.12295,0.063595 0.250139,0.063595 0.62747,0 1.24646,-0.2586192 0.61899,-0.2586191 1.178625,-0.7504195 0.309495,-0.2713381 0.512999,-0.2713381 0.05936,0 0.05936,0.1144708 z"
     id="path1983" /></g><g
   aria-label="ю"
   transform="scale(0.88694667,1.1274635)"
   id="text11307"
   style="font-size:6.95773px;line-height:1.25;font-family:'Segoe Script';-inkscape-font-specification:'Segoe Script';fill:#e0e0e0;stroke-width:0.173942"><path
     d="m 41.634827,65.912432 q 0,-0.01359 -0.01699,-0.02378 -0.01359,-0.01359 -0.03397,-0.03397 -0.02038,-0.02038 -0.03737,-0.05436 -0.01359,-0.03397 -0.01359,-0.09512 0,-0.05436 0.03058,-0.09852 0.03058,-0.04417 0.06455,-0.08154 0.03737,-0.03737 0.06795,-0.06795 0.03397,-0.03058 0.04077,-0.05776 0.05776,-0.326143 0.09852,-0.614916 0.04077,-0.288773 0.05096,-0.482421 0.0034,-0.05776 0,-0.118906 0,-0.06115 -0.0034,-0.122304 -0.0034,-0.04417 -0.0068,-0.08493 0,-0.04077 0,-0.07814 0,-0.04077 0.03058,-0.09173 0.03058,-0.05096 0.07474,-0.09513 0.04756,-0.04416 0.10192,-0.07134 0.05776,-0.03058 0.112112,-0.03058 0.04756,0 0.09513,0.02718 0.04756,0.02378 0.08493,0.07134 0.03737,0.04417 0.06115,0.112112 0.02378,0.06455 0.02378,0.146085 0,0.06115 -0.01019,0.149483 -0.01019,0.08833 -0.02718,0.193648 -0.01699,0.105317 -0.04077,0.220826 -0.02038,0.115509 -0.04077,0.231018 -0.02718,0.159675 -0.05436,0.30576 -0.02378,0.146085 -0.03737,0.251402 0.01359,0.03058 0.02378,0.05436 0.01359,0.02038 0.03397,0.03397 0.02038,0.01359 0.05096,0.02038 0.03397,0.0068 0.08833,0.0068 0.146085,0 0.309157,-0.03058 0.163072,-0.03058 0.309157,-0.07814 0.146085,-0.04756 0.261594,-0.09852 0.118907,-0.05436 0.176661,-0.10192 0.03737,-0.03058 0.08154,-0.08154 0.04756,-0.05096 0.09513,-0.108715 0.04756,-0.06115 0.09173,-0.118906 0.04756,-0.06115 0.08154,-0.105317 0.11551,-0.146086 0.261595,-0.285376 0.146085,-0.139291 0.322746,-0.244608 0.176661,-0.105317 0.380501,-0.169866 0.207237,-0.06455 0.448447,-0.06455 0.183456,0 0.360117,0.09173 0.176661,0.08833 0.312554,0.241211 0.139291,0.15288 0.220827,0.353322 0.08493,0.197045 0.08493,0.414474 0,0.217429 -0.04416,0.397488 -0.04077,0.176661 -0.132496,0.377103 -0.05096,0.105317 -0.176661,0.251402 -0.125701,0.146086 -0.302363,0.302363 -0.173263,0.156277 -0.3805,0.309157 -0.207237,0.152879 -0.421269,0.275183 -0.214032,0.122304 -0.421269,0.197045 -0.20384,0.07474 -0.370309,0.07474 -0.224224,0 -0.383898,-0.07474 -0.159674,-0.07814 -0.261594,-0.200442 -0.10192,-0.125701 -0.149483,-0.285376 -0.04756,-0.159674 -0.04756,-0.322746 0,-0.132496 0.03737,-0.319349 0.04077,-0.19025 0.135893,-0.383898 -0.129098,0.08154 -0.288773,0.129098 -0.156277,0.04756 -0.288773,0.08493 -0.05775,0.01699 -0.129098,0.03058 -0.07134,0.01019 -0.142688,0.02038 -0.06795,0.01019 -0.132496,0.02038 -0.06115,0.01019 -0.105317,0.01699 -0.06795,0.01359 -0.09512,0.05436 -0.02378,0.03737 -0.03737,0.09852 -0.01359,0.05776 -0.04077,0.15288 -0.02718,0.09512 -0.05436,0.197045 -0.03058,0.108714 -0.06455,0.224224 -0.03397,0.115509 -0.06115,0.220826 -0.02378,0.10192 -0.04416,0.19025 -0.01699,0.08493 -0.01699,0.132496 0,0.04417 -0.03737,0.09513 -0.03397,0.05096 -0.08154,0.09512 -0.04416,0.04756 -0.09173,0.07814 -0.04417,0.03058 -0.06795,0.03058 -0.05096,0 -0.09852,-0.03397 -0.04416,-0.03397 -0.07814,-0.07814 -0.03397,-0.04416 -0.05436,-0.08833 -0.02038,-0.04756 -0.02038,-0.07134 0,-0.03058 0.02378,-0.108715 0.02718,-0.07814 0.05436,-0.159674 0.01699,-0.05096 0.04416,-0.139291 0.02718,-0.08833 0.05436,-0.193647 0.03058,-0.108715 0.05775,-0.224224 0.03058,-0.115509 0.05436,-0.217429 0.02378,-0.10192 0.03737,-0.176661 0.01359,-0.07814 0.01359,-0.112112 z m 4.093781,-0.767796 q 0,-0.339733 -0.197045,-0.529984 -0.193648,-0.193647 -0.557162,-0.193647 -0.05096,0 -0.125701,0.04077 -0.07474,0.04077 -0.163072,0.105318 -0.08493,0.06115 -0.173264,0.135893 -0.08493,0.07474 -0.163072,0.146085 -0.07474,0.07134 -0.129098,0.129099 -0.05436,0.05775 -0.07474,0.08154 -0.07134,0.08493 -0.149483,0.234416 -0.07474,0.146085 -0.13929,0.315952 -0.06455,0.169866 -0.108715,0.34313 -0.04077,0.169866 -0.04077,0.298965 0,0.07814 0.02038,0.159674 0.02378,0.08154 0.06795,0.149483 0.04756,0.06455 0.118906,0.108714 0.07134,0.04077 0.166469,0.04077 0.105318,0 0.268389,-0.06115 0.163072,-0.06115 0.343131,-0.169866 0.183455,-0.108715 0.366911,-0.258197 0.186853,-0.149483 0.332938,-0.322746 0.149483,-0.173264 0.241211,-0.363515 0.09513,-0.193647 0.09513,-0.390692 z"
     id="path1941" /></g><g
   aria-label="з"
   transform="scale(1.3750512,0.72724563)"
   id="text16794"
   style="font-size:8.01339px;line-height:1.25;font-family:'Segoe Script';-inkscape-font-specification:'Segoe Script';fill:#e0e0e0;stroke-width:0.200334"><path
     d="m 1.2864901,50.297707 q 0.039128,0 0.062605,0.02739 0.027389,0.02739 0.043041,0.06652 0.015651,0.04304 0.019564,0.09391 0.00783,0.05087 0.00783,0.09782 0,0.08999 0.031302,0.195639 0.035215,0.105645 0.109558,0.195639 0.078256,0.08999 0.1995522,0.148686 0.1212964,0.0626 0.2973719,0.0626 0.2386801,0 0.4930113,-0.125209 0.2543312,-0.12521 0.4656217,-0.348238 0.2112906,-0.223029 0.3443254,-0.53214 0.1369475,-0.305197 0.1369475,-0.669086 0,-0.3365 -0.07043,-0.571267 -0.07043,-0.234768 -0.1839011,-0.379541 -0.109558,-0.148686 -0.2543312,-0.215203 -0.1447731,-0.06652 -0.2895463,-0.06652 -0.054779,0 -0.1212964,0.02739 -0.066517,0.02348 -0.1369476,0.0626 -0.066517,0.03522 -0.1369476,0.07826 -0.066517,0.04304 -0.1212964,0.07826 -0.093907,0.06261 -0.1799882,0.105645 -0.082169,0.04304 -0.2191162,0.04304 -0.1056452,0 -0.183901,-0.07826 -0.074343,-0.08217 -0.074343,-0.215203 0,-0.101733 0.07043,-0.172163 0.074343,-0.07043 0.2269417,-0.133034 0.3247614,-0.133035 0.5790926,-0.269983 0.258244,-0.14086 0.4343195,-0.301285 0.1760754,-0.164337 0.2699824,-0.359976 0.093907,-0.195639 0.093907,-0.446058 0,-0.09782 -0.031302,-0.191726 -0.02739,-0.09782 -0.086081,-0.172163 -0.058692,-0.07826 -0.1447731,-0.125209 -0.082169,-0.05087 -0.1917266,-0.05087 -0.2347673,0 -0.4460579,0.144774 -0.2112905,0.144773 -0.4147555,0.356063 -0.089994,0.09391 -0.1486859,0.136948 -0.058692,0.03913 -0.1252092,0.03913 -0.054779,0 -0.09782,-0.02739 -0.039128,-0.0313 -0.066517,-0.07043 -0.023477,-0.04304 -0.039128,-0.08999 -0.011738,-0.05087 -0.011738,-0.08608 0,-0.09391 0.050866,-0.176076 0.054779,-0.08608 0.1447731,-0.160424 0.1956394,-0.164337 0.3834533,-0.269983 0.1878138,-0.105645 0.3091102,-0.156511 0.1369476,-0.05478 0.2817207,-0.105645 0.148686,-0.05087 0.277808,-0.05087 0.183901,0 0.3521509,0.06652 0.1682499,0.0626 0.2934591,0.187814 0.129122,0.121296 0.2034649,0.301284 0.078256,0.179989 0.078256,0.40693 0,0.328674 -0.1604243,0.653436 -0.1565115,0.324761 -0.536052,0.629959 0.2621568,0.01174 0.4577962,0.133034 0.1956394,0.121297 0.3247614,0.320849 0.1330348,0.199552 0.1956394,0.461709 0.066517,0.258244 0.066517,0.54779 0,0.289547 -0.078256,0.57518 -0.078256,0.285634 -0.223029,0.54779 -0.1408603,0.262157 -0.3404125,0.485186 -0.1956394,0.223029 -0.4343195,0.387366 -0.2347672,0.164337 -0.5047496,0.258244 -0.2660696,0.09391 -0.5477903,0.09391 -0.2699824,0 -0.4695345,-0.08999 Q 1.3217052,51.52241 1.1886704,51.389375 1.0595484,51.25634 0.993031,51.103741 0.9265136,50.951143 0.9265136,50.822021 q 0,-0.09782 0.0352151,-0.211291 0.0391279,-0.113471 0.0860813,-0.179988 0.031302,-0.04304 0.089994,-0.08999 0.058692,-0.04304 0.148686,-0.04304 z"
     id="path1962" /></g><g
   aria-label="в"
   transform="scale(1.3903134,0.71926227)"
   id="text19318"
   style="font-size:8.34467px;line-height:1.25;font-family:'Segoe Script';-inkscape-font-specification:'Segoe Script';fill:#e0e0e0;stroke-width:0.208617"><path
     d="m 54.194215,46.416632 q 0,-0.04889 -0.02037,-0.09779 -0.0163,-0.05297 -0.05297,-0.09371 -0.0326,-0.04482 -0.08964,-0.07334 -0.05297,-0.02852 -0.126311,-0.02852 -0.142609,0 -0.297442,0.101864 -0.150758,0.101863 -0.305591,0.281143 -0.150758,0.175206 -0.293367,0.419678 -0.14261,0.240399 -0.264846,0.521542 -0.122236,0.281144 -0.220025,0.59081 -0.09371,0.30559 -0.150759,0.615256 0.03667,-0.02445 0.110013,-0.07742 0.07334,-0.05704 0.162982,-0.126311 0.09371,-0.07334 0.195578,-0.154833 0.105938,-0.08557 0.199653,-0.167056 0.09779,-0.08149 0.17928,-0.154833 0.08149,-0.07334 0.130385,-0.126311 0.452275,-0.488946 0.647853,-0.847506 0.195578,-0.35856 0.195578,-0.58266 z m -0.12631,4.392361 q -0.126311,0.187429 -0.305591,0.366709 -0.175206,0.175205 -0.387082,0.309665 -0.211877,0.13446 -0.452275,0.211877 -0.236324,0.07742 -0.480796,0.05704 -0.171131,-0.01222 -0.325964,-0.110013 -0.154833,-0.101864 -0.272995,-0.285218 -0.118161,-0.18743 -0.187429,-0.45635 -0.06927,-0.26892 -0.06927,-0.619331 0,-0.2241 0.02445,-0.484871 0.02445,-0.264845 0.06519,-0.533765 0.04074,-0.26892 0.08964,-0.525617 0.05297,-0.256696 0.101864,-0.472647 0.06519,-0.293367 0.171131,-0.578585 0.105938,-0.289293 0.236323,-0.554139 0.130386,-0.26892 0.281144,-0.505243 0.150758,-0.236324 0.309665,-0.427828 0.220026,-0.256696 0.50117,-0.411529 0.285218,-0.154833 0.668225,-0.154833 0.158907,0 0.289293,0.06519 0.130385,0.06519 0.2241,0.171131 0.09371,0.101864 0.142609,0.232249 0.05297,0.130386 0.05297,0.256697 0,0.175205 -0.07334,0.391156 -0.06927,0.211876 -0.203727,0.444125 -0.13446,0.23225 -0.325964,0.468573 -0.191503,0.236324 -0.435976,0.456349 0.05704,0.0041 0.130385,0.02037 0.07742,0.01222 0.158908,0.04889 0.08557,0.03667 0.171131,0.09779 0.08964,0.06112 0.171131,0.154833 0.03667,0.04482 0.08149,0.122236 0.04482,0.07334 0.08149,0.183355 0.04075,0.105938 0.06519,0.244472 0.02852,0.138535 0.02852,0.305591 0,0.325964 -0.118162,0.704897 -0.114087,0.374858 -0.407454,0.80676 z M 53.953817,49.30956 q 0,-0.2241 -0.06519,-0.374858 -0.06519,-0.154833 -0.154832,-0.244473 -0.08964,-0.09372 -0.183355,-0.130386 -0.09371,-0.04075 -0.150758,-0.04075 -0.05297,0 -0.167056,0.08149 -0.114088,0.08149 -0.244473,0.17928 -0.09779,0.08557 -0.195578,0.158907 -0.09779,0.07334 -0.183355,0.142609 -0.08149,0.06927 -0.150758,0.138535 -0.06927,0.06927 -0.114087,0.146684 -0.114088,0.207801 -0.13446,0.472647 -0.02037,0.264845 -0.02037,0.541914 0,0.183355 0.03667,0.330039 0.04075,0.142609 0.09779,0.244472 0.06112,0.101864 0.130385,0.158908 0.06927,0.05297 0.126311,0.05297 0.138535,0 0.31374,-0.05704 0.175206,-0.05704 0.35856,-0.2241 0.158908,-0.146683 0.285219,-0.330038 0.130385,-0.183355 0.220025,-0.387082 0.09371,-0.203727 0.142609,-0.423753 0.05297,-0.220025 0.05297,-0.435976 z"
     id="path1920" /></g><text
   xml:space="preserve"
   style="font-size:15.0058px;line-height:1.25;font-family:'Segoe Script';-inkscape-font-specification:'Segoe Script';fill:#16272a;fill-opacity:0.799714;stroke-width:0.375146"
   x="7.6030035"
   y="47.844715"
   id="text17884"
   transform="scale(1.3484498,0.74159228)"><tspan
     sodipodi:role="line"
     id="tspan17882"
     x="7.6030035"
     y="47.844715"
     style="stroke-width:0.375146">_</tspan></text><text
   xml:space="preserve"
   style="font-size:15.5989px;line-height:1.25;font-family:'Segoe Script';-inkscape-font-specification:'Segoe Script';fill:#16272a;fill-opacity:0.799714;stroke-width:0.389971"
   x="42.812603"
   y="49.341736"
   id="text17884-6"
   transform="scale(1.4017394,0.71339938)"><tspan
     sodipodi:role="line"
     id="tspan17882-2"
     x="42.812603"
     y="49.341736"
     style="stroke-width:0.389971">_</tspan></text><text
   xml:space="preserve"
   style="font-size:12.9408px;line-height:1.25;font-family:'Segoe Script';-inkscape-font-specification:'Segoe Script';fill:#16272a;fill-opacity:0.799714;stroke-width:0.323518"
   x="-51.706108"
   y="49.537773"
   id="text17884-0"
   transform="matrix(-0.01849235,-1.3530385,0.73834159,-0.05382858,0,0)"><tspan
     sodipodi:role="line"
     id="tspan17882-4"
     x="-51.706108"
     y="49.537773"
     style="stroke-width:0.323518">_</tspan></text><text
   xml:space="preserve"
   style="font-size:14.955px;line-height:1.25;font-family:'Segoe Script';-inkscape-font-specification:'Segoe Script';fill:#16272a;fill-opacity:0.799714;stroke-width:0.373872"
   x="-12.145467"
   y="52.432816"
   id="text17884-9"
   transform="matrix(5.0478898e-4,-1.3542664,0.7384066,0.00147057,0,0)"><tspan
     sodipodi:role="line"
     id="tspan17882-7"
     x="-12.145467"
     y="52.432816"
     style="stroke-width:0.373872">_</tspan></text></svg>
