<?xml version="1.0" encoding="UTF-8" standalone="no"?>
<!-- Generator: Adobe Illustrator 22.0.1, SVG Export Plug-In . SVG Version: 6.00 Build 0)  -->

<svg
   version="1.1"
   id="Layer_1"
   x="0px"
   y="0px"
   viewBox="0 0 77 77"
   xml:space="preserve"
   sodipodi:docname="northWind.svg"
   width="77"
   height="77"
   inkscape:version="1.1.1 (3bf5ae0d25, 2021-09-20)"
   xmlns:inkscape="http://www.inkscape.org/namespaces/inkscape"
   xmlns:sodipodi="http://sodipodi.sourceforge.net/DTD/sodipodi-0.dtd"
   xmlns="http://www.w3.org/2000/svg"
   xmlns:svg="http://www.w3.org/2000/svg"><defs
   id="defs7" /><sodipodi:namedview
   id="namedview5"
   pagecolor="#ffffff"
   bordercolor="#666666"
   borderopacity="1.0"
   inkscape:pageshadow="2"
   inkscape:pageopacity="0.0"
   inkscape:pagecheckerboard="0"
   showgrid="false"
   inkscape:zoom="5.0793836"
   inkscape:cx="77.962216"
   inkscape:cy="54.632613"
   inkscape:window-width="2400"
   inkscape:window-height="1321"
   inkscape:window-x="2391"
   inkscape:window-y="-9"
   inkscape:window-maximized="1"
   inkscape:current-layer="Layer_1"
   width="140px" />
<path
   d="m 8.9689278,38.064545 c 0.1074532,-5.444094 1.5719102,-10.461686 4.3660902,-15.02661 2.794184,-4.564926 6.532871,-8.150627 11.216076,-10.757119 4.683198,-2.6064958 9.740979,-3.8442493 15.173877,-3.73998 4.067974,0.078077 7.95958,0.953683 11.648569,2.599593 3.68898,1.645923 6.831127,3.868674 9.481526,6.589227 2.650383,2.720572 4.72824,5.964058 6.233516,9.730501 1.505282,3.766457 2.231811,7.651432 2.150702,11.761193 -0.08005,4.056382 -0.959844,7.937231 -2.61207,11.616383 -1.652228,3.679138 -3.883231,6.839945 -6.612206,9.457251 -2.728953,2.617311 -5.982672,4.69059 -9.733807,6.193714 -3.751142,1.503115 -7.647579,2.229223 -11.742318,2.150633 -4.09475,-0.07858 -8.013111,-0.954702 -11.702104,-2.600624 C 23.147797,64.392781 19.978899,62.169525 17.328492,59.44898 14.678095,56.728422 12.627016,53.485432 11.093929,49.77184 9.5608165,46.058249 8.8883444,42.147611 8.9689278,38.064545 Z m 6.6372382,0.127389 c -0.124823,6.324755 2.068302,11.866394 6.606138,16.625436 4.538883,4.705667 10.006778,7.106543 16.456667,7.230339 4.228557,0.08117 8.183265,-0.884109 11.811119,-2.923523 3.627859,-2.039421 6.574088,-4.81273 8.759473,-8.374861 2.185385,-3.562122 3.332804,-7.437836 3.416026,-11.654345 0.08321,-4.216497 -0.909899,-8.159988 -2.953068,-11.803286 -2.043174,-3.643285 -4.850466,-6.553732 -8.421875,-8.731327 -3.571407,-2.1776 -7.458259,-3.293376 -11.686821,-3.374535 -4.228561,-0.08117 -8.183264,0.884109 -11.811129,2.923525 -3.627844,2.039417 -6.574608,4.839422 -8.786749,8.401037 -2.212141,3.561616 -3.306564,7.465036 -3.389781,11.68154 z M 28.385172,54.054856 39.111795,19.261188 c 0.03203,-0.266345 0.16848,-0.397213 0.40937,-0.392565 0.240863,0.0047 0.37205,0.140626 0.39356,0.407978 l 9.318856,35.178405 c 0.101276,0.295615 0.07029,0.508591 -0.06668,0.666141 -0.137008,0.15752 -0.351081,0.153436 -0.642313,-0.01234 l -9.218306,-3.647519 c -0.265526,-0.111893 -0.533157,-0.117029 -0.776131,-0.0149 l -9.435534,3.289501 c -0.270783,0.154972 -0.458123,0.151374 -0.562019,-0.01079 -0.103875,-0.162185 -0.206206,-0.404405 -0.147419,-0.670247 z"
   id="path2"
   style="fill:#2c4f54;fill-opacity:0.5;stroke:#2e3332;stroke-width:0.164796;stroke-miterlimit:4;stroke-dasharray:none;stroke-opacity:0.9" />
<path
   style="fill:#2c4f53;fill-opacity:0.499285;stroke:#e4e7e7;stroke-width:0.164686;stroke-miterlimit:4;stroke-dasharray:none;stroke-opacity:0.9"
   d="M 36.039632,60.940265 C 34.916874,60.797049 33.685015,60.553752 32.626413,60.266154 26.673905,58.648936 21.198227,53.889551 18.483635,47.973441 17.022425,44.788903 16.470117,41.994419 16.56908,38.28641 c 0.10144,-3.805965 0.836052,-6.685279 2.519561,-9.87734 1.134709,-2.15146 2.400398,-3.852566 4.196252,-5.639811 3.563985,-3.546883 7.691614,-5.678537 12.569714,-6.491469 1.015874,-0.169294 1.436468,-0.188024 3.642683,-0.162212 2.677926,0.03141 3.431491,0.117809 5.364094,0.615204 2.918819,0.751278 6.13098,2.409604 8.583563,4.43141 1.000405,0.824687 2.842895,2.792039 3.624422,3.870036 1.891424,2.608953 3.221604,5.516368 3.839792,8.392791 0.455876,2.121144 0.518653,2.873495 0.452215,5.418814 -0.04692,1.795538 -0.102923,2.555279 -0.246098,3.333431 -0.86936,4.725839 -3.20192,9.072027 -6.665463,12.419477 -3.547198,3.428327 -8.025969,5.631659 -12.779413,6.286849 -1.095765,0.151039 -4.613376,0.186445 -5.63077,0.05669 z m -2.284402,-8.33571 c 2.532501,-0.906888 4.697561,-1.670667 4.811246,-1.697281 0.140297,-0.03287 1.721335,0.546096 4.923204,1.802816 2.715045,1.065629 4.784219,1.830629 4.876076,1.802735 0.190364,-0.05785 0.299044,-0.395207 0.235902,-0.73231 -0.02507,-0.133836 -2.009683,-7.877546 -4.41023,-17.208257 -4.206588,-16.350632 -4.373015,-16.968112 -4.596124,-17.052691 -0.172431,-0.06534 -0.264658,-0.05518 -0.361491,0.04024 -0.160236,0.157708 -10.636353,33.694299 -10.646418,34.081657 -0.0091,0.349986 0.219924,0.709122 0.416711,0.653438 0.0806,-0.02291 2.218628,-0.783465 4.751128,-1.690353 z"
   id="path861" /><rect
   style="fill:#c7485e;fill-opacity:1;stroke:#3c4343;stroke-width:0.750105;stroke-opacity:0.9"
   id="rect2803"
   width="9.1037025"
   height="0.087323442"
   x="32.972836"
   y="36.307899"
   transform="matrix(0.99988887,-0.01490798,0.03890698,0.99924284,0,0)"
   inkscape:transform-center-x="4.7304797"
   inkscape:transform-center-y="4.4237803" /><path
   style="fill:#a06f78;fill-opacity:1;stroke:#e27364;stroke-width:0.0660477;stroke-opacity:0.9"
   d="m 34.983148,34.980714 c 0.0479,-0.156629 1.037473,-3.542167 2.19904,-7.523477 1.161566,-3.981305 2.161862,-7.331907 2.222874,-7.445768 0.09602,-0.179183 4.091793,14.430564 4.084635,14.934593 -0.002,0.137681 -1.147928,0.205252 -4.29815,0.253541 -4.016796,0.06157 -4.289846,0.04731 -4.208399,-0.21885 z"
   id="path3397"
   inkscape:transform-center-x="4.4843966"
   inkscape:transform-center-y="-2.6567462" /><text
   xml:space="preserve"
   style="font-size:8.67097px;line-height:1.25;font-family:'Segoe Script';-inkscape-font-specification:'Segoe Script';fill:#e0e0e0;fill-opacity:1;stroke-width:0.216774"
   x="36.724262"
   y="5.9042482"
   id="text9344"
   transform="scale(1.0203924,0.98001514)"><tspan
     sodipodi:role="line"
     id="tspan9342"
     x="36.724262"
     y="5.9042482"
     style="fill:#e0e0e0;fill-opacity:1;stroke-width:0.216774">c</tspan></text><text
   xml:space="preserve"
   style="font-size:6.94821px;line-height:1.25;font-family:'Segoe Script';-inkscape-font-specification:'Segoe Script';fill:#e0e0e0;fill-opacity:1;stroke-width:0.173704"
   x="40.778145"
   y="67.369926"
   id="text11307"
   transform="scale(0.8870879,1.127284)"><tspan
     sodipodi:role="line"
     id="tspan11305"
     x="40.778145"
     y="67.369926"
     style="fill:#e0e0e0;fill-opacity:1;stroke-width:0.173704">ю</tspan></text><text
   xml:space="preserve"
   style="font-size:8.00239px;line-height:1.25;font-family:'Segoe Script';-inkscape-font-specification:'Segoe Script';fill:#e0e0e0;fill-opacity:1;stroke-width:0.20006"
   x="0.78092575"
   y="50.143295"
   id="text16794"
   transform="scale(1.3752703,0.7271298)"><tspan
     sodipodi:role="line"
     id="tspan16792"
     x="0.78092575"
     y="50.143295"
     style="fill:#e0e0e0;fill-opacity:1;stroke-width:0.20006">з</tspan></text><text
   xml:space="preserve"
   style="font-size:8.33323px;line-height:1.25;font-family:'Segoe Script';-inkscape-font-specification:'Segoe Script';fill:#e0e0e0;fill-opacity:1;stroke-width:0.208332"
   x="51.032463"
   y="51.811268"
   id="text19318"
   transform="scale(1.3905348,0.71914777)"><tspan
     sodipodi:role="line"
     id="tspan19316"
     x="51.032463"
     y="51.811268"
     style="fill:#e0e0e0;fill-opacity:1;stroke-width:0.208332">в</tspan></text><text
   xml:space="preserve"
   style="font-size:14.566px;line-height:1.25;font-family:'Segoe Script';-inkscape-font-specification:'Segoe Script';fill:#16272a;fill-opacity:0.799714;stroke-width:0.364151"
   x="7.4870486"
   y="46.658768"
   id="text17884"
   transform="scale(1.3109288,0.76281792)"><tspan
     sodipodi:role="line"
     id="tspan17882"
     x="7.4870486"
     y="46.658768"
     style="stroke-width:0.364151">_</tspan></text><text
   xml:space="preserve"
   style="font-size:14.8368px;line-height:1.25;font-family:'Segoe Script';-inkscape-font-specification:'Segoe Script';fill:#16272a;fill-opacity:0.799714;stroke-width:0.37092"
   x="44.916054"
   y="47.151634"
   id="text17884-6"
   transform="scale(1.3352991,0.7488959)"><tspan
     sodipodi:role="line"
     id="tspan17882-2"
     x="44.916054"
     y="47.151634"
     style="stroke-width:0.37092">_</tspan></text><text
   xml:space="preserve"
   style="font-size:13.0339px;line-height:1.25;font-family:'Segoe Script';-inkscape-font-specification:'Segoe Script';fill:#16272a;fill-opacity:0.799714;stroke-width:0.325846"
   x="-51.949707"
   y="50.030014"
   id="text17884-0"
   transform="matrix(-0.01833809,-1.3644211,0.732182,-0.05428141,0,0)"><tspan
     sodipodi:role="line"
     id="tspan17882-4"
     x="-51.949707"
     y="50.030014"
     style="stroke-width:0.325846">_</tspan></text><text
   xml:space="preserve"
   style="font-size:14.7091px;line-height:1.25;font-family:'Segoe Script';-inkscape-font-specification:'Segoe Script';fill:#16272a;fill-opacity:0.799714;stroke-width:0.367727"
   x="-12.453593"
   y="51.700832"
   id="text17884-9"
   transform="matrix(5.1260486e-4,-1.3336174,0.74983971,0.00144815,0,0)"><tspan
     sodipodi:role="line"
     id="tspan17882-7"
     x="-12.453593"
     y="51.700832"
     style="stroke-width:0.367727">_</tspan></text></svg>
