<?xml version="1.0" encoding="UTF-8" standalone="no"?>
<!-- Generator: Adobe Illustrator 22.0.1, SVG Export Plug-In . SVG Version: 6.00 Build 0)  -->

<svg
   version="1.1"
   id="Layer_1"
   x="0px"
   y="0px"
   viewBox="0 0 77 77"
   xml:space="preserve"
   sodipodi:docname="northWind.svg"
   width="77"
   height="77"
   inkscape:version="1.1.1 (3bf5ae0d25, 2021-09-20)"
   xmlns:inkscape="http://www.inkscape.org/namespaces/inkscape"
   xmlns:sodipodi="http://sodipodi.sourceforge.net/DTD/sodipodi-0.dtd"
   xmlns="http://www.w3.org/2000/svg"
   xmlns:svg="http://www.w3.org/2000/svg"><defs
   id="defs7" /><sodipodi:namedview
   id="namedview5"
   pagecolor="#ffffff"
   bordercolor="#666666"
   borderopacity="1.0"
   inkscape:pageshadow="2"
   inkscape:pageopacity="0.0"
   inkscape:pagecheckerboard="0"
   showgrid="false"
   inkscape:zoom="10.158767"
   inkscape:cx="67.429442"
   inkscape:cy="55.469329"
   inkscape:window-width="2400"
   inkscape:window-height="1321"
   inkscape:window-x="2391"
   inkscape:window-y="-9"
   inkscape:window-maximized="1"
   inkscape:current-layer="Layer_1"
   width="140px" />
<path
   d="m 8.9689278,38.064545 c 0.1074532,-5.444094 1.5719102,-10.461686 4.3660902,-15.02661 2.794184,-4.564926 6.532871,-8.150627 11.216076,-10.757119 4.683198,-2.6064958 9.740979,-3.8442493 15.173877,-3.73998 4.067974,0.078077 7.95958,0.953683 11.648569,2.599593 3.68898,1.645923 6.831127,3.868674 9.481526,6.589227 2.650383,2.720572 4.72824,5.964058 6.233516,9.730501 1.505282,3.766457 2.231811,7.651432 2.150702,11.761193 -0.08005,4.056382 -0.959844,7.937231 -2.61207,11.616383 -1.652228,3.679138 -3.883231,6.839945 -6.612206,9.457251 -2.728953,2.617311 -5.982672,4.69059 -9.733807,6.193714 -3.751142,1.503115 -7.647579,2.229223 -11.742318,2.150633 -4.09475,-0.07858 -8.013111,-0.954702 -11.702104,-2.600624 C 23.147797,64.392781 19.978899,62.169525 17.328492,59.44898 14.678095,56.728422 12.627016,53.485432 11.093929,49.77184 9.5608165,46.058249 8.8883444,42.147611 8.9689278,38.064545 Z m 6.6372382,0.127389 c -0.124823,6.324755 2.068302,11.866394 6.606138,16.625436 4.538883,4.705667 10.006778,7.106543 16.456667,7.230339 4.228557,0.08117 8.183265,-0.884109 11.811119,-2.923523 3.627859,-2.039421 6.574088,-4.81273 8.759473,-8.374861 2.185385,-3.562122 3.332804,-7.437836 3.416026,-11.654345 0.08321,-4.216497 -0.909899,-8.159988 -2.953068,-11.803286 -2.043174,-3.643285 -4.850466,-6.553732 -8.421875,-8.731327 -3.571407,-2.1776 -7.458259,-3.293376 -11.686821,-3.374535 -4.228561,-0.08117 -8.183264,0.884109 -11.811129,2.923525 -3.627844,2.039417 -6.574608,4.839422 -8.786749,8.401037 -2.212141,3.561616 -3.306564,7.465036 -3.389781,11.68154 z M 28.385172,54.054856 39.111795,19.261188 c 0.03203,-0.266345 0.16848,-0.397213 0.40937,-0.392565 0.240863,0.0047 0.37205,0.140626 0.39356,0.407978 l 9.318856,35.178405 c 0.101276,0.295615 0.07029,0.508591 -0.06668,0.666141 -0.137008,0.15752 -0.351081,0.153436 -0.642313,-0.01234 l -9.218306,-3.647519 c -0.265526,-0.111893 -0.533157,-0.117029 -0.776131,-0.0149 l -9.435534,3.289501 c -0.270783,0.154972 -0.458123,0.151374 -0.562019,-0.01079 -0.103875,-0.162185 -0.206206,-0.404405 -0.147419,-0.670247 z"
   id="path2"
   style="fill:#2c4f54;fill-opacity:0.5;stroke:#2e3332;stroke-width:0.164796;stroke-miterlimit:4;stroke-dasharray:none;stroke-opacity:0.9" />
<path
   style="fill:#2c4f53;fill-opacity:0.499285;stroke:#e4e7e7;stroke-width:0.164686;stroke-miterlimit:4;stroke-dasharray:none;stroke-opacity:0.9"
   d="M 36.039632,60.940265 C 34.916874,60.797049 33.685015,60.553752 32.626413,60.266154 26.673905,58.648936 21.198227,53.889551 18.483635,47.973441 17.022425,44.788903 16.470117,41.994419 16.56908,38.28641 c 0.10144,-3.805965 0.836052,-6.685279 2.519561,-9.87734 1.134709,-2.15146 2.400398,-3.852566 4.196252,-5.639811 3.563985,-3.546883 7.691614,-5.678537 12.569714,-6.491469 1.015874,-0.169294 1.436468,-0.188024 3.642683,-0.162212 2.677926,0.03141 3.431491,0.117809 5.364094,0.615204 2.918819,0.751278 6.13098,2.409604 8.583563,4.43141 1.000405,0.824687 2.842895,2.792039 3.624422,3.870036 1.891424,2.608953 3.221604,5.516368 3.839792,8.392791 0.455876,2.121144 0.518653,2.873495 0.452215,5.418814 -0.04692,1.795538 -0.102923,2.555279 -0.246098,3.333431 -0.86936,4.725839 -3.20192,9.072027 -6.665463,12.419477 -3.547198,3.428327 -8.025969,5.631659 -12.779413,6.286849 -1.095765,0.151039 -4.613376,0.186445 -5.63077,0.05669 z m -2.284402,-8.33571 c 2.532501,-0.906888 4.697561,-1.670667 4.811246,-1.697281 0.140297,-0.03287 1.721335,0.546096 4.923204,1.802816 2.715045,1.065629 4.784219,1.830629 4.876076,1.802735 0.190364,-0.05785 0.299044,-0.395207 0.235902,-0.73231 -0.02507,-0.133836 -2.009683,-7.877546 -4.41023,-17.208257 -4.206588,-16.350632 -4.373015,-16.968112 -4.596124,-17.052691 -0.172431,-0.06534 -0.264658,-0.05518 -0.361491,0.04024 -0.160236,0.157708 -10.636353,33.694299 -10.646418,34.081657 -0.0091,0.349986 0.219924,0.709122 0.416711,0.653438 0.0806,-0.02291 2.218628,-0.783465 4.751128,-1.690353 z"
   id="path861" /><rect
   style="fill:#c7485e;fill-opacity:1;stroke:#3c4343;stroke-width:0.750105;stroke-opacity:0.9"
   id="rect2803"
   width="9.1037025"
   height="0.087323442"
   x="32.972836"
   y="36.307899"
   transform="matrix(0.99988887,-0.01490798,0.03890698,0.99924284,0,0)"
   inkscape:transform-center-x="4.7304797"
   inkscape:transform-center-y="4.4237803" /><path
   style="fill:#a06f78;fill-opacity:1;stroke:#e27364;stroke-width:0.0660477;stroke-opacity:0.9"
   d="m 34.983148,34.980714 c 0.0479,-0.156629 1.037473,-3.542167 2.19904,-7.523477 1.161566,-3.981305 2.161862,-7.331907 2.222874,-7.445768 0.09602,-0.179183 4.091793,14.430564 4.084635,14.934593 -0.002,0.137681 -1.147928,0.205252 -4.29815,0.253541 -4.016796,0.06157 -4.289846,0.04731 -4.208399,-0.21885 z"
   id="path3397"
   inkscape:transform-center-x="4.4843966"
   inkscape:transform-center-y="-2.6567462" /><g
   aria-label="c"
   transform="scale(1.0203924,0.98001514)"
   id="text9344"
   style="font-size:8.67097px;line-height:1.25;font-family:'Segoe Script';-inkscape-font-specification:'Segoe Script';fill:#e0e0e0;stroke-width:0.216774"><path
     d="m 41.563578,4.1514252 q 0,0.1524194 -0.110081,0.2752017 -0.114314,0.1270162 -0.198992,0.2159275 -0.08468,0.084677 -0.160887,0.1566532 -0.07621,0.071976 -0.160887,0.1397178 -0.08468,0.063508 -0.198992,0.1481855 -0.321774,0.232863 -0.613911,0.3937501 -0.292138,0.1566533 -0.567339,0.2582662 -0.275202,0.097379 -0.54617,0.1397178 -0.266734,0.042339 -0.537701,0.042339 -0.28367,0 -0.508065,-0.1058468 -0.224395,-0.1100806 -0.381049,-0.296371 -0.152419,-0.1862904 -0.232863,-0.431855 -0.08044,-0.2497984 -0.08044,-0.5250001 v -0.021169 q 0,-0.2794355 0.07198,-0.5927421 0.07198,-0.3175404 0.198992,-0.6350808 0.13125,-0.3175404 0.313306,-0.6223792 0.182057,-0.3090726 0.402218,-0.5758065 0.08891,-0.1058469 0.211694,-0.2243953 0.127016,-0.1227823 0.266734,-0.2243952 0.143951,-0.1016129 0.296371,-0.165121 0.156653,-0.067742 0.304838,-0.067742 0.101613,0 0.194759,0.063508 0.09314,0.059274 0.173588,0.1566533 0.08044,0.097379 0.148186,0.2201613 0.06774,0.1185485 0.114314,0.2455646 0.04657,0.1227823 0.07198,0.2370969 0.0254,0.1143145 0.0254,0.1947581 0,0.1227823 -0.07621,0.3175404 -0.07621,0.1947581 -0.182057,0.1947581 -0.152419,0 -0.254032,-0.2074597 -0.0381,-0.080444 -0.06774,-0.1862904 -0.0254,-0.1058468 -0.06351,-0.2074597 -0.03387,-0.101613 -0.09314,-0.1862904 -0.05928,-0.088911 -0.165121,-0.13125 -0.105847,0.025403 -0.215928,0.1100806 -0.105847,0.084678 -0.211693,0.2074598 -0.101613,0.1227822 -0.203226,0.2794355 -0.09738,0.1524194 -0.186291,0.3175404 -0.08468,0.1524194 -0.165121,0.3514114 -0.08044,0.1947581 -0.143951,0.4064517 -0.06351,0.2074597 -0.101613,0.4149195 -0.03811,0.2074597 -0.03811,0.3810485 0,0.1227823 0.05927,0.2497984 0.05927,0.1227823 0.15242,0.2243952 0.09738,0.101613 0.215927,0.165121 0.122782,0.063508 0.249798,0.063508 0.626614,0 1.244759,-0.2582662 0.618145,-0.2582662 1.177016,-0.7493953 0.309073,-0.2709678 0.512299,-0.2709678 0.05927,0 0.05927,0.1143145 z"
     id="path2193" /></g><g
   aria-label="ю"
   transform="scale(0.8870879,1.127284)"
   id="text11307"
   style="font-size:6.94821px;line-height:1.25;font-family:'Segoe Script';-inkscape-font-specification:'Segoe Script';fill:#e0e0e0;stroke-width:0.173704"><path
     d="m 41.687383,65.968749 q 0,-0.01357 -0.01696,-0.02375 -0.01357,-0.01357 -0.03393,-0.03393 -0.02036,-0.02036 -0.03732,-0.05428 -0.01357,-0.03393 -0.01357,-0.09499 0,-0.05428 0.03053,-0.09839 0.03053,-0.04411 0.06446,-0.08142 0.03732,-0.03732 0.06785,-0.06785 0.03393,-0.03053 0.04071,-0.05767 0.05768,-0.325698 0.09839,-0.614076 0.04071,-0.288377 0.05089,-0.48176 0.0034,-0.05768 0,-0.118744 0,-0.06107 -0.0034,-0.122137 -0.0034,-0.0441 -0.0068,-0.08482 0,-0.04071 0,-0.07803 0,-0.04071 0.03053,-0.0916 0.03053,-0.05089 0.07464,-0.095 0.0475,-0.0441 0.10178,-0.07125 0.05768,-0.03053 0.111959,-0.03053 0.0475,0 0.09499,0.02714 0.0475,0.02375 0.08482,0.07125 0.03732,0.04411 0.06107,0.111958 0.02375,0.06446 0.02375,0.145885 0,0.06107 -0.01018,0.149278 -0.01018,0.08821 -0.02714,0.193383 -0.01696,0.105173 -0.04071,0.220524 -0.02036,0.115352 -0.04071,0.230703 -0.02714,0.159456 -0.05428,0.305341 -0.02375,0.145885 -0.03732,0.251058 0.01357,0.03053 0.02375,0.05428 0.01357,0.02036 0.03393,0.03393 0.02036,0.01357 0.05089,0.02036 0.03393,0.0068 0.08821,0.0068 0.145885,0 0.308734,-0.03053 0.162848,-0.03053 0.308734,-0.07803 0.145885,-0.0475 0.261236,-0.09839 0.118744,-0.05428 0.17642,-0.101781 0.03732,-0.03053 0.08142,-0.08142 0.0475,-0.05089 0.09499,-0.108566 0.0475,-0.06107 0.0916,-0.118743 0.0475,-0.06107 0.08143,-0.105174 0.115351,-0.145885 0.261236,-0.284985 0.145885,-0.1391 0.322305,-0.244273 0.176419,-0.105173 0.37998,-0.169634 0.206953,-0.06446 0.447834,-0.06446 0.183204,0 0.359624,0.0916 0.176419,0.08821 0.312126,0.24088 0.1391,0.152671 0.220525,0.352839 0.08482,0.196775 0.08482,0.413907 0,0.217131 -0.04411,0.396943 -0.04071,0.17642 -0.132315,0.376588 -0.05089,0.105173 -0.176419,0.251058 -0.125529,0.145886 -0.301949,0.301949 -0.173026,0.156063 -0.37998,0.308734 -0.206953,0.15267 -0.420692,0.274807 -0.213739,0.122136 -0.420693,0.196775 -0.20356,0.07464 -0.369802,0.07464 -0.223917,0 -0.383373,-0.07464 -0.159456,-0.07803 -0.261236,-0.200168 -0.101781,-0.125529 -0.149278,-0.284985 -0.0475,-0.159456 -0.0475,-0.322305 0,-0.132314 0.03732,-0.318911 0.04071,-0.189991 0.135707,-0.383373 -0.128922,0.08142 -0.288378,0.128921 -0.156063,0.0475 -0.288378,0.08482 -0.05767,0.01696 -0.128921,0.03054 -0.07125,0.01018 -0.142493,0.02036 -0.06785,0.01018 -0.132315,0.02036 -0.06107,0.01018 -0.105173,0.01696 -0.06785,0.01357 -0.09499,0.05428 -0.02375,0.03732 -0.03732,0.09839 -0.01357,0.05767 -0.04071,0.15267 -0.02714,0.09499 -0.05428,0.196776 -0.03053,0.108566 -0.06446,0.223917 -0.03393,0.115351 -0.06107,0.220524 -0.02375,0.10178 -0.04411,0.18999 -0.01696,0.08482 -0.01696,0.132315 0,0.04411 -0.03732,0.09499 -0.03393,0.05089 -0.08142,0.09499 -0.0441,0.0475 -0.0916,0.07803 -0.0441,0.03054 -0.06785,0.03054 -0.05089,0 -0.09839,-0.03393 -0.0441,-0.03393 -0.07803,-0.07803 -0.03393,-0.04411 -0.05428,-0.08821 -0.02036,-0.0475 -0.02036,-0.07125 0,-0.03053 0.02375,-0.108566 0.02714,-0.07803 0.05428,-0.159456 0.01696,-0.05089 0.04411,-0.1391 0.02714,-0.08821 0.05428,-0.193382 0.03053,-0.108566 0.05768,-0.223917 0.03053,-0.115351 0.05428,-0.217132 0.02375,-0.10178 0.03732,-0.176419 0.01357,-0.07803 0.01357,-0.111959 z m 4.08818,-0.766745 q 0,-0.339268 -0.196775,-0.529259 -0.193383,-0.193382 -0.5564,-0.193382 -0.05089,0 -0.125529,0.04071 -0.07464,0.04071 -0.162849,0.105173 -0.08482,0.06107 -0.173026,0.135707 -0.08482,0.07464 -0.162849,0.145885 -0.07464,0.07125 -0.128922,0.128922 -0.05428,0.05768 -0.07464,0.08142 -0.07125,0.08482 -0.149278,0.234095 -0.07464,0.145885 -0.1391,0.315519 -0.06446,0.169634 -0.108565,0.342661 -0.04071,0.169634 -0.04071,0.298555 0,0.07803 0.02036,0.159456 0.02375,0.08142 0.06785,0.149278 0.0475,0.06446 0.118744,0.108566 0.07125,0.04071 0.166241,0.04071 0.105173,0 0.268022,-0.06107 0.162849,-0.06107 0.342661,-0.169634 0.183204,-0.108566 0.366409,-0.257844 0.186598,-0.149278 0.332483,-0.322304 0.149278,-0.173027 0.24088,-0.363017 0.09499,-0.193383 0.09499,-0.390158 z"
     id="path2151" /></g><g
   aria-label="з"
   transform="scale(1.3752703,0.7271298)"
   id="text16794"
   style="font-size:8.00239px;line-height:1.25;font-family:'Segoe Script';-inkscape-font-specification:'Segoe Script';fill:#e0e0e0;stroke-width:0.20006"><path
     d="m 1.355316,50.455889 q 0.039074,0 0.062519,0.02735 0.027352,0.02735 0.042982,0.06643 0.01563,0.04298 0.019537,0.09378 0.00781,0.0508 0.00781,0.09768 0,0.08987 0.031259,0.195371 0.035167,0.1055 0.1094076,0.195371 0.078148,0.08987 0.1992783,0.148482 0.1211299,0.06252 0.2969637,0.06252 0.2383524,0 0.4923345,-0.125037 0.2539821,-0.125037 0.4649826,-0.34776 0.2110005,-0.222723 0.3438527,-0.531409 0.1367596,-0.304778 0.1367596,-0.668168 0,-0.336038 -0.070333,-0.570483 Q 3.4223396,48.86557 3.3090245,48.720996 3.1996168,48.572514 3.0550424,48.506088 2.910468,48.439661 2.7658936,48.439661 q -0.054704,0 -0.12113,0.02735 -0.066426,0.02344 -0.1367596,0.06252 -0.066426,0.03517 -0.1367596,0.07815 -0.066426,0.04298 -0.1211299,0.07815 -0.093778,0.06252 -0.1797412,0.1055 -0.082056,0.04298 -0.2188153,0.04298 -0.1055003,0 -0.1836486,-0.07815 -0.074241,-0.08206 -0.074241,-0.214908 0,-0.101593 0.070334,-0.171926 0.074241,-0.07033 0.2266302,-0.132852 0.3243156,-0.132852 0.5782977,-0.269612 0.2578895,-0.140667 0.4337233,-0.300871 0.1758337,-0.164112 0.2696117,-0.359482 0.093778,-0.195371 0.093778,-0.445446 0,-0.09769 -0.031259,-0.191463 -0.027352,-0.09769 -0.085963,-0.171927 -0.058611,-0.07815 -0.1445744,-0.125037 -0.082056,-0.0508 -0.1914634,-0.0508 -0.2344451,0 -0.4454456,0.144574 -0.2110005,0.144574 -0.4141862,0.355575 -0.089871,0.09378 -0.1484818,0.136759 -0.058611,0.03907 -0.1250374,0.03907 -0.054704,0 -0.097685,-0.02735 -0.039074,-0.03126 -0.066426,-0.07033 -0.023445,-0.04298 -0.039074,-0.08987 -0.011722,-0.0508 -0.011722,-0.08596 0,-0.09378 0.050796,-0.175833 0.054704,-0.08596 0.1445745,-0.160204 0.1953708,-0.164112 0.3829268,-0.269612 0.187556,-0.1055 0.308686,-0.156297 0.1367596,-0.0547 0.281334,-0.1055 0.1484818,-0.0508 0.2774266,-0.0508 0.1836486,0 0.3516675,0.06643 0.1680189,0.06252 0.2930563,0.187556 0.1289447,0.12113 0.2031857,0.300871 0.078148,0.179741 0.078148,0.406371 0,0.328223 -0.1602041,0.652539 -0.1562967,0.324315 -0.5353161,0.629094 0.2617969,0.01172 0.4571678,0.132852 0.1953708,0.12113 0.3243156,0.320408 0.1328522,0.199278 0.1953708,0.461075 0.066426,0.25789 0.066426,0.547039 0,0.289149 -0.078148,0.57439 -0.078148,0.285241 -0.2227228,0.547038 -0.140667,0.261797 -0.3399453,0.48452 -0.1953708,0.222723 -0.4337232,0.386834 -0.2344451,0.164112 -0.5040568,0.25789 -0.2657044,0.09378 -0.5470384,0.09378 -0.2696118,0 -0.46889,-0.08987 -0.1992783,-0.08596 -0.3321305,-0.218815 -0.1289447,-0.132852 -0.1953708,-0.285241 -0.0664261,-0.15239 -0.0664261,-0.281334 0,-0.09769 0.0351667,-0.211001 0.039074,-0.113315 0.085963,-0.179741 0.031259,-0.04298 0.089871,-0.08987 0.058611,-0.04298 0.1484818,-0.04298 z"
     id="path2172" /></g><g
   aria-label="в"
   transform="scale(1.3905348,0.71914777)"
   id="text19318"
   style="font-size:8.33323px;line-height:1.25;font-family:'Segoe Script';-inkscape-font-specification:'Segoe Script';fill:#e0e0e0;stroke-width:0.208332"><path
     d="m 54.189976,46.582654 q 0,-0.04883 -0.02034,-0.09765 -0.01628,-0.0529 -0.0529,-0.09359 -0.03255,-0.04476 -0.08952,-0.07324 -0.0529,-0.02848 -0.126138,-0.02848 -0.142414,0 -0.297034,0.101724 -0.150552,0.101724 -0.305172,0.280758 -0.150552,0.174966 -0.292965,0.419103 -0.142414,0.240069 -0.264483,0.520827 -0.122069,0.280758 -0.219724,0.589999 -0.09359,0.305172 -0.150551,0.614413 0.03662,-0.02441 0.109862,-0.07731 0.07324,-0.05697 0.162758,-0.126138 0.09359,-0.07324 0.19531,-0.15462 0.105793,-0.08545 0.199379,-0.166828 0.09765,-0.08138 0.179035,-0.15462 0.08138,-0.07324 0.130206,-0.126138 0.451655,-0.488275 0.646965,-0.846343 0.19531,-0.358069 0.19531,-0.581862 z m -0.126138,4.386339 q -0.126138,0.187172 -0.305172,0.366207 -0.174965,0.174965 -0.386551,0.30924 -0.211586,0.134276 -0.451655,0.211586 -0.235999,0.07731 -0.480137,0.05697 -0.170896,-0.01221 -0.325517,-0.109862 -0.15462,-0.101724 -0.27262,-0.284827 -0.118,-0.187172 -0.187172,-0.455724 -0.06917,-0.268551 -0.06917,-0.618482 0,-0.223792 0.02441,-0.484206 0.02441,-0.264482 0.0651,-0.533034 0.04069,-0.268551 0.08952,-0.524896 0.0529,-0.256344 0.101724,-0.471999 0.0651,-0.292965 0.170896,-0.577792 0.105793,-0.288896 0.236,-0.553379 0.130207,-0.268551 0.280758,-0.504551 0.150552,-0.235999 0.309241,-0.427241 0.219724,-0.256344 0.500482,-0.410965 0.284827,-0.15462 0.66731,-0.15462 0.158689,0 0.288896,0.0651 0.130206,0.0651 0.223793,0.170897 0.09359,0.101724 0.142413,0.23193 0.0529,0.130207 0.0529,0.256345 0,0.174965 -0.07324,0.39062 -0.06917,0.211586 -0.203448,0.443517 -0.134275,0.23193 -0.325516,0.46793 -0.191242,0.236 -0.435379,0.455724 0.05696,0.0041 0.130207,0.02034 0.07731,0.01221 0.158689,0.04883 0.08545,0.03662 0.170896,0.09766 0.08952,0.06103 0.170897,0.15462 0.03662,0.04476 0.08138,0.122069 0.04476,0.07324 0.08138,0.183103 0.04069,0.105793 0.0651,0.244138 0.02848,0.138345 0.02848,0.305172 0,0.325517 -0.118,0.70393 -0.113931,0.374344 -0.406896,0.805654 z m -0.113931,-1.497377 q 0,-0.223793 -0.0651,-0.374344 -0.0651,-0.154621 -0.15462,-0.244138 -0.08952,-0.09359 -0.183104,-0.130207 -0.09359,-0.04069 -0.150551,-0.04069 -0.0529,0 -0.166828,0.08138 -0.11393,0.08138 -0.244137,0.179034 -0.09765,0.08545 -0.19531,0.15869 -0.09765,0.07324 -0.183103,0.142413 -0.08138,0.06917 -0.150552,0.138345 -0.06917,0.06917 -0.113931,0.146482 -0.113931,0.207517 -0.134275,0.472 -0.02034,0.264482 -0.02034,0.541171 0,0.183104 0.03662,0.329586 0.04069,0.142414 0.09765,0.244138 0.06104,0.101724 0.130207,0.158689 0.06917,0.0529 0.126138,0.0529 0.138345,0 0.31331,-0.05697 0.174965,-0.05697 0.358068,-0.223793 0.15869,-0.146482 0.284827,-0.329585 0.130207,-0.183104 0.219724,-0.386552 0.09359,-0.203448 0.142414,-0.423171 0.0529,-0.219724 0.0529,-0.435379 z"
     id="path2130" /></g><text
   xml:space="preserve"
   style="font-size:14.566px;line-height:1.25;font-family:'Segoe Script';-inkscape-font-specification:'Segoe Script';fill:#16272a;fill-opacity:0.799714;stroke-width:0.364151"
   x="7.4870486"
   y="46.658768"
   id="text17884"
   transform="scale(1.3109288,0.76281792)"><tspan
     sodipodi:role="line"
     id="tspan17882"
     x="7.4870486"
     y="46.658768"
     style="stroke-width:0.364151">_</tspan></text><text
   xml:space="preserve"
   style="font-size:14.8368px;line-height:1.25;font-family:'Segoe Script';-inkscape-font-specification:'Segoe Script';fill:#16272a;fill-opacity:0.799714;stroke-width:0.37092"
   x="45.063492"
   y="47.151634"
   id="text17884-6"
   transform="scale(1.3352991,0.74889589)"><tspan
     sodipodi:role="line"
     id="tspan17882-2"
     x="45.063492"
     y="47.151634"
     style="stroke-width:0.37092">_</tspan></text><text
   xml:space="preserve"
   style="font-size:13.0339px;line-height:1.25;font-family:'Segoe Script';-inkscape-font-specification:'Segoe Script';fill:#16272a;fill-opacity:0.799714;stroke-width:0.325846"
   x="-51.949707"
   y="50.030014"
   id="text17884-0"
   transform="matrix(-0.01833809,-1.3644211,0.732182,-0.05428141,0,0)"><tspan
     sodipodi:role="line"
     id="tspan17882-4"
     x="-51.949707"
     y="50.030014"
     style="stroke-width:0.325846">_</tspan></text><text
   xml:space="preserve"
   style="font-size:14.7091px;line-height:1.25;font-family:'Segoe Script';-inkscape-font-specification:'Segoe Script';fill:#16272a;fill-opacity:0.799714;stroke-width:0.367727"
   x="-12.970278"
   y="51.701187"
   id="text17884-9"
   transform="matrix(5.1260485e-4,-1.3336174,0.7498397,0.00144815,0,0)"><tspan
     sodipodi:role="line"
     id="tspan17882-7"
     x="-12.970278"
     y="51.701187"
     style="stroke-width:0.367727">_</tspan></text></svg>
