<?xml version="1.0" encoding="UTF-8" standalone="no"?>
<!-- Generator: Adobe Illustrator 22.0.1, SVG Export Plug-In . SVG Version: 6.00 Build 0)  -->

<svg
   version="1.1"
   id="Layer_1"
   x="0px"
   y="0px"
   viewBox="0 0 77 77"
   xml:space="preserve"
   sodipodi:docname="northwestWind.svg"
   width="77"
   height="77"
   inkscape:version="1.1.1 (3bf5ae0d25, 2021-09-20)"
   xmlns:inkscape="http://www.inkscape.org/namespaces/inkscape"
   xmlns:sodipodi="http://sodipodi.sourceforge.net/DTD/sodipodi-0.dtd"
   xmlns="http://www.w3.org/2000/svg"
   xmlns:svg="http://www.w3.org/2000/svg"><defs
   id="defs7" /><sodipodi:namedview
   id="namedview5"
   pagecolor="#ffffff"
   bordercolor="#666666"
   borderopacity="1.0"
   inkscape:pageshadow="2"
   inkscape:pageopacity="0.0"
   inkscape:pagecheckerboard="0"
   showgrid="false"
   inkscape:zoom="7.183333"
   inkscape:cx="81.57773"
   inkscape:cy="55.197218"
   inkscape:window-width="2400"
   inkscape:window-height="1321"
   inkscape:window-x="2391"
   inkscape:window-y="-9"
   inkscape:window-maximized="1"
   inkscape:current-layer="Layer_1"
   width="140px" />
<path
   d="M 19.811286,59.855511 C 15.745208,56.172521 12.885664,51.751707 11.234821,46.630837 9.5839867,41.50996 9.291342,36.327018 10.356893,31.082003 c 1.065546,-5.245014 3.414558,-9.865949 7.027089,-13.880883 2.704941,-3.006247 5.901079,-5.352215 9.550656,-7.036191 3.649581,-1.6839538 7.381757,-2.5751857 11.172299,-2.7673863 3.790558,-0.1921743 7.606032,0.3920381 11.446427,1.7526401 3.840409,1.3606292 7.264387,3.3850712 10.333897,6.1653512 3.02964,2.744165 5.405805,5.973352 7.126382,9.649728 1.720571,3.676358 2.670945,7.444821 2.884561,11.227999 0.213613,3.783157 -0.327352,7.600815 -1.624967,11.415126 -1.297637,3.814313 -3.280068,7.223715 -6.002809,10.249742 -2.722736,3.026045 -5.936669,5.391784 -9.586257,7.07575 -3.649586,1.683955 -7.399542,2.594964 -11.190098,2.787178 -3.790551,0.192197 -7.588231,-0.411783 -11.40656,-1.716536 -3.818341,-1.304741 -7.22666,-3.386798 -10.276227,-6.14901 z m 4.413341,-4.904945 c 4.723841,4.278737 10.360228,6.296899 16.926957,6.034718 6.526854,-0.298295 11.906916,-2.81994 16.195682,-7.586422 2.811722,-3.124923 4.650354,-6.736375 5.460376,-10.812865 0.810011,-4.076495 0.619175,-8.126198 -0.665757,-12.125916 -1.284927,-3.999715 -3.483141,-7.42668 -6.632368,-10.279185 -3.149231,-2.852475 -6.79104,-4.715248 -10.887696,-5.590059 -4.096655,-0.874798 -8.133508,-0.690304 -12.110547,0.553475 -3.977039,1.243788 -7.352552,3.427265 -10.164274,6.552193 -2.811725,3.124917 -4.650347,6.736376 -5.460372,10.812871 -0.810015,4.076482 -0.59925,8.144263 0.667898,12.163745 1.267141,4.019494 3.520873,7.424955 6.670101,10.277445 z M 44.58684,55.840583 25.129627,24.755395 c -0.18152,-0.200309 -0.192194,-0.389472 -0.032,-0.567474 0.1602,-0.177963 0.348803,-0.186621 0.565901,-0.02589 l 32.786187,16.271514 c 0.290452,0.119467 0.432105,0.283686 0.462711,0.49089 0.03056,0.207216 -0.111755,0.365437 -0.427314,0.474482 l -8.766256,4.515958 c -0.257694,0.125561 -0.435651,0.323343 -0.516077,0.573565 l -3.637359,9.26928 c -0.05837,0.306093 -0.182945,0.444534 -0.373514,0.415511 -0.190774,-0.02924 -0.441341,-0.112584 -0.605072,-0.33267 z"
   id="path2"
   style="fill:#2c4f54;fill-opacity:0.5;stroke:#2e3332;stroke-width:0.16491;stroke-miterlimit:4;stroke-dasharray:none;stroke-opacity:0.9" />
<path
   style="fill:#2c4f53;fill-opacity:0.499285;stroke:#e4e7e7;stroke-width:0.16491;stroke-miterlimit:4;stroke-dasharray:none;stroke-opacity:0.9"
   d="m 54.83852,54.537631 c -0.844599,0.757975 -1.836245,1.53306 -2.747614,2.147596 -5.124695,3.455536 -12.305857,4.487101 -18.547754,2.664368 -3.359897,-0.981156 -5.829385,-2.396015 -8.560421,-4.904591 -2.803257,-2.574751 -4.4924,-5.021816 -5.794818,-8.394177 -0.877824,-2.272994 -1.330142,-4.349818 -1.499572,-6.885476 -0.33626,-5.032164 0.764434,-9.563244 3.351828,-13.798339 0.538833,-0.881973 0.800652,-1.213418 2.267547,-2.870586 1.78057,-2.011466 2.340118,-2.526574 3.983096,-3.666644 2.481435,-1.721803 5.839264,-3.070927 8.972839,-3.605124 1.278176,-0.217902 3.970424,-0.324888 5.296006,-0.210434 3.208144,0.276949 6.273123,1.175658 8.847611,2.594314 1.898494,1.046127 2.506981,1.492242 4.382645,3.213092 1.323118,1.213985 1.859235,1.755081 2.352057,2.37441 2.993074,3.76115 4.739916,8.383449 4.991689,13.208505 0.257837,4.941617 -1.01916,9.78619 -3.643707,13.823176 -0.605011,0.930609 -2.886114,3.623058 -3.651422,4.309932 z m -7.784128,-3.737105 c 0.977671,-2.516876 1.822191,-4.661015 1.876706,-4.764746 0.06726,-0.128036 1.541092,-0.947792 4.589347,-2.552668 2.584782,-1.360879 4.519139,-2.428953 4.558372,-2.516961 0.08127,-0.182415 -0.101806,-0.486286 -0.397426,-0.659605 -0.11737,-0.0688 -7.25841,-3.644883 -15.869,-7.94685 -15.088723,-7.538527 -15.663512,-7.817482 -15.873657,-7.703688 -0.162388,0.08798 -0.215226,0.164628 -0.206834,0.300706 0.01392,0.225078 18.428411,30.183898 18.71389,30.445745 0.257909,0.236611 0.678983,0.298499 0.766098,0.112629 0.03561,-0.07619 0.864821,-2.197701 1.842492,-4.714578 z"
   id="path861" /><rect
   style="fill:#c7485e;fill-opacity:1;stroke:#3c4343;stroke-width:0.669797;stroke-opacity:0.9"
   id="rect2803"
   width="7.3248315"
   height="0.086536311"
   x="-7.802608"
   y="48.601311"
   transform="matrix(0.63969848,-0.76862595,0.78187106,0.62344017,0,0)"
   inkscape:transform-center-x="-0.85135026"
   inkscape:transform-center-y="5.7205945" /><path
   style="fill:#a06f78;fill-opacity:1;stroke:#e27364;stroke-width:0.0554873;stroke-opacity:0.9"
   d="m 32.22897,35.64663 c -0.07083,-0.118969 -1.627049,-2.662374 -3.458352,-5.65202 -1.831303,-2.989644 -3.359739,-5.519732 -3.396508,-5.622406 -0.05784,-0.161573 11.298935,5.707216 11.609321,5.999276 0.08482,0.07974 -0.516482,0.826325 -2.255077,2.8001 -2.216857,2.516727 -2.379067,2.677277 -2.499357,2.47507 z"
   id="path3397"
   inkscape:transform-center-x="3.0148014"
   inkscape:transform-center-y="2.4716382" /><text
   xml:space="preserve"
   style="font-size:8.68282px;line-height:1.25;font-family:'Segoe Script';-inkscape-font-specification:'Segoe Script';fill:#e0e0e0;fill-opacity:1;stroke-width:0.21707"
   x="36.679237"
   y="5.7437434"
   id="text9344"
   transform="scale(1.0202299,0.98017125)"><tspan
     sodipodi:role="line"
     id="tspan9342"
     x="36.679237"
     y="5.7437434"
     style="fill:#e0e0e0;fill-opacity:1;stroke-width:0.21707">c</tspan></text><text
   xml:space="preserve"
   style="font-size:6.95773px;line-height:1.25;font-family:'Segoe Script';-inkscape-font-specification:'Segoe Script';fill:#e0e0e0;fill-opacity:1;stroke-width:0.173942"
   x="40.724342"
   y="67.315529"
   id="text11307"
   transform="scale(0.88694667,1.1274635)"><tspan
     sodipodi:role="line"
     id="tspan11305"
     x="40.724342"
     y="67.315529"
     style="fill:#e0e0e0;fill-opacity:1;stroke-width:0.173942">ю</tspan></text><text
   xml:space="preserve"
   style="font-size:8.01339px;line-height:1.25;font-family:'Segoe Script';-inkscape-font-specification:'Segoe Script';fill:#e0e0e0;fill-opacity:1;stroke-width:0.200334"
   x="0.71131027"
   y="49.984684"
   id="text16794"
   transform="scale(1.3750512,0.72724563)"><tspan
     sodipodi:role="line"
     id="tspan16792"
     x="0.71131027"
     y="49.984684"
     style="fill:#e0e0e0;fill-opacity:1;stroke-width:0.200334">з</tspan></text><text
   xml:space="preserve"
   style="font-size:8.34467px;line-height:1.25;font-family:'Segoe Script';-inkscape-font-specification:'Segoe Script';fill:#e0e0e0;fill-opacity:1;stroke-width:0.208617"
   x="51.032368"
   y="51.652424"
   id="text19318"
   transform="scale(1.3903134,0.71926227)"><tspan
     sodipodi:role="line"
     id="tspan19316"
     x="51.032368"
     y="51.652424"
     style="fill:#e0e0e0;fill-opacity:1;stroke-width:0.208617">в</tspan></text><text
   xml:space="preserve"
   style="font-size:15.0058px;line-height:1.25;font-family:'Segoe Script';-inkscape-font-specification:'Segoe Script';fill:#16272a;fill-opacity:0.799714;stroke-width:0.375146"
   x="7.6030035"
   y="47.844715"
   id="text17884"
   transform="scale(1.3484498,0.74159228)"><tspan
     sodipodi:role="line"
     id="tspan17882"
     x="7.6030035"
     y="47.844715"
     style="stroke-width:0.375146">_</tspan></text><text
   xml:space="preserve"
   style="font-size:15.5989px;line-height:1.25;font-family:'Segoe Script';-inkscape-font-specification:'Segoe Script';fill:#16272a;fill-opacity:0.799714;stroke-width:0.389971"
   x="42.812603"
   y="49.341736"
   id="text17884-6"
   transform="scale(1.4017394,0.71339938)"><tspan
     sodipodi:role="line"
     id="tspan17882-2"
     x="42.812603"
     y="49.341736"
     style="stroke-width:0.389971">_</tspan></text><text
   xml:space="preserve"
   style="font-size:12.9408px;line-height:1.25;font-family:'Segoe Script';-inkscape-font-specification:'Segoe Script';fill:#16272a;fill-opacity:0.799714;stroke-width:0.323518"
   x="-51.706108"
   y="49.537773"
   id="text17884-0"
   transform="matrix(-0.01849235,-1.3530385,0.73834159,-0.05382858,0,0)"><tspan
     sodipodi:role="line"
     id="tspan17882-4"
     x="-51.706108"
     y="49.537773"
     style="stroke-width:0.323518">_</tspan></text><text
   xml:space="preserve"
   style="font-size:14.955px;line-height:1.25;font-family:'Segoe Script';-inkscape-font-specification:'Segoe Script';fill:#16272a;fill-opacity:0.799714;stroke-width:0.373872"
   x="-12.145467"
   y="52.432816"
   id="text17884-9"
   transform="matrix(5.0478898e-4,-1.3542664,0.7384066,0.00147057,0,0)"><tspan
     sodipodi:role="line"
     id="tspan17882-7"
     x="-12.145467"
     y="52.432816"
     style="stroke-width:0.373872">_</tspan></text></svg>
