<?xml version="1.0" encoding="UTF-8" standalone="no"?>
<!-- Generator: Adobe Illustrator 22.0.1, SVG Export Plug-In . SVG Version: 6.00 Build 0)  -->

<svg
   version="1.1"
   id="Layer_1"
   x="0px"
   y="0px"
   viewBox="0 0 77 77"
   xml:space="preserve"
   sodipodi:docname="northEastWind.svg"
   width="77"
   height="77"
   inkscape:version="1.1.1 (3bf5ae0d25, 2021-09-20)"
   xmlns:inkscape="http://www.inkscape.org/namespaces/inkscape"
   xmlns:sodipodi="http://sodipodi.sourceforge.net/DTD/sodipodi-0.dtd"
   xmlns="http://www.w3.org/2000/svg"
   xmlns:svg="http://www.w3.org/2000/svg"><defs
   id="defs7" /><sodipodi:namedview
   id="namedview5"
   pagecolor="#ffffff"
   bordercolor="#666666"
   borderopacity="1.0"
   inkscape:pageshadow="2"
   inkscape:pageopacity="0.0"
   inkscape:pagecheckerboard="0"
   showgrid="false"
   inkscape:zoom="2"
   inkscape:cx="-22"
   inkscape:cy="15.25"
   inkscape:window-width="2400"
   inkscape:window-height="1321"
   inkscape:window-x="2391"
   inkscape:window-y="-9"
   inkscape:window-maximized="1"
   inkscape:current-layer="Layer_1"
   width="140px" />
<path
   d="m 17.285577,18.694155 c 3.721679,-4.059982 8.164286,-6.892726 13.290089,-8.496544 5.125806,-1.6038165 10.296901,-1.8355993 15.513305,-0.6953525 5.216403,1.1402415 9.794904,3.5686385 13.753774,7.2652715 2.964268,2.767917 5.264225,6.023646 6.898618,9.729047 1.634371,3.705402 2.477374,7.484452 2.622702,11.313855 0.145317,3.829405 -0.483739,7.674434 -1.887221,11.535081 -1.403487,3.860663 -3.463727,7.292729 -6.273227,10.357631 -2.773006,3.025087 -6.021611,5.384455 -9.708062,7.076432 -3.686441,1.691966 -7.455305,2.60519 -11.229834,2.774374 -3.774517,0.1692 -7.574213,-0.423877 -11.361332,-1.780847 C 25.117271,66.416111 21.742215,64.372711 18.758443,61.586577 15.774655,58.80045 13.455205,55.526515 11.820821,51.821105 10.186446,48.115696 9.3239475,44.318451 9.1786035,40.489048 9.0332727,36.659643 9.6818467,32.832825 11.029351,28.993768 12.376835,25.154695 14.494327,21.73914 17.285577,18.694155 Z m 4.836451,4.516088 c -4.323704,4.716749 -6.404705,10.3826 -6.223503,17.015766 0.21769,6.593354 2.666124,12.056186 7.366055,16.4448 3.081279,2.877193 6.659541,4.777883 10.714014,5.645788 4.054478,0.867894 8.094469,0.724977 12.097985,-0.523189 4.00351,-1.248153 7.44713,-3.425428 10.329611,-6.569929 2.882459,-3.144498 4.784168,-6.798481 5.70641,-10.923829 0.922228,-4.125345 0.787587,-8.203323 -0.403924,-12.233928 -1.191512,-4.030609 -3.327274,-7.465437 -6.40856,-10.342623 -3.08128,-2.877187 -6.659539,-4.777884 -10.71402,-5.645787 C 40.531631,15.209423 36.47338,15.372242 32.45037,16.6022 28.427357,17.832157 25.0045,20.065744 22.122028,23.210243 Z M 20.985966,43.757547 52.21634,24.494931 c 0.20193,-0.180805 0.390662,-0.189263 0.566179,-0.02534 0.175467,0.163938 0.181807,0.354451 0.0189,0.571667 L 36.177871,57.943155 c -0.122661,0.291781 -0.288121,0.432778 -0.495084,0.461139 -0.206973,0.0283 -0.362982,-0.117323 -0.468043,-0.437047 l -4.39546,-8.906125 c -0.12204,-0.261715 -0.317058,-0.443816 -0.565557,-0.52809 l -9.197292,-3.786255 c -0.304465,-0.06269 -0.440975,-0.190167 -0.409526,-0.38242 0.03148,-0.192247 0.117635,-0.444206 0.33907,-0.606812 z"
   id="path2"
   style="fill:#2c4f54;fill-opacity:0.5;stroke:#2e3332;stroke-width:0.165468;stroke-miterlimit:4;stroke-dasharray:none;stroke-opacity:0.9" />
<path
   style="fill:#2c4f53;fill-opacity:0.499285;stroke:#e4e7e7;stroke-width:0.165468;stroke-miterlimit:4;stroke-dasharray:none;stroke-opacity:0.9"
   d="M 22.184356,54.029278 C 21.441169,53.165287 20.683102,52.152585 20.08391,51.223315 16.714692,45.99798 15.792605,38.732576 17.702308,32.457968 c 1.027968,-3.377507 2.47515,-5.849595 5.016634,-8.569443 2.608524,-2.791792 5.073249,-4.46067 8.454751,-5.725332 2.279159,-0.852374 4.356436,-1.278076 6.886972,-1.411355 5.021999,-0.264486 9.523139,0.914261 13.707168,3.589577 0.871335,0.55714 1.197902,0.826405 2.828363,2.33206 1.979019,1.827639 2.484297,2.40022 3.596601,4.07594 1.679864,2.530892 2.975189,5.941032 3.461366,9.11262 0.198311,1.29368 0.265093,4.013345 0.131359,5.349936 -0.323635,3.234785 -1.265048,6.315769 -2.717563,8.893814 -1.071105,1.901118 -1.524891,2.50879 -3.268341,4.376804 -1.229932,1.317716 -1.777338,1.850914 -2.402106,2.339231 -3.794168,2.965744 -8.428431,4.660469 -13.242699,4.842757 -4.930564,0.186679 -9.741643,-1.174747 -13.727605,-3.884616 -0.918847,-0.624684 -3.569419,-2.967777 -4.242877,-3.750674 z m 3.841159,-7.803099 c 2.494823,1.024554 4.62,1.909118 4.722612,1.965703 0.126655,0.06981 0.92211,1.569993 2.477007,4.671398 1.318494,2.629847 2.354701,4.598676 2.441864,4.639593 0.180665,0.08477 0.486331,-0.09553 0.663507,-0.391407 0.07034,-0.117459 3.741428,-7.27372 8.157994,-15.902791 7.739349,-15.121116 8.025975,-15.69726 7.915639,-15.911121 -0.08529,-0.165265 -0.160933,-0.219754 -0.29675,-0.213283 -0.224617,0.01055 -30.366043,18.155411 -30.631337,18.439726 -0.2397,0.256879 -0.307658,0.681049 -0.123637,0.771772 0.07544,0.03708 2.178285,0.905858 4.673107,1.930411 z"
   id="path861" /><rect
   style="fill:#c7485e;fill-opacity:1;stroke:#3c4343;stroke-width:0.710463;stroke-opacity:0.9"
   id="rect2803"
   width="7.7899132"
   height="0.091548376"
   x="51.528896"
   y="-3.2781167"
   transform="matrix(0.74007512,0.67252421,-0.67222411,0.74034772,0,0)"
   inkscape:transform-center-x="6.1717854"
   inkscape:transform-center-y="0.55941083" /><path
   style="fill:#a06f78;fill-opacity:1;stroke:#e27364;stroke-width:0.0556749;stroke-opacity:0.9"
   d="m 41.228823,31.582411 c 0.118906,-0.07103 2.660942,-1.632439 5.648999,-3.469836 2.988053,-1.837397 5.516707,-3.370771 5.619222,-3.407497 0.161328,-0.05779 -5.73443,11.386202 -6.026842,11.698459 -0.07985,0.08532 -0.821921,-0.524712 -2.783216,-2.287863 -2.500814,-2.248164 -2.660267,-2.41257 -2.458185,-2.533238 z"
   id="path3397"
   inkscape:transform-center-x="2.4437029"
   inkscape:transform-center-y="-3.0433043" /><text
   xml:space="preserve"
   style="font-size:8.71215px;line-height:1.25;font-family:'Segoe Script';-inkscape-font-specification:'Segoe Script';fill:#e0e0e0;fill-opacity:1;stroke-width:0.217804"
   x="36.970379"
   y="5.624485"
   id="text9344"
   transform="scale(1.0172175,0.98307392)"><tspan
     sodipodi:role="line"
     id="tspan9342"
     x="36.970379"
     y="5.624485"
     style="fill:#e0e0e0;fill-opacity:1;stroke-width:0.217804">c</tspan></text><text
   xml:space="preserve"
   style="font-size:6.98124px;line-height:1.25;font-family:'Segoe Script';-inkscape-font-specification:'Segoe Script';fill:#e0e0e0;fill-opacity:1;stroke-width:0.17453"
   x="41.054276"
   y="67.422577"
   id="text11307"
   transform="scale(0.88432786,1.1308023)"><tspan
     sodipodi:role="line"
     id="tspan11305"
     x="41.054276"
     y="67.422577"
     style="fill:#e0e0e0;fill-opacity:1;stroke-width:0.17453">ю</tspan></text><text
   xml:space="preserve"
   style="font-size:8.04048px;line-height:1.25;font-family:'Segoe Script';-inkscape-font-specification:'Segoe Script';fill:#e0e0e0;fill-opacity:1;stroke-width:0.20101"
   x="0.83771348"
   y="49.966789"
   id="text16794"
   transform="scale(1.3709912,0.72939926)"><tspan
     sodipodi:role="line"
     id="tspan16792"
     x="0.83771348"
     y="49.966789"
     style="fill:#e0e0e0;fill-opacity:1;stroke-width:0.20101">з</tspan></text><text
   xml:space="preserve"
   style="font-size:8.37289px;line-height:1.25;font-family:'Segoe Script';-inkscape-font-specification:'Segoe Script';fill:#e0e0e0;fill-opacity:1;stroke-width:0.209323"
   x="51.327557"
   y="51.638081"
   id="text19318"
   transform="scale(1.3862084,0.72139227)"><tspan
     sodipodi:role="line"
     id="tspan19316"
     x="51.327557"
     y="51.638081"
     style="fill:#e0e0e0;fill-opacity:1;stroke-width:0.209323">в</tspan></text><text
   xml:space="preserve"
   style="font-size:14.6354px;line-height:1.25;font-family:'Segoe Script';-inkscape-font-specification:'Segoe Script';fill:#16272a;fill-opacity:0.799714;stroke-width:0.365881"
   x="7.6196752"
   y="46.4851"
   id="text17884"
   transform="scale(1.30685,0.76519876)"><tspan
     sodipodi:role="line"
     id="tspan17882"
     x="7.6196752"
     y="46.4851"
     style="stroke-width:0.365881">_</tspan></text><text
   xml:space="preserve"
   style="font-size:14.9074px;line-height:1.25;font-family:'Segoe Script';-inkscape-font-specification:'Segoe Script';fill:#16272a;fill-opacity:0.799714;stroke-width:0.372684"
   x="45.184238"
   y="46.97295"
   id="text17884-6"
   transform="scale(1.3311443,0.75123333)"><tspan
     sodipodi:role="line"
     id="tspan17882-2"
     x="45.184238"
     y="46.97295"
     style="stroke-width:0.372684">_</tspan></text><text
   xml:space="preserve"
   style="font-size:13.0959px;line-height:1.25;font-family:'Segoe Script';-inkscape-font-specification:'Segoe Script';fill:#16272a;fill-opacity:0.799714;stroke-width:0.327395"
   x="-51.979744"
   y="50.372978"
   id="text17884-0"
   transform="matrix(-0.01828102,-1.3686796,0.7299039,-0.05445084,0,0)"><tspan
     sodipodi:role="line"
     id="tspan17882-4"
     x="-51.979744"
     y="50.372978"
     style="stroke-width:0.327395">_</tspan></text><text
   xml:space="preserve"
   style="font-size:14.779px;line-height:1.25;font-family:'Segoe Script';-inkscape-font-specification:'Segoe Script';fill:#16272a;fill-opacity:0.799714;stroke-width:0.369475"
   x="-12.286477"
   y="52.043808"
   id="text17884-9"
   transform="matrix(5.1100993e-4,-1.3377798,0.74750664,0.00145266,0,0)"><tspan
     sodipodi:role="line"
     id="tspan17882-7"
     x="-12.286477"
     y="52.043808"
     style="stroke-width:0.369475">_</tspan></text></svg>
