<?xml version="1.0" encoding="UTF-8" standalone="no"?>
<!-- Generator: Adobe Illustrator 22.0.1, SVG Export Plug-In . SVG Version: 6.00 Build 0)  -->

<svg
   version="1.1"
   id="Layer_1"
   x="0px"
   y="0px"
   viewBox="0 0 77 77"
   xml:space="preserve"
   sodipodi:docname="southwestWind.svg"
   width="77"
   height="77"
   inkscape:version="1.1.1 (3bf5ae0d25, 2021-09-20)"
   xmlns:inkscape="http://www.inkscape.org/namespaces/inkscape"
   xmlns:sodipodi="http://sodipodi.sourceforge.net/DTD/sodipodi-0.dtd"
   xmlns="http://www.w3.org/2000/svg"
   xmlns:svg="http://www.w3.org/2000/svg"><defs
   id="defs7" /><sodipodi:namedview
   id="namedview5"
   pagecolor="#ffffff"
   bordercolor="#666666"
   borderopacity="1.0"
   inkscape:pageshadow="2"
   inkscape:pageopacity="0.0"
   inkscape:pagecheckerboard="0"
   showgrid="false"
   inkscape:zoom="5.0793835"
   inkscape:cx="22.837417"
   inkscape:cy="17.029626"
   inkscape:window-width="2400"
   inkscape:window-height="1321"
   inkscape:window-x="2391"
   inkscape:window-y="-9"
   inkscape:window-maximized="1"
   inkscape:current-layer="Layer_1"
   width="140px" />
<path
   d="M 60.628819,59.877829 C 56.647174,63.694613 52.014985,66.245927 46.770252,67.532371 41.52551,68.81881 36.317542,68.736529 31.146331,67.285515 25.975122,65.834507 21.521883,63.139644 17.767068,59.219643 14.955589,56.284478 12.840622,52.903867 11.421137,49.115858 10.001674,45.327847 9.3815145,41.51442 9.4651384,37.693107 9.5487895,33.871782 10.4112,30.081787 12.052371,26.323119 c 1.6412,-3.758681 3.916373,-7.050896 6.922121,-9.932206 2.966702,-2.843884 6.3712,-4.996188 10.175481,-6.4575327 3.804264,-1.4613414 7.644625,-2.1423788 11.446067,-2.0823188 3.80143,0.060052 7.582447,0.8805368 11.305028,2.4607915 3.722581,1.58027 6.990109,3.818982 9.820085,6.773464 2.829993,2.954478 4.963448,6.354398 6.382925,10.142416 1.419466,3.788015 2.05812,7.620737 1.974508,11.442059 -0.08362,3.821322 -0.964528,7.592008 -2.548201,11.332568 -1.583661,3.740573 -3.915349,7.012881 -6.901566,9.875469 z m -4.587165,-4.78897 c 4.625721,-4.434206 7.05568,-9.949104 7.271387,-16.563998 0.176664,-6.577469 -1.955107,-12.164444 -6.41278,-16.818236 -2.922459,-3.05104 -6.402654,-5.159976 -10.423102,-6.2695 -4.020453,-1.10952 -8.086958,-1.211802 -12.183099,-0.211504 -4.096134,1.000288 -7.685597,2.959495 -10.769424,5.915634 -3.0838,2.956142 -5.213044,6.478892 -6.386732,10.530221 -1.173675,4.051332 -1.282944,8.119487 -0.327811,12.204457 0.955141,4.084969 2.89444,7.633956 5.81691,10.684989 2.922462,3.051037 6.402659,5.159971 10.423109,6.2695 4.02044,1.109518 8.106485,1.193093 12.221112,0.212098 4.114632,-0.980989 7.686615,-2.997522 10.77043,-5.953661 z m 2.37309,-20.387952 -32.524068,17.287086 c -0.213666,0.167788 -0.403744,0.164774 -0.570212,-0.009 -0.166435,-0.173821 -0.161362,-0.363896 0.01529,-0.570291 l 18.67013,-31.750509 c 0.1407,-0.283068 0.31535,-0.41343 0.524934,-0.429133 0.209588,-0.01566 0.357559,0.138779 0.443917,0.463454 l 3.880993,9.132959 c 0.106889,0.267951 0.291857,0.461054 0.536406,0.56 l 9.01113,4.326347 c 0.302061,0.08085 0.431535,0.216024 0.388421,0.405523 -0.04315,0.189496 -0.144793,0.435128 -0.376958,0.583611 z"
   id="path2"
   style="fill:#2c4f54;fill-opacity:0.5;stroke:#2e3332;stroke-width:0.165769;stroke-miterlimit:4;stroke-dasharray:none;stroke-opacity:0.9" />
<path
   style="fill:#2c4f53;fill-opacity:0.499285;stroke:#e4e7e7;stroke-width:0.166144;stroke-miterlimit:4;stroke-dasharray:none;stroke-opacity:0.9"
   d="m 57.758044,24.364847 c 0.694241,0.909049 1.39428,1.967517 1.939659,2.932767 3.066635,5.427646 3.545997,12.739681 1.238109,18.885782 -1.242297,3.308332 -2.850421,5.686459 -5.574528,8.243723 -2.795973,2.624906 -5.378047,4.137565 -8.857332,5.189428 -2.345061,0.708947 -4.460743,1.004459 -7.0143,0.979703 -5.067691,-0.04911 -9.522452,-1.506849 -13.56594,-4.439114 -0.842068,-0.610651 -1.153937,-0.899884 -2.701063,-2.504978 -1.877887,-1.948315 -2.350794,-2.551563 -3.366247,-4.294149 -1.533589,-2.631875 -2.626158,-6.117691 -2.919555,-9.314854 -0.119681,-1.304113 -0.01911,-4.023868 0.197855,-5.350117 0.525046,-3.209756 1.66199,-6.227413 3.282015,-8.710999 1.194624,-1.831463 1.688544,-2.409927 3.557413,-4.166402 1.3184,-1.239033 1.901898,-1.737289 2.560436,-2.18591 3.999282,-2.724656 8.765179,-4.127802 13.618848,-4.009558 4.970915,0.121117 9.726162,1.780574 13.568295,4.734991 0.885694,0.681055 3.407249,3.185951 4.036358,4.00968 z m -4.344914,7.551841 c -2.446221,-1.17862 -4.529269,-2.194409 -4.62899,-2.257307 -0.123091,-0.0776 -0.830668,-1.625154 -2.203369,-4.818895 -1.164001,-2.708141 -2.084834,-4.738646 -2.169982,-4.784939 -0.176494,-0.09591 -0.495068,0.06505 -0.691529,0.349437 -0.07799,0.112909 -4.211946,7.02947 -9.186572,15.37016 -8.717266,14.61576 -9.041106,15.173172 -8.943313,15.393588 0.07561,0.17033 0.148333,0.229454 0.285318,0.231486 0.22658,0.0035 31.663448,-16.234295 31.947832,-16.501637 0.256945,-0.241539 0.351463,-0.660836 0.171961,-0.762902 -0.0736,-0.04174 -2.13515,-1.040363 -4.581372,-2.218981 z"
   id="path861" /><rect
   style="fill:#c7485e;fill-opacity:1;stroke:#3c4343;stroke-width:0.713373;stroke-opacity:0.9"
   id="rect2803"
   width="7.8256044"
   height="0.091879539"
   x="-58.879818"
   y="-3.3796957"
   transform="matrix(-0.69596165,-0.71807895,0.72285296,-0.69100188,0,0)"
   inkscape:transform-center-x="-6.2432165"
   inkscape:transform-center-y="-0.14075722" /><path
   style="fill:#a06f78;fill-opacity:1;stroke:#e27364;stroke-width:0.0580108;stroke-opacity:0.9"
   d="m 37.810126,44.994131 c -0.127023,0.06688 -2.84536,1.5412 -6.040766,3.276351 -3.195405,1.735152 -5.8982,3.180959 -6.0062,3.212887 -0.169951,0.05022 6.620207,-11.574623 6.941133,-11.883356 0.08762,-0.08437 0.815022,0.603246 2.728134,2.578803 2.439375,2.519002 2.593604,2.70171 2.377719,2.815287 z"
   id="path3397"
   inkscape:transform-center-x="-2.1840989"
   inkscape:transform-center-y="3.1795582" /><text
   xml:space="preserve"
   style="font-size:8.72807px;line-height:1.25;font-family:'Segoe Script';-inkscape-font-specification:'Segoe Script';fill:#e0e0e0;fill-opacity:1;stroke-width:0.218201"
   x="36.762745"
   y="5.3320985"
   id="text9344"
   transform="scale(1.0217289,0.9787332)"><tspan
     sodipodi:role="line"
     id="tspan9342"
     x="36.762745"
     y="5.3320985"
     style="fill:#e0e0e0;fill-opacity:1;stroke-width:0.218201">c</tspan></text><text
   xml:space="preserve"
   style="font-size:6.994px;line-height:1.25;font-family:'Segoe Script';-inkscape-font-specification:'Segoe Script';fill:#e0e0e0;fill-opacity:1;stroke-width:0.174847"
   x="40.812767"
   y="67.282234"
   id="text11307"
   transform="scale(0.88824991,1.1258093)"><tspan
     sodipodi:role="line"
     id="tspan11305"
     x="40.812767"
     y="67.282234"
     style="fill:#e0e0e0;fill-opacity:1;stroke-width:0.174847">ю</tspan></text><text
   xml:space="preserve"
   style="font-size:8.05512px;line-height:1.25;font-family:'Segoe Script';-inkscape-font-specification:'Segoe Script';fill:#e0e0e0;fill-opacity:1;stroke-width:0.201377"
   x="0.63524288"
   y="49.649883"
   id="text16794"
   transform="scale(1.3770716,0.72617863)"><tspan
     sodipodi:role="line"
     id="tspan16792"
     x="0.63524288"
     y="49.649883"
     style="fill:#e0e0e0;fill-opacity:1;stroke-width:0.201377">з</tspan></text><text
   xml:space="preserve"
   style="font-size:8.38809px;line-height:1.25;font-family:'Segoe Script';-inkscape-font-specification:'Segoe Script';fill:#e0e0e0;fill-opacity:1;stroke-width:0.209704"
   x="51.21925"
   y="51.319691"
   id="text19318"
   transform="scale(1.3923562,0.718207)"><tspan
     sodipodi:role="line"
     id="tspan19316"
     x="51.21925"
     y="51.319691"
     style="fill:#e0e0e0;fill-opacity:1;stroke-width:0.209704">в</tspan></text><text
   xml:space="preserve"
   style="font-size:14.6071px;line-height:1.25;font-family:'Segoe Script';-inkscape-font-specification:'Segoe Script';fill:#16272a;fill-opacity:0.799714;stroke-width:0.365177"
   x="7.7061586"
   y="46.008083"
   id="text17884"
   transform="scale(1.3077329,0.76468216)"><tspan
     sodipodi:role="line"
     id="tspan17882"
     x="7.7061586"
     y="46.008083"
     style="stroke-width:0.365177">_</tspan></text><text
   xml:space="preserve"
   style="font-size:15.5148px;line-height:1.25;font-family:'Segoe Script';-inkscape-font-specification:'Segoe Script';fill:#16272a;fill-opacity:0.799714;stroke-width:0.387868"
   x="43.405201"
   y="48.475445"
   id="text17884-6"
   transform="scale(1.3889969,0.71994403)"><tspan
     sodipodi:role="line"
     id="tspan17882-2"
     x="43.405201"
     y="48.475445"
     style="stroke-width:0.387868">_</tspan></text><text
   xml:space="preserve"
   style="font-size:13.63px;line-height:1.25;font-family:'Segoe Script';-inkscape-font-specification:'Segoe Script';fill:#16272a;fill-opacity:0.799714;stroke-width:0.340749"
   x="-50.028301"
   y="52.1315"
   id="text17884-0"
   transform="matrix(-0.01767461,-1.4156384,0.70569194,-0.056319,0,0)"><tspan
     sodipodi:role="line"
     id="tspan17882-4"
     x="-50.028301"
     y="52.1315"
     style="stroke-width:0.340749">_</tspan></text><text
   xml:space="preserve"
   style="font-size:14.4263px;line-height:1.25;font-family:'Segoe Script';-inkscape-font-specification:'Segoe Script';fill:#16272a;fill-opacity:0.799714;stroke-width:0.360656"
   x="-12.430909"
   y="50.437244"
   id="text17884-9"
   transform="matrix(5.2678543e-4,-1.2977177,0.77058305,0.00140916,0,0)"><tspan
     sodipodi:role="line"
     id="tspan17882-7"
     x="-12.430909"
     y="50.437244"
     style="stroke-width:0.360656">_</tspan></text></svg>
