<?xml version="1.0" encoding="UTF-8" standalone="no"?>
<!-- Generator: Adobe Illustrator 22.0.1, SVG Export Plug-In . SVG Version: 6.00 Build 0)  -->

<svg
   version="1.1"
   id="Layer_1"
   x="0px"
   y="0px"
   viewBox="0 0 77 77"
   xml:space="preserve"
   sodipodi:docname="southWind.svg"
   width="77"
   height="77"
   inkscape:version="1.1.1 (3bf5ae0d25, 2021-09-20)"
   xmlns:inkscape="http://www.inkscape.org/namespaces/inkscape"
   xmlns:sodipodi="http://sodipodi.sourceforge.net/DTD/sodipodi-0.dtd"
   xmlns="http://www.w3.org/2000/svg"
   xmlns:svg="http://www.w3.org/2000/svg"><defs
   id="defs7" /><sodipodi:namedview
   id="namedview5"
   pagecolor="#ffffff"
   bordercolor="#666666"
   borderopacity="1.0"
   inkscape:pageshadow="2"
   inkscape:pageopacity="0.0"
   inkscape:pagecheckerboard="0"
   showgrid="false"
   inkscape:zoom="10.158767"
   inkscape:cx="32.287383"
   inkscape:cy="23.08351"
   inkscape:window-width="2400"
   inkscape:window-height="1321"
   inkscape:window-x="2391"
   inkscape:window-y="-9"
   inkscape:window-maximized="1"
   inkscape:current-layer="Layer_1"
   width="140px" />
<path
   d="m 69.254651,39.011471 c -0.181298,5.538233 -1.711955,10.624193 -4.564352,15.231626 -2.852408,4.607437 -6.63471,8.205741 -11.346927,10.794916 -4.712215,2.589175 -9.779891,3.780536 -15.203935,3.601256 C 34.078099,68.505034 30.203722,67.561638 26.542155,65.837146 22.880603,64.112637 19.772967,61.808538 17.163183,59.004526 14.553407,56.200487 12.5225,52.872054 11.07046,49.019224 9.6184333,45.166365 8.9457074,41.203398 9.0825633,37.022569 9.2176371,32.896048 10.148974,28.958917 11.848951,25.237422 c 1.699966,-3.72148 3.970874,-6.907728 6.731684,-9.534231 2.760794,-2.626502 6.038234,-4.692358 9.80466,-6.1713495 3.766435,-1.4789778 7.667404,-2.1653557 11.755469,-2.0302297 4.088074,0.1351106 7.989161,1.0793923 11.650729,2.8038982 3.661556,1.724511 6.795898,4.029482 9.405698,6.833492 2.60979,2.80402 4.613983,6.131568 6.094495,9.93101 1.480533,3.799442 2.098934,7.787795 1.962965,11.941459 z m -6.626419,-0.219023 c 0.21062,-6.434115 -1.904183,-12.102587 -6.371115,-17.006306 -4.468709,-4.849414 -9.896485,-7.36609 -16.335856,-7.578933 -4.221665,-0.139548 -8.184073,0.78941 -11.834681,2.815765 -3.65061,2.026362 -6.630493,4.808677 -8.861301,8.403914 -2.230812,3.595225 -3.429338,7.52353 -3.56976,11.81295 -0.140403,4.289404 0.797747,8.315509 2.788594,12.050289 1.990856,3.734773 4.754746,6.734128 8.29166,8.998064 3.536919,2.263931 7.403284,3.451655 11.624952,3.591187 4.221667,0.139543 8.184073,-0.789418 11.834689,-2.815769 3.650596,-2.026355 6.631387,-4.835832 8.888903,-8.430183 2.257523,-3.594354 3.4035,-7.551564 3.543915,-11.840978 z M 50.082337,22.478904 38.89749,57.738961 c -0.03559,0.270594 -0.173652,0.401915 -0.414148,0.393943 -0.24047,-0.008 -0.369629,-0.148109 -0.387471,-0.420445 l -8.827949,-35.92154 c -0.09712,-0.302169 -0.06327,-0.518473 0.07565,-0.676941 0.13896,-0.15844 0.352684,-0.151403 0.641268,0.0212 l 9.156094,3.83573 c 0.263642,0.117433 0.530837,0.126262 0.774867,0.02561 l 9.467319,-3.220166 c 0.272519,-0.154045 0.459554,-0.147857 0.561105,0.01856 0.101528,0.166432 0.200425,0.414284 0.138107,0.684002 z"
   id="path2"
   style="fill:#2c4f54;fill-opacity:0.5;stroke:#2e3332;stroke-width:0.166137;stroke-miterlimit:4;stroke-dasharray:none;stroke-opacity:0.9" />
<path
   style="fill:#2c4f53;fill-opacity:0.499285;stroke:#e4e7e7;stroke-width:0.166137;stroke-miterlimit:4;stroke-dasharray:none;stroke-opacity:0.9"
   d="m 42.270574,15.359312 c 1.131263,0.147316 2.372251,0.395954 3.438503,0.688899 5.995549,1.647303 11.503005,6.466229 14.224852,12.446496 1.465115,3.219071 2.015098,6.042107 1.906498,9.785992 -0.111339,3.842784 -0.858618,6.748372 -2.56302,9.967471 -1.148789,2.169683 -2.428509,3.884311 -4.242787,5.684637 -3.600543,3.572855 -7.765791,5.715328 -12.68427,6.524426 -1.024285,0.168499 -1.448235,0.186396 -3.671771,0.155014 -2.698954,-0.03813 -3.458251,-0.127208 -5.404899,-0.634099 -2.940022,-0.765624 -6.17353,-2.447834 -8.64061,-4.495239 -1.006318,-0.835127 -2.858624,-2.826078 -3.643717,-3.916469 -1.900101,-2.638919 -3.233818,-5.577859 -3.849992,-8.483792 -0.454405,-2.142893 -0.515881,-2.902727 -0.442839,-5.472672 0.05158,-1.812924 0.109848,-2.579919 0.256009,-3.365307 0.887501,-4.769772 3.248827,-9.152673 6.74765,-12.524392 3.583352,-3.453159 8.102674,-5.667171 12.895134,-6.317303 1.104763,-0.149868 4.65017,-0.177155 5.675271,-0.04368 z m 2.282487,8.422403 c -2.554621,0.909624 -4.738569,1.675626 -4.853211,1.702226 -0.14148,0.03286 -1.733593,-0.55556 -4.957689,-1.83223 -2.733896,-1.082547 -4.817547,-1.859981 -4.910193,-1.832035 -0.192003,0.05796 -0.302347,0.398334 -0.239506,0.738878 0.02496,0.135198 2.006692,7.959104 4.403865,17.386478 4.200668,16.520008 4.366932,17.143909 4.591595,17.229844 0.17364,0.06637 0.266612,0.05633 0.364439,-0.03974 0.161901,-0.158828 10.800663,-33.99686 10.811731,-34.387967 0.01001,-0.35337 -0.219958,-0.716554 -0.418431,-0.660801 -0.08129,0.02294 -2.237983,0.78575 -4.792604,1.695374 z"
   id="path861" /><rect
   style="fill:#c7485e;fill-opacity:1;stroke:#3c4343;stroke-width:0.713339;stroke-opacity:0.9"
   id="rect2803"
   width="7.8061028"
   height="0.092101522"
   x="-44.590443"
   y="-42.59565"
   transform="matrix(-0.99951486,-0.03114561,0.03958615,-0.99921616,0,0)"
   inkscape:transform-center-x="-4.3816829"
   inkscape:transform-center-y="-4.4577911" /><path
   style="fill:#a06f78;fill-opacity:1;stroke:#e27364;stroke-width:0.0558998;stroke-opacity:0.9"
   d="m 42.603221,45.173368 c -0.04375,0.132621 -0.951472,2.999953 -2.017109,6.371927 -1.065631,3.371974 -1.98152,6.20926 -2.035302,6.305065 -0.08466,0.150739 -3.099131,-12.411479 -3.08153,-12.841563 0.0048,-0.117479 0.967316,-0.149004 3.610035,-0.118326 3.369687,0.03912 3.598327,0.05753 3.523903,0.282862 z"
   id="path3397"
   inkscape:transform-center-x="-3.8688995"
   inkscape:transform-center-y="2.3759925" /><g
   aria-label="c"
   transform="scale(1.0194521,0.98091903)"
   id="text9344"
   style="font-size:8.74735px;line-height:1.25;font-family:'Segoe Script';-inkscape-font-specification:'Segoe Script';fill:#e0e0e0;stroke-width:0.218683"><path
     d="m 41.142751,3.2982061 q 0,0.153762 -0.111051,0.2776259 -0.115321,0.128135 -0.200744,0.2178295 -0.08542,0.085423 -0.162305,0.1580331 -0.07688,0.07261 -0.162304,0.1409485 -0.08542,0.064068 -0.200745,0.1494909 -0.324609,0.2349142 -0.619319,0.3972185 -0.294711,0.1580332 -0.572336,0.2605412 -0.277626,0.098237 -0.550981,0.1409485 -0.269084,0.042712 -0.542438,0.042712 -0.286168,0 -0.51254,-0.1067792 Q 37.281616,4.8657243 37.123583,4.677793 36.969821,4.4898617 36.888669,4.242134 36.807516,3.9901351 36.807516,3.7125093 v -0.021356 q 0,-0.2818971 0.07261,-0.5979634 0.07261,-0.3203375 0.200745,-0.640675 0.132406,-0.3203375 0.316066,-0.6278616 0.183661,-0.3117951 0.405761,-0.5808787 0.08969,-0.1067791 0.213559,-0.2263718 0.128135,-0.12386383 0.269083,-0.22637184 0.14522,-0.102508 0.298982,-0.16657551 0.158033,-0.0683387 0.307524,-0.0683387 0.102508,0 0.196474,0.0640675 0.09396,0.0597963 0.175117,0.15803317 0.08115,0.0982368 0.149491,0.22210064 0.06834,0.1195927 0.115322,0.2477277 0.04698,0.1238639 0.07261,0.2391854 0.02563,0.1153215 0.02563,0.1964736 0,0.1238639 -0.07688,0.3203376 -0.07688,0.1964736 -0.183661,0.1964736 -0.153762,0 -0.25627,-0.2092872 -0.03844,-0.081152 -0.06834,-0.1879313 -0.02563,-0.1067792 -0.06407,-0.2092872 -0.03417,-0.102508 -0.09397,-0.1879313 -0.0598,-0.089695 -0.166575,-0.1324062 -0.106779,0.025627 -0.21783,0.1110504 -0.106779,0.085423 -0.213558,0.2092871 -0.102508,0.1238639 -0.205016,0.281897 -0.09824,0.1537621 -0.187931,0.3203376 -0.08542,0.153762 -0.166576,0.3545068 -0.08115,0.1964737 -0.145219,0.410032 -0.06407,0.2092872 -0.102508,0.4185744 -0.03844,0.2092872 -0.03844,0.384405 0,0.1238638 0.0598,0.2519988 0.0598,0.1238639 0.153762,0.2263719 0.09824,0.102508 0.21783,0.1665755 0.123864,0.064068 0.251999,0.064068 0.632132,0 1.255723,-0.2605412 0.62359,-0.2605412 1.187384,-0.7559965 0.311795,-0.2733547 0.516811,-0.2733547 0.0598,0 0.0598,0.1153215 z"
     id="path3427" /></g><g
   aria-label="ю"
   transform="scale(0.88627048,1.1283237)"
   id="text11307"
   style="font-size:7.00946px;line-height:1.25;font-family:'Segoe Script';-inkscape-font-specification:'Segoe Script';fill:#e0e0e0;stroke-width:0.175235"><path
     d="m 41.149386,65.776504 q 0,-0.01369 -0.01711,-0.02396 -0.01369,-0.01369 -0.03423,-0.03423 -0.02054,-0.02054 -0.03765,-0.05476 -0.01369,-0.03423 -0.01369,-0.09583 0,-0.05476 0.0308,-0.09925 0.0308,-0.04449 0.06503,-0.08214 0.03765,-0.03765 0.06845,-0.06845 0.03423,-0.0308 0.04107,-0.05818 0.05818,-0.328568 0.09925,-0.619488 0.04107,-0.29092 0.05134,-0.486007 0.0034,-0.05818 0,-0.119791 0,-0.06161 -0.0034,-0.123213 -0.0034,-0.04449 -0.0068,-0.08557 0,-0.04107 0,-0.07872 0,-0.04107 0.0308,-0.09241 0.0308,-0.05134 0.0753,-0.09583 0.04792,-0.04449 0.102678,-0.07187 0.05818,-0.0308 0.112946,-0.0308 0.04792,0 0.09583,0.02738 0.04792,0.02396 0.08557,0.07187 0.03765,0.04449 0.06161,0.112945 0.02396,0.06503 0.02396,0.147171 0,0.06161 -0.01027,0.150594 -0.01027,0.08899 -0.02738,0.195088 -0.01711,0.1061 -0.04107,0.222468 -0.02054,0.116368 -0.04107,0.232736 -0.02738,0.160862 -0.05476,0.308033 -0.02396,0.147171 -0.03765,0.253271 0.01369,0.0308 0.02396,0.05476 0.01369,0.02053 0.03423,0.03423 0.02054,0.01369 0.05134,0.02054 0.03423,0.0068 0.08899,0.0068 0.147171,0 0.311456,-0.0308 0.164284,-0.0308 0.311455,-0.07872 0.147171,-0.04792 0.263539,-0.09926 0.119791,-0.05476 0.177975,-0.102677 0.03765,-0.0308 0.08214,-0.08214 0.04792,-0.05134 0.09583,-0.109523 0.04792,-0.06161 0.09241,-0.119791 0.04792,-0.06161 0.08214,-0.1061 0.116368,-0.147171 0.26354,-0.287497 0.147171,-0.140326 0.325146,-0.246427 0.177974,-0.1061 0.383329,-0.171129 0.208778,-0.06503 0.451782,-0.06503 0.18482,0 0.362794,0.09241 0.177975,0.08899 0.314878,0.243003 0.140326,0.154017 0.222469,0.35595 0.08556,0.19851 0.08556,0.417555 0,0.219046 -0.04449,0.400443 -0.04107,0.177975 -0.133481,0.379907 -0.05134,0.106101 -0.177975,0.253272 -0.126636,0.147171 -0.30461,0.30461 -0.174552,0.157439 -0.38333,0.311456 -0.208778,0.154016 -0.424401,0.277229 -0.215623,0.123213 -0.424401,0.19851 -0.205355,0.0753 -0.373062,0.0753 -0.225891,0 -0.386752,-0.0753 -0.160862,-0.07872 -0.26354,-0.201932 -0.102677,-0.126636 -0.150593,-0.287498 -0.04792,-0.160861 -0.04792,-0.325146 0,-0.133481 0.03765,-0.321723 0.04107,-0.191665 0.136903,-0.386752 -0.130058,0.08214 -0.29092,0.130058 -0.157439,0.04792 -0.29092,0.08557 -0.05818,0.01711 -0.130058,0.0308 -0.07187,0.01027 -0.143749,0.02054 -0.06845,0.01027 -0.133481,0.02053 -0.06161,0.01027 -0.1061,0.01711 -0.06845,0.01369 -0.09583,0.05476 -0.02396,0.03765 -0.03765,0.09925 -0.01369,0.05818 -0.04107,0.154017 -0.02738,0.09583 -0.05476,0.19851 -0.0308,0.109523 -0.06503,0.225891 -0.03423,0.116368 -0.06161,0.222468 -0.02396,0.102678 -0.04449,0.191665 -0.01711,0.08557 -0.01711,0.133481 0,0.04449 -0.03765,0.09583 -0.03423,0.05134 -0.08214,0.09583 -0.04449,0.04792 -0.09241,0.07872 -0.04449,0.0308 -0.06845,0.0308 -0.05134,0 -0.09925,-0.03423 -0.04449,-0.03423 -0.07872,-0.07872 -0.03423,-0.04449 -0.05476,-0.08899 -0.02053,-0.04792 -0.02053,-0.07187 0,-0.0308 0.02396,-0.109523 0.02738,-0.07872 0.05476,-0.160862 0.01711,-0.05134 0.04449,-0.140326 0.02738,-0.08899 0.05476,-0.195087 0.0308,-0.109523 0.05818,-0.225891 0.0308,-0.116368 0.05476,-0.219046 0.02396,-0.102678 0.03765,-0.177974 0.01369,-0.07872 0.01369,-0.112946 z m 4.124218,-0.773505 q 0,-0.342258 -0.19851,-0.533923 -0.195088,-0.195088 -0.561305,-0.195088 -0.05134,0 -0.126635,0.04107 -0.0753,0.04107 -0.164285,0.1061 -0.08556,0.06161 -0.174552,0.136904 -0.08556,0.0753 -0.164284,0.147171 -0.0753,0.07187 -0.130058,0.130058 -0.05476,0.05818 -0.0753,0.08214 -0.07187,0.08556 -0.150594,0.236158 -0.0753,0.147171 -0.140326,0.318301 -0.06503,0.171129 -0.109523,0.345681 -0.04107,0.17113 -0.04107,0.301188 0,0.07872 0.02054,0.160862 0.02396,0.08214 0.06845,0.150593 0.04792,0.06503 0.119791,0.109523 0.07187,0.04107 0.167707,0.04107 0.1061,0 0.270384,-0.06161 0.164284,-0.06161 0.345682,-0.17113 0.184819,-0.109522 0.369639,-0.260116 0.188242,-0.150594 0.335414,-0.325146 0.150594,-0.174552 0.243003,-0.366217 0.09583,-0.195088 0.09583,-0.393598 z"
     id="path3469" /></g><g
   aria-label="з"
   transform="scale(1.3740029,0.72780049)"
   id="text16794"
   style="font-size:8.07304px;line-height:1.25;font-family:'Segoe Script';-inkscape-font-specification:'Segoe Script';fill:#e0e0e0;stroke-width:0.201822"><path
     d="m 0.78329008,49.701248 q 0.0394191,0 0.0630706,0.02759 0.0275934,0.02759 0.0433611,0.06701 0.0157677,0.04336 0.0197096,0.09461 0.007884,0.05125 0.007884,0.09855 0,0.09066 0.0315353,0.197095 0.0354772,0.106432 0.11037363,0.197096 0.078838,0.09066 0.2010376,0.149793 0.1221993,0.06307 0.2995854,0.06307 0.2404568,0 0.4966812,-0.126141 0.2562244,-0.126141 0.4690878,-0.35083 0.2128634,-0.224689 0.3468884,-0.536101 0.137967,-0.307469 0.137967,-0.674067 0,-0.339004 -0.070954,-0.575519 -0.070955,-0.236515 -0.18527,-0.382366 -0.1103736,-0.149793 -0.2562244,-0.216805 -0.1458508,-0.06701 -0.2917016,-0.06701 -0.055187,0 -0.1221994,0.02759 -0.067012,0.02365 -0.137967,0.06307 -0.067012,0.03548 -0.137967,0.07884 -0.067012,0.04336 -0.1221993,0.07884 -0.094606,0.06307 -0.1813281,0.106432 -0.08278,0.04336 -0.2207471,0.04336 -0.1064317,0 -0.18527,-0.07884 -0.074896,-0.08278 -0.074896,-0.216805 0,-0.10249 0.070955,-0.173444 0.074896,-0.07095 0.228631,-0.134025 0.3271789,-0.134025 0.5834033,-0.271992 0.2601663,-0.141909 0.4375524,-0.303528 0.1773862,-0.16556 0.2719921,-0.362656 0.094606,-0.197096 0.094606,-0.449378 0,-0.09855 -0.031535,-0.193154 -0.027593,-0.09855 -0.086722,-0.173444 -0.059129,-0.07884 -0.1458508,-0.126141 -0.08278,-0.05124 -0.1931538,-0.05124 -0.2365148,0 -0.4493782,0.145851 -0.2128633,0.14585 -0.4178429,0.358714 -0.090664,0.09461 -0.1497927,0.137967 -0.059129,0.03942 -0.1261413,0.03942 -0.055187,0 -0.098548,-0.02759 -0.0394191,-0.03154 -0.0670125,-0.07095 -0.0236515,-0.04336 -0.0394191,-0.09066 -0.0118257,-0.05125 -0.0118257,-0.08672 0,-0.09461 0.0512449,-0.177386 0.0551867,-0.08672 0.14585085,-0.161619 0.1970957,-0.16556 0.3863076,-0.271992 0.1892118,-0.106431 0.3114112,-0.157676 0.137967,-0.05519 0.2838178,-0.106432 0.1497927,-0.05125 0.2798759,-0.05125 0.1852699,0 0.3547722,0.06701 0.1695023,0.06307 0.2956436,0.189212 0.1300832,0.122199 0.2049795,0.303527 0.078838,0.181328 0.078838,0.409959 0,0.331121 -0.1616185,0.6583 -0.1576765,0.327179 -0.5400422,0.634648 0.2641082,0.01183 0.4612039,0.134025 0.1970958,0.122199 0.3271789,0.323237 0.1340251,0.201037 0.1970957,0.465146 0.067013,0.260166 0.067013,0.551868 0,0.291701 -0.078838,0.579461 -0.078838,0.28776 -0.2246891,0.551868 -0.1419089,0.264108 -0.3429465,0.488797 -0.1970958,0.224689 -0.4375525,0.39025 -0.2365149,0.16556 -0.5085069,0.260166 -0.2680502,0.09461 -0.551868,0.09461 -0.2719921,0 -0.4730297,-0.09066 -0.2010376,-0.08672 -0.33506268,-0.220747 -0.13008316,-0.134025 -0.1970957,-0.28776 -0.0670125,-0.153734 -0.0670125,-0.283818 0,-0.09855 0.0354772,-0.212863 0.0394191,-0.114315 0.0867221,-0.181328 0.0315353,-0.04336 0.090664,-0.09066 0.0591287,-0.04336 0.14979274,-0.04336 z"
     id="path3490" /></g><g
   aria-label="в"
   transform="scale(1.3892535,0.71981102)"
   id="text19318"
   style="font-size:8.40659px;line-height:1.25;font-family:'Segoe Script';-inkscape-font-specification:'Segoe Script';fill:#e0e0e0;stroke-width:0.210168"><path
     d="m 54.089912,45.780617 q 0,-0.04926 -0.02052,-0.09851 -0.01642,-0.05336 -0.05336,-0.09441 -0.03284,-0.04515 -0.09031,-0.07389 -0.05336,-0.02873 -0.127248,-0.02873 -0.143667,0 -0.299649,0.102619 -0.151877,0.10262 -0.307858,0.28323 -0.151877,0.176505 -0.295544,0.422792 -0.143668,0.242182 -0.266811,0.525412 -0.123144,0.28323 -0.221658,0.595193 -0.09441,0.307859 -0.151877,0.619822 0.03694,-0.02463 0.110829,-0.07799 0.07389,-0.05747 0.164191,-0.127248 0.09441,-0.07389 0.19703,-0.155981 0.106724,-0.0862 0.201134,-0.168296 0.09852,-0.0821 0.18061,-0.155982 0.0821,-0.07389 0.131353,-0.127248 0.455631,-0.492574 0.65266,-0.853795 0.19703,-0.36122 0.19703,-0.586983 z m -0.127248,4.424953 q -0.127249,0.18882 -0.307859,0.36943 -0.176506,0.176506 -0.389954,0.311964 -0.213449,0.135457 -0.455631,0.213448 -0.238077,0.07799 -0.484364,0.05747 -0.172401,-0.01231 -0.328382,-0.110829 -0.155982,-0.102619 -0.275021,-0.287334 -0.119038,-0.18882 -0.18882,-0.459736 -0.06978,-0.270915 -0.06978,-0.623927 0,-0.225762 0.02463,-0.488468 0.02463,-0.266811 0.06568,-0.537727 0.04105,-0.270915 0.09031,-0.529516 0.05336,-0.258602 0.102619,-0.476155 0.06568,-0.295544 0.172401,-0.582879 0.106724,-0.291439 0.238077,-0.55825 0.131353,-0.270915 0.28323,-0.508993 0.151877,-0.238077 0.311963,-0.431002 0.221658,-0.258601 0.504888,-0.414582 0.287335,-0.155982 0.673184,-0.155982 0.160087,0 0.29144,0.06568 0.131353,0.06568 0.225763,0.172401 0.09441,0.10262 0.143667,0.233973 0.05336,0.131353 0.05336,0.258601 0,0.176505 -0.07389,0.394059 -0.06978,0.213448 -0.205239,0.447421 -0.135458,0.233972 -0.328382,0.47205 -0.192925,0.238077 -0.439212,0.459735 0.05747,0.0041 0.131353,0.02052 0.07799,0.01231 0.160086,0.04926 0.0862,0.03694 0.172401,0.09851 0.09031,0.06157 0.172401,0.155982 0.03694,0.04515 0.0821,0.123143 0.04515,0.07389 0.0821,0.184715 0.04105,0.106725 0.06568,0.246287 0.02873,0.139563 0.02873,0.307859 0,0.328382 -0.119038,0.710127 -0.114934,0.377639 -0.410478,0.812746 z M 53.84773,48.695011 q 0,-0.225763 -0.06568,-0.37764 -0.06568,-0.155982 -0.155981,-0.246287 -0.09031,-0.09441 -0.184716,-0.131353 -0.09441,-0.04105 -0.151876,-0.04105 -0.05336,0 -0.168296,0.08209 -0.114934,0.0821 -0.246287,0.18061 -0.09851,0.0862 -0.19703,0.160087 -0.09851,0.07389 -0.184715,0.143667 -0.0821,0.06978 -0.151877,0.139563 -0.06978,0.06978 -0.114934,0.147772 -0.114933,0.209344 -0.135457,0.476154 -0.02052,0.266811 -0.02052,0.545936 0,0.184715 0.03694,0.332487 0.04105,0.143668 0.09851,0.246287 0.06157,0.10262 0.131353,0.160087 0.06978,0.05336 0.127249,0.05336 0.139562,0 0.316068,-0.05747 0.176505,-0.05747 0.36122,-0.225763 0.160087,-0.147772 0.287335,-0.332487 0.131353,-0.184715 0.221658,-0.389954 0.09441,-0.205239 0.143668,-0.426898 0.05336,-0.221658 0.05336,-0.439211 z"
     id="path3448" /></g><text
   xml:space="preserve"
   style="font-size:14.6397px;line-height:1.25;font-family:'Segoe Script';-inkscape-font-specification:'Segoe Script';fill:#16272a;fill-opacity:0.799714;stroke-width:0.365992"
   x="7.3181357"
   y="45.755802"
   id="text17884"
   transform="scale(1.3048452,0.76637442)"><tspan
     sodipodi:role="line"
     id="tspan17882"
     x="7.3181357"
     y="45.755802"
     style="stroke-width:0.365992">_</tspan></text><text
   xml:space="preserve"
   style="font-size:15.2333px;line-height:1.25;font-family:'Segoe Script';-inkscape-font-specification:'Segoe Script';fill:#16272a;fill-opacity:0.799714;stroke-width:0.38083"
   x="43.946362"
   y="47.226311"
   id="text17884-6"
   transform="scale(1.3577465,0.73651449)"><tspan
     sodipodi:role="line"
     id="tspan17882-2"
     x="43.946362"
     y="47.226311"
     style="stroke-width:0.38083">_</tspan></text><text
   xml:space="preserve"
   style="font-size:13.1488px;line-height:1.25;font-family:'Segoe Script';-inkscape-font-specification:'Segoe Script';fill:#16272a;fill-opacity:0.799714;stroke-width:0.328718"
   x="-51.725414"
   y="49.391071"
   id="text17884-0"
   transform="matrix(-0.01832119,-1.3656796,0.73150731,-0.05433147,0,0)"><tspan
     sodipodi:role="line"
     id="tspan17882-4"
     x="-51.725414"
     y="49.391071"
     style="stroke-width:0.328718">_</tspan></text><text
   xml:space="preserve"
   style="font-size:14.8388px;line-height:1.25;font-family:'Segoe Script';-inkscape-font-specification:'Segoe Script';fill:#16272a;fill-opacity:0.799714;stroke-width:0.370968"
   x="-11.984362"
   y="51.084969"
   id="text17884-9"
   transform="matrix(5.1213251e-4,-1.3348474,0.74914875,0.00144949,0,0)"><tspan
     sodipodi:role="line"
     id="tspan17882-7"
     x="-11.984362"
     y="51.084969"
     style="stroke-width:0.370968">_</tspan></text></svg>
