<?xml version="1.0" encoding="UTF-8" standalone="no"?>
<!-- Generator: Adobe Illustrator 22.0.1, SVG Export Plug-In . SVG Version: 6.00 Build 0)  -->

<svg
   version="1.1"
   id="Layer_1"
   x="0px"
   y="0px"
   viewBox="0 0 77 77"
   xml:space="preserve"
   sodipodi:docname="southEastWind.svg"
   width="77"
   height="77"
   inkscape:version="1.1.1 (3bf5ae0d25, 2021-09-20)"
   xmlns:inkscape="http://www.inkscape.org/namespaces/inkscape"
   xmlns:sodipodi="http://sodipodi.sourceforge.net/DTD/sodipodi-0.dtd"
   xmlns="http://www.w3.org/2000/svg"
   xmlns:svg="http://www.w3.org/2000/svg"><defs
   id="defs7" /><sodipodi:namedview
   id="namedview5"
   pagecolor="#ffffff"
   bordercolor="#666666"
   borderopacity="1.0"
   inkscape:pageshadow="2"
   inkscape:pageopacity="0.0"
   inkscape:pagecheckerboard="0"
   showgrid="false"
   inkscape:zoom="5.0793835"
   inkscape:cx="17.128063"
   inkscape:cy="21.36086"
   inkscape:window-width="2400"
   inkscape:window-height="1321"
   inkscape:window-x="2391"
   inkscape:window-y="-9"
   inkscape:window-maximized="1"
   inkscape:current-layer="Layer_1"
   width="140px" />
<path
   d="m 58.716338,15.376845 c 4.297192,3.458385 7.409534,7.708059 9.333007,12.711577 1.92347,5.003524 2.475277,10.134799 1.655445,15.393847 -0.819836,5.259043 -2.96953,9.96101 -6.428006,14.122877 -2.589586,3.116264 -5.708905,5.600941 -9.319834,7.45048 -3.61093,1.849516 -7.344555,2.916059 -11.171734,3.291451 C 38.958022,68.72245 35.067321,68.32825 31.113105,67.164483 27.158872,66.000686 23.5934,64.157589 20.349431,61.546848 17.147598,58.970023 14.58327,55.879854 12.660451,52.313801 10.737638,48.747762 9.5898524,45.052779 9.1870652,41.307315 8.7842705,37.561865 9.1435387,33.745421 10.26883,29.895453 c 1.125308,-3.849966 2.963709,-7.331301 5.570341,-10.46807 2.606625,-3.136785 5.742983,-5.641953 9.353919,-7.491485 3.610936,-1.849521 7.361581,-2.936559 11.188767,-3.3119662 3.827188,-0.3753947 7.700854,0.039301 11.629982,1.148699 3.929142,1.1093752 7.48161,3.0104322 10.704499,5.6042142 z m -4.225131,5.084447 c -4.992326,-4.017821 -10.796811,-5.746949 -17.430496,-5.166886 -6.591549,0.613969 -11.912697,3.379396 -16.018566,8.320323 -2.691822,3.239276 -4.374706,6.9142 -4.993535,11.000711 -0.618827,4.086515 -0.225948,8.097693 1.271876,12.00597 1.497813,3.908272 3.891779,7.203459 7.219998,9.882019 3.328218,2.678533 7.106201,4.350519 11.295838,5.019524 4.189637,0.668995 8.266499,0.289256 12.230579,-1.139211 3.964082,-1.428474 7.272973,-3.760566 9.964788,-6.999854 2.691818,-3.23928 4.374701,-6.914203 4.993537,-11.000717 0.618821,-4.086505 0.204877,-8.114654 -1.275913,-12.043426 -1.480789,-3.928773 -3.929887,-7.199904 -7.258106,-9.878453 z M 33.837383,20.56925 55.064351,50.482578 c 0.193611,0.190025 0.213743,0.377304 0.06038,0.561822 -0.15338,0.184474 -0.343843,0.202259 -0.571509,0.05326 L 20.565707,36.540144 c -0.299875,-0.104463 -0.45135,-0.260598 -0.492551,-0.464818 -0.04115,-0.204231 0.09509,-0.36824 0.408888,-0.492044 l 8.650184,-4.910239 c 0.254635,-0.137203 0.425002,-0.342224 0.494067,-0.594556 l 3.224467,-9.3795 c 0.04397,-0.306723 0.163245,-0.450231 0.357781,-0.430527 0.194534,0.01974 0.452264,0.09027 0.628842,0.300804 z"
   id="path2"
   style="fill:#2c4f54;fill-opacity:0.5;stroke:#2e3332;stroke-width:0.165508;stroke-miterlimit:4;stroke-dasharray:none;stroke-opacity:0.9" />
<path
   style="fill:#2c4f53;fill-opacity:0.499285;stroke:#e4e7e7;stroke-width:0.164482;stroke-miterlimit:4;stroke-dasharray:none;stroke-opacity:0.9"
   d="m 23.580057,22.618696 c 0.815738,-0.785555 1.779449,-1.595303 2.670222,-2.243648 5.00887,-3.64561 12.225239,-5.019403 18.638703,-3.548286 3.45225,0.791886 6.025568,2.053825 8.920359,4.374496 2.971343,2.381871 4.808182,4.694887 6.301493,7.934307 1.006482,2.183395 1.572031,4.196021 1.874991,6.672633 0.601236,4.914984 -0.278171,9.411452 -2.678002,13.692933 -0.499767,0.891631 -0.747637,1.2297 -2.146749,2.927982 -1.69831,2.061354 -2.238058,2.594482 -3.84223,3.79485 -2.422831,1.812876 -5.7522,3.304765 -8.896785,3.986621 -1.282661,0.278138 -4.002612,0.518995 -5.350497,0.473787 -3.262116,-0.109369 -6.411531,-0.835352 -9.091346,-2.095708 -1.976169,-0.929391 -2.615293,-1.335885 -4.603317,-2.92772 -1.402381,-1.122971 -1.973167,-1.62621 -2.504175,-2.208315 -3.224997,-3.535064 -5.233004,-7.977087 -5.737986,-12.693356 -0.517167,-4.8302 0.524481,-9.642827 2.972186,-13.732019 0.564251,-0.942645 2.733952,-3.696735 3.473124,-4.408581 z m 8.073963,3.269466 c -0.859288,2.516156 -1.603093,4.660266 -1.652908,4.764686 -0.06145,0.128884 -1.510991,1.006769 -4.513705,2.733684 -2.546159,1.464355 -4.449045,2.608882 -4.484195,2.69712 -0.07282,0.182891 0.128264,0.471462 0.436519,0.626394 0.122389,0.06149 7.536979,3.20564 16.476889,6.986972 15.665813,6.626201 16.262159,6.870564 16.469003,6.748422 0.15983,-0.09443 0.209356,-0.172224 0.193788,-0.305179 -0.02561,-0.219916 -20.220547,-28.651985 -20.523122,-28.894203 -0.27338,-0.21885 -0.702841,-0.258255 -0.781402,-0.07168 -0.0321,0.07648 -0.761582,2.197638 -1.620868,4.713792 z"
   id="path861" /><rect
   style="fill:#c7485e;fill-opacity:1;stroke:#3c4343;stroke-width:0.671308;stroke-opacity:0.9"
   id="rect2803"
   width="7.3778014"
   height="0.086301304"
   x="-0.20072262"
   y="-60.789078"
   transform="matrix(-0.62534287,0.78035011,-0.76233084,-0.64718753,0,0)"
   inkscape:transform-center-x="0.79686555"
   inkscape:transform-center-y="-5.883953" /><path
   style="fill:#a06f78;fill-opacity:1;stroke:#e27364;stroke-width:0.0530596;stroke-opacity:0.9"
   d="m 46.97067,39.818437 c 0.07552,0.108727 1.72993,2.430349 3.676561,5.159163 1.946633,2.728809 3.573652,5.039598 3.615593,5.135073 0.06597,0.15025 -11.158146,-4.683539 -11.473718,-4.94126 -0.08622,-0.07037 0.437299,-0.823137 1.963405,-2.82331 1.945913,-2.550389 2.089877,-2.714486 2.218132,-2.529683 z"
   id="path3397"
   inkscape:transform-center-x="-2.8876602"
   inkscape:transform-center-y="-2.7186885" /><text
   xml:space="preserve"
   style="font-size:8.56815px;line-height:1.25;font-family:'Segoe Script';-inkscape-font-specification:'Segoe Script';fill:#e0e0e0;fill-opacity:1;stroke-width:0.214203"
   x="36.299339"
   y="6.2603559"
   id="text9344"
   transform="scale(1.0244784,0.97610648)"><tspan
     sodipodi:role="line"
     id="tspan9342"
     x="36.299339"
     y="6.2603559"
     style="fill:#e0e0e0;fill-opacity:1;stroke-width:0.214203">c</tspan></text><text
   xml:space="preserve"
   style="font-size:6.86581px;line-height:1.25;font-family:'Segoe Script';-inkscape-font-specification:'Segoe Script';fill:#e0e0e0;fill-opacity:1;stroke-width:0.171644"
   x="40.30674"
   y="66.941498"
   id="text11307"
   transform="scale(0.89064014,1.1227879)"><tspan
     sodipodi:role="line"
     id="tspan11305"
     x="40.30674"
     y="66.941498"
     style="fill:#e0e0e0;fill-opacity:1;stroke-width:0.171644">ю</tspan></text><text
   xml:space="preserve"
   style="font-size:7.90747px;line-height:1.25;font-family:'Segoe Script';-inkscape-font-specification:'Segoe Script';fill:#e0e0e0;fill-opacity:1;stroke-width:0.197687"
   x="0.77950203"
   y="50.12302"
   id="text16794"
   transform="scale(1.3807773,0.72422974)"><tspan
     sodipodi:role="line"
     id="tspan16792"
     x="0.77950203"
     y="50.12302"
     style="fill:#e0e0e0;fill-opacity:1;stroke-width:0.197687">з</tspan></text><text
   xml:space="preserve"
   style="font-size:8.23449px;line-height:1.25;font-family:'Segoe Script';-inkscape-font-specification:'Segoe Script';fill:#e0e0e0;fill-opacity:1;stroke-width:0.205862"
   x="50.43507"
   y="51.77758"
   id="text19318"
   transform="scale(1.3961031,0.71627946)"><tspan
     sodipodi:role="line"
     id="tspan19316"
     x="50.43507"
     y="51.77758"
     style="fill:#e0e0e0;fill-opacity:1;stroke-width:0.205862">в</tspan></text><text
   xml:space="preserve"
   style="font-size:14.3933px;line-height:1.25;font-family:'Segoe Script';-inkscape-font-specification:'Segoe Script';fill:#16272a;fill-opacity:0.799714;stroke-width:0.359832"
   x="7.7048202"
   y="46.652931"
   id="text17884"
   transform="scale(1.3161783,0.7597755)"><tspan
     sodipodi:role="line"
     id="tspan17882"
     x="7.7048202"
     y="46.652931"
     style="stroke-width:0.359832">_</tspan></text><text
   xml:space="preserve"
   style="font-size:15.2846px;line-height:1.25;font-family:'Segoe Script';-inkscape-font-specification:'Segoe Script';fill:#16272a;fill-opacity:0.799714;stroke-width:0.382114"
   x="42.616486"
   y="49.155952"
   id="text17884-6"
   transform="scale(1.3976787,0.71547204)"><tspan
     sodipodi:role="line"
     id="tspan17882-2"
     x="42.616486"
     y="49.155952"
     style="stroke-width:0.382114">_</tspan></text><text
   xml:space="preserve"
   style="font-size:13.0178px;line-height:1.25;font-family:'Segoe Script';-inkscape-font-specification:'Segoe Script';fill:#16272a;fill-opacity:0.799714;stroke-width:0.325444"
   x="-52.274067"
   y="48.983257"
   id="text17884-0"
   transform="matrix(-0.01863447,-1.3427195,0.74401586,-0.05341803,0,0)"><tspan
     sodipodi:role="line"
     id="tspan17882-4"
     x="-52.274067"
     y="48.983257"
     style="stroke-width:0.325444">_</tspan></text><text
   xml:space="preserve"
   style="font-size:14.6956px;line-height:1.25;font-family:'Segoe Script';-inkscape-font-specification:'Segoe Script';fill:#16272a;fill-opacity:0.799714;stroke-width:0.367389"
   x="-12.876869"
   y="51.668137"
   id="text17884-9"
   transform="matrix(5.0902257e-4,-1.3430029,0.74459951,0.00145835,0,0)"><tspan
     sodipodi:role="line"
     id="tspan17882-7"
     x="-12.876869"
     y="51.668137"
     style="stroke-width:0.367389">_</tspan></text></svg>
