<?xml version="1.0" encoding="UTF-8" standalone="no"?>
<!-- Generator: Adobe Illustrator 22.0.1, SVG Export Plug-In . SVG Version: 6.00 Build 0)  -->

<svg
   version="1.1"
   id="Layer_1"
   x="0px"
   y="0px"
   viewBox="0 0 77 77"
   xml:space="preserve"
   sodipodi:docname="southWind.svg"
   width="77"
   height="77"
   inkscape:version="1.1.1 (3bf5ae0d25, 2021-09-20)"
   xmlns:inkscape="http://www.inkscape.org/namespaces/inkscape"
   xmlns:sodipodi="http://sodipodi.sourceforge.net/DTD/sodipodi-0.dtd"
   xmlns="http://www.w3.org/2000/svg"
   xmlns:svg="http://www.w3.org/2000/svg"><defs
   id="defs7" /><sodipodi:namedview
   id="namedview5"
   pagecolor="#ffffff"
   bordercolor="#666666"
   borderopacity="1.0"
   inkscape:pageshadow="2"
   inkscape:pageopacity="0.0"
   inkscape:pagecheckerboard="0"
   showgrid="false"
   inkscape:zoom="5.0793835"
   inkscape:cx="21.065549"
   inkscape:cy="30.810826"
   inkscape:window-width="2400"
   inkscape:window-height="1321"
   inkscape:window-x="2391"
   inkscape:window-y="-9"
   inkscape:window-maximized="1"
   inkscape:current-layer="Layer_1"
   width="140px" />
<path
   d="m 69.254651,39.011471 c -0.181298,5.538233 -1.711955,10.624193 -4.564352,15.231626 -2.852408,4.607437 -6.63471,8.205741 -11.346927,10.794916 -4.712215,2.589175 -9.779891,3.780536 -15.203935,3.601256 C 34.078099,68.505034 30.203722,67.561638 26.542155,65.837146 22.880603,64.112637 19.772967,61.808538 17.163183,59.004526 14.553407,56.200487 12.5225,52.872054 11.07046,49.019224 9.6184333,45.166365 8.9457074,41.203398 9.0825633,37.022569 9.2176371,32.896048 10.148974,28.958917 11.848951,25.237422 c 1.699966,-3.72148 3.970874,-6.907728 6.731684,-9.534231 2.760794,-2.626502 6.038234,-4.692358 9.80466,-6.1713495 3.766435,-1.4789778 7.667404,-2.1653557 11.755469,-2.0302297 4.088074,0.1351106 7.989161,1.0793923 11.650729,2.8038982 3.661556,1.724511 6.795898,4.029482 9.405698,6.833492 2.60979,2.80402 4.613983,6.131568 6.094495,9.93101 1.480533,3.799442 2.098934,7.787795 1.962965,11.941459 z m -6.626419,-0.219023 c 0.21062,-6.434115 -1.904183,-12.102587 -6.371115,-17.006306 -4.468709,-4.849414 -9.896485,-7.36609 -16.335856,-7.578933 -4.221665,-0.139548 -8.184073,0.78941 -11.834681,2.815765 -3.65061,2.026362 -6.630493,4.808677 -8.861301,8.403914 -2.230812,3.595225 -3.429338,7.52353 -3.56976,11.81295 -0.140403,4.289404 0.797747,8.315509 2.788594,12.050289 1.990856,3.734773 4.754746,6.734128 8.29166,8.998064 3.536919,2.263931 7.403284,3.451655 11.624952,3.591187 4.221667,0.139543 8.184073,-0.789418 11.834689,-2.815769 3.650596,-2.026355 6.631387,-4.835832 8.888903,-8.430183 2.257523,-3.594354 3.4035,-7.551564 3.543915,-11.840978 z M 50.082337,22.478904 38.89749,57.738961 c -0.03559,0.270594 -0.173652,0.401915 -0.414148,0.393943 -0.24047,-0.008 -0.369629,-0.148109 -0.387471,-0.420445 l -8.827949,-35.92154 c -0.09712,-0.302169 -0.06327,-0.518473 0.07565,-0.676941 0.13896,-0.15844 0.352684,-0.151403 0.641268,0.0212 l 9.156094,3.83573 c 0.263642,0.117433 0.530837,0.126262 0.774867,0.02561 l 9.467319,-3.220166 c 0.272519,-0.154045 0.459554,-0.147857 0.561105,0.01856 0.101528,0.166432 0.200425,0.414284 0.138107,0.684002 z"
   id="path2"
   style="fill:#2c4f54;fill-opacity:0.5;stroke:#2e3332;stroke-width:0.166137;stroke-miterlimit:4;stroke-dasharray:none;stroke-opacity:0.9" />
<path
   style="fill:#2c4f53;fill-opacity:0.499285;stroke:#e4e7e7;stroke-width:0.166137;stroke-miterlimit:4;stroke-dasharray:none;stroke-opacity:0.9"
   d="m 42.270574,15.359312 c 1.131263,0.147316 2.372251,0.395954 3.438503,0.688899 5.995549,1.647303 11.503005,6.466229 14.224852,12.446496 1.465115,3.219071 2.015098,6.042107 1.906498,9.785992 -0.111339,3.842784 -0.858618,6.748372 -2.56302,9.967471 -1.148789,2.169683 -2.428509,3.884311 -4.242787,5.684637 -3.600543,3.572855 -7.765791,5.715328 -12.68427,6.524426 -1.024285,0.168499 -1.448235,0.186396 -3.671771,0.155014 -2.698954,-0.03813 -3.458251,-0.127208 -5.404899,-0.634099 -2.940022,-0.765624 -6.17353,-2.447834 -8.64061,-4.495239 -1.006318,-0.835127 -2.858624,-2.826078 -3.643717,-3.916469 -1.900101,-2.638919 -3.233818,-5.577859 -3.849992,-8.483792 -0.454405,-2.142893 -0.515881,-2.902727 -0.442839,-5.472672 0.05158,-1.812924 0.109848,-2.579919 0.256009,-3.365307 0.887501,-4.769772 3.248827,-9.152673 6.74765,-12.524392 3.583352,-3.453159 8.102674,-5.667171 12.895134,-6.317303 1.104763,-0.149868 4.65017,-0.177155 5.675271,-0.04368 z m 2.282487,8.422403 c -2.554621,0.909624 -4.738569,1.675626 -4.853211,1.702226 -0.14148,0.03286 -1.733593,-0.55556 -4.957689,-1.83223 -2.733896,-1.082547 -4.817547,-1.859981 -4.910193,-1.832035 -0.192003,0.05796 -0.302347,0.398334 -0.239506,0.738878 0.02496,0.135198 2.006692,7.959104 4.403865,17.386478 4.200668,16.520008 4.366932,17.143909 4.591595,17.229844 0.17364,0.06637 0.266612,0.05633 0.364439,-0.03974 0.161901,-0.158828 10.800663,-33.99686 10.811731,-34.387967 0.01001,-0.35337 -0.219958,-0.716554 -0.418431,-0.660801 -0.08129,0.02294 -2.237983,0.78575 -4.792604,1.695374 z"
   id="path861" /><rect
   style="fill:#c7485e;fill-opacity:1;stroke:#3c4343;stroke-width:0.713339;stroke-opacity:0.9"
   id="rect2803"
   width="7.8061028"
   height="0.092101522"
   x="-44.590443"
   y="-42.59565"
   transform="matrix(-0.99951486,-0.03114561,0.03958615,-0.99921616,0,0)"
   inkscape:transform-center-x="-4.3816829"
   inkscape:transform-center-y="-4.4577911" /><path
   style="fill:#a06f78;fill-opacity:1;stroke:#e27364;stroke-width:0.0558998;stroke-opacity:0.9"
   d="m 42.603221,45.173368 c -0.04375,0.132621 -0.951472,2.999953 -2.017109,6.371927 -1.065631,3.371974 -1.98152,6.20926 -2.035302,6.305065 -0.08466,0.150739 -3.099131,-12.411479 -3.08153,-12.841563 0.0048,-0.117479 0.967316,-0.149004 3.610035,-0.118326 3.369687,0.03912 3.598327,0.05753 3.523903,0.282862 z"
   id="path3397"
   inkscape:transform-center-x="-3.8688995"
   inkscape:transform-center-y="2.3759925" /><text
   xml:space="preserve"
   style="font-size:8.74735px;line-height:1.25;font-family:'Segoe Script';-inkscape-font-specification:'Segoe Script';fill:#e0e0e0;fill-opacity:1;stroke-width:0.218683"
   x="36.260807"
   y="5.0664692"
   id="text9344"
   transform="scale(1.0194521,0.98091903)"><tspan
     sodipodi:role="line"
     id="tspan9342"
     x="36.260807"
     y="5.0664692"
     style="fill:#e0e0e0;fill-opacity:1;stroke-width:0.218683">c</tspan></text><text
   xml:space="preserve"
   style="font-size:7.00946px;line-height:1.25;font-family:'Segoe Script';-inkscape-font-specification:'Segoe Script';fill:#e0e0e0;fill-opacity:1;stroke-width:0.175235"
   x="40.232132"
   y="67.190033"
   id="text11307"
   transform="scale(0.88627048,1.1283237)"><tspan
     sodipodi:role="line"
     id="tspan11305"
     x="40.232132"
     y="67.190033"
     style="fill:#e0e0e0;fill-opacity:1;stroke-width:0.175235">ю</tspan></text><text
   xml:space="preserve"
   style="font-size:8.07304px;line-height:1.25;font-family:'Segoe Script';-inkscape-font-specification:'Segoe Script';fill:#e0e0e0;fill-opacity:1;stroke-width:0.201822"
   x="0.20382871"
   y="49.385895"
   id="text16794"
   transform="scale(1.3740029,0.72780049)"><tspan
     sodipodi:role="line"
     id="tspan16792"
     x="0.20382871"
     y="49.385895"
     style="fill:#e0e0e0;fill-opacity:1;stroke-width:0.201822">з</tspan></text><text
   xml:space="preserve"
   style="font-size:8.40659px;line-height:1.25;font-family:'Segoe Script';-inkscape-font-specification:'Segoe Script';fill:#e0e0e0;fill-opacity:1;stroke-width:0.210168"
   x="50.904602"
   y="51.05526"
   id="text19318"
   transform="scale(1.3892535,0.71981102)"><tspan
     sodipodi:role="line"
     id="tspan19316"
     x="50.904602"
     y="51.05526"
     style="fill:#e0e0e0;fill-opacity:1;stroke-width:0.210168">в</tspan></text><text
   xml:space="preserve"
   style="font-size:14.6397px;line-height:1.25;font-family:'Segoe Script';-inkscape-font-specification:'Segoe Script';fill:#16272a;fill-opacity:0.799714;stroke-width:0.365992"
   x="7.3181357"
   y="45.755802"
   id="text17884"
   transform="scale(1.3048452,0.76637442)"><tspan
     sodipodi:role="line"
     id="tspan17882"
     x="7.3181357"
     y="45.755802"
     style="stroke-width:0.365992">_</tspan></text><text
   xml:space="preserve"
   style="font-size:15.2333px;line-height:1.25;font-family:'Segoe Script';-inkscape-font-specification:'Segoe Script';fill:#16272a;fill-opacity:0.799714;stroke-width:0.38083"
   x="43.946362"
   y="47.226311"
   id="text17884-6"
   transform="scale(1.3577465,0.73651449)"><tspan
     sodipodi:role="line"
     id="tspan17882-2"
     x="43.946362"
     y="47.226311"
     style="stroke-width:0.38083">_</tspan></text><text
   xml:space="preserve"
   style="font-size:13.1488px;line-height:1.25;font-family:'Segoe Script';-inkscape-font-specification:'Segoe Script';fill:#16272a;fill-opacity:0.799714;stroke-width:0.328718"
   x="-51.725414"
   y="49.391071"
   id="text17884-0"
   transform="matrix(-0.01832119,-1.3656796,0.73150731,-0.05433147,0,0)"><tspan
     sodipodi:role="line"
     id="tspan17882-4"
     x="-51.725414"
     y="49.391071"
     style="stroke-width:0.328718">_</tspan></text><text
   xml:space="preserve"
   style="font-size:14.8388px;line-height:1.25;font-family:'Segoe Script';-inkscape-font-specification:'Segoe Script';fill:#16272a;fill-opacity:0.799714;stroke-width:0.370968"
   x="-11.910618"
   y="51.084919"
   id="text17884-9"
   transform="matrix(5.1213251e-4,-1.3348474,0.74914876,0.00144949,0,0)"><tspan
     sodipodi:role="line"
     id="tspan17882-7"
     x="-11.910618"
     y="51.084919"
     style="stroke-width:0.370968">_</tspan></text></svg>
