<?xml version="1.0" encoding="UTF-8" standalone="no"?>
<!-- Generator: Adobe Illustrator 22.0.1, SVG Export Plug-In . SVG Version: 6.00 Build 0)  -->

<svg
   version="1.1"
   id="Layer_1"
   x="0px"
   y="0px"
   viewBox="0 0 77 77"
   xml:space="preserve"
   sodipodi:docname="southwestWind.svg"
   width="77"
   height="77"
   inkscape:version="1.1.1 (3bf5ae0d25, 2021-09-20)"
   xmlns:inkscape="http://www.inkscape.org/namespaces/inkscape"
   xmlns:sodipodi="http://sodipodi.sourceforge.net/DTD/sodipodi-0.dtd"
   xmlns="http://www.w3.org/2000/svg"
   xmlns:svg="http://www.w3.org/2000/svg"><defs
   id="defs7" /><sodipodi:namedview
   id="namedview5"
   pagecolor="#ffffff"
   bordercolor="#666666"
   borderopacity="1.0"
   inkscape:pageshadow="2"
   inkscape:pageopacity="0.0"
   inkscape:pagecheckerboard="0"
   showgrid="false"
   inkscape:zoom="10.158767"
   inkscape:cx="36.027994"
   inkscape:cy="31.155356"
   inkscape:window-width="2400"
   inkscape:window-height="1321"
   inkscape:window-x="2391"
   inkscape:window-y="-9"
   inkscape:window-maximized="1"
   inkscape:current-layer="Layer_1"
   width="140px" />
<path
   d="M 60.628819,59.877829 C 56.647174,63.694613 52.014985,66.245927 46.770252,67.532371 41.52551,68.81881 36.317542,68.736529 31.146331,67.285515 25.975122,65.834507 21.521883,63.139644 17.767068,59.219643 14.955589,56.284478 12.840622,52.903867 11.421137,49.115858 10.001674,45.327847 9.3815145,41.51442 9.4651384,37.693107 9.5487895,33.871782 10.4112,30.081787 12.052371,26.323119 c 1.6412,-3.758681 3.916373,-7.050896 6.922121,-9.932206 2.966702,-2.843884 6.3712,-4.996188 10.175481,-6.4575327 3.804264,-1.4613414 7.644625,-2.1423788 11.446067,-2.0823188 3.80143,0.060052 7.582447,0.8805368 11.305028,2.4607915 3.722581,1.58027 6.990109,3.818982 9.820085,6.773464 2.829993,2.954478 4.963448,6.354398 6.382925,10.142416 1.419466,3.788015 2.05812,7.620737 1.974508,11.442059 -0.08362,3.821322 -0.964528,7.592008 -2.548201,11.332568 -1.583661,3.740573 -3.915349,7.012881 -6.901566,9.875469 z m -4.587165,-4.78897 c 4.625721,-4.434206 7.05568,-9.949104 7.271387,-16.563998 0.176664,-6.577469 -1.955107,-12.164444 -6.41278,-16.818236 -2.922459,-3.05104 -6.402654,-5.159976 -10.423102,-6.2695 -4.020453,-1.10952 -8.086958,-1.211802 -12.183099,-0.211504 -4.096134,1.000288 -7.685597,2.959495 -10.769424,5.915634 -3.0838,2.956142 -5.213044,6.478892 -6.386732,10.530221 -1.173675,4.051332 -1.282944,8.119487 -0.327811,12.204457 0.955141,4.084969 2.89444,7.633956 5.81691,10.684989 2.922462,3.051037 6.402659,5.159971 10.423109,6.2695 4.02044,1.109518 8.106485,1.193093 12.221112,0.212098 4.114632,-0.980989 7.686615,-2.997522 10.77043,-5.953661 z m 2.37309,-20.387952 -32.524068,17.287086 c -0.213666,0.167788 -0.403744,0.164774 -0.570212,-0.009 -0.166435,-0.173821 -0.161362,-0.363896 0.01529,-0.570291 l 18.67013,-31.750509 c 0.1407,-0.283068 0.31535,-0.41343 0.524934,-0.429133 0.209588,-0.01566 0.357559,0.138779 0.443917,0.463454 l 3.880993,9.132959 c 0.106889,0.267951 0.291857,0.461054 0.536406,0.56 l 9.01113,4.326347 c 0.302061,0.08085 0.431535,0.216024 0.388421,0.405523 -0.04315,0.189496 -0.144793,0.435128 -0.376958,0.583611 z"
   id="path2"
   style="fill:#2c4f54;fill-opacity:0.5;stroke:#2e3332;stroke-width:0.165769;stroke-miterlimit:4;stroke-dasharray:none;stroke-opacity:0.9" />
<path
   style="fill:#2c4f53;fill-opacity:0.499285;stroke:#e4e7e7;stroke-width:0.166144;stroke-miterlimit:4;stroke-dasharray:none;stroke-opacity:0.9"
   d="m 57.758044,24.364847 c 0.694241,0.909049 1.39428,1.967517 1.939659,2.932767 3.066635,5.427646 3.545997,12.739681 1.238109,18.885782 -1.242297,3.308332 -2.850421,5.686459 -5.574528,8.243723 -2.795973,2.624906 -5.378047,4.137565 -8.857332,5.189428 -2.345061,0.708947 -4.460743,1.004459 -7.0143,0.979703 -5.067691,-0.04911 -9.522452,-1.506849 -13.56594,-4.439114 -0.842068,-0.610651 -1.153937,-0.899884 -2.701063,-2.504978 -1.877887,-1.948315 -2.350794,-2.551563 -3.366247,-4.294149 -1.533589,-2.631875 -2.626158,-6.117691 -2.919555,-9.314854 -0.119681,-1.304113 -0.01911,-4.023868 0.197855,-5.350117 0.525046,-3.209756 1.66199,-6.227413 3.282015,-8.710999 1.194624,-1.831463 1.688544,-2.409927 3.557413,-4.166402 1.3184,-1.239033 1.901898,-1.737289 2.560436,-2.18591 3.999282,-2.724656 8.765179,-4.127802 13.618848,-4.009558 4.970915,0.121117 9.726162,1.780574 13.568295,4.734991 0.885694,0.681055 3.407249,3.185951 4.036358,4.00968 z m -4.344914,7.551841 c -2.446221,-1.17862 -4.529269,-2.194409 -4.62899,-2.257307 -0.123091,-0.0776 -0.830668,-1.625154 -2.203369,-4.818895 -1.164001,-2.708141 -2.084834,-4.738646 -2.169982,-4.784939 -0.176494,-0.09591 -0.495068,0.06505 -0.691529,0.349437 -0.07799,0.112909 -4.211946,7.02947 -9.186572,15.37016 -8.717266,14.61576 -9.041106,15.173172 -8.943313,15.393588 0.07561,0.17033 0.148333,0.229454 0.285318,0.231486 0.22658,0.0035 31.663448,-16.234295 31.947832,-16.501637 0.256945,-0.241539 0.351463,-0.660836 0.171961,-0.762902 -0.0736,-0.04174 -2.13515,-1.040363 -4.581372,-2.218981 z"
   id="path861" /><rect
   style="fill:#c7485e;fill-opacity:1;stroke:#3c4343;stroke-width:0.713373;stroke-opacity:0.9"
   id="rect2803"
   width="7.8256044"
   height="0.091879539"
   x="-58.879818"
   y="-3.3796957"
   transform="matrix(-0.69596165,-0.71807895,0.72285296,-0.69100188,0,0)"
   inkscape:transform-center-x="-6.2432165"
   inkscape:transform-center-y="-0.14075722" /><path
   style="fill:#a06f78;fill-opacity:1;stroke:#e27364;stroke-width:0.0580108;stroke-opacity:0.9"
   d="m 37.810126,44.994131 c -0.127023,0.06688 -2.84536,1.5412 -6.040766,3.276351 -3.195405,1.735152 -5.8982,3.180959 -6.0062,3.212887 -0.169951,0.05022 6.620207,-11.574623 6.941133,-11.883356 0.08762,-0.08437 0.815022,0.603246 2.728134,2.578803 2.439375,2.519002 2.593604,2.70171 2.377719,2.815287 z"
   id="path3397"
   inkscape:transform-center-x="-2.1840989"
   inkscape:transform-center-y="3.1795582" /><g
   aria-label="c"
   transform="scale(1.0217289,0.9787332)"
   id="text9344"
   style="font-size:8.72807px;line-height:1.25;font-family:'Segoe Script';-inkscape-font-specification:'Segoe Script';fill:#e0e0e0;stroke-width:0.218201"><path
     d="m 41.633929,3.5677327 q 0,0.1534231 -0.110806,0.277014 -0.115067,0.1278526 -0.200302,0.2173494 -0.08523,0.085235 -0.161947,0.1576848 -0.07671,0.07245 -0.161947,0.1406379 -0.08524,0.063926 -0.200302,0.1491613 -0.323893,0.2343965 -0.617954,0.3963431 -0.294061,0.1576848 -0.571075,0.2599669 -0.277014,0.09802 -0.549766,0.1406379 -0.268491,0.042617 -0.541243,0.042617 -0.285537,0 -0.51141,-0.1065438 Q 37.781304,5.1317961 37.623619,4.944279 37.470196,4.7567618 37.389223,4.5095801 37.308249,4.2581367 37.308249,3.9811228 V 3.959814 q 0,-0.2812757 0.07245,-0.5966454 0.07245,-0.3196315 0.200302,-0.639263 0.132115,-0.3196315 0.31537,-0.6264777 0.183256,-0.311108 0.404867,-0.5795984 0.0895,-0.1065438 0.213087,-0.2258729 0.127853,-0.1235909 0.268491,-0.2258729 0.144899,-0.1022821 0.298323,-0.16620839 0.157684,-0.068188 0.306846,-0.068188 0.102282,0 0.19604,0.0639263 0.09376,0.0596646 0.174732,0.15768485 0.08097,0.09802 0.149162,0.2216112 0.06819,0.1193291 0.115067,0.2471817 0.04688,0.1235908 0.07245,0.2386581 0.02557,0.1150674 0.02557,0.1960407 0,0.1235908 -0.07671,0.3196314 -0.07671,0.1960407 -0.183256,0.1960407 -0.153423,0 -0.255705,-0.2088259 -0.03836,-0.080973 -0.06819,-0.1875172 -0.02557,-0.1065438 -0.06393,-0.2088259 -0.03409,-0.102282 -0.09376,-0.1875171 -0.05966,-0.089497 -0.166208,-0.1321143 -0.106544,0.02557 -0.217349,0.1108055 -0.106544,0.085235 -0.213088,0.2088259 -0.102282,0.1235909 -0.204564,0.2812758 -0.09802,0.1534231 -0.187517,0.3196314 -0.08523,0.1534231 -0.166209,0.3537255 -0.08097,0.1960407 -0.144899,0.4091283 -0.06393,0.2088259 -0.102282,0.4176518 -0.03836,0.2088259 -0.03836,0.3835578 0,0.1235908 0.05966,0.2514434 0.05967,0.1235909 0.153423,0.2258729 0.09802,0.1022821 0.21735,0.1662084 0.123591,0.063926 0.251443,0.063926 0.63074,0 1.252956,-0.2599669 0.622216,-0.259967 1.184767,-0.7543303 0.311108,-0.2727522 0.515672,-0.2727522 0.05967,0 0.05967,0.1150673 z"
     id="path3217" /></g><g
   aria-label="ю"
   transform="scale(0.88824991,1.1258093)"
   id="text11307"
   style="font-size:6.994px;line-height:1.25;font-family:'Segoe Script';-inkscape-font-specification:'Segoe Script';fill:#e0e0e0;stroke-width:0.174847"><path
     d="m 41.727997,65.871823 q 0,-0.01366 -0.01708,-0.0239 -0.01366,-0.01366 -0.03415,-0.03415 -0.02049,-0.02049 -0.03757,-0.05464 -0.01366,-0.03415 -0.01366,-0.09562 0,-0.05464 0.03074,-0.09904 0.03073,-0.0444 0.06489,-0.08196 0.03757,-0.03757 0.0683,-0.0683 0.03415,-0.03074 0.04098,-0.05806 0.05805,-0.327844 0.09904,-0.618122 0.04098,-0.290278 0.05123,-0.484935 0.0034,-0.05806 0,-0.119527 0,-0.06147 -0.0034,-0.122941 -0.0034,-0.0444 -0.0068,-0.08538 0,-0.04098 0,-0.07855 0,-0.04098 0.03074,-0.09221 0.03073,-0.05123 0.07513,-0.09562 0.04781,-0.0444 0.102452,-0.07172 0.05805,-0.03073 0.112696,-0.03073 0.04781,0 0.09562,0.02732 0.04781,0.0239 0.08538,0.07172 0.03757,0.0444 0.06147,0.112696 0.0239,0.06489 0.0239,0.146847 0,0.06147 -0.01024,0.150261 -0.01024,0.08879 -0.02732,0.194658 -0.01708,0.105866 -0.04098,0.221977 -0.02049,0.116112 -0.04098,0.232223 -0.02732,0.160507 -0.05464,0.307353 -0.0239,0.146847 -0.03757,0.252713 0.01366,0.03074 0.0239,0.05464 0.01366,0.02049 0.03415,0.03415 0.02049,0.01366 0.05123,0.02049 0.03415,0.0068 0.08879,0.0068 0.146847,0 0.310768,-0.03074 0.163922,-0.03073 0.310769,-0.07855 0.146847,-0.04781 0.262958,-0.09904 0.119526,-0.05464 0.177582,-0.102451 0.03757,-0.03073 0.08196,-0.08196 0.04781,-0.05123 0.09562,-0.109281 0.04781,-0.06147 0.09221,-0.119527 0.04781,-0.06147 0.08196,-0.105866 0.116111,-0.146846 0.262958,-0.286863 0.146847,-0.140017 0.324429,-0.245883 0.177582,-0.105866 0.382484,-0.170752 0.208317,-0.06489 0.450785,-0.06489 0.184412,0 0.361994,0.09221 0.177582,0.08879 0.314184,0.242467 0.140017,0.153677 0.221977,0.355164 0.08538,0.198073 0.08538,0.416635 0,0.218563 -0.0444,0.39956 -0.04098,0.177582 -0.133187,0.379069 -0.05123,0.105866 -0.177582,0.252713 -0.126356,0.146847 -0.303938,0.303938 -0.174167,0.157092 -0.382484,0.310769 -0.208318,0.153677 -0.423465,0.276618 -0.215148,0.122941 -0.423465,0.198072 -0.204902,0.07513 -0.372239,0.07513 -0.225393,0 -0.3859,-0.07513 -0.160507,-0.07855 -0.262958,-0.201487 -0.102451,-0.126356 -0.150262,-0.286863 -0.04781,-0.160507 -0.04781,-0.324429 0,-0.133186 0.03757,-0.321014 0.04098,-0.191242 0.136602,-0.385899 -0.129772,0.08196 -0.290278,0.129771 -0.157092,0.04781 -0.290279,0.08538 -0.05805,0.01708 -0.129771,0.03074 -0.07172,0.01024 -0.143432,0.02049 -0.0683,0.01024 -0.133186,0.02049 -0.06147,0.01024 -0.105867,0.01708 -0.0683,0.01366 -0.09562,0.05464 -0.0239,0.03757 -0.03757,0.09904 -0.01366,0.05806 -0.04098,0.153677 -0.02732,0.09562 -0.05464,0.198072 -0.03074,0.109281 -0.06489,0.225393 -0.03415,0.116111 -0.06147,0.221977 -0.0239,0.102452 -0.0444,0.191243 -0.01707,0.08538 -0.01707,0.133186 0,0.0444 -0.03757,0.09562 -0.03415,0.05123 -0.08196,0.09562 -0.04439,0.04781 -0.09221,0.07855 -0.0444,0.03074 -0.0683,0.03074 -0.05123,0 -0.09904,-0.03415 -0.0444,-0.03415 -0.07855,-0.07855 -0.03415,-0.0444 -0.05464,-0.08879 -0.02049,-0.04781 -0.02049,-0.07172 0,-0.03073 0.0239,-0.109281 0.02732,-0.07855 0.05464,-0.160507 0.01708,-0.05123 0.0444,-0.140016 0.02732,-0.08879 0.05464,-0.194658 0.03073,-0.109281 0.05806,-0.225392 0.03074,-0.116111 0.05464,-0.218563 0.0239,-0.102451 0.03757,-0.177582 0.01366,-0.07855 0.01366,-0.112696 z m 4.115123,-0.771799 q 0,-0.341504 -0.198073,-0.532746 -0.194657,-0.194657 -0.560066,-0.194657 -0.05123,0 -0.126357,0.04098 -0.07513,0.04098 -0.163921,0.105867 -0.08538,0.06147 -0.174167,0.136601 -0.08538,0.07513 -0.163922,0.146847 -0.07513,0.07172 -0.129772,0.129771 -0.05464,0.05806 -0.07513,0.08196 -0.07171,0.08538 -0.150261,0.235638 -0.07513,0.146847 -0.140017,0.317599 -0.06489,0.170752 -0.109281,0.344919 -0.04098,0.170751 -0.04098,0.300523 0,0.07855 0.02049,0.160507 0.0239,0.08196 0.0683,0.150262 0.04781,0.06489 0.119527,0.109281 0.07172,0.04098 0.167337,0.04098 0.105866,0 0.269788,-0.06147 0.163922,-0.06147 0.344919,-0.170752 0.184412,-0.109282 0.368824,-0.259543 0.187827,-0.150262 0.334674,-0.324429 0.150261,-0.174167 0.242467,-0.365409 0.09562,-0.194657 0.09562,-0.39273 z"
     id="path3259" /></g><g
   aria-label="з"
   transform="scale(1.3770716,0.72617863)"
   id="text16794"
   style="font-size:8.05512px;line-height:1.25;font-family:'Segoe Script';-inkscape-font-specification:'Segoe Script';fill:#e0e0e0;stroke-width:0.201377"><path
     d="m 1.213418,49.964536 q 0.039332,0 0.062931,0.02753 0.027532,0.02753 0.043265,0.06686 0.015733,0.04326 0.019666,0.0944 0.00787,0.05113 0.00787,0.09833 0,0.09046 0.031465,0.196659 0.035399,0.106195 0.1101286,0.196658 0.078663,0.09046 0.2005914,0.14946 0.1219281,0.06293 0.2989205,0.06293 0.239923,0 0.4955787,-0.125862 0.2556557,-0.125861 0.4680465,-0.350051 0.2123909,-0.224191 0.3461185,-0.534911 0.1376608,-0.306786 0.1376608,-0.672571 0,-0.338252 -0.070797,-0.574242 -0.070797,-0.235989 -0.1848587,-0.381517 -0.1101286,-0.14946 -0.2556557,-0.216324 -0.1455271,-0.06686 -0.2910542,-0.06686 -0.055064,0 -0.1219281,0.02753 -0.066864,0.0236 -0.1376607,0.06293 -0.066864,0.0354 -0.1376608,0.07866 -0.066864,0.04327 -0.121928,0.07866 -0.094396,0.06293 -0.1809256,0.106195 -0.082596,0.04326 -0.2202572,0.04326 -0.1061954,0 -0.1848587,-0.07866 -0.07473,-0.0826 -0.07473,-0.216324 0,-0.102262 0.070797,-0.173059 0.07473,-0.0708 0.2281235,-0.133728 0.3264527,-0.133727 0.5821084,-0.271388 0.2595888,-0.141594 0.4365812,-0.302854 0.1769924,-0.165193 0.2713883,-0.361851 0.094396,-0.196658 0.094396,-0.448381 0,-0.09833 -0.031465,-0.192725 -0.027532,-0.09833 -0.08653,-0.173059 -0.058997,-0.07866 -0.145527,-0.125861 -0.082597,-0.05113 -0.1927251,-0.05113 -0.2359898,0 -0.4483807,0.145527 -0.2123909,0.145527 -0.4169154,0.357918 -0.090463,0.0944 -0.1494603,0.13766 -0.058997,0.03933 -0.1258612,0.03933 -0.055064,0 -0.098329,-0.02753 -0.039332,-0.03146 -0.066864,-0.0708 -0.023599,-0.04326 -0.039332,-0.09046 -0.011799,-0.05113 -0.011799,-0.08653 0,-0.0944 0.051131,-0.176993 0.055064,-0.08653 0.145527,-0.16126 0.1966583,-0.165193 0.3854501,-0.271388 0.1887919,-0.106195 0.31072,-0.157327 0.1376608,-0.05506 0.2831879,-0.106195 0.1494602,-0.05113 0.2792546,-0.05113 0.1848587,0 0.3539848,0.06686 0.1691261,0.06293 0.2949873,0.188792 0.1297944,0.121928 0.2045246,0.302853 0.078663,0.180926 0.078663,0.409049 0,0.330386 -0.1612598,0.656839 -0.1573266,0.326452 -0.5388435,0.633239 0.263522,0.0118 0.4601802,0.133728 0.1966582,0.121928 0.3264527,0.322519 0.1337276,0.200592 0.1966582,0.464114 0.066864,0.259588 0.066864,0.550643 0,0.291054 -0.078663,0.578175 -0.078663,0.287121 -0.2241904,0.550643 -0.1415939,0.263522 -0.3421853,0.487712 -0.1966582,0.224191 -0.4365812,0.389383 -0.2359899,0.165193 -0.5073782,0.259589 -0.2674552,0.0944 -0.550643,0.0944 -0.2713883,0 -0.4719797,-0.09046 -0.2005914,-0.08653 -0.334319,-0.220257 -0.1297944,-0.133727 -0.19665819,-0.287121 -0.0668638,-0.153393 -0.0668638,-0.283188 0,-0.09833 0.0353985,-0.21239 0.0393317,-0.114062 0.0865296,-0.180926 0.0314653,-0.04326 0.0904628,-0.09046 0.058998,-0.04326 0.1494602,-0.04326 z"
     id="path3280" /></g><g
   aria-label="в"
   transform="scale(1.3923562,0.718207)"
   id="text19318"
   style="font-size:8.38809px;line-height:1.25;font-family:'Segoe Script';-inkscape-font-specification:'Segoe Script';fill:#e0e0e0;stroke-width:0.209704"><path
     d="m 54.39755,46.056656 q 0,-0.04915 -0.02048,-0.0983 -0.01638,-0.05324 -0.05325,-0.0942 -0.03277,-0.04505 -0.09011,-0.07372 -0.05324,-0.02867 -0.126969,-0.02867 -0.143351,0 -0.298989,0.102394 -0.151543,0.102393 -0.307181,0.282606 -0.151543,0.176117 -0.294894,0.421862 -0.143351,0.241649 -0.266223,0.524256 -0.122873,0.282606 -0.221171,0.593883 -0.0942,0.307181 -0.151542,0.618458 0.03686,-0.02458 0.110585,-0.07782 0.07372,-0.05734 0.16383,-0.126969 0.0942,-0.07372 0.196595,-0.155638 0.10649,-0.08601 0.200692,-0.167926 0.0983,-0.08191 0.180213,-0.155638 0.08191,-0.07372 0.131064,-0.126968 0.454628,-0.49149 0.651224,-0.851916 0.196596,-0.360425 0.196596,-0.585691 z m -0.126969,4.415215 q -0.126968,0.188404 -0.307181,0.368617 -0.176117,0.176117 -0.389096,0.311277 -0.212979,0.13516 -0.454628,0.212979 -0.237553,0.07782 -0.483298,0.05734 -0.172021,-0.01229 -0.32766,-0.110585 -0.155638,-0.102393 -0.274415,-0.286702 -0.118776,-0.188404 -0.188404,-0.458724 -0.06963,-0.270319 -0.06963,-0.622553 0,-0.225266 0.02457,-0.487394 0.02457,-0.266224 0.06553,-0.536543 0.04096,-0.270319 0.09011,-0.528351 0.05324,-0.258033 0.102394,-0.475107 0.06553,-0.294894 0.172021,-0.581596 0.10649,-0.290798 0.237554,-0.557022 0.131064,-0.270319 0.282606,-0.507873 0.151543,-0.237553 0.311277,-0.430053 0.22117,-0.258032 0.503777,-0.41367 0.286702,-0.155639 0.671702,-0.155639 0.159735,0 0.290798,0.06553 0.131064,0.06553 0.225267,0.172022 0.0942,0.102393 0.143351,0.233457 0.05324,0.131064 0.05324,0.258032 0,0.176117 -0.07372,0.393192 -0.06963,0.212979 -0.204787,0.446436 -0.13516,0.233458 -0.32766,0.471011 -0.1925,0.237554 -0.438245,0.458724 0.05734,0.0041 0.131064,0.02048 0.07782,0.01229 0.159734,0.04915 0.08601,0.03686 0.172021,0.0983 0.09011,0.06144 0.172022,0.155638 0.03686,0.04505 0.08192,0.122872 0.04505,0.07372 0.08192,0.184309 0.04096,0.106489 0.06553,0.245745 0.02867,0.139255 0.02867,0.307181 0,0.32766 -0.118777,0.708564 -0.114681,0.376809 -0.409575,0.810958 z M 54.1559,48.964636 q 0,-0.225266 -0.06553,-0.376809 -0.06553,-0.155638 -0.155638,-0.245744 -0.09011,-0.0942 -0.184309,-0.131064 -0.0942,-0.04096 -0.151542,-0.04096 -0.05324,0 -0.167926,0.08192 -0.114681,0.08192 -0.245745,0.180213 -0.0983,0.08601 -0.196596,0.159734 -0.0983,0.07372 -0.184308,0.143351 -0.08192,0.06963 -0.151543,0.139256 -0.06963,0.06963 -0.114681,0.147447 -0.114681,0.208883 -0.135159,0.475106 -0.02048,0.266224 -0.02048,0.544735 0,0.184308 0.03686,0.331755 0.04096,0.143351 0.0983,0.245745 0.06144,0.102394 0.131063,0.159734 0.06963,0.05324 0.126969,0.05324 0.139255,0 0.315372,-0.05734 0.176117,-0.05734 0.360426,-0.225266 0.159734,-0.147447 0.286702,-0.331755 0.131064,-0.184309 0.221171,-0.389096 0.0942,-0.204788 0.143351,-0.425958 0.05324,-0.22117 0.05324,-0.438245 z"
     id="path3238" /></g><text
   xml:space="preserve"
   style="font-size:14.6071px;line-height:1.25;font-family:'Segoe Script';-inkscape-font-specification:'Segoe Script';fill:#16272a;fill-opacity:0.799714;stroke-width:0.365177"
   x="7.7061586"
   y="46.008083"
   id="text17884"
   transform="scale(1.3077329,0.76468216)"><tspan
     sodipodi:role="line"
     id="tspan17882"
     x="7.7061586"
     y="46.008083"
     style="stroke-width:0.365177">_</tspan></text><text
   xml:space="preserve"
   style="font-size:15.5148px;line-height:1.25;font-family:'Segoe Script';-inkscape-font-specification:'Segoe Script';fill:#16272a;fill-opacity:0.799714;stroke-width:0.387868"
   x="43.405201"
   y="48.475445"
   id="text17884-6"
   transform="scale(1.3889969,0.71994403)"><tspan
     sodipodi:role="line"
     id="tspan17882-2"
     x="43.405201"
     y="48.475445"
     style="stroke-width:0.387868">_</tspan></text><text
   xml:space="preserve"
   style="font-size:13.63px;line-height:1.25;font-family:'Segoe Script';-inkscape-font-specification:'Segoe Script';fill:#16272a;fill-opacity:0.799714;stroke-width:0.340749"
   x="-50.028301"
   y="52.1315"
   id="text17884-0"
   transform="matrix(-0.01767461,-1.4156384,0.70569194,-0.056319,0,0)"><tspan
     sodipodi:role="line"
     id="tspan17882-4"
     x="-50.028301"
     y="52.1315"
     style="stroke-width:0.340749">_</tspan></text><text
   xml:space="preserve"
   style="font-size:14.4263px;line-height:1.25;font-family:'Segoe Script';-inkscape-font-specification:'Segoe Script';fill:#16272a;fill-opacity:0.799714;stroke-width:0.360656"
   x="-12.430909"
   y="50.437244"
   id="text17884-9"
   transform="matrix(5.2678543e-4,-1.2977177,0.77058305,0.00140916,0,0)"><tspan
     sodipodi:role="line"
     id="tspan17882-7"
     x="-12.430909"
     y="50.437244"
     style="stroke-width:0.360656">_</tspan></text></svg>
