<?xml version="1.0" encoding="UTF-8" standalone="no"?>
<!-- Generator: Adobe Illustrator 22.0.1, SVG Export Plug-In . SVG Version: 6.00 Build 0)  -->

<svg
   version="1.1"
   id="Layer_1"
   x="0px"
   y="0px"
   viewBox="0 0 77 77"
   xml:space="preserve"
   sodipodi:docname="southEastWind.svg"
   width="77"
   height="77"
   inkscape:version="1.1.1 (3bf5ae0d25, 2021-09-20)"
   xmlns:inkscape="http://www.inkscape.org/namespaces/inkscape"
   xmlns:sodipodi="http://sodipodi.sourceforge.net/DTD/sodipodi-0.dtd"
   xmlns="http://www.w3.org/2000/svg"
   xmlns:svg="http://www.w3.org/2000/svg"><defs
   id="defs7" /><sodipodi:namedview
   id="namedview5"
   pagecolor="#ffffff"
   bordercolor="#666666"
   borderopacity="1.0"
   inkscape:pageshadow="2"
   inkscape:pageopacity="0.0"
   inkscape:pagecheckerboard="0"
   showgrid="false"
   inkscape:zoom="10.158767"
   inkscape:cx="39.079546"
   inkscape:cy="39.030327"
   inkscape:window-width="2400"
   inkscape:window-height="1321"
   inkscape:window-x="2391"
   inkscape:window-y="-9"
   inkscape:window-maximized="1"
   inkscape:current-layer="Layer_1"
   width="140px" />
<path
   d="m 58.716338,15.376845 c 4.297192,3.458385 7.409534,7.708059 9.333007,12.711577 1.92347,5.003524 2.475277,10.134799 1.655445,15.393847 -0.819836,5.259043 -2.96953,9.96101 -6.428006,14.122877 -2.589586,3.116264 -5.708905,5.600941 -9.319834,7.45048 -3.61093,1.849516 -7.344555,2.916059 -11.171734,3.291451 C 38.958022,68.72245 35.067321,68.32825 31.113105,67.164483 27.158872,66.000686 23.5934,64.157589 20.349431,61.546848 17.147598,58.970023 14.58327,55.879854 12.660451,52.313801 10.737638,48.747762 9.5898524,45.052779 9.1870652,41.307315 8.7842705,37.561865 9.1435387,33.745421 10.26883,29.895453 c 1.125308,-3.849966 2.963709,-7.331301 5.570341,-10.46807 2.606625,-3.136785 5.742983,-5.641953 9.353919,-7.491485 3.610936,-1.849521 7.361581,-2.936559 11.188767,-3.3119662 3.827188,-0.3753947 7.700854,0.039301 11.629982,1.148699 3.929142,1.1093752 7.48161,3.0104322 10.704499,5.6042142 z m -4.225131,5.084447 c -4.992326,-4.017821 -10.796811,-5.746949 -17.430496,-5.166886 -6.591549,0.613969 -11.912697,3.379396 -16.018566,8.320323 -2.691822,3.239276 -4.374706,6.9142 -4.993535,11.000711 -0.618827,4.086515 -0.225948,8.097693 1.271876,12.00597 1.497813,3.908272 3.891779,7.203459 7.219998,9.882019 3.328218,2.678533 7.106201,4.350519 11.295838,5.019524 4.189637,0.668995 8.266499,0.289256 12.230579,-1.139211 3.964082,-1.428474 7.272973,-3.760566 9.964788,-6.999854 2.691818,-3.23928 4.374701,-6.914203 4.993537,-11.000717 0.618821,-4.086505 0.204877,-8.114654 -1.275913,-12.043426 -1.480789,-3.928773 -3.929887,-7.199904 -7.258106,-9.878453 z M 33.837383,20.56925 55.064351,50.482578 c 0.193611,0.190025 0.213743,0.377304 0.06038,0.561822 -0.15338,0.184474 -0.343843,0.202259 -0.571509,0.05326 L 20.565707,36.540144 c -0.299875,-0.104463 -0.45135,-0.260598 -0.492551,-0.464818 -0.04115,-0.204231 0.09509,-0.36824 0.408888,-0.492044 l 8.650184,-4.910239 c 0.254635,-0.137203 0.425002,-0.342224 0.494067,-0.594556 l 3.224467,-9.3795 c 0.04397,-0.306723 0.163245,-0.450231 0.357781,-0.430527 0.194534,0.01974 0.452264,0.09027 0.628842,0.300804 z"
   id="path2"
   style="fill:#2c4f54;fill-opacity:0.5;stroke:#2e3332;stroke-width:0.165508;stroke-miterlimit:4;stroke-dasharray:none;stroke-opacity:0.9" />
<path
   style="fill:#2c4f53;fill-opacity:0.499285;stroke:#e4e7e7;stroke-width:0.164482;stroke-miterlimit:4;stroke-dasharray:none;stroke-opacity:0.9"
   d="m 23.580057,22.618696 c 0.815738,-0.785555 1.779449,-1.595303 2.670222,-2.243648 5.00887,-3.64561 12.225239,-5.019403 18.638703,-3.548286 3.45225,0.791886 6.025568,2.053825 8.920359,4.374496 2.971343,2.381871 4.808182,4.694887 6.301493,7.934307 1.006482,2.183395 1.572031,4.196021 1.874991,6.672633 0.601236,4.914984 -0.278171,9.411452 -2.678002,13.692933 -0.499767,0.891631 -0.747637,1.2297 -2.146749,2.927982 -1.69831,2.061354 -2.238058,2.594482 -3.84223,3.79485 -2.422831,1.812876 -5.7522,3.304765 -8.896785,3.986621 -1.282661,0.278138 -4.002612,0.518995 -5.350497,0.473787 -3.262116,-0.109369 -6.411531,-0.835352 -9.091346,-2.095708 -1.976169,-0.929391 -2.615293,-1.335885 -4.603317,-2.92772 -1.402381,-1.122971 -1.973167,-1.62621 -2.504175,-2.208315 -3.224997,-3.535064 -5.233004,-7.977087 -5.737986,-12.693356 -0.517167,-4.8302 0.524481,-9.642827 2.972186,-13.732019 0.564251,-0.942645 2.733952,-3.696735 3.473124,-4.408581 z m 8.073963,3.269466 c -0.859288,2.516156 -1.603093,4.660266 -1.652908,4.764686 -0.06145,0.128884 -1.510991,1.006769 -4.513705,2.733684 -2.546159,1.464355 -4.449045,2.608882 -4.484195,2.69712 -0.07282,0.182891 0.128264,0.471462 0.436519,0.626394 0.122389,0.06149 7.536979,3.20564 16.476889,6.986972 15.665813,6.626201 16.262159,6.870564 16.469003,6.748422 0.15983,-0.09443 0.209356,-0.172224 0.193788,-0.305179 -0.02561,-0.219916 -20.220547,-28.651985 -20.523122,-28.894203 -0.27338,-0.21885 -0.702841,-0.258255 -0.781402,-0.07168 -0.0321,0.07648 -0.761582,2.197638 -1.620868,4.713792 z"
   id="path861" /><rect
   style="fill:#c7485e;fill-opacity:1;stroke:#3c4343;stroke-width:0.671308;stroke-opacity:0.9"
   id="rect2803"
   width="7.3778014"
   height="0.086301304"
   x="-0.20072262"
   y="-60.789078"
   transform="matrix(-0.62534287,0.78035011,-0.76233084,-0.64718753,0,0)"
   inkscape:transform-center-x="0.79686555"
   inkscape:transform-center-y="-5.883953" /><path
   style="fill:#a06f78;fill-opacity:1;stroke:#e27364;stroke-width:0.0530596;stroke-opacity:0.9"
   d="m 46.97067,39.818437 c 0.07552,0.108727 1.72993,2.430349 3.676561,5.159163 1.946633,2.728809 3.573652,5.039598 3.615593,5.135073 0.06597,0.15025 -11.158146,-4.683539 -11.473718,-4.94126 -0.08622,-0.07037 0.437299,-0.823137 1.963405,-2.82331 1.945913,-2.550389 2.089877,-2.714486 2.218132,-2.529683 z"
   id="path3397"
   inkscape:transform-center-x="-2.8876602"
   inkscape:transform-center-y="-2.7186885" /><g
   aria-label="c"
   transform="scale(1.0244784,0.97610648)"
   id="text9344"
   style="font-size:8.56815px;line-height:1.25;font-family:'Segoe Script';-inkscape-font-specification:'Segoe Script';fill:#e0e0e0;stroke-width:0.214203"><path
     d="m 41.08127,4.5283179 q 0,0.150612 -0.108775,0.2719383 -0.112959,0.12551 -0.196632,0.213367 -0.08367,0.083673 -0.15898,0.1547957 -0.07531,0.071122 -0.158979,0.138061 -0.08367,0.062755 -0.196632,0.1464284 -0.317959,0.2301016 -0.606632,0.389081 -0.288673,0.1547956 -0.560611,0.2552036 -0.271939,0.096224 -0.539693,0.138061 -0.263571,0.041837 -0.531326,0.041837 -0.280306,0 -0.50204,-0.1045917 Q 37.299236,6.0637236 37.14444,5.8796423 36.993828,5.6955609 36.914338,5.4529083 36.834849,5.2060719 36.834849,4.9341336 v -0.020918 q 0,-0.276122 0.07112,-0.5857133 0.07112,-0.313775 0.196632,-0.62755 0.129694,-0.313775 0.309592,-0.614999 0.179897,-0.3054077 0.397448,-0.5689787 0.08786,-0.1045917 0.209183,-0.2217344 0.12551,-0.1213263 0.263571,-0.2217343 0.142245,-0.100408 0.292857,-0.163163 0.154796,-0.066939 0.301224,-0.066939 0.100408,0 0.192449,0.062755 0.09204,0.058571 0.17153,0.1547957 0.07949,0.096224 0.146428,0.2175507 0.06694,0.1171426 0.112959,0.2426526 0.04602,0.1213264 0.07112,0.2342854 0.0251,0.112959 0.0251,0.1924487 0,0.1213263 -0.07531,0.313775 -0.07531,0.1924486 -0.179898,0.1924486 -0.150612,0 -0.25102,-0.2049996 -0.03765,-0.07949 -0.06694,-0.1840814 -0.0251,-0.1045916 -0.06275,-0.2049996 -0.03347,-0.100408 -0.09204,-0.1840814 -0.05857,-0.087857 -0.163163,-0.1296937 -0.104592,0.025102 -0.213367,0.1087754 -0.104592,0.083673 -0.209184,0.2049997 -0.100408,0.1213263 -0.200816,0.276122 -0.09622,0.150612 -0.184081,0.313775 -0.08367,0.150612 -0.163163,0.3472443 -0.07949,0.1924487 -0.142245,0.401632 -0.06276,0.2049997 -0.100408,0.4099994 -0.03765,0.2049996 -0.03765,0.37653 0,0.1213263 0.05857,0.2468363 0.05857,0.1213264 0.150612,0.2217344 0.09622,0.100408 0.213367,0.163163 0.121326,0.062755 0.246836,0.062755 0.619183,0 1.229998,-0.2552037 0.610815,-0.2552037 1.163059,-0.740509 0.305408,-0.2677547 0.506224,-0.2677547 0.05857,0 0.05857,0.112959 z"
     id="path3049" /></g><g
   aria-label="ю"
   transform="scale(0.89064014,1.1227879)"
   id="text11307"
   style="font-size:6.86581px;line-height:1.25;font-family:'Segoe Script';-inkscape-font-specification:'Segoe Script';fill:#e0e0e0;stroke-width:0.171644"><path
     d="m 41.205195,65.556938 q 0,-0.01341 -0.01676,-0.02347 -0.01341,-0.01341 -0.03352,-0.03352 -0.02012,-0.02011 -0.03688,-0.05364 -0.01341,-0.03352 -0.01341,-0.09387 0,-0.05364 0.03017,-0.09722 0.03017,-0.04358 0.0637,-0.08046 0.03688,-0.03688 0.06705,-0.06705 0.03353,-0.03017 0.04023,-0.05699 0.05699,-0.321835 0.09722,-0.606793 0.04023,-0.284958 0.05029,-0.476047 0.0034,-0.05699 0,-0.117336 0,-0.06034 -0.0034,-0.120688 -0.0034,-0.04358 -0.0067,-0.08381 0,-0.04023 0,-0.07711 0,-0.04023 0.03017,-0.09052 0.03017,-0.05029 0.07375,-0.09387 0.04693,-0.04358 0.100573,-0.0704 0.05699,-0.03017 0.110631,-0.03017 0.04693,0 0.09387,0.02682 0.04693,0.02347 0.08381,0.0704 0.03688,0.04358 0.06034,0.110631 0.02347,0.0637 0.02347,0.144155 0,0.06034 -0.01006,0.147507 -0.01006,0.08716 -0.02682,0.19109 -0.01676,0.103926 -0.04023,0.217909 -0.02012,0.113983 -0.04023,0.227966 -0.02682,0.157565 -0.05364,0.30172 -0.02347,0.144156 -0.03688,0.248081 0.01341,0.03017 0.02347,0.05364 0.01341,0.02011 0.03352,0.03352 0.02011,0.01341 0.05029,0.02012 0.03352,0.0067 0.08716,0.0067 0.144155,0 0.305073,-0.03017 0.160917,-0.03017 0.305072,-0.07711 0.144155,-0.04693 0.258139,-0.09722 0.117335,-0.05364 0.174327,-0.100573 0.03688,-0.03017 0.08046,-0.08046 0.04693,-0.05029 0.09387,-0.107278 0.04693,-0.06034 0.09052,-0.117336 0.04693,-0.06034 0.08046,-0.103925 0.113983,-0.144156 0.258138,-0.281606 0.144155,-0.13745 0.318483,-0.241376 0.174327,-0.103926 0.375474,-0.167622 0.204499,-0.0637 0.442522,-0.0637 0.181033,0 0.35536,0.09052 0.174327,0.08716 0.308425,0.238024 0.13745,0.15086 0.217909,0.348654 0.08381,0.194442 0.08381,0.408999 0,0.214556 -0.04358,0.392236 -0.04023,0.174327 -0.130745,0.372121 -0.05029,0.103926 -0.174327,0.248081 -0.124041,0.144156 -0.298368,0.298368 -0.170975,0.154213 -0.375474,0.305073 -0.204499,0.15086 -0.415703,0.271548 -0.211205,0.120688 -0.415704,0.194442 -0.201147,0.07375 -0.365416,0.07375 -0.221262,0 -0.378827,-0.07375 -0.157565,-0.07711 -0.258138,-0.197794 -0.100574,-0.124041 -0.147508,-0.281606 -0.04693,-0.157565 -0.04693,-0.318482 0,-0.130746 0.03688,-0.31513 0.04023,-0.187737 0.134098,-0.378827 -0.127393,0.08046 -0.284958,0.127393 -0.154213,0.04693 -0.284958,0.08381 -0.05699,0.01676 -0.127393,0.03017 -0.0704,0.01006 -0.140803,0.02012 -0.06705,0.01006 -0.130745,0.02012 -0.06034,0.01006 -0.103926,0.01676 -0.06705,0.01341 -0.09387,0.05364 -0.02347,0.03688 -0.03688,0.09722 -0.01341,0.05699 -0.04023,0.15086 -0.02682,0.09387 -0.05364,0.194442 -0.03017,0.107278 -0.0637,0.221261 -0.03352,0.113984 -0.06034,0.217909 -0.02347,0.100574 -0.04358,0.187737 -0.01676,0.08381 -0.01676,0.130746 0,0.04358 -0.03688,0.09387 -0.03352,0.05029 -0.08046,0.09387 -0.04358,0.04693 -0.09052,0.07711 -0.04358,0.03017 -0.06705,0.03017 -0.05029,0 -0.09722,-0.03352 -0.04358,-0.03352 -0.07711,-0.07711 -0.03353,-0.04358 -0.05364,-0.08716 -0.02011,-0.04693 -0.02011,-0.0704 0,-0.03017 0.02347,-0.107278 0.02682,-0.07711 0.05364,-0.157565 0.01676,-0.05029 0.04358,-0.13745 0.02682,-0.08716 0.05364,-0.19109 0.03017,-0.107278 0.05699,-0.221261 0.03017,-0.113983 0.05364,-0.214557 0.02347,-0.100573 0.03688,-0.174327 0.01341,-0.07711 0.01341,-0.11063 z m 4.039698,-0.757653 q 0,-0.335245 -0.194442,-0.522982 -0.191089,-0.191089 -0.549801,-0.191089 -0.05029,0 -0.12404,0.04023 -0.07375,0.04023 -0.160918,0.103926 -0.08381,0.06034 -0.170975,0.134098 -0.08381,0.07375 -0.160917,0.144155 -0.07375,0.0704 -0.127393,0.127393 -0.05364,0.05699 -0.07375,0.08046 -0.0704,0.08381 -0.147507,0.231319 -0.07375,0.144155 -0.137451,0.311778 -0.0637,0.167622 -0.107278,0.338597 -0.04023,0.167622 -0.04023,0.295015 0,0.07711 0.02011,0.157565 0.02347,0.08046 0.06705,0.147508 0.04693,0.0637 0.117336,0.107278 0.0704,0.04023 0.16427,0.04023 0.103926,0 0.264843,-0.06034 0.160917,-0.06034 0.338597,-0.167622 0.181032,-0.107278 0.362064,-0.254786 0.184385,-0.147508 0.32854,-0.318482 0.147508,-0.170975 0.238024,-0.358712 0.09387,-0.191089 0.09387,-0.385531 z"
     id="path3007" /></g><g
   aria-label="з"
   transform="scale(1.3807773,0.72422974)"
   id="text16794"
   style="font-size:7.90747px;line-height:1.25;font-family:'Segoe Script';-inkscape-font-specification:'Segoe Script';fill:#e0e0e0;stroke-width:0.197687"><path
     d="m 1.3470792,50.431906 q 0.038611,0 0.061777,0.02703 0.027027,0.02703 0.042472,0.06564 0.015444,0.04247 0.019305,0.09267 0.00772,0.05019 0.00772,0.09653 0,0.0888 0.030889,0.193053 0.03475,0.104249 0.1081099,0.193054 0.077221,0.0888 0.1969145,0.14672 0.1196932,0.06178 0.2934413,0.06178 0.2355253,0 0.4864948,-0.123554 0.2509695,-0.123554 0.4594672,-0.343635 0.2084978,-0.220081 0.3397741,-0.525105 0.1351375,-0.301164 0.1351375,-0.660243 0,-0.332052 -0.069499,-0.563716 Q 3.389585,48.86045 3.277614,48.717591 3.169504,48.57087 3.0266445,48.505232 q -0.1428596,-0.06564 -0.2857192,-0.06564 -0.054055,0 -0.1196931,0.02703 -0.065638,0.02317 -0.1351375,0.06178 -0.065638,0.03475 -0.1351374,0.07722 -0.065638,0.04247 -0.1196932,0.07722 -0.092666,0.06178 -0.1776091,0.104249 -0.081082,0.04247 -0.2162199,0.04247 -0.1042489,0 -0.1814703,-0.07722 -0.07336,-0.08108 -0.07336,-0.212359 0,-0.100388 0.069499,-0.169887 0.07336,-0.0695 0.2239421,-0.131277 0.3204687,-0.131276 0.5714382,-0.266414 0.2548306,-0.138998 0.4285787,-0.297302 0.1737482,-0.162165 0.2664138,-0.355218 0.092666,-0.193054 0.092666,-0.440162 0,-0.09653 -0.030889,-0.189193 -0.027027,-0.09653 -0.084944,-0.169887 -0.057916,-0.07722 -0.1428596,-0.123554 -0.081082,-0.05019 -0.1891924,-0.05019 -0.2316641,0 -0.4401619,0.14286 -0.2084977,0.142859 -0.4092733,0.351357 -0.088805,0.09267 -0.1467207,0.135138 -0.057916,0.03861 -0.1235542,0.03861 -0.054055,0 -0.096527,-0.02703 -0.038611,-0.03089 -0.065638,-0.0695 -0.023166,-0.04247 -0.038611,-0.0888 -0.011583,-0.05019 -0.011583,-0.08494 0,-0.09267 0.050194,-0.173748 0.054055,-0.08494 0.1428596,-0.158304 0.1930534,-0.162164 0.3783848,-0.266413 0.1853313,-0.104249 0.3050245,-0.154443 0.1351374,-0.05405 0.277997,-0.104249 0.1467206,-0.05019 0.2741359,-0.05019 0.1814702,0 0.3474962,0.06564 0.166026,0.06178 0.2895802,0.185332 0.1274153,0.119693 0.2007757,0.297302 0.077221,0.177609 0.077221,0.401551 0,0.32433 -0.1583038,0.644799 -0.1544428,0.320469 -0.5289665,0.621632 0.2586916,0.01158 0.4517451,0.131276 0.1930535,0.119693 0.3204688,0.316608 0.1312763,0.196915 0.1930534,0.455606 0.065638,0.254831 0.065638,0.54055 0,0.285719 -0.077221,0.567577 -0.077221,0.281858 -0.2200809,0.54055 -0.1389985,0.258692 -0.3359131,0.478772 -0.1930534,0.220081 -0.4285787,0.382246 -0.2316641,0.162165 -0.4980779,0.254831 -0.2625528,0.09267 -0.5405498,0.09267 -0.2664137,0 -0.4633283,-0.08881 -0.1969145,-0.08494 -0.3281909,-0.21622 -0.1274153,-0.131276 -0.1930535,-0.281858 -0.0656381,-0.150582 -0.0656381,-0.277997 0,-0.09653 0.0347497,-0.208498 0.038611,-0.111971 0.084943,-0.177609 0.030889,-0.04247 0.088805,-0.08881 0.057916,-0.04247 0.1467206,-0.04247 z"
     id="path3028" /></g><g
   aria-label="в"
   transform="scale(1.3961031,0.71627946)"
   id="text19318"
   style="font-size:8.23449px;line-height:1.25;font-family:'Segoe Script';-inkscape-font-specification:'Segoe Script';fill:#e0e0e0;stroke-width:0.205862"><path
     d="m 53.55517,46.61092 q 0,-0.04825 -0.0201,-0.0965 -0.01608,-0.05227 -0.05227,-0.09248 -0.03217,-0.04423 -0.08846,-0.07237 -0.05227,-0.02814 -0.124643,-0.02814 -0.140726,0 -0.293515,0.100519 -0.148767,0.100519 -0.301556,0.277431 -0.148767,0.172893 -0.289494,0.414137 -0.140726,0.237225 -0.261348,0.514656 -0.120623,0.277432 -0.21712,0.583008 -0.09248,0.301556 -0.148768,0.607133 0.03619,-0.02412 0.10856,-0.07639 0.07237,-0.05629 0.16083,-0.124643 0.09248,-0.07237 0.192996,-0.152788 0.104539,-0.08444 0.197016,-0.164851 0.0965,-0.08041 0.176913,-0.152789 0.08042,-0.07237 0.128664,-0.124643 0.446303,-0.482489 0.639299,-0.836315 0.192996,-0.353826 0.192996,-0.574967 z m -0.124643,4.334366 q -0.124643,0.184954 -0.301556,0.361867 -0.172892,0.172892 -0.381971,0.305577 -0.209079,0.132684 -0.446303,0.209078 -0.233204,0.0764 -0.474448,0.05629 -0.168872,-0.01206 -0.32166,-0.10856 -0.152789,-0.100519 -0.26939,-0.281453 -0.116602,-0.184954 -0.184955,-0.450323 -0.06835,-0.26537 -0.06835,-0.611154 0,-0.221141 0.02412,-0.478469 0.02412,-0.261348 0.06433,-0.526718 0.04021,-0.265369 0.08846,-0.518676 0.05227,-0.253307 0.100518,-0.466407 0.06433,-0.289494 0.168872,-0.570946 0.104539,-0.285473 0.233203,-0.546821 0.128664,-0.26537 0.277432,-0.498573 0.148767,-0.233203 0.305576,-0.422179 0.217121,-0.253307 0.494552,-0.406095 0.281453,-0.152788 0.659403,-0.152788 0.156809,0 0.285473,0.06433 0.128664,0.06433 0.221141,0.168871 0.09248,0.100519 0.140726,0.229182 0.05227,0.128664 0.05227,0.253308 0,0.172892 -0.07237,0.385991 -0.06835,0.209079 -0.201037,0.438262 -0.132685,0.229182 -0.32166,0.462386 -0.188975,0.233203 -0.43022,0.450323 0.05629,0.004 0.128664,0.0201 0.07639,0.01206 0.156809,0.04825 0.08444,0.03619 0.168872,0.0965 0.08846,0.06031 0.168871,0.152788 0.03619,0.04423 0.08042,0.120623 0.04423,0.07237 0.08042,0.180933 0.04021,0.10454 0.06433,0.241245 0.02814,0.136706 0.02814,0.301556 0,0.32166 -0.116602,0.69559 -0.11258,0.369908 -0.402074,0.796108 z m -0.112581,-1.479635 q 0,-0.221142 -0.06433,-0.369909 -0.06433,-0.152789 -0.152789,-0.241245 -0.08846,-0.09248 -0.180933,-0.128664 -0.09248,-0.04021 -0.148768,-0.04021 -0.05227,0 -0.16485,0.08042 -0.112581,0.08042 -0.241245,0.176912 -0.0965,0.08444 -0.192996,0.15681 -0.0965,0.07237 -0.180934,0.140726 -0.08041,0.06835 -0.148767,0.136705 -0.06835,0.06835 -0.112581,0.144747 -0.112581,0.205058 -0.132685,0.466407 -0.0201,0.261348 -0.0201,0.534759 0,0.180934 0.03619,0.325681 0.04021,0.140726 0.0965,0.241244 0.06031,0.100519 0.128664,0.15681 0.06835,0.05227 0.124643,0.05227 0.136705,0 0.309598,-0.05629 0.172892,-0.05629 0.353825,-0.221141 0.156809,-0.144747 0.281453,-0.325681 0.128664,-0.180933 0.21712,-0.381971 0.09248,-0.201037 0.140726,-0.418157 0.05227,-0.217121 0.05227,-0.43022 z"
     id="path3070" /></g><text
   xml:space="preserve"
   style="font-size:14.3933px;line-height:1.25;font-family:'Segoe Script';-inkscape-font-specification:'Segoe Script';fill:#16272a;fill-opacity:0.799714;stroke-width:0.359832"
   x="7.2560797"
   y="46.652931"
   id="text17884"
   transform="scale(1.3161783,0.75977549)"><tspan
     sodipodi:role="line"
     id="tspan17882"
     x="7.2560797"
     y="46.652931"
     style="stroke-width:0.359832">_</tspan></text><text
   xml:space="preserve"
   style="font-size:14.6816px;line-height:1.25;font-family:'Segoe Script';-inkscape-font-specification:'Segoe Script';fill:#16272a;fill-opacity:0.799714;stroke-width:0.367038"
   x="45.503429"
   y="47.216557"
   id="text17884-6"
   transform="scale(1.3425347,0.74485969)"><tspan
     sodipodi:role="line"
     id="tspan17882-2"
     x="45.503429"
     y="47.216557"
     style="stroke-width:0.367038">_</tspan></text><text
   xml:space="preserve"
   style="font-size:13.0178px;line-height:1.25;font-family:'Segoe Script';-inkscape-font-specification:'Segoe Script';fill:#16272a;fill-opacity:0.799714;stroke-width:0.325444"
   x="-52.640263"
   y="48.974087"
   id="text17884-0"
   transform="matrix(-0.01863447,-1.3427195,0.74401585,-0.05341803,0,0)"><tspan
     sodipodi:role="line"
     id="tspan17882-4"
     x="-52.640263"
     y="48.974087"
     style="stroke-width:0.325444">_</tspan></text><text
   xml:space="preserve"
   style="font-size:14.6956px;line-height:1.25;font-family:'Segoe Script';-inkscape-font-specification:'Segoe Script';fill:#16272a;fill-opacity:0.799714;stroke-width:0.367389"
   x="-12.876869"
   y="51.668137"
   id="text17884-9"
   transform="matrix(5.0902257e-4,-1.3430029,0.74459951,0.00145835,0,0)"><tspan
     sodipodi:role="line"
     id="tspan17882-7"
     x="-12.876869"
     y="51.668137"
     style="stroke-width:0.367389">_</tspan></text></svg>
