<?xml version="1.0" encoding="UTF-8" standalone="no"?>
<!-- Generator: Adobe Illustrator 22.0.1, SVG Export Plug-In . SVG Version: 6.00 Build 0)  -->

<svg
   version="1.1"
   id="Layer_1"
   x="0px"
   y="0px"
   viewBox="0 0 77 77"
   xml:space="preserve"
   sodipodi:docname="westWind.svg"
   width="77"
   height="77"
   inkscape:version="1.1.1 (3bf5ae0d25, 2021-09-20)"
   xmlns:inkscape="http://www.inkscape.org/namespaces/inkscape"
   xmlns:sodipodi="http://sodipodi.sourceforge.net/DTD/sodipodi-0.dtd"
   xmlns="http://www.w3.org/2000/svg"
   xmlns:svg="http://www.w3.org/2000/svg"><defs
   id="defs7" /><sodipodi:namedview
   id="namedview5"
   pagecolor="#ffffff"
   bordercolor="#666666"
   borderopacity="1.0"
   inkscape:pageshadow="2"
   inkscape:pageopacity="0.0"
   inkscape:pagecheckerboard="0"
   showgrid="false"
   inkscape:zoom="3.5916665"
   inkscape:cx="-29.791185"
   inkscape:cy="34.10673"
   inkscape:window-width="2400"
   inkscape:window-height="1321"
   inkscape:window-x="2391"
   inkscape:window-y="-9"
   inkscape:window-maximized="1"
   inkscape:current-layer="Layer_1"
   width="140px" />
<path
   d="M 37.725525,66.740676 C 32.302092,66.427457 27.354207,64.784609 22.906938,61.840119 18.459671,58.895623 15.023668,55.051547 12.598923,50.307877 10.174178,45.564213 9.1278762,40.500994 9.433406,35.116672 c 0.2287708,-4.031601 1.246086,-7.858013 3.023825,-11.454237 1.777757,-3.596208 4.110284,-6.628189 6.920836,-9.153557 2.810581,-2.525358 6.12124,-4.463027 9.931982,-5.8130075 3.81077,-1.3499669 7.710798,-1.923073 11.804965,-1.6866495 4.040986,0.2333498 7.877301,1.2532127 11.483881,3.031515 3.606564,1.778291 6.674909,4.110936 9.182948,6.916835 2.508034,2.805882 4.454238,6.111566 5.813581,9.88894 1.359331,3.777385 1.938641,7.669376 1.708356,11.727505 -0.230255,4.058138 -1.249082,7.911067 -3.026832,11.50729 -1.77776,3.596215 -4.111781,6.654709 -6.92234,9.180091 -2.810555,2.525377 -6.119709,4.43653 -9.878808,5.816075 -3.759101,1.379566 -7.68271,1.898085 -11.750275,1.663204 z m 0.373261,-6.577901 c 6.300747,0.363852 11.906785,-1.600933 16.819622,-5.920868 4.859648,-4.323009 7.456048,-9.654873 7.818778,-16.047088 0.237798,-4.190751 -0.577776,-8.149612 -2.47634,-11.825078 -1.898564,-3.675467 -4.55406,-6.702754 -8.024195,-9.005388 C 48.766528,15.061715 44.945259,13.776621 40.744752,13.534044 36.54426,13.29149 32.576,14.126768 28.868057,16.014873 c -3.707937,1.888116 -6.713626,4.56189 -9.017067,8.021311 -2.303434,3.459429 -3.560015,7.272011 -3.797811,11.462766 -0.237808,4.190749 0.577782,8.149609 2.47634,11.825081 1.898557,3.675457 4.580654,6.7043 8.049283,9.033441 3.468626,2.329156 7.319485,3.562742 11.519984,3.805303 z M 54.387253,48.090794 20.098167,36.131699 c -0.264344,-0.04187 -0.389741,-0.182176 -0.376174,-0.420908 0.0136,-0.238707 0.154002,-0.363657 0.421332,-0.37484 l 35.416402,-7.90715 c 0.298465,-0.08923 0.509643,-0.05041 0.661625,0.09142 0.151953,0.141859 0.139946,0.35402 -0.03642,0.63656 l -3.978385,9.004147 c -0.121401,0.2591 -0.136451,0.524338 -0.04365,0.769193 l 2.929333,9.482887 c 0.144455,0.274442 0.13391,0.460108 -0.03137,0.557009 -0.16555,0.09686 -0.410822,0.189161 -0.673664,0.120771 z"
   id="path2"
   style="fill:#2c4f54;fill-opacity:0.5;stroke:#2e3332;stroke-width:0.163982;stroke-miterlimit:4;stroke-dasharray:none;stroke-opacity:0.9" />
<path
   style="fill:#2c4f53;fill-opacity:0.499285;stroke:#e4e7e7;stroke-width:0.163982;stroke-miterlimit:4;stroke-dasharray:none;stroke-opacity:0.9"
   d="m 61.582684,40.510755 c -0.177532,1.119371 -0.457558,2.344756 -0.775885,3.395269 -1.790011,5.907034 -6.673616,11.235878 -12.613551,13.763513 -3.197361,1.360571 -5.97981,1.823781 -9.645299,1.605701 -3.762315,-0.223718 -6.587622,-1.051532 -9.692072,-2.83932 -2.09241,-1.204989 -3.73507,-2.526636 -5.446027,-4.381799 -3.395509,-3.681674 -5.372796,-7.882194 -6.021423,-12.791652 -0.135079,-1.02241 -0.140183,-1.444058 -0.04423,-3.651827 0.116509,-2.679815 0.226051,-3.431419 0.779841,-5.350152 0.836452,-2.897858 2.579678,-6.060262 4.658293,-8.450603 0.847855,-0.975017 2.853121,-2.756353 3.944631,-3.504107 2.641616,-1.809735 5.560621,-3.048035 8.426242,-3.574556 2.113168,-0.38829 2.859538,-0.42699 5.375715,-0.278785 1.774988,0.104604 2.524866,0.18506 3.290191,0.353365 4.647924,1.021981 8.873534,3.496562 12.074923,7.07128 3.278717,3.661081 5.31573,8.215408 5.812278,12.995013 0.114467,1.101798 0.03723,4.624342 -0.123601,5.638671 z m -8.320126,2.01932 c -0.816443,-2.564343 -1.503019,-4.75626 -1.525722,-4.870919 -0.02805,-0.141504 0.595232,-1.705667 1.940791,-4.870661 1.140959,-2.683776 1.963872,-4.730633 1.939204,-4.823483 -0.05116,-0.192428 -0.381467,-0.312054 -0.717011,-0.259658 -0.133211,0.02081 -7.858048,1.759007 -17.166319,3.862666 -16.311299,3.686333 -16.927539,3.83312 -17.018334,4.053754 -0.07014,0.170528 -0.06302,0.263172 0.02826,0.363176 0.151012,0.16538 32.997173,11.729314 33.380101,11.751824 0.345972,0.02034 0.70861,-0.197397 0.659791,-0.396186 -0.02006,-0.08143 -0.704341,-2.246174 -1.520783,-4.810517 z"
   id="path861" /><rect
   style="fill:#c7485e;fill-opacity:1;stroke:#3c4343;stroke-width:0.704096;stroke-opacity:0.9"
   id="rect2803"
   width="7.7573919"
   height="0.090292051"
   x="-40.031441"
   y="33.857574"
   transform="matrix(0.00369471,-0.99999317,0.9999203,0.01262544,0,0)"
   inkscape:transform-center-x="-4.4862539"
   inkscape:transform-center-y="4.2325208" /><path
   style="fill:#a06f78;fill-opacity:1;stroke:#e27364;stroke-width:0.0565635;stroke-opacity:0.9"
   d="m 32.730958,40.074091 c -0.135889,-0.0456 -3.074481,-0.993618 -6.530288,-2.106652 -3.455806,-1.11303 -6.363311,-2.068676 -6.461101,-2.123657 -0.153863,-0.08654 12.838163,-2.879968 13.280928,-2.855569 0.120946,0.0066 0.137231,0.963551 0.06117,3.588952 -0.09699,3.347606 -0.119798,3.574494 -0.350677,3.496923 z"
   id="path3397"
   inkscape:transform-center-x="2.4915444"
   inkscape:transform-center-y="3.9073127" /><text
   xml:space="preserve"
   style="font-size:8.63393px;line-height:1.25;font-family:'Segoe Script';-inkscape-font-specification:'Segoe Script';fill:#e0e0e0;fill-opacity:1;stroke-width:0.215848"
   x="36.57703"
   y="5.0797973"
   id="text9344"
   transform="scale(1.0174659,0.98283394)"><tspan
     sodipodi:role="line"
     id="tspan9342"
     x="36.57703"
     y="5.0797973"
     style="fill:#e0e0e0;fill-opacity:1;stroke-width:0.215848">c</tspan></text><text
   xml:space="preserve"
   style="font-size:6.91856px;line-height:1.25;font-family:'Segoe Script';-inkscape-font-specification:'Segoe Script';fill:#e0e0e0;fill-opacity:1;stroke-width:0.172962"
   x="40.615047"
   y="66.387421"
   id="text11307"
   transform="scale(0.88454377,1.1305263)"><tspan
     sodipodi:role="line"
     id="tspan11305"
     x="40.615047"
     y="66.387421"
     style="fill:#e0e0e0;fill-opacity:1;stroke-width:0.172962">ю</tspan></text><text
   xml:space="preserve"
   style="font-size:7.96829px;line-height:1.25;font-family:'Segoe Script';-inkscape-font-specification:'Segoe Script';fill:#e0e0e0;fill-opacity:1;stroke-width:0.199206"
   x="0.78470856"
   y="48.851974"
   id="text16794"
   transform="scale(1.371326,0.72922121)"><tspan
     sodipodi:role="line"
     id="tspan16792"
     x="0.78470856"
     y="48.851974"
     style="fill:#e0e0e0;fill-opacity:1;stroke-width:0.199206">з</tspan></text><text
   xml:space="preserve"
   style="font-size:8.2977px;line-height:1.25;font-family:'Segoe Script';-inkscape-font-specification:'Segoe Script';fill:#e0e0e0;fill-opacity:1;stroke-width:0.207442"
   x="50.821583"
   y="50.500866"
   id="text19318"
   transform="scale(1.3865469,0.72121615)"><tspan
     sodipodi:role="line"
     id="tspan19316"
     x="50.821583"
     y="50.500866"
     style="fill:#e0e0e0;fill-opacity:1;stroke-width:0.207442">в</tspan></text><text
   xml:space="preserve"
   style="font-size:14.5038px;line-height:1.25;font-family:'Segoe Script';-inkscape-font-specification:'Segoe Script';fill:#16272a;fill-opacity:0.799714;stroke-width:0.362595"
   x="7.5035262"
   y="45.43272"
   id="text17884"
   transform="scale(1.3071691,0.76501195)"><tspan
     sodipodi:role="line"
     id="tspan17882"
     x="7.5035262"
     y="45.43272"
     style="stroke-width:0.362595">_</tspan></text><text
   xml:space="preserve"
   style="font-size:15.1432px;line-height:1.25;font-family:'Segoe Script';-inkscape-font-specification:'Segoe Script';fill:#16272a;fill-opacity:0.799714;stroke-width:0.378582"
   x="43.959438"
   y="47.053402"
   id="text17884-6"
   transform="scale(1.3647966,0.73270991)"><tspan
     sodipodi:role="line"
     id="tspan17882-2"
     x="43.959438"
     y="47.053402"
     style="stroke-width:0.378582">_</tspan></text><text
   xml:space="preserve"
   style="font-size:12.9783px;line-height:1.25;font-family:'Segoe Script';-inkscape-font-specification:'Segoe Script';fill:#16272a;fill-opacity:0.799714;stroke-width:0.324454"
   x="-50.315186"
   y="49.865128"
   id="text17884-0"
   transform="matrix(-0.01828549,-1.3683456,0.73008207,-0.05443754,0,0)"><tspan
     sodipodi:role="line"
     id="tspan17882-4"
     x="-50.315186"
     y="49.865128"
     style="stroke-width:0.324454">_</tspan></text><text
   xml:space="preserve"
   style="font-size:14.6464px;line-height:1.25;font-family:'Segoe Script';-inkscape-font-specification:'Segoe Script';fill:#16272a;fill-opacity:0.799714;stroke-width:0.366157"
   x="-11.813073"
   y="51.492714"
   id="text17884-9"
   transform="matrix(5.1113472e-4,-1.3374532,0.74768918,0.00145232,0,0)"><tspan
     sodipodi:role="line"
     id="tspan17882-7"
     x="-11.813073"
     y="51.492714"
     style="stroke-width:0.366157">_</tspan></text></svg>
