<?xml version="1.0" encoding="UTF-8" standalone="no"?>
<!-- Generator: Adobe Illustrator 22.0.1, SVG Export Plug-In . SVG Version: 6.00 Build 0)  -->

<svg
   version="1.1"
   id="Layer_1"
   x="0px"
   y="0px"
   viewBox="0 0 77 77"
   xml:space="preserve"
   sodipodi:docname="westWind.svg"
   width="77"
   height="77"
   inkscape:version="1.1.1 (3bf5ae0d25, 2021-09-20)"
   xmlns:inkscape="http://www.inkscape.org/namespaces/inkscape"
   xmlns:sodipodi="http://sodipodi.sourceforge.net/DTD/sodipodi-0.dtd"
   xmlns="http://www.w3.org/2000/svg"
   xmlns:svg="http://www.w3.org/2000/svg"><defs
   id="defs7" /><sodipodi:namedview
   id="namedview5"
   pagecolor="#ffffff"
   bordercolor="#666666"
   borderopacity="1.0"
   inkscape:pageshadow="2"
   inkscape:pageopacity="0.0"
   inkscape:pagecheckerboard="0"
   showgrid="false"
   inkscape:zoom="14.366666"
   inkscape:cx="31.531324"
   inkscape:cy="36.368911"
   inkscape:window-width="2400"
   inkscape:window-height="1321"
   inkscape:window-x="2391"
   inkscape:window-y="-9"
   inkscape:window-maximized="1"
   inkscape:current-layer="Layer_1"
   width="140px" />
<path
   d="M 37.725525,66.740676 C 32.302092,66.427457 27.354207,64.784609 22.906938,61.840119 18.459671,58.895623 15.023668,55.051547 12.598923,50.307877 10.174178,45.564213 9.1278762,40.500994 9.433406,35.116672 c 0.2287708,-4.031601 1.246086,-7.858013 3.023825,-11.454237 1.777757,-3.596208 4.110284,-6.628189 6.920836,-9.153557 2.810581,-2.525358 6.12124,-4.463027 9.931982,-5.8130075 3.81077,-1.3499669 7.710798,-1.923073 11.804965,-1.6866495 4.040986,0.2333498 7.877301,1.2532127 11.483881,3.031515 3.606564,1.778291 6.674909,4.110936 9.182948,6.916835 2.508034,2.805882 4.454238,6.111566 5.813581,9.88894 1.359331,3.777385 1.938641,7.669376 1.708356,11.727505 -0.230255,4.058138 -1.249082,7.911067 -3.026832,11.50729 -1.77776,3.596215 -4.111781,6.654709 -6.92234,9.180091 -2.810555,2.525377 -6.119709,4.43653 -9.878808,5.816075 -3.759101,1.379566 -7.68271,1.898085 -11.750275,1.663204 z m 0.373261,-6.577901 c 6.300747,0.363852 11.906785,-1.600933 16.819622,-5.920868 4.859648,-4.323009 7.456048,-9.654873 7.818778,-16.047088 0.237798,-4.190751 -0.577776,-8.149612 -2.47634,-11.825078 -1.898564,-3.675467 -4.55406,-6.702754 -8.024195,-9.005388 C 48.766528,15.061715 44.945259,13.776621 40.744752,13.534044 36.54426,13.29149 32.576,14.126768 28.868057,16.014873 c -3.707937,1.888116 -6.713626,4.56189 -9.017067,8.021311 -2.303434,3.459429 -3.560015,7.272011 -3.797811,11.462766 -0.237808,4.190749 0.577782,8.149609 2.47634,11.825081 1.898557,3.675457 4.580654,6.7043 8.049283,9.033441 3.468626,2.329156 7.319485,3.562742 11.519984,3.805303 z M 54.387253,48.090794 20.098167,36.131699 c -0.264344,-0.04187 -0.389741,-0.182176 -0.376174,-0.420908 0.0136,-0.238707 0.154002,-0.363657 0.421332,-0.37484 l 35.416402,-7.90715 c 0.298465,-0.08923 0.509643,-0.05041 0.661625,0.09142 0.151953,0.141859 0.139946,0.35402 -0.03642,0.63656 l -3.978385,9.004147 c -0.121401,0.2591 -0.136451,0.524338 -0.04365,0.769193 l 2.929333,9.482887 c 0.144455,0.274442 0.13391,0.460108 -0.03137,0.557009 -0.16555,0.09686 -0.410822,0.189161 -0.673664,0.120771 z"
   id="path2"
   style="fill:#2c4f54;fill-opacity:0.5;stroke:#2e3332;stroke-width:0.163982;stroke-miterlimit:4;stroke-dasharray:none;stroke-opacity:0.9" />
<path
   style="fill:#2c4f53;fill-opacity:0.499285;stroke:#e4e7e7;stroke-width:0.163982;stroke-miterlimit:4;stroke-dasharray:none;stroke-opacity:0.9"
   d="m 61.582684,40.510755 c -0.177532,1.119371 -0.457558,2.344756 -0.775885,3.395269 -1.790011,5.907034 -6.673616,11.235878 -12.613551,13.763513 -3.197361,1.360571 -5.97981,1.823781 -9.645299,1.605701 -3.762315,-0.223718 -6.587622,-1.051532 -9.692072,-2.83932 -2.09241,-1.204989 -3.73507,-2.526636 -5.446027,-4.381799 -3.395509,-3.681674 -5.372796,-7.882194 -6.021423,-12.791652 -0.135079,-1.02241 -0.140183,-1.444058 -0.04423,-3.651827 0.116509,-2.679815 0.226051,-3.431419 0.779841,-5.350152 0.836452,-2.897858 2.579678,-6.060262 4.658293,-8.450603 0.847855,-0.975017 2.853121,-2.756353 3.944631,-3.504107 2.641616,-1.809735 5.560621,-3.048035 8.426242,-3.574556 2.113168,-0.38829 2.859538,-0.42699 5.375715,-0.278785 1.774988,0.104604 2.524866,0.18506 3.290191,0.353365 4.647924,1.021981 8.873534,3.496562 12.074923,7.07128 3.278717,3.661081 5.31573,8.215408 5.812278,12.995013 0.114467,1.101798 0.03723,4.624342 -0.123601,5.638671 z m -8.320126,2.01932 c -0.816443,-2.564343 -1.503019,-4.75626 -1.525722,-4.870919 -0.02805,-0.141504 0.595232,-1.705667 1.940791,-4.870661 1.140959,-2.683776 1.963872,-4.730633 1.939204,-4.823483 -0.05116,-0.192428 -0.381467,-0.312054 -0.717011,-0.259658 -0.133211,0.02081 -7.858048,1.759007 -17.166319,3.862666 -16.311299,3.686333 -16.927539,3.83312 -17.018334,4.053754 -0.07014,0.170528 -0.06302,0.263172 0.02826,0.363176 0.151012,0.16538 32.997173,11.729314 33.380101,11.751824 0.345972,0.02034 0.70861,-0.197397 0.659791,-0.396186 -0.02006,-0.08143 -0.704341,-2.246174 -1.520783,-4.810517 z"
   id="path861" /><rect
   style="fill:#c7485e;fill-opacity:1;stroke:#3c4343;stroke-width:0.704096;stroke-opacity:0.9"
   id="rect2803"
   width="7.7573919"
   height="0.090292051"
   x="-40.031441"
   y="33.857574"
   transform="matrix(0.00369471,-0.99999317,0.9999203,0.01262544,0,0)"
   inkscape:transform-center-x="-4.4862539"
   inkscape:transform-center-y="4.2325208" /><path
   style="fill:#a06f78;fill-opacity:1;stroke:#e27364;stroke-width:0.0565635;stroke-opacity:0.9"
   d="m 32.730958,40.074091 c -0.135889,-0.0456 -3.074481,-0.993618 -6.530288,-2.106652 -3.455806,-1.11303 -6.363311,-2.068676 -6.461101,-2.123657 -0.153863,-0.08654 12.838163,-2.879968 13.280928,-2.855569 0.120946,0.0066 0.137231,0.963551 0.06117,3.588952 -0.09699,3.347606 -0.119798,3.574494 -0.350677,3.496923 z"
   id="path3397"
   inkscape:transform-center-x="2.4915444"
   inkscape:transform-center-y="3.9073127" /><g
   aria-label="c"
   transform="scale(1.0174659,0.98283394)"
   id="text9344"
   style="font-size:8.63393px;line-height:1.25;font-family:'Segoe Script';-inkscape-font-specification:'Segoe Script';fill:#e0e0e0;stroke-width:0.215848"><path
     d="m 41.395674,3.3344618 q 0,0.1517683 -0.109611,0.2740261 -0.113826,0.1264736 -0.198142,0.2150051 -0.08432,0.084316 -0.160199,0.1559841 -0.07588,0.071668 -0.1602,0.1391209 -0.08432,0.063237 -0.198142,0.1475525 -0.3204,0.2318683 -0.611289,0.3920681 -0.29089,0.1559841 -0.564916,0.257163 -0.274026,0.096963 -0.543836,0.139121 -0.265595,0.042158 -0.535405,0.042158 -0.282458,0 -0.505894,-0.1053946 Q 37.584603,4.8816553 37.428619,4.6961607 37.276851,4.5106661 37.196751,4.2661505 37.116651,4.0174191 37.116651,3.743393 v -0.021079 q 0,-0.2782419 0.07167,-0.5902101 0.07167,-0.3161839 0.198142,-0.6323679 0.13069,-0.316184 0.311968,-0.6197206 0.181279,-0.3077524 0.4005,-0.5733469 0.08853,-0.1053947 0.210789,-0.2234367 0.126474,-0.12225778 0.265595,-0.22343665 0.143337,-0.10117887 0.295105,-0.16441566 0.155984,-0.0674526 0.303537,-0.0674526 0.101178,0 0.193926,0.0632368 0.09275,0.059021 0.172847,0.15598409 0.0801,0.0969631 0.147552,0.21922091 0.06745,0.118042 0.113827,0.2445156 0.04637,0.1222578 0.07167,0.236084 0.02529,0.1138262 0.02529,0.1939262 0,0.1222578 -0.07588,0.3161839 -0.07588,0.1939262 -0.181279,0.1939262 -0.151769,0 -0.252947,-0.2065735 -0.03794,-0.0801 -0.06745,-0.1854946 -0.02529,-0.1053947 -0.06324,-0.2065735 -0.03373,-0.1011789 -0.09275,-0.1854946 -0.05902,-0.088531 -0.164416,-0.1306894 -0.105394,0.025295 -0.215005,0.1096104 -0.105394,0.084316 -0.210789,0.2065736 -0.101179,0.1222578 -0.202358,0.2782419 -0.09696,0.1517683 -0.185494,0.3161839 -0.08432,0.1517683 -0.164416,0.3499103 -0.0801,0.1939261 -0.143337,0.4047155 -0.06324,0.2065735 -0.101179,0.413147 -0.03794,0.2065735 -0.03794,0.3794208 0,0.1222578 0.05902,0.2487314 0.05902,0.1222578 0.151768,0.2234366 0.09696,0.1011789 0.215006,0.1644157 0.122257,0.063237 0.248731,0.063237 0.623936,0 1.239441,-0.257163 0.615505,-0.2571629 1.171989,-0.7461941 0.307752,-0.2698104 0.51011,-0.2698104 0.05902,0 0.05902,0.1138263 z"
     id="path3677" /></g><g
   aria-label="ю"
   transform="scale(0.88454377,1.1305263)"
   id="text11307"
   style="font-size:6.91856px;line-height:1.25;font-family:'Segoe Script';-inkscape-font-specification:'Segoe Script';fill:#e0e0e0;stroke-width:0.172962"><path
     d="m 41.520406,64.992223 q 0,-0.01351 -0.01689,-0.02365 -0.01351,-0.01351 -0.03378,-0.03378 -0.02027,-0.02027 -0.03716,-0.05405 -0.01351,-0.03378 -0.01351,-0.09459 0,-0.05405 0.0304,-0.09797 0.0304,-0.04392 0.06419,-0.08108 0.03716,-0.03716 0.06757,-0.06756 0.03378,-0.0304 0.04054,-0.05743 0.05743,-0.324307 0.09797,-0.611455 0.04054,-0.287147 0.05067,-0.479705 0.0034,-0.05743 0,-0.118237 0,-0.06081 -0.0034,-0.121615 -0.0034,-0.04392 -0.0068,-0.08445 0,-0.04054 0,-0.0777 0,-0.04054 0.0304,-0.09121 0.0304,-0.05067 0.07432,-0.09459 0.04729,-0.04392 0.101346,-0.07094 0.05743,-0.0304 0.11148,-0.0304 0.04729,0 0.09459,0.02703 0.04729,0.02365 0.08445,0.07094 0.03716,0.04392 0.06081,0.111481 0.02365,0.06418 0.02365,0.145262 0,0.06081 -0.01013,0.148641 -0.01013,0.08783 -0.02703,0.192558 -0.01689,0.104724 -0.04054,0.219583 -0.02027,0.114859 -0.04054,0.229718 -0.02703,0.158775 -0.05405,0.304038 -0.02365,0.145263 -0.03716,0.249987 0.01351,0.0304 0.02365,0.05405 0.01351,0.02027 0.03378,0.03378 0.02027,0.01351 0.05067,0.02027 0.03378,0.0068 0.08783,0.0068 0.145263,0 0.307417,-0.0304 0.162154,-0.0304 0.307416,-0.0777 0.145263,-0.04729 0.260122,-0.09797 0.118237,-0.05405 0.175667,-0.101346 0.03716,-0.0304 0.08108,-0.08108 0.04729,-0.05067 0.09459,-0.108103 0.04729,-0.06081 0.09121,-0.118237 0.04729,-0.06081 0.08108,-0.104724 0.114858,-0.145263 0.260121,-0.283769 0.145263,-0.138507 0.320929,-0.243231 0.175667,-0.104724 0.378359,-0.16891 0.206071,-0.06419 0.445923,-0.06419 0.182423,0 0.35809,0.09121 0.175666,0.08783 0.310794,0.239852 0.138507,0.152019 0.219583,0.351333 0.08446,0.195936 0.08446,0.412141 0,0.216205 -0.04392,0.39525 -0.04054,0.175666 -0.13175,0.37498 -0.05067,0.104725 -0.175667,0.249987 -0.124993,0.145263 -0.30066,0.30066 -0.172288,0.155398 -0.378358,0.307417 -0.206071,0.152019 -0.418898,0.273634 -0.212826,0.121616 -0.418897,0.195936 -0.202692,0.07432 -0.368224,0.07432 -0.222961,0 -0.381737,-0.07432 -0.158775,-0.0777 -0.260122,-0.199314 -0.101346,-0.124993 -0.14864,-0.283769 -0.0473,-0.158775 -0.0473,-0.320929 0,-0.13175 0.03716,-0.317551 0.04054,-0.18918 0.135128,-0.381737 -0.128372,0.08108 -0.287147,0.128371 -0.155398,0.04729 -0.287147,0.08446 -0.05743,0.01689 -0.128372,0.0304 -0.07094,0.01014 -0.141885,0.02027 -0.06756,0.01013 -0.13175,0.02027 -0.06081,0.01013 -0.104724,0.01689 -0.06756,0.01351 -0.09459,0.05405 -0.02365,0.03716 -0.03716,0.09797 -0.01351,0.05743 -0.04054,0.152019 -0.02703,0.09459 -0.05405,0.195936 -0.0304,0.108102 -0.06419,0.222961 -0.03378,0.114859 -0.06081,0.219583 -0.02365,0.101347 -0.04392,0.18918 -0.01689,0.08446 -0.01689,0.13175 0,0.04392 -0.03716,0.09459 -0.03378,0.05067 -0.08108,0.09459 -0.04392,0.04729 -0.09121,0.0777 -0.04392,0.0304 -0.06756,0.0304 -0.05067,0 -0.09797,-0.03378 -0.04392,-0.03378 -0.0777,-0.0777 -0.03378,-0.04392 -0.05405,-0.08783 -0.02027,-0.0473 -0.02027,-0.07094 0,-0.0304 0.02365,-0.108102 0.02703,-0.0777 0.05405,-0.158776 0.01689,-0.05067 0.04392,-0.138506 0.02703,-0.08783 0.05405,-0.192558 0.0304,-0.108102 0.05743,-0.222961 0.0304,-0.114859 0.05405,-0.216205 0.02365,-0.101346 0.03716,-0.175667 0.01351,-0.0777 0.01351,-0.11148 z m 4.070735,-0.763474 q 0,-0.33782 -0.195936,-0.527 -0.192558,-0.192557 -0.554025,-0.192557 -0.05067,0 -0.124994,0.04054 -0.07432,0.04054 -0.162154,0.104724 -0.08445,0.06081 -0.172288,0.135128 -0.08445,0.07432 -0.162154,0.145263 -0.07432,0.07094 -0.128372,0.128372 -0.05405,0.05743 -0.07432,0.08108 -0.07094,0.08445 -0.148641,0.233096 -0.07432,0.145263 -0.138506,0.314173 -0.06419,0.16891 -0.108103,0.341198 -0.04054,0.16891 -0.04054,0.297282 0,0.0777 0.02027,0.158776 0.02365,0.08108 0.06756,0.148641 0.04729,0.06418 0.118237,0.108102 0.07094,0.04054 0.165532,0.04054 0.104724,0 0.266878,-0.06081 0.162154,-0.06081 0.341199,-0.16891 0.182423,-0.108103 0.364846,-0.256744 0.185801,-0.148641 0.331064,-0.320929 0.148641,-0.172288 0.239852,-0.361468 0.09459,-0.192557 0.09459,-0.388493 z"
     id="path3719" /></g><g
   aria-label="з"
   transform="scale(1.371326,0.72922121)"
   id="text16794"
   style="font-size:7.96829px;line-height:1.25;font-family:'Segoe Script';-inkscape-font-specification:'Segoe Script';fill:#e0e0e0;stroke-width:0.199206"><path
     d="m 1.4074091,49.163236 q 0.038908,0 0.062252,0.02724 0.027235,0.02724 0.042798,0.06614 0.015563,0.0428 0.019454,0.09338 0.00778,0.05058 0.00778,0.09727 0,0.08949 0.031126,0.194538 0.035017,0.105051 0.1089415,0.194538 0.077815,0.08949 0.1984291,0.14785 0.1206137,0.06225 0.2956982,0.06225 0.2373368,0 0.4902366,-0.124505 0.2528998,-0.124504 0.4630012,-0.346278 0.2101014,-0.221774 0.3423875,-0.529144 0.1361768,-0.30348 0.1361768,-0.665321 0,-0.334606 -0.070034,-0.568052 Q 3.4656246,47.579694 3.3527924,47.435735 3.2438509,47.287886 3.0998926,47.221743 2.9559342,47.1556 2.8119758,47.1556 q -0.054471,0 -0.1206137,0.02724 -0.066143,0.02334 -0.1361768,0.06225 -0.066143,0.03502 -0.1361769,0.07781 -0.066143,0.0428 -0.1206137,0.07782 -0.093378,0.06225 -0.1789753,0.10505 -0.081706,0.0428 -0.2178829,0.0428 -0.1050507,0 -0.1828661,-0.07782 -0.073924,-0.08171 -0.073924,-0.213992 0,-0.10116 0.070034,-0.171194 0.073924,-0.07003 0.2256644,-0.132286 0.3229337,-0.132286 0.5758335,-0.268462 0.2567906,-0.140068 0.4318751,-0.299589 0.1750845,-0.163413 0.2684629,-0.357951 0.093378,-0.194538 0.093378,-0.443547 0,-0.09727 -0.031126,-0.190648 -0.027235,-0.09727 -0.085597,-0.171194 -0.058362,-0.07781 -0.1439584,-0.124504 -0.081706,-0.05058 -0.1906476,-0.05058 -0.233446,0 -0.4435473,0.143958 -0.2101014,0.143959 -0.4124213,0.35406 -0.089488,0.09338 -0.1478491,0.136177 -0.058362,0.03891 -0.1245046,0.03891 -0.054471,0 -0.097269,-0.02723 -0.038908,-0.03113 -0.066143,-0.07003 -0.023345,-0.0428 -0.038908,-0.08949 -0.011672,-0.05058 -0.011672,-0.0856 0,-0.09338 0.05058,-0.175085 0.054471,-0.0856 0.1439583,-0.159521 0.1945383,-0.163412 0.3812951,-0.268463 0.1867568,-0.105051 0.3073706,-0.155631 0.1361768,-0.05447 0.2801352,-0.10505 0.1478491,-0.05058 0.2762444,-0.05058 0.182866,0 0.350169,0.06614 0.167303,0.06225 0.2918075,0.186756 0.1283953,0.120614 0.2023198,0.299589 0.077815,0.178976 0.077815,0.40464 0,0.326825 -0.1595215,0.649758 -0.1556306,0.322934 -0.533035,0.626414 0.2606814,0.01167 0.4552197,0.132286 0.1945383,0.120613 0.3229336,0.319043 0.1322861,0.198429 0.1945384,0.45911 0.066143,0.256791 0.066143,0.544707 0,0.287917 -0.077815,0.571943 -0.077815,0.284026 -0.2217737,0.544707 -0.1400676,0.260682 -0.3384967,0.482455 -0.1945383,0.221774 -0.4318751,0.385186 -0.233446,0.163412 -0.5019089,0.256791 -0.2645721,0.09338 -0.5447073,0.09338 -0.2684629,0 -0.466892,-0.08949 Q 1.442426,50.381046 1.31014,50.24876 1.1817447,50.116474 1.1156016,49.964734 q -0.066143,-0.15174 -0.066143,-0.280135 0,-0.09727 0.035017,-0.210102 0.038908,-0.112832 0.085597,-0.178975 0.031126,-0.0428 0.089488,-0.08949 0.058361,-0.0428 0.1478491,-0.0428 z"
     id="path3656" /></g><g
   aria-label="в"
   transform="scale(1.3865469,0.72121615)"
   id="text19318"
   style="font-size:8.2977px;line-height:1.25;font-family:'Segoe Script';-inkscape-font-specification:'Segoe Script';fill:#e0e0e0;stroke-width:0.207442"><path
     d="m 53.965633,45.294545 q 0,-0.04862 -0.02026,-0.09724 -0.01621,-0.05267 -0.05267,-0.09319 -0.03241,-0.04457 -0.08913,-0.07293 -0.05267,-0.02836 -0.1256,-0.02836 -0.141807,0 -0.295768,0.101291 -0.149909,0.10129 -0.303871,0.279561 -0.149909,0.174219 -0.291716,0.417316 -0.141806,0.239045 -0.263354,0.518606 -0.121549,0.279561 -0.218787,0.587484 -0.09319,0.303871 -0.14991,0.611793 0.03646,-0.02431 0.109393,-0.07698 0.07293,-0.05672 0.162065,-0.1256 0.09319,-0.07293 0.194477,-0.153961 0.105342,-0.08508 0.198529,-0.166116 0.09724,-0.08103 0.178271,-0.153961 0.08103,-0.07293 0.129652,-0.1256 0.449728,-0.486193 0.644206,-0.842735 0.194477,-0.356542 0.194477,-0.579381 z m -0.1256,4.367637 q -0.1256,0.186375 -0.303871,0.364645 -0.174219,0.17422 -0.384903,0.307923 -0.210683,0.133703 -0.449729,0.210684 -0.234993,0.07698 -0.47809,0.05672 -0.170167,-0.01215 -0.324129,-0.109393 -0.153961,-0.101291 -0.271458,-0.283613 -0.117496,-0.186374 -0.186374,-0.453781 -0.06888,-0.267406 -0.06888,-0.615844 0,-0.222839 0.02431,-0.482142 0.02431,-0.263355 0.06482,-0.530761 0.04052,-0.267407 0.08914,-0.522658 0.05267,-0.255252 0.10129,-0.469987 0.06483,-0.291716 0.170168,-0.575329 0.105342,-0.287664 0.234993,-0.551019 0.129652,-0.267406 0.279561,-0.5024 0.14991,-0.234993 0.307923,-0.425419 0.218787,-0.255251 0.498348,-0.409213 0.283613,-0.153961 0.664464,-0.153961 0.158013,0 0.287665,0.06483 0.129651,0.06483 0.222838,0.170168 0.09319,0.10129 0.141807,0.230941 0.05267,0.129652 0.05267,0.255252 0,0.174219 -0.07293,0.388955 -0.06888,0.210683 -0.202581,0.441625 -0.133703,0.230942 -0.324129,0.465935 -0.190426,0.234994 -0.433522,0.453781 0.05672,0.0041 0.129651,0.02026 0.07698,0.01215 0.158013,0.04862 0.08508,0.03646 0.170168,0.09724 0.08913,0.06077 0.170168,0.153961 0.03646,0.04457 0.08103,0.121549 0.04457,0.07293 0.08103,0.182322 0.04052,0.105342 0.06483,0.243097 0.02836,0.137755 0.02836,0.303871 0,0.324129 -0.117497,0.700928 -0.113445,0.372749 -0.405161,0.802219 z m -0.113445,-1.490993 q 0,-0.222838 -0.06483,-0.372748 -0.06483,-0.153961 -0.153961,-0.243096 -0.08913,-0.09319 -0.182322,-0.129652 -0.09319,-0.04052 -0.14991,-0.04052 -0.05267,0 -0.166116,0.08103 -0.113445,0.08103 -0.243097,0.178271 -0.09724,0.08508 -0.194477,0.158013 -0.09724,0.07293 -0.182323,0.141806 -0.08103,0.06888 -0.149909,0.137755 -0.06888,0.06888 -0.113445,0.145858 -0.113445,0.206632 -0.133704,0.469987 -0.02026,0.263355 -0.02026,0.538864 0,0.182323 0.03646,0.328181 0.04052,0.141806 0.09724,0.243096 0.06077,0.101291 0.129651,0.158013 0.06888,0.05267 0.1256,0.05267 0.137755,0 0.311974,-0.05672 0.174219,-0.05672 0.356542,-0.222839 0.158013,-0.145858 0.283613,-0.328181 0.129651,-0.182322 0.218787,-0.384903 0.09319,-0.20258 0.141806,-0.421367 0.05267,-0.218787 0.05267,-0.433523 z"
     id="path3698" /></g><text
   xml:space="preserve"
   style="font-size:14.5038px;line-height:1.25;font-family:'Segoe Script';-inkscape-font-specification:'Segoe Script';fill:#16272a;fill-opacity:0.799714;stroke-width:0.362595"
   x="7.5035262"
   y="45.43272"
   id="text17884"
   transform="scale(1.3071691,0.76501195)"><tspan
     sodipodi:role="line"
     id="tspan17882"
     x="7.5035262"
     y="45.43272"
     style="stroke-width:0.362595">_</tspan></text><text
   xml:space="preserve"
   style="font-size:15.1432px;line-height:1.25;font-family:'Segoe Script';-inkscape-font-specification:'Segoe Script';fill:#16272a;fill-opacity:0.799714;stroke-width:0.378582"
   x="43.959438"
   y="47.053402"
   id="text17884-6"
   transform="scale(1.3647966,0.73270991)"><tspan
     sodipodi:role="line"
     id="tspan17882-2"
     x="43.959438"
     y="47.053402"
     style="stroke-width:0.378582">_</tspan></text><text
   xml:space="preserve"
   style="font-size:12.9783px;line-height:1.25;font-family:'Segoe Script';-inkscape-font-specification:'Segoe Script';fill:#16272a;fill-opacity:0.799714;stroke-width:0.324454"
   x="-50.315186"
   y="49.865128"
   id="text17884-0"
   transform="matrix(-0.01828549,-1.3683456,0.73008207,-0.05443754,0,0)"><tspan
     sodipodi:role="line"
     id="tspan17882-4"
     x="-50.315186"
     y="49.865128"
     style="stroke-width:0.324454">_</tspan></text><text
   xml:space="preserve"
   style="font-size:14.6464px;line-height:1.25;font-family:'Segoe Script';-inkscape-font-specification:'Segoe Script';fill:#16272a;fill-opacity:0.799714;stroke-width:0.366157"
   x="-11.813073"
   y="51.492714"
   id="text17884-9"
   transform="matrix(5.1113472e-4,-1.3374532,0.74768918,0.00145232,0,0)"><tspan
     sodipodi:role="line"
     id="tspan17882-7"
     x="-11.813073"
     y="51.492714"
     style="stroke-width:0.366157">_</tspan></text></svg>
