<?xml version="1.0" encoding="UTF-8" standalone="no"?>
<!-- Generator: Adobe Illustrator 22.0.1, SVG Export Plug-In . SVG Version: 6.00 Build 0)  -->

<svg
   version="1.1"
   id="Layer_1"
   x="0px"
   y="0px"
   viewBox="0 0 140 140"
   xml:space="preserve"
   sodipodi:docname="EastWind.svg"
   width="140"
   height="140"
   inkscape:version="1.1.1 (3bf5ae0d25, 2021-09-20)"
   xmlns:inkscape="http://www.inkscape.org/namespaces/inkscape"
   xmlns:sodipodi="http://sodipodi.sourceforge.net/DTD/sodipodi-0.dtd"
   xmlns="http://www.w3.org/2000/svg"
   xmlns:svg="http://www.w3.org/2000/svg"><defs
   id="defs7" /><sodipodi:namedview
   id="namedview5"
   pagecolor="#ffffff"
   bordercolor="#666666"
   borderopacity="1.0"
   inkscape:pageshadow="2"
   inkscape:pageopacity="0.0"
   inkscape:pagecheckerboard="0"
   showgrid="false"
   inkscape:zoom="1.2698459"
   inkscape:cx="-172.46187"
   inkscape:cy="-129.54328"
   inkscape:window-width="2400"
   inkscape:window-height="1321"
   inkscape:window-x="2391"
   inkscape:window-y="-9"
   inkscape:window-maximized="1"
   inkscape:current-layer="Layer_1"
   width="140px" />
<path
   d="m 66.649804,15.178323 c 9.911208,-1.185305 19.386705,0.16705 28.372183,4.01483 8.985483,3.84779 16.428783,9.634523 22.329933,17.36022 5.90115,7.725689 9.41067,16.468447 10.5772,26.222469 0.87346,7.303489 0.2549,14.493017 -1.8128,21.514697 -2.06774,7.021654 -5.31924,13.210186 -9.59728,18.644201 -4.27808,5.43401 -9.64845,9.97523 -16.11121,13.62358 -6.46278,3.64837 -13.335088,5.93236 -20.817089,6.82717 -7.384813,0.88319 -14.650509,0.29001 -21.742777,-1.73726 -7.092241,-2.02726 -13.387827,-5.222 -18.820905,-9.4459 -5.433073,-4.22387 -10.009361,-9.525 -13.674608,-15.861037 -3.665223,-6.336059 -5.955969,-13.128899 -6.83517,-20.480447 -0.879229,-7.351557 -0.266404,-14.589122 1.801322,-21.610804 2.067738,-7.021668 5.313477,-13.258224 9.591505,-18.692262 4.27805,-5.434026 9.654197,-9.927172 16.014055,-13.611948 6.359851,-3.684819 13.292249,-5.878522 20.725641,-6.767509 z m 1.42512,11.916251 c -11.514484,1.377064 -21.028654,6.70625 -28.536778,16.03561 -7.410943,9.317728 -10.405429,19.7156 -9.020541,31.295489 0.907923,7.591802 3.647445,14.428447 8.255616,20.408048 4.608184,5.979599 10.378718,10.553009 17.391576,13.564509 7.012838,3.01151 14.336004,4.08517 22.012342,3.16714 7.676305,-0.91806 14.588334,-3.69418 20.693266,-8.27446 6.104915,-4.580298 10.688575,-10.343298 13.750965,-17.288989 3.06239,-6.945698 4.1182,-14.187492 3.21026,-21.779296 C 114.9237,56.630823 112.18418,49.794179 107.57601,43.814566 102.96783,37.834992 97.148687,33.267369 90.13009,30.207831 83.11149,27.148292 75.751249,26.176533 68.074924,27.094574 Z M 42.463105,53.989777 108.31204,64.390868 c 0.49158,-0.01006 0.76324,0.201147 0.81492,0.633636 0.0516,0.432454 -0.16248,0.701747 -0.64252,0.807914 L 46.93958,91.420235 c -0.511449,0.256149 -0.905877,0.254563 -1.226104,0.04918 -0.320187,-0.20545 -0.366203,-0.589781 -0.137909,-1.153191 l 4.321968,-17.428469 c 0.136887,-0.503742 0.07942,-0.984237 -0.166654,-1.393437 L 41.403647,55.432395 c -0.348947,-0.445621 -0.389164,-0.781967 -0.120649,-1.009034 0.268546,-0.22703 0.682787,-0.471553 1.180125,-0.43357 z"
   id="path2"
   style="fill:#2c4f54;fill-opacity:0.5;stroke:#2e3332;stroke-width:0.3;stroke-miterlimit:4;stroke-dasharray:none;stroke-opacity:0.9" />
<path
   style="fill:#2c4f53;fill-opacity:0.499285;stroke:#e4e7e7;stroke-width:0.3;stroke-miterlimit:4;stroke-dasharray:none;stroke-opacity:0.9"
   d="m 31.640829,69.576762 c -0.02189,-2.06474 0.109352,-4.351539 0.363613,-6.33622 1.429819,-11.159875 8.640274,-22.239094 18.623418,-28.615807 5.373758,-3.432457 10.271315,-5.125309 16.977301,-5.868228 6.883107,-0.76279 12.25439,-0.150906 18.425798,2.098154 4.159553,1.515911 7.540291,3.380488 11.208427,6.181809 7.279624,5.559407 12.149734,12.489286 14.830804,21.103293 0.55835,1.793886 0.69696,2.549357 1.20054,6.54302 0.61112,4.847577 0.64333,6.230958 0.22897,9.847369 -0.62593,5.461879 -2.81309,11.679398 -5.84458,16.614507 -1.23653,2.013017 -4.32202,5.831974 -6.06958,7.512376 -4.229359,4.066895 -9.136461,7.193655 -14.165242,9.025925 -3.708335,1.35119 -5.048311,1.65168 -9.651173,2.16435 -3.247023,0.36155 -4.629918,0.44919 -6.067742,0.38387 -8.732061,-0.39638 -17.144872,-3.53156 -24.040103,-8.959 C 40.599499,95.71361 35.512669,88.166949 33.14689,79.739032 32.601531,77.796216 31.660656,71.447718 31.640785,69.576745 Z M 46.091025,63.37604 c 2.265529,4.351498 4.181581,8.074502 4.25788,8.273344 0.09422,0.245384 -0.554796,3.246688 -2.020882,9.345771 -1.243153,5.171753 -2.105656,9.101504 -2.032487,9.260576 0.151703,0.32966 0.786662,0.442222 1.37834,0.244293 0.234902,-0.07857 13.693137,-5.590325 29.907223,-12.248301 28.412681,-11.667074 29.483801,-12.121351 29.580571,-12.545597 0.0747,-0.327877 0.0334,-0.492028 -0.16265,-0.643315 -0.3241,-0.250413 -63.364426,-10.846836 -64.064902,-10.768733 -0.632892,0.07056 -1.2229,0.573742 -1.073498,0.915551 0.06138,0.139975 1.96488,3.814924 4.23041,8.166419 z"
   id="path861" /><rect
   style="fill:#c7485e;fill-opacity:1;stroke:#3c4343;stroke-width:1.28812;stroke-opacity:0.9"
   id="rect2803"
   width="14.129961"
   height="0.1659108"
   x="70.516068"
   y="-74.167564"
   transform="matrix(0.12946519,0.99158397,-0.99268348,0.12074566,0,0)"
   inkscape:transform-center-x="9.1966421"
   inkscape:transform-center-y="-6.5431267" /><path
   style="fill:#a06f78;fill-opacity:1;stroke:#e27364;stroke-width:0.100941;stroke-opacity:0.9"
   d="m 84.841313,61.366389 c 0.248574,0.03938 5.612005,0.821803 11.91883,1.738683 6.306817,0.916875 11.619217,1.722719 11.805317,1.790745 0.29285,0.107064 -21.149894,9.166269 -21.919524,9.260652 -0.210219,0.02585 -0.54921,-1.684133 -1.271549,-6.413271 -0.921043,-6.030049 -0.955527,-6.443804 -0.533131,-6.376799 z"
   id="path3397"
   inkscape:transform-center-x="-2.7658815"
   inkscape:transform-center-y="-5.7630675" /><text
   xml:space="preserve"
   style="font-size:15.7955px;line-height:1.25;font-family:'Segoe Script';-inkscape-font-specification:'Segoe Script';stroke-width:0.394888;fill:#e0e0e0;fill-opacity:1"
   x="67.335526"
   y="9.982398"
   id="text9344"
   transform="scale(1.0219262,0.97854425)"><tspan
     sodipodi:role="line"
     id="tspan9342"
     x="67.335526"
     y="9.982398"
     style="stroke-width:0.394888;fill:#e0e0e0;fill-opacity:1">c</tspan></text><text
   xml:space="preserve"
   style="font-size:12.6573px;line-height:1.25;font-family:'Segoe Script';-inkscape-font-specification:'Segoe Script';stroke-width:0.31643;fill:#e0e0e0;fill-opacity:1"
   x="74.785896"
   y="122.05302"
   id="text11307"
   transform="scale(0.88842139,1.125592)"><tspan
     sodipodi:role="line"
     id="tspan11305"
     x="74.785896"
     y="122.05302"
     style="stroke-width:0.31643;fill:#e0e0e0;fill-opacity:1">ю</tspan></text><text
   xml:space="preserve"
   style="font-size:14.5777px;line-height:1.25;font-family:'Segoe Script';-inkscape-font-specification:'Segoe Script';stroke-width:0.364441;fill:#e0e0e0;fill-opacity:1"
   x="1.7463557"
   y="90.302055"
   id="text16794"
   transform="scale(1.3773375,0.72603846)"><tspan
     sodipodi:role="line"
     id="tspan16792"
     x="1.7463557"
     y="90.302055"
     style="stroke-width:0.364441;fill:#e0e0e0;fill-opacity:1">з</tspan></text><text
   xml:space="preserve"
   style="font-size:15.1804px;line-height:1.25;font-family:'Segoe Script';-inkscape-font-specification:'Segoe Script';stroke-width:0.379511;fill:#e0e0e0;fill-opacity:1"
   x="93.284058"
   y="93.328972"
   id="text19318"
   transform="scale(1.3926251,0.71806835)"><tspan
     sodipodi:role="line"
     id="tspan19316"
     x="93.284058"
     y="93.328972"
     style="stroke-width:0.379511;fill:#e0e0e0;fill-opacity:1">в</tspan></text><text
   xml:space="preserve"
   style="font-size:26.5344px;line-height:1.25;font-family:'Segoe Script';-inkscape-font-specification:'Segoe Script';fill:#16272a;fill-opacity:0.799714;stroke-width:0.663359"
   x="14.053504"
   y="84.003174"
   id="text17884"
   transform="scale(1.3128994,0.76167296)"><tspan
     sodipodi:role="line"
     id="tspan17882"
     x="14.053504"
     y="84.003174"
     style="stroke-width:0.663359">_</tspan></text><text
   xml:space="preserve"
   style="font-size:27.0277px;line-height:1.25;font-family:'Segoe Script';-inkscape-font-specification:'Segoe Script';fill:#16272a;fill-opacity:0.799714;stroke-width:0.675691"
   x="82.155273"
   y="84.882538"
   id="text17884-6"
   transform="scale(1.3373062,0.74777188)"><tspan
     sodipodi:role="line"
     id="tspan17882-2"
     x="82.155273"
     y="84.882538"
     style="stroke-width:0.675691">_</tspan></text><text
   xml:space="preserve"
   style="font-size:23.7433px;line-height:1.25;font-family:'Segoe Script';-inkscape-font-specification:'Segoe Script';fill:#16272a;fill-opacity:0.799714;stroke-width:0.593581"
   x="-94.104141"
   y="91.759155"
   id="text17884-0"
   transform="matrix(-0.01836565,-1.3623732,0.73328264,-0.05419994,0,0)"><tspan
     sodipodi:role="line"
     id="tspan17882-4"
     x="-94.104141"
     y="91.759155"
     style="stroke-width:0.593581">_</tspan></text><text
   xml:space="preserve"
   style="font-size:26.7951px;line-height:1.25;font-family:'Segoe Script';-inkscape-font-specification:'Segoe Script';fill:#16272a;fill-opacity:0.799714;stroke-width:0.669874"
   x="-22.11743"
   y="94.774826"
   id="text17884-9"
   transform="matrix(5.133754e-4,-1.3316157,0.75096685,0.00144598,0,0)"><tspan
     sodipodi:role="line"
     id="tspan17882-7"
     x="-22.11743"
     y="94.774826"
     style="stroke-width:0.669874">_</tspan></text></svg>
