<?xml version="1.0" encoding="UTF-8" standalone="no"?>
<!-- Generator: Adobe Illustrator 22.0.1, SVG Export Plug-In . SVG Version: 6.00 Build 0)  -->

<svg
   version="1.1"
   id="Layer_1"
   x="0px"
   y="0px"
   viewBox="0 0 140 140"
   xml:space="preserve"
   sodipodi:docname="northwestWind.svg"
   width="140"
   height="140"
   inkscape:version="1.1.1 (3bf5ae0d25, 2021-09-20)"
   xmlns:inkscape="http://www.inkscape.org/namespaces/inkscape"
   xmlns:sodipodi="http://sodipodi.sourceforge.net/DTD/sodipodi-0.dtd"
   xmlns="http://www.w3.org/2000/svg"
   xmlns:svg="http://www.w3.org/2000/svg"><defs
   id="defs7" /><sodipodi:namedview
   id="namedview5"
   pagecolor="#ffffff"
   bordercolor="#666666"
   borderopacity="1.0"
   inkscape:pageshadow="2"
   inkscape:pageopacity="0.0"
   inkscape:pagecheckerboard="0"
   showgrid="false"
   inkscape:zoom="5.0793835"
   inkscape:cx="140.4698"
   inkscape:cy="99.126203"
   inkscape:window-width="2400"
   inkscape:window-height="1321"
   inkscape:window-x="2391"
   inkscape:window-y="-9"
   inkscape:window-maximized="1"
   inkscape:current-layer="Layer_1"
   width="140px" />
<path
   d="M 36.723114,108.25028 C 29.31392,101.56141 24.103268,93.532536 21.095109,84.232257 18.086963,74.931962 17.553707,65.518952 19.49535,55.993204 c 1.941636,-9.525747 6.221996,-17.918068 12.804738,-25.2098 4.928936,-5.459802 10.75293,-9.72044 17.403178,-12.778796 6.650255,-3.058316 13.451013,-4.67693 20.358127,-5.025995 6.907142,-0.349018 13.859688,0.712001 20.857643,3.183061 6.997981,2.471111 13.237144,6.147807 18.830394,11.19722 5.5206,4.98382 9.85044,10.848516 12.98567,17.525376 3.13522,6.676827 4.86699,13.52093 5.25624,20.391756 0.38925,6.870792 -0.5965,13.804239 -2.96101,20.73161 -2.36455,6.927373 -5.97693,13.119368 -10.9383,18.615094 -4.96136,5.49576 -10.81778,9.7923 -17.468046,12.85064 -6.650265,3.05832 -13.483423,4.71285 -20.390564,5.06194 -6.907128,0.34906 -13.827249,-0.74786 -20.784996,-3.11749 -6.957769,-2.36961 -13.168399,-6.15094 -18.72531,-11.16754 z m 8.041978,-8.908128 c 8.607767,7.770838 18.878374,11.436128 30.844247,10.959968 11.893212,-0.54175 21.696744,-5.12144 29.511721,-13.7781 5.12351,-5.675334 8.47386,-12.234282 9.94988,-19.63781 1.476,-7.403536 1.12826,-14.758414 -1.21314,-22.022512 -2.34139,-7.264091 -6.34697,-13.487983 -12.08548,-18.668566 -5.73852,-5.18053 -12.374614,-8.56361 -19.839526,-10.1524 -7.464913,-1.588766 -14.820852,-1.253697 -22.0678,1.005196 -7.246949,2.258908 -13.397799,6.224435 -18.521308,11.89978 -5.123517,5.675327 -8.473849,12.234287 -9.949874,19.637821 -1.476006,7.403514 -1.091951,14.791225 1.217044,22.091217 2.308977,7.300013 6.415722,13.48485 12.154236,18.665406 z M 81.869052,100.95856 46.41418,44.503119 c -0.330767,-0.363792 -0.350215,-0.70734 -0.05832,-1.030619 0.291916,-0.323208 0.635587,-0.338933 1.031183,-0.04702 l 59.742887,29.55155 c 0.52926,0.216972 0.78738,0.515217 0.84315,0.891532 0.0557,0.376336 -0.20364,0.663688 -0.77865,0.861732 L 91.220586,82.931963 C 90.751017,83.16 90.426745,83.519201 90.280192,83.973644 l -6.627985,16.834426 c -0.106354,0.55591 -0.333361,0.80734 -0.680615,0.75463 -0.347629,-0.0531 -0.804211,-0.20447 -1.10256,-0.60418 z"
   id="path2"
   style="fill:#2c4f54;fill-opacity:0.5;stroke:#2e3332;stroke-width:0.3;stroke-miterlimit:4;stroke-dasharray:none;stroke-opacity:0.9" />
<path
   style="fill:#2c4f53;fill-opacity:0.499285;stroke:#e4e7e7;stroke-width:0.3;stroke-miterlimit:4;stroke-dasharray:none;stroke-opacity:0.9"
   d="m 100.54963,98.592199 c -1.539026,1.376599 -3.345998,2.784271 -5.006693,3.900361 -9.338203,6.27578 -22.423693,8.14926 -33.797659,4.8389 C 55.622883,105.54953 51.122991,102.97993 46.146506,98.423974 41.03842,93.747835 37.960469,89.30359 35.587207,83.178869 33.987639,79.050767 33.163426,75.278938 32.854693,70.673795 32.24196,61.534619 34.247641,53.305486 38.962382,45.613908 c 0.98186,-1.601797 1.458947,-2.203751 4.131916,-5.213423 3.24455,-3.653127 4.264156,-4.588641 7.257985,-6.659183 4.521665,-3.127056 10.640289,-5.577272 16.35028,-6.547454 2.329087,-0.395743 7.234894,-0.590045 9.650365,-0.382179 5.84587,0.50298 11.430866,2.135173 16.122088,4.711668 3.459431,1.899927 4.568214,2.710139 7.986044,5.835466 2.41098,2.20478 3.38789,3.187494 4.28591,4.31229 5.45397,6.830821 8.63706,15.225621 9.09584,23.988658 0.46983,8.974729 -1.85711,17.773212 -6.63955,25.104994 -1.10245,1.690128 -5.25907,6.580027 -6.65361,7.827495 z M 86.365418,91.805048 c 1.781509,-4.571033 3.32039,-8.465115 3.419726,-8.653506 0.122555,-0.232534 2.808174,-1.721335 8.362693,-4.636033 4.709983,-2.471564 8.234763,-4.411351 8.306253,-4.571185 0.14809,-0.331296 -0.18551,-0.883172 -0.72419,-1.197944 C 105.51603,72.621429 92.503648,66.126717 76.813459,58.313689 49.318836,44.622575 48.271457,44.115951 47.888533,44.322617 c -0.295905,0.159776 -0.392186,0.29899 -0.376893,0.546129 0.02537,0.408776 33.580192,54.81856 34.10039,55.294114 0.469963,0.42972 1.237241,0.54212 1.395983,0.20455 0.0649,-0.13838 1.575874,-3.991361 3.357383,-8.562392 z"
   id="path861" /><rect
   style="fill:#c7485e;fill-opacity:1;stroke:#3c4343;stroke-width:1.28812;stroke-opacity:0.9"
   id="rect2803"
   width="14.13"
   height="0.1659108"
   x="-12.865364"
   y="88.620705"
   transform="matrix(0.62817653,-0.77807085,0.77252007,0.63499035,0,0)"
   inkscape:transform-center-x="-1.6127191"
   inkscape:transform-center-y="11.170939" /><path
   style="fill:#a06f78;fill-opacity:1;stroke:#e27364;stroke-width:0.100941;stroke-opacity:0.9"
   d="m 59.350579,64.283262 c -0.129074,-0.216066 -2.964803,-4.835278 -6.301797,-10.26493 -3.336995,-5.429648 -6.122106,-10.024674 -6.189107,-10.211147 -0.10539,-0.29344 20.588883,10.365175 21.154469,10.8956 0.154559,0.144814 -0.941132,1.500734 -4.109195,5.085409 -4.039549,4.570758 -4.335127,4.862341 -4.554319,4.495104 z"
   id="path3397"
   inkscape:transform-center-x="5.4935617"
   inkscape:transform-center-y="4.4888709" /><g
   aria-label="c"
   transform="scale(1.0219262,0.97854425)"
   id="text9344"
   style="font-size:15.7955px;line-height:1.25;font-family:'Segoe Script';-inkscape-font-specification:'Segoe Script';fill:#e0e0e0;stroke-width:0.394888"><path
     d="m 76.15108,6.7893624 q 0,0.2776553 -0.200528,0.501322 -0.208242,0.2313794 -0.362495,0.393345 -0.154253,0.1542529 -0.29308,0.2853679 -0.138828,0.131115 -0.293081,0.2545174 -0.154253,0.1156897 -0.362494,0.2699426 -0.586161,0.4241955 -1.118334,0.7172761 -0.532173,0.2853679 -1.033495,0.4704714 -0.501322,0.1773909 -0.994931,0.2545174 -0.485897,0.077127 -0.979506,0.077127 -0.516747,0 -0.925518,-0.1928165 Q 69.178848,9.6199037 68.89348,9.2805472 68.615825,8.9411908 68.469285,8.4938573 68.322744,8.0388111 68.322744,7.5374891 v -0.038563 q 0,-0.5090347 0.131115,-1.0797705 0.131115,-0.5784485 0.362495,-1.156897 0.239092,-0.5784484 0.570735,-1.133759 0.331644,-0.5630232 0.732702,-1.0489199 0.161965,-0.1928161 0.385632,-0.4087702 0.23138,-0.2236668 0.485897,-0.4087703 0.26223,-0.1851035 0.539885,-0.3007932 0.285368,-0.1234024 0.555311,-0.1234024 0.185103,0 0.354781,0.1156897 0.169679,0.1079771 0.316219,0.285368 0.14654,0.1773908 0.269943,0.4010576 0.123402,0.2159541 0.208241,0.4473335 0.08484,0.2236667 0.131115,0.4319082 0.04628,0.2082414 0.04628,0.3547817 0,0.2236667 -0.138828,0.5784485 -0.138827,0.3547817 -0.331644,0.3547817 -0.277655,0 -0.462758,-0.3779197 Q 72.410447,4.2827524 72.356458,4.0899362 72.310182,3.89712 72.240769,3.7120165 72.179067,3.526913 72.07109,3.3726601 71.963113,3.2106945 71.770297,3.133568 q -0.192816,0.046276 -0.393345,0.2005288 -0.192816,0.154253 -0.385632,0.3779197 -0.185104,0.2236668 -0.370207,0.5090347 -0.177391,0.2776553 -0.339357,0.5784485 -0.154252,0.2776552 -0.300793,0.6401496 -0.14654,0.3547817 -0.26223,0.7404141 -0.115689,0.3779196 -0.185103,0.7558393 -0.06941,0.3779197 -0.06941,0.6941382 0,0.2236667 0.107977,0.4550461 0.107977,0.2236668 0.277655,0.4087703 0.177391,0.1851035 0.393345,0.3007932 0.223667,0.1156897 0.455046,0.1156897 1.141472,0 2.267518,-0.4704714 1.126047,-0.4704715 2.144116,-1.3651385 0.563023,-0.4936093 0.93323,-0.4936093 0.107977,0 0.107977,0.2082414 z"
     id="path4697" /></g><g
   aria-label="ю"
   transform="scale(0.88842139,1.125592)"
   id="text11307"
   style="font-size:12.6573px;line-height:1.25;font-family:'Segoe Script';-inkscape-font-specification:'Segoe Script';fill:#e0e0e0;stroke-width:0.31643"><path
     d="m 76.442223,119.50054 q 0,-0.0247 -0.0309,-0.0433 -0.02472,-0.0247 -0.0618,-0.0618 -0.03708,-0.0371 -0.06798,-0.0989 -0.02472,-0.0618 -0.02472,-0.17305 0,-0.0989 0.05562,-0.17923 0.05562,-0.0803 0.117426,-0.14832 0.06798,-0.068 0.123606,-0.12361 0.0618,-0.0556 0.07416,-0.10507 0.105066,-0.59331 0.17923,-1.11863 0.07416,-0.52533 0.09271,-0.87761 0.0062,-0.10506 0,-0.21631 0,-0.11125 -0.0062,-0.22249 -0.0062,-0.0804 -0.01236,-0.15451 0,-0.0742 0,-0.14215 0,-0.0742 0.05562,-0.16687 0.05562,-0.0927 0.135968,-0.17305 0.08652,-0.0803 0.185409,-0.12978 0.105066,-0.0556 0.203951,-0.0556 0.08652,0 0.173049,0.0494 0.08652,0.0433 0.154508,0.12978 0.06798,0.0804 0.111246,0.20396 0.04326,0.11742 0.04326,0.26575 0,0.11124 -0.01854,0.27193 -0.01854,0.16069 -0.04944,0.35228 -0.0309,0.19159 -0.07416,0.40172 -0.03708,0.21013 -0.07416,0.42026 -0.04944,0.29048 -0.09888,0.55623 -0.04326,0.26576 -0.06798,0.45735 0.02472,0.0556 0.04326,0.0989 0.02472,0.0371 0.0618,0.0618 0.03708,0.0247 0.0927,0.0371 0.0618,0.0124 0.160689,0.0124 0.265754,0 0.562409,-0.0556 0.296655,-0.0556 0.562409,-0.14215 0.265754,-0.0865 0.475885,-0.17923 0.216311,-0.0989 0.321377,-0.18541 0.06798,-0.0556 0.148328,-0.14833 0.08652,-0.0927 0.173049,-0.19777 0.08652,-0.11125 0.166868,-0.21631 0.08652,-0.11125 0.148328,-0.19159 0.210131,-0.26575 0.475885,-0.51915 0.265754,-0.25339 0.587131,-0.44498 0.321376,-0.19159 0.692196,-0.30902 0.376999,-0.11742 0.815802,-0.11742 0.333738,0 0.655114,0.16687 0.321377,0.16068 0.56859,0.4388 0.253393,0.27811 0.401721,0.64275 0.154508,0.35846 0.154508,0.754 0,0.39554 -0.08034,0.7231 -0.07416,0.32138 -0.241033,0.68601 -0.0927,0.19159 -0.321377,0.45735 -0.228671,0.26575 -0.550048,0.55005 -0.315197,0.28429 -0.692196,0.56241 -0.377,0.27811 -0.76636,0.5006 -0.389361,0.22249 -0.76636,0.35846 -0.37082,0.13597 -0.673655,0.13597 -0.407902,0 -0.698377,-0.13597 -0.290475,-0.14215 -0.475885,-0.36464 -0.185409,-0.22867 -0.271934,-0.51914 -0.08652,-0.29048 -0.08652,-0.58714 0,-0.24103 0.06798,-0.58095 0.07416,-0.34609 0.247213,-0.69837 -0.234852,0.14833 -0.525327,0.23485 -0.284295,0.0865 -0.525328,0.15451 -0.105065,0.0309 -0.234852,0.0556 -0.129787,0.0185 -0.259573,0.0371 -0.123607,0.0185 -0.241033,0.0371 -0.111246,0.0185 -0.19159,0.0309 -0.123606,0.0247 -0.173049,0.0989 -0.04326,0.068 -0.06798,0.17923 -0.02472,0.10507 -0.07416,0.27812 -0.04944,0.17304 -0.09889,0.35845 -0.05562,0.19777 -0.117426,0.40791 -0.0618,0.21013 -0.111245,0.40172 -0.04326,0.18541 -0.08035,0.34609 -0.0309,0.15451 -0.0309,0.24104 0,0.0803 -0.06798,0.17305 -0.0618,0.0927 -0.148328,0.17305 -0.08034,0.0865 -0.166868,0.14214 -0.08034,0.0556 -0.123607,0.0556 -0.0927,0 -0.179229,-0.0618 -0.08034,-0.0618 -0.142147,-0.14214 -0.0618,-0.0804 -0.09889,-0.16069 -0.03708,-0.0865 -0.03708,-0.12979 0,-0.0556 0.04326,-0.19777 0.04944,-0.14215 0.09888,-0.29048 0.0309,-0.0927 0.08034,-0.25339 0.04944,-0.16069 0.09888,-0.35228 0.05562,-0.19777 0.105066,-0.4079 0.05562,-0.21013 0.09889,-0.39554 0.04326,-0.18541 0.06798,-0.32138 0.02472,-0.14214 0.02472,-0.20395 z m 7.447288,-1.39675 q 0,-0.61803 -0.358459,-0.96413 -0.352278,-0.35228 -1.013573,-0.35228 -0.0927,0 -0.228671,0.0742 -0.135968,0.0742 -0.296656,0.19159 -0.154508,0.11124 -0.315196,0.24721 -0.154508,0.13597 -0.296656,0.26575 -0.135967,0.12979 -0.234852,0.23485 -0.09888,0.10507 -0.135967,0.14833 -0.129787,0.15451 -0.271934,0.42644 -0.135967,0.26576 -0.253394,0.57477 -0.117426,0.30902 -0.19777,0.62422 -0.07416,0.30901 -0.07416,0.54387 0,0.14214 0.03708,0.29047 0.04326,0.14833 0.123607,0.27194 0.08652,0.11742 0.216311,0.19777 0.129787,0.0742 0.302836,0.0742 0.19159,0 0.488245,-0.11125 0.296656,-0.11124 0.624213,-0.30901 0.333737,-0.19777 0.667475,-0.46971 0.339917,-0.27193 0.605671,-0.58713 0.271934,-0.31519 0.438803,-0.66129 0.173049,-0.35228 0.173049,-0.71074 z"
     id="path4739" /></g><g
   aria-label="з"
   transform="scale(1.3773375,0.72603846)"
   id="text16794"
   style="font-size:14.5777px;line-height:1.25;font-family:'Segoe Script';-inkscape-font-specification:'Segoe Script';fill:#e0e0e0;stroke-width:0.364441"><path
     d="m 2.7927042,90.871497 q 0.07118,0 0.1138883,0.04983 0.049826,0.04983 0.078298,0.121006 0.028472,0.0783 0.03559,0.170833 0.014236,0.09253 0.014236,0.17795 0,0.163714 0.056944,0.355901 0.064062,0.192186 0.1993045,0.355901 0.1423604,0.163714 0.3630189,0.270484 0.2206586,0.113889 0.5409693,0.113889 0.4341991,0 0.8968702,-0.227777 0.4626712,-0.227776 0.8470441,-0.633503 0.3843729,-0.405727 0.6263855,-0.968051 0.2491307,-0.555205 0.2491307,-1.217181 0,-0.612149 -0.1281244,-1.03923 Q 6.5581354,87.974464 6.3517129,87.711097 6.1524084,87.440612 5.8890418,87.319606 5.6256751,87.1986 5.3623085,87.1986 q -0.099652,0 -0.2206585,0.04983 -0.1210063,0.04271 -0.2491307,0.113888 -0.1210062,0.06406 -0.2491306,0.142361 -0.1210063,0.0783 -0.2206585,0.14236 -0.1708324,0.113888 -0.3274288,0.192186 -0.1494784,0.0783 -0.398609,0.0783 -0.1921864,0 -0.3345468,-0.142361 -0.1352423,-0.149478 -0.1352423,-0.391491 0,-0.185068 0.1281243,-0.313193 0.1352423,-0.128124 0.412845,-0.242012 0.5907954,-0.242013 1.0534666,-0.491143 0.4697891,-0.256249 0.7900999,-0.548088 0.3203108,-0.298956 0.4911432,-0.654857 0.1708324,-0.355901 0.1708324,-0.811454 0,-0.177951 -0.056944,-0.348783 -0.049826,-0.177951 -0.1565964,-0.313193 -0.1067703,-0.14236 -0.2633666,-0.227776 -0.1494784,-0.09254 -0.3487829,-0.09254 -0.427081,0 -0.811454,0.263367 -0.3843729,0.263367 -0.7545098,0.64774 -0.1637144,0.170832 -0.2704847,0.24913 -0.1067702,0.07118 -0.2277765,0.07118 -0.099652,0 -0.1779505,-0.04983 -0.07118,-0.05694 -0.1210063,-0.128124 -0.042708,-0.0783 -0.07118,-0.163714 -0.021354,-0.09253 -0.021354,-0.156597 0,-0.170832 0.092534,-0.320311 0.099652,-0.156596 0.2633667,-0.291838 0.3559008,-0.298957 0.6975657,-0.491144 0.3416648,-0.192186 0.5623234,-0.28472 0.2491306,-0.09965 0.5124972,-0.192187 0.2704847,-0.09253 0.5053792,-0.09253 0.3345469,0 0.6406216,0.121006 0.3060748,0.113889 0.5338513,0.341665 0.2348946,0.220659 0.3701369,0.548088 0.1423604,0.327428 0.1423604,0.740273 0,0.597914 -0.2918387,1.188709 -0.2847207,0.590796 -0.9751684,1.146001 0.4769071,0.02135 0.832808,0.242013 0.3559009,0.220658 0.5907955,0.583677 0.2420125,0.363019 0.3559008,0.839926 0.1210063,0.469789 0.1210063,0.996523 0,0.526733 -0.1423603,1.046348 -0.1423604,0.519615 -0.405727,0.996523 -0.2562486,0.476907 -0.6192675,0.882634 -0.3559009,0.405727 -0.7901,0.704683 -0.427081,0.298957 -0.9182242,0.46979 -0.4840252,0.170832 -0.9965225,0.170832 -0.4911432,0 -0.854162,-0.163714 Q 2.8567664,93.099436 2.6147538,92.857424 2.3798592,92.615411 2.2588529,92.337808 2.1378466,92.060206 2.1378466,91.825311 q 0,-0.17795 0.064062,-0.384373 0.07118,-0.206422 0.1565964,-0.327429 0.056944,-0.0783 0.1637144,-0.163714 0.1067702,-0.0783 0.2704846,-0.0783 z"
     id="path4676" /></g><g
   aria-label="в"
   transform="scale(1.3926251,0.71806835)"
   id="text19318"
   style="font-size:15.1804px;line-height:1.25;font-family:'Segoe Script';-inkscape-font-specification:'Segoe Script';fill:#e0e0e0;stroke-width:0.379511"><path
     d="m 99.036006,83.80416 q 0,-0.08895 -0.03706,-0.177895 -0.02965,-0.09636 -0.09636,-0.170483 -0.0593,-0.08154 -0.163071,-0.133421 -0.09636,-0.05189 -0.229782,-0.05189 -0.25943,0 -0.541098,0.185308 -0.274255,0.185308 -0.555923,0.511449 -0.274255,0.318729 -0.533686,0.763467 -0.25943,0.437326 -0.481799,0.948775 -0.22237,0.511449 -0.400265,1.074785 -0.170483,0.555922 -0.274255,1.119258 0.06671,-0.04447 0.200132,-0.140834 0.133422,-0.103772 0.296492,-0.229782 0.170483,-0.133421 0.355791,-0.281667 0.19272,-0.155659 0.363203,-0.303905 0.177895,-0.148246 0.326141,-0.281667 0.148246,-0.133422 0.237194,-0.229782 0.822766,-0.889476 1.178556,-1.541759 0.355791,-0.652283 0.355791,-1.05996 z m -0.229781,7.990465 q -0.229782,0.340966 -0.555923,0.667107 -0.318729,0.318729 -0.704169,0.563335 -0.38544,0.244606 -0.822766,0.38544 -0.429914,0.140834 -0.874652,0.103772 -0.311317,-0.02224 -0.592984,-0.200132 -0.281668,-0.185307 -0.496625,-0.518861 -0.214957,-0.340966 -0.340966,-0.830178 -0.126009,-0.489212 -0.126009,-1.12667 0,-0.407677 0.04447,-0.882065 0.04447,-0.4818 0.118597,-0.971012 0.07412,-0.489212 0.16307,-0.956187 0.09636,-0.466975 0.185308,-0.859827 0.118597,-0.533686 0.311317,-1.052548 0.19272,-0.526273 0.429914,-1.008073 0.237193,-0.489212 0.511449,-0.919126 0.274255,-0.429913 0.563335,-0.778292 0.400264,-0.466975 0.911713,-0.748643 0.518861,-0.281667 1.215618,-0.281667 0.28908,0 0.526274,0.118597 0.237194,0.118597 0.407677,0.311317 0.170483,0.185307 0.25943,0.422501 0.09636,0.237194 0.09636,0.466975 0,0.318729 -0.133424,0.711581 -0.12601,0.38544 -0.370616,0.807942 -0.244606,0.422501 -0.592984,0.852415 -0.348378,0.429913 -0.793117,0.830178 0.103773,0.0074 0.237194,0.03706 0.140834,0.02224 0.28908,0.08895 0.155658,0.06671 0.311317,0.177895 0.163071,0.111185 0.311317,0.281668 0.06671,0.08153 0.148246,0.222369 0.08154,0.133421 0.148246,0.333554 0.07412,0.19272 0.118597,0.444738 0.05189,0.252018 0.05189,0.555923 0,0.592984 -0.214957,1.282328 -0.207544,0.681933 -0.74123,1.467637 z M 98.59868,89.066897 q 0,-0.407677 -0.118597,-0.681932 -0.118597,-0.281668 -0.281667,-0.444739 -0.163071,-0.170483 -0.333554,-0.237193 -0.170483,-0.07412 -0.274255,-0.07412 -0.09636,0 -0.303905,0.148246 -0.207544,0.148246 -0.444738,0.326141 -0.177895,0.155658 -0.355791,0.28908 -0.177895,0.133421 -0.333553,0.259431 -0.148247,0.126009 -0.274256,0.252018 -0.126009,0.126009 -0.207544,0.266843 -0.207545,0.378027 -0.244606,0.859827 -0.03706,0.4818 -0.03706,0.985837 0,0.333554 0.06671,0.600396 0.07412,0.259431 0.177895,0.444739 0.111185,0.185307 0.237194,0.28908 0.126009,0.09636 0.229781,0.09636 0.252019,0 0.570748,-0.103773 0.318729,-0.103772 0.652283,-0.407676 0.28908,-0.266843 0.518861,-0.600397 0.237194,-0.333554 0.400264,-0.704169 0.170483,-0.370615 0.259431,-0.77088 0.09636,-0.400264 0.09636,-0.793116 z"
     id="path4718" /></g><text
   xml:space="preserve"
   style="font-size:26.5344px;line-height:1.25;font-family:'Segoe Script';-inkscape-font-specification:'Segoe Script';fill:#16272a;fill-opacity:0.799714;stroke-width:0.663359"
   x="14.728296"
   y="84.003174"
   id="text17884"
   transform="scale(1.3128994,0.76167297)"><tspan
     sodipodi:role="line"
     id="tspan17882"
     x="14.728296"
     y="84.003174"
     style="stroke-width:0.663359">_</tspan></text><text
   xml:space="preserve"
   style="font-size:27.0277px;line-height:1.25;font-family:'Segoe Script';-inkscape-font-specification:'Segoe Script';fill:#16272a;fill-opacity:0.799714;stroke-width:0.675691"
   x="83.480225"
   y="85.014175"
   id="text17884-6"
   transform="scale(1.3373062,0.74777189)"><tspan
     sodipodi:role="line"
     id="tspan17882-2"
     x="83.480225"
     y="85.014175"
     style="stroke-width:0.675691">_</tspan></text><text
   xml:space="preserve"
   style="font-size:23.7433px;line-height:1.25;font-family:'Segoe Script';-inkscape-font-specification:'Segoe Script';fill:#16272a;fill-opacity:0.799714;stroke-width:0.593581"
   x="-93.165771"
   y="91.782661"
   id="text17884-0"
   transform="matrix(-0.01836565,-1.3623732,0.73328263,-0.05419994,0,0)"><tspan
     sodipodi:role="line"
     id="tspan17882-4"
     x="-93.165771"
     y="91.782661"
     style="stroke-width:0.593581">_</tspan></text><text
   xml:space="preserve"
   style="font-size:26.7951px;line-height:1.25;font-family:'Segoe Script';-inkscape-font-specification:'Segoe Script';fill:#16272a;fill-opacity:0.799714;stroke-width:0.669874"
   x="-21.821737"
   y="94.77462"
   id="text17884-9"
   transform="matrix(5.133754e-4,-1.3316157,0.75096685,0.00144598,0,0)"><tspan
     sodipodi:role="line"
     id="tspan17882-7"
     x="-21.821737"
     y="94.77462"
     style="stroke-width:0.669874">_</tspan></text></svg>
