<?xml version="1.0" encoding="UTF-8" standalone="no"?>
<!-- Generator: Adobe Illustrator 22.0.1, SVG Export Plug-In . SVG Version: 6.00 Build 0)  -->

<svg
   version="1.1"
   id="Layer_1"
   x="0px"
   y="0px"
   viewBox="0 0 140 140"
   xml:space="preserve"
   sodipodi:docname="northWind2.svg"
   width="140"
   height="140"
   inkscape:version="1.1.1 (3bf5ae0d25, 2021-09-20)"
   xmlns:inkscape="http://www.inkscape.org/namespaces/inkscape"
   xmlns:sodipodi="http://sodipodi.sourceforge.net/DTD/sodipodi-0.dtd"
   xmlns="http://www.w3.org/2000/svg"
   xmlns:svg="http://www.w3.org/2000/svg"><defs
   id="defs7" /><sodipodi:namedview
   id="namedview5"
   pagecolor="#ffffff"
   bordercolor="#666666"
   borderopacity="1.0"
   inkscape:pageshadow="2"
   inkscape:pageopacity="0.0"
   inkscape:pagecheckerboard="0"
   showgrid="false"
   inkscape:zoom="2.5396918"
   inkscape:cx="-96.468398"
   inkscape:cy="69.102873"
   inkscape:window-width="2400"
   inkscape:window-height="1321"
   inkscape:window-x="2391"
   inkscape:window-y="-9"
   inkscape:window-maximized="1"
   inkscape:current-layer="Layer_1"
   width="140px" />
<path
   d="m 17.183869,67.919988 c 0.194254,-9.979943 2.841724,-19.178031 7.893081,-27.546305 5.051366,-8.368276 11.810219,-14.941469 20.276583,-19.719608 8.466355,-4.778145 17.609884,-7.047156 27.431556,-6.856012 7.354141,0.143129 14.389444,1.748261 21.058451,4.765492 6.66899,3.017253 12.34941,7.091928 17.14084,12.07916 4.7914,4.987265 8.54778,10.933121 11.26904,17.837645 2.72127,6.90455 4.0347,14.026361 3.88807,21.560246 -0.14472,7.436029 -1.73522,14.550278 -4.72214,21.294783 -2.98692,6.744479 -7.02016,12.538771 -11.95364,17.336731 -4.93344,4.79797 -10.815561,8.59864 -17.596917,11.35412 -6.781367,2.75546 -13.825403,4.08654 -21.227932,3.94247 -7.402548,-0.14405 -14.48622,-1.75013 -21.155231,-4.76738 C 42.816634,116.18407 37.087853,112.10847 32.29641,107.12125 27.504982,102.13401 23.797014,96.189067 21.025476,89.381429 18.253893,82.573791 17.038189,75.404932 17.183869,67.919988 Z m 11.998895,0.233524 c -0.225658,11.59434 3.739104,21.753096 11.94267,30.47722 8.205459,8.626278 18.0904,13.027488 29.750602,13.254428 7.644447,0.14879 14.793824,-1.62072 21.352314,-5.35931 6.558492,-3.7386 11.88473,-8.822543 15.8355,-15.352528 3.95077,-6.529969 6.02509,-13.634806 6.17554,-21.364374 0.15043,-7.729549 -1.64493,-14.958632 -5.3386,-21.637407 C 105.20711,41.492784 100.13205,36.157446 93.675606,32.165548 87.219163,28.173642 80.192456,26.128237 72.547999,25.979457 64.903548,25.830668 57.754178,27.60018 51.195672,31.338771 44.637203,35.077364 39.309998,40.210245 35.310859,46.739285 31.311718,53.268326 29.333205,60.423951 29.182764,68.153512 Z M 52.284835,97.232914 71.676578,33.450272 c 0.0579,-0.488257 0.304583,-0.72816 0.740066,-0.719639 0.435436,0.0086 0.672599,0.257792 0.711484,0.747893 L 89.97489,97.966457 c 0.183088,0.541913 0.127065,0.932334 -0.120552,1.221151 -0.247684,0.288757 -0.634688,0.281273 -1.161183,-0.02263 l -16.664974,-6.68651 c -0.480022,-0.205116 -0.963849,-0.214534 -1.403102,-0.0273 l -17.057693,6.030204 c -0.489526,0.284089 -0.828204,0.277493 -1.016029,-0.0198 -0.187786,-0.297309 -0.372781,-0.741342 -0.266506,-1.228675 z"
   id="path2"
   style="fill:#2c4f54;fill-opacity:0.5;stroke:#2e3332;stroke-width:0.3;stroke-opacity:0.9;stroke-miterlimit:4;stroke-dasharray:none" />
<path
   style="fill:#2c4f53;stroke:#e4e7e7;stroke-width:0.3;stroke-opacity:0.9;fill-opacity:0.49928465;stroke-miterlimit:4;stroke-dasharray:none"
   d="m 66.196616,110.08932 c -2.048357,-0.2605 -4.295762,-0.70304 -6.227073,-1.22616 C 49.109794,105.92156 39.119971,97.264588 34.167471,86.503617 31.501642,80.711176 30.494013,75.628216 30.674559,68.883619 c 0.185067,-6.922772 1.525292,-12.160032 4.596684,-17.966157 2.070165,-3.913347 4.379285,-7.007534 7.655639,-10.258402 6.502132,-6.451521 14.032575,-10.328843 22.932174,-11.807504 1.85336,-0.307935 2.62069,-0.342003 6.645707,-0.295053 4.885607,0.05713 6.26041,0.214285 9.786249,1.11901 5.325092,1.366521 11.185355,4.382893 15.659844,8.060411 1.825136,1.500044 5.186574,5.078513 6.612394,7.039312 3.45071,4.745493 5.87749,10.033869 7.00531,15.26587 0.8317,3.858205 0.94623,5.226677 0.82502,9.856425 -0.0856,3.265954 -0.18777,4.647864 -0.44898,6.063265 -1.58606,8.595956 -5.84158,16.501351 -12.160464,22.590118 -6.471503,6.235876 -14.642571,10.243576 -23.314748,11.435316 -1.999113,0.27473 -8.416638,0.33913 -10.272772,0.10311 z M 62.028957,94.927273 c 4.620292,-1.649562 8.570225,-3.03882 8.77763,-3.087228 0.255958,-0.0598 3.140402,0.993309 8.981889,3.279188 4.953326,1.938302 8.728324,3.32978 8.895909,3.279045 0.347301,-0.105224 0.545577,-0.718852 0.430379,-1.332019 -0.04573,-0.243437 -3.666463,-14.328677 -8.046019,-31.300556 -7.674496,-29.740599 -7.978123,-30.863751 -8.385164,-31.017594 -0.314584,-0.11885 -0.482841,-0.100358 -0.659505,0.0732 -0.292333,0.286858 -19.404952,61.287457 -19.423313,61.992033 -0.0166,0.636598 0.401228,1.28984 0.760246,1.188555 0.147053,-0.04167 4.047664,-1.425065 8.667954,-3.074628 z"
   id="path861" /><rect
   style="fill:#c7485e;fill-opacity:1;stroke:#3c4343;stroke-width:1.31505;stroke-opacity:0.9"
   id="rect2803"
   width="14.409912"
   height="0.16956013"
   x="61.691818"
   y="65.505196"
   transform="matrix(0.99983267,-0.01829275,0.03171418,0.99949698,0,0)"
   inkscape:transform-center-x="7.4872739"
   inkscape:transform-center-y="8.5920554" /><path
   style="fill:#a06f78;fill-opacity:1;stroke:#e27364;stroke-width:0.100941;stroke-opacity:0.9"
   d="m 65.193408,62.940714 c 0.07273,-0.240935 1.575335,-5.448696 3.339102,-11.572899 1.763763,-6.124194 3.28265,-11.278215 3.37529,-11.453361 0.145794,-0.275625 6.21313,22.197639 6.202262,22.972956 -0.0029,0.211786 -1.743058,0.315726 -6.526469,0.390007 -6.099249,0.09471 -6.513857,0.07276 -6.390185,-0.336643 z"
   id="path3397"
   inkscape:transform-center-x="6.8092697"
   inkscape:transform-center-y="-4.0867083" /><text
   xml:space="preserve"
   style="font-size:15.7955px;line-height:1.25;font-family:'Segoe Script';-inkscape-font-specification:'Segoe Script';stroke-width:0.394888;fill:#e0e0e0;fill-opacity:1"
   x="67.335526"
   y="9.982398"
   id="text9344"
   transform="scale(1.0219262,0.97854425)"><tspan
     sodipodi:role="line"
     id="tspan9342"
     x="67.335526"
     y="9.982398"
     style="stroke-width:0.394888;fill:#e0e0e0;fill-opacity:1">c</tspan></text><text
   xml:space="preserve"
   style="font-size:12.6573px;line-height:1.25;font-family:'Segoe Script';-inkscape-font-specification:'Segoe Script';stroke-width:0.31643;fill:#e0e0e0;fill-opacity:1"
   x="74.785896"
   y="122.05302"
   id="text11307"
   transform="scale(0.88842139,1.125592)"><tspan
     sodipodi:role="line"
     id="tspan11305"
     x="74.785896"
     y="122.05302"
     style="stroke-width:0.31643;fill:#e0e0e0;fill-opacity:1">ю</tspan></text><text
   xml:space="preserve"
   style="font-size:14.5777px;line-height:1.25;font-family:'Segoe Script';-inkscape-font-specification:'Segoe Script';stroke-width:0.364441;fill:#e0e0e0;fill-opacity:1"
   x="1.7463557"
   y="90.302055"
   id="text16794"
   transform="scale(1.3773375,0.72603846)"><tspan
     sodipodi:role="line"
     id="tspan16792"
     x="1.7463557"
     y="90.302055"
     style="stroke-width:0.364441;fill:#e0e0e0;fill-opacity:1">з</tspan></text><text
   xml:space="preserve"
   style="font-size:15.1804px;line-height:1.25;font-family:'Segoe Script';-inkscape-font-specification:'Segoe Script';stroke-width:0.379511;fill:#e0e0e0;fill-opacity:1"
   x="93.284058"
   y="93.328972"
   id="text19318"
   transform="scale(1.3926251,0.71806835)"><tspan
     sodipodi:role="line"
     id="tspan19316"
     x="93.284058"
     y="93.328972"
     style="stroke-width:0.379511;fill:#e0e0e0;fill-opacity:1">в</tspan></text><text
   xml:space="preserve"
   style="font-size:26.5344px;line-height:1.25;font-family:'Segoe Script';-inkscape-font-specification:'Segoe Script';fill:#16272a;fill-opacity:0.799714;stroke-width:0.663359"
   x="13.978527"
   y="84.003174"
   id="text17884"
   transform="scale(1.3128994,0.76167297)"><tspan
     sodipodi:role="line"
     id="tspan17882"
     x="13.978527"
     y="84.003174"
     style="stroke-width:0.663359">_</tspan></text><text
   xml:space="preserve"
   style="font-size:27.0277px;line-height:1.25;font-family:'Segoe Script';-inkscape-font-specification:'Segoe Script';fill:#16272a;fill-opacity:0.799714;stroke-width:0.675691"
   x="82.155273"
   y="84.882538"
   id="text17884-6"
   transform="scale(1.3373062,0.74777188)"><tspan
     sodipodi:role="line"
     id="tspan17882-2"
     x="82.155273"
     y="84.882538"
     style="stroke-width:0.675691">_</tspan></text><text
   xml:space="preserve"
   style="font-size:23.7433px;line-height:1.25;font-family:'Segoe Script';-inkscape-font-specification:'Segoe Script';fill:#16272a;fill-opacity:0.799714;stroke-width:0.593581"
   x="-94.104141"
   y="91.759155"
   id="text17884-0"
   transform="matrix(-0.01836565,-1.3623732,0.73328264,-0.05419994,0,0)"><tspan
     sodipodi:role="line"
     id="tspan17882-4"
     x="-94.104141"
     y="91.759155"
     style="stroke-width:0.593581">_</tspan></text><text
   xml:space="preserve"
   style="font-size:26.7951px;line-height:1.25;font-family:'Segoe Script';-inkscape-font-specification:'Segoe Script';fill:#16272a;fill-opacity:0.799714;stroke-width:0.669874"
   x="-22.11743"
   y="94.774826"
   id="text17884-9"
   transform="matrix(5.133754e-4,-1.3316157,0.75096685,0.00144598,0,0)"><tspan
     sodipodi:role="line"
     id="tspan17882-7"
     x="-22.11743"
     y="94.774826"
     style="stroke-width:0.669874">_</tspan></text></svg>
