<?xml version="1.0" encoding="UTF-8" standalone="no"?>
<!-- Generator: Adobe Illustrator 22.0.1, SVG Export Plug-In . SVG Version: 6.00 Build 0)  -->

<svg
   version="1.1"
   id="Layer_1"
   x="0px"
   y="0px"
   viewBox="0 0 140 140"
   xml:space="preserve"
   sodipodi:docname="northWind.svg"
   width="140"
   height="140"
   inkscape:version="1.1.1 (3bf5ae0d25, 2021-09-20)"
   xmlns:inkscape="http://www.inkscape.org/namespaces/inkscape"
   xmlns:sodipodi="http://sodipodi.sourceforge.net/DTD/sodipodi-0.dtd"
   xmlns="http://www.w3.org/2000/svg"
   xmlns:svg="http://www.w3.org/2000/svg"><defs
   id="defs7" /><sodipodi:namedview
   id="namedview5"
   pagecolor="#ffffff"
   bordercolor="#666666"
   borderopacity="1.0"
   inkscape:pageshadow="2"
   inkscape:pageopacity="0.0"
   inkscape:pagecheckerboard="0"
   showgrid="false"
   inkscape:zoom="5.0793836"
   inkscape:cx="77.962216"
   inkscape:cy="75.698162"
   inkscape:window-width="2400"
   inkscape:window-height="1321"
   inkscape:window-x="2391"
   inkscape:window-y="-9"
   inkscape:window-maximized="1"
   inkscape:current-layer="Layer_1"
   width="140px" />
<path
   d="m 17.183869,67.919988 c 0.194254,-9.979943 2.841724,-19.178031 7.893081,-27.546305 5.051366,-8.368276 11.810219,-14.941469 20.276583,-19.719608 8.466355,-4.778145 17.609884,-7.047156 27.431556,-6.856012 7.354141,0.143129 14.389444,1.748261 21.058451,4.765492 6.66899,3.017253 12.34941,7.091928 17.14084,12.07916 4.7914,4.987265 8.54778,10.933121 11.26904,17.837645 2.72127,6.90455 4.0347,14.026361 3.88807,21.560246 -0.14472,7.436029 -1.73522,14.550278 -4.72214,21.294783 -2.98692,6.744479 -7.02016,12.538771 -11.95364,17.336731 -4.93344,4.79797 -10.815561,8.59864 -17.596917,11.35412 -6.781367,2.75546 -13.825403,4.08654 -21.227932,3.94247 -7.402548,-0.14405 -14.48622,-1.75013 -21.155231,-4.76738 C 42.816634,116.18407 37.087853,112.10847 32.29641,107.12125 27.504982,102.13401 23.797014,96.189067 21.025476,89.381429 18.253893,82.573791 17.038189,75.404932 17.183869,67.919988 Z m 11.998895,0.233524 c -0.225658,11.59434 3.739104,21.753096 11.94267,30.47722 8.205459,8.626278 18.0904,13.027488 29.750602,13.254428 7.644447,0.14879 14.793824,-1.62072 21.352314,-5.35931 6.558492,-3.7386 11.88473,-8.822543 15.8355,-15.352528 3.95077,-6.529969 6.02509,-13.634806 6.17554,-21.364374 0.15043,-7.729549 -1.64493,-14.958632 -5.3386,-21.637407 C 105.20711,41.492784 100.13205,36.157446 93.675606,32.165548 87.219163,28.173642 80.192456,26.128237 72.547999,25.979457 64.903548,25.830668 57.754178,27.60018 51.195672,31.338771 44.637203,35.077364 39.309998,40.210245 35.310859,46.739285 31.311718,53.268326 29.333205,60.423951 29.182764,68.153512 Z M 52.284835,97.232914 71.676578,33.450272 c 0.0579,-0.488257 0.304583,-0.72816 0.740066,-0.719639 0.435436,0.0086 0.672599,0.257792 0.711484,0.747893 L 89.97489,97.966457 c 0.183088,0.541913 0.127065,0.932334 -0.120552,1.221151 -0.247684,0.288757 -0.634688,0.281273 -1.161183,-0.02263 l -16.664974,-6.68651 c -0.480022,-0.205116 -0.963849,-0.214534 -1.403102,-0.0273 l -17.057693,6.030204 c -0.489526,0.284089 -0.828204,0.277493 -1.016029,-0.0198 -0.187786,-0.297309 -0.372781,-0.741342 -0.266506,-1.228675 z"
   id="path2"
   style="fill:#2c4f54;fill-opacity:0.5;stroke:#2e3332;stroke-width:0.3;stroke-opacity:0.9;stroke-miterlimit:4;stroke-dasharray:none" />
<path
   style="fill:#2c4f53;stroke:#e4e7e7;stroke-width:0.3;stroke-opacity:0.9;fill-opacity:0.49928465;stroke-miterlimit:4;stroke-dasharray:none"
   d="m 66.196616,110.08932 c -2.048357,-0.2605 -4.295762,-0.70304 -6.227073,-1.22616 C 49.109794,105.92156 39.119971,97.264588 34.167471,86.503617 31.501642,80.711176 30.494013,75.628216 30.674559,68.883619 c 0.185067,-6.922772 1.525292,-12.160032 4.596684,-17.966157 2.070165,-3.913347 4.379285,-7.007534 7.655639,-10.258402 6.502132,-6.451521 14.032575,-10.328843 22.932174,-11.807504 1.85336,-0.307935 2.62069,-0.342003 6.645707,-0.295053 4.885607,0.05713 6.26041,0.214285 9.786249,1.11901 5.325092,1.366521 11.185355,4.382893 15.659844,8.060411 1.825136,1.500044 5.186574,5.078513 6.612394,7.039312 3.45071,4.745493 5.87749,10.033869 7.00531,15.26587 0.8317,3.858205 0.94623,5.226677 0.82502,9.856425 -0.0856,3.265954 -0.18777,4.647864 -0.44898,6.063265 -1.58606,8.595956 -5.84158,16.501351 -12.160464,22.590118 -6.471503,6.235876 -14.642571,10.243576 -23.314748,11.435316 -1.999113,0.27473 -8.416638,0.33913 -10.272772,0.10311 z M 62.028957,94.927273 c 4.620292,-1.649562 8.570225,-3.03882 8.77763,-3.087228 0.255958,-0.0598 3.140402,0.993309 8.981889,3.279188 4.953326,1.938302 8.728324,3.32978 8.895909,3.279045 0.347301,-0.105224 0.545577,-0.718852 0.430379,-1.332019 -0.04573,-0.243437 -3.666463,-14.328677 -8.046019,-31.300556 -7.674496,-29.740599 -7.978123,-30.863751 -8.385164,-31.017594 -0.314584,-0.11885 -0.482841,-0.100358 -0.659505,0.0732 -0.292333,0.286858 -19.404952,61.287457 -19.423313,61.992033 -0.0166,0.636598 0.401228,1.28984 0.760246,1.188555 0.147053,-0.04167 4.047664,-1.425065 8.667954,-3.074628 z"
   id="path861" /><rect
   style="fill:#c7485e;fill-opacity:1;stroke:#3c4343;stroke-width:1.36704;stroke-opacity:0.9"
   id="rect2803"
   width="16.717203"
   height="0.15794297"
   x="60.634777"
   y="65.281784"
   transform="matrix(0.99989219,-0.0146836,0.03950072,0.99921954,0,0)"
   inkscape:transform-center-x="8.6866393"
   inkscape:transform-center-y="8.0011637" /><path
   style="fill:#a06f78;fill-opacity:1;stroke:#e27364;stroke-width:0.119979;stroke-opacity:0.9"
   d="m 64.118496,62.877343 c 0.08817,-0.280786 1.909694,-6.349925 4.047813,-13.487088 2.138115,-7.137152 3.979378,-13.143662 4.091681,-13.347777 0.176738,-0.321215 7.531841,25.869188 7.518666,26.772744 -0.0035,0.246816 -2.113013,0.367948 -7.911684,0.454515 -7.39379,0.110376 -7.896396,0.08479 -7.746476,-0.392324 z"
   id="path3397"
   inkscape:transform-center-x="8.2545092"
   inkscape:transform-center-y="-4.7626611" /><g
   aria-label="c"
   transform="scale(1.0219262,0.97854425)"
   id="text9344"
   style="font-size:15.7955px;line-height:1.25;font-family:'Segoe Script';-inkscape-font-specification:'Segoe Script';fill:#e0e0e0;stroke-width:0.394888"><path
     d="m 76.15108,6.7893624 q 0,0.2776553 -0.200528,0.501322 -0.208242,0.2313794 -0.362495,0.393345 -0.154253,0.1542529 -0.29308,0.2853679 -0.138828,0.131115 -0.293081,0.2545174 -0.154253,0.1156897 -0.362494,0.2699426 -0.586161,0.4241955 -1.118334,0.7172761 -0.532173,0.2853679 -1.033495,0.4704714 -0.501322,0.1773909 -0.994931,0.2545174 -0.485897,0.077127 -0.979506,0.077127 -0.516747,0 -0.925518,-0.1928165 Q 69.178848,9.6199037 68.89348,9.2805472 68.615825,8.9411908 68.469285,8.4938573 68.322744,8.0388111 68.322744,7.5374891 v -0.038563 q 0,-0.5090347 0.131115,-1.0797705 0.131115,-0.5784485 0.362495,-1.156897 0.239092,-0.5784484 0.570735,-1.133759 0.331644,-0.5630232 0.732702,-1.0489199 0.161965,-0.1928161 0.385632,-0.4087702 0.23138,-0.2236668 0.485897,-0.4087703 0.26223,-0.1851035 0.539885,-0.3007932 0.285368,-0.1234024 0.555311,-0.1234024 0.185103,0 0.354781,0.1156897 0.169679,0.1079771 0.316219,0.285368 0.14654,0.1773908 0.269943,0.4010576 0.123402,0.2159541 0.208241,0.4473335 0.08484,0.2236667 0.131115,0.4319082 0.04628,0.2082414 0.04628,0.3547817 0,0.2236667 -0.138828,0.5784485 -0.138827,0.3547817 -0.331644,0.3547817 -0.277655,0 -0.462758,-0.3779197 Q 72.410447,4.2827524 72.356458,4.0899362 72.310182,3.89712 72.240769,3.7120165 72.179067,3.526913 72.07109,3.3726601 71.963113,3.2106945 71.770297,3.133568 q -0.192816,0.046276 -0.393345,0.2005288 -0.192816,0.154253 -0.385632,0.3779197 -0.185104,0.2236668 -0.370207,0.5090347 -0.177391,0.2776553 -0.339357,0.5784485 -0.154252,0.2776552 -0.300793,0.6401496 -0.14654,0.3547817 -0.26223,0.7404141 -0.115689,0.3779196 -0.185103,0.7558393 -0.06941,0.3779197 -0.06941,0.6941382 0,0.2236667 0.107977,0.4550461 0.107977,0.2236668 0.277655,0.4087703 0.177391,0.1851035 0.393345,0.3007932 0.223667,0.1156897 0.455046,0.1156897 1.141472,0 2.267518,-0.4704714 1.126047,-0.4704715 2.144116,-1.3651385 0.563023,-0.4936093 0.93323,-0.4936093 0.107977,0 0.107977,0.2082414 z"
     id="path950" /></g><g
   aria-label="ю"
   transform="scale(0.88842139,1.125592)"
   id="text11307"
   style="font-size:12.6573px;line-height:1.25;font-family:'Segoe Script';-inkscape-font-specification:'Segoe Script';fill:#e0e0e0;stroke-width:0.31643"><path
     d="m 76.442223,119.50054 q 0,-0.0247 -0.0309,-0.0433 -0.02472,-0.0247 -0.0618,-0.0618 -0.03708,-0.0371 -0.06798,-0.0989 -0.02472,-0.0618 -0.02472,-0.17305 0,-0.0989 0.05562,-0.17923 0.05562,-0.0803 0.117426,-0.14832 0.06798,-0.068 0.123606,-0.12361 0.0618,-0.0556 0.07416,-0.10507 0.105066,-0.59331 0.17923,-1.11863 0.07416,-0.52533 0.09271,-0.87761 0.0062,-0.10506 0,-0.21631 0,-0.11125 -0.0062,-0.22249 -0.0062,-0.0804 -0.01236,-0.15451 0,-0.0742 0,-0.14215 0,-0.0742 0.05562,-0.16687 0.05562,-0.0927 0.135968,-0.17305 0.08652,-0.0803 0.185409,-0.12978 0.105066,-0.0556 0.203951,-0.0556 0.08652,0 0.173049,0.0494 0.08652,0.0433 0.154508,0.12978 0.06798,0.0804 0.111246,0.20396 0.04326,0.11742 0.04326,0.26575 0,0.11124 -0.01854,0.27193 -0.01854,0.16069 -0.04944,0.35228 -0.0309,0.19159 -0.07416,0.40172 -0.03708,0.21013 -0.07416,0.42026 -0.04944,0.29048 -0.09888,0.55623 -0.04326,0.26576 -0.06798,0.45735 0.02472,0.0556 0.04326,0.0989 0.02472,0.0371 0.0618,0.0618 0.03708,0.0247 0.0927,0.0371 0.0618,0.0124 0.160689,0.0124 0.265754,0 0.562409,-0.0556 0.296655,-0.0556 0.562409,-0.14215 0.265754,-0.0865 0.475885,-0.17923 0.216311,-0.0989 0.321377,-0.18541 0.06798,-0.0556 0.148328,-0.14833 0.08652,-0.0927 0.173049,-0.19777 0.08652,-0.11125 0.166868,-0.21631 0.08652,-0.11125 0.148328,-0.19159 0.210131,-0.26575 0.475885,-0.51915 0.265754,-0.25339 0.587131,-0.44498 0.321376,-0.19159 0.692196,-0.30902 0.376999,-0.11742 0.815802,-0.11742 0.333738,0 0.655114,0.16687 0.321377,0.16068 0.56859,0.4388 0.253393,0.27811 0.401721,0.64275 0.154508,0.35846 0.154508,0.754 0,0.39554 -0.08034,0.7231 -0.07416,0.32138 -0.241033,0.68601 -0.0927,0.19159 -0.321377,0.45735 -0.228671,0.26575 -0.550048,0.55005 -0.315197,0.28429 -0.692196,0.56241 -0.377,0.27811 -0.76636,0.5006 -0.389361,0.22249 -0.76636,0.35846 -0.37082,0.13597 -0.673655,0.13597 -0.407902,0 -0.698377,-0.13597 -0.290475,-0.14215 -0.475885,-0.36464 -0.185409,-0.22867 -0.271934,-0.51914 -0.08652,-0.29048 -0.08652,-0.58714 0,-0.24103 0.06798,-0.58095 0.07416,-0.34609 0.247213,-0.69837 -0.234852,0.14833 -0.525327,0.23485 -0.284295,0.0865 -0.525328,0.15451 -0.105065,0.0309 -0.234852,0.0556 -0.129787,0.0185 -0.259573,0.0371 -0.123607,0.0185 -0.241033,0.0371 -0.111246,0.0185 -0.19159,0.0309 -0.123606,0.0247 -0.173049,0.0989 -0.04326,0.068 -0.06798,0.17923 -0.02472,0.10507 -0.07416,0.27812 -0.04944,0.17304 -0.09889,0.35845 -0.05562,0.19777 -0.117426,0.40791 -0.0618,0.21013 -0.111245,0.40172 -0.04326,0.18541 -0.08035,0.34609 -0.0309,0.15451 -0.0309,0.24104 0,0.0803 -0.06798,0.17305 -0.0618,0.0927 -0.148328,0.17305 -0.08034,0.0865 -0.166868,0.14214 -0.08034,0.0556 -0.123607,0.0556 -0.0927,0 -0.179229,-0.0618 -0.08034,-0.0618 -0.142147,-0.14214 -0.0618,-0.0804 -0.09889,-0.16069 -0.03708,-0.0865 -0.03708,-0.12979 0,-0.0556 0.04326,-0.19777 0.04944,-0.14215 0.09888,-0.29048 0.0309,-0.0927 0.08034,-0.25339 0.04944,-0.16069 0.09888,-0.35228 0.05562,-0.19777 0.105066,-0.4079 0.05562,-0.21013 0.09889,-0.39554 0.04326,-0.18541 0.06798,-0.32138 0.02472,-0.14214 0.02472,-0.20395 z m 7.447288,-1.39675 q 0,-0.61803 -0.358459,-0.96413 -0.352278,-0.35228 -1.013573,-0.35228 -0.0927,0 -0.228671,0.0742 -0.135968,0.0742 -0.296656,0.19159 -0.154508,0.11124 -0.315196,0.24721 -0.154508,0.13597 -0.296656,0.26575 -0.135967,0.12979 -0.234852,0.23485 -0.09888,0.10507 -0.135967,0.14833 -0.129787,0.15451 -0.271934,0.42644 -0.135967,0.26576 -0.253394,0.57477 -0.117426,0.30902 -0.19777,0.62422 -0.07416,0.30901 -0.07416,0.54387 0,0.14214 0.03708,0.29047 0.04326,0.14833 0.123607,0.27194 0.08652,0.11742 0.216311,0.19777 0.129787,0.0742 0.302836,0.0742 0.19159,0 0.488245,-0.11125 0.296656,-0.11124 0.624213,-0.30901 0.333737,-0.19777 0.667475,-0.46971 0.339917,-0.27193 0.605671,-0.58713 0.271934,-0.31519 0.438803,-0.66129 0.173049,-0.35228 0.173049,-0.71074 z"
     id="path992" /></g><g
   aria-label="з"
   transform="scale(1.3773375,0.72603846)"
   id="text16794"
   style="font-size:14.5777px;line-height:1.25;font-family:'Segoe Script';-inkscape-font-specification:'Segoe Script';fill:#e0e0e0;stroke-width:0.364441"><path
     d="m 2.7927042,90.871497 q 0.07118,0 0.1138883,0.04983 0.049826,0.04983 0.078298,0.121006 0.028472,0.0783 0.03559,0.170833 0.014236,0.09253 0.014236,0.17795 0,0.163714 0.056944,0.355901 0.064062,0.192186 0.1993045,0.355901 0.1423604,0.163714 0.3630189,0.270484 0.2206586,0.113889 0.5409693,0.113889 0.4341991,0 0.8968702,-0.227777 0.4626712,-0.227776 0.8470441,-0.633503 0.3843729,-0.405727 0.6263855,-0.968051 0.2491307,-0.555205 0.2491307,-1.217181 0,-0.612149 -0.1281244,-1.03923 Q 6.5581354,87.974464 6.3517129,87.711097 6.1524084,87.440612 5.8890418,87.319606 5.6256751,87.1986 5.3623085,87.1986 q -0.099652,0 -0.2206585,0.04983 -0.1210063,0.04271 -0.2491307,0.113888 -0.1210062,0.06406 -0.2491306,0.142361 -0.1210063,0.0783 -0.2206585,0.14236 -0.1708324,0.113888 -0.3274288,0.192186 -0.1494784,0.0783 -0.398609,0.0783 -0.1921864,0 -0.3345468,-0.142361 -0.1352423,-0.149478 -0.1352423,-0.391491 0,-0.185068 0.1281243,-0.313193 0.1352423,-0.128124 0.412845,-0.242012 0.5907954,-0.242013 1.0534666,-0.491143 0.4697891,-0.256249 0.7900999,-0.548088 0.3203108,-0.298956 0.4911432,-0.654857 0.1708324,-0.355901 0.1708324,-0.811454 0,-0.177951 -0.056944,-0.348783 -0.049826,-0.177951 -0.1565964,-0.313193 -0.1067703,-0.14236 -0.2633666,-0.227776 -0.1494784,-0.09254 -0.3487829,-0.09254 -0.427081,0 -0.811454,0.263367 -0.3843729,0.263367 -0.7545098,0.64774 -0.1637144,0.170832 -0.2704847,0.24913 -0.1067702,0.07118 -0.2277765,0.07118 -0.099652,0 -0.1779505,-0.04983 -0.07118,-0.05694 -0.1210063,-0.128124 -0.042708,-0.0783 -0.07118,-0.163714 -0.021354,-0.09253 -0.021354,-0.156597 0,-0.170832 0.092534,-0.320311 0.099652,-0.156596 0.2633667,-0.291838 0.3559008,-0.298957 0.6975657,-0.491144 0.3416648,-0.192186 0.5623234,-0.28472 0.2491306,-0.09965 0.5124972,-0.192187 0.2704847,-0.09253 0.5053792,-0.09253 0.3345469,0 0.6406216,0.121006 0.3060748,0.113889 0.5338513,0.341665 0.2348946,0.220659 0.3701369,0.548088 0.1423604,0.327428 0.1423604,0.740273 0,0.597914 -0.2918387,1.188709 -0.2847207,0.590796 -0.9751684,1.146001 0.4769071,0.02135 0.832808,0.242013 0.3559009,0.220658 0.5907955,0.583677 0.2420125,0.363019 0.3559008,0.839926 0.1210063,0.469789 0.1210063,0.996523 0,0.526733 -0.1423603,1.046348 -0.1423604,0.519615 -0.405727,0.996523 -0.2562486,0.476907 -0.6192675,0.882634 -0.3559009,0.405727 -0.7901,0.704683 -0.427081,0.298957 -0.9182242,0.46979 -0.4840252,0.170832 -0.9965225,0.170832 -0.4911432,0 -0.854162,-0.163714 Q 2.8567664,93.099436 2.6147538,92.857424 2.3798592,92.615411 2.2588529,92.337808 2.1378466,92.060206 2.1378466,91.825311 q 0,-0.17795 0.064062,-0.384373 0.07118,-0.206422 0.1565964,-0.327429 0.056944,-0.0783 0.1637144,-0.163714 0.1067702,-0.0783 0.2704846,-0.0783 z"
     id="path1013" /></g><g
   aria-label="в"
   transform="scale(1.3926251,0.71806835)"
   id="text19318"
   style="font-size:15.1804px;line-height:1.25;font-family:'Segoe Script';-inkscape-font-specification:'Segoe Script';fill:#e0e0e0;stroke-width:0.379511"><path
     d="m 99.036006,83.80416 q 0,-0.08895 -0.03706,-0.177895 -0.02965,-0.09636 -0.09636,-0.170483 -0.0593,-0.08154 -0.163071,-0.133421 -0.09636,-0.05189 -0.229782,-0.05189 -0.25943,0 -0.541098,0.185308 -0.274255,0.185308 -0.555923,0.511449 -0.274255,0.318729 -0.533686,0.763467 -0.25943,0.437326 -0.481799,0.948775 -0.22237,0.511449 -0.400265,1.074785 -0.170483,0.555922 -0.274255,1.119258 0.06671,-0.04447 0.200132,-0.140834 0.133422,-0.103772 0.296492,-0.229782 0.170483,-0.133421 0.355791,-0.281667 0.19272,-0.155659 0.363203,-0.303905 0.177895,-0.148246 0.326141,-0.281667 0.148246,-0.133422 0.237194,-0.229782 0.822766,-0.889476 1.178556,-1.541759 0.355791,-0.652283 0.355791,-1.05996 z m -0.229781,7.990465 q -0.229782,0.340966 -0.555923,0.667107 -0.318729,0.318729 -0.704169,0.563335 -0.38544,0.244606 -0.822766,0.38544 -0.429914,0.140834 -0.874652,0.103772 -0.311317,-0.02224 -0.592984,-0.200132 -0.281668,-0.185307 -0.496625,-0.518861 -0.214957,-0.340966 -0.340966,-0.830178 -0.126009,-0.489212 -0.126009,-1.12667 0,-0.407677 0.04447,-0.882065 0.04447,-0.4818 0.118597,-0.971012 0.07412,-0.489212 0.16307,-0.956187 0.09636,-0.466975 0.185308,-0.859827 0.118597,-0.533686 0.311317,-1.052548 0.19272,-0.526273 0.429914,-1.008073 0.237193,-0.489212 0.511449,-0.919126 0.274255,-0.429913 0.563335,-0.778292 0.400264,-0.466975 0.911713,-0.748643 0.518861,-0.281667 1.215618,-0.281667 0.28908,0 0.526274,0.118597 0.237194,0.118597 0.407677,0.311317 0.170483,0.185307 0.25943,0.422501 0.09636,0.237194 0.09636,0.466975 0,0.318729 -0.133424,0.711581 -0.12601,0.38544 -0.370616,0.807942 -0.244606,0.422501 -0.592984,0.852415 -0.348378,0.429913 -0.793117,0.830178 0.103773,0.0074 0.237194,0.03706 0.140834,0.02224 0.28908,0.08895 0.155658,0.06671 0.311317,0.177895 0.163071,0.111185 0.311317,0.281668 0.06671,0.08153 0.148246,0.222369 0.08154,0.133421 0.148246,0.333554 0.07412,0.19272 0.118597,0.444738 0.05189,0.252018 0.05189,0.555923 0,0.592984 -0.214957,1.282328 -0.207544,0.681933 -0.74123,1.467637 z M 98.59868,89.066897 q 0,-0.407677 -0.118597,-0.681932 -0.118597,-0.281668 -0.281667,-0.444739 -0.163071,-0.170483 -0.333554,-0.237193 -0.170483,-0.07412 -0.274255,-0.07412 -0.09636,0 -0.303905,0.148246 -0.207544,0.148246 -0.444738,0.326141 -0.177895,0.155658 -0.355791,0.28908 -0.177895,0.133421 -0.333553,0.259431 -0.148247,0.126009 -0.274256,0.252018 -0.126009,0.126009 -0.207544,0.266843 -0.207545,0.378027 -0.244606,0.859827 -0.03706,0.4818 -0.03706,0.985837 0,0.333554 0.06671,0.600396 0.07412,0.259431 0.177895,0.444739 0.111185,0.185307 0.237194,0.28908 0.126009,0.09636 0.229781,0.09636 0.252019,0 0.570748,-0.103773 0.318729,-0.103772 0.652283,-0.407676 0.28908,-0.266843 0.518861,-0.600397 0.237194,-0.333554 0.400264,-0.704169 0.170483,-0.370615 0.259431,-0.77088 0.09636,-0.400264 0.09636,-0.793116 z"
     id="path971" /></g><text
   xml:space="preserve"
   style="font-size:26.5344px;line-height:1.25;font-family:'Segoe Script';-inkscape-font-specification:'Segoe Script';fill:#16272a;fill-opacity:0.799714;stroke-width:0.663359"
   x="13.978527"
   y="84.003174"
   id="text17884"
   transform="scale(1.3128994,0.76167297)"><tspan
     sodipodi:role="line"
     id="tspan17882"
     x="13.978527"
     y="84.003174"
     style="stroke-width:0.663359">_</tspan></text><text
   xml:space="preserve"
   style="font-size:27.0277px;line-height:1.25;font-family:'Segoe Script';-inkscape-font-specification:'Segoe Script';fill:#16272a;fill-opacity:0.799714;stroke-width:0.675691"
   x="82.155273"
   y="84.882538"
   id="text17884-6"
   transform="scale(1.3373062,0.74777188)"><tspan
     sodipodi:role="line"
     id="tspan17882-2"
     x="82.155273"
     y="84.882538"
     style="stroke-width:0.675691">_</tspan></text><text
   xml:space="preserve"
   style="font-size:23.7433px;line-height:1.25;font-family:'Segoe Script';-inkscape-font-specification:'Segoe Script';fill:#16272a;fill-opacity:0.799714;stroke-width:0.593581"
   x="-94.104141"
   y="91.759155"
   id="text17884-0"
   transform="matrix(-0.01836565,-1.3623732,0.73328264,-0.05419994,0,0)"><tspan
     sodipodi:role="line"
     id="tspan17882-4"
     x="-94.104141"
     y="91.759155"
     style="stroke-width:0.593581">_</tspan></text><text
   xml:space="preserve"
   style="font-size:26.7951px;line-height:1.25;font-family:'Segoe Script';-inkscape-font-specification:'Segoe Script';fill:#16272a;fill-opacity:0.799714;stroke-width:0.669874"
   x="-22.11743"
   y="94.774826"
   id="text17884-9"
   transform="matrix(5.133754e-4,-1.3316157,0.75096685,0.00144598,0,0)"><tspan
     sodipodi:role="line"
     id="tspan17882-7"
     x="-22.11743"
     y="94.774826"
     style="stroke-width:0.669874">_</tspan></text></svg>
