<?xml version="1.0" encoding="UTF-8" standalone="no"?>
<!-- Generator: Adobe Illustrator 22.0.1, SVG Export Plug-In . SVG Version: 6.00 Build 0)  -->

<svg
   version="1.1"
   id="Layer_1"
   x="0px"
   y="0px"
   viewBox="0 0 140 140"
   xml:space="preserve"
   sodipodi:docname="northEastWind.svg"
   width="140"
   height="140"
   inkscape:version="1.1.1 (3bf5ae0d25, 2021-09-20)"
   xmlns:inkscape="http://www.inkscape.org/namespaces/inkscape"
   xmlns:sodipodi="http://sodipodi.sourceforge.net/DTD/sodipodi-0.dtd"
   xmlns="http://www.w3.org/2000/svg"
   xmlns:svg="http://www.w3.org/2000/svg"><defs
   id="defs7" /><sodipodi:namedview
   id="namedview5"
   pagecolor="#ffffff"
   bordercolor="#666666"
   borderopacity="1.0"
   inkscape:pageshadow="2"
   inkscape:pageopacity="0.0"
   inkscape:pagecheckerboard="0"
   showgrid="false"
   inkscape:zoom="3.5916666"
   inkscape:cx="64.872391"
   inkscape:cy="56.658934"
   inkscape:window-width="2400"
   inkscape:window-height="1321"
   inkscape:window-x="2391"
   inkscape:window-y="-9"
   inkscape:window-maximized="1"
   inkscape:current-layer="Layer_1"
   width="140px" />
<path
   d="M 31.797952,33.526701 C 38.576746,26.1997 46.668664,21.087482 56.004976,18.19309 c 9.33632,-2.894387 18.75513,-3.312683 28.256468,-1.254893 9.501336,2.05778 17.840776,6.440278 25.051596,13.111546 5.39922,4.995228 9.58844,10.870802 12.56538,17.557895 2.9769,6.687094 4.51237,13.5071 4.77708,20.417977 0.26468,6.91088 -0.8811,13.849958 -3.43745,20.817222 -2.55636,6.96729 -6.30895,13.161103 -11.42627,18.692293 -5.05085,5.45934 -10.96797,9.71726 -17.682597,12.77075 -6.714612,3.05347 -13.57935,4.70155 -20.454408,5.00688 -6.875035,0.30535 -13.795931,-0.76497 -20.693921,-3.21388 C 46.062869,119.64994 39.915425,115.96224 34.48068,110.93414 29.045907,105.90605 24.821181,99.997615 21.844256,93.310506 18.86735,86.6234 17.296366,79.770557 17.031631,72.859681 16.766921,65.9488 17.948257,59.042588 20.402646,52.114288 22.857001,45.185959 26.713873,39.02195 31.797952,33.526701 Z m 8.809279,8.15013 c -7.875345,8.512261 -11.66575,18.737352 -11.335703,30.708148 0.396508,11.898945 4.85617,21.757652 13.416785,29.677731 5.612348,5.19243 12.129916,8.62259 19.514874,10.18888 7.384965,1.56628 14.743544,1.30836 22.035685,-0.94419 7.292131,-2.25253 13.56446,-6.18183 18.814708,-11.85667 5.25021,-5.674838 8.71405,-12.269138 10.39385,-19.714103 1.67978,-7.444959 1.43454,-14.804438 -0.73572,-22.078421 C 110.54145,50.384215 106.6513,44.185422 101.03894,38.992999 95.42659,33.800573 88.909025,30.370411 81.524055,28.804116 74.139112,27.237847 66.747276,27.531686 59.419626,29.751375 52.091973,31.971064 45.857464,36.001991 40.607231,41.676831 Z m -2.069263,37.08147 56.884077,-34.763009 c 0.367802,-0.326296 0.711565,-0.34156 1.031255,-0.04573 0.319603,0.295859 0.331152,0.639676 0.03443,1.031682 L 66.209025,104.3589 c -0.223419,0.52657 -0.524793,0.78103 -0.901763,0.83221 -0.376986,0.0511 -0.661148,-0.21173 -0.85251,-0.78873 L 56.448711,88.329599 C 56.226422,87.857284 55.87121,87.528648 55.418585,87.376561 L 38.666323,80.543552 c -0.554564,-0.113141 -0.803207,-0.343191 -0.745925,-0.690147 0.05733,-0.346947 0.214264,-0.801655 0.617593,-1.095106 z"
   id="path2"
   style="fill:#2c4f54;fill-opacity:0.5;stroke:#2e3332;stroke-width:0.3;stroke-miterlimit:4;stroke-dasharray:none;stroke-opacity:0.9" />
<path
   style="fill:#2c4f53;fill-opacity:0.499285;stroke:#e4e7e7;stroke-width:0.3;stroke-miterlimit:4;stroke-dasharray:none;stroke-opacity:0.9"
   d="m 40.720756,97.29557 c -1.353667,-1.559236 -2.734434,-3.386845 -3.825824,-5.063889 -6.13681,-9.430098 -7.816331,-22.541885 -4.337931,-33.865594 1.872376,-6.095346 4.508321,-10.556692 9.13747,-15.46517 4.751254,-5.038312 9.240588,-8.050116 15.399773,-10.332437 4.151338,-1.538267 7.934962,-2.306527 12.544167,-2.547054 9.147242,-0.477316 17.345773,1.649955 24.966708,6.478066 1.587078,1.005463 2.1819,1.491403 5.151676,4.208641 3.604655,3.298316 4.524985,4.331647 6.550975,7.355797 3.05976,4.567471 5.41911,10.721711 6.30465,16.445436 0.36121,2.33469 0.48285,7.242836 0.23926,9.654967 -0.58948,5.837776 -2.3042,11.397989 -4.94986,16.050555 -1.95095,3.430926 -2.77749,4.527583 -5.95307,7.898765 -2.24024,2.378067 -3.237304,3.340327 -4.375279,4.221587 -6.910827,5.35224 -15.351833,8.41069 -24.120709,8.73966 -8.980696,0.3369 -17.743762,-2.12005 -25.003928,-7.01052 -1.673621,-1.12736 -6.501464,-5.35591 -7.728123,-6.768795 z m 6.99642,-14.082159 c 4.544156,1.849 8.415027,3.445362 8.601927,3.547481 0.230693,0.125982 1.679562,2.833347 4.511706,8.430416 2.40155,4.746052 4.288933,8.299172 4.447695,8.373012 0.329069,0.15298 0.88582,-0.1724 1.208535,-0.70636 0.128127,-0.21198 6.814765,-13.126797 14.859249,-28.699578 14.096717,-27.288893 14.618789,-28.328653 14.417818,-28.714606 -0.155355,-0.298252 -0.29313,-0.39659 -0.54051,-0.384911 -0.409125,0.01904 -55.309755,32.764852 -55.79297,33.277951 -0.436599,0.463586 -0.560379,1.229081 -0.225197,1.392809 0.137413,0.06692 3.967602,1.634791 8.511756,3.483788 z"
   id="path861" /><rect
   style="fill:#c7485e;fill-opacity:1;stroke:#3c4343;stroke-width:1.28812;stroke-opacity:0.9"
   id="rect2803"
   width="14.129961"
   height="0.1659108"
   x="93.556091"
   y="-6.3069382"
   transform="matrix(0.74315765,0.66911637,-0.67562176,0.73724842,0,0)"
   inkscape:transform-center-x="11.241509"
   inkscape:transform-center-y="1.0095574" /><path
   style="fill:#a06f78;fill-opacity:1;stroke:#e27364;stroke-width:0.100941;stroke-opacity:0.9"
   d="m 75.409004,56.78598 c 0.216578,-0.128192 4.846731,-2.946041 10.28928,-6.261971 5.442542,-3.315927 10.04832,-6.083189 10.235044,-6.149468 0.293849,-0.104302 -10.444887,20.548541 -10.977497,21.112067 -0.145437,0.153978 -1.497075,-0.946943 -5.069445,-4.128877 -4.555069,-4.057235 -4.845501,-4.353936 -4.477423,-4.571705 z"
   id="path3397"
   inkscape:transform-center-x="4.4510442"
   inkscape:transform-center-y="-5.4922144" /><text
   xml:space="preserve"
   style="font-size:15.7955px;line-height:1.25;font-family:'Segoe Script';-inkscape-font-specification:'Segoe Script';stroke-width:0.394888;fill:#e0e0e0;fill-opacity:1"
   x="67.335526"
   y="9.982398"
   id="text9344"
   transform="scale(1.0219262,0.97854425)"><tspan
     sodipodi:role="line"
     id="tspan9342"
     x="67.335526"
     y="9.982398"
     style="stroke-width:0.394888;fill:#e0e0e0;fill-opacity:1">c</tspan></text><text
   xml:space="preserve"
   style="font-size:12.6573px;line-height:1.25;font-family:'Segoe Script';-inkscape-font-specification:'Segoe Script';stroke-width:0.31643;fill:#e0e0e0;fill-opacity:1"
   x="74.785896"
   y="122.05302"
   id="text11307"
   transform="scale(0.88842139,1.125592)"><tspan
     sodipodi:role="line"
     id="tspan11305"
     x="74.785896"
     y="122.05302"
     style="stroke-width:0.31643;fill:#e0e0e0;fill-opacity:1">ю</tspan></text><text
   xml:space="preserve"
   style="font-size:14.5777px;line-height:1.25;font-family:'Segoe Script';-inkscape-font-specification:'Segoe Script';stroke-width:0.364441;fill:#e0e0e0;fill-opacity:1"
   x="1.7463557"
   y="90.302055"
   id="text16794"
   transform="scale(1.3773375,0.72603846)"><tspan
     sodipodi:role="line"
     id="tspan16792"
     x="1.7463557"
     y="90.302055"
     style="stroke-width:0.364441;fill:#e0e0e0;fill-opacity:1">з</tspan></text><text
   xml:space="preserve"
   style="font-size:15.1804px;line-height:1.25;font-family:'Segoe Script';-inkscape-font-specification:'Segoe Script';stroke-width:0.379511;fill:#e0e0e0;fill-opacity:1"
   x="93.284058"
   y="93.328972"
   id="text19318"
   transform="scale(1.3926251,0.71806835)"><tspan
     sodipodi:role="line"
     id="tspan19316"
     x="93.284058"
     y="93.328972"
     style="stroke-width:0.379511;fill:#e0e0e0;fill-opacity:1">в</tspan></text><text
   xml:space="preserve"
   style="font-size:26.5344px;line-height:1.25;font-family:'Segoe Script';-inkscape-font-specification:'Segoe Script';fill:#16272a;fill-opacity:0.799714;stroke-width:0.663359"
   x="14.053504"
   y="84.003174"
   id="text17884"
   transform="scale(1.3128994,0.76167296)"><tspan
     sodipodi:role="line"
     id="tspan17882"
     x="14.053504"
     y="84.003174"
     style="stroke-width:0.663359">_</tspan></text><text
   xml:space="preserve"
   style="font-size:27.0277px;line-height:1.25;font-family:'Segoe Script';-inkscape-font-specification:'Segoe Script';fill:#16272a;fill-opacity:0.799714;stroke-width:0.675691"
   x="82.155273"
   y="84.882538"
   id="text17884-6"
   transform="scale(1.3373062,0.74777188)"><tspan
     sodipodi:role="line"
     id="tspan17882-2"
     x="82.155273"
     y="84.882538"
     style="stroke-width:0.675691">_</tspan></text><text
   xml:space="preserve"
   style="font-size:23.7433px;line-height:1.25;font-family:'Segoe Script';-inkscape-font-specification:'Segoe Script';fill:#16272a;fill-opacity:0.799714;stroke-width:0.593581"
   x="-94.104141"
   y="91.759155"
   id="text17884-0"
   transform="matrix(-0.01836565,-1.3623732,0.73328264,-0.05419994,0,0)"><tspan
     sodipodi:role="line"
     id="tspan17882-4"
     x="-94.104141"
     y="91.759155"
     style="stroke-width:0.593581">_</tspan></text><text
   xml:space="preserve"
   style="font-size:26.7951px;line-height:1.25;font-family:'Segoe Script';-inkscape-font-specification:'Segoe Script';fill:#16272a;fill-opacity:0.799714;stroke-width:0.669874"
   x="-22.11743"
   y="94.774826"
   id="text17884-9"
   transform="matrix(5.133754e-4,-1.3316157,0.75096685,0.00144598,0,0)"><tspan
     sodipodi:role="line"
     id="tspan17882-7"
     x="-22.11743"
     y="94.774826"
     style="stroke-width:0.669874">_</tspan></text></svg>
