<?xml version="1.0" encoding="UTF-8" standalone="no"?>
<!-- Generator: Adobe Illustrator 22.0.1, SVG Export Plug-In . SVG Version: 6.00 Build 0)  -->

<svg
   version="1.1"
   id="Layer_1"
   x="0px"
   y="0px"
   viewBox="0 0 140 140"
   xml:space="preserve"
   sodipodi:docname="northwestWind.svg"
   width="140"
   height="140"
   inkscape:version="1.1.1 (3bf5ae0d25, 2021-09-20)"
   xmlns:inkscape="http://www.inkscape.org/namespaces/inkscape"
   xmlns:sodipodi="http://sodipodi.sourceforge.net/DTD/sodipodi-0.dtd"
   xmlns="http://www.w3.org/2000/svg"
   xmlns:svg="http://www.w3.org/2000/svg"><defs
   id="defs7" /><sodipodi:namedview
   id="namedview5"
   pagecolor="#ffffff"
   bordercolor="#666666"
   borderopacity="1.0"
   inkscape:pageshadow="2"
   inkscape:pageopacity="0.0"
   inkscape:pagecheckerboard="0"
   showgrid="false"
   inkscape:zoom="10.158767"
   inkscape:cx="69.004436"
   inkscape:cy="78.50362"
   inkscape:window-width="2400"
   inkscape:window-height="1321"
   inkscape:window-x="2391"
   inkscape:window-y="-9"
   inkscape:window-maximized="1"
   inkscape:current-layer="Layer_1"
   width="140px" />
<path
   d="M 36.723114,108.25028 C 29.31392,101.56141 24.103268,93.532536 21.095109,84.232257 18.086963,74.931962 17.553707,65.518952 19.49535,55.993204 c 1.941636,-9.525747 6.221996,-17.918068 12.804738,-25.2098 4.928936,-5.459802 10.75293,-9.72044 17.403178,-12.778796 6.650255,-3.058316 13.451013,-4.67693 20.358127,-5.025995 6.907142,-0.349018 13.859688,0.712001 20.857643,3.183061 6.997981,2.471111 13.237144,6.147807 18.830394,11.19722 5.5206,4.98382 9.85044,10.848516 12.98567,17.525376 3.13522,6.676827 4.86699,13.52093 5.25624,20.391756 0.38925,6.870792 -0.5965,13.804239 -2.96101,20.73161 -2.36455,6.927373 -5.97693,13.119368 -10.9383,18.615094 -4.96136,5.49576 -10.81778,9.7923 -17.468046,12.85064 -6.650265,3.05832 -13.483423,4.71285 -20.390564,5.06194 -6.907128,0.34906 -13.827249,-0.74786 -20.784996,-3.11749 -6.957769,-2.36961 -13.168399,-6.15094 -18.72531,-11.16754 z m 8.041978,-8.908128 c 8.607767,7.770838 18.878374,11.436128 30.844247,10.959968 11.893212,-0.54175 21.696744,-5.12144 29.511721,-13.7781 5.12351,-5.675334 8.47386,-12.234282 9.94988,-19.63781 1.476,-7.403536 1.12826,-14.758414 -1.21314,-22.022512 -2.34139,-7.264091 -6.34697,-13.487983 -12.08548,-18.668566 -5.73852,-5.18053 -12.374614,-8.56361 -19.839526,-10.1524 -7.464913,-1.588766 -14.820852,-1.253697 -22.0678,1.005196 -7.246949,2.258908 -13.397799,6.224435 -18.521308,11.89978 -5.123517,5.675327 -8.473849,12.234287 -9.949874,19.637821 -1.476006,7.403514 -1.091951,14.791225 1.217044,22.091217 2.308977,7.300013 6.415722,13.48485 12.154236,18.665406 z M 81.869052,100.95856 46.41418,44.503119 c -0.330767,-0.363792 -0.350215,-0.70734 -0.05832,-1.030619 0.291916,-0.323208 0.635587,-0.338933 1.031183,-0.04702 l 59.742887,29.55155 c 0.52926,0.216972 0.78738,0.515217 0.84315,0.891532 0.0557,0.376336 -0.20364,0.663688 -0.77865,0.861732 L 91.220586,82.931963 C 90.751017,83.16 90.426745,83.519201 90.280192,83.973644 l -6.627985,16.834426 c -0.106354,0.55591 -0.333361,0.80734 -0.680615,0.75463 -0.347629,-0.0531 -0.804211,-0.20447 -1.10256,-0.60418 z"
   id="path2"
   style="fill:#2c4f54;fill-opacity:0.5;stroke:#2e3332;stroke-width:0.3;stroke-miterlimit:4;stroke-dasharray:none;stroke-opacity:0.9" />
<path
   style="fill:#2c4f53;fill-opacity:0.499285;stroke:#e4e7e7;stroke-width:0.3;stroke-miterlimit:4;stroke-dasharray:none;stroke-opacity:0.9"
   d="m 100.54963,98.592199 c -1.539026,1.376599 -3.345998,2.784271 -5.006693,3.900361 -9.338203,6.27578 -22.423693,8.14926 -33.797659,4.8389 C 55.622883,105.54953 51.122991,102.97993 46.146506,98.423974 41.03842,93.747835 37.960469,89.30359 35.587207,83.178869 33.987639,79.050767 33.163426,75.278938 32.854693,70.673795 32.24196,61.534619 34.247641,53.305486 38.962382,45.613908 c 0.98186,-1.601797 1.458947,-2.203751 4.131916,-5.213423 3.24455,-3.653127 4.264156,-4.588641 7.257985,-6.659183 4.521665,-3.127056 10.640289,-5.577272 16.35028,-6.547454 2.329087,-0.395743 7.234894,-0.590045 9.650365,-0.382179 5.84587,0.50298 11.430866,2.135173 16.122088,4.711668 3.459431,1.899927 4.568214,2.710139 7.986044,5.835466 2.41098,2.20478 3.38789,3.187494 4.28591,4.31229 5.45397,6.830821 8.63706,15.225621 9.09584,23.988658 0.46983,8.974729 -1.85711,17.773212 -6.63955,25.104994 -1.10245,1.690128 -5.25907,6.580027 -6.65361,7.827495 z M 86.365418,91.805048 c 1.781509,-4.571033 3.32039,-8.465115 3.419726,-8.653506 0.122555,-0.232534 2.808174,-1.721335 8.362693,-4.636033 4.709983,-2.471564 8.234763,-4.411351 8.306253,-4.571185 0.14809,-0.331296 -0.18551,-0.883172 -0.72419,-1.197944 C 105.51603,72.621429 92.503648,66.126717 76.813459,58.313689 49.318836,44.622575 48.271457,44.115951 47.888533,44.322617 c -0.295905,0.159776 -0.392186,0.29899 -0.376893,0.546129 0.02537,0.408776 33.580192,54.81856 34.10039,55.294114 0.469963,0.42972 1.237241,0.54212 1.395983,0.20455 0.0649,-0.13838 1.575874,-3.991361 3.357383,-8.562392 z"
   id="path861" /><rect
   style="fill:#c7485e;fill-opacity:1;stroke:#3c4343;stroke-width:1.28812;stroke-opacity:0.9"
   id="rect2803"
   width="14.13"
   height="0.1659108"
   x="-12.865364"
   y="88.620705"
   transform="matrix(0.62817653,-0.77807085,0.77252007,0.63499035,0,0)"
   inkscape:transform-center-x="-1.6127191"
   inkscape:transform-center-y="11.170939" /><path
   style="fill:#a06f78;fill-opacity:1;stroke:#e27364;stroke-width:0.100941;stroke-opacity:0.9"
   d="m 59.350579,64.283262 c -0.129074,-0.216066 -2.964803,-4.835278 -6.301797,-10.26493 -3.336995,-5.429648 -6.122106,-10.024674 -6.189107,-10.211147 -0.10539,-0.29344 20.588883,10.365175 21.154469,10.8956 0.154559,0.144814 -0.941132,1.500734 -4.109195,5.085409 -4.039549,4.570758 -4.335127,4.862341 -4.554319,4.495104 z"
   id="path3397"
   inkscape:transform-center-x="5.4935617"
   inkscape:transform-center-y="4.4888709" /><text
   xml:space="preserve"
   style="font-size:15.7955px;line-height:1.25;font-family:'Segoe Script';-inkscape-font-specification:'Segoe Script';stroke-width:0.394888;fill:#e0e0e0;fill-opacity:1"
   x="67.335526"
   y="9.982398"
   id="text9344"
   transform="scale(1.0219262,0.97854425)"><tspan
     sodipodi:role="line"
     id="tspan9342"
     x="67.335526"
     y="9.982398"
     style="stroke-width:0.394888;fill:#e0e0e0;fill-opacity:1">c</tspan></text><text
   xml:space="preserve"
   style="font-size:12.6573px;line-height:1.25;font-family:'Segoe Script';-inkscape-font-specification:'Segoe Script';stroke-width:0.31643;fill:#e0e0e0;fill-opacity:1"
   x="74.785896"
   y="122.05302"
   id="text11307"
   transform="scale(0.88842139,1.125592)"><tspan
     sodipodi:role="line"
     id="tspan11305"
     x="74.785896"
     y="122.05302"
     style="stroke-width:0.31643;fill:#e0e0e0;fill-opacity:1">ю</tspan></text><text
   xml:space="preserve"
   style="font-size:14.5777px;line-height:1.25;font-family:'Segoe Script';-inkscape-font-specification:'Segoe Script';stroke-width:0.364441;fill:#e0e0e0;fill-opacity:1"
   x="1.7463557"
   y="90.302055"
   id="text16794"
   transform="scale(1.3773375,0.72603846)"><tspan
     sodipodi:role="line"
     id="tspan16792"
     x="1.7463557"
     y="90.302055"
     style="stroke-width:0.364441;fill:#e0e0e0;fill-opacity:1">з</tspan></text><text
   xml:space="preserve"
   style="font-size:15.1804px;line-height:1.25;font-family:'Segoe Script';-inkscape-font-specification:'Segoe Script';stroke-width:0.379511;fill:#e0e0e0;fill-opacity:1"
   x="93.284058"
   y="93.328972"
   id="text19318"
   transform="scale(1.3926251,0.71806835)"><tspan
     sodipodi:role="line"
     id="tspan19316"
     x="93.284058"
     y="93.328972"
     style="stroke-width:0.379511;fill:#e0e0e0;fill-opacity:1">в</tspan></text><text
   xml:space="preserve"
   style="font-size:26.5344px;line-height:1.25;font-family:'Segoe Script';-inkscape-font-specification:'Segoe Script';fill:#16272a;fill-opacity:0.799714;stroke-width:0.663359"
   x="14.053504"
   y="84.003174"
   id="text17884"
   transform="scale(1.3128994,0.76167296)"><tspan
     sodipodi:role="line"
     id="tspan17882"
     x="14.053504"
     y="84.003174"
     style="stroke-width:0.663359">_</tspan></text><text
   xml:space="preserve"
   style="font-size:27.0277px;line-height:1.25;font-family:'Segoe Script';-inkscape-font-specification:'Segoe Script';fill:#16272a;fill-opacity:0.799714;stroke-width:0.675691"
   x="82.155273"
   y="84.882538"
   id="text17884-6"
   transform="scale(1.3373062,0.74777188)"><tspan
     sodipodi:role="line"
     id="tspan17882-2"
     x="82.155273"
     y="84.882538"
     style="stroke-width:0.675691">_</tspan></text><text
   xml:space="preserve"
   style="font-size:23.7433px;line-height:1.25;font-family:'Segoe Script';-inkscape-font-specification:'Segoe Script';fill:#16272a;fill-opacity:0.799714;stroke-width:0.593581"
   x="-94.104141"
   y="91.759155"
   id="text17884-0"
   transform="matrix(-0.01836565,-1.3623732,0.73328264,-0.05419994,0,0)"><tspan
     sodipodi:role="line"
     id="tspan17882-4"
     x="-94.104141"
     y="91.759155"
     style="stroke-width:0.593581">_</tspan></text><text
   xml:space="preserve"
   style="font-size:26.7951px;line-height:1.25;font-family:'Segoe Script';-inkscape-font-specification:'Segoe Script';fill:#16272a;fill-opacity:0.799714;stroke-width:0.669874"
   x="-22.11743"
   y="94.774826"
   id="text17884-9"
   transform="matrix(5.133754e-4,-1.3316157,0.75096685,0.00144598,0,0)"><tspan
     sodipodi:role="line"
     id="tspan17882-7"
     x="-22.11743"
     y="94.774826"
     style="stroke-width:0.669874">_</tspan></text></svg>
