<?xml version="1.0" encoding="UTF-8" standalone="no"?>
<!-- Generator: Adobe Illustrator 22.0.1, SVG Export Plug-In . SVG Version: 6.00 Build 0)  -->

<svg
   version="1.1"
   id="Layer_1"
   x="0px"
   y="0px"
   viewBox="0 0 140 140"
   xml:space="preserve"
   sodipodi:docname="southwestWind.svg"
   width="140"
   height="140"
   inkscape:version="1.1.1 (3bf5ae0d25, 2021-09-20)"
   xmlns:inkscape="http://www.inkscape.org/namespaces/inkscape"
   xmlns:sodipodi="http://sodipodi.sourceforge.net/DTD/sodipodi-0.dtd"
   xmlns="http://www.w3.org/2000/svg"
   xmlns:svg="http://www.w3.org/2000/svg"><defs
   id="defs7" /><sodipodi:namedview
   id="namedview5"
   pagecolor="#ffffff"
   bordercolor="#666666"
   borderopacity="1.0"
   inkscape:pageshadow="2"
   inkscape:pageopacity="0.0"
   inkscape:pagecheckerboard="0"
   showgrid="false"
   inkscape:zoom="7.1833332"
   inkscape:cx="64.315547"
   inkscape:cy="81.925756"
   inkscape:window-width="2400"
   inkscape:window-height="1321"
   inkscape:window-x="2391"
   inkscape:window-y="-9"
   inkscape:window-maximized="1"
   inkscape:current-layer="Layer_1"
   width="140px" />
<path
   d="m 110.5659,108.66831 c -7.20716,6.90608 -15.59187,11.52242 -25.085343,13.85011 -9.493488,2.32768 -18.920411,2.1788 -28.280802,-0.44666 C 47.839369,119.44631 39.778577,114.57023 32.981999,107.47739 27.892952,102.16651 24.064657,96.04964 21.495253,89.195627 18.925888,82.34161 17.803339,75.441602 17.954707,68.527329 18.106123,61.613033 19.66717,54.755425 22.637847,47.954499 25.608578,41.153552 29.72686,35.196624 35.167553,29.98319 40.537569,24.837472 46.70004,20.9431 53.586155,18.298946 c 6.886084,-2.644147 13.837507,-3.876416 20.718484,-3.767742 6.880956,0.108654 13.724959,1.59324 20.463191,4.45255 6.73823,2.859337 12.65277,6.910056 17.7753,12.255889 5.12256,5.345825 8.98432,11.497631 11.55371,18.351662 2.56937,6.854025 3.7254,13.788943 3.57405,20.703234 -0.15137,6.914291 -1.74589,13.736962 -4.61249,20.505121 -2.86658,6.768185 -7.08716,12.68909 -12.4925,17.86865 z m -8.30321,-8.66515 c 8.373,-8.023242 12.77146,-18.001886 13.16191,-29.970857 C 115.74438,58.131046 111.88567,48.021987 103.81685,39.601427 98.526919,34.080882 92.22743,30.264978 84.950031,28.257408 77.672623,26.249846 70.311857,26.064776 62.897449,27.874714 c -7.414398,1.809918 -13.911673,5.354902 -19.493697,10.703733 -5.581975,5.348836 -9.436113,11.722893 -11.5606,19.053358 -2.124465,7.330468 -2.322251,14.691378 -0.593369,22.082712 1.728897,7.391335 5.239215,13.812864 10.529169,19.333395 5.289936,5.520538 11.589428,9.336438 18.86683,11.344018 7.277384,2.00756 14.673519,2.15878 22.121391,0.38377 7.44788,-1.775 13.913515,-5.42371 19.495517,-10.77254 z M 106.55821,63.113249 47.686513,94.39246 c -0.386756,0.303595 -0.730816,0.298142 -1.032139,-0.01637 -0.301263,-0.314513 -0.29208,-0.658434 0.02768,-1.031883 L 80.476795,35.894911 c 0.25468,-0.512182 0.570812,-0.748057 0.95018,-0.776471 0.379376,-0.02834 0.647218,0.251106 0.803533,0.838572 l 7.024971,16.525154 c 0.193481,0.48483 0.528291,0.83423 0.970947,1.013263 l 16.311014,7.828082 c 0.54676,0.146286 0.78112,0.390873 0.70308,0.733753 -0.0781,0.342872 -0.26209,0.787318 -0.68233,1.055983 z"
   id="path2"
   style="fill:#2c4f54;fill-opacity:0.5;stroke:#2e3332;stroke-width:0.3;stroke-miterlimit:4;stroke-dasharray:none;stroke-opacity:0.9" />
<path
   style="fill:#2c4f53;fill-opacity:0.499285;stroke:#e4e7e7;stroke-width:0.3;stroke-miterlimit:4;stroke-dasharray:none;stroke-opacity:0.9"
   d="m 105.25836,44.363137 c 1.25476,1.639875 2.52,3.54929 3.50571,5.290546 5.54259,9.791166 6.40898,22.981665 2.23774,34.068884 -2.24531,5.968044 -5.15181,10.25805 -10.07532,14.87121 -5.053399,4.735183 -9.7202,7.463933 -16.008608,9.361433 -4.238429,1.2789 -8.06228,1.81199 -12.67754,1.76733 -9.15927,-0.0886 -17.210739,-2.71827 -24.518878,-8.00791 -1.521942,-1.10158 -2.085609,-1.62334 -4.881861,-4.518839 -3.394064,-3.51465 -4.24879,-4.602877 -6.084104,-7.746402 -2.771785,-4.747753 -4.746479,-11.035971 -5.27676,-16.803471 -0.216309,-2.352545 -0.03454,-7.258831 0.3576,-9.651306 0.94896,-5.790221 3.003854,-11.233902 5.931866,-15.714151 2.159145,-3.303857 3.051849,-4.347372 6.429615,-7.515955 2.382854,-2.235147 3.43746,-3.133971 4.627691,-3.943258 7.228242,-4.915125 15.842055,-7.446322 24.614502,-7.233015 8.984358,0.218489 17.578921,3.212054 24.523136,8.541656 1.600787,1.228585 6.158211,5.747276 7.295251,7.233235 z M 97.405427,57.98623 c -4.421264,-2.126161 -8.186134,-3.958589 -8.366368,-4.072053 -0.222471,-0.139992 -1.501337,-2.931687 -3.982337,-8.693013 -2.103796,-4.885335 -3.768098,-8.548252 -3.921994,-8.631761 -0.318991,-0.173016 -0.894777,0.117359 -1.249858,0.630366 -0.140956,0.203682 -7.612606,12.680766 -16.603673,27.7269 -15.755454,26.366005 -16.340759,27.371542 -16.164008,27.769161 0.136661,0.307266 0.268093,0.413922 0.515681,0.417588 0.409516,0.0063 57.22804,-29.285749 57.74203,-29.768019 0.4644,-0.435724 0.63523,-1.192112 0.3108,-1.376232 -0.13302,-0.07529 -3.85904,-1.876756 -8.280303,-4.002917 z"
   id="path861" /><rect
   style="fill:#c7485e;fill-opacity:1;stroke:#3c4343;stroke-width:1.28812;stroke-opacity:0.9"
   id="rect2803"
   width="14.13"
   height="0.1659108"
   x="-107.20971"
   y="-5.7664618"
   transform="matrix(-0.69664534,-0.71741569,0.72351045,-0.69031342,0,0)"
   inkscape:transform-center-x="-11.283897"
   inkscape:transform-center-y="-0.25391738" /><path
   style="fill:#a06f78;fill-opacity:1;stroke:#e27364;stroke-width:0.100941;stroke-opacity:0.9"
   d="m 68.422274,82.731703 c -0.223942,0.114868 -5.016442,2.646748 -10.650029,5.626574 -5.633581,2.979827 -10.398682,5.462754 -10.589088,5.517586 -0.299627,0.08624 11.6716,-19.877441 12.237401,-20.407636 0.15448,-0.144899 1.436905,1.035971 4.809772,4.428653 4.300683,4.325957 4.572593,4.639727 4.191983,4.834775 z"
   id="path3397"
   inkscape:transform-center-x="-3.8506246"
   inkscape:transform-center-y="5.4603487" /><text
   xml:space="preserve"
   style="font-size:15.7955px;line-height:1.25;font-family:'Segoe Script';-inkscape-font-specification:'Segoe Script';stroke-width:0.394888;fill:#e0e0e0;fill-opacity:1"
   x="67.335526"
   y="9.982398"
   id="text9344"
   transform="scale(1.0219262,0.97854425)"><tspan
     sodipodi:role="line"
     id="tspan9342"
     x="67.335526"
     y="9.982398"
     style="stroke-width:0.394888;fill:#e0e0e0;fill-opacity:1">c</tspan></text><text
   xml:space="preserve"
   style="font-size:12.6573px;line-height:1.25;font-family:'Segoe Script';-inkscape-font-specification:'Segoe Script';stroke-width:0.31643;fill:#e0e0e0;fill-opacity:1"
   x="74.785896"
   y="122.05302"
   id="text11307"
   transform="scale(0.88842139,1.125592)"><tspan
     sodipodi:role="line"
     id="tspan11305"
     x="74.785896"
     y="122.05302"
     style="stroke-width:0.31643;fill:#e0e0e0;fill-opacity:1">ю</tspan></text><text
   xml:space="preserve"
   style="font-size:14.5777px;line-height:1.25;font-family:'Segoe Script';-inkscape-font-specification:'Segoe Script';stroke-width:0.364441;fill:#e0e0e0;fill-opacity:1"
   x="1.7463557"
   y="90.302055"
   id="text16794"
   transform="scale(1.3773375,0.72603846)"><tspan
     sodipodi:role="line"
     id="tspan16792"
     x="1.7463557"
     y="90.302055"
     style="stroke-width:0.364441;fill:#e0e0e0;fill-opacity:1">з</tspan></text><text
   xml:space="preserve"
   style="font-size:15.1804px;line-height:1.25;font-family:'Segoe Script';-inkscape-font-specification:'Segoe Script';stroke-width:0.379511;fill:#e0e0e0;fill-opacity:1"
   x="93.284058"
   y="93.328972"
   id="text19318"
   transform="scale(1.3926251,0.71806835)"><tspan
     sodipodi:role="line"
     id="tspan19316"
     x="93.284058"
     y="93.328972"
     style="stroke-width:0.379511;fill:#e0e0e0;fill-opacity:1">в</tspan></text><text
   xml:space="preserve"
   style="font-size:26.5344px;line-height:1.25;font-family:'Segoe Script';-inkscape-font-specification:'Segoe Script';fill:#16272a;fill-opacity:0.799714;stroke-width:0.663359"
   x="14.053504"
   y="84.003174"
   id="text17884"
   transform="scale(1.3128994,0.76167296)"><tspan
     sodipodi:role="line"
     id="tspan17882"
     x="14.053504"
     y="84.003174"
     style="stroke-width:0.663359">_</tspan></text><text
   xml:space="preserve"
   style="font-size:27.0277px;line-height:1.25;font-family:'Segoe Script';-inkscape-font-specification:'Segoe Script';fill:#16272a;fill-opacity:0.799714;stroke-width:0.675691"
   x="82.155273"
   y="84.882538"
   id="text17884-6"
   transform="scale(1.3373062,0.74777188)"><tspan
     sodipodi:role="line"
     id="tspan17882-2"
     x="82.155273"
     y="84.882538"
     style="stroke-width:0.675691">_</tspan></text><text
   xml:space="preserve"
   style="font-size:23.7433px;line-height:1.25;font-family:'Segoe Script';-inkscape-font-specification:'Segoe Script';fill:#16272a;fill-opacity:0.799714;stroke-width:0.593581"
   x="-94.104141"
   y="91.759155"
   id="text17884-0"
   transform="matrix(-0.01836565,-1.3623732,0.73328264,-0.05419994,0,0)"><tspan
     sodipodi:role="line"
     id="tspan17882-4"
     x="-94.104141"
     y="91.759155"
     style="stroke-width:0.593581">_</tspan></text><text
   xml:space="preserve"
   style="font-size:26.7951px;line-height:1.25;font-family:'Segoe Script';-inkscape-font-specification:'Segoe Script';fill:#16272a;fill-opacity:0.799714;stroke-width:0.669874"
   x="-22.11743"
   y="94.774826"
   id="text17884-9"
   transform="matrix(5.133754e-4,-1.3316157,0.75096685,0.00144598,0,0)"><tspan
     sodipodi:role="line"
     id="tspan17882-7"
     x="-22.11743"
     y="94.774826"
     style="stroke-width:0.669874">_</tspan></text></svg>
