<?xml version="1.0" encoding="UTF-8" standalone="no"?>
<!-- Generator: Adobe Illustrator 22.0.1, SVG Export Plug-In . SVG Version: 6.00 Build 0)  -->

<svg
   version="1.1"
   id="Layer_1"
   x="0px"
   y="0px"
   viewBox="0 0 140 140"
   xml:space="preserve"
   sodipodi:docname="southEastWind.svg"
   width="140"
   height="140"
   inkscape:version="1.1.1 (3bf5ae0d25, 2021-09-20)"
   xmlns:inkscape="http://www.inkscape.org/namespaces/inkscape"
   xmlns:sodipodi="http://sodipodi.sourceforge.net/DTD/sodipodi-0.dtd"
   xmlns="http://www.w3.org/2000/svg"
   xmlns:svg="http://www.w3.org/2000/svg"><defs
   id="defs7" /><sodipodi:namedview
   id="namedview5"
   pagecolor="#ffffff"
   bordercolor="#666666"
   borderopacity="1.0"
   inkscape:pageshadow="2"
   inkscape:pageopacity="0.0"
   inkscape:pagecheckerboard="0"
   showgrid="false"
   inkscape:zoom="2.5396918"
   inkscape:cx="60.637279"
   inkscape:cy="50.202942"
   inkscape:window-width="2400"
   inkscape:window-height="1321"
   inkscape:window-x="2391"
   inkscape:window-y="-9"
   inkscape:window-maximized="1"
   inkscape:current-layer="Layer_1"
   width="140px" />
<path
   d="m 107.24541,27.124825 c 7.72699,6.319077 13.32344,14.083975 16.78213,23.226277 3.45868,9.142313 4.45093,18.51805 2.97674,28.12725 -1.47419,9.609194 -5.33966,18.200508 -11.55851,25.804968 -4.65646,5.69396 -10.26546,10.2339 -16.758442,13.61333 -6.492989,3.37939 -13.206597,5.32815 -20.088433,6.01406 -6.881861,0.68587 -13.877919,-0.0344 -20.988186,-2.16081 -7.110295,-2.12646 -13.521543,-5.49412 -19.354679,-10.2644 -5.757369,-4.70831 -10.368411,-10.35459 -13.825925,-16.870395 -3.457503,-6.515776 -5.521392,-13.267156 -6.24566,-20.110773 -0.724287,-6.843594 -0.07827,-13.816903 1.945172,-20.851468 2.02347,-7.034563 5.329188,-13.395571 10.016297,-19.126998 4.687097,-5.731454 10.326733,-10.308833 16.819733,-13.688251 6.492998,-3.379399 13.237212,-5.365608 20.119057,-6.051543 6.881851,-0.685911 13.847278,0.07181 20.912432,2.098873 7.06518,2.027024 13.453044,5.500588 19.248274,10.23988 z M 99.648001,36.415 C 90.67106,29.073738 80.233736,25.914319 68.305386,26.974195 56.452807,28.096024 46.884594,33.148944 39.501633,42.17688 c -4.840295,5.918727 -7.866369,12.633455 -8.979119,20.100225 -1.11274,7.466778 -0.406284,14.795902 2.287025,21.937008 2.693288,7.141099 6.997996,13.161979 12.982626,18.056177 5.98463,4.89415 12.778002,7.94916 20.311588,9.17155 7.533587,1.22237 14.864391,0.52852 21.992393,-2.08154 7.128007,-2.61007 13.077884,-6.87121 17.918164,-12.789957 4.84029,-5.918732 7.86636,-12.633458 8.97912,-20.100235 1.11273,-7.466758 0.3684,-14.826892 -2.29428,-22.005446 C 110.03647,47.286106 105.63263,41.309178 99.648001,36.415 Z M 62.509367,36.612261 100.6786,91.269142 c 0.34814,0.347208 0.38434,0.689401 0.10857,1.026548 -0.2758,0.337065 -0.61828,0.369563 -1.027659,0.09731 L 38.644929,65.793875 c -0.539222,-0.190871 -0.811597,-0.476157 -0.885681,-0.849304 -0.07401,-0.373165 0.170992,-0.672836 0.735241,-0.899049 l 15.55431,-8.971866 c 0.457872,-0.250694 0.764218,-0.625301 0.888406,-1.086359 l 5.79807,-17.137986 c 0.07909,-0.560435 0.29354,-0.822651 0.643345,-0.786647 0.349799,0.03605 0.813235,0.164948 1.13075,0.54962 z"
   id="path2"
   style="fill:#2c4f54;fill-opacity:0.5;stroke:#2e3332;stroke-width:0.3;stroke-miterlimit:4;stroke-dasharray:none;stroke-opacity:0.9" />
<path
   style="fill:#2c4f53;fill-opacity:0.499285;stroke:#e4e7e7;stroke-width:0.3;stroke-miterlimit:4;stroke-dasharray:none;stroke-opacity:0.9"
   d="m 44.137859,40.039234 c 1.466368,-1.453751 3.198733,-2.952278 4.799986,-4.15211 9.003929,-6.74659 21.976061,-9.28894 33.504888,-6.56648 6.205757,1.465469 10.831549,3.800821 16.035218,8.095469 5.341279,4.407908 8.643179,8.688392 11.327549,14.683284 1.80925,4.040604 2.82588,7.765186 3.37048,12.34842 1.08078,9.095704 -0.50004,17.416895 -4.81397,25.340233 -0.89838,1.65006 -1.34395,2.275692 -3.85899,5.418545 -3.05288,3.814753 -4.02313,4.801365 -6.906785,7.022775 -4.355276,3.35492 -10.340144,6.11582 -15.992841,7.37767 -2.305709,0.51472 -7.195087,0.96045 -9.618042,0.87679 -5.863972,-0.2024 -11.525353,-1.54591 -16.342582,-3.87833 -3.552356,-1.71994 -4.701244,-2.4722 -8.274913,-5.41806 -2.520917,-2.078178 -3.54696,-3.009475 -4.501499,-4.086721 -5.797247,-6.542014 -9.406837,-14.762452 -10.31459,-23.490412 -0.929658,-8.938801 0.942807,-17.845079 5.342795,-25.412567 1.014294,-1.744465 4.914545,-6.841201 6.243277,-8.158549 z m 14.513738,6.050498 c -1.544655,4.656415 -2.881718,8.62432 -2.971263,8.817559 -0.11046,0.238515 -2.716157,1.863134 -8.113828,5.058973 -4.576969,2.709947 -7.997592,4.828017 -8.060777,4.99131 -0.130899,0.33846 0.230565,0.872489 0.784685,1.15921 0.220006,0.113818 13.548455,5.932377 29.618818,12.930137 28.160828,12.262493 29.232819,12.714713 29.604646,12.488675 0.287305,-0.174755 0.376332,-0.318718 0.348348,-0.564768 -0.04603,-0.406974 -36.348407,-53.023555 -36.892317,-53.471805 -0.491427,-0.405007 -1.263427,-0.477929 -1.404647,-0.132659 -0.05769,0.141534 -1.369016,4.066963 -2.913668,8.723377 z"
   id="path861" /><rect
   style="fill:#c7485e;fill-opacity:1;stroke:#3c4343;stroke-width:1.28812;stroke-opacity:0.9"
   id="rect2803"
   width="14.129961"
   height="0.1659108"
   x="-0.70732021"
   y="-110.95699"
   transform="matrix(-0.63290583,0.77422879,-0.7686366,-0.63968569,0,0)"
   inkscape:transform-center-x="1.5446268"
   inkscape:transform-center-y="-11.180556" /><path
   style="fill:#a06f78;fill-opacity:1;stroke:#e27364;stroke-width:0.100941;stroke-opacity:0.9"
   d="m 87.201801,72.315616 c 0.143926,0.206469 3.297,4.615166 7.007006,9.797108 3.710012,5.181933 6.810883,9.570057 6.890813,9.751361 0.12574,0.28532 -21.265861,-8.893914 -21.867297,-9.383316 -0.164327,-0.133628 0.833434,-1.563113 3.741977,-5.361389 3.708636,-4.843119 3.983011,-5.154735 4.227448,-4.803796 z"
   id="path3397"
   inkscape:transform-center-x="-5.5034732"
   inkscape:transform-center-y="-5.1627144" /><text
   xml:space="preserve"
   style="font-size:15.7955px;line-height:1.25;font-family:'Segoe Script';-inkscape-font-specification:'Segoe Script';stroke-width:0.394888;fill:#e0e0e0;fill-opacity:1"
   x="67.335526"
   y="9.982398"
   id="text9344"
   transform="scale(1.0219262,0.97854425)"><tspan
     sodipodi:role="line"
     id="tspan9342"
     x="67.335526"
     y="9.982398"
     style="stroke-width:0.394888;fill:#e0e0e0;fill-opacity:1">c</tspan></text><text
   xml:space="preserve"
   style="font-size:12.6573px;line-height:1.25;font-family:'Segoe Script';-inkscape-font-specification:'Segoe Script';stroke-width:0.31643;fill:#e0e0e0;fill-opacity:1"
   x="74.785896"
   y="122.05302"
   id="text11307"
   transform="scale(0.88842139,1.125592)"><tspan
     sodipodi:role="line"
     id="tspan11305"
     x="74.785896"
     y="122.05302"
     style="stroke-width:0.31643;fill:#e0e0e0;fill-opacity:1">ю</tspan></text><text
   xml:space="preserve"
   style="font-size:14.5777px;line-height:1.25;font-family:'Segoe Script';-inkscape-font-specification:'Segoe Script';stroke-width:0.364441;fill:#e0e0e0;fill-opacity:1"
   x="1.7463557"
   y="90.302055"
   id="text16794"
   transform="scale(1.3773375,0.72603846)"><tspan
     sodipodi:role="line"
     id="tspan16792"
     x="1.7463557"
     y="90.302055"
     style="stroke-width:0.364441;fill:#e0e0e0;fill-opacity:1">з</tspan></text><text
   xml:space="preserve"
   style="font-size:15.1804px;line-height:1.25;font-family:'Segoe Script';-inkscape-font-specification:'Segoe Script';stroke-width:0.379511;fill:#e0e0e0;fill-opacity:1"
   x="93.284058"
   y="93.328972"
   id="text19318"
   transform="scale(1.3926251,0.71806835)"><tspan
     sodipodi:role="line"
     id="tspan19316"
     x="93.284058"
     y="93.328972"
     style="stroke-width:0.379511;fill:#e0e0e0;fill-opacity:1">в</tspan></text><text
   xml:space="preserve"
   style="font-size:26.5344px;line-height:1.25;font-family:'Segoe Script';-inkscape-font-specification:'Segoe Script';fill:#16272a;fill-opacity:0.799714;stroke-width:0.663359"
   x="14.053504"
   y="84.003174"
   id="text17884"
   transform="scale(1.3128994,0.76167296)"><tspan
     sodipodi:role="line"
     id="tspan17882"
     x="14.053504"
     y="84.003174"
     style="stroke-width:0.663359">_</tspan></text><text
   xml:space="preserve"
   style="font-size:27.0277px;line-height:1.25;font-family:'Segoe Script';-inkscape-font-specification:'Segoe Script';fill:#16272a;fill-opacity:0.799714;stroke-width:0.675691"
   x="82.155273"
   y="84.882538"
   id="text17884-6"
   transform="scale(1.3373062,0.74777188)"><tspan
     sodipodi:role="line"
     id="tspan17882-2"
     x="82.155273"
     y="84.882538"
     style="stroke-width:0.675691">_</tspan></text><text
   xml:space="preserve"
   style="font-size:23.7433px;line-height:1.25;font-family:'Segoe Script';-inkscape-font-specification:'Segoe Script';fill:#16272a;fill-opacity:0.799714;stroke-width:0.593581"
   x="-94.104141"
   y="91.759155"
   id="text17884-0"
   transform="matrix(-0.01836565,-1.3623732,0.73328264,-0.05419994,0,0)"><tspan
     sodipodi:role="line"
     id="tspan17882-4"
     x="-94.104141"
     y="91.759155"
     style="stroke-width:0.593581">_</tspan></text><text
   xml:space="preserve"
   style="font-size:26.7951px;line-height:1.25;font-family:'Segoe Script';-inkscape-font-specification:'Segoe Script';fill:#16272a;fill-opacity:0.799714;stroke-width:0.669874"
   x="-22.11743"
   y="94.774826"
   id="text17884-9"
   transform="matrix(5.133754e-4,-1.3316157,0.75096685,0.00144598,0,0)"><tspan
     sodipodi:role="line"
     id="tspan17882-7"
     x="-22.11743"
     y="94.774826"
     style="stroke-width:0.669874">_</tspan></text></svg>
