<?xml version="1.0" encoding="UTF-8" standalone="no"?>
<!-- Generator: Adobe Illustrator 22.0.1, SVG Export Plug-In . SVG Version: 6.00 Build 0)  -->

<svg
   version="1.1"
   id="Layer_1"
   x="0px"
   y="0px"
   viewBox="0 0 140 140"
   xml:space="preserve"
   sodipodi:docname="southWind.svg"
   width="140"
   height="140"
   inkscape:version="1.1.1 (3bf5ae0d25, 2021-09-20)"
   xmlns:inkscape="http://www.inkscape.org/namespaces/inkscape"
   xmlns:sodipodi="http://sodipodi.sourceforge.net/DTD/sodipodi-0.dtd"
   xmlns="http://www.w3.org/2000/svg"
   xmlns:svg="http://www.w3.org/2000/svg"><defs
   id="defs7" /><sodipodi:namedview
   id="namedview5"
   pagecolor="#ffffff"
   bordercolor="#666666"
   borderopacity="1.0"
   inkscape:pageshadow="2"
   inkscape:pageopacity="0.0"
   inkscape:pagecheckerboard="0"
   showgrid="false"
   inkscape:zoom="7.1833332"
   inkscape:cx="64.315547"
   inkscape:cy="81.925756"
   inkscape:window-width="2400"
   inkscape:window-height="1321"
   inkscape:window-x="2391"
   inkscape:window-y="-9"
   inkscape:window-maximized="1"
   inkscape:current-layer="Layer_1"
   width="140px" />
<path
   d="m 127.25834,71.09009 c -0.32818,9.976443 -3.09886,19.138169 -8.26207,27.437894 -5.16323,8.299726 -12.00969,14.781626 -20.53942,19.445706 -8.529724,4.66408 -17.702882,6.81017 -27.521111,6.48722 C 63.584187,124.2191 56.571058,122.51969 49.943144,119.41323 43.315256,116.30674 37.69003,112.15619 32.965978,107.10511 28.241943,102.05398 24.565737,96.058218 21.937354,89.11782 19.308994,82.17737 18.091273,75.038575 18.339,67.507329 c 0.244502,-7.433418 1.930345,-14.525676 5.007523,-21.229488 3.077161,-6.703786 7.187802,-12.44342 12.18523,-17.174738 4.997398,-4.731319 10.929992,-8.452704 17.747715,-11.116924 6.817739,-2.664197 13.879003,-3.900621 21.278935,-3.657209 7.399947,0.243386 14.461425,1.944393 21.089341,5.050876 6.627896,3.106494 12.301466,7.258614 17.025546,12.309692 4.72406,5.051098 8.35191,11.045264 11.03183,17.889489 2.67996,6.844222 3.79934,14.02875 3.55322,21.511063 z M 115.26366,70.695548 C 115.64491,59.105283 111.81684,48.89423 103.73111,40.060788 95.64216,31.325167 85.817178,26.791686 74.161075,26.408275 c -7.641766,-0.251377 -14.814242,1.422026 -21.422321,5.072253 -6.60808,3.65024 -12.002059,8.662238 -16.040113,15.138613 -4.038061,6.476354 -6.207549,13.552711 -6.461732,21.279571 -0.254145,7.72683 1.444027,14.979361 5.04772,21.707106 3.60371,6.727733 8.606713,12.130702 15.008989,16.208902 6.402287,4.07819 13.400911,6.21773 21.042684,6.46908 7.641768,0.25137 14.81424,-1.42204 21.422331,-5.07226 6.608057,-3.65023 12.003677,-8.711155 16.090077,-15.185936 4.08641,-6.474782 6.16078,-13.603209 6.41495,-21.330056 z M 92.553949,41.308711 72.307915,104.82535 c -0.06444,0.48744 -0.314333,0.724 -0.749661,0.70964 -0.435282,-0.0144 -0.669077,-0.2668 -0.701374,-0.75738 L 54.877138,40.069394 c -0.175804,-0.544321 -0.114548,-0.933967 0.136929,-1.219426 0.251536,-0.285411 0.638405,-0.272736 1.16078,0.03819 l 16.573728,6.909593 c 0.477226,0.211542 0.960884,0.227448 1.402609,0.04613 l 17.137085,-5.800732 c 0.493294,-0.277495 0.831853,-0.266349 1.015672,0.03343 0.183779,0.299807 0.362798,0.746281 0.249992,1.232145 z"
   id="path2"
   style="fill:#2c4f54;fill-opacity:0.5;stroke:#2e3332;stroke-width:0.3;stroke-miterlimit:4;stroke-dasharray:none;stroke-opacity:0.9" />
<path
   style="fill:#2c4f53;fill-opacity:0.499285;stroke:#e4e7e7;stroke-width:0.3;stroke-miterlimit:4;stroke-dasharray:none;stroke-opacity:0.9"
   d="m 78.413638,28.483649 c 2.047733,0.26537 4.294082,0.713258 6.22414,1.240965 10.852727,2.967413 20.821942,11.648113 25.748842,22.420824 2.65205,5.798759 3.64759,10.884109 3.45101,17.628257 -0.20154,6.922299 -1.55421,12.156357 -4.6394,17.955168 -2.07946,3.908415 -4.39592,6.997108 -7.68,10.240173 -6.517453,6.436054 -14.057097,10.295454 -22.960186,11.752944 -1.854091,0.30353 -2.621495,0.33577 -6.646387,0.27924 -4.885459,-0.0687 -6.259886,-0.22915 -9.783574,-1.14225 -5.321824,-1.37918 -11.174895,-4.40947 -15.640632,-8.09762 -1.821567,-1.504375 -5.174484,-5.09083 -6.595606,-7.055034 -3.43943,-4.753688 -5.853632,-10.047824 -6.968988,-15.282503 -0.82253,-3.860159 -0.933812,-5.228903 -0.801596,-9.858345 0.09337,-3.265756 0.198839,-4.647405 0.463411,-6.062183 1.606491,-8.592155 5.8808,-16.487408 12.214126,-22.561147 C 51.285135,33.721699 59.4657,29.73343 68.140678,28.5623 c 1.999764,-0.26997 8.417416,-0.319123 10.272981,-0.07869 z m 4.131599,15.171917 c -4.624199,1.638574 -8.577429,3.018431 -8.784944,3.066349 -0.2561,0.05919 -3.138032,-1.000774 -8.974069,-3.300536 -4.948704,-1.950074 -8.720388,-3.350525 -8.888089,-3.300185 -0.347549,0.104399 -0.547287,0.717549 -0.433535,1.330997 0.04518,0.243544 3.632373,14.337345 7.971569,31.319595 7.603758,29.758754 7.904719,30.882634 8.311387,31.037434 0.314311,0.11957 0.482605,0.10148 0.659682,-0.0716 0.293061,-0.28611 19.550611,-61.241144 19.570649,-61.945676 0.01812,-0.63655 -0.398156,-1.290782 -0.757416,-1.19035 -0.147153,0.04132 -4.051043,1.415433 -8.675241,3.054007 z"
   id="path861" /><rect
   style="fill:#c7485e;fill-opacity:1;stroke:#3c4343;stroke-width:1.28812;stroke-opacity:0.9"
   id="rect2803"
   width="14.13"
   height="0.1659108"
   x="-82.643547"
   y="-77.48793"
   transform="matrix(-0.99951954,-0.03099514,0.03977822,-0.99920853,0,0)"
   inkscape:transform-center-x="-7.9314199"
   inkscape:transform-center-y="-8.0301568" /><path
   style="fill:#a06f78;fill-opacity:1;stroke:#e27364;stroke-width:0.100941;stroke-opacity:0.9"
   d="m 79.015773,82.189987 c -0.07919,0.2389 -1.722289,5.404043 -3.651231,11.478239 -1.928932,6.074195 -3.586812,11.185214 -3.684164,11.357794 -0.153232,0.27154 -5.609829,-22.357746 -5.577971,-23.132487 0.0086,-0.211626 1.750968,-0.268414 6.534635,-0.213152 6.099574,0.07047 6.513442,0.103639 6.378725,0.509544 z"
   id="path3397"
   inkscape:transform-center-x="-7.0032139"
   inkscape:transform-center-y="4.2800559" /><text
   xml:space="preserve"
   style="font-size:15.7955px;line-height:1.25;font-family:'Segoe Script';-inkscape-font-specification:'Segoe Script';stroke-width:0.394888;fill:#e0e0e0;fill-opacity:1"
   x="67.335526"
   y="9.982398"
   id="text9344"
   transform="scale(1.0219262,0.97854425)"><tspan
     sodipodi:role="line"
     id="tspan9342"
     x="67.335526"
     y="9.982398"
     style="stroke-width:0.394888;fill:#e0e0e0;fill-opacity:1">c</tspan></text><text
   xml:space="preserve"
   style="font-size:12.6573px;line-height:1.25;font-family:'Segoe Script';-inkscape-font-specification:'Segoe Script';stroke-width:0.31643;fill:#e0e0e0;fill-opacity:1"
   x="74.785896"
   y="122.05302"
   id="text11307"
   transform="scale(0.88842139,1.125592)"><tspan
     sodipodi:role="line"
     id="tspan11305"
     x="74.785896"
     y="122.05302"
     style="stroke-width:0.31643;fill:#e0e0e0;fill-opacity:1">ю</tspan></text><text
   xml:space="preserve"
   style="font-size:14.5777px;line-height:1.25;font-family:'Segoe Script';-inkscape-font-specification:'Segoe Script';stroke-width:0.364441;fill:#e0e0e0;fill-opacity:1"
   x="1.7463557"
   y="90.302055"
   id="text16794"
   transform="scale(1.3773375,0.72603846)"><tspan
     sodipodi:role="line"
     id="tspan16792"
     x="1.7463557"
     y="90.302055"
     style="stroke-width:0.364441;fill:#e0e0e0;fill-opacity:1">з</tspan></text><text
   xml:space="preserve"
   style="font-size:15.1804px;line-height:1.25;font-family:'Segoe Script';-inkscape-font-specification:'Segoe Script';stroke-width:0.379511;fill:#e0e0e0;fill-opacity:1"
   x="93.284058"
   y="93.328972"
   id="text19318"
   transform="scale(1.3926251,0.71806835)"><tspan
     sodipodi:role="line"
     id="tspan19316"
     x="93.284058"
     y="93.328972"
     style="stroke-width:0.379511;fill:#e0e0e0;fill-opacity:1">в</tspan></text><text
   xml:space="preserve"
   style="font-size:26.5344px;line-height:1.25;font-family:'Segoe Script';-inkscape-font-specification:'Segoe Script';fill:#16272a;fill-opacity:0.799714;stroke-width:0.663359"
   x="14.053504"
   y="84.003174"
   id="text17884"
   transform="scale(1.3128994,0.76167296)"><tspan
     sodipodi:role="line"
     id="tspan17882"
     x="14.053504"
     y="84.003174"
     style="stroke-width:0.663359">_</tspan></text><text
   xml:space="preserve"
   style="font-size:27.0277px;line-height:1.25;font-family:'Segoe Script';-inkscape-font-specification:'Segoe Script';fill:#16272a;fill-opacity:0.799714;stroke-width:0.675691"
   x="82.155273"
   y="84.882538"
   id="text17884-6"
   transform="scale(1.3373062,0.74777188)"><tspan
     sodipodi:role="line"
     id="tspan17882-2"
     x="82.155273"
     y="84.882538"
     style="stroke-width:0.675691">_</tspan></text><text
   xml:space="preserve"
   style="font-size:23.7433px;line-height:1.25;font-family:'Segoe Script';-inkscape-font-specification:'Segoe Script';fill:#16272a;fill-opacity:0.799714;stroke-width:0.593581"
   x="-94.104141"
   y="91.759155"
   id="text17884-0"
   transform="matrix(-0.01836565,-1.3623732,0.73328264,-0.05419994,0,0)"><tspan
     sodipodi:role="line"
     id="tspan17882-4"
     x="-94.104141"
     y="91.759155"
     style="stroke-width:0.593581">_</tspan></text><text
   xml:space="preserve"
   style="font-size:26.7951px;line-height:1.25;font-family:'Segoe Script';-inkscape-font-specification:'Segoe Script';fill:#16272a;fill-opacity:0.799714;stroke-width:0.669874"
   x="-22.11743"
   y="94.774826"
   id="text17884-9"
   transform="matrix(5.133754e-4,-1.3316157,0.75096685,0.00144598,0,0)"><tspan
     sodipodi:role="line"
     id="tspan17882-7"
     x="-22.11743"
     y="94.774826"
     style="stroke-width:0.669874">_</tspan></text></svg>
