<?xml version="1.0" encoding="UTF-8" standalone="no"?>
<!-- Generator: Adobe Illustrator 22.0.1, SVG Export Plug-In . SVG Version: 6.00 Build 0)  -->

<svg
   version="1.1"
   id="Layer_1"
   x="0px"
   y="0px"
   viewBox="0 0 140 140"
   xml:space="preserve"
   sodipodi:docname="southEastWind.svg"
   width="140"
   height="140"
   inkscape:version="1.1.1 (3bf5ae0d25, 2021-09-20)"
   xmlns:inkscape="http://www.inkscape.org/namespaces/inkscape"
   xmlns:sodipodi="http://sodipodi.sourceforge.net/DTD/sodipodi-0.dtd"
   xmlns="http://www.w3.org/2000/svg"
   xmlns:svg="http://www.w3.org/2000/svg"><defs
   id="defs7" /><sodipodi:namedview
   id="namedview5"
   pagecolor="#ffffff"
   bordercolor="#666666"
   borderopacity="1.0"
   inkscape:pageshadow="2"
   inkscape:pageopacity="0.0"
   inkscape:pagecheckerboard="0"
   showgrid="false"
   inkscape:zoom="7.1833332"
   inkscape:cx="93.549886"
   inkscape:cy="72.59861"
   inkscape:window-width="2400"
   inkscape:window-height="1321"
   inkscape:window-x="2391"
   inkscape:window-y="-9"
   inkscape:window-maximized="1"
   inkscape:current-layer="Layer_1"
   width="140px" />
<path
   d="m 107.24541,27.124825 c 7.72699,6.319077 13.32344,14.083975 16.78213,23.226277 3.45868,9.142313 4.45093,18.51805 2.97674,28.12725 -1.47419,9.609194 -5.33966,18.200508 -11.55851,25.804968 -4.65646,5.69396 -10.26546,10.2339 -16.758442,13.61333 -6.492989,3.37939 -13.206597,5.32815 -20.088433,6.01406 -6.881861,0.68587 -13.877919,-0.0344 -20.988186,-2.16081 -7.110295,-2.12646 -13.521543,-5.49412 -19.354679,-10.2644 -5.757369,-4.70831 -10.368411,-10.35459 -13.825925,-16.870395 -3.457503,-6.515776 -5.521392,-13.267156 -6.24566,-20.110773 -0.724287,-6.843594 -0.07827,-13.816903 1.945172,-20.851468 2.02347,-7.034563 5.329188,-13.395571 10.016297,-19.126998 4.687097,-5.731454 10.326733,-10.308833 16.819733,-13.688251 6.492998,-3.379399 13.237212,-5.365608 20.119057,-6.051543 6.881851,-0.685911 13.847278,0.07181 20.912432,2.098873 7.06518,2.027024 13.453044,5.500588 19.248274,10.23988 z M 99.648001,36.415 C 90.67106,29.073738 80.233736,25.914319 68.305386,26.974195 56.452807,28.096024 46.884594,33.148944 39.501633,42.17688 c -4.840295,5.918727 -7.866369,12.633455 -8.979119,20.100225 -1.11274,7.466778 -0.406284,14.795902 2.287025,21.937008 2.693288,7.141099 6.997996,13.161979 12.982626,18.056177 5.98463,4.89415 12.778002,7.94916 20.311588,9.17155 7.533587,1.22237 14.864391,0.52852 21.992393,-2.08154 7.128007,-2.61007 13.077884,-6.87121 17.918164,-12.789957 4.84029,-5.918732 7.86636,-12.633458 8.97912,-20.100235 1.11273,-7.466758 0.3684,-14.826892 -2.29428,-22.005446 C 110.03647,47.286106 105.63263,41.309178 99.648001,36.415 Z M 62.509367,36.612261 100.6786,91.269142 c 0.34814,0.347208 0.38434,0.689401 0.10857,1.026548 -0.2758,0.337065 -0.61828,0.369563 -1.027659,0.09731 L 38.644929,65.793875 c -0.539222,-0.190871 -0.811597,-0.476157 -0.885681,-0.849304 -0.07401,-0.373165 0.170992,-0.672836 0.735241,-0.899049 l 15.55431,-8.971866 c 0.457872,-0.250694 0.764218,-0.625301 0.888406,-1.086359 l 5.79807,-17.137986 c 0.07909,-0.560435 0.29354,-0.822651 0.643345,-0.786647 0.349799,0.03605 0.813235,0.164948 1.13075,0.54962 z"
   id="path2"
   style="fill:#2c4f54;fill-opacity:0.5;stroke:#2e3332;stroke-width:0.3;stroke-miterlimit:4;stroke-dasharray:none;stroke-opacity:0.9" />
<path
   style="fill:#2c4f53;fill-opacity:0.499285;stroke:#e4e7e7;stroke-width:0.3;stroke-miterlimit:4;stroke-dasharray:none;stroke-opacity:0.9"
   d="m 44.137859,40.039234 c 1.466368,-1.453751 3.198733,-2.952278 4.799986,-4.15211 9.003929,-6.74659 21.976061,-9.28894 33.504888,-6.56648 6.205757,1.465469 10.831549,3.800821 16.035218,8.095469 5.341279,4.407908 8.643179,8.688392 11.327549,14.683284 1.80925,4.040604 2.82588,7.765186 3.37048,12.34842 1.08078,9.095704 -0.50004,17.416895 -4.81397,25.340233 -0.89838,1.65006 -1.34395,2.275692 -3.85899,5.418545 -3.05288,3.814753 -4.02313,4.801365 -6.906785,7.022775 -4.355276,3.35492 -10.340144,6.11582 -15.992841,7.37767 -2.305709,0.51472 -7.195087,0.96045 -9.618042,0.87679 -5.863972,-0.2024 -11.525353,-1.54591 -16.342582,-3.87833 -3.552356,-1.71994 -4.701244,-2.4722 -8.274913,-5.41806 -2.520917,-2.078178 -3.54696,-3.009475 -4.501499,-4.086721 -5.797247,-6.542014 -9.406837,-14.762452 -10.31459,-23.490412 -0.929658,-8.938801 0.942807,-17.845079 5.342795,-25.412567 1.014294,-1.744465 4.914545,-6.841201 6.243277,-8.158549 z m 14.513738,6.050498 c -1.544655,4.656415 -2.881718,8.62432 -2.971263,8.817559 -0.11046,0.238515 -2.716157,1.863134 -8.113828,5.058973 -4.576969,2.709947 -7.997592,4.828017 -8.060777,4.99131 -0.130899,0.33846 0.230565,0.872489 0.784685,1.15921 0.220006,0.113818 13.548455,5.932377 29.618818,12.930137 28.160828,12.262493 29.232819,12.714713 29.604646,12.488675 0.287305,-0.174755 0.376332,-0.318718 0.348348,-0.564768 -0.04603,-0.406974 -36.348407,-53.023555 -36.892317,-53.471805 -0.491427,-0.405007 -1.263427,-0.477929 -1.404647,-0.132659 -0.05769,0.141534 -1.369016,4.066963 -2.913668,8.723377 z"
   id="path861" /><rect
   style="fill:#c7485e;fill-opacity:1;stroke:#3c4343;stroke-width:1.25094;stroke-opacity:0.9"
   id="rect2803"
   width="13.716612"
   height="0.16118594"
   x="-0.026270006"
   y="-110.9772"
   transform="matrix(-0.63449692,0.77292539,-0.76995411,-0.63809927,0,0)"
   inkscape:transform-center-x="1.5032029"
   inkscape:transform-center-y="-10.835208" /><path
   style="fill:#a06f78;fill-opacity:1;stroke:#e27364;stroke-width:0.100941;stroke-opacity:0.9"
   d="m 85.880982,71.906562 c 0.143926,0.206469 3.297,4.615166 7.007006,9.797108 3.710012,5.181933 6.810883,9.570057 6.890813,9.751361 0.12574,0.28532 -21.265861,-8.893914 -21.867297,-9.383316 -0.164327,-0.133628 0.833434,-1.563113 3.741977,-5.361389 3.708636,-4.843119 3.983011,-5.154735 4.227448,-4.803796 z"
   id="path3397"
   inkscape:transform-center-x="-5.5034732"
   inkscape:transform-center-y="-5.1627144" /><g
   aria-label="c"
   transform="scale(1.0219262,0.97854425)"
   id="text9344"
   style="font-size:15.7955px;line-height:1.25;font-family:'Segoe Script';-inkscape-font-specification:'Segoe Script';fill:#e0e0e0;stroke-width:0.394888"><path
     d="m 76.15108,6.7893624 q 0,0.2776553 -0.200528,0.501322 -0.208242,0.2313794 -0.362495,0.393345 -0.154253,0.1542529 -0.29308,0.2853679 -0.138828,0.131115 -0.293081,0.2545174 -0.154253,0.1156897 -0.362494,0.2699426 -0.586161,0.4241955 -1.118334,0.7172761 -0.532173,0.2853679 -1.033495,0.4704714 -0.501322,0.1773909 -0.994931,0.2545174 -0.485897,0.077127 -0.979506,0.077127 -0.516747,0 -0.925518,-0.1928165 Q 69.178848,9.6199037 68.89348,9.2805472 68.615825,8.9411908 68.469285,8.4938573 68.322744,8.0388111 68.322744,7.5374891 v -0.038563 q 0,-0.5090347 0.131115,-1.0797705 0.131115,-0.5784485 0.362495,-1.156897 0.239092,-0.5784484 0.570735,-1.133759 0.331644,-0.5630232 0.732702,-1.0489199 0.161965,-0.1928161 0.385632,-0.4087702 0.23138,-0.2236668 0.485897,-0.4087703 0.26223,-0.1851035 0.539885,-0.3007932 0.285368,-0.1234024 0.555311,-0.1234024 0.185103,0 0.354781,0.1156897 0.169679,0.1079771 0.316219,0.285368 0.14654,0.1773908 0.269943,0.4010576 0.123402,0.2159541 0.208241,0.4473335 0.08484,0.2236667 0.131115,0.4319082 0.04628,0.2082414 0.04628,0.3547817 0,0.2236667 -0.138828,0.5784485 -0.138827,0.3547817 -0.331644,0.3547817 -0.277655,0 -0.462758,-0.3779197 Q 72.410447,4.2827524 72.356458,4.0899362 72.310182,3.89712 72.240769,3.7120165 72.179067,3.526913 72.07109,3.3726601 71.963113,3.2106945 71.770297,3.133568 q -0.192816,0.046276 -0.393345,0.2005288 -0.192816,0.154253 -0.385632,0.3779197 -0.185104,0.2236668 -0.370207,0.5090347 -0.177391,0.2776553 -0.339357,0.5784485 -0.154252,0.2776552 -0.300793,0.6401496 -0.14654,0.3547817 -0.26223,0.7404141 -0.115689,0.3779196 -0.185103,0.7558393 -0.06941,0.3779197 -0.06941,0.6941382 0,0.2236667 0.107977,0.4550461 0.107977,0.2236668 0.277655,0.4087703 0.177391,0.1851035 0.393345,0.3007932 0.223667,0.1156897 0.455046,0.1156897 1.141472,0 2.267518,-0.4704714 1.126047,-0.4704715 2.144116,-1.3651385 0.563023,-0.4936093 0.93323,-0.4936093 0.107977,0 0.107977,0.2082414 z"
     id="path6207" /></g><g
   aria-label="ю"
   transform="scale(0.88842139,1.125592)"
   id="text11307"
   style="font-size:12.6573px;line-height:1.25;font-family:'Segoe Script';-inkscape-font-specification:'Segoe Script';fill:#e0e0e0;stroke-width:0.31643"><path
     d="m 76.442223,119.50054 q 0,-0.0247 -0.0309,-0.0433 -0.02472,-0.0247 -0.0618,-0.0618 -0.03708,-0.0371 -0.06798,-0.0989 -0.02472,-0.0618 -0.02472,-0.17305 0,-0.0989 0.05562,-0.17923 0.05562,-0.0803 0.117426,-0.14832 0.06798,-0.068 0.123606,-0.12361 0.0618,-0.0556 0.07416,-0.10507 0.105066,-0.59331 0.17923,-1.11863 0.07416,-0.52533 0.09271,-0.87761 0.0062,-0.10506 0,-0.21631 0,-0.11125 -0.0062,-0.22249 -0.0062,-0.0804 -0.01236,-0.15451 0,-0.0742 0,-0.14215 0,-0.0742 0.05562,-0.16687 0.05562,-0.0927 0.135968,-0.17305 0.08652,-0.0803 0.185409,-0.12978 0.105066,-0.0556 0.203951,-0.0556 0.08652,0 0.173049,0.0494 0.08652,0.0433 0.154508,0.12978 0.06798,0.0804 0.111246,0.20396 0.04326,0.11742 0.04326,0.26575 0,0.11124 -0.01854,0.27193 -0.01854,0.16069 -0.04944,0.35228 -0.0309,0.19159 -0.07416,0.40172 -0.03708,0.21013 -0.07416,0.42026 -0.04944,0.29048 -0.09888,0.55623 -0.04326,0.26576 -0.06798,0.45735 0.02472,0.0556 0.04326,0.0989 0.02472,0.0371 0.0618,0.0618 0.03708,0.0247 0.0927,0.0371 0.0618,0.0124 0.160689,0.0124 0.265754,0 0.562409,-0.0556 0.296655,-0.0556 0.562409,-0.14215 0.265754,-0.0865 0.475885,-0.17923 0.216311,-0.0989 0.321377,-0.18541 0.06798,-0.0556 0.148328,-0.14833 0.08652,-0.0927 0.173049,-0.19777 0.08652,-0.11125 0.166868,-0.21631 0.08652,-0.11125 0.148328,-0.19159 0.210131,-0.26575 0.475885,-0.51915 0.265754,-0.25339 0.587131,-0.44498 0.321376,-0.19159 0.692196,-0.30902 0.376999,-0.11742 0.815802,-0.11742 0.333738,0 0.655114,0.16687 0.321377,0.16068 0.56859,0.4388 0.253393,0.27811 0.401721,0.64275 0.154508,0.35846 0.154508,0.754 0,0.39554 -0.08034,0.7231 -0.07416,0.32138 -0.241033,0.68601 -0.0927,0.19159 -0.321377,0.45735 -0.228671,0.26575 -0.550048,0.55005 -0.315197,0.28429 -0.692196,0.56241 -0.377,0.27811 -0.76636,0.5006 -0.389361,0.22249 -0.76636,0.35846 -0.37082,0.13597 -0.673655,0.13597 -0.407902,0 -0.698377,-0.13597 -0.290475,-0.14215 -0.475885,-0.36464 -0.185409,-0.22867 -0.271934,-0.51914 -0.08652,-0.29048 -0.08652,-0.58714 0,-0.24103 0.06798,-0.58095 0.07416,-0.34609 0.247213,-0.69837 -0.234852,0.14833 -0.525327,0.23485 -0.284295,0.0865 -0.525328,0.15451 -0.105065,0.0309 -0.234852,0.0556 -0.129787,0.0185 -0.259573,0.0371 -0.123607,0.0185 -0.241033,0.0371 -0.111246,0.0185 -0.19159,0.0309 -0.123606,0.0247 -0.173049,0.0989 -0.04326,0.068 -0.06798,0.17923 -0.02472,0.10507 -0.07416,0.27812 -0.04944,0.17304 -0.09889,0.35845 -0.05562,0.19777 -0.117426,0.40791 -0.0618,0.21013 -0.111245,0.40172 -0.04326,0.18541 -0.08035,0.34609 -0.0309,0.15451 -0.0309,0.24104 0,0.0803 -0.06798,0.17305 -0.0618,0.0927 -0.148328,0.17305 -0.08034,0.0865 -0.166868,0.14214 -0.08034,0.0556 -0.123607,0.0556 -0.0927,0 -0.179229,-0.0618 -0.08034,-0.0618 -0.142147,-0.14214 -0.0618,-0.0804 -0.09889,-0.16069 -0.03708,-0.0865 -0.03708,-0.12979 0,-0.0556 0.04326,-0.19777 0.04944,-0.14215 0.09888,-0.29048 0.0309,-0.0927 0.08034,-0.25339 0.04944,-0.16069 0.09888,-0.35228 0.05562,-0.19777 0.105066,-0.4079 0.05562,-0.21013 0.09889,-0.39554 0.04326,-0.18541 0.06798,-0.32138 0.02472,-0.14214 0.02472,-0.20395 z m 7.447288,-1.39675 q 0,-0.61803 -0.358459,-0.96413 -0.352278,-0.35228 -1.013573,-0.35228 -0.0927,0 -0.228671,0.0742 -0.135968,0.0742 -0.296656,0.19159 -0.154508,0.11124 -0.315196,0.24721 -0.154508,0.13597 -0.296656,0.26575 -0.135967,0.12979 -0.234852,0.23485 -0.09888,0.10507 -0.135967,0.14833 -0.129787,0.15451 -0.271934,0.42644 -0.135967,0.26576 -0.253394,0.57477 -0.117426,0.30902 -0.19777,0.62422 -0.07416,0.30901 -0.07416,0.54387 0,0.14214 0.03708,0.29047 0.04326,0.14833 0.123607,0.27194 0.08652,0.11742 0.216311,0.19777 0.129787,0.0742 0.302836,0.0742 0.19159,0 0.488245,-0.11125 0.296656,-0.11124 0.624213,-0.30901 0.333737,-0.19777 0.667475,-0.46971 0.339917,-0.27193 0.605671,-0.58713 0.271934,-0.31519 0.438803,-0.66129 0.173049,-0.35228 0.173049,-0.71074 z"
     id="path6249" /></g><g
   aria-label="з"
   transform="scale(1.3773375,0.72603846)"
   id="text16794"
   style="font-size:14.5777px;line-height:1.25;font-family:'Segoe Script';-inkscape-font-specification:'Segoe Script';fill:#e0e0e0;stroke-width:0.364441"><path
     d="m 2.7927042,90.871497 q 0.07118,0 0.1138883,0.04983 0.049826,0.04983 0.078298,0.121006 0.028472,0.0783 0.03559,0.170833 0.014236,0.09253 0.014236,0.17795 0,0.163714 0.056944,0.355901 0.064062,0.192186 0.1993045,0.355901 0.1423604,0.163714 0.3630189,0.270484 0.2206586,0.113889 0.5409693,0.113889 0.4341991,0 0.8968702,-0.227777 0.4626712,-0.227776 0.8470441,-0.633503 0.3843729,-0.405727 0.6263855,-0.968051 0.2491307,-0.555205 0.2491307,-1.217181 0,-0.612149 -0.1281244,-1.03923 Q 6.5581354,87.974464 6.3517129,87.711097 6.1524084,87.440612 5.8890418,87.319606 5.6256751,87.1986 5.3623085,87.1986 q -0.099652,0 -0.2206585,0.04983 -0.1210063,0.04271 -0.2491307,0.113888 -0.1210062,0.06406 -0.2491306,0.142361 -0.1210063,0.0783 -0.2206585,0.14236 -0.1708324,0.113888 -0.3274288,0.192186 -0.1494784,0.0783 -0.398609,0.0783 -0.1921864,0 -0.3345468,-0.142361 -0.1352423,-0.149478 -0.1352423,-0.391491 0,-0.185068 0.1281243,-0.313193 0.1352423,-0.128124 0.412845,-0.242012 0.5907954,-0.242013 1.0534666,-0.491143 0.4697891,-0.256249 0.7900999,-0.548088 0.3203108,-0.298956 0.4911432,-0.654857 0.1708324,-0.355901 0.1708324,-0.811454 0,-0.177951 -0.056944,-0.348783 -0.049826,-0.177951 -0.1565964,-0.313193 -0.1067703,-0.14236 -0.2633666,-0.227776 -0.1494784,-0.09254 -0.3487829,-0.09254 -0.427081,0 -0.811454,0.263367 -0.3843729,0.263367 -0.7545098,0.64774 -0.1637144,0.170832 -0.2704847,0.24913 -0.1067702,0.07118 -0.2277765,0.07118 -0.099652,0 -0.1779505,-0.04983 -0.07118,-0.05694 -0.1210063,-0.128124 -0.042708,-0.0783 -0.07118,-0.163714 -0.021354,-0.09253 -0.021354,-0.156597 0,-0.170832 0.092534,-0.320311 0.099652,-0.156596 0.2633667,-0.291838 0.3559008,-0.298957 0.6975657,-0.491144 0.3416648,-0.192186 0.5623234,-0.28472 0.2491306,-0.09965 0.5124972,-0.192187 0.2704847,-0.09253 0.5053792,-0.09253 0.3345469,0 0.6406216,0.121006 0.3060748,0.113889 0.5338513,0.341665 0.2348946,0.220659 0.3701369,0.548088 0.1423604,0.327428 0.1423604,0.740273 0,0.597914 -0.2918387,1.188709 -0.2847207,0.590796 -0.9751684,1.146001 0.4769071,0.02135 0.832808,0.242013 0.3559009,0.220658 0.5907955,0.583677 0.2420125,0.363019 0.3559008,0.839926 0.1210063,0.469789 0.1210063,0.996523 0,0.526733 -0.1423603,1.046348 -0.1423604,0.519615 -0.405727,0.996523 -0.2562486,0.476907 -0.6192675,0.882634 -0.3559009,0.405727 -0.7901,0.704683 -0.427081,0.298957 -0.9182242,0.46979 -0.4840252,0.170832 -0.9965225,0.170832 -0.4911432,0 -0.854162,-0.163714 Q 2.8567664,93.099436 2.6147538,92.857424 2.3798592,92.615411 2.2588529,92.337808 2.1378466,92.060206 2.1378466,91.825311 q 0,-0.17795 0.064062,-0.384373 0.07118,-0.206422 0.1565964,-0.327429 0.056944,-0.0783 0.1637144,-0.163714 0.1067702,-0.0783 0.2704846,-0.0783 z"
     id="path6186" /></g><g
   aria-label="в"
   transform="scale(1.3926251,0.71806835)"
   id="text19318"
   style="font-size:15.1804px;line-height:1.25;font-family:'Segoe Script';-inkscape-font-specification:'Segoe Script';fill:#e0e0e0;stroke-width:0.379511"><path
     d="m 99.036006,83.80416 q 0,-0.08895 -0.03706,-0.177895 -0.02965,-0.09636 -0.09636,-0.170483 -0.0593,-0.08154 -0.163071,-0.133421 -0.09636,-0.05189 -0.229782,-0.05189 -0.25943,0 -0.541098,0.185308 -0.274255,0.185308 -0.555923,0.511449 -0.274255,0.318729 -0.533686,0.763467 -0.25943,0.437326 -0.481799,0.948775 -0.22237,0.511449 -0.400265,1.074785 -0.170483,0.555922 -0.274255,1.119258 0.06671,-0.04447 0.200132,-0.140834 0.133422,-0.103772 0.296492,-0.229782 0.170483,-0.133421 0.355791,-0.281667 0.19272,-0.155659 0.363203,-0.303905 0.177895,-0.148246 0.326141,-0.281667 0.148246,-0.133422 0.237194,-0.229782 0.822766,-0.889476 1.178556,-1.541759 0.355791,-0.652283 0.355791,-1.05996 z m -0.229781,7.990465 q -0.229782,0.340966 -0.555923,0.667107 -0.318729,0.318729 -0.704169,0.563335 -0.38544,0.244606 -0.822766,0.38544 -0.429914,0.140834 -0.874652,0.103772 -0.311317,-0.02224 -0.592984,-0.200132 -0.281668,-0.185307 -0.496625,-0.518861 -0.214957,-0.340966 -0.340966,-0.830178 -0.126009,-0.489212 -0.126009,-1.12667 0,-0.407677 0.04447,-0.882065 0.04447,-0.4818 0.118597,-0.971012 0.07412,-0.489212 0.16307,-0.956187 0.09636,-0.466975 0.185308,-0.859827 0.118597,-0.533686 0.311317,-1.052548 0.19272,-0.526273 0.429914,-1.008073 0.237193,-0.489212 0.511449,-0.919126 0.274255,-0.429913 0.563335,-0.778292 0.400264,-0.466975 0.911713,-0.748643 0.518861,-0.281667 1.215618,-0.281667 0.28908,0 0.526274,0.118597 0.237194,0.118597 0.407677,0.311317 0.170483,0.185307 0.25943,0.422501 0.09636,0.237194 0.09636,0.466975 0,0.318729 -0.133424,0.711581 -0.12601,0.38544 -0.370616,0.807942 -0.244606,0.422501 -0.592984,0.852415 -0.348378,0.429913 -0.793117,0.830178 0.103773,0.0074 0.237194,0.03706 0.140834,0.02224 0.28908,0.08895 0.155658,0.06671 0.311317,0.177895 0.163071,0.111185 0.311317,0.281668 0.06671,0.08153 0.148246,0.222369 0.08154,0.133421 0.148246,0.333554 0.07412,0.19272 0.118597,0.444738 0.05189,0.252018 0.05189,0.555923 0,0.592984 -0.214957,1.282328 -0.207544,0.681933 -0.74123,1.467637 z M 98.59868,89.066897 q 0,-0.407677 -0.118597,-0.681932 -0.118597,-0.281668 -0.281667,-0.444739 -0.163071,-0.170483 -0.333554,-0.237193 -0.170483,-0.07412 -0.274255,-0.07412 -0.09636,0 -0.303905,0.148246 -0.207544,0.148246 -0.444738,0.326141 -0.177895,0.155658 -0.355791,0.28908 -0.177895,0.133421 -0.333553,0.259431 -0.148247,0.126009 -0.274256,0.252018 -0.126009,0.126009 -0.207544,0.266843 -0.207545,0.378027 -0.244606,0.859827 -0.03706,0.4818 -0.03706,0.985837 0,0.333554 0.06671,0.600396 0.07412,0.259431 0.177895,0.444739 0.111185,0.185307 0.237194,0.28908 0.126009,0.09636 0.229781,0.09636 0.252019,0 0.570748,-0.103773 0.318729,-0.103772 0.652283,-0.407676 0.28908,-0.266843 0.518861,-0.600397 0.237194,-0.333554 0.400264,-0.704169 0.170483,-0.370615 0.259431,-0.77088 0.09636,-0.400264 0.09636,-0.793116 z"
     id="path6228" /></g><text
   xml:space="preserve"
   style="font-size:26.5344px;line-height:1.25;font-family:'Segoe Script';-inkscape-font-specification:'Segoe Script';fill:#16272a;fill-opacity:0.799714;stroke-width:0.663359"
   x="14.503366"
   y="84.003174"
   id="text17884"
   transform="scale(1.3128994,0.76167297)"><tspan
     sodipodi:role="line"
     id="tspan17882"
     x="14.503366"
     y="84.003174"
     style="stroke-width:0.663359">_</tspan></text><text
   xml:space="preserve"
   style="font-size:27.0277px;line-height:1.25;font-family:'Segoe Script';-inkscape-font-specification:'Segoe Script';fill:#16272a;fill-opacity:0.799714;stroke-width:0.675691"
   x="83.038574"
   y="84.882538"
   id="text17884-6"
   transform="scale(1.3373062,0.74777189)"><tspan
     sodipodi:role="line"
     id="tspan17882-2"
     x="83.038574"
     y="84.882538"
     style="stroke-width:0.675691">_</tspan></text><text
   xml:space="preserve"
   style="font-size:23.7433px;line-height:1.25;font-family:'Segoe Script';-inkscape-font-specification:'Segoe Script';fill:#16272a;fill-opacity:0.799714;stroke-width:0.593581"
   x="-94.104141"
   y="91.759155"
   id="text17884-0"
   transform="matrix(-0.01836565,-1.3623732,0.73328264,-0.05419994,0,0)"><tspan
     sodipodi:role="line"
     id="tspan17882-4"
     x="-94.104141"
     y="91.759155"
     style="stroke-width:0.593581">_</tspan></text><text
   xml:space="preserve"
   style="font-size:26.7951px;line-height:1.25;font-family:'Segoe Script';-inkscape-font-specification:'Segoe Script';fill:#16272a;fill-opacity:0.799714;stroke-width:0.669874"
   x="-22.930582"
   y="94.775383"
   id="text17884-9"
   transform="matrix(5.133754e-4,-1.3316157,0.75096685,0.00144598,0,0)"><tspan
     sodipodi:role="line"
     id="tspan17882-7"
     x="-22.930582"
     y="94.775383"
     style="stroke-width:0.669874">_</tspan></text></svg>
