<?xml version="1.0" encoding="UTF-8" standalone="no"?>
<!-- Generator: Adobe Illustrator 22.0.1, SVG Export Plug-In . SVG Version: 6.00 Build 0)  -->

<svg
   version="1.1"
   id="Layer_1"
   x="0px"
   y="0px"
   viewBox="0 0 140 140"
   xml:space="preserve"
   sodipodi:docname="westWind.svg"
   width="140"
   height="140"
   inkscape:version="1.1.1 (3bf5ae0d25, 2021-09-20)"
   xmlns:inkscape="http://www.inkscape.org/namespaces/inkscape"
   xmlns:sodipodi="http://sodipodi.sourceforge.net/DTD/sodipodi-0.dtd"
   xmlns="http://www.w3.org/2000/svg"
   xmlns:svg="http://www.w3.org/2000/svg"><defs
   id="defs7" /><sodipodi:namedview
   id="namedview5"
   pagecolor="#ffffff"
   bordercolor="#666666"
   borderopacity="1.0"
   inkscape:pageshadow="2"
   inkscape:pageopacity="0.0"
   inkscape:pagecheckerboard="0"
   showgrid="false"
   inkscape:zoom="7.1833332"
   inkscape:cx="64.454758"
   inkscape:cy="81.925756"
   inkscape:window-width="2400"
   inkscape:window-height="1321"
   inkscape:window-x="2391"
   inkscape:window-y="-9"
   inkscape:window-maximized="1"
   inkscape:current-layer="Layer_1"
   width="140px" />
<path
   d="M 69.748402,122.24161 C 59.78288,121.67109 50.691174,118.67866 42.519351,113.31531 34.347528,107.95194 28.033895,100.95 23.578446,92.309466 19.122993,83.668937 17.20042,74.446343 17.761829,64.638863 18.182194,57.295352 20.051503,50.325587 23.318087,43.775109 26.584701,37.224657 30.870704,31.70194 36.035075,27.102011 41.199496,22.502101 47.28281,18.97266 54.285022,16.513688 c 7.002263,-2.458949 14.168538,-3.502856 21.691541,-3.072213 7.425283,0.425044 14.474486,2.282712 21.101551,5.521868 6.627036,3.239137 12.265096,7.488023 16.873606,12.598934 4.60849,5.110882 8.18463,11.132144 10.68241,18.012588 2.49776,6.880462 3.56224,13.969677 3.1391,21.361511 -0.4231,7.391851 -2.29519,14.409914 -5.56179,20.960394 -3.26662,6.550461 -7.55537,12.12147 -12.71975,16.72143 -5.16438,4.59994 -11.244921,8.08108 -18.152241,10.59391 -6.907324,2.51286 -14.116926,3.45734 -21.591047,3.0295 z m 0.685863,-11.98156 c 11.577578,0.66275 21.878633,-2.91608 30.905935,-10.784794 8.92957,-7.874311 13.70044,-17.586239 14.36695,-29.229583 0.43696,-7.633404 -1.06166,-14.844421 -4.55025,-21.53924 -3.4886,-6.69482 -8.36806,-12.208986 -14.744406,-16.403207 -6.376328,-4.194228 -13.397883,-6.535013 -21.116286,-6.976864 -7.718374,-0.441808 -15.010024,1.079641 -21.823344,4.518802 -6.813307,3.43918 -12.336241,8.309428 -16.568796,14.610724 -4.232546,6.301308 -6.541503,13.24588 -6.978454,20.87929 -0.436969,7.633402 1.061672,14.844419 4.550258,21.539247 3.488588,6.694802 8.416921,12.211803 14.790501,16.454305 6.373579,4.24253 13.449505,6.48949 21.167892,6.93132 z M 100.36421,88.271076 37.358254,66.487724 c -0.485731,-0.07627 -0.716149,-0.33183 -0.691219,-0.766677 0.02499,-0.434803 0.282978,-0.662397 0.774196,-0.682767 L 102.51862,50.635499 c 0.54843,-0.162527 0.93647,-0.09182 1.21573,0.166516 0.27922,0.258395 0.25715,0.644844 -0.0669,1.159487 l -7.310249,16.400949 c -0.223076,0.471946 -0.250729,0.955074 -0.0802,1.401074 l 5.382624,17.272966 c 0.26544,0.499894 0.24606,0.838083 -0.0576,1.014587 -0.3042,0.176432 -0.75488,0.344555 -1.23785,0.219982 z"
   id="path2"
   style="fill:#2c4f54;fill-opacity:0.5;stroke:#2e3332;stroke-width:0.3;stroke-miterlimit:4;stroke-dasharray:none;stroke-opacity:0.9" />
<path
   style="fill:#2c4f53;fill-opacity:0.499285;stroke:#e4e7e7;stroke-width:0.3;stroke-miterlimit:4;stroke-dasharray:none;stroke-opacity:0.9"
   d="m 113.58576,74.464124 c -0.32621,2.038921 -0.84076,4.270946 -1.42568,6.184441 -3.28913,10.759594 -12.262722,20.466015 -23.177312,25.070075 -5.875128,2.47827 -10.987859,3.322 -17.723169,2.92477 -6.913229,-0.4075 -12.104709,-1.91536 -17.809115,-5.17179 -3.844788,-2.19487 -6.863165,-4.602239 -10.007035,-7.981396 -6.239226,-6.706126 -9.872478,-14.357322 -11.064325,-23.299843 -0.248206,-1.862307 -0.257585,-2.630335 -0.08128,-6.65176 0.214086,-4.88125 0.41537,-6.250288 1.432953,-9.745238 1.536975,-5.278414 4.740141,-11.038695 8.55958,-15.392674 1.557931,-1.775981 5.242591,-5.020664 7.248233,-6.382688 4.853953,-3.296411 10.217603,-5.551962 15.483162,-6.511012 3.882931,-0.707266 5.254381,-0.777757 9.877837,-0.507803 3.261529,0.190535 4.639426,0.337083 6.045703,0.643649 8.54053,1.861527 16.305058,6.368947 22.187588,12.880253 6.02462,6.668617 9.76762,14.96427 10.68002,23.670263 0.21033,2.006914 0.0684,8.423185 -0.22712,10.270773 z m -15.288171,3.678168 c -1.500208,-4.670922 -2.761785,-8.663473 -2.803504,-8.872322 -0.05154,-0.257749 1.093735,-3.106854 3.56619,-8.871852 2.096505,-4.888467 3.608605,-8.616794 3.563275,-8.785919 -0.094,-0.350503 -0.70094,-0.568403 -1.3175,-0.472962 -0.24478,0.03791 -14.43911,3.204009 -31.542993,7.0358 -29.971899,6.714612 -31.104235,6.981983 -31.271071,7.383864 -0.128876,0.310615 -0.115799,0.479368 0.05193,0.661522 0.27748,0.301238 60.632075,21.364808 61.335701,21.40581 0.635723,0.03706 1.302063,-0.359558 1.212363,-0.721649 -0.0369,-0.148323 -1.294221,-4.091379 -2.794427,-8.7623 z"
   id="path861" /><rect
   style="fill:#c7485e;fill-opacity:1;stroke:#3c4343;stroke-width:1.28812;stroke-opacity:0.9"
   id="rect2803"
   width="14.13"
   height="0.1659108"
   x="-73.585686"
   y="62.643509"
   transform="matrix(0.00372718,-0.99999305,0.99992168,0.01251548,0,0)"
   inkscape:transform-center-x="-8.2434597"
   inkscape:transform-center-y="7.7094884" /><path
   style="fill:#a06f78;fill-opacity:1;stroke:#e27364;stroke-width:0.103309;stroke-opacity:0.9"
   d="m 60.491406,73.668745 c -0.248861,-0.08306 -5.63052,-1.809864 -11.959394,-3.837241 -6.328872,-2.027372 -11.653599,-3.768069 -11.832687,-3.868217 -0.281783,-0.157626 23.511468,-5.245828 24.322337,-5.201386 0.221497,0.01204 0.25132,1.755097 0.112029,6.537235 -0.177612,6.097624 -0.219395,6.510898 -0.64222,6.369604 z"
   id="path3397"
   inkscape:transform-center-x="4.562947"
   inkscape:transform-center-y="7.1171234" /><g
   aria-label="c"
   transform="scale(1.0219262,0.97854425)"
   id="text9344"
   style="font-size:15.7955px;line-height:1.25;font-family:'Segoe Script';-inkscape-font-specification:'Segoe Script';fill:#e0e0e0;stroke-width:0.394888"><path
     d="m 76.15108,6.7893624 q 0,0.2776553 -0.200528,0.501322 -0.208242,0.2313794 -0.362495,0.393345 -0.154253,0.1542529 -0.29308,0.2853679 -0.138828,0.131115 -0.293081,0.2545174 -0.154253,0.1156897 -0.362494,0.2699426 -0.586161,0.4241955 -1.118334,0.7172761 -0.532173,0.2853679 -1.033495,0.4704714 -0.501322,0.1773909 -0.994931,0.2545174 -0.485897,0.077127 -0.979506,0.077127 -0.516747,0 -0.925518,-0.1928165 Q 69.178848,9.6199037 68.89348,9.2805472 68.615825,8.9411908 68.469285,8.4938573 68.322744,8.0388111 68.322744,7.5374891 v -0.038563 q 0,-0.5090347 0.131115,-1.0797705 0.131115,-0.5784485 0.362495,-1.156897 0.239092,-0.5784484 0.570735,-1.133759 0.331644,-0.5630232 0.732702,-1.0489199 0.161965,-0.1928161 0.385632,-0.4087702 0.23138,-0.2236668 0.485897,-0.4087703 0.26223,-0.1851035 0.539885,-0.3007932 0.285368,-0.1234024 0.555311,-0.1234024 0.185103,0 0.354781,0.1156897 0.169679,0.1079771 0.316219,0.285368 0.14654,0.1773908 0.269943,0.4010576 0.123402,0.2159541 0.208241,0.4473335 0.08484,0.2236667 0.131115,0.4319082 0.04628,0.2082414 0.04628,0.3547817 0,0.2236667 -0.138828,0.5784485 -0.138827,0.3547817 -0.331644,0.3547817 -0.277655,0 -0.462758,-0.3779197 Q 72.410447,4.2827524 72.356458,4.0899362 72.310182,3.89712 72.240769,3.7120165 72.179067,3.526913 72.07109,3.3726601 71.963113,3.2106945 71.770297,3.133568 q -0.192816,0.046276 -0.393345,0.2005288 -0.192816,0.154253 -0.385632,0.3779197 -0.185104,0.2236668 -0.370207,0.5090347 -0.177391,0.2776553 -0.339357,0.5784485 -0.154252,0.2776552 -0.300793,0.6401496 -0.14654,0.3547817 -0.26223,0.7404141 -0.115689,0.3779196 -0.185103,0.7558393 -0.06941,0.3779197 -0.06941,0.6941382 0,0.2236667 0.107977,0.4550461 0.107977,0.2236668 0.277655,0.4087703 0.177391,0.1851035 0.393345,0.3007932 0.223667,0.1156897 0.455046,0.1156897 1.141472,0 2.267518,-0.4704714 1.126047,-0.4704715 2.144116,-1.3651385 0.563023,-0.4936093 0.93323,-0.4936093 0.107977,0 0.107977,0.2082414 z"
     id="path3018" /></g><g
   aria-label="ю"
   transform="scale(0.88842139,1.125592)"
   id="text11307"
   style="font-size:12.6573px;line-height:1.25;font-family:'Segoe Script';-inkscape-font-specification:'Segoe Script';fill:#e0e0e0;stroke-width:0.31643"><path
     d="m 76.442223,119.50054 q 0,-0.0247 -0.0309,-0.0433 -0.02472,-0.0247 -0.0618,-0.0618 -0.03708,-0.0371 -0.06798,-0.0989 -0.02472,-0.0618 -0.02472,-0.17305 0,-0.0989 0.05562,-0.17923 0.05562,-0.0803 0.117426,-0.14832 0.06798,-0.068 0.123606,-0.12361 0.0618,-0.0556 0.07416,-0.10507 0.105066,-0.59331 0.17923,-1.11863 0.07416,-0.52533 0.09271,-0.87761 0.0062,-0.10506 0,-0.21631 0,-0.11125 -0.0062,-0.22249 -0.0062,-0.0804 -0.01236,-0.15451 0,-0.0742 0,-0.14215 0,-0.0742 0.05562,-0.16687 0.05562,-0.0927 0.135968,-0.17305 0.08652,-0.0803 0.185409,-0.12978 0.105066,-0.0556 0.203951,-0.0556 0.08652,0 0.173049,0.0494 0.08652,0.0433 0.154508,0.12978 0.06798,0.0804 0.111246,0.20396 0.04326,0.11742 0.04326,0.26575 0,0.11124 -0.01854,0.27193 -0.01854,0.16069 -0.04944,0.35228 -0.0309,0.19159 -0.07416,0.40172 -0.03708,0.21013 -0.07416,0.42026 -0.04944,0.29048 -0.09888,0.55623 -0.04326,0.26576 -0.06798,0.45735 0.02472,0.0556 0.04326,0.0989 0.02472,0.0371 0.0618,0.0618 0.03708,0.0247 0.0927,0.0371 0.0618,0.0124 0.160689,0.0124 0.265754,0 0.562409,-0.0556 0.296655,-0.0556 0.562409,-0.14215 0.265754,-0.0865 0.475885,-0.17923 0.216311,-0.0989 0.321377,-0.18541 0.06798,-0.0556 0.148328,-0.14833 0.08652,-0.0927 0.173049,-0.19777 0.08652,-0.11125 0.166868,-0.21631 0.08652,-0.11125 0.148328,-0.19159 0.210131,-0.26575 0.475885,-0.51915 0.265754,-0.25339 0.587131,-0.44498 0.321376,-0.19159 0.692196,-0.30902 0.376999,-0.11742 0.815802,-0.11742 0.333738,0 0.655114,0.16687 0.321377,0.16068 0.56859,0.4388 0.253393,0.27811 0.401721,0.64275 0.154508,0.35846 0.154508,0.754 0,0.39554 -0.08034,0.7231 -0.07416,0.32138 -0.241033,0.68601 -0.0927,0.19159 -0.321377,0.45735 -0.228671,0.26575 -0.550048,0.55005 -0.315197,0.28429 -0.692196,0.56241 -0.377,0.27811 -0.76636,0.5006 -0.389361,0.22249 -0.76636,0.35846 -0.37082,0.13597 -0.673655,0.13597 -0.407902,0 -0.698377,-0.13597 -0.290475,-0.14215 -0.475885,-0.36464 -0.185409,-0.22867 -0.271934,-0.51914 -0.08652,-0.29048 -0.08652,-0.58714 0,-0.24103 0.06798,-0.58095 0.07416,-0.34609 0.247213,-0.69837 -0.234852,0.14833 -0.525327,0.23485 -0.284295,0.0865 -0.525328,0.15451 -0.105065,0.0309 -0.234852,0.0556 -0.129787,0.0185 -0.259573,0.0371 -0.123607,0.0185 -0.241033,0.0371 -0.111246,0.0185 -0.19159,0.0309 -0.123606,0.0247 -0.173049,0.0989 -0.04326,0.068 -0.06798,0.17923 -0.02472,0.10507 -0.07416,0.27812 -0.04944,0.17304 -0.09889,0.35845 -0.05562,0.19777 -0.117426,0.40791 -0.0618,0.21013 -0.111245,0.40172 -0.04326,0.18541 -0.08035,0.34609 -0.0309,0.15451 -0.0309,0.24104 0,0.0803 -0.06798,0.17305 -0.0618,0.0927 -0.148328,0.17305 -0.08034,0.0865 -0.166868,0.14214 -0.08034,0.0556 -0.123607,0.0556 -0.0927,0 -0.179229,-0.0618 -0.08034,-0.0618 -0.142147,-0.14214 -0.0618,-0.0804 -0.09889,-0.16069 -0.03708,-0.0865 -0.03708,-0.12979 0,-0.0556 0.04326,-0.19777 0.04944,-0.14215 0.09888,-0.29048 0.0309,-0.0927 0.08034,-0.25339 0.04944,-0.16069 0.09888,-0.35228 0.05562,-0.19777 0.105066,-0.4079 0.05562,-0.21013 0.09889,-0.39554 0.04326,-0.18541 0.06798,-0.32138 0.02472,-0.14214 0.02472,-0.20395 z m 7.447288,-1.39675 q 0,-0.61803 -0.358459,-0.96413 -0.352278,-0.35228 -1.013573,-0.35228 -0.0927,0 -0.228671,0.0742 -0.135968,0.0742 -0.296656,0.19159 -0.154508,0.11124 -0.315196,0.24721 -0.154508,0.13597 -0.296656,0.26575 -0.135967,0.12979 -0.234852,0.23485 -0.09888,0.10507 -0.135967,0.14833 -0.129787,0.15451 -0.271934,0.42644 -0.135967,0.26576 -0.253394,0.57477 -0.117426,0.30902 -0.19777,0.62422 -0.07416,0.30901 -0.07416,0.54387 0,0.14214 0.03708,0.29047 0.04326,0.14833 0.123607,0.27194 0.08652,0.11742 0.216311,0.19777 0.129787,0.0742 0.302836,0.0742 0.19159,0 0.488245,-0.11125 0.296656,-0.11124 0.624213,-0.30901 0.333737,-0.19777 0.667475,-0.46971 0.339917,-0.27193 0.605671,-0.58713 0.271934,-0.31519 0.438803,-0.66129 0.173049,-0.35228 0.173049,-0.71074 z"
     id="path3060" /></g><g
   aria-label="з"
   transform="scale(1.3773375,0.72603846)"
   id="text16794"
   style="font-size:14.5777px;line-height:1.25;font-family:'Segoe Script';-inkscape-font-specification:'Segoe Script';fill:#e0e0e0;stroke-width:0.364441"><path
     d="m 2.7927042,90.871497 q 0.07118,0 0.1138883,0.04983 0.049826,0.04983 0.078298,0.121006 0.028472,0.0783 0.03559,0.170833 0.014236,0.09253 0.014236,0.17795 0,0.163714 0.056944,0.355901 0.064062,0.192186 0.1993045,0.355901 0.1423604,0.163714 0.3630189,0.270484 0.2206586,0.113889 0.5409693,0.113889 0.4341991,0 0.8968702,-0.227777 0.4626712,-0.227776 0.8470441,-0.633503 0.3843729,-0.405727 0.6263855,-0.968051 0.2491307,-0.555205 0.2491307,-1.217181 0,-0.612149 -0.1281244,-1.03923 Q 6.5581354,87.974464 6.3517129,87.711097 6.1524084,87.440612 5.8890418,87.319606 5.6256751,87.1986 5.3623085,87.1986 q -0.099652,0 -0.2206585,0.04983 -0.1210063,0.04271 -0.2491307,0.113888 -0.1210062,0.06406 -0.2491306,0.142361 -0.1210063,0.0783 -0.2206585,0.14236 -0.1708324,0.113888 -0.3274288,0.192186 -0.1494784,0.0783 -0.398609,0.0783 -0.1921864,0 -0.3345468,-0.142361 -0.1352423,-0.149478 -0.1352423,-0.391491 0,-0.185068 0.1281243,-0.313193 0.1352423,-0.128124 0.412845,-0.242012 0.5907954,-0.242013 1.0534666,-0.491143 0.4697891,-0.256249 0.7900999,-0.548088 0.3203108,-0.298956 0.4911432,-0.654857 0.1708324,-0.355901 0.1708324,-0.811454 0,-0.177951 -0.056944,-0.348783 -0.049826,-0.177951 -0.1565964,-0.313193 -0.1067703,-0.14236 -0.2633666,-0.227776 -0.1494784,-0.09254 -0.3487829,-0.09254 -0.427081,0 -0.811454,0.263367 -0.3843729,0.263367 -0.7545098,0.64774 -0.1637144,0.170832 -0.2704847,0.24913 -0.1067702,0.07118 -0.2277765,0.07118 -0.099652,0 -0.1779505,-0.04983 -0.07118,-0.05694 -0.1210063,-0.128124 -0.042708,-0.0783 -0.07118,-0.163714 -0.021354,-0.09253 -0.021354,-0.156597 0,-0.170832 0.092534,-0.320311 0.099652,-0.156596 0.2633667,-0.291838 0.3559008,-0.298957 0.6975657,-0.491144 0.3416648,-0.192186 0.5623234,-0.28472 0.2491306,-0.09965 0.5124972,-0.192187 0.2704847,-0.09253 0.5053792,-0.09253 0.3345469,0 0.6406216,0.121006 0.3060748,0.113889 0.5338513,0.341665 0.2348946,0.220659 0.3701369,0.548088 0.1423604,0.327428 0.1423604,0.740273 0,0.597914 -0.2918387,1.188709 -0.2847207,0.590796 -0.9751684,1.146001 0.4769071,0.02135 0.832808,0.242013 0.3559009,0.220658 0.5907955,0.583677 0.2420125,0.363019 0.3559008,0.839926 0.1210063,0.469789 0.1210063,0.996523 0,0.526733 -0.1423603,1.046348 -0.1423604,0.519615 -0.405727,0.996523 -0.2562486,0.476907 -0.6192675,0.882634 -0.3559009,0.405727 -0.7901,0.704683 -0.427081,0.298957 -0.9182242,0.46979 -0.4840252,0.170832 -0.9965225,0.170832 -0.4911432,0 -0.854162,-0.163714 Q 2.8567664,93.099436 2.6147538,92.857424 2.3798592,92.615411 2.2588529,92.337808 2.1378466,92.060206 2.1378466,91.825311 q 0,-0.17795 0.064062,-0.384373 0.07118,-0.206422 0.1565964,-0.327429 0.056944,-0.0783 0.1637144,-0.163714 0.1067702,-0.0783 0.2704846,-0.0783 z"
     id="path2997" /></g><g
   aria-label="в"
   transform="scale(1.3926251,0.71806835)"
   id="text19318"
   style="font-size:15.1804px;line-height:1.25;font-family:'Segoe Script';-inkscape-font-specification:'Segoe Script';fill:#e0e0e0;stroke-width:0.379511"><path
     d="m 99.036006,83.80416 q 0,-0.08895 -0.03706,-0.177895 -0.02965,-0.09636 -0.09636,-0.170483 -0.0593,-0.08154 -0.163071,-0.133421 -0.09636,-0.05189 -0.229782,-0.05189 -0.25943,0 -0.541098,0.185308 -0.274255,0.185308 -0.555923,0.511449 -0.274255,0.318729 -0.533686,0.763467 -0.25943,0.437326 -0.481799,0.948775 -0.22237,0.511449 -0.400265,1.074785 -0.170483,0.555922 -0.274255,1.119258 0.06671,-0.04447 0.200132,-0.140834 0.133422,-0.103772 0.296492,-0.229782 0.170483,-0.133421 0.355791,-0.281667 0.19272,-0.155659 0.363203,-0.303905 0.177895,-0.148246 0.326141,-0.281667 0.148246,-0.133422 0.237194,-0.229782 0.822766,-0.889476 1.178556,-1.541759 0.355791,-0.652283 0.355791,-1.05996 z m -0.229781,7.990465 q -0.229782,0.340966 -0.555923,0.667107 -0.318729,0.318729 -0.704169,0.563335 -0.38544,0.244606 -0.822766,0.38544 -0.429914,0.140834 -0.874652,0.103772 -0.311317,-0.02224 -0.592984,-0.200132 -0.281668,-0.185307 -0.496625,-0.518861 -0.214957,-0.340966 -0.340966,-0.830178 -0.126009,-0.489212 -0.126009,-1.12667 0,-0.407677 0.04447,-0.882065 0.04447,-0.4818 0.118597,-0.971012 0.07412,-0.489212 0.16307,-0.956187 0.09636,-0.466975 0.185308,-0.859827 0.118597,-0.533686 0.311317,-1.052548 0.19272,-0.526273 0.429914,-1.008073 0.237193,-0.489212 0.511449,-0.919126 0.274255,-0.429913 0.563335,-0.778292 0.400264,-0.466975 0.911713,-0.748643 0.518861,-0.281667 1.215618,-0.281667 0.28908,0 0.526274,0.118597 0.237194,0.118597 0.407677,0.311317 0.170483,0.185307 0.25943,0.422501 0.09636,0.237194 0.09636,0.466975 0,0.318729 -0.133424,0.711581 -0.12601,0.38544 -0.370616,0.807942 -0.244606,0.422501 -0.592984,0.852415 -0.348378,0.429913 -0.793117,0.830178 0.103773,0.0074 0.237194,0.03706 0.140834,0.02224 0.28908,0.08895 0.155658,0.06671 0.311317,0.177895 0.163071,0.111185 0.311317,0.281668 0.06671,0.08153 0.148246,0.222369 0.08154,0.133421 0.148246,0.333554 0.07412,0.19272 0.118597,0.444738 0.05189,0.252018 0.05189,0.555923 0,0.592984 -0.214957,1.282328 -0.207544,0.681933 -0.74123,1.467637 z M 98.59868,89.066897 q 0,-0.407677 -0.118597,-0.681932 -0.118597,-0.281668 -0.281667,-0.444739 -0.163071,-0.170483 -0.333554,-0.237193 -0.170483,-0.07412 -0.274255,-0.07412 -0.09636,0 -0.303905,0.148246 -0.207544,0.148246 -0.444738,0.326141 -0.177895,0.155658 -0.355791,0.28908 -0.177895,0.133421 -0.333553,0.259431 -0.148247,0.126009 -0.274256,0.252018 -0.126009,0.126009 -0.207544,0.266843 -0.207545,0.378027 -0.244606,0.859827 -0.03706,0.4818 -0.03706,0.985837 0,0.333554 0.06671,0.600396 0.07412,0.259431 0.177895,0.444739 0.111185,0.185307 0.237194,0.28908 0.126009,0.09636 0.229781,0.09636 0.252019,0 0.570748,-0.103773 0.318729,-0.103772 0.652283,-0.407676 0.28908,-0.266843 0.518861,-0.600397 0.237194,-0.333554 0.400264,-0.704169 0.170483,-0.370615 0.259431,-0.77088 0.09636,-0.400264 0.09636,-0.793116 z"
     id="path3039" /></g><text
   xml:space="preserve"
   style="font-size:26.5344px;line-height:1.25;font-family:'Segoe Script';-inkscape-font-specification:'Segoe Script';fill:#16272a;fill-opacity:0.799714;stroke-width:0.663359"
   x="14.053504"
   y="84.003174"
   id="text17884"
   transform="scale(1.3128994,0.76167296)"><tspan
     sodipodi:role="line"
     id="tspan17882"
     x="14.053504"
     y="84.003174"
     style="stroke-width:0.663359">_</tspan></text><text
   xml:space="preserve"
   style="font-size:27.0277px;line-height:1.25;font-family:'Segoe Script';-inkscape-font-specification:'Segoe Script';fill:#16272a;fill-opacity:0.799714;stroke-width:0.675691"
   x="83.404449"
   y="85.068703"
   id="text17884-6"
   transform="scale(1.3373062,0.74777189)"><tspan
     sodipodi:role="line"
     id="tspan17882-2"
     x="83.404449"
     y="85.068703"
     style="stroke-width:0.675691">_</tspan></text><text
   xml:space="preserve"
   style="font-size:23.7433px;line-height:1.25;font-family:'Segoe Script';-inkscape-font-specification:'Segoe Script';fill:#16272a;fill-opacity:0.799714;stroke-width:0.593581"
   x="-92.977257"
   y="94.255386"
   id="text17884-0"
   transform="matrix(-0.01836565,-1.3623732,0.73328263,-0.05419994,0,0)"><tspan
     sodipodi:role="line"
     id="tspan17882-4"
     x="-92.977257"
     y="94.255386"
     style="stroke-width:0.593581">_</tspan></text><text
   xml:space="preserve"
   style="font-size:26.7951px;line-height:1.25;font-family:'Segoe Script';-inkscape-font-specification:'Segoe Script';fill:#16272a;fill-opacity:0.799714;stroke-width:0.669874"
   x="-22.11743"
   y="94.774826"
   id="text17884-9"
   transform="matrix(5.133754e-4,-1.3316157,0.75096685,0.00144598,0,0)"><tspan
     sodipodi:role="line"
     id="tspan17882-7"
     x="-22.11743"
     y="94.774826"
     style="stroke-width:0.669874">_</tspan></text></svg>
