<?xml version="1.0" encoding="UTF-8" standalone="no"?>
<!-- Generator: Adobe Illustrator 22.0.1, SVG Export Plug-In . SVG Version: 6.00 Build 0)  -->

<svg
   version="1.1"
   id="Layer_1"
   x="0px"
   y="0px"
   viewBox="0 0 140 140"
   xml:space="preserve"
   sodipodi:docname="westWind.svg"
   width="140"
   height="140"
   inkscape:version="1.1.1 (3bf5ae0d25, 2021-09-20)"
   xmlns:inkscape="http://www.inkscape.org/namespaces/inkscape"
   xmlns:sodipodi="http://sodipodi.sourceforge.net/DTD/sodipodi-0.dtd"
   xmlns="http://www.w3.org/2000/svg"
   xmlns:svg="http://www.w3.org/2000/svg"><defs
   id="defs7" /><sodipodi:namedview
   id="namedview5"
   pagecolor="#ffffff"
   bordercolor="#666666"
   borderopacity="1.0"
   inkscape:pageshadow="2"
   inkscape:pageopacity="0.0"
   inkscape:pagecheckerboard="0"
   showgrid="false"
   inkscape:zoom="7.1833332"
   inkscape:cx="64.315547"
   inkscape:cy="81.925756"
   inkscape:window-width="2400"
   inkscape:window-height="1321"
   inkscape:window-x="2391"
   inkscape:window-y="-9"
   inkscape:window-maximized="1"
   inkscape:current-layer="Layer_1"
   width="140px" />
<path
   d="M 69.748402,122.24161 C 59.78288,121.67109 50.691174,118.67866 42.519351,113.31531 34.347528,107.95194 28.033895,100.95 23.578446,92.309466 19.122993,83.668937 17.20042,74.446343 17.761829,64.638863 18.182194,57.295352 20.051503,50.325587 23.318087,43.775109 26.584701,37.224657 30.870704,31.70194 36.035075,27.102011 41.199496,22.502101 47.28281,18.97266 54.285022,16.513688 c 7.002263,-2.458949 14.168538,-3.502856 21.691541,-3.072213 7.425283,0.425044 14.474486,2.282712 21.101551,5.521868 6.627036,3.239137 12.265096,7.488023 16.873606,12.598934 4.60849,5.110882 8.18463,11.132144 10.68241,18.012588 2.49776,6.880462 3.56224,13.969677 3.1391,21.361511 -0.4231,7.391851 -2.29519,14.409914 -5.56179,20.960394 -3.26662,6.550461 -7.55537,12.12147 -12.71975,16.72143 -5.16438,4.59994 -11.244921,8.08108 -18.152241,10.59391 -6.907324,2.51286 -14.116926,3.45734 -21.591047,3.0295 z m 0.685863,-11.98156 c 11.577578,0.66275 21.878633,-2.91608 30.905935,-10.784794 8.92957,-7.874311 13.70044,-17.586239 14.36695,-29.229583 0.43696,-7.633404 -1.06166,-14.844421 -4.55025,-21.53924 -3.4886,-6.69482 -8.36806,-12.208986 -14.744406,-16.403207 -6.376328,-4.194228 -13.397883,-6.535013 -21.116286,-6.976864 -7.718374,-0.441808 -15.010024,1.079641 -21.823344,4.518802 -6.813307,3.43918 -12.336241,8.309428 -16.568796,14.610724 -4.232546,6.301308 -6.541503,13.24588 -6.978454,20.87929 -0.436969,7.633402 1.061672,14.844419 4.550258,21.539247 3.488588,6.694802 8.416921,12.211803 14.790501,16.454305 6.373579,4.24253 13.449505,6.48949 21.167892,6.93132 z M 100.36421,88.271076 37.358254,66.487724 c -0.485731,-0.07627 -0.716149,-0.33183 -0.691219,-0.766677 0.02499,-0.434803 0.282978,-0.662397 0.774196,-0.682767 L 102.51862,50.635499 c 0.54843,-0.162527 0.93647,-0.09182 1.21573,0.166516 0.27922,0.258395 0.25715,0.644844 -0.0669,1.159487 l -7.310249,16.400949 c -0.223076,0.471946 -0.250729,0.955074 -0.0802,1.401074 l 5.382624,17.272966 c 0.26544,0.499894 0.24606,0.838083 -0.0576,1.014587 -0.3042,0.176432 -0.75488,0.344555 -1.23785,0.219982 z"
   id="path2"
   style="fill:#2c4f54;fill-opacity:0.5;stroke:#2e3332;stroke-width:0.3;stroke-miterlimit:4;stroke-dasharray:none;stroke-opacity:0.9" />
<path
   style="fill:#2c4f53;fill-opacity:0.499285;stroke:#e4e7e7;stroke-width:0.3;stroke-miterlimit:4;stroke-dasharray:none;stroke-opacity:0.9"
   d="m 113.58576,74.464124 c -0.32621,2.038921 -0.84076,4.270946 -1.42568,6.184441 -3.28913,10.759594 -12.262722,20.466015 -23.177312,25.070075 -5.875128,2.47827 -10.987859,3.322 -17.723169,2.92477 -6.913229,-0.4075 -12.104709,-1.91536 -17.809115,-5.17179 -3.844788,-2.19487 -6.863165,-4.602239 -10.007035,-7.981396 -6.239226,-6.706126 -9.872478,-14.357322 -11.064325,-23.299843 -0.248206,-1.862307 -0.257585,-2.630335 -0.08128,-6.65176 0.214086,-4.88125 0.41537,-6.250288 1.432953,-9.745238 1.536975,-5.278414 4.740141,-11.038695 8.55958,-15.392674 1.557931,-1.775981 5.242591,-5.020664 7.248233,-6.382688 4.853953,-3.296411 10.217603,-5.551962 15.483162,-6.511012 3.882931,-0.707266 5.254381,-0.777757 9.877837,-0.507803 3.261529,0.190535 4.639426,0.337083 6.045703,0.643649 8.54053,1.861527 16.305058,6.368947 22.187588,12.880253 6.02462,6.668617 9.76762,14.96427 10.68002,23.670263 0.21033,2.006914 0.0684,8.423185 -0.22712,10.270773 z m -15.288171,3.678168 c -1.500208,-4.670922 -2.761785,-8.663473 -2.803504,-8.872322 -0.05154,-0.257749 1.093735,-3.106854 3.56619,-8.871852 2.096505,-4.888467 3.608605,-8.616794 3.563275,-8.785919 -0.094,-0.350503 -0.70094,-0.568403 -1.3175,-0.472962 -0.24478,0.03791 -14.43911,3.204009 -31.542993,7.0358 -29.971899,6.714612 -31.104235,6.981983 -31.271071,7.383864 -0.128876,0.310615 -0.115799,0.479368 0.05193,0.661522 0.27748,0.301238 60.632075,21.364808 61.335701,21.40581 0.635723,0.03706 1.302063,-0.359558 1.212363,-0.721649 -0.0369,-0.148323 -1.294221,-4.091379 -2.794427,-8.7623 z"
   id="path861" /><rect
   style="fill:#c7485e;fill-opacity:1;stroke:#3c4343;stroke-width:1.28812;stroke-opacity:0.9"
   id="rect2803"
   width="14.13"
   height="0.1659108"
   x="-73.585686"
   y="62.643509"
   transform="matrix(0.00372718,-0.99999305,0.99992168,0.01251548,0,0)"
   inkscape:transform-center-x="-8.2434597"
   inkscape:transform-center-y="7.7094884" /><path
   style="fill:#a06f78;fill-opacity:1;stroke:#e27364;stroke-width:0.100941;stroke-opacity:0.9"
   d="m 59.413047,73.668745 c -0.237583,-0.08306 -5.375347,-1.809864 -11.4174,-3.837241 -6.04205,-2.027372 -11.125463,-3.768069 -11.296435,-3.868217 -0.269012,-0.157626 22.445939,-5.245828 23.22006,-5.201386 0.211459,0.01204 0.23993,1.755097 0.106952,6.537235 -0.169563,6.097624 -0.209452,6.510898 -0.613115,6.369604 z"
   id="path3397"
   inkscape:transform-center-x="4.3561566"
   inkscape:transform-center-y="7.1171234" /><text
   xml:space="preserve"
   style="font-size:15.7955px;line-height:1.25;font-family:'Segoe Script';-inkscape-font-specification:'Segoe Script';stroke-width:0.394888;fill:#e0e0e0;fill-opacity:1"
   x="67.335526"
   y="9.982398"
   id="text9344"
   transform="scale(1.0219262,0.97854425)"><tspan
     sodipodi:role="line"
     id="tspan9342"
     x="67.335526"
     y="9.982398"
     style="stroke-width:0.394888;fill:#e0e0e0;fill-opacity:1">c</tspan></text><text
   xml:space="preserve"
   style="font-size:12.6573px;line-height:1.25;font-family:'Segoe Script';-inkscape-font-specification:'Segoe Script';stroke-width:0.31643;fill:#e0e0e0;fill-opacity:1"
   x="74.785896"
   y="122.05302"
   id="text11307"
   transform="scale(0.88842139,1.125592)"><tspan
     sodipodi:role="line"
     id="tspan11305"
     x="74.785896"
     y="122.05302"
     style="stroke-width:0.31643;fill:#e0e0e0;fill-opacity:1">ю</tspan></text><text
   xml:space="preserve"
   style="font-size:14.5777px;line-height:1.25;font-family:'Segoe Script';-inkscape-font-specification:'Segoe Script';stroke-width:0.364441;fill:#e0e0e0;fill-opacity:1"
   x="1.7463557"
   y="90.302055"
   id="text16794"
   transform="scale(1.3773375,0.72603846)"><tspan
     sodipodi:role="line"
     id="tspan16792"
     x="1.7463557"
     y="90.302055"
     style="stroke-width:0.364441;fill:#e0e0e0;fill-opacity:1">з</tspan></text><text
   xml:space="preserve"
   style="font-size:15.1804px;line-height:1.25;font-family:'Segoe Script';-inkscape-font-specification:'Segoe Script';stroke-width:0.379511;fill:#e0e0e0;fill-opacity:1"
   x="93.284058"
   y="93.328972"
   id="text19318"
   transform="scale(1.3926251,0.71806835)"><tspan
     sodipodi:role="line"
     id="tspan19316"
     x="93.284058"
     y="93.328972"
     style="stroke-width:0.379511;fill:#e0e0e0;fill-opacity:1">в</tspan></text><text
   xml:space="preserve"
   style="font-size:26.5344px;line-height:1.25;font-family:'Segoe Script';-inkscape-font-specification:'Segoe Script';fill:#16272a;fill-opacity:0.799714;stroke-width:0.663359"
   x="14.053504"
   y="84.003174"
   id="text17884"
   transform="scale(1.3128994,0.76167296)"><tspan
     sodipodi:role="line"
     id="tspan17882"
     x="14.053504"
     y="84.003174"
     style="stroke-width:0.663359">_</tspan></text><text
   xml:space="preserve"
   style="font-size:27.0277px;line-height:1.25;font-family:'Segoe Script';-inkscape-font-specification:'Segoe Script';fill:#16272a;fill-opacity:0.799714;stroke-width:0.675691"
   x="82.155273"
   y="84.882538"
   id="text17884-6"
   transform="scale(1.3373062,0.74777188)"><tspan
     sodipodi:role="line"
     id="tspan17882-2"
     x="82.155273"
     y="84.882538"
     style="stroke-width:0.675691">_</tspan></text><text
   xml:space="preserve"
   style="font-size:23.7433px;line-height:1.25;font-family:'Segoe Script';-inkscape-font-specification:'Segoe Script';fill:#16272a;fill-opacity:0.799714;stroke-width:0.593581"
   x="-94.104141"
   y="91.759155"
   id="text17884-0"
   transform="matrix(-0.01836565,-1.3623732,0.73328264,-0.05419994,0,0)"><tspan
     sodipodi:role="line"
     id="tspan17882-4"
     x="-94.104141"
     y="91.759155"
     style="stroke-width:0.593581">_</tspan></text><text
   xml:space="preserve"
   style="font-size:26.7951px;line-height:1.25;font-family:'Segoe Script';-inkscape-font-specification:'Segoe Script';fill:#16272a;fill-opacity:0.799714;stroke-width:0.669874"
   x="-22.11743"
   y="94.774826"
   id="text17884-9"
   transform="matrix(5.133754e-4,-1.3316157,0.75096685,0.00144598,0,0)"><tspan
     sodipodi:role="line"
     id="tspan17882-7"
     x="-22.11743"
     y="94.774826"
     style="stroke-width:0.669874">_</tspan></text></svg>
