<?xml version="1.0" encoding="UTF-8" standalone="no"?>
<svg
   width="20"
   height="15"
   viewBox="0 0 20 15"
   version="1.1"
   id="svg858"
   sodipodi:docname="BLRs.svg"
   inkscape:version="1.1.1 (3bf5ae0d25, 2021-09-20)"
   xmlns:inkscape="http://www.inkscape.org/namespaces/inkscape"
   xmlns:sodipodi="http://sodipodi.sourceforge.net/DTD/sodipodi-0.dtd"
   xmlns:xlink="http://www.w3.org/1999/xlink"
   xmlns="http://www.w3.org/2000/svg"
   xmlns:svg="http://www.w3.org/2000/svg"
   xmlns:rdf="http://www.w3.org/1999/02/22-rdf-syntax-ns#"
   xmlns:cc="http://creativecommons.org/ns#"
   xmlns:dc="http://purl.org/dc/elements/1.1/">
  <defs
     id="defs862" />
  <sodipodi:namedview
     id="namedview860"
     pagecolor="#ffffff"
     bordercolor="#666666"
     borderopacity="1.0"
     inkscape:pageshadow="2"
     inkscape:pageopacity="0.0"
     inkscape:pagecheckerboard="0"
     showgrid="false"
     inkscape:zoom="10.24"
     inkscape:cx="6.2988282"
     inkscape:cy="-4.0527344"
     inkscape:window-width="2400"
     inkscape:window-height="1321"
     inkscape:window-x="2391"
     inkscape:window-y="-9"
     inkscape:window-maximized="1"
     inkscape:current-layer="svg858" />
  <title
     id="title844">Flag of Belarus</title>
  <rect
     fill="#ce1720"
     width="2.1923554%"
     height="3.3102307%"
     id="rect846"
     x="0"
     y="0"
     style="stroke-width:0.0269393" />
  <path
     d="M -0.04959896,3.3607973e-4 H 2.2808614 V 15.008586 h -2.33046036 z"
     fill="#ffffff"
     id="path848"
     style="stroke-width:0.0278793" />
  <g
     id="a"
     transform="matrix(0.01984032,0,0,0.03310231,-0.01984032,0)">
    <path
       id="b"
       d="M 572,0 V 163 H 528 V 0 Z M 10,285 h 79 v -65 h 40 v -79 h 56 V 72 h 46 V 0 h 139 v 72 h 45 v 69 h 56 v 79 h 40 v 65 h 61 v 101 h -61 v 65 h -40 v 79 h -56 v 69 h -45 v 74 h -32 v 62 H 263 V 673 H 231 V 599 H 185 V 530 H 129 V 451 H 89 V 386 H 10 M 10,34 h 79 v 90 H 10 m 310,27 h -41 v 61 h -39 v 77 h -38 v 95 h 38 v 77 h 39 v 60 h 41 v -60 h 39 v -77 h 39 v -95 h -39 v -77 h -39 z m 4,139 v 90 H 275 V 290 Z M 10,526 h 79 v 97 H 10 M 572,535 V 672 H 528 V 535 Z M 464,687 v 68 h 48 v 70 h 60 v 92 h -60 v 71 h -48 v 68 h -56 v -68 h -48 v -71 h -40 v -92 h 40 v -70 h 48 V 687 Z M 10,825 h 79 v -70 h 48 v -68 h 55 v 68 h 48 v 70 h 40 v 92 h -40 v 71 h -48 v 68 H 137 V 988 H 89 V 917 H 10 m 447,-90 h -41 v 87 h 41 z m -271,0 h -41 v 87 h 41 z m 16,1441 v -47 h -34 v -71 h -45 v -43 H 89 v -69 H 10 v -160 h 79 v 46 h 34 v 67 h 45 v 80 h 64 v -72 h 47 v -53 h 34 v -63 h 45 v -67 h 33 v -68 h 32 v -70 h 43 v -94 h -57 v -85 h -62 v -51 H 243 v 74 h 60 v 67 h -40 v 82 h -47 v 72 h -59 v -72 h -49 v -82 H 78 v -67 H 10 v -127 h 79 v -82 h 30 v -63 h 28 v -72 h 40 v -71 h 39 v -47 h 47 v -71 h 57 v 71 h 47 v 47 h 40 v 71 h 39 v 72 h 32 v 62 h 32 v 54 h 52 v 397 h -59 v 67 h -17 v 70 h -44 v 68 h -27 v 50 h -28 v 53 h -48 v 52 h -69 v 145 M 572,1055 v 137 h -44 v -137 z m -562,26 h 79 v 97 H 10 m 0,486 h 79 v 97 H 10 Z m 560,246 v 88 h -42 v -88 z m -58,358 v -55 h -26 v -43 h -38 v -129 h 38 v 52 h 40 v 76 h 44 v 98 m -214,0 v -64 h 42 v 64"
       fill="#ce1720"
       transform="scale(0.1)" />
    <use
       transform="matrix(-1,0,0,1,110,0)"
       xlink:href="#b"
       id="use851"
       x="0"
       y="0"
       width="100%"
       height="100%" />
  </g>
  <use
     transform="matrix(1,0,0,-1,0,14.896038)"
     xlink:href="#a"
     id="use854"
     x="0"
     y="0"
     width="100%"
     height="100%" />
  <path
     d="M 2.3019712,9.9306921 H 19.99966 V 14.993694 H 2.3019712 Z"
     fill="#007c30"
     id="path856"
     style="stroke-width:0.0274116" />
  <metadata
     id="metadata946">
    <rdf:RDF>
      <cc:Work
         rdf:about="">
        <dc:title>Flag of Belarus</dc:title>
      </cc:Work>
    </rdf:RDF>
  </metadata>
  <path
     d="M 2.3019712,3.3607973e-4 H 19.99966 V 9.9306921 H 2.3019712 Z"
     fill="#007c30"
     id="path856-4"
     style="stroke-width:0.0383895;fill:#dc0000;fill-opacity:1" />
</svg>
