<?xml version="1.0" encoding="UTF-8" standalone="no"?>
<!-- Generator: Adobe Illustrator 22.0.1, SVG Export Plug-In . SVG Version: 6.00 Build 0)  -->

<svg
   version="1.1"
   id="Layer_1"
   x="0px"
   y="0px"
   viewBox="0 0 110 110"
   xml:space="preserve"
   sodipodi:docname="eastWind.svg"
   width="110"
   height="110"
   inkscape:version="1.1.1 (3bf5ae0d25, 2021-09-20)"
   xmlns:inkscape="http://www.inkscape.org/namespaces/inkscape"
   xmlns:sodipodi="http://sodipodi.sourceforge.net/DTD/sodipodi-0.dtd"
   xmlns="http://www.w3.org/2000/svg"
   xmlns:svg="http://www.w3.org/2000/svg"><defs
   id="defs7" /><sodipodi:namedview
   id="namedview5"
   pagecolor="#ffffff"
   bordercolor="#666666"
   borderopacity="1.0"
   inkscape:pageshadow="2"
   inkscape:pageopacity="0.0"
   inkscape:pagecheckerboard="0"
   showgrid="false"
   inkscape:zoom="7.1833332"
   inkscape:cx="84.779584"
   inkscape:cy="50.464038"
   inkscape:window-width="2400"
   inkscape:window-height="1321"
   inkscape:window-x="2391"
   inkscape:window-y="-9"
   inkscape:window-maximized="1"
   inkscape:current-layer="Layer_1"
   width="140px" />
<path
   d="m 51.882791,12.272869 c 7.736288,-0.927916 15.132477,0.130775 22.146178,3.143007 7.013703,3.012241 12.823641,7.542382 17.429841,13.590441 4.606198,6.048052 7.345582,12.892316 8.256126,20.528248 0.681804,5.717533 0.198972,11.345852 -1.414991,16.84277 -1.613995,5.496899 -4.151983,10.341589 -7.491248,14.595605 -3.339296,4.254012 -7.531189,7.809105 -12.575759,10.665214 -5.044584,2.856124 -10.408829,4.644145 -16.248975,5.344647 C 56.219676,97.674205 50.548369,97.209834 45.01243,95.622787 39.476516,94.035747 34.562436,91.534747 30.321594,88.228069 26.080758,84.921414 22.508693,80.771426 19.64775,75.811263 16.786826,70.851082 14.998762,65.53331 14.312494,59.778154 13.626203,54.022992 14.104548,48.357067 15.718532,42.860146 c 1.613992,-5.496909 4.147485,-10.379194 7.48674,-14.633228 3.339273,-4.254026 7.535675,-7.771483 12.499922,-10.656108 4.964243,-2.884658 10.375392,-4.601998 16.177597,-5.297941 z m 1.112391,9.328632 c -8.98774,1.078034 -16.414116,5.249985 -22.274653,12.553469 -5.784683,7.294379 -8.122056,15.434349 -7.04107,24.49966 0.708688,5.943239 2.847049,11.295303 6.444001,15.976431 3.596961,4.681126 8.101206,8.261418 13.57516,10.61897 5.473936,2.357559 11.190102,3.198073 17.181942,2.479394 5.991812,-0.718703 11.387062,-2.891988 16.152325,-6.477657 4.76525,-3.585685 8.343069,-8.097246 10.733447,-13.534678 C 90.15671,62.279654 90.980833,56.610418 90.272133,50.667178 89.563439,44.72394 87.425081,39.371876 83.82813,34.690739 80.231171,30.009632 75.688984,26.43387 70.210552,24.038712 64.732116,21.643553 58.98701,20.882812 52.995182,21.601501 Z m -19.991549,21.054897 51.399012,8.142489 c 0.383708,-0.0079 0.595754,0.157468 0.636094,0.496042 0.04026,0.338546 -0.126826,0.549362 -0.501527,0.632475 L 36.497789,71.958815 c -0.399217,0.200526 -0.707091,0.199285 -0.957048,0.0385 -0.249925,-0.160837 -0.285843,-0.46171 -0.107647,-0.902776 l 3.373554,-13.643866 c 0.106849,-0.394353 0.06199,-0.770509 -0.130083,-1.090851 L 32.176664,43.785751 c -0.272374,-0.348854 -0.303766,-0.612163 -0.09418,-0.789922 0.209615,-0.17773 0.532956,-0.369155 0.921158,-0.33942 z"
   id="path2"
   style="fill:#2c4f54;fill-opacity:0.5;stroke:#2e3332;stroke-width:0.23451;stroke-miterlimit:4;stroke-dasharray:none;stroke-opacity:0.9" />
<path
   style="fill:#2c4f53;fill-opacity:0.499285;stroke:#e4e7e7;stroke-width:0.236285;stroke-miterlimit:4;stroke-dasharray:none;stroke-opacity:0.9"
   d="m 24.557112,54.720225 c -0.01728,-1.623364 0.08628,-3.421316 0.286895,-4.981735 1.128144,-8.774243 6.817282,-17.485072 14.694104,-22.498643 4.23996,-2.698705 8.104192,-4.029679 13.395299,-4.613785 5.430853,-0.599729 9.668862,-0.118647 14.538177,1.649635 3.281939,1.191856 5.949382,2.657845 8.843586,4.860331 5.743712,4.37098 9.586288,9.819469 11.701685,16.592069 0.440546,1.410411 0.54991,2.004386 0.947241,5.144328 0.482183,3.811317 0.507597,4.898974 0.18066,7.742311 -0.493866,4.294299 -2.219562,9.182707 -4.611444,13.062844 -0.975637,1.582698 -3.410128,4.585281 -4.788973,5.906466 -3.337016,3.19752 -7.208779,5.655877 -11.176549,7.096464 -2.92592,1.062349 -3.983178,1.298603 -7.614891,1.701681 -2.561944,0.284262 -3.653064,0.353166 -4.787525,0.30181 C 49.275675,86.372355 42.637864,83.907378 37.197443,79.640154 31.625612,75.269833 27.61204,69.336412 25.745412,62.710119 25.315118,61.182617 24.572756,56.191229 24.557077,54.72021 Z m 11.401381,-4.875203 c 1.78753,3.421285 3.299319,6.348427 3.35952,6.504764 0.07434,0.192927 -0.437742,2.552646 -1.594501,7.347937 -0.980863,4.066194 -1.661389,7.155887 -1.603657,7.280954 0.119695,0.25919 0.620685,0.347689 1.087527,0.192072 0.18534,-0.06178 10.804051,-4.395289 23.597163,-9.629999 22.417952,-9.173018 23.263079,-9.530184 23.339431,-9.863741 0.05894,-0.257787 0.02634,-0.386848 -0.128332,-0.505795 -0.255718,-0.196882 -49.995305,-8.528121 -50.547989,-8.466714 -0.49936,0.05548 -0.964883,0.451093 -0.847003,0.719835 0.04843,0.110052 1.550314,2.999412 3.337845,6.420694 z"
   id="path861" /><rect
   style="fill:#c7485e;fill-opacity:1;stroke:#3c4343;stroke-width:1.00694;stroke-opacity:0.9"
   id="rect2803"
   width="11.061092"
   height="0.12950879"
   x="55.571316"
   y="-57.70409"
   transform="matrix(0.12909279,0.99163252,-0.99264096,0.12109472,0,0)"
   inkscape:transform-center-x="7.1785286"
   inkscape:transform-center-y="-5.1222835" /><path
   style="fill:#a06f78;fill-opacity:1;stroke:#e27364;stroke-width:0.078906;stroke-opacity:0.9"
   d="m 66.082346,48.431175 c 0.194026,0.03083 4.380504,0.643348 9.303356,1.361128 4.922846,0.717775 9.06949,1.34863 9.214752,1.401884 0.228586,0.08381 -16.508751,7.175809 -17.109492,7.249696 -0.164088,0.02024 -0.428692,-1.318422 -0.99252,-5.020626 -0.718928,-4.720621 -0.745846,-5.044529 -0.416141,-4.992074 z"
   id="path3397"
   inkscape:transform-center-x="-2.1589348"
   inkscape:transform-center-y="-4.5116152" /><g
   aria-label="c"
   transform="scale(1.0204304,0.9799786)"
   id="text9344"
   style="font-size:12.3474px;line-height:1.25;font-family:'Segoe Script';-inkscape-font-specification:'Segoe Script';fill:#e0e0e0;stroke-width:0.308686"><path
     d="m 59.389068,5.7057747 q 0,0.2170441 -0.156754,0.3918852 -0.162783,0.1808701 -0.283363,0.3074792 -0.12058,0.1205801 -0.229102,0.2230731 -0.108522,0.1024931 -0.229102,0.1989572 -0.12058,0.090435 -0.283363,0.2110151 -0.458205,0.3315952 -0.874206,0.5606974 -0.416001,0.2230731 -0.807886,0.3677692 -0.391886,0.1386671 -0.777742,0.1989571 -0.379827,0.06029 -0.765683,0.06029 -0.403944,0 -0.723481,-0.1507251 Q 53.938849,7.918419 53.715776,7.6531429 53.498732,7.3878667 53.384181,7.0381845 53.26963,6.6824733 53.26963,6.290588 V 6.260443 q 0,-0.3979142 0.102493,-0.8440605 0.102493,-0.4521753 0.283363,-0.9043506 0.186899,-0.4521753 0.446146,-0.8862635 0.259247,-0.4401173 0.572756,-0.8199445 0.126609,-0.1507251 0.30145,-0.3195372 0.18087,-0.1748412 0.379827,-0.3195372 0.204986,-0.1446961 0.42203,-0.2351312 0.223073,-0.096464 0.434088,-0.096464 0.144697,0 0.277335,0.090435 0.132638,0.084406 0.247189,0.2230731 0.114551,0.1386671 0.211015,0.3135082 0.09646,0.1688121 0.162783,0.3496823 0.06632,0.1748411 0.102493,0.3376242 0.03617,0.1627831 0.03617,0.2773341 0,0.1748412 -0.108522,0.4521753 -0.108522,0.2773342 -0.259247,0.2773342 -0.217044,0 -0.36174,-0.2954212 -0.05426,-0.1145511 -0.09646,-0.2652762 -0.03617,-0.150725 -0.09043,-0.2954211 -0.04823,-0.1446961 -0.132639,-0.2652762 -0.08441,-0.1266091 -0.235131,-0.1868991 -0.150725,0.036174 -0.307479,0.1567541 -0.150725,0.1205801 -0.30145,0.2954212 -0.144696,0.1748411 -0.289392,0.3979142 -0.138667,0.2170441 -0.265276,0.4521753 -0.12058,0.2170441 -0.235132,0.5004073 -0.114551,0.2773342 -0.204986,0.5787844 -0.09043,0.2954212 -0.144696,0.5908423 -0.05426,0.2954212 -0.05426,0.5426104 0,0.1748411 0.08441,0.3557112 0.08441,0.1748411 0.217044,0.3195372 0.138667,0.1446961 0.30748,0.2351311 0.174841,0.090435 0.355711,0.090435 0.892292,0 1.772527,-0.3677692 0.880234,-0.3677693 1.676063,-1.0671337 0.440117,-0.3858562 0.729509,-0.3858562 0.08441,0 0.08441,0.1627831 z"
     id="path971" /></g><g
   aria-label="ю"
   transform="scale(0.88712099,1.127242)"
   id="text11307"
   style="font-size:9.89427px;line-height:1.25;font-family:'Segoe Script';-inkscape-font-specification:'Segoe Script';fill:#e0e0e0;stroke-width:0.247355"><path
     d="m 59.595833,93.760457 q 0,-0.01932 -0.02416,-0.03382 -0.01933,-0.01933 -0.04831,-0.04831 -0.02899,-0.02899 -0.05314,-0.0773 -0.01933,-0.04831 -0.01933,-0.135273 0,-0.0773 0.04348,-0.140105 0.04348,-0.0628 0.09179,-0.115948 0.05314,-0.05314 0.09662,-0.09662 0.04831,-0.04348 0.05797,-0.08213 0.08213,-0.463794 0.140104,-0.874445 0.05797,-0.41065 0.07247,-0.686028 0.0048,-0.08213 0,-0.169092 0,-0.08696 -0.0048,-0.173922 -0.0048,-0.06281 -0.0097,-0.12078 0,-0.05797 0,-0.111117 0,-0.05797 0.04348,-0.130442 0.04348,-0.07247 0.106286,-0.135274 0.06764,-0.0628 0.144936,-0.101454 0.08213,-0.04348 0.159429,-0.04348 0.06764,0 0.135273,0.03865 0.06764,0.03382 0.12078,0.101455 0.05314,0.06281 0.08696,0.159429 0.03382,0.09179 0.03382,0.207741 0,0.08696 -0.01449,0.212573 -0.01449,0.12561 -0.03865,0.275377 -0.02416,0.149767 -0.05797,0.314027 -0.02899,0.164261 -0.05797,0.328521 -0.03865,0.227066 -0.0773,0.434807 -0.03382,0.207741 -0.05314,0.357508 0.01932,0.04348 0.03382,0.0773 0.01933,0.02899 0.04831,0.04831 0.02899,0.01932 0.07247,0.02899 0.04831,0.0097 0.125611,0.0097 0.207741,0 0.439638,-0.04348 0.231896,-0.04348 0.439637,-0.111117 0.207741,-0.06764 0.372002,-0.140104 0.169091,-0.0773 0.251222,-0.144936 0.05314,-0.04348 0.115948,-0.115948 0.06764,-0.07247 0.135273,-0.154598 0.06764,-0.08696 0.130442,-0.169092 0.06764,-0.08696 0.115949,-0.149767 0.16426,-0.207741 0.372001,-0.405819 0.207741,-0.198079 0.458963,-0.347846 0.251222,-0.149767 0.541093,-0.241559 0.294702,-0.09179 0.637716,-0.09179 0.260884,0 0.512106,0.130442 0.251222,0.125611 0.444469,0.343015 0.198079,0.217403 0.314027,0.502443 0.12078,0.280209 0.12078,0.589405 0,0.309196 -0.0628,0.565249 -0.05797,0.251221 -0.188417,0.536261 -0.07247,0.149767 -0.251221,0.357508 -0.178754,0.207741 -0.429976,0.429976 -0.24639,0.222234 -0.541093,0.439638 -0.294702,0.217403 -0.599067,0.391326 -0.304365,0.173922 -0.599067,0.280209 -0.289871,0.106286 -0.526599,0.106286 -0.318859,0 -0.545924,-0.106286 -0.227066,-0.111118 -0.372002,-0.28504 -0.144935,-0.178754 -0.212572,-0.40582 -0.06764,-0.227066 -0.06764,-0.458963 0,-0.188416 0.05314,-0.454131 0.05798,-0.270547 0.193248,-0.545924 -0.183585,0.115948 -0.410651,0.183585 -0.222235,0.06764 -0.410651,0.120779 -0.08213,0.02416 -0.183585,0.04348 -0.101455,0.01449 -0.20291,0.02899 -0.09662,0.01449 -0.188416,0.02899 -0.08696,0.01449 -0.149767,0.02416 -0.09662,0.01932 -0.135273,0.0773 -0.03382,0.05314 -0.05314,0.140105 -0.01932,0.08213 -0.05797,0.217403 -0.03865,0.135273 -0.0773,0.280209 -0.04348,0.154598 -0.09179,0.318858 -0.04831,0.16426 -0.08696,0.314027 -0.03382,0.144936 -0.06281,0.270547 -0.02416,0.120779 -0.02416,0.188416 0,0.0628 -0.05314,0.135273 -0.04831,0.07247 -0.115948,0.135273 -0.06281,0.06764 -0.130442,0.111118 -0.06281,0.04348 -0.09662,0.04348 -0.07247,0 -0.140104,-0.04831 -0.06281,-0.04831 -0.111118,-0.111117 -0.04831,-0.0628 -0.0773,-0.125611 -0.02899,-0.06764 -0.02899,-0.101455 0,-0.04348 0.03382,-0.154598 0.03865,-0.111117 0.0773,-0.227065 0.02416,-0.07247 0.0628,-0.198079 0.03865,-0.125611 0.0773,-0.275378 0.04348,-0.154598 0.08213,-0.318858 0.04348,-0.16426 0.0773,-0.309196 0.03382,-0.144935 0.05314,-0.251222 0.01933,-0.111117 0.01933,-0.159429 z m 5.82158,-1.091848 q 0,-0.483119 -0.280209,-0.753665 -0.275378,-0.275378 -0.792315,-0.275378 -0.07247,0 -0.178754,0.05797 -0.106286,0.05797 -0.231897,0.149766 -0.120779,0.08696 -0.24639,0.193248 -0.12078,0.106286 -0.231897,0.207741 -0.106286,0.101455 -0.183585,0.183585 -0.0773,0.08213 -0.106286,0.115948 -0.101455,0.12078 -0.212572,0.333352 -0.106287,0.207741 -0.198079,0.449301 -0.09179,0.241559 -0.154598,0.48795 -0.05797,0.241559 -0.05797,0.425144 0,0.111117 0.02899,0.227066 0.03382,0.115948 0.09662,0.212572 0.06764,0.09179 0.169091,0.154598 0.101455,0.05797 0.236728,0.05797 0.149767,0 0.381664,-0.08696 0.231897,-0.08696 0.48795,-0.24156 0.260884,-0.154598 0.521768,-0.36717 0.265715,-0.212572 0.473456,-0.458962 0.212572,-0.246391 0.343014,-0.516937 0.135274,-0.275378 0.135274,-0.555587 z"
     id="path1013" /></g><g
   aria-label="з"
   transform="scale(1.3753215,0.72710271)"
   id="text16794"
   style="font-size:11.3955px;line-height:1.25;font-family:'Segoe Script';-inkscape-font-specification:'Segoe Script';fill:#e0e0e0;stroke-width:0.284883"><path
     d="m 2.0802979,71.571685 q 0.055642,0 0.089027,0.03895 0.03895,0.03895 0.061206,0.09459 0.022257,0.06121 0.027821,0.133541 0.011128,0.07233 0.011128,0.139105 0,0.127977 0.044514,0.27821 0.050078,0.150234 0.1557978,0.278211 0.1112842,0.127976 0.2837747,0.21144 0.1724905,0.08903 0.4228799,0.08903 0.3394167,0 0.7010903,-0.178055 0.3616736,-0.178054 0.6621409,-0.495214 0.3004673,-0.31716 0.4896504,-0.756733 0.1947473,-0.434008 0.1947473,-0.95148 0,-0.478522 -0.1001558,-0.812374 -0.1001557,-0.333853 -0.2615178,-0.539728 -0.1557978,-0.21144 -0.3616736,-0.306032 -0.2058757,-0.09459 -0.4117514,-0.09459 -0.077899,0 -0.1724905,0.03895 -0.094592,0.03338 -0.1947473,0.08903 -0.094592,0.05008 -0.1947474,0.111285 -0.094591,0.06121 -0.1724904,0.111284 -0.1335411,0.08903 -0.2559537,0.150233 -0.1168484,0.06121 -0.3115957,0.06121 -0.1502336,0 -0.2615178,-0.111284 -0.10572,-0.116849 -0.10572,-0.306032 0,-0.144669 0.1001558,-0.244825 0.10572,-0.100156 0.3227241,-0.189183 0.4618294,-0.189183 0.823503,-0.383931 0.3672378,-0.200311 0.6176272,-0.428444 0.2503894,-0.233697 0.3839304,-0.511907 0.133541,-0.27821 0.133541,-0.63432 0,-0.139105 -0.044514,-0.272646 -0.038949,-0.139105 -0.1224126,-0.244825 -0.083463,-0.111284 -0.2058757,-0.178055 -0.1168484,-0.07233 -0.2726462,-0.07233 -0.3338526,0 -0.6343199,0.205876 -0.3004673,0.205876 -0.5898061,0.506343 -0.1279768,0.133541 -0.21144,0.194747 -0.083463,0.05564 -0.1780547,0.05564 -0.077899,0 -0.1391052,-0.03895 -0.055642,-0.04451 -0.094592,-0.100156 -0.033385,-0.06121 -0.055642,-0.127977 -0.016693,-0.07233 -0.016693,-0.122412 0,-0.133541 0.072335,-0.25039 0.077899,-0.122412 0.2058758,-0.228132 0.2782104,-0.233697 0.5452925,-0.383931 0.267082,-0.150233 0.4395725,-0.222568 0.1947473,-0.0779 0.400623,-0.150234 0.21144,-0.07233 0.3950589,-0.07233 0.2615178,0 0.5007788,0.09459 0.239261,0.08903 0.4173157,0.267082 0.1836189,0.172491 0.2893389,0.428444 0.1112841,0.255954 0.1112841,0.578678 0,0.467394 -0.2281325,0.929223 -0.2225684,0.461829 -0.7622967,0.895838 0.372802,0.01669 0.6510125,0.189183 0.2782104,0.17249 0.4618293,0.456265 0.1891831,0.283775 0.2782105,0.656577 0.094591,0.367237 0.094591,0.778989 0,0.411751 -0.1112841,0.817939 -0.1112842,0.406187 -0.31716,0.778989 -0.2003115,0.372802 -0.4840861,0.689962 -0.2782105,0.31716 -0.6176272,0.550857 -0.3338526,0.233696 -0.717783,0.367237 -0.3783662,0.133541 -0.7789893,0.133541 -0.3839304,0 -0.6677051,-0.127976 Q 2.1303758,73.313283 1.9411926,73.1241 1.7575737,72.934917 1.6629822,72.717913 1.5683906,72.500908 1.5683906,72.31729 q 0,-0.139106 0.050078,-0.300468 0.055642,-0.161362 0.1224126,-0.255953 0.044514,-0.06121 0.1279768,-0.127977 0.083463,-0.06121 0.21144,-0.06121 z"
     id="path950" /></g><g
   aria-label="в"
   transform="scale(1.3905867,0.71912093)"
   id="text19318"
   style="font-size:11.8666px;line-height:1.25;font-family:'Segoe Script';-inkscape-font-specification:'Segoe Script';fill:#e0e0e0;stroke-width:0.296664"><path
     d="m 77.415289,66.246649 q 0,-0.06953 -0.02897,-0.139061 -0.02318,-0.07533 -0.07533,-0.133268 -0.04635,-0.06374 -0.127473,-0.104296 -0.07533,-0.04056 -0.179621,-0.04056 -0.202799,0 -0.42298,0.144856 -0.214387,0.144856 -0.434568,0.399803 -0.214387,0.249152 -0.417185,0.596806 -0.202798,0.34186 -0.376625,0.741663 -0.173827,0.399802 -0.312889,0.840164 -0.133268,0.434568 -0.214387,0.87493 0.05215,-0.03476 0.156444,-0.11009 0.104297,-0.08112 0.23177,-0.179622 0.133267,-0.104296 0.278123,-0.220181 0.150651,-0.121679 0.283918,-0.237564 0.139062,-0.115884 0.254947,-0.220181 0.115884,-0.104296 0.185415,-0.179621 0.643161,-0.695309 0.921284,-1.205202 0.278123,-0.509893 0.278123,-0.828576 z m -0.179621,6.246189 q -0.179621,0.266535 -0.434568,0.521482 -0.249152,0.249152 -0.550452,0.440362 -0.301301,0.19121 -0.643161,0.3013 -0.336066,0.110091 -0.68372,0.08112 -0.243358,-0.01738 -0.463539,-0.156444 -0.220181,-0.144856 -0.388214,-0.405597 -0.168033,-0.266535 -0.266535,-0.648954 -0.0985,-0.38242 -0.0985,-0.880725 0,-0.318683 0.03477,-0.689514 0.03477,-0.376625 0.09271,-0.759045 0.05794,-0.38242 0.127473,-0.747457 0.07533,-0.365037 0.144856,-0.672132 0.09271,-0.417185 0.243358,-0.822781 0.150651,-0.411391 0.336066,-0.788017 0.185416,-0.38242 0.399803,-0.718485 0.214387,-0.336066 0.440362,-0.608395 0.312889,-0.365037 0.712691,-0.585218 0.405597,-0.220181 0.950255,-0.220181 0.225975,0 0.411391,0.09271 0.185416,0.09271 0.318683,0.243358 0.133268,0.144856 0.202799,0.330272 0.07533,0.185416 0.07533,0.365037 0,0.249152 -0.104297,0.556247 -0.0985,0.3013 -0.289712,0.631572 -0.191209,0.330271 -0.463539,0.666337 -0.272329,0.336066 -0.619983,0.648955 0.08112,0.0058 0.185416,0.02897 0.11009,0.01738 0.225975,0.06953 0.121679,0.05215 0.243358,0.139062 0.127473,0.08691 0.243358,0.220181 0.05215,0.06374 0.115885,0.173827 0.06374,0.104296 0.115884,0.260741 0.05794,0.15065 0.09271,0.347654 0.04056,0.197004 0.04056,0.434568 0,0.463539 -0.168033,1.002403 -0.162239,0.53307 -0.579424,1.147259 z m -0.162239,-2.13228 q 0,-0.318683 -0.09271,-0.533069 -0.09271,-0.220182 -0.220181,-0.347655 -0.127474,-0.133267 -0.260741,-0.185415 -0.133268,-0.05794 -0.214387,-0.05794 -0.07533,0 -0.237564,0.115885 -0.162238,0.115885 -0.347654,0.254946 -0.139062,0.121679 -0.278123,0.225976 -0.139062,0.104296 -0.260741,0.202798 -0.115885,0.0985 -0.214387,0.197004 -0.0985,0.0985 -0.162239,0.208593 -0.162238,0.295506 -0.19121,0.672131 -0.02897,0.376626 -0.02897,0.770634 0,0.260741 0.05215,0.469333 0.05794,0.202799 0.139062,0.347655 0.08691,0.144856 0.185416,0.225975 0.0985,0.07532 0.179621,0.07532 0.197004,0 0.446156,-0.08112 0.249153,-0.08112 0.509893,-0.318683 0.225976,-0.208593 0.405597,-0.469334 0.185416,-0.26074 0.312889,-0.550452 0.133267,-0.289712 0.202798,-0.602601 0.07533,-0.312889 0.07533,-0.619984 z"
     id="path992" /></g><text
   xml:space="preserve"
   style="font-size:20.742px;line-height:1.25;font-family:'Segoe Script';-inkscape-font-specification:'Segoe Script';fill:#16272a;fill-opacity:0.799714;stroke-width:0.51855"
   x="11.196424"
   y="66.177559"
   id="text17884"
   transform="scale(1.3109777,0.76278948)"><tspan
     sodipodi:role="line"
     id="tspan17882"
     x="11.196424"
     y="66.177559"
     style="stroke-width:0.51855">_</tspan></text><text
   xml:space="preserve"
   style="font-size:21.1277px;line-height:1.25;font-family:'Segoe Script';-inkscape-font-specification:'Segoe Script';fill:#16272a;fill-opacity:0.799714;stroke-width:0.528191"
   x="65.366241"
   y="67.246277"
   id="text17884-6"
   transform="scale(1.3353489,0.74886797)"><tspan
     sodipodi:role="line"
     id="tspan17882-2"
     x="65.366241"
     y="67.246277"
     style="stroke-width:0.528191">_</tspan></text><text
   xml:space="preserve"
   style="font-size:18.5603px;line-height:1.25;font-family:'Segoe Script';-inkscape-font-specification:'Segoe Script';fill:#16272a;fill-opacity:0.799714;stroke-width:0.464005"
   x="-73.839836"
   y="71.528458"
   id="text17884-0"
   transform="matrix(-0.01833877,-1.3643702,0.7322093,-0.0542794,0,0)"><tspan
     sodipodi:role="line"
     id="tspan17882-4"
     x="-73.839836"
     y="71.528458"
     style="stroke-width:0.464005">_</tspan></text><text
   xml:space="preserve"
   style="font-size:20.9458px;line-height:1.25;font-family:'Segoe Script';-inkscape-font-specification:'Segoe Script';fill:#16272a;fill-opacity:0.799714;stroke-width:0.523643"
   x="-18.313055"
   y="73.898041"
   id="text17884-9"
   transform="matrix(5.1262397e-4,-1.3335677,0.74986765,0.0014481,0,0)"><tspan
     sodipodi:role="line"
     id="tspan17882-7"
     x="-18.313055"
     y="73.898041"
     style="stroke-width:0.523643">_</tspan></text></svg>
