<?xml version="1.0" encoding="UTF-8" standalone="no"?>
<!-- Generator: Adobe Illustrator 22.0.1, SVG Export Plug-In . SVG Version: 6.00 Build 0)  -->

<svg
   version="1.1"
   id="Layer_1"
   x="0px"
   y="0px"
   viewBox="0 0 110 110"
   xml:space="preserve"
   sodipodi:docname="eastWind.svg"
   width="110"
   height="110"
   inkscape:version="1.1.1 (3bf5ae0d25, 2021-09-20)"
   xmlns:inkscape="http://www.inkscape.org/namespaces/inkscape"
   xmlns:sodipodi="http://sodipodi.sourceforge.net/DTD/sodipodi-0.dtd"
   xmlns="http://www.w3.org/2000/svg"
   xmlns:svg="http://www.w3.org/2000/svg"><defs
   id="defs7" /><sodipodi:namedview
   id="namedview5"
   pagecolor="#ffffff"
   bordercolor="#666666"
   borderopacity="1.0"
   inkscape:pageshadow="2"
   inkscape:pageopacity="0.0"
   inkscape:pagecheckerboard="0"
   showgrid="false"
   inkscape:zoom="2.5396918"
   inkscape:cx="127.96828"
   inkscape:cy="71.859113"
   inkscape:window-width="2400"
   inkscape:window-height="1321"
   inkscape:window-x="2391"
   inkscape:window-y="-9"
   inkscape:window-maximized="1"
   inkscape:current-layer="Layer_1"
   width="140px" />
<path
   d="m 51.882791,12.272869 c 7.736288,-0.927916 15.132477,0.130775 22.146178,3.143007 7.013703,3.012241 12.823641,7.542382 17.429841,13.590441 4.606198,6.048052 7.345582,12.892316 8.256126,20.528248 0.681804,5.717533 0.198972,11.345852 -1.414991,16.84277 -1.613995,5.496899 -4.151983,10.341589 -7.491248,14.595605 -3.339296,4.254012 -7.531189,7.809105 -12.575759,10.665214 -5.044584,2.856124 -10.408829,4.644145 -16.248975,5.344647 C 56.219676,97.674205 50.548369,97.209834 45.01243,95.622787 39.476516,94.035747 34.562436,91.534747 30.321594,88.228069 26.080758,84.921414 22.508693,80.771426 19.64775,75.811263 16.786826,70.851082 14.998762,65.53331 14.312494,59.778154 13.626203,54.022992 14.104548,48.357067 15.718532,42.860146 c 1.613992,-5.496909 4.147485,-10.379194 7.48674,-14.633228 3.339273,-4.254026 7.535675,-7.771483 12.499922,-10.656108 4.964243,-2.884658 10.375392,-4.601998 16.177597,-5.297941 z m 1.112391,9.328632 c -8.98774,1.078034 -16.414116,5.249985 -22.274653,12.553469 -5.784683,7.294379 -8.122056,15.434349 -7.04107,24.49966 0.708688,5.943239 2.847049,11.295303 6.444001,15.976431 3.596961,4.681126 8.101206,8.261418 13.57516,10.61897 5.473936,2.357559 11.190102,3.198073 17.181942,2.479394 5.991812,-0.718703 11.387062,-2.891988 16.152325,-6.477657 4.76525,-3.585685 8.343069,-8.097246 10.733447,-13.534678 C 90.15671,62.279654 90.980833,56.610418 90.272133,50.667178 89.563439,44.72394 87.425081,39.371876 83.82813,34.690739 80.231171,30.009632 75.688984,26.43387 70.210552,24.038712 64.732116,21.643553 58.98701,20.882812 52.995182,21.601501 Z m -19.991549,21.054897 51.399012,8.142489 c 0.383708,-0.0079 0.595754,0.157468 0.636094,0.496042 0.04026,0.338546 -0.126826,0.549362 -0.501527,0.632475 L 36.497789,71.958815 c -0.399217,0.200526 -0.707091,0.199285 -0.957048,0.0385 -0.249925,-0.160837 -0.285843,-0.46171 -0.107647,-0.902776 l 3.373554,-13.643866 c 0.106849,-0.394353 0.06199,-0.770509 -0.130083,-1.090851 L 32.176664,43.785751 c -0.272374,-0.348854 -0.303766,-0.612163 -0.09418,-0.789922 0.209615,-0.17773 0.532956,-0.369155 0.921158,-0.33942 z"
   id="path2"
   style="fill:#2c4f54;fill-opacity:0.5;stroke:#2e3332;stroke-width:0.23451;stroke-miterlimit:4;stroke-dasharray:none;stroke-opacity:0.9" />
<path
   style="fill:#2c4f53;fill-opacity:0.499285;stroke:#e4e7e7;stroke-width:0.23451;stroke-miterlimit:4;stroke-dasharray:none;stroke-opacity:0.9"
   d="m 24.556203,54.858662 c -0.01709,-1.616381 0.08536,-3.4066 0.283822,-4.960307 1.116058,-8.736503 6.744248,-17.409865 14.536685,-22.401871 4.194538,-2.687097 8.017372,-4.012346 13.251795,-4.59394 5.372673,-0.59715 9.56528,-0.118137 14.38243,1.642539 3.246779,1.18673 5.885646,2.646413 8.748844,4.839426 5.68218,4.352179 9.48359,9.777233 11.576325,16.520703 0.435826,1.404344 0.544019,1.995764 0.937093,5.122201 0.477017,3.794923 0.502159,4.877902 0.178725,7.709009 -0.488576,4.275829 -2.195784,9.14321 -4.562042,13.006658 -0.965185,1.57589 -3.373595,4.565559 -4.737669,5.881061 -3.301266,3.183767 -7.131551,5.63155 -11.056814,7.06594 -2.894575,1.05778 -3.940506,1.293018 -7.533313,1.694362 -2.534497,0.283039 -3.613928,0.351647 -4.736236,0.300512 -6.815892,-0.310306 -13.382592,-2.76468 -18.76473,-7.01355 C 31.548978,75.319882 27.578404,69.411982 25.731773,62.81419 25.306089,61.293258 24.57168,56.323339 24.556169,54.858648 Z m 11.279238,-4.854233 c 1.76838,3.406569 3.263973,6.321121 3.323529,6.476785 0.07354,0.192098 -0.433052,2.541667 -1.577419,7.316332 -0.970355,4.048705 -1.64359,7.125108 -1.586477,7.249637 0.118413,0.258075 0.614036,0.346194 1.075877,0.191246 0.183354,-0.06151 10.688307,-4.376384 23.344366,-9.588578 22.177788,-9.133563 23.013861,-9.489193 23.089395,-9.821315 0.05831,-0.256678 0.02606,-0.385184 -0.126957,-0.503619 -0.252979,-0.196036 -49.459705,-8.49144 -50.006468,-8.430297 -0.49401,0.05524 -0.954546,0.449153 -0.837929,0.716739 0.04791,0.109578 1.533706,2.986511 3.302087,6.393077 z"
   id="path861" /><rect
   style="fill:#c7485e;fill-opacity:1;stroke:#3c4343;stroke-width:1.00694;stroke-opacity:0.9"
   id="rect2803"
   width="11.061092"
   height="0.12950879"
   x="55.571316"
   y="-57.70409"
   transform="matrix(0.12909279,0.99163252,-0.99264096,0.12109472,0,0)"
   inkscape:transform-center-x="7.1785286"
   inkscape:transform-center-y="-5.1222835" /><path
   style="fill:#a06f78;fill-opacity:1;stroke:#e27364;stroke-width:0.078906;stroke-opacity:0.9"
   d="m 66.082346,48.431175 c 0.194026,0.03083 4.380504,0.643348 9.303356,1.361128 4.922846,0.717775 9.06949,1.34863 9.214752,1.401884 0.228586,0.08381 -16.508751,7.175809 -17.109492,7.249696 -0.164088,0.02024 -0.428692,-1.318422 -0.99252,-5.020626 -0.718928,-4.720621 -0.745846,-5.044529 -0.416141,-4.992074 z"
   id="path3397"
   inkscape:transform-center-x="-2.1589348"
   inkscape:transform-center-y="-4.5116152" /><text
   xml:space="preserve"
   style="font-size:12.3474px;line-height:1.25;font-family:'Segoe Script';-inkscape-font-specification:'Segoe Script';fill:#e0e0e0;fill-opacity:1;stroke-width:0.308686"
   x="52.497917"
   y="8.2017822"
   id="text9344"
   transform="scale(1.0204304,0.9799786)"><tspan
     sodipodi:role="line"
     id="tspan9342"
     x="52.497917"
     y="8.2017822"
     style="fill:#e0e0e0;fill-opacity:1;stroke-width:0.308686">c</tspan></text><text
   xml:space="preserve"
   style="font-size:9.89427px;line-height:1.25;font-family:'Segoe Script';-inkscape-font-specification:'Segoe Script';fill:#e0e0e0;fill-opacity:1;stroke-width:0.247355"
   x="58.301075"
   y="95.755737"
   id="text11307"
   transform="scale(0.88712099,1.127242)"><tspan
     sodipodi:role="line"
     id="tspan11305"
     x="58.301075"
     y="95.755737"
     style="fill:#e0e0e0;fill-opacity:1;stroke-width:0.247355">ю</tspan></text><text
   xml:space="preserve"
   style="font-size:11.3955px;line-height:1.25;font-family:'Segoe Script';-inkscape-font-specification:'Segoe Script';fill:#e0e0e0;fill-opacity:1;stroke-width:0.284883"
   x="1.2623591"
   y="71.126549"
   id="text16794"
   transform="scale(1.3753215,0.72710271)"><tspan
     sodipodi:role="line"
     id="tspan16792"
     x="1.2623591"
     y="71.126549"
     style="fill:#e0e0e0;fill-opacity:1;stroke-width:0.284883">з</tspan></text><text
   xml:space="preserve"
   style="font-size:11.8666px;line-height:1.25;font-family:'Segoe Script';-inkscape-font-specification:'Segoe Script';fill:#e0e0e0;fill-opacity:1;stroke-width:0.296664"
   x="72.818848"
   y="73.498657"
   id="text19318"
   transform="scale(1.3905867,0.71912093)"><tspan
     sodipodi:role="line"
     id="tspan19316"
     x="72.818848"
     y="73.498657"
     style="fill:#e0e0e0;fill-opacity:1;stroke-width:0.296664">в</tspan></text><text
   xml:space="preserve"
   style="font-size:20.742px;line-height:1.25;font-family:'Segoe Script';-inkscape-font-specification:'Segoe Script';fill:#16272a;fill-opacity:0.799714;stroke-width:0.51855"
   x="10.877857"
   y="66.177559"
   id="text17884"
   transform="scale(1.3109777,0.76278948)"><tspan
     sodipodi:role="line"
     id="tspan17882"
     x="10.877857"
     y="66.177559"
     style="stroke-width:0.51855">_</tspan></text><text
   xml:space="preserve"
   style="font-size:21.1277px;line-height:1.25;font-family:'Segoe Script';-inkscape-font-specification:'Segoe Script';fill:#16272a;fill-opacity:0.799714;stroke-width:0.528191"
   x="64.115234"
   y="66.874481"
   id="text17884-6"
   transform="scale(1.3353489,0.74886798)"><tspan
     sodipodi:role="line"
     id="tspan17882-2"
     x="64.115234"
     y="66.874481"
     style="stroke-width:0.528191">_</tspan></text><text
   xml:space="preserve"
   style="font-size:18.5603px;line-height:1.25;font-family:'Segoe Script';-inkscape-font-specification:'Segoe Script';fill:#16272a;fill-opacity:0.799714;stroke-width:0.464005"
   x="-73.839836"
   y="71.528458"
   id="text17884-0"
   transform="matrix(-0.01833877,-1.3643702,0.7322093,-0.0542794,0,0)"><tspan
     sodipodi:role="line"
     id="tspan17882-4"
     x="-73.839836"
     y="71.528458"
     style="stroke-width:0.464005">_</tspan></text><text
   xml:space="preserve"
   style="font-size:20.9458px;line-height:1.25;font-family:'Segoe Script';-inkscape-font-specification:'Segoe Script';fill:#16272a;fill-opacity:0.799714;stroke-width:0.523643"
   x="-17.582325"
   y="73.897537"
   id="text17884-9"
   transform="matrix(5.1262398e-4,-1.3335677,0.74986766,0.0014481,0,0)"><tspan
     sodipodi:role="line"
     id="tspan17882-7"
     x="-17.582325"
     y="73.897537"
     style="stroke-width:0.523643">_</tspan></text></svg>
