<?xml version="1.0" encoding="UTF-8" standalone="no"?>
<!-- Generator: Adobe Illustrator 22.0.1, SVG Export Plug-In . SVG Version: 6.00 Build 0)  -->

<svg
   version="1.1"
   id="Layer_1"
   x="0px"
   y="0px"
   viewBox="0 0 110 110"
   xml:space="preserve"
   sodipodi:docname="northWind.svg"
   width="110"
   height="110"
   inkscape:version="1.1.1 (3bf5ae0d25, 2021-09-20)"
   xmlns:inkscape="http://www.inkscape.org/namespaces/inkscape"
   xmlns:sodipodi="http://sodipodi.sourceforge.net/DTD/sodipodi-0.dtd"
   xmlns="http://www.w3.org/2000/svg"
   xmlns:svg="http://www.w3.org/2000/svg"><defs
   id="defs7" /><sodipodi:namedview
   id="namedview5"
   pagecolor="#ffffff"
   bordercolor="#666666"
   borderopacity="1.0"
   inkscape:pageshadow="2"
   inkscape:pageopacity="0.0"
   inkscape:pagecheckerboard="0"
   showgrid="false"
   inkscape:zoom="5.0793836"
   inkscape:cx="125.01517"
   inkscape:cy="54.632613"
   inkscape:window-width="2400"
   inkscape:window-height="1321"
   inkscape:window-x="2391"
   inkscape:window-y="-9"
   inkscape:window-maximized="1"
   inkscape:current-layer="Layer_1"
   width="140px" />
<path
   d="m 12.271526,53.992496 c 0.154151,-7.809438 2.255043,-15.007066 6.263538,-21.555353 4.008501,-6.548289 9.371975,-11.6919 16.090442,-15.430857 6.718457,-3.738963 13.974286,-5.514494 21.768253,-5.364922 5.835864,0.112 11.418714,1.368038 16.710891,3.729061 5.292164,2.361041 9.799849,5.54953 13.602078,9.452106 3.802206,3.902602 6.783074,8.555314 8.942524,13.958196 2.159458,5.402902 3.201728,10.975816 3.085369,16.871181 -0.114842,5.818793 -1.37698,11.385788 -3.747243,16.663453 -2.370265,5.277645 -5.570834,9.811756 -9.485787,13.566225 -3.914921,3.754477 -8.582666,6.728552 -13.963997,8.884751 -5.381341,2.156186 -10.971121,3.197773 -16.845382,3.085037 -5.874277,-0.112721 -11.495509,-1.3695 -16.787691,-3.730539 -5.292167,-2.361047 -9.838229,-5.550259 -13.640469,-9.452824 -3.802227,-3.902582 -6.744678,-8.554582 -8.944026,-13.88165 -2.199384,-5.327067 -3.164104,-10.936795 -3.0485,-16.793865 z m 9.521698,0.182736 c -0.179069,9.072727 2.96716,17.02209 9.477083,23.848834 6.511424,6.750178 14.355598,10.194184 23.608528,10.371767 6.066234,0.116431 11.739609,-1.268235 16.944083,-4.193731 5.20448,-2.925506 9.431104,-6.903759 12.566229,-12.01356 3.135126,-5.109788 4.781199,-10.669418 4.900588,-16.717909 C 89.409108,49.422157 87.984405,43.765303 85.053301,38.53907 82.122189,33.312855 78.094884,29.137881 72.971385,26.014167 67.84789,22.890447 62.271861,21.28989 56.205618,21.173469 c -6.06624,-0.116429 -11.739607,1.268236 -16.944096,4.193735 -5.20446,2.925499 -9.431851,6.942047 -12.60536,12.051108 -3.17351,5.109062 -4.743556,10.708435 -4.862938,16.75692 z M 40.125826,76.930255 55.514104,27.019481 c 0.04595,-0.382067 0.241699,-0.569794 0.587277,-0.563126 0.34554,0.0067 0.533739,0.201724 0.564596,0.585235 l 13.368714,50.462672 c 0.14529,0.424053 0.100836,0.729563 -0.09566,0.955565 -0.19655,0.225959 -0.503656,0.220101 -0.921454,-0.0177 L 55.793112,73.209839 c -0.380921,-0.160508 -0.764861,-0.167876 -1.113428,-0.02137 l -13.536098,4.718719 c -0.388462,0.222304 -0.657218,0.217143 -0.806266,-0.01548 -0.149018,-0.232651 -0.295821,-0.580111 -0.211486,-0.961456 z"
   id="path2"
   style="fill:#2c4f54;fill-opacity:0.5;stroke:#2e3332;stroke-width:0.236405;stroke-miterlimit:4;stroke-dasharray:none;stroke-opacity:0.9" />
<path
   style="fill:#2c4f53;fill-opacity:0.499285;stroke:#e4e7e7;stroke-width:0.236247;stroke-miterlimit:4;stroke-dasharray:none;stroke-opacity:0.9"
   d="M 51.106818,86.807228 C 49.496124,86.601788 47.728914,86.252784 46.210257,85.84023 37.670864,83.520366 29.815525,76.693129 25.921205,68.206595 23.824972,63.638444 23.032638,59.629816 23.174609,54.310756 c 0.145524,-5.459576 1.199389,-9.589891 3.61453,-14.168834 1.62784,-3.086223 3.443581,-5.526423 6.019891,-8.090189 5.112848,-5.087928 11.034293,-8.14574 18.032353,-9.311873 1.457361,-0.242849 2.060739,-0.269717 5.225747,-0.23269 3.84172,0.04506 4.922774,0.168994 7.695263,0.882497 4.187301,1.077693 8.795427,3.456525 12.313871,6.356763 1.435168,1.182996 4.078381,4.00512 5.199551,5.551485 2.713412,3.742487 4.621672,7.913112 5.508516,12.039279 0.653995,3.042736 0.744054,4.121968 0.648742,7.773173 -0.06731,2.575662 -0.147651,3.665494 -0.353049,4.781736 -1.247173,6.779116 -4.593434,13.013629 -9.562189,17.815475 -5.088765,4.917862 -11.513954,8.078495 -18.333185,9.018351 -1.571971,0.216662 -6.618291,0.267451 -8.077832,0.08132 z M 47.829644,74.849829 c 3.633094,-1.300911 6.739062,-2.396535 6.902152,-2.434712 0.201269,-0.04715 2.469406,0.783363 7.062767,2.5861 3.894969,1.528623 6.86338,2.625998 6.995157,2.585986 0.273095,-0.08299 0.429006,-0.566916 0.338423,-1.050484 C 69.092183,76.344734 66.245077,65.236548 62.801282,51.851842 56.766564,28.397208 56.52781,27.511446 56.207741,27.390119 c -0.247368,-0.09373 -0.379675,-0.07915 -0.518591,0.05773 -0.229872,0.226228 -15.258778,48.333754 -15.273217,48.889411 -0.01305,0.502047 0.315499,1.017219 0.597808,0.937342 0.115632,-0.03287 3.182816,-1.123864 6.815908,-2.424775 z"
   id="path861" /><rect
   style="fill:#c7485e;fill-opacity:1;stroke:#3c4343;stroke-width:1.07605;stroke-opacity:0.9"
   id="rect2803"
   width="13.060057"
   height="0.12526363"
   x="46.731262"
   y="51.46365"
   transform="matrix(0.99988889,-0.01490685,0.03890992,0.99924272,0,0)"
   inkscape:transform-center-x="6.7862864"
   inkscape:transform-center-y="6.3458203" /><path
   style="fill:#a06f78;fill-opacity:1;stroke:#e27364;stroke-width:0.0947476;stroke-opacity:0.9"
   d="m 49.5912,49.568805 c 0.06871,-0.224681 1.488345,-5.081163 3.154715,-10.792267 1.666367,-5.711097 3.10138,-10.517464 3.188906,-10.680795 0.137743,-0.257034 5.870036,20.700336 5.859767,21.423355 -0.0028,0.1975 -1.646804,0.294429 -6.166072,0.363699 -5.762445,0.08832 -6.154159,0.06786 -6.037316,-0.313935 z"
   id="path3397"
   inkscape:transform-center-x="6.4332585"
   inkscape:transform-center-y="-3.8110463" /><text
   xml:space="preserve"
   style="font-size:12.4388px;line-height:1.25;font-family:'Segoe Script';-inkscape-font-specification:'Segoe Script';fill:#e0e0e0;fill-opacity:1;stroke-width:0.310969"
   x="52.0989"
   y="7.8470874"
   id="text9344"
   transform="scale(1.0204311,0.97997801)"><tspan
     sodipodi:role="line"
     id="tspan9342"
     x="52.0989"
     y="7.8470874"
     style="fill:#e0e0e0;fill-opacity:1;stroke-width:0.310969">c</tspan></text><text
   xml:space="preserve"
   style="font-size:9.96743px;line-height:1.25;font-family:'Segoe Script';-inkscape-font-specification:'Segoe Script';fill:#e0e0e0;fill-opacity:1;stroke-width:0.249184"
   x="57.826679"
   y="96.102989"
   id="text11307"
   transform="scale(0.88712154,1.1272413)"><tspan
     sodipodi:role="line"
     id="tspan11305"
     x="57.826679"
     y="96.102989"
     style="fill:#e0e0e0;fill-opacity:1;stroke-width:0.249184">ю</tspan></text><text
   xml:space="preserve"
   style="font-size:11.4797px;line-height:1.25;font-family:'Segoe Script';-inkscape-font-specification:'Segoe Script';fill:#e0e0e0;fill-opacity:1;stroke-width:0.286993"
   x="0.68750334"
   y="71.09288"
   id="text16794"
   transform="scale(1.3753224,0.72710224)"><tspan
     sodipodi:role="line"
     id="tspan16792"
     x="0.68750334"
     y="71.09288"
     style="fill:#e0e0e0;fill-opacity:1;stroke-width:0.286993">з</tspan></text><text
   xml:space="preserve"
   style="font-size:11.9543px;line-height:1.25;font-family:'Segoe Script';-inkscape-font-specification:'Segoe Script';fill:#e0e0e0;fill-opacity:1;stroke-width:0.298859"
   x="72.779747"
   y="73.476326"
   id="text19318"
   transform="scale(1.3905875,0.7191205)"><tspan
     sodipodi:role="line"
     id="tspan19316"
     x="72.779747"
     y="73.476326"
     style="fill:#e0e0e0;fill-opacity:1;stroke-width:0.298859">в</tspan></text><text
   xml:space="preserve"
   style="font-size:20.8954px;line-height:1.25;font-family:'Segoe Script';-inkscape-font-specification:'Segoe Script';fill:#16272a;fill-opacity:0.799714;stroke-width:0.522386"
   x="10.286418"
   y="66.133476"
   id="text17884"
   transform="scale(1.3109785,0.76278899)"><tspan
     sodipodi:role="line"
     id="tspan17882"
     x="10.286418"
     y="66.133476"
     style="stroke-width:0.522386">_</tspan></text><text
   xml:space="preserve"
   style="font-size:21.2839px;line-height:1.25;font-family:'Segoe Script';-inkscape-font-specification:'Segoe Script';fill:#16272a;fill-opacity:0.799714;stroke-width:0.532097"
   x="63.987846"
   y="66.825638"
   id="text17884-6"
   transform="scale(1.3353497,0.74886752)"><tspan
     sodipodi:role="line"
     id="tspan17882-2"
     x="63.987846"
     y="66.825638"
     style="stroke-width:0.532097">_</tspan></text><text
   xml:space="preserve"
   style="font-size:18.6975px;line-height:1.25;font-family:'Segoe Script';-inkscape-font-specification:'Segoe Script';fill:#16272a;fill-opacity:0.799714;stroke-width:0.467437"
   x="-74.044411"
   y="70.968849"
   id="text17884-0"
   transform="matrix(-0.01833879,-1.3643694,0.73220976,-0.05427935,0,0)"><tspan
     sodipodi:role="line"
     id="tspan17882-4"
     x="-74.044411"
     y="70.968849"
     style="stroke-width:0.467437">_</tspan></text><text
   xml:space="preserve"
   style="font-size:21.1007px;line-height:1.25;font-family:'Segoe Script';-inkscape-font-specification:'Segoe Script';fill:#16272a;fill-opacity:0.799714;stroke-width:0.527517"
   x="-17.408321"
   y="73.37252"
   id="text17884-9"
   transform="matrix(5.1262429e-4,-1.3335668,0.74986813,0.0014481,0,0)"><tspan
     sodipodi:role="line"
     id="tspan17882-7"
     x="-17.408321"
     y="73.37252"
     style="stroke-width:0.527517">_</tspan></text></svg>
