<?xml version="1.0" encoding="UTF-8" standalone="no"?>
<!-- Generator: Adobe Illustrator 22.0.1, SVG Export Plug-In . SVG Version: 6.00 Build 0)  -->

<svg
   version="1.1"
   id="Layer_1"
   x="0px"
   y="0px"
   viewBox="0 0 110 110"
   xml:space="preserve"
   sodipodi:docname="northwestWind.svg"
   width="110"
   height="110"
   inkscape:version="1.1.1 (3bf5ae0d25, 2021-09-20)"
   xmlns:inkscape="http://www.inkscape.org/namespaces/inkscape"
   xmlns:sodipodi="http://sodipodi.sourceforge.net/DTD/sodipodi-0.dtd"
   xmlns="http://www.w3.org/2000/svg"
   xmlns:svg="http://www.w3.org/2000/svg"><defs
   id="defs7" /><sodipodi:namedview
   id="namedview5"
   pagecolor="#ffffff"
   bordercolor="#666666"
   borderopacity="1.0"
   inkscape:pageshadow="2"
   inkscape:pageopacity="0.0"
   inkscape:pagecheckerboard="0"
   showgrid="false"
   inkscape:zoom="7.183333"
   inkscape:cx="139.69838"
   inkscape:cy="55.197218"
   inkscape:window-width="2400"
   inkscape:window-height="1321"
   inkscape:window-x="2391"
   inkscape:window-y="-9"
   inkscape:window-maximized="1"
   inkscape:current-layer="Layer_1"
   width="140px" />
<path
   d="M 27.949172,85.899393 C 22.098082,80.579945 17.983195,74.194834 15.607631,66.798614 13.232078,59.402382 12.810962,51.91651 14.344291,44.340983 c 1.533322,-7.575527 4.913552,-14.249677 10.111988,-20.048562 3.892413,-4.34201 8.49166,-7.73036 13.743405,-10.162575 5.251751,-2.432183 10.622355,-3.719415 16.07695,-3.997016 5.454616,-0.2775628 10.945087,0.566232 16.47142,2.531389 5.526352,1.965196 10.453461,4.889157 14.870488,8.904796 4.359655,3.963476 7.778959,8.627485 10.254871,13.937381 2.475904,5.309871 3.843494,10.752771 4.150887,16.216924 0.30739,5.464124 -0.47106,10.978077 -2.338329,16.487198 C 95.81867,73.71964 92.96595,78.643939 89.047922,83.014517 85.129903,87.385122 80.505049,90.802026 75.253289,93.234227 70.001531,95.666413 64.60534,96.982209 59.150725,97.259829 53.696119,97.537425 48.231254,96.66508 42.736674,94.780587 37.242077,92.896111 32.337502,89.888937 27.949172,85.899393 Z m 6.350803,-7.084354 c 6.797612,6.179904 14.908379,9.094794 24.357909,8.716119 9.392149,-0.430837 17.134064,-4.072921 23.305603,-10.95729 4.046071,-4.513416 6.691865,-9.729541 7.857487,-15.617334 1.165607,-5.8878 0.890994,-11.736903 -0.958025,-17.513812 -1.849011,-5.776904 -5.012244,-10.726569 -9.543984,-14.846524 -4.531748,-4.119913 -9.772315,-6.81037 -15.667406,-8.073885 -5.895092,-1.263495 -11.704127,-0.997025 -17.42709,0.799401 -5.722964,1.796438 -10.580331,4.950098 -14.626401,9.463521 -4.046075,4.513409 -6.691855,9.729544 -7.857482,15.617343 -1.165612,5.887781 -0.862321,11.762996 0.961107,17.56845 1.823416,5.805471 5.06654,10.724077 9.598282,14.844011 z m 29.301246,1.285478 -27.99895,-44.897238 c -0.261208,-0.289312 -0.276567,-0.562525 -0.04605,-0.819619 0.230528,-0.257037 0.501928,-0.269542 0.814332,-0.03739 l 47.179358,23.501419 c 0.417961,0.172551 0.6218,0.409736 0.665842,0.709007 0.04398,0.299289 -0.160816,0.527811 -0.614906,0.685308 l -12.614651,6.52253 c -0.370822,0.181351 -0.626902,0.467013 -0.742636,0.828416 l -5.234163,13.38789 c -0.08399,0.442098 -0.263258,0.642053 -0.537487,0.600134 -0.274524,-0.04223 -0.63509,-0.162608 -0.870699,-0.480485 z"
   id="path2"
   style="fill:#2c4f54;fill-opacity:0.5;stroke:#2e3332;stroke-width:0.237745;stroke-miterlimit:4;stroke-dasharray:none;stroke-opacity:0.9" />
<path
   style="fill:#2c4f53;fill-opacity:0.499285;stroke:#e4e7e7;stroke-width:0.237745;stroke-miterlimit:4;stroke-dasharray:none;stroke-opacity:0.9"
   d="m 78.353399,78.218625 c -1.215379,1.094766 -2.642358,2.214244 -3.95382,3.101835 -7.374441,4.990931 -17.70814,6.48085 -26.690237,3.848225 -4.834896,-1.417113 -8.388491,-3.460635 -12.318455,-7.083844 -4.033889,-3.718787 -6.464568,-7.253154 -8.338749,-12.123953 -1.26319,-3.28295 -1.914076,-6.282567 -2.157885,-9.944892 -0.483879,-7.2681 1.100021,-13.812471 4.823283,-19.929341 0.775382,-1.273859 1.15214,-1.752574 3.263003,-4.146071 2.562242,-2.905218 3.367432,-3.649203 5.731679,-5.29584 3.570788,-2.486849 8.402707,-4.435429 12.911925,-5.206985 1.839296,-0.314721 5.713444,-0.469244 7.620958,-0.303935 4.616522,0.400005 9.027031,1.698037 12.731721,3.747042 2.731935,1.510952 3.607549,2.155289 6.306632,4.640763 1.903967,1.753393 2.67544,2.534914 3.384612,3.429429 4.307036,5.432337 6.820744,12.108458 7.183045,19.077426 0.371029,7.13732 -1.466571,14.134477 -5.243297,19.965213 -0.870612,1.344106 -4.153122,5.232888 -5.2544,6.22496 z M 67.152031,72.821017 c 1.406869,-3.635198 2.622135,-6.73204 2.700581,-6.881862 0.09678,-0.184926 2.217633,-1.368923 6.604075,-3.686891 3.719504,-1.965557 6.503047,-3.508208 6.559503,-3.63532 0.116948,-0.263468 -0.146499,-0.702358 -0.571897,-0.952687 C 82.275398,57.564887 71.999433,52.399847 59.608785,46.186392 37.896098,35.298279 37.068975,34.895376 36.766577,35.059731 c -0.233677,0.127066 -0.309711,0.237778 -0.297635,0.434319 0.02003,0.325087 26.518503,43.595479 26.929307,43.973672 0.371132,0.341743 0.977058,0.431131 1.102417,0.162673 0.05125,-0.11005 1.244478,-3.174204 2.651348,-6.809402 z"
   id="path861" /><rect
   style="fill:#c7485e;fill-opacity:1;stroke:#3c4343;stroke-width:0.965588;stroke-opacity:0.9"
   id="rect2803"
   width="10.563514"
   height="0.12470525"
   x="-11.171295"
   y="69.255325"
   transform="matrix(0.63830121,-0.7697867,0.78074623,0.62484824,0,0)"
   inkscape:transform-center-x="-1.2250955"
   inkscape:transform-center-y="8.2624212" /><path
   style="fill:#a06f78;fill-opacity:1;stroke:#e27364;stroke-width:0.079994;stroke-opacity:0.9"
   d="M 45.818233,50.933806 C 45.716301,50.761975 43.476907,47.088461 40.841661,42.770429 38.206413,38.4524 36.006993,34.79812 35.954082,34.649825 c -0.08323,-0.233364 16.259179,8.243097 16.705825,8.664928 0.122056,0.115166 -0.743218,1.193486 -3.245058,4.044266 -3.190059,3.634981 -3.42348,3.866868 -3.596577,3.574815 z"
   id="path3397"
   inkscape:transform-center-x="4.3383025"
   inkscape:transform-center-y="3.5698584" /><g
   aria-label="c"
   transform="scale(1.0183464,0.98198413)"
   id="text9344"
   style="font-size:12.5177px;line-height:1.25;font-family:'Segoe Script';-inkscape-font-specification:'Segoe Script';fill:#e0e0e0;stroke-width:0.312942"><path
     d="m 59.316065,5.1883303 q 0,0.2200377 -0.158916,0.3972903 Q 58.992121,5.7689853 58.869878,5.8973407 58.747635,6.0195838 58.637616,6.1234905 58.527597,6.2273972 58.405354,6.3251917 58.28311,6.4168741 58.118082,6.5391173 57.653558,6.875286 57.231819,7.107548 56.81008,7.3336979 56.41279,7.4803897 56.0155,7.6209693 55.624322,7.6820909 q -0.385066,0.061122 -0.776244,0.061122 -0.409515,0 -0.733459,-0.152804 Q 53.790674,7.4314924 53.564524,7.1625574 53.344487,6.8936225 53.228356,6.5391173 53.112225,6.1784999 53.112225,5.7812096 v -0.030561 q 0,-0.4034025 0.103906,-0.8557022 0.103907,-0.4584119 0.287272,-0.9168238 0.189477,-0.4584118 0.452299,-0.8984872 0.262823,-0.4461876 0.580655,-0.8312535 0.128356,-0.152804 0.305608,-0.3239444 0.183365,-0.1772526 0.385066,-0.3239444 0.207814,-0.1466918 0.427851,-0.2383742 0.22615,-0.097795 0.440076,-0.097795 0.146692,0 0.281159,0.091682 0.134468,0.08557 0.250599,0.2261499 0.116131,0.1405796 0.213925,0.3178322 0.0978,0.1711405 0.165028,0.3545052 0.06723,0.1772526 0.103907,0.3422809 0.03667,0.1650282 0.03667,0.2811593 0,0.1772525 -0.110019,0.4584118 -0.110019,0.2811593 -0.262823,0.2811593 -0.220037,0 -0.366729,-0.2994957 -0.05501,-0.1161311 -0.09779,-0.268935 -0.03667,-0.152804 -0.09168,-0.2994958 -0.0489,-0.1466918 -0.134467,-0.2689349 -0.08557,-0.1283554 -0.238375,-0.1894769 -0.152804,0.036673 -0.31172,0.1589161 -0.152804,0.1222431 -0.305608,0.2994957 -0.146691,0.1772526 -0.293383,0.4034025 -0.14058,0.2200377 -0.268935,0.4584119 -0.122243,0.2200377 -0.238374,0.5073091 -0.116131,0.2811593 -0.207814,0.5867672 -0.09168,0.2994957 -0.146692,0.5989915 -0.05501,0.2994958 -0.05501,0.5500942 0,0.1772526 0.08557,0.3606174 0.08557,0.1772526 0.220038,0.3239444 0.14058,0.1466918 0.31172,0.2383742 0.177253,0.091682 0.360617,0.091682 0.9046,0 1.796975,-0.3728416 0.892375,-0.3728417 1.69918,-1.0818521 0.446187,-0.3911781 0.739571,-0.3911781 0.08557,0 0.08557,0.1650283 z"
     id="path2171" /></g><g
   aria-label="ю"
   transform="scale(0.88530924,1.1295488)"
   id="text11307"
   style="font-size:10.0307px;line-height:1.25;font-family:'Segoe Script';-inkscape-font-specification:'Segoe Script';fill:#e0e0e0;stroke-width:0.250765"><path
     d="m 59.391629,94.535099 q 0,-0.01959 -0.02449,-0.03428 -0.01959,-0.01959 -0.04898,-0.04898 -0.02939,-0.02939 -0.05388,-0.07836 -0.01959,-0.04898 -0.01959,-0.137139 0,-0.07836 0.04408,-0.142036 0.04408,-0.06367 0.09306,-0.117547 0.05388,-0.05388 0.09796,-0.09796 0.04898,-0.04408 0.05877,-0.08326 0.08326,-0.470189 0.142036,-0.886502 0.05877,-0.416313 0.07347,-0.695488 0.0049,-0.08326 0,-0.171423 0,-0.08816 -0.0049,-0.176321 -0.0049,-0.06367 -0.0098,-0.122445 0,-0.05877 0,-0.11265 0,-0.05877 0.04408,-0.13224 0.04408,-0.07347 0.107752,-0.137139 0.06857,-0.06367 0.146934,-0.102854 0.08326,-0.04408 0.161627,-0.04408 0.06857,0 0.137139,0.03918 0.06857,0.03428 0.122445,0.102853 0.05388,0.06367 0.08816,0.161628 0.03428,0.09306 0.03428,0.210605 0,0.08816 -0.01469,0.215504 -0.01469,0.127343 -0.03918,0.279175 -0.02449,0.151831 -0.05877,0.318357 -0.02939,0.166525 -0.05877,0.33305 -0.03918,0.230197 -0.07837,0.440803 -0.03428,0.210605 -0.05388,0.362437 0.01959,0.04408 0.03428,0.07837 0.01959,0.02939 0.04898,0.04898 0.02939,0.01959 0.07347,0.02939 0.04898,0.0098 0.127343,0.0098 0.210605,0 0.4457,-0.04408 0.235094,-0.04408 0.4457,-0.112649 0.210605,-0.06857 0.37713,-0.142037 0.171424,-0.07837 0.254686,-0.146934 0.05388,-0.04408 0.117547,-0.117547 0.06857,-0.07347 0.137139,-0.15673 0.06857,-0.08816 0.132241,-0.171423 0.06857,-0.08816 0.117547,-0.151832 0.166525,-0.210605 0.377131,-0.411415 0.210605,-0.20081 0.465291,-0.352642 0.254686,-0.151832 0.548554,-0.24489 0.298766,-0.09306 0.64651,-0.09306 0.264481,0 0.519167,0.13224 0.254686,0.127343 0.450598,0.347744 0.20081,0.220401 0.318357,0.509372 0.122445,0.284072 0.122445,0.597532 0,0.313459 -0.06367,0.573043 -0.05877,0.254685 -0.191014,0.543656 -0.07347,0.151832 -0.254686,0.362437 -0.181218,0.210606 -0.435904,0.435905 -0.249788,0.225298 -0.548554,0.4457 -0.298766,0.220401 -0.607327,0.396722 -0.308562,0.17632 -0.607328,0.284072 -0.293868,0.107752 -0.53386,0.107752 -0.323255,0 -0.553452,-0.107752 -0.230197,-0.112649 -0.377131,-0.28897 -0.146934,-0.181219 -0.215503,-0.411416 -0.06857,-0.230196 -0.06857,-0.465291 0,-0.191014 0.05388,-0.460393 0.05877,-0.274277 0.195912,-0.553452 -0.186116,0.117547 -0.416313,0.186116 -0.225299,0.06857 -0.416313,0.122446 -0.08326,0.02449 -0.186117,0.04408 -0.102853,0.01469 -0.205707,0.02939 -0.09796,0.01469 -0.191015,0.02939 -0.08816,0.01469 -0.151831,0.02449 -0.09796,0.01959 -0.137139,0.07837 -0.03428,0.05388 -0.05388,0.142037 -0.01959,0.08326 -0.05877,0.220401 -0.03918,0.137138 -0.07836,0.284072 -0.04408,0.15673 -0.09306,0.323255 -0.04898,0.166525 -0.08816,0.318357 -0.03428,0.146934 -0.06367,0.274277 -0.02449,0.122445 -0.02449,0.191015 0,0.06367 -0.05388,0.137138 -0.04898,0.07347 -0.117547,0.137139 -0.06367,0.06857 -0.132241,0.112649 -0.06367,0.04408 -0.09796,0.04408 -0.07347,0 -0.142036,-0.04898 -0.06367,-0.04898 -0.11265,-0.112649 -0.04898,-0.06367 -0.07836,-0.127343 -0.02939,-0.06857 -0.02939,-0.102854 0,-0.04408 0.03428,-0.15673 0.03918,-0.112649 0.07837,-0.230196 0.02449,-0.07347 0.06367,-0.20081 0.03918,-0.127343 0.07836,-0.279175 0.04408,-0.15673 0.08326,-0.323255 0.04408,-0.166525 0.07836,-0.313459 0.03428,-0.146934 0.05388,-0.254686 0.01959,-0.11265 0.01959,-0.161628 z m 5.901852,-1.106903 q 0,-0.48978 -0.284073,-0.764057 -0.279174,-0.279175 -0.803239,-0.279175 -0.07347,0 -0.181219,0.05877 -0.107752,0.05877 -0.235095,0.151832 -0.122445,0.08816 -0.249787,0.195912 -0.122446,0.107751 -0.235095,0.210605 -0.107752,0.102854 -0.186116,0.186117 -0.07836,0.08326 -0.107752,0.117547 -0.102854,0.122445 -0.215503,0.337948 -0.107752,0.210606 -0.20081,0.455496 -0.09306,0.24489 -0.15673,0.494678 -0.05877,0.24489 -0.05877,0.431007 0,0.112649 0.02939,0.230196 0.03428,0.117548 0.09796,0.215504 0.06857,0.09306 0.171423,0.156729 0.102854,0.05877 0.239993,0.05877 0.151831,0 0.386926,-0.08816 0.235095,-0.08816 0.494678,-0.244891 0.264481,-0.156729 0.528963,-0.372233 0.269379,-0.215503 0.479984,-0.465291 0.215504,-0.249788 0.347744,-0.524065 0.137139,-0.279174 0.137139,-0.563247 z"
     id="path2213" /></g><g
   aria-label="з"
   transform="scale(1.3725127,0.7285907)"
   id="text16794"
   style="font-size:11.5526px;line-height:1.25;font-family:'Segoe Script';-inkscape-font-specification:'Segoe Script';fill:#e0e0e0;stroke-width:0.288814"><path
     d="m 1.4471916,71.755167 q 0.056409,0 0.090255,0.03949 0.039486,0.03949 0.06205,0.0959 0.022564,0.06205 0.028205,0.135382 0.011282,0.07333 0.011282,0.141022 0,0.129742 0.045127,0.282046 0.050768,0.152305 0.1579457,0.282046 0.1128183,0.129741 0.2876868,0.214355 0.1748684,0.09025 0.4287097,0.09025 0.344096,0 0.7107557,-0.18051 0.3666597,-0.180509 0.6712692,-0.502041 0.3046096,-0.321533 0.4964008,-0.767165 0.1974321,-0.439992 0.1974321,-0.964597 0,-0.485119 -0.1015365,-0.823574 Q 4.4312372,69.459314 4.2676506,69.2506 4.1097049,69.036245 3.9009909,68.940349 q -0.208714,-0.09589 -0.4174279,-0.09589 -0.078973,0 -0.1748685,0.03949 -0.095896,0.03385 -0.1974321,0.09025 -0.095896,0.05077 -0.1974321,0.112818 -0.095896,0.06205 -0.1748685,0.112819 -0.135382,0.09025 -0.2594822,0.152304 -0.1184593,0.06205 -0.3158914,0.06205 -0.1523048,0 -0.2651232,-0.112819 -0.1071774,-0.118459 -0.1071774,-0.31025 0,-0.146664 0.1015365,-0.248201 0.1071775,-0.101536 0.3271733,-0.191791 0.4681961,-0.191791 0.8348558,-0.389223 0.3723006,-0.203073 0.6261419,-0.434351 0.2538413,-0.236918 0.3892233,-0.518964 0.1353821,-0.282046 0.1353821,-0.643065 0,-0.141023 -0.045127,-0.276405 -0.039486,-0.141023 -0.1241002,-0.2482 -0.084614,-0.112819 -0.2087139,-0.18051 -0.1184593,-0.07333 -0.276405,-0.07333 -0.3384551,0 -0.6430647,0.208714 -0.3046095,0.208714 -0.5979373,0.513324 -0.1297411,0.135382 -0.2143548,0.197432 -0.084614,0.05641 -0.1805094,0.05641 -0.078973,0 -0.141023,-0.03949 -0.056409,-0.04513 -0.095896,-0.101537 -0.033846,-0.06205 -0.056409,-0.129741 -0.016923,-0.07333 -0.016923,-0.1241 0,-0.135382 0.073332,-0.253841 0.078973,-0.124101 0.208714,-0.231278 0.2820459,-0.236919 0.55281,-0.389223 0.270764,-0.152305 0.4456325,-0.225637 0.1974321,-0.07897 0.4061461,-0.152305 0.2143548,-0.07333 0.4005051,-0.07333 0.2651232,0 0.5076826,0.0959 0.2425595,0.09025 0.4230689,0.270764 0.1861503,0.174868 0.2933277,0.43435 0.1128184,0.259483 0.1128184,0.586656 0,0.473837 -0.2312777,0.942033 -0.2256367,0.468196 -0.7728057,0.908188 0.3779415,0.01692 0.6599874,0.191791 0.2820459,0.174869 0.4681962,0.462556 0.1917912,0.287686 0.2820459,0.665628 0.095896,0.3723 0.095896,0.789728 0,0.417428 -0.1128184,0.829215 -0.1128183,0.411787 -0.3215323,0.789729 -0.203073,0.377941 -0.4907599,0.699474 -0.2820459,0.321532 -0.6261419,0.55845 -0.338455,0.236919 -0.7276784,0.372301 -0.3835824,0.135382 -0.7897285,0.135382 -0.3892233,0 -0.6769101,-0.129741 -0.2876868,-0.1241 -0.479478,-0.315891 -0.1861503,-0.191792 -0.2820459,-0.411787 -0.0958957,-0.219996 -0.0958957,-0.406147 0,-0.141022 0.0507683,-0.304609 0.0564092,-0.163587 0.12410019,-0.259482 0.045127,-0.06205 0.1297411,-0.129741 0.084614,-0.06205 0.2143549,-0.06205 z"
     id="path2150" /></g><g
   aria-label="в"
   transform="scale(1.3877467,0.72059257)"
   id="text19318"
   style="font-size:12.0302px;line-height:1.25;font-family:'Segoe Script';-inkscape-font-specification:'Segoe Script';fill:#e0e0e0;stroke-width:0.300756"><path
     d="m 77.726752,66.151561 q 0,-0.07049 -0.02937,-0.140979 -0.0235,-0.07636 -0.07636,-0.135105 -0.04699,-0.06462 -0.129231,-0.105734 -0.07636,-0.04112 -0.182097,-0.04112 -0.205595,0 -0.428811,0.146853 -0.217343,0.146853 -0.440559,0.405314 -0.217343,0.252587 -0.422937,0.605035 -0.205594,0.346573 -0.381818,0.751887 -0.176224,0.405315 -0.317203,0.851748 -0.135104,0.440559 -0.217342,0.886992 0.05287,-0.03525 0.158601,-0.111608 0.105734,-0.08224 0.234965,-0.182098 0.135105,-0.105734 0.281958,-0.223217 0.152727,-0.123356 0.287832,-0.240839 0.140979,-0.117482 0.258461,-0.223216 0.117483,-0.105734 0.187972,-0.182098 0.652027,-0.704894 0.933985,-1.221817 0.281958,-0.516923 0.281958,-0.839999 z m -0.182098,6.332302 q -0.182097,0.27021 -0.440559,0.528671 -0.252587,0.252587 -0.558041,0.446433 -0.305455,0.193846 -0.652028,0.305455 -0.340699,0.111608 -0.693146,0.08224 -0.246713,-0.01762 -0.46993,-0.158601 -0.223216,-0.146853 -0.393566,-0.411189 -0.170349,-0.270209 -0.270209,-0.657901 -0.09986,-0.387692 -0.09986,-0.892866 0,-0.323077 0.03524,-0.699021 0.03524,-0.381818 0.09399,-0.76951 0.05874,-0.387692 0.129231,-0.757761 0.07636,-0.37007 0.146853,-0.681398 0.09399,-0.422937 0.246713,-0.834126 0.152727,-0.417062 0.340699,-0.79888 0.187972,-0.387692 0.405314,-0.728391 0.217343,-0.340699 0.446434,-0.616783 0.317202,-0.370069 0.722517,-0.593286 0.411188,-0.223217 0.963355,-0.223217 0.229091,0 0.417063,0.09399 0.187972,0.09399 0.323077,0.246713 0.135104,0.146853 0.205594,0.334825 0.07636,0.187972 0.07636,0.37007 0,0.252587 -0.105734,0.563916 -0.09986,0.305454 -0.293706,0.640279 -0.193846,0.334825 -0.469929,0.675524 -0.276084,0.340699 -0.628531,0.657901 0.08224,0.0059 0.187971,0.02937 0.111609,0.01762 0.229091,0.07049 0.123357,0.05287 0.246713,0.140979 0.129231,0.08811 0.246713,0.223217 0.05287,0.06462 0.117483,0.176223 0.06462,0.105735 0.117482,0.264336 0.05874,0.152727 0.09399,0.352447 0.04112,0.19972 0.04112,0.440559 0,0.46993 -0.17035,1.016223 -0.164475,0.540419 -0.587412,1.163076 z m -0.164475,-2.161676 q 0,-0.323077 -0.09399,-0.54042 -0.09399,-0.223216 -0.223217,-0.352447 -0.12923,-0.135105 -0.264335,-0.187972 -0.135105,-0.05874 -0.217343,-0.05874 -0.07636,0 -0.240838,0.117483 -0.164476,0.117482 -0.352448,0.258461 -0.140979,0.123356 -0.281958,0.229091 -0.140978,0.105734 -0.264335,0.205594 -0.117482,0.09986 -0.217342,0.19972 -0.09986,0.09986 -0.164476,0.211468 -0.164475,0.29958 -0.193846,0.681398 -0.02937,0.381818 -0.02937,0.781258 0,0.264336 0.05287,0.475804 0.05874,0.205594 0.140979,0.352448 0.08811,0.146853 0.187971,0.22909 0.09986,0.07636 0.182098,0.07636 0.19972,0 0.452307,-0.08224 0.252588,-0.08224 0.516923,-0.323077 0.229091,-0.211468 0.411189,-0.475803 0.187971,-0.264336 0.317202,-0.558042 0.135105,-0.293706 0.205594,-0.610908 0.07636,-0.317203 0.07636,-0.628531 z"
     id="path2192" /></g><text
   xml:space="preserve"
   style="font-size:21.6333px;line-height:1.25;font-family:'Segoe Script';-inkscape-font-specification:'Segoe Script';fill:#16272a;fill-opacity:0.799714;stroke-width:0.540834"
   x="10.545434"
   y="68.233429"
   id="text17884"
   transform="scale(1.3459604,0.74296388)"><tspan
     sodipodi:role="line"
     id="tspan17882"
     x="10.545434"
     y="68.233429"
     style="stroke-width:0.540834">_</tspan></text><text
   xml:space="preserve"
   style="font-size:22.4883px;line-height:1.25;font-family:'Segoe Script';-inkscape-font-specification:'Segoe Script';fill:#16272a;fill-opacity:0.799714;stroke-width:0.562207"
   x="61.32159"
   y="70.362282"
   id="text17884-6"
   transform="scale(1.3991516,0.71471886)"><tspan
     sodipodi:role="line"
     id="tspan17882-2"
     x="61.32159"
     y="70.362282"
     style="stroke-width:0.562207">_</tspan></text><text
   xml:space="preserve"
   style="font-size:18.6562px;line-height:1.25;font-family:'Segoe Script';-inkscape-font-specification:'Segoe Script';fill:#16272a;fill-opacity:0.799714;stroke-width:0.466404"
   x="-74.106041"
   y="70.668793"
   id="text17884-0"
   transform="matrix(-0.01845821,-1.355541,0.73697852,-0.05392814,0,0)"><tspan
     sodipodi:role="line"
     id="tspan17882-4"
     x="-74.106041"
     y="70.668793"
     style="stroke-width:0.466404">_</tspan></text><text
   xml:space="preserve"
   style="font-size:21.5601px;line-height:1.25;font-family:'Segoe Script';-inkscape-font-specification:'Segoe Script';fill:#16272a;fill-opacity:0.799714;stroke-width:0.538997"
   x="-17.103895"
   y="74.831322"
   id="text17884-9"
   transform="matrix(5.0385707e-4,-1.3567712,0.7370434,0.00147329,0,0)"><tspan
     sodipodi:role="line"
     id="tspan17882-7"
     x="-17.103895"
     y="74.831322"
     style="stroke-width:0.538997">_</tspan></text></svg>
