<?xml version="1.0" encoding="UTF-8" standalone="no"?>
<!-- Generator: Adobe Illustrator 22.0.1, SVG Export Plug-In . SVG Version: 6.00 Build 0)  -->

<svg
   version="1.1"
   id="Layer_1"
   x="0px"
   y="0px"
   viewBox="0 0 110 110"
   xml:space="preserve"
   sodipodi:docname="northwestWind.svg"
   width="110"
   height="110"
   inkscape:version="1.1.1 (3bf5ae0d25, 2021-09-20)"
   xmlns:inkscape="http://www.inkscape.org/namespaces/inkscape"
   xmlns:sodipodi="http://sodipodi.sourceforge.net/DTD/sodipodi-0.dtd"
   xmlns="http://www.w3.org/2000/svg"
   xmlns:svg="http://www.w3.org/2000/svg"><defs
   id="defs7" /><sodipodi:namedview
   id="namedview5"
   pagecolor="#ffffff"
   bordercolor="#666666"
   borderopacity="1.0"
   inkscape:pageshadow="2"
   inkscape:pageopacity="0.0"
   inkscape:pagecheckerboard="0"
   showgrid="false"
   inkscape:zoom="7.183333"
   inkscape:cx="81.57773"
   inkscape:cy="55.197218"
   inkscape:window-width="2400"
   inkscape:window-height="1321"
   inkscape:window-x="2391"
   inkscape:window-y="-9"
   inkscape:window-maximized="1"
   inkscape:current-layer="Layer_1"
   width="140px" />
<path
   d="M 27.949172,85.899393 C 22.098082,80.579945 17.983195,74.194834 15.607631,66.798614 13.232078,59.402382 12.810962,51.91651 14.344291,44.340983 c 1.533322,-7.575527 4.913552,-14.249677 10.111988,-20.048562 3.892413,-4.34201 8.49166,-7.73036 13.743405,-10.162575 5.251751,-2.432183 10.622355,-3.719415 16.07695,-3.997016 5.454616,-0.2775628 10.945087,0.566232 16.47142,2.531389 5.526352,1.965196 10.453461,4.889157 14.870488,8.904796 4.359655,3.963476 7.778959,8.627485 10.254871,13.937381 2.475904,5.309871 3.843494,10.752771 4.150887,16.216924 0.30739,5.464124 -0.47106,10.978077 -2.338329,16.487198 C 95.81867,73.71964 92.96595,78.643939 89.047922,83.014517 85.129903,87.385122 80.505049,90.802026 75.253289,93.234227 70.001531,95.666413 64.60534,96.982209 59.150725,97.259829 53.696119,97.537425 48.231254,96.66508 42.736674,94.780587 37.242077,92.896111 32.337502,89.888937 27.949172,85.899393 Z m 6.350803,-7.084354 c 6.797612,6.179904 14.908379,9.094794 24.357909,8.716119 9.392149,-0.430837 17.134064,-4.072921 23.305603,-10.95729 4.046071,-4.513416 6.691865,-9.729541 7.857487,-15.617334 1.165607,-5.8878 0.890994,-11.736903 -0.958025,-17.513812 -1.849011,-5.776904 -5.012244,-10.726569 -9.543984,-14.846524 -4.531748,-4.119913 -9.772315,-6.81037 -15.667406,-8.073885 -5.895092,-1.263495 -11.704127,-0.997025 -17.42709,0.799401 -5.722964,1.796438 -10.580331,4.950098 -14.626401,9.463521 -4.046075,4.513409 -6.691855,9.729544 -7.857482,15.617343 -1.165612,5.887781 -0.862321,11.762996 0.961107,17.56845 1.823416,5.805471 5.06654,10.724077 9.598282,14.844011 z m 29.301246,1.285478 -27.99895,-44.897238 c -0.261208,-0.289312 -0.276567,-0.562525 -0.04605,-0.819619 0.230528,-0.257037 0.501928,-0.269542 0.814332,-0.03739 l 47.179358,23.501419 c 0.417961,0.172551 0.6218,0.409736 0.665842,0.709007 0.04398,0.299289 -0.160816,0.527811 -0.614906,0.685308 l -12.614651,6.52253 c -0.370822,0.181351 -0.626902,0.467013 -0.742636,0.828416 l -5.234163,13.38789 c -0.08399,0.442098 -0.263258,0.642053 -0.537487,0.600134 -0.274524,-0.04223 -0.63509,-0.162608 -0.870699,-0.480485 z"
   id="path2"
   style="fill:#2c4f54;fill-opacity:0.5;stroke:#2e3332;stroke-width:0.237745;stroke-miterlimit:4;stroke-dasharray:none;stroke-opacity:0.9" />
<path
   style="fill:#2c4f53;fill-opacity:0.499285;stroke:#e4e7e7;stroke-width:0.237745;stroke-miterlimit:4;stroke-dasharray:none;stroke-opacity:0.9"
   d="m 78.353399,78.218625 c -1.215379,1.094766 -2.642358,2.214244 -3.95382,3.101835 -7.374441,4.990931 -17.70814,6.48085 -26.690237,3.848225 -4.834896,-1.417113 -8.388491,-3.460635 -12.318455,-7.083844 -4.033889,-3.718787 -6.464568,-7.253154 -8.338749,-12.123953 -1.26319,-3.28295 -1.914076,-6.282567 -2.157885,-9.944892 -0.483879,-7.2681 1.100021,-13.812471 4.823283,-19.929341 0.775382,-1.273859 1.15214,-1.752574 3.263003,-4.146071 2.562242,-2.905218 3.367432,-3.649203 5.731679,-5.29584 3.570788,-2.486849 8.402707,-4.435429 12.911925,-5.206985 1.839296,-0.314721 5.713444,-0.469244 7.620958,-0.303935 4.616522,0.400005 9.027031,1.698037 12.731721,3.747042 2.731935,1.510952 3.607549,2.155289 6.306632,4.640763 1.903967,1.753393 2.67544,2.534914 3.384612,3.429429 4.307036,5.432337 6.820744,12.108458 7.183045,19.077426 0.371029,7.13732 -1.466571,14.134477 -5.243297,19.965213 -0.870612,1.344106 -4.153122,5.232888 -5.2544,6.22496 z M 67.152031,72.821017 c 1.406869,-3.635198 2.622135,-6.73204 2.700581,-6.881862 0.09678,-0.184926 2.217633,-1.368923 6.604075,-3.686891 3.719504,-1.965557 6.503047,-3.508208 6.559503,-3.63532 0.116948,-0.263468 -0.146499,-0.702358 -0.571897,-0.952687 C 82.275398,57.564887 71.999433,52.399847 59.608785,46.186392 37.896098,35.298279 37.068975,34.895376 36.766577,35.059731 c -0.233677,0.127066 -0.309711,0.237778 -0.297635,0.434319 0.02003,0.325087 26.518503,43.595479 26.929307,43.973672 0.371132,0.341743 0.977058,0.431131 1.102417,0.162673 0.05125,-0.11005 1.244478,-3.174204 2.651348,-6.809402 z"
   id="path861" /><rect
   style="fill:#c7485e;fill-opacity:1;stroke:#3c4343;stroke-width:0.965588;stroke-opacity:0.9"
   id="rect2803"
   width="10.563514"
   height="0.12470525"
   x="-11.171295"
   y="69.255325"
   transform="matrix(0.63830121,-0.7697867,0.78074623,0.62484824,0,0)"
   inkscape:transform-center-x="-1.2250955"
   inkscape:transform-center-y="8.2624212" /><path
   style="fill:#a06f78;fill-opacity:1;stroke:#e27364;stroke-width:0.079994;stroke-opacity:0.9"
   d="M 45.818233,50.933806 C 45.716301,50.761975 43.476907,47.088461 40.841661,42.770429 38.206413,38.4524 36.006993,34.79812 35.954082,34.649825 c -0.08323,-0.233364 16.259179,8.243097 16.705825,8.664928 0.122056,0.115166 -0.743218,1.193486 -3.245058,4.044266 -3.190059,3.634981 -3.42348,3.866868 -3.596577,3.574815 z"
   id="path3397"
   inkscape:transform-center-x="4.3383025"
   inkscape:transform-center-y="3.5698584" /><text
   xml:space="preserve"
   style="font-size:12.5177px;line-height:1.25;font-family:'Segoe Script';-inkscape-font-specification:'Segoe Script';fill:#e0e0e0;fill-opacity:1;stroke-width:0.312942"
   x="52.329868"
   y="7.7187638"
   id="text9344"
   transform="scale(1.0183464,0.98198413)"><tspan
     sodipodi:role="line"
     id="tspan9342"
     x="52.329868"
     y="7.7187638"
     style="fill:#e0e0e0;fill-opacity:1;stroke-width:0.312942">c</tspan></text><text
   xml:space="preserve"
   style="font-size:10.0307px;line-height:1.25;font-family:'Segoe Script';-inkscape-font-specification:'Segoe Script';fill:#e0e0e0;fill-opacity:1;stroke-width:0.250765"
   x="58.079018"
   y="96.557892"
   id="text11307"
   transform="scale(0.88530924,1.1295488)"><tspan
     sodipodi:role="line"
     id="tspan11305"
     x="58.079018"
     y="96.557892"
     style="fill:#e0e0e0;fill-opacity:1;stroke-width:0.250765">ю</tspan></text><text
   xml:space="preserve"
   style="font-size:11.5526px;line-height:1.25;font-family:'Segoe Script';-inkscape-font-specification:'Segoe Script';fill:#e0e0e0;fill-opacity:1;stroke-width:0.288814"
   x="0.61797667"
   y="71.303894"
   id="text16794"
   transform="scale(1.3725127,0.7285907)"><tspan
     sodipodi:role="line"
     id="tspan16792"
     x="0.61797667"
     y="71.303894"
     style="fill:#e0e0e0;fill-opacity:1;stroke-width:0.288814">з</tspan></text><text
   xml:space="preserve"
   style="font-size:12.0302px;line-height:1.25;font-family:'Segoe Script';-inkscape-font-specification:'Segoe Script';fill:#e0e0e0;fill-opacity:1;stroke-width:0.300756"
   x="73.168434"
   y="73.699806"
   id="text19318"
   transform="scale(1.3877467,0.72059257)"><tspan
     sodipodi:role="line"
     id="tspan19316"
     x="73.168434"
     y="73.699806"
     style="fill:#e0e0e0;fill-opacity:1;stroke-width:0.300756">в</tspan></text><text
   xml:space="preserve"
   style="font-size:21.6333px;line-height:1.25;font-family:'Segoe Script';-inkscape-font-specification:'Segoe Script';fill:#16272a;fill-opacity:0.799714;stroke-width:0.540834"
   x="10.545434"
   y="68.233429"
   id="text17884"
   transform="scale(1.3459604,0.74296388)"><tspan
     sodipodi:role="line"
     id="tspan17882"
     x="10.545434"
     y="68.233429"
     style="stroke-width:0.540834">_</tspan></text><text
   xml:space="preserve"
   style="font-size:22.4883px;line-height:1.25;font-family:'Segoe Script';-inkscape-font-specification:'Segoe Script';fill:#16272a;fill-opacity:0.799714;stroke-width:0.562207"
   x="61.32159"
   y="70.362282"
   id="text17884-6"
   transform="scale(1.3991516,0.71471886)"><tspan
     sodipodi:role="line"
     id="tspan17882-2"
     x="61.32159"
     y="70.362282"
     style="stroke-width:0.562207">_</tspan></text><text
   xml:space="preserve"
   style="font-size:18.6562px;line-height:1.25;font-family:'Segoe Script';-inkscape-font-specification:'Segoe Script';fill:#16272a;fill-opacity:0.799714;stroke-width:0.466404"
   x="-74.106041"
   y="70.668793"
   id="text17884-0"
   transform="matrix(-0.01845821,-1.355541,0.73697852,-0.05392814,0,0)"><tspan
     sodipodi:role="line"
     id="tspan17882-4"
     x="-74.106041"
     y="70.668793"
     style="stroke-width:0.466404">_</tspan></text><text
   xml:space="preserve"
   style="font-size:21.5601px;line-height:1.25;font-family:'Segoe Script';-inkscape-font-specification:'Segoe Script';fill:#16272a;fill-opacity:0.799714;stroke-width:0.538997"
   x="-17.103895"
   y="74.831322"
   id="text17884-9"
   transform="matrix(5.0385707e-4,-1.3567712,0.7370434,0.00147329,0,0)"><tspan
     sodipodi:role="line"
     id="tspan17882-7"
     x="-17.103895"
     y="74.831322"
     style="stroke-width:0.538997">_</tspan></text></svg>
