<?xml version="1.0" encoding="UTF-8" standalone="no"?>
<!-- Generator: Adobe Illustrator 22.0.1, SVG Export Plug-In . SVG Version: 6.00 Build 0)  -->

<svg
   version="1.1"
   id="Layer_1"
   x="0px"
   y="0px"
   viewBox="0 0 110 110"
   xml:space="preserve"
   sodipodi:docname="northEastWind.svg"
   width="110"
   height="110"
   inkscape:version="1.1.1 (3bf5ae0d25, 2021-09-20)"
   xmlns:inkscape="http://www.inkscape.org/namespaces/inkscape"
   xmlns:sodipodi="http://sodipodi.sourceforge.net/DTD/sodipodi-0.dtd"
   xmlns="http://www.w3.org/2000/svg"
   xmlns:svg="http://www.w3.org/2000/svg"><defs
   id="defs7" /><sodipodi:namedview
   id="namedview5"
   pagecolor="#ffffff"
   bordercolor="#666666"
   borderopacity="1.0"
   inkscape:pageshadow="2"
   inkscape:pageopacity="0.0"
   inkscape:pagecheckerboard="0"
   showgrid="false"
   inkscape:zoom="2"
   inkscape:cx="-22"
   inkscape:cy="15.25"
   inkscape:window-width="2400"
   inkscape:window-height="1321"
   inkscape:window-x="2391"
   inkscape:window-y="-9"
   inkscape:window-maximized="1"
   inkscape:current-layer="Layer_1"
   width="140px" />
<path
   d="m 24.056243,25.810008 c 5.312374,-5.703243 11.653809,-9.682529 18.970446,-11.935486 7.316643,-2.252954 14.697931,-2.57855 22.143894,-0.976793 7.445962,1.601749 13.981374,5.013031 19.632316,10.20586 4.231234,3.888221 7.514223,8.461693 9.847177,13.66684 2.332923,5.205148 3.536236,10.513753 3.743679,15.893091 0.207428,5.379342 -0.690496,10.780631 -2.693844,16.203859 -2.003356,5.42325 -4.944169,10.244431 -8.954486,14.54984 -3.958225,4.249479 -8.595325,7.563791 -13.857413,9.940589 -5.262075,2.376782 -10.6418,3.65963 -16.029612,3.897291 -5.387795,0.237683 -10.81153,-0.59544 -16.217313,-2.501638 -5.405781,-1.906229 -10.22338,-4.776687 -14.482456,-8.690498 -4.259097,-3.9138 -7.56991,-8.512847 -9.902852,-13.718007 -2.332928,-5.205158 -3.564069,-10.539322 -3.771535,-15.91866 -0.207447,-5.379342 0.718336,-10.755048 2.641781,-16.147948 1.923416,-5.392923 4.945952,-10.190909 8.930218,-14.46834 z m 6.903614,6.343956 c -6.171712,6.625835 -9.142159,14.584916 -8.88351,23.902829 0.310734,9.261987 3.805661,16.935878 10.514403,23.100765 4.398258,4.041725 9.505915,6.711712 15.293323,7.930898 5.787415,1.219171 11.554151,1.018409 17.268821,-0.734947 C 70.867557,84.60017 75.783025,81.541652 79.897516,77.124428 84.011975,72.707207 86.7265,67.574289 88.042919,61.779223 89.35932,55.984161 89.167131,50.255638 87.466353,44.593663 85.765573,38.931681 82.716959,34.10662 78.318691,30.064905 73.920432,26.023188 68.812778,23.353192 63.025359,22.134009 57.237963,20.914845 51.445163,21.143565 45.702666,22.871343 39.960165,24.59912 35.074335,27.736742 30.959857,32.153964 Z m -1.62163,28.863742 44.578642,-27.059081 c 0.288238,-0.253985 0.557636,-0.265866 0.808171,-0.0356 0.250464,0.230292 0.259514,0.497914 0.02698,0.803048 L 51.02335,80.944881 c -0.175088,0.409878 -0.411268,0.607944 -0.70669,0.647783 -0.295435,0.03975 -0.518125,-0.164808 -0.66809,-0.613939 L 43.374433,68.467882 C 43.200231,68.100238 42.92186,67.844433 42.567149,67.72605 L 29.438816,62.407323 c -0.434598,-0.08806 -0.629454,-0.267136 -0.584563,-0.537203 0.04493,-0.270058 0.167914,-0.623997 0.483992,-0.852416 z"
   id="path2"
   style="fill:#2c4f54;fill-opacity:0.5;stroke:#2e3332;stroke-width:0.234308;stroke-miterlimit:4;stroke-dasharray:none;stroke-opacity:0.9" />
<path
   style="fill:#2c4f53;fill-opacity:0.499285;stroke:#e4e7e7;stroke-width:0.234308;stroke-miterlimit:4;stroke-dasharray:none;stroke-opacity:0.9"
   d="m 31.048824,75.446879 c -1.060835,-1.213689 -2.142909,-2.636277 -2.998203,-3.941666 -4.809266,-7.340268 -6.125465,-17.546315 -3.39953,-26.360545 1.467335,-4.744539 3.533061,-8.217194 7.160809,-12.03789 3.723441,-3.921758 7.241621,-6.266108 12.068421,-8.042636 3.253301,-1.197369 6.218433,-1.795372 9.830553,-1.982596 7.168467,-0.371535 13.593453,1.284305 19.56579,5.042444 1.243755,0.78264 1.709902,1.160889 4.037243,3.275952 2.824877,2.567368 3.546118,3.371699 5.133835,5.72566 2.397859,3.55526 4.246823,8.345641 4.940799,12.800916 0.283071,1.817292 0.378397,5.63773 0.187503,7.515301 -0.461961,4.544051 -1.805746,8.87205 -3.879084,12.493548 -1.52891,2.670588 -2.17665,3.524213 -4.665273,6.148298 -1.755621,1.851056 -2.536995,2.600064 -3.428798,3.286026 -5.415844,4.166116 -12.030851,6.546775 -18.902801,6.802843 -7.03795,0.262236 -13.905348,-1.650222 -19.594961,-5.456899 -1.311575,-0.877522 -5.095036,-4.168973 -6.056338,-5.268744 z m 5.482921,-10.961372 c 3.561143,1.439238 6.594648,2.681825 6.741117,2.761313 0.180789,0.09806 1.316232,2.205441 3.535713,6.562128 1.882035,3.694266 3.36113,6.459971 3.485548,6.517449 0.257884,0.119074 0.694195,-0.1342 0.947099,-0.549828 C 51.341632,79.61157 56.581785,69.558841 62.886048,57.437188 73.933296,36.195863 74.34243,35.386527 74.184935,35.086106 74.063187,34.853951 73.955216,34.777407 73.76135,34.786497 c -0.320621,0.01482 -43.344885,25.503741 -43.723569,25.903131 -0.342151,0.360849 -0.439155,0.956701 -0.176481,1.084144 0.107687,0.05209 3.109312,1.2725 6.670453,2.711736 z"
   id="path861" /><rect
   style="fill:#c7485e;fill-opacity:1;stroke:#3c4343;stroke-width:1.0061;stroke-opacity:0.9"
   id="rect2803"
   width="11.03991"
   height="0.12954405"
   x="72.267677"
   y="-4.5628891"
   transform="matrix(0.74540537,0.66661145,-0.67810496,0.73496508,0,0)"
   inkscape:transform-center-x="8.8096873"
   inkscape:transform-center-y="0.78582982" /><path
   style="fill:#a06f78;fill-opacity:1;stroke:#e27364;stroke-width:0.0788376;stroke-opacity:0.9"
   d="m 58.233145,43.914733 c 0.169727,-0.09978 3.798263,-2.293161 8.063454,-4.874238 4.265186,-2.581075 7.874619,-4.735077 8.020951,-4.786667 0.230281,-0.08118 -8.1854,15.994721 -8.602793,16.433362 -0.113975,0.119854 -1.173221,-0.737087 -3.972798,-3.213866 -3.569695,-3.158099 -3.7973,-3.389047 -3.508846,-3.558555 z"
   id="path3397"
   inkscape:transform-center-x="3.4881732"
   inkscape:transform-center-y="-4.2750694" /><text
   xml:space="preserve"
   style="font-size:12.3367px;line-height:1.25;font-family:'Segoe Script';-inkscape-font-specification:'Segoe Script';fill:#e0e0e0;fill-opacity:1;stroke-width:0.308418"
   x="51.749191"
   y="7.5024929"
   id="text9344"
   transform="scale(1.0253916,0.97523714)"><tspan
     sodipodi:role="line"
     id="tspan9342"
     x="51.749191"
     y="7.5024929"
     style="fill:#e0e0e0;fill-opacity:1;stroke-width:0.308418">c</tspan></text><text
   xml:space="preserve"
   style="font-size:9.88567px;line-height:1.25;font-family:'Segoe Script';-inkscape-font-specification:'Segoe Script';fill:#e0e0e0;fill-opacity:1;stroke-width:0.24714"
   x="57.44165"
   y="95.071053"
   id="text11307"
   transform="scale(0.89143409,1.1217879)"><tspan
     sodipodi:role="line"
     id="tspan11305"
     x="57.44165"
     y="95.071053"
     style="fill:#e0e0e0;fill-opacity:1;stroke-width:0.24714">ю</tspan></text><text
   xml:space="preserve"
   style="font-size:11.3856px;line-height:1.25;font-family:'Segoe Script';-inkscape-font-specification:'Segoe Script';fill:#e0e0e0;fill-opacity:1;stroke-width:0.284637"
   x="0.73947948"
   y="70.132042"
   id="text16794"
   transform="scale(1.3820082,0.72358473)"><tspan
     sodipodi:role="line"
     id="tspan16792"
     x="0.73947948"
     y="70.132042"
     style="fill:#e0e0e0;fill-opacity:1;stroke-width:0.284637">з</tspan></text><text
   xml:space="preserve"
   style="font-size:11.8563px;line-height:1.25;font-family:'Segoe Script';-inkscape-font-specification:'Segoe Script';fill:#e0e0e0;fill-opacity:1;stroke-width:0.296408"
   x="72.239723"
   y="72.491737"
   id="text19318"
   transform="scale(1.3973476,0.71564156)"><tspan
     sodipodi:role="line"
     id="tspan19316"
     x="72.239723"
     y="72.491737"
     style="fill:#e0e0e0;fill-opacity:1;stroke-width:0.296408">в</tspan></text><text
   xml:space="preserve"
   style="font-size:20.7242px;line-height:1.25;font-family:'Segoe Script';-inkscape-font-specification:'Segoe Script';fill:#16272a;fill-opacity:0.799714;stroke-width:0.5181"
   x="10.321042"
   y="65.23098"
   id="text17884"
   transform="scale(1.3173515,0.75909882)"><tspan
     sodipodi:role="line"
     id="tspan17882"
     x="10.321042"
     y="65.23098"
     style="stroke-width:0.5181">_</tspan></text><text
   xml:space="preserve"
   style="font-size:21.1094px;line-height:1.25;font-family:'Segoe Script';-inkscape-font-specification:'Segoe Script';fill:#16272a;fill-opacity:0.799714;stroke-width:0.527733"
   x="63.522297"
   y="65.910759"
   id="text17884-6"
   transform="scale(1.3418411,0.74524474)"><tspan
     sodipodi:role="line"
     id="tspan17882-2"
     x="63.522297"
     y="65.910759"
     style="stroke-width:0.527733">_</tspan></text><text
   xml:space="preserve"
   style="font-size:18.5442px;line-height:1.25;font-family:'Segoe Script';-inkscape-font-specification:'Segoe Script';fill:#16272a;fill-opacity:0.799714;stroke-width:0.463603"
   x="-73.240257"
   y="70.499855"
   id="text17884-0"
   transform="matrix(-0.01842792,-1.3577689,0.73576922,-0.05401677,0,0)"><tspan
     sodipodi:role="line"
     id="tspan17882-4"
     x="-73.240257"
     y="70.499855"
     style="stroke-width:0.463603">_</tspan></text><text
   xml:space="preserve"
   style="font-size:20.9276px;line-height:1.25;font-family:'Segoe Script';-inkscape-font-specification:'Segoe Script';fill:#16272a;fill-opacity:0.799714;stroke-width:0.523189"
   x="-17.059481"
   y="72.876198"
   id="text17884-9"
   transform="matrix(5.1511628e-4,-1.3271154,0.75351342,0.00144108,0,0)"><tspan
     sodipodi:role="line"
     id="tspan17882-7"
     x="-17.059481"
     y="72.876198"
     style="stroke-width:0.523189">_</tspan></text></svg>
