<?xml version="1.0" encoding="UTF-8" standalone="no"?>
<!-- Generator: Adobe Illustrator 22.0.1, SVG Export Plug-In . SVG Version: 6.00 Build 0)  -->

<svg
   version="1.1"
   id="Layer_1"
   x="0px"
   y="0px"
   viewBox="0 0 110 110"
   xml:space="preserve"
   sodipodi:docname="northEastWind.svg"
   width="110"
   height="110"
   inkscape:version="1.1.1 (3bf5ae0d25, 2021-09-20)"
   xmlns:inkscape="http://www.inkscape.org/namespaces/inkscape"
   xmlns:sodipodi="http://sodipodi.sourceforge.net/DTD/sodipodi-0.dtd"
   xmlns="http://www.w3.org/2000/svg"
   xmlns:svg="http://www.w3.org/2000/svg"><defs
   id="defs7" /><sodipodi:namedview
   id="namedview5"
   pagecolor="#ffffff"
   bordercolor="#666666"
   borderopacity="1.0"
   inkscape:pageshadow="2"
   inkscape:pageopacity="0.0"
   inkscape:pagecheckerboard="0"
   showgrid="false"
   inkscape:zoom="8"
   inkscape:cx="48.4375"
   inkscape:cy="52.1875"
   inkscape:window-width="2400"
   inkscape:window-height="1321"
   inkscape:window-x="2391"
   inkscape:window-y="-9"
   inkscape:window-maximized="1"
   inkscape:current-layer="Layer_1"
   width="140px" />
<path
   d="m 24.056243,25.810008 c 5.312374,-5.703243 11.653809,-9.682529 18.970446,-11.935486 7.316643,-2.252954 14.697931,-2.57855 22.143894,-0.976793 7.445962,1.601749 13.981374,5.013031 19.632316,10.20586 4.231234,3.888221 7.514223,8.461693 9.847177,13.66684 2.332923,5.205148 3.536236,10.513753 3.743679,15.893091 0.207428,5.379342 -0.690496,10.780631 -2.693844,16.203859 -2.003356,5.42325 -4.944169,10.244431 -8.954486,14.54984 -3.958225,4.249479 -8.595325,7.563791 -13.857413,9.940589 -5.262075,2.376782 -10.6418,3.65963 -16.029612,3.897291 -5.387795,0.237683 -10.81153,-0.59544 -16.217313,-2.501638 -5.405781,-1.906229 -10.22338,-4.776687 -14.482456,-8.690498 -4.259097,-3.9138 -7.56991,-8.512847 -9.902852,-13.718007 -2.332928,-5.205158 -3.564069,-10.539322 -3.771535,-15.91866 -0.207447,-5.379342 0.718336,-10.755048 2.641781,-16.147948 1.923416,-5.392923 4.945952,-10.190909 8.930218,-14.46834 z m 6.903614,6.343956 c -6.171712,6.625835 -9.142159,14.584916 -8.88351,23.902829 0.310734,9.261987 3.805661,16.935878 10.514403,23.100765 4.398258,4.041725 9.505915,6.711712 15.293323,7.930898 5.787415,1.219171 11.554151,1.018409 17.268821,-0.734947 C 70.867557,84.60017 75.783025,81.541652 79.897516,77.124428 84.011975,72.707207 86.7265,67.574289 88.042919,61.779223 89.35932,55.984161 89.167131,50.255638 87.466353,44.593663 85.765573,38.931681 82.716959,34.10662 78.318691,30.064905 73.920432,26.023188 68.812778,23.353192 63.025359,22.134009 57.237963,20.914845 51.445163,21.143565 45.702666,22.871343 39.960165,24.59912 35.074335,27.736742 30.959857,32.153964 Z m -1.62163,28.863742 44.578642,-27.059081 c 0.288238,-0.253985 0.557636,-0.265866 0.808171,-0.0356 0.250464,0.230292 0.259514,0.497914 0.02698,0.803048 L 51.02335,80.944881 c -0.175088,0.409878 -0.411268,0.607944 -0.70669,0.647783 -0.295435,0.03975 -0.518125,-0.164808 -0.66809,-0.613939 L 43.374433,68.467882 C 43.200231,68.100238 42.92186,67.844433 42.567149,67.72605 L 29.438816,62.407323 c -0.434598,-0.08806 -0.629454,-0.267136 -0.584563,-0.537203 0.04493,-0.270058 0.167914,-0.623997 0.483992,-0.852416 z"
   id="path2"
   style="fill:#2c4f54;fill-opacity:0.5;stroke:#2e3332;stroke-width:0.234308;stroke-miterlimit:4;stroke-dasharray:none;stroke-opacity:0.9" />
<path
   style="fill:#2c4f53;fill-opacity:0.499285;stroke:#e4e7e7;stroke-width:0.236582;stroke-miterlimit:4;stroke-dasharray:none;stroke-opacity:0.9"
   d="M 31.109235,76.058599 C 30.040182,74.830746 28.949726,73.391556 28.087806,72.070932 23.241284,64.645 21.914889,54.319845 24.661941,45.402749 c 1.478702,-4.79991 3.56043,-8.313092 7.216281,-12.178377 3.752286,-3.967527 7.29772,-6.339236 12.161912,-8.136497 3.278503,-1.211343 6.266606,-1.816325 9.906708,-2.005734 7.223999,-0.375871 13.698757,1.299294 19.71736,5.101292 1.25339,0.791773 1.723148,1.174437 4.068519,3.314183 2.84676,2.597331 3.573588,3.411048 5.173605,5.792481 2.416435,3.596752 4.279722,8.443038 4.979074,12.950308 0.285264,1.838501 0.381328,5.703525 0.188956,7.603008 -0.46554,4.597082 -1.819735,8.97559 -3.909135,12.639353 -1.540754,2.701754 -2.193511,3.565342 -4.701413,6.220051 -1.769221,1.872658 -2.556649,2.630408 -3.45536,3.324375 -5.457799,4.214736 -12.124051,6.623179 -19.049236,6.882235 C 49.866741,87.174723 42.946143,85.239946 37.212455,81.388844 35.890719,80.501081 32.077949,77.171217 31.1092,76.058611 Z m 5.525396,-11.089296 c 3.58873,1.456035 6.645735,2.713123 6.793338,2.793539 0.18219,0.0992 1.326429,2.23118 3.563103,6.638711 1.896615,3.737379 3.387168,6.535361 3.51255,6.59351 0.259882,0.120464 0.699573,-0.135766 0.954436,-0.556245 0.101188,-0.166924 5.381935,-10.336973 11.735035,-22.60009 11.132828,-21.48922 11.545132,-22.308002 11.386416,-22.611929 -0.122691,-0.234864 -0.231498,-0.312301 -0.426866,-0.303105 -0.323105,0.01499 -43.680666,25.80138 -44.062283,26.205431 -0.344802,0.36506 -0.442557,0.967866 -0.177848,1.096796 0.108521,0.0527 3.133399,1.287351 6.722127,2.743383 z"
   id="path861" /><rect
   style="fill:#c7485e;fill-opacity:1;stroke:#3c4343;stroke-width:1.0061;stroke-opacity:0.9"
   id="rect2803"
   width="11.03991"
   height="0.12954405"
   x="72.267677"
   y="-4.5628891"
   transform="matrix(0.74540537,0.66661145,-0.67810496,0.73496508,0,0)"
   inkscape:transform-center-x="8.8096873"
   inkscape:transform-center-y="0.78582982" /><path
   style="fill:#a06f78;fill-opacity:1;stroke:#e27364;stroke-width:0.0788376;stroke-opacity:0.9"
   d="m 58.233145,43.914733 c 0.169727,-0.09978 3.798263,-2.293161 8.063454,-4.874238 4.265186,-2.581075 7.874619,-4.735077 8.020951,-4.786667 0.230281,-0.08118 -8.1854,15.994721 -8.602793,16.433362 -0.113975,0.119854 -1.173221,-0.737087 -3.972798,-3.213866 -3.569695,-3.158099 -3.7973,-3.389047 -3.508846,-3.558555 z"
   id="path3397"
   inkscape:transform-center-x="3.4881732"
   inkscape:transform-center-y="-4.2750694" /><g
   aria-label="c"
   transform="scale(1.0253916,0.97523714)"
   id="text9344"
   style="font-size:12.3367px;line-height:1.25;font-family:'Segoe Script';-inkscape-font-specification:'Segoe Script';fill:#e0e0e0;stroke-width:0.308418"><path
     d="m 58.634371,5.0086482 q 0,0.216856 -0.156618,0.3915457 -0.162642,0.1807133 -0.283118,0.3072127 -0.120475,0.1204756 -0.228903,0.2228799 -0.108428,0.1024042 -0.228904,0.1987847 -0.120475,0.090357 -0.283118,0.2108323 -0.457807,0.3313078 -0.873448,0.5602115 -0.41564,0.2228798 -0.807186,0.3674505 -0.391546,0.1385469 -0.777068,0.1987847 -0.379498,0.060238 -0.76502,0.060238 -0.403593,0 -0.722853,-0.1505945 Q 53.188875,7.2193753 52.965995,6.954329 52.749139,6.6892827 52.634687,6.3399035 52.520235,5.9845005 52.520235,5.5929548 v -0.030119 q 0,-0.3975694 0.102404,-0.8433291 0.102405,-0.4517835 0.283118,-0.903567 0.186737,-0.4517834 0.44576,-0.8854955 0.259022,-0.4397359 0.572259,-0.8192341 0.126499,-0.1505944 0.301189,-0.3192603 0.180713,-0.1746896 0.379498,-0.3192603 0.204808,-0.1445707 0.421664,-0.2349274 0.22288,-0.09638 0.433712,-0.09638 0.144571,0 0.277094,0.090357 0.132523,0.084333 0.246975,0.2228799 0.114452,0.1385469 0.210833,0.3132365 0.09638,0.1686658 0.162642,0.3493792 0.06626,0.1746896 0.102404,0.3373317 0.03614,0.162642 0.03614,0.2770938 0,0.1746896 -0.108428,0.4517835 -0.108429,0.2770939 -0.259023,0.2770939 -0.216856,0 -0.361427,-0.2951652 -0.05421,-0.1144519 -0.09638,-0.2650463 -0.03614,-0.1505945 -0.09036,-0.2951652 -0.04819,-0.1445707 -0.132523,-0.2650463 -0.08433,-0.1264994 -0.234927,-0.1867372 -0.150595,0.036143 -0.307213,0.1566183 -0.150595,0.1204756 -0.301189,0.2951652 -0.144571,0.1746896 -0.289142,0.3975694 -0.138547,0.2168561 -0.265046,0.4517835 -0.120476,0.216856 -0.234927,0.4999737 -0.114452,0.2770938 -0.204809,0.5782828 -0.09036,0.2951652 -0.144571,0.5903304 -0.05421,0.2951652 -0.05421,0.5421402 0,0.1746896 0.08433,0.3554029 0.08433,0.1746897 0.216856,0.3192604 0.138547,0.1445707 0.307213,0.2349274 0.17469,0.090357 0.355403,0.090357 0.89152,0 1.770991,-0.3674506 0.879472,-0.3674505 1.674611,-1.066209 0.439736,-0.3855219 0.728877,-0.3855219 0.08433,0 0.08433,0.1626421 z"
     id="path1961" /></g><g
   aria-label="ю"
   transform="scale(0.89143409,1.1217879)"
   id="text11307"
   style="font-size:9.88567px;line-height:1.25;font-family:'Segoe Script';-inkscape-font-specification:'Segoe Script';fill:#e0e0e0;stroke-width:0.24714"><path
     d="m 58.735283,93.077507 q 0,-0.01931 -0.02414,-0.03379 -0.01931,-0.01931 -0.04827,-0.04827 -0.02896,-0.02896 -0.0531,-0.07723 -0.01931,-0.04827 -0.01931,-0.135155 0,-0.07723 0.04344,-0.139983 0.04344,-0.06275 0.09171,-0.115848 0.0531,-0.0531 0.09654,-0.09654 0.04827,-0.04344 0.05792,-0.08206 0.08206,-0.463391 0.139982,-0.873685 0.05792,-0.410294 0.07241,-0.685432 0.0048,-0.08206 0,-0.168945 0,-0.08688 -0.0048,-0.173771 -0.0048,-0.06275 -0.0097,-0.120675 0,-0.05792 0,-0.111021 0,-0.05792 0.04344,-0.130328 0.04344,-0.0724 0.106194,-0.135156 0.06758,-0.06275 0.144809,-0.101367 0.08206,-0.04344 0.159291,-0.04344 0.06758,0 0.135155,0.03861 0.06758,0.03379 0.120675,0.101367 0.0531,0.06275 0.08689,0.159291 0.03379,0.09171 0.03379,0.20756 0,0.08689 -0.01448,0.212388 -0.01448,0.125501 -0.03862,0.275138 -0.02414,0.149637 -0.05792,0.313754 -0.02896,0.164118 -0.05792,0.328235 -0.03862,0.226869 -0.07723,0.434429 -0.03379,0.20756 -0.0531,0.357197 0.01931,0.04344 0.03379,0.07723 0.01931,0.02896 0.04827,0.04827 0.02896,0.01931 0.0724,0.02896 0.04827,0.0097 0.125502,0.0097 0.20756,0 0.439256,-0.04344 0.231695,-0.04344 0.439256,-0.111021 0.20756,-0.06758 0.371678,-0.139983 0.168944,-0.07723 0.251003,-0.144809 0.0531,-0.04344 0.115848,-0.115848 0.06758,-0.07241 0.135155,-0.154463 0.06758,-0.08689 0.130329,-0.168945 0.06758,-0.08689 0.115848,-0.149637 0.164117,-0.20756 0.371678,-0.405467 0.20756,-0.197906 0.458563,-0.347543 0.251004,-0.149636 0.540623,-0.241349 0.294446,-0.09171 0.637162,-0.09171 0.260658,0 0.511661,0.130329 0.251003,0.125502 0.444083,0.342716 0.197906,0.217214 0.313754,0.502007 0.120675,0.279965 0.120675,0.588892 0,0.308927 -0.06275,0.564758 -0.05792,0.251003 -0.188253,0.535795 -0.07241,0.149637 -0.251003,0.357197 -0.178599,0.207561 -0.429602,0.429602 -0.246176,0.222042 -0.540623,0.439256 -0.294446,0.217214 -0.598546,0.390986 -0.3041,0.173771 -0.598546,0.279965 -0.28962,0.106194 -0.526142,0.106194 -0.318581,0 -0.54545,-0.106194 -0.226868,-0.111021 -0.371678,-0.284792 -0.144809,-0.178599 -0.212387,-0.405467 -0.06758,-0.226868 -0.06758,-0.458564 0,-0.188252 0.0531,-0.453737 0.05792,-0.270311 0.19308,-0.545449 -0.183426,0.115848 -0.410294,0.183425 -0.222042,0.06758 -0.410294,0.120675 -0.08206,0.02414 -0.183426,0.04344 -0.101367,0.01448 -0.202733,0.02896 -0.09654,0.01448 -0.188253,0.02896 -0.08689,0.01448 -0.149636,0.02414 -0.09654,0.01931 -0.135156,0.07723 -0.03379,0.0531 -0.0531,0.139982 -0.01931,0.08206 -0.05792,0.217215 -0.03862,0.135155 -0.07723,0.279965 -0.04344,0.154463 -0.09171,0.318581 -0.04827,0.164118 -0.08689,0.313754 -0.03379,0.14481 -0.06275,0.270311 -0.02414,0.120675 -0.02414,0.188253 0,0.06275 -0.0531,0.135156 -0.04827,0.0724 -0.115847,0.135155 -0.06275,0.06758 -0.130329,0.111021 -0.06275,0.04344 -0.09654,0.04344 -0.0724,0 -0.139982,-0.04827 -0.06275,-0.04827 -0.111021,-0.111021 -0.04827,-0.06275 -0.07723,-0.125501 -0.02896,-0.06758 -0.02896,-0.101367 0,-0.04344 0.03379,-0.154464 0.03862,-0.11102 0.07723,-0.226868 0.02414,-0.0724 0.06275,-0.197907 0.03862,-0.125501 0.07723,-0.275138 0.04344,-0.154463 0.08206,-0.318581 0.04344,-0.164118 0.07723,-0.308927 0.03379,-0.14481 0.0531,-0.251004 0.01931,-0.11102 0.01931,-0.15929 z m 5.816519,-1.090899 q 0,-0.482699 -0.279965,-0.75301 -0.275138,-0.275139 -0.791626,-0.275139 -0.0724,0 -0.178598,0.05792 -0.106194,0.05792 -0.231696,0.149637 -0.120674,0.08689 -0.246176,0.193079 -0.120675,0.106194 -0.231695,0.207561 -0.106194,0.101367 -0.183426,0.183425 -0.07723,0.08206 -0.106194,0.115848 -0.101366,0.120675 -0.212387,0.333062 -0.106194,0.207561 -0.197906,0.44891 -0.09171,0.241349 -0.154464,0.487526 -0.05792,0.241349 -0.05792,0.424775 0,0.11102 0.02896,0.226868 0.03379,0.115848 0.09654,0.212387 0.06758,0.09171 0.168944,0.154464 0.101367,0.05792 0.236523,0.05792 0.149636,0 0.381332,-0.08689 0.231695,-0.08689 0.487525,-0.241349 0.260658,-0.154464 0.521315,-0.366851 0.265484,-0.212388 0.473045,-0.458564 0.212387,-0.246176 0.342716,-0.516488 0.135155,-0.275138 0.135155,-0.555103 z"
     id="path2003" /></g><g
   aria-label="з"
   transform="scale(1.3820082,0.72358473)"
   id="text16794"
   style="font-size:11.3856px;line-height:1.25;font-family:'Segoe Script';-inkscape-font-specification:'Segoe Script';fill:#e0e0e0;stroke-width:0.284637"><path
     d="m 1.5567076,70.576792 q 0.055594,0 0.08895,0.03892 0.038916,0.03892 0.061153,0.09451 0.022238,0.06115 0.027797,0.133425 0.011119,0.07227 0.011119,0.138984 0,0.127866 0.044475,0.277969 0.050034,0.150103 0.1556625,0.277969 0.1111875,0.127865 0.2835281,0.211256 0.1723406,0.08895 0.4225125,0.08895 0.3391219,0 0.7004813,-0.1779 0.3613593,-0.1779 0.6615656,-0.494784 0.3002062,-0.316885 0.489225,-0.756075 0.1945781,-0.433632 0.1945781,-0.950653 0,-0.478107 -0.1000687,-0.811669 Q 4.497617,68.314126 4.3363951,68.108429 4.1807326,67.897173 3.9750358,67.802664 3.7693389,67.708154 3.563642,67.708154 q -0.077831,0 -0.1723406,0.03892 -0.094509,0.03336 -0.1945781,0.08895 -0.094509,0.05003 -0.1945782,0.111188 -0.094509,0.06115 -0.1723406,0.111187 -0.133425,0.08895 -0.2557313,0.150103 -0.1167468,0.06115 -0.311325,0.06115 -0.1501031,0 -0.2612906,-0.111187 -0.1056281,-0.116747 -0.1056281,-0.305766 0,-0.144544 0.1000687,-0.244612 0.1056282,-0.100069 0.3224438,-0.189019 0.4614281,-0.189019 0.8227875,-0.383597 0.3669188,-0.200137 0.6170906,-0.428072 0.2501719,-0.233494 0.3835969,-0.511462 0.133425,-0.277969 0.133425,-0.633769 0,-0.138984 -0.044475,-0.272409 -0.038916,-0.138985 -0.1223062,-0.244613 -0.083391,-0.111187 -0.2056969,-0.1779 -0.1167469,-0.07227 -0.2724094,-0.07227 -0.3335625,0 -0.6337687,0.205697 -0.3002063,0.205697 -0.5892938,0.505903 -0.1278656,0.133425 -0.2112563,0.194578 -0.083391,0.05559 -0.1779,0.05559 -0.077831,0 -0.1389843,-0.03892 -0.055594,-0.04448 -0.094509,-0.100068 -0.033356,-0.06115 -0.055594,-0.127866 -0.016678,-0.07227 -0.016678,-0.122306 0,-0.133425 0.072272,-0.250172 0.077831,-0.122306 0.2056969,-0.227934 0.2779687,-0.233494 0.5448187,-0.383597 0.26685,-0.150103 0.4391906,-0.222375 0.1945782,-0.07783 0.4002751,-0.150103 0.2112562,-0.07227 0.3947156,-0.07227 0.2612906,0 0.5003437,0.09451 0.2390532,0.08895 0.4169532,0.26685 0.1834593,0.172341 0.2890875,0.428072 0.1111875,0.255731 0.1111875,0.578175 0,0.466987 -0.2279344,0.928416 -0.222375,0.461428 -0.7616344,0.895059 0.3724781,0.01668 0.6504469,0.189019 0.2779687,0.17234 0.4614281,0.455868 0.1890188,0.283529 0.2779688,0.656007 0.094509,0.366918 0.094509,0.778312 0,0.411394 -0.1111875,0.817228 -0.1111875,0.405835 -0.3168843,0.778313 -0.2001375,0.372478 -0.4836657,0.689362 -0.2779687,0.316885 -0.6170906,0.550378 -0.3335625,0.233494 -0.7171594,0.366919 -0.3780375,0.133425 -0.7783125,0.133425 -0.3835969,0 -0.667125,-0.127865 Q 1.606742,72.316876 1.4177232,72.127858 1.2342639,71.938839 1.1397545,71.722023 q -0.094509,-0.216815 -0.094509,-0.400275 0,-0.138984 0.050034,-0.300206 0.055594,-0.161222 0.1223062,-0.255731 0.044475,-0.06115 0.1278657,-0.127866 0.083391,-0.06115 0.2112562,-0.06115 z"
     id="path1940" /></g><g
   aria-label="в"
   transform="scale(1.3973476,0.71564156)"
   id="text19318"
   style="font-size:11.8563px;line-height:1.25;font-family:'Segoe Script';-inkscape-font-specification:'Segoe Script';fill:#e0e0e0;stroke-width:0.296408"><path
     d="m 76.73215,65.052604 q 0,-0.06947 -0.02895,-0.138941 -0.02316,-0.07526 -0.07526,-0.133152 -0.04631,-0.06368 -0.127363,-0.104206 -0.07526,-0.04052 -0.179465,-0.04052 -0.202623,0 -0.422613,0.14473 -0.2142,0.14473 -0.43419,0.399455 -0.214201,0.248936 -0.416823,0.596289 -0.202623,0.341563 -0.376299,0.741019 -0.173676,0.399455 -0.312617,0.839435 -0.133152,0.434191 -0.214201,0.87417 0.0521,-0.03473 0.156309,-0.109995 0.104205,-0.08105 0.231568,-0.179465 0.133152,-0.104206 0.277882,-0.21999 0.15052,-0.121573 0.283671,-0.237358 0.138941,-0.115784 0.254726,-0.21999 0.115784,-0.104205 0.185254,-0.179465 0.642602,-0.694705 0.920484,-1.204155 0.277883,-0.509451 0.277883,-0.827857 z m -0.179466,6.240767 q -0.179465,0.266304 -0.434191,0.521029 -0.248936,0.248936 -0.549975,0.43998 -0.301038,0.191044 -0.642602,0.301039 -0.335774,0.109995 -0.683126,0.08105 -0.243147,-0.01737 -0.463137,-0.156309 -0.21999,-0.14473 -0.387877,-0.405245 -0.167887,-0.266303 -0.266304,-0.648391 -0.09842,-0.382088 -0.09842,-0.87996 0,-0.318406 0.03473,-0.688916 0.03473,-0.376298 0.09263,-0.758386 0.05789,-0.382088 0.127363,-0.746808 0.07526,-0.36472 0.14473,-0.671548 0.09263,-0.416824 0.243147,-0.822068 0.150519,-0.411034 0.335774,-0.787333 0.185255,-0.382087 0.399455,-0.717862 0.214201,-0.335774 0.43998,-0.607866 0.312618,-0.364721 0.712073,-0.584711 0.405245,-0.21999 0.94943,-0.21999 0.22578,0 0.411034,0.09263 0.185255,0.09263 0.318407,0.243147 0.133152,0.14473 0.202622,0.329984 0.07526,0.185255 0.07526,0.364721 0,0.248936 -0.104206,0.555764 -0.09842,0.301039 -0.28946,0.631024 -0.191044,0.329984 -0.463137,0.665759 -0.272093,0.335774 -0.619446,0.648391 0.08105,0.0058 0.185255,0.02895 0.109995,0.01737 0.225779,0.06947 0.121574,0.0521 0.243147,0.138941 0.127363,0.08684 0.243147,0.21999 0.0521,0.06368 0.115784,0.173676 0.06368,0.104206 0.115784,0.260514 0.05789,0.15052 0.09263,0.347353 0.04052,0.196833 0.04052,0.43419 0,0.463137 -0.167887,1.001534 -0.162098,0.532607 -0.578921,1.146263 z m -0.162098,-2.130429 q 0,-0.318406 -0.09263,-0.532607 -0.09263,-0.21999 -0.21999,-0.347353 -0.127363,-0.133152 -0.260515,-0.185254 -0.133151,-0.05789 -0.2142,-0.05789 -0.07526,0 -0.237358,0.115784 -0.162098,0.115784 -0.347352,0.254725 -0.138941,0.121573 -0.277882,0.225779 -0.138941,0.104206 -0.260515,0.202622 -0.115784,0.09842 -0.214201,0.196833 -0.09842,0.09842 -0.162097,0.208412 -0.162098,0.29525 -0.191044,0.671548 -0.02895,0.376299 -0.02895,0.769965 0,0.260515 0.0521,0.468926 0.05789,0.202622 0.138942,0.347353 0.08684,0.14473 0.185254,0.225779 0.09842,0.07526 0.179466,0.07526 0.196833,0 0.445769,-0.08105 0.248936,-0.08105 0.50945,-0.318407 0.225779,-0.208411 0.405245,-0.468926 0.185255,-0.260514 0.312617,-0.549975 0.133152,-0.28946 0.202622,-0.602078 0.07526,-0.312617 0.07526,-0.619445 z"
     id="path1982" /></g><text
   xml:space="preserve"
   style="font-size:20.7242px;line-height:1.25;font-family:'Segoe Script';-inkscape-font-specification:'Segoe Script';fill:#16272a;fill-opacity:0.799714;stroke-width:0.5181"
   x="10.321042"
   y="65.23098"
   id="text17884"
   transform="scale(1.3173515,0.75909882)"><tspan
     sodipodi:role="line"
     id="tspan17882"
     x="10.321042"
     y="65.23098"
     style="stroke-width:0.5181">_</tspan></text><text
   xml:space="preserve"
   style="font-size:21.1094px;line-height:1.25;font-family:'Segoe Script';-inkscape-font-specification:'Segoe Script';fill:#16272a;fill-opacity:0.799714;stroke-width:0.527733"
   x="63.522297"
   y="65.910759"
   id="text17884-6"
   transform="scale(1.3418411,0.74524474)"><tspan
     sodipodi:role="line"
     id="tspan17882-2"
     x="63.522297"
     y="65.910759"
     style="stroke-width:0.527733">_</tspan></text><text
   xml:space="preserve"
   style="font-size:18.5442px;line-height:1.25;font-family:'Segoe Script';-inkscape-font-specification:'Segoe Script';fill:#16272a;fill-opacity:0.799714;stroke-width:0.463603"
   x="-73.976028"
   y="70.48143"
   id="text17884-0"
   transform="matrix(-0.01842792,-1.3577689,0.73576923,-0.05401677,0,0)"><tspan
     sodipodi:role="line"
     id="tspan17882-4"
     x="-73.976028"
     y="70.48143"
     style="stroke-width:0.463603">_</tspan></text><text
   xml:space="preserve"
   style="font-size:20.9276px;line-height:1.25;font-family:'Segoe Script';-inkscape-font-specification:'Segoe Script';fill:#16272a;fill-opacity:0.799714;stroke-width:0.523189"
   x="-18.095381"
   y="73.042793"
   id="text17884-9"
   transform="matrix(5.1511628e-4,-1.3271154,0.75351342,0.00144108,0,0)"><tspan
     sodipodi:role="line"
     id="tspan17882-7"
     x="-18.095381"
     y="73.042793"
     style="stroke-width:0.523189">_</tspan></text></svg>
