<?xml version="1.0" encoding="UTF-8" standalone="no"?>
<!-- Generator: Adobe Illustrator 22.0.1, SVG Export Plug-In . SVG Version: 6.00 Build 0)  -->

<svg
   version="1.1"
   id="Layer_1"
   x="0px"
   y="0px"
   viewBox="0 0 110 110"
   xml:space="preserve"
   sodipodi:docname="northWind.svg"
   width="110"
   height="110"
   inkscape:version="1.1.1 (3bf5ae0d25, 2021-09-20)"
   xmlns:inkscape="http://www.inkscape.org/namespaces/inkscape"
   xmlns:sodipodi="http://sodipodi.sourceforge.net/DTD/sodipodi-0.dtd"
   xmlns="http://www.w3.org/2000/svg"
   xmlns:svg="http://www.w3.org/2000/svg"><defs
   id="defs7" /><sodipodi:namedview
   id="namedview5"
   pagecolor="#ffffff"
   bordercolor="#666666"
   borderopacity="1.0"
   inkscape:pageshadow="2"
   inkscape:pageopacity="0.0"
   inkscape:pagecheckerboard="0"
   showgrid="false"
   inkscape:zoom="10.158767"
   inkscape:cx="55.223236"
   inkscape:cy="57.044323"
   inkscape:window-width="2400"
   inkscape:window-height="1321"
   inkscape:window-x="2391"
   inkscape:window-y="-9"
   inkscape:window-maximized="1"
   inkscape:current-layer="Layer_1"
   width="140px" />
<path
   d="m 12.271526,53.992496 c 0.154151,-7.809438 2.255043,-15.007066 6.263538,-21.555353 4.008501,-6.548289 9.371975,-11.6919 16.090442,-15.430857 6.718457,-3.738963 13.974286,-5.514494 21.768253,-5.364922 5.835864,0.112 11.418714,1.368038 16.710891,3.729061 5.292164,2.361041 9.799849,5.54953 13.602078,9.452106 3.802206,3.902602 6.783074,8.555314 8.942524,13.958196 2.159458,5.402902 3.201728,10.975816 3.085369,16.871181 -0.114842,5.818793 -1.37698,11.385788 -3.747243,16.663453 -2.370265,5.277645 -5.570834,9.811756 -9.485787,13.566225 -3.914921,3.754477 -8.582666,6.728552 -13.963997,8.884751 -5.381341,2.156186 -10.971121,3.197773 -16.845382,3.085037 -5.874277,-0.112721 -11.495509,-1.3695 -16.787691,-3.730539 -5.292167,-2.361047 -9.838229,-5.550259 -13.640469,-9.452824 -3.802227,-3.902582 -6.744678,-8.554582 -8.944026,-13.88165 -2.199384,-5.327067 -3.164104,-10.936795 -3.0485,-16.793865 z m 9.521698,0.182736 c -0.179069,9.072727 2.96716,17.02209 9.477083,23.848834 6.511424,6.750178 14.355598,10.194184 23.608528,10.371767 6.066234,0.116431 11.739609,-1.268235 16.944083,-4.193731 5.20448,-2.925506 9.431104,-6.903759 12.566229,-12.01356 3.135126,-5.109788 4.781199,-10.669418 4.900588,-16.717909 C 89.409108,49.422157 87.984405,43.765303 85.053301,38.53907 82.122189,33.312855 78.094884,29.137881 72.971385,26.014167 67.84789,22.890447 62.271861,21.28989 56.205618,21.173469 c -6.06624,-0.116429 -11.739607,1.268236 -16.944096,4.193735 -5.20446,2.925499 -9.431851,6.942047 -12.60536,12.051108 -3.17351,5.109062 -4.743556,10.708435 -4.862938,16.75692 z M 40.125826,76.930255 55.514104,27.019481 c 0.04595,-0.382067 0.241699,-0.569794 0.587277,-0.563126 0.34554,0.0067 0.533739,0.201724 0.564596,0.585235 l 13.368714,50.462672 c 0.14529,0.424053 0.100836,0.729563 -0.09566,0.955565 -0.19655,0.225959 -0.503656,0.220101 -0.921454,-0.0177 L 55.793112,73.209839 c -0.380921,-0.160508 -0.764861,-0.167876 -1.113428,-0.02137 l -13.536098,4.718719 c -0.388462,0.222304 -0.657218,0.217143 -0.806266,-0.01548 -0.149018,-0.232651 -0.295821,-0.580111 -0.211486,-0.961456 z"
   id="path2"
   style="fill:#2c4f54;fill-opacity:0.5;stroke:#2e3332;stroke-width:0.236405;stroke-miterlimit:4;stroke-dasharray:none;stroke-opacity:0.9" />
<path
   style="fill:#2c4f53;fill-opacity:0.499285;stroke:#e4e7e7;stroke-width:0.238767;stroke-miterlimit:4;stroke-dasharray:none;stroke-opacity:0.9"
   d="M 51.406456,87.493784 C 49.778566,87.286155 47.992489,86.933432 46.457619,86.516482 37.827058,84.171899 29.887855,77.271914 25.951958,68.694951 23.833346,64.078124 23.032553,60.026782 23.176039,54.651044 c 0.147078,-5.517751 1.212194,-9.692077 3.65312,-14.319811 1.645219,-3.119108 3.480345,-5.58531 6.08416,-8.176394 5.167433,-5.142143 11.152096,-8.232538 18.224868,-9.411097 1.47292,-0.245436 2.08274,-0.272591 5.281538,-0.235169 3.882734,0.04554 4.97533,0.170795 7.777418,0.8919 4.232005,1.089177 8.889328,3.493357 12.445335,6.424498 1.45049,1.195602 4.121922,4.047797 5.255062,5.61064 2.742381,3.782365 4.671014,7.99743 5.567326,12.167564 0.660977,3.075158 0.751997,4.16589 0.655668,7.856 -0.06803,2.603107 -0.149228,3.704552 -0.356818,4.832688 -1.260488,6.851352 -4.642474,13.152297 -9.664276,18.005309 -5.143094,4.970265 -11.636879,8.164576 -18.528912,9.114447 -1.588754,0.218971 -6.688949,0.270301 -8.164072,0.08219 z M 48.094294,75.408972 c 3.671882,-1.314772 6.811009,-2.422071 6.97584,-2.460655 0.203418,-0.04765 2.49577,0.79171 7.13817,2.613657 3.936552,1.544911 6.936654,2.653979 7.069838,2.613541 0.276011,-0.08388 0.433586,-0.572957 0.342036,-1.061678 -0.03634,-0.19403 -2.913846,-11.42058 -6.394407,-24.947908 -6.099145,-23.704556 -6.340448,-24.599757 -6.663934,-24.722377 -0.250009,-0.09473 -0.383729,-0.07999 -0.524128,0.05835 -0.232326,0.228638 -15.421682,48.848777 -15.436275,49.410355 -0.01319,0.507396 0.318867,1.028058 0.60419,0.94733 0.116866,-0.03322 3.216796,-1.13584 6.888675,-2.450613 z"
   id="path861" /><rect
   style="fill:#c7485e;fill-opacity:1;stroke:#3c4343;stroke-width:1.08167;stroke-opacity:0.9"
   id="rect2803"
   width="13.447435"
   height="0.12293018"
   x="46.636547"
   y="51.432838"
   transform="matrix(0.99989908,-0.01420665,0.04082495,0.99916631,0,0)"
   inkscape:transform-center-x="6.9876462"
   inkscape:transform-center-y="6.2271314" /><path
   style="fill:#a06f78;fill-opacity:1;stroke:#e27364;stroke-width:0.0964307;stroke-opacity:0.9"
   d="m 49.591766,49.568805 c 0.07117,-0.224681 1.541694,-5.081163 3.267793,-10.792267 1.726096,-5.711097 3.212545,-10.517464 3.303209,-10.680795 0.14268,-0.257034 6.080441,20.700336 6.069803,21.423355 -0.0029,0.1975 -1.705831,0.294429 -6.387088,0.363699 -5.968993,0.08832 -6.374748,0.06786 -6.253717,-0.313935 z"
   id="path3397"
   inkscape:transform-center-x="6.663852"
   inkscape:transform-center-y="-3.8110463" /><g
   aria-label="c"
   transform="scale(1.0204311,0.97997801)"
   id="text9344"
   style="font-size:12.4388px;line-height:1.25;font-family:'Segoe Script';-inkscape-font-specification:'Segoe Script';fill:#e0e0e0;stroke-width:0.310969"><path
     d="m 59.041062,5.3326034 q 0,0.2186508 -0.157914,0.3947862 -0.163988,0.1822089 -0.285461,0.3097552 -0.121473,0.1214727 -0.230798,0.2247244 -0.109326,0.1032518 -0.230798,0.2004299 -0.121473,0.091105 -0.285461,0.2125772 -0.461596,0.3340498 -0.880677,0.5648478 -0.41908,0.2247244 -0.813866,0.3704916 -0.394787,0.1396936 -0.783499,0.2004299 -0.382639,0.060736 -0.771351,0.060736 -0.406934,0 -0.728836,-0.1518408 Q 53.550498,7.5616266 53.325774,7.2943868 53.107123,7.027147 52.991724,6.6748763 52.876325,6.3165319 52.876325,5.9217458 v -0.030368 q 0,-0.4008597 0.103252,-0.8503085 0.103251,-0.4555225 0.28546,-0.911045 0.188283,-0.4555224 0.449449,-0.892824 0.261166,-0.4433752 0.576995,-0.826014 0.127547,-0.1518408 0.303682,-0.3219026 0.182209,-0.1761353 0.382639,-0.3219025 0.206503,-0.1457672 0.425154,-0.2368717 0.224724,-0.097178 0.437302,-0.097178 0.145767,0 0.279387,0.091104 0.13362,0.085031 0.249019,0.2247244 0.115399,0.1396936 0.212577,0.3158289 0.09718,0.1700617 0.163988,0.3522707 0.06681,0.1761354 0.103252,0.3401234 0.03644,0.1639881 0.03644,0.2793872 0,0.1761353 -0.109325,0.4555224 -0.109325,0.2793871 -0.261166,0.2793871 -0.218651,0 -0.364418,-0.297608 -0.05466,-0.115399 -0.09718,-0.2672398 -0.03644,-0.1518409 -0.0911,-0.297608 -0.04859,-0.1457672 -0.13362,-0.2672399 -0.08503,-0.1275463 -0.236871,-0.1882826 -0.151841,0.036442 -0.309756,0.1579145 -0.15184,0.1214726 -0.303681,0.297608 -0.145767,0.1761353 -0.291535,0.4008597 -0.139693,0.2186508 -0.267239,0.4555225 -0.121473,0.2186508 -0.236872,0.5041115 -0.115399,0.2793871 -0.206504,0.5830687 -0.0911,0.297608 -0.145767,0.595216 -0.05466,0.2976081 -0.05466,0.546627 0,0.1761353 0.08503,0.3583443 0.08503,0.1761354 0.218651,0.3219026 0.139694,0.1457671 0.309755,0.2368716 0.176136,0.091105 0.358345,0.091105 0.898897,0 1.785648,-0.3704916 0.88675,-0.3704916 1.68847,-1.075033 0.443375,-0.3887125 0.734909,-0.3887125 0.08503,0 0.08503,0.1639881 z"
     id="path2381" /></g><g
   aria-label="ю"
   transform="scale(0.88712154,1.1272413)"
   id="text11307"
   style="font-size:9.96743px;line-height:1.25;font-family:'Segoe Script';-inkscape-font-specification:'Segoe Script';fill:#e0e0e0;stroke-width:0.249184"><path
     d="m 59.131011,94.092956 q 0,-0.01947 -0.02434,-0.03407 -0.01947,-0.01947 -0.04867,-0.04867 -0.0292,-0.0292 -0.05354,-0.07787 -0.01947,-0.04867 -0.01947,-0.136274 0,-0.07787 0.0438,-0.14114 0.0438,-0.06327 0.09247,-0.116806 0.05354,-0.05354 0.09734,-0.09734 0.04867,-0.0438 0.0584,-0.08274 0.08274,-0.467223 0.141141,-0.88091 0.0584,-0.413687 0.073,-0.691101 0.0049,-0.08274 0,-0.170342 0,-0.0876 -0.0049,-0.175209 -0.0049,-0.06327 -0.0097,-0.121673 0,-0.0584 0,-0.111938 0,-0.0584 0.0438,-0.131407 0.0438,-0.073 0.107072,-0.136274 0.06814,-0.06327 0.146007,-0.102205 0.08274,-0.0438 0.160608,-0.0438 0.06814,0 0.136273,0.03894 0.06814,0.03407 0.121673,0.102206 0.05354,0.06327 0.0876,0.160608 0.03407,0.09247 0.03407,0.209277 0,0.0876 -0.0146,0.214144 -0.0146,0.126539 -0.03894,0.277414 -0.02434,0.150874 -0.0584,0.316349 -0.0292,0.165475 -0.0584,0.330949 -0.03893,0.228745 -0.07787,0.438022 -0.03407,0.209277 -0.05354,0.360152 0.01947,0.0438 0.03407,0.07787 0.01947,0.0292 0.04867,0.04867 0.0292,0.01947 0.073,0.0292 0.04867,0.0097 0.126539,0.0097 0.209277,0 0.442889,-0.0438 0.233612,-0.0438 0.442889,-0.111939 0.209277,-0.06814 0.374752,-0.14114 0.170342,-0.07787 0.253079,-0.146007 0.05354,-0.0438 0.116806,-0.116806 0.06814,-0.073 0.136273,-0.155741 0.06814,-0.08761 0.131407,-0.170342 0.06814,-0.0876 0.116806,-0.150874 0.165475,-0.209277 0.374752,-0.408821 0.209277,-0.199543 0.462356,-0.350417 0.253079,-0.150874 0.545094,-0.243345 0.296881,-0.09247 0.642432,-0.09247 0.262813,0 0.515892,0.131407 0.25308,0.126539 0.447756,0.34555 0.199543,0.219011 0.316349,0.506159 0.121673,0.282281 0.121673,0.593763 0,0.311482 -0.06327,0.569428 -0.0584,0.253079 -0.18981,0.540227 -0.073,0.150874 -0.253079,0.360151 -0.180075,0.209278 -0.433155,0.433155 -0.248212,0.223878 -0.545094,0.442889 -0.296881,0.219011 -0.603496,0.39422 -0.306616,0.175208 -0.603497,0.28228 -0.292015,0.107072 -0.530493,0.107072 -0.321216,0 -0.549961,-0.107072 -0.228745,-0.111938 -0.374752,-0.287147 -0.146007,-0.180076 -0.214144,-0.408821 -0.06814,-0.228744 -0.06814,-0.462356 0,-0.189809 0.05354,-0.457489 0.0584,-0.272547 0.194677,-0.549961 -0.184943,0.116806 -0.413688,0.184942 -0.223877,0.06814 -0.413687,0.121673 -0.08274,0.02434 -0.184942,0.0438 -0.102206,0.0146 -0.204411,0.0292 -0.09734,0.0146 -0.189809,0.0292 -0.0876,0.0146 -0.150874,0.02434 -0.09734,0.01947 -0.136274,0.07787 -0.03407,0.05354 -0.05354,0.141141 -0.01947,0.08274 -0.0584,0.219011 -0.03894,0.136273 -0.07787,0.28228 -0.0438,0.155741 -0.09247,0.321216 -0.04867,0.165475 -0.0876,0.316349 -0.03407,0.146008 -0.06327,0.272547 -0.02433,0.121673 -0.02433,0.18981 0,0.06327 -0.05354,0.136273 -0.04867,0.073 -0.116806,0.136274 -0.06327,0.06814 -0.131407,0.111939 -0.06327,0.0438 -0.09734,0.0438 -0.073,0 -0.14114,-0.04867 -0.06327,-0.04867 -0.111939,-0.111939 -0.04867,-0.06327 -0.07787,-0.12654 -0.0292,-0.06814 -0.0292,-0.102205 0,-0.0438 0.03407,-0.155741 0.03894,-0.111939 0.07787,-0.228745 0.02433,-0.073 0.06327,-0.199543 0.03893,-0.12654 0.07787,-0.277414 0.0438,-0.155741 0.08274,-0.321216 0.0438,-0.165475 0.07787,-0.311482 0.03407,-0.146007 0.05354,-0.253079 0.01947,-0.111939 0.01947,-0.160608 z m 5.864626,-1.099922 q 0,-0.486691 -0.282281,-0.759238 -0.277414,-0.277413 -0.798173,-0.277413 -0.073,0 -0.180076,0.0584 -0.107072,0.0584 -0.233612,0.150875 -0.121672,0.0876 -0.248212,0.194676 -0.121673,0.107072 -0.233612,0.209277 -0.107072,0.102205 -0.184942,0.184943 -0.07787,0.08274 -0.107072,0.116805 -0.102205,0.121673 -0.214144,0.335817 -0.107072,0.209277 -0.199543,0.452623 -0.09247,0.243345 -0.155742,0.491558 -0.0584,0.243345 -0.0584,0.428288 0,0.111939 0.0292,0.228744 0.03407,0.116806 0.09734,0.214144 0.06814,0.09247 0.170342,0.155741 0.102205,0.0584 0.238479,0.0584 0.150874,0 0.384485,-0.0876 0.233612,-0.0876 0.491558,-0.243345 0.262813,-0.155742 0.525626,-0.369886 0.26768,-0.214144 0.476958,-0.462356 0.214144,-0.248212 0.34555,-0.520759 0.136274,-0.277414 0.136274,-0.559695 z"
     id="path2423" /></g><g
   aria-label="з"
   transform="scale(1.3753224,0.72710224)"
   id="text16794"
   style="font-size:11.4797px;line-height:1.25;font-family:'Segoe Script';-inkscape-font-specification:'Segoe Script';fill:#e0e0e0;stroke-width:0.286993"><path
     d="m 1.5114857,71.541306 q 0.056053,0 0.089685,0.03924 0.039237,0.03924 0.061658,0.09529 0.022421,0.06166 0.028027,0.134528 0.011211,0.07287 0.011211,0.140133 0,0.128922 0.044843,0.280266 0.050448,0.151343 0.156949,0.280266 0.1121064,0.128922 0.2858714,0.213002 0.173765,0.08969 0.4260045,0.08969 0.3419247,0 0.7062706,-0.17937 0.364346,-0.17937 0.6670334,-0.498874 0.3026874,-0.319503 0.4932683,-0.762324 0.1961863,-0.437215 0.1961863,-0.95851 0,-0.482057 -0.1008958,-0.818377 Q 4.4767012,69.25994 4.3141469,69.052543 4.1571978,68.839541 3.9498009,68.74425 3.742404,68.64896 3.5350071,68.64896 q -0.078475,0 -0.173765,0.03924 -0.09529,0.03363 -0.1961863,0.08969 -0.095291,0.05045 -0.1961863,0.112107 -0.09529,0.06166 -0.173765,0.112106 -0.1345277,0.08969 -0.2578448,0.151344 -0.1177118,0.06166 -0.313898,0.06166 -0.1513438,0 -0.2634502,-0.112106 -0.1065011,-0.117712 -0.1065011,-0.308293 0,-0.145738 0.1008958,-0.246634 0.1065011,-0.100896 0.3251087,-0.190581 0.4652417,-0.190581 0.8295877,-0.386767 0.3699512,-0.201792 0.6221908,-0.43161 0.2522395,-0.235424 0.3867672,-0.51569 0.1345277,-0.280266 0.1345277,-0.639006 0,-0.140134 -0.044843,-0.274661 -0.039237,-0.140133 -0.123317,-0.246634 -0.08408,-0.112107 -0.207397,-0.179371 -0.1177117,-0.07287 -0.2746608,-0.07287 -0.3363193,0 -0.6390067,0.207397 -0.3026874,0.207397 -0.5941642,0.510084 -0.1289224,0.134528 -0.2130022,0.196187 -0.08408,0.05605 -0.1793703,0.05605 -0.078475,0 -0.1401331,-0.03924 -0.056053,-0.04484 -0.095291,-0.100896 -0.033632,-0.06166 -0.056053,-0.128923 -0.016816,-0.07287 -0.016816,-0.123317 0,-0.134528 0.072869,-0.252239 0.078475,-0.123317 0.207397,-0.229818 0.2802661,-0.235424 0.5493215,-0.386768 0.2690555,-0.151343 0.4428205,-0.224213 0.1961863,-0.07847 0.4035832,-0.151343 0.2130023,-0.07287 0.3979779,-0.07287 0.2634501,0 0.504479,0.09529 0.2410289,0.08969 0.4203992,0.269055 0.1849756,0.173765 0.2914767,0.43161 0.1121065,0.257845 0.1121065,0.582954 0,0.470847 -0.2298182,0.936089 -0.2242129,0.465241 -0.7679292,0.902456 0.3755566,0.01682 0.6558227,0.190581 0.2802661,0.173765 0.4652418,0.459637 0.1905809,0.285871 0.2802661,0.661428 0.09529,0.369951 0.09529,0.784745 0,0.414794 -0.1121065,0.823982 -0.1121064,0.409189 -0.3195033,0.784746 -0.2017917,0.375556 -0.4876631,0.69506 -0.2802661,0.319503 -0.6221908,0.554926 -0.3363193,0.235424 -0.7230865,0.369952 -0.381162,0.134527 -0.7847452,0.134527 -0.3867672,0 -0.6726386,-0.128922 Q 1.5619336,73.295772 1.3713527,73.105191 1.186377,72.91461 1.0910865,72.696002 q -0.0952904,-0.218607 -0.0952904,-0.403583 0,-0.140133 0.0504479,-0.302687 0.056053,-0.162555 0.1233171,-0.257845 0.044843,-0.06166 0.1289224,-0.128922 0.08408,-0.06166 0.2130022,-0.06166 z"
     id="path2360" /></g><g
   aria-label="в"
   transform="scale(1.3905875,0.7191205)"
   id="text19318"
   style="font-size:11.9543px;line-height:1.25;font-family:'Segoe Script';-inkscape-font-specification:'Segoe Script';fill:#e0e0e0;stroke-width:0.298859"><path
     d="m 77.309306,65.975703 q 0,-0.07004 -0.02919,-0.140089 -0.02335,-0.07588 -0.07588,-0.134253 -0.0467,-0.06421 -0.128415,-0.105067 -0.07588,-0.04086 -0.180949,-0.04086 -0.204297,0 -0.426106,0.145926 -0.215971,0.145927 -0.437779,0.402758 -0.215972,0.250993 -0.420269,0.601217 -0.204297,0.344386 -0.379409,0.747144 -0.175111,0.402757 -0.315201,0.846373 -0.134252,0.43778 -0.215971,0.881396 0.05253,-0.03502 0.157601,-0.110904 0.105067,-0.08172 0.233482,-0.180949 0.134252,-0.105067 0.280179,-0.221808 0.151763,-0.122578 0.286016,-0.239319 0.140089,-0.116742 0.256831,-0.221809 0.116741,-0.105067 0.186785,-0.180949 0.647914,-0.700447 0.928093,-1.214108 0.280179,-0.513661 0.280179,-0.8347 z m -0.180949,6.292351 q -0.180949,0.268505 -0.437779,0.525336 -0.250994,0.250994 -0.554521,0.443617 -0.303527,0.192623 -0.647914,0.303527 -0.338549,0.110904 -0.688773,0.08172 -0.245157,-0.01751 -0.466965,-0.157601 -0.221808,-0.145927 -0.391083,-0.408594 -0.169275,-0.268505 -0.268505,-0.653751 -0.09923,-0.385246 -0.09923,-0.887233 0,-0.321039 0.03502,-0.694611 0.03502,-0.379408 0.09339,-0.764654 0.05837,-0.385246 0.128415,-0.752981 0.07588,-0.367735 0.145926,-0.677099 0.09339,-0.420269 0.245157,-0.828863 0.151764,-0.414431 0.338549,-0.79384 0.186786,-0.385246 0.402758,-0.723796 0.215971,-0.338549 0.443616,-0.612891 0.315202,-0.367735 0.717959,-0.589543 0.408594,-0.221808 0.957278,-0.221808 0.227645,0 0.414431,0.09339 0.186786,0.09339 0.321038,0.245156 0.134253,0.145927 0.204297,0.332713 0.07588,0.186786 0.07588,0.367734 0,0.250994 -0.105067,0.560358 -0.09923,0.303527 -0.291853,0.63624 -0.192623,0.332712 -0.466965,0.671262 -0.274342,0.338549 -0.624565,0.653751 0.08172,0.0058 0.186786,0.02918 0.110904,0.01751 0.227645,0.07005 0.122578,0.05253 0.245157,0.140089 0.128415,0.08756 0.245156,0.221808 0.05253,0.06421 0.116741,0.175112 0.06421,0.105067 0.116742,0.262668 0.05837,0.151763 0.09339,0.350223 0.04086,0.198461 0.04086,0.43778 0,0.466965 -0.169275,1.009811 -0.163438,0.53701 -0.583706,1.155738 z m -0.163438,-2.148038 q 0,-0.321038 -0.09339,-0.537009 -0.09339,-0.221809 -0.221808,-0.350224 -0.128415,-0.134252 -0.262668,-0.186786 -0.134252,-0.05837 -0.215971,-0.05837 -0.07588,0 -0.239319,0.116742 -0.163438,0.116741 -0.350224,0.25683 -0.140089,0.122579 -0.280179,0.227646 -0.140089,0.105067 -0.262668,0.204297 -0.116741,0.09923 -0.215971,0.19846 -0.09923,0.09923 -0.163438,0.210134 -0.163437,0.29769 -0.192623,0.677099 -0.02918,0.379409 -0.02918,0.776329 0,0.262668 0.05253,0.472802 0.05837,0.204297 0.140089,0.350224 0.08756,0.145926 0.186786,0.227645 0.09923,0.07588 0.180949,0.07588 0.19846,0 0.449454,-0.08172 0.250993,-0.08172 0.513661,-0.321038 0.227645,-0.210135 0.408594,-0.472802 0.186786,-0.262668 0.315201,-0.554521 0.134253,-0.291853 0.204298,-0.607054 0.07588,-0.315202 0.07588,-0.624566 z"
     id="path2402" /></g><text
   xml:space="preserve"
   style="font-size:20.8954px;line-height:1.25;font-family:'Segoe Script';-inkscape-font-specification:'Segoe Script';fill:#16272a;fill-opacity:0.799714;stroke-width:0.522386"
   x="10.211331"
   y="66.133476"
   id="text17884"
   transform="scale(1.3109785,0.762789)"><tspan
     sodipodi:role="line"
     id="tspan17882"
     x="10.211331"
     y="66.133476"
     style="stroke-width:0.522386">_</tspan></text><text
   xml:space="preserve"
   style="font-size:21.2839px;line-height:1.25;font-family:'Segoe Script';-inkscape-font-specification:'Segoe Script';fill:#16272a;fill-opacity:0.799714;stroke-width:0.532097"
   x="64.282715"
   y="66.957085"
   id="text17884-6"
   transform="scale(1.3353497,0.74886751)"><tspan
     sodipodi:role="line"
     id="tspan17882-2"
     x="64.282715"
     y="66.957085"
     style="stroke-width:0.532097">_</tspan></text><text
   xml:space="preserve"
   style="font-size:18.6975px;line-height:1.25;font-family:'Segoe Script';-inkscape-font-specification:'Segoe Script';fill:#16272a;fill-opacity:0.799714;stroke-width:0.467437"
   x="-74.044411"
   y="70.968849"
   id="text17884-0"
   transform="matrix(-0.01833879,-1.3643694,0.73220976,-0.05427935,0,0)"><tspan
     sodipodi:role="line"
     id="tspan17882-4"
     x="-74.044411"
     y="70.968849"
     style="stroke-width:0.467437">_</tspan></text><text
   xml:space="preserve"
   style="font-size:21.1007px;line-height:1.25;font-family:'Segoe Script';-inkscape-font-specification:'Segoe Script';fill:#16272a;fill-opacity:0.799714;stroke-width:0.527517"
   x="-17.998697"
   y="73.504196"
   id="text17884-9"
   transform="matrix(5.1262429e-4,-1.3335668,0.74986814,0.0014481,0,0)"><tspan
     sodipodi:role="line"
     id="tspan17882-7"
     x="-17.998697"
     y="73.504196"
     style="stroke-width:0.527517">_</tspan></text></svg>
