<?xml version="1.0" encoding="UTF-8" standalone="no"?>
<!-- Generator: Adobe Illustrator 22.0.1, SVG Export Plug-In . SVG Version: 6.00 Build 0)  -->

<svg
   version="1.1"
   id="Layer_1"
   x="0px"
   y="0px"
   viewBox="0 0 110 110"
   xml:space="preserve"
   sodipodi:docname="southEastWind.svg"
   width="110"
   height="110"
   inkscape:version="1.1.1 (3bf5ae0d25, 2021-09-20)"
   xmlns:inkscape="http://www.inkscape.org/namespaces/inkscape"
   xmlns:sodipodi="http://sodipodi.sourceforge.net/DTD/sodipodi-0.dtd"
   xmlns="http://www.w3.org/2000/svg"
   xmlns:svg="http://www.w3.org/2000/svg"><defs
   id="defs7" /><sodipodi:namedview
   id="namedview5"
   pagecolor="#ffffff"
   bordercolor="#666666"
   borderopacity="1.0"
   inkscape:pageshadow="2"
   inkscape:pageopacity="0.0"
   inkscape:pagecheckerboard="0"
   showgrid="false"
   inkscape:zoom="10.158767"
   inkscape:cx="72.154424"
   inkscape:cy="51.334969"
   inkscape:window-width="2400"
   inkscape:window-height="1321"
   inkscape:window-x="2391"
   inkscape:window-y="-9"
   inkscape:window-maximized="1"
   inkscape:current-layer="Layer_1"
   width="140px" />
<path
   d="m 84.598233,21.371103 c 6.236611,4.985101 10.753623,11.110807 13.545202,18.323145 2.791575,7.212346 3.592425,14.608839 2.402585,22.189511 -1.189846,7.580666 -4.309746,14.358331 -9.329109,20.357469 -3.758325,4.491948 -8.285462,8.073494 -13.526084,10.739519 C 72.450203,95.646738 67.03151,97.184109 61.477039,97.72522 55.922547,98.266302 50.275885,97.698081 44.537042,96.020565 38.798176,94.343006 33.623526,91.686268 28.915481,87.923007 24.268589,84.208634 20.546923,79.7543 17.756292,74.614 14.965671,69.473722 13.299864,64.147576 12.71529,58.748665 12.130705,53.349773 12.652119,47.848548 14.28528,42.298999 15.918464,36.749453 18.586577,31.731271 22.36964,27.209764 26.152693,22.688235 30.70456,19.077153 35.945193,16.411139 41.185824,13.74514 46.62922,12.178226 52.1837,11.637094 c 5.554484,-0.541114 11.176422,0.05665 16.878854,1.655796 5.702452,1.599113 10.858228,4.339398 15.535679,8.078213 z m -6.132027,7.328993 c -7.245474,-5.791502 -15.669654,-8.283958 -25.29727,-7.447825 -9.566462,0.885008 -17.289163,4.871241 -23.248103,11.993357 -3.906702,4.669266 -6.349109,9.966497 -7.24723,15.857012 -0.898117,5.89052 -0.327923,11.672446 1.845903,17.306045 2.173809,5.633592 5.648226,10.383449 10.478545,14.244469 4.830317,3.86098 10.313389,6.27107 16.393902,7.23541 6.080514,0.964324 11.997356,0.416948 17.750514,-1.64212 5.75316,-2.059079 10.555428,-5.42068 14.462119,-10.089963 3.906697,-4.669271 6.349102,-9.966501 7.247233,-15.85702 C 91.749927,54.408955 91.149161,48.602566 89.000057,42.939425 86.850955,37.276282 83.296525,32.561099 78.466206,28.700096 Z m -29.975357,0.155617 30.807174,43.118665 c 0.280992,0.273912 0.31021,0.543866 0.08763,0.80984 -0.222604,0.265911 -0.499026,0.291548 -0.829444,0.07677 L 29.229368,51.87701 c -0.435216,-0.150578 -0.655054,-0.37564 -0.714851,-0.670013 -0.05972,-0.29439 0.138013,-0.5308 0.593429,-0.709258 l 12.554205,-7.077881 c 0.369558,-0.197772 0.616815,-0.493299 0.717051,-0.857025 l 4.679741,-13.520111 c 0.06382,-0.442126 0.236922,-0.648986 0.519256,-0.620584 0.282332,0.02845 0.656381,0.130127 0.912653,0.433595 z"
   id="path2"
   style="fill:#2c4f54;fill-opacity:0.5;stroke:#2e3332;stroke-width:0.239387;stroke-miterlimit:4;stroke-dasharray:none;stroke-opacity:0.9" />
<path
   style="fill:#2c4f53;fill-opacity:0.499285;stroke:#e4e7e7;stroke-width:0.237904;stroke-miterlimit:4;stroke-dasharray:none;stroke-opacity:0.9"
   d="m 33.604162,31.809893 c 1.183898,-1.13234 2.582553,-2.299554 3.875353,-3.234114 7.269484,-5.254976 17.742763,-7.235234 27.050766,-5.114688 5.010328,1.141467 8.745043,2.960493 12.946318,6.305632 4.312376,3.433355 6.978222,6.76746 9.145497,11.436933 1.46073,3.147261 2.281524,6.048368 2.721217,9.618289 0.872587,7.08472 -0.403716,13.566168 -3.886645,19.737723 -0.725322,1.285245 -1.085062,1.772556 -3.115624,4.22055 -2.464796,2.971345 -3.248144,3.739824 -5.576315,5.470099 -3.516309,2.613176 -8.348297,4.763664 -12.912103,5.746528 -1.861555,0.400923 -5.80908,0.748107 -7.765297,0.682942 -4.734381,-0.157651 -9.305198,-1.204122 -13.194474,-3.020865 -2.868058,-1.339675 -3.795633,-1.925617 -6.680897,-4.220173 -2.035306,-1.61871 -2.863701,-2.344105 -3.634365,-3.183182 -4.68051,-5.09563 -7.594776,-11.498599 -8.327668,-18.296881 -0.750575,-6.962507 0.761191,-13.899684 4.313601,-19.794064 0.81891,-1.358779 3.967845,-5.32867 5.040622,-6.354764 z m 11.717923,4.712783 c -1.247104,3.626921 -2.326605,6.717556 -2.398902,6.868072 -0.08918,0.18578 -2.192936,1.451211 -6.550842,3.940478 -3.695297,2.110799 -6.456999,3.760582 -6.508012,3.887773 -0.105683,0.263629 0.186152,0.67959 0.63353,0.902917 0.177625,0.08864 10.938586,4.620781 23.913277,10.071394 22.736146,9.55136 23.601636,9.903598 23.901834,9.727536 0.231964,-0.136118 0.303842,-0.248253 0.281248,-0.439902 C 78.55705,71.163946 49.247686,30.180446 48.808551,29.8313 c -0.396762,-0.315463 -1.020049,-0.372263 -1.134066,-0.103328 -0.04659,0.110241 -1.105301,3.167792 -2.352402,6.794711 z"
   id="path861" /><rect
   style="fill:#c7485e;fill-opacity:1;stroke:#3c4343;stroke-width:0.970885;stroke-opacity:0.9"
   id="rect2803"
   width="10.663289"
   height="0.12489498"
   x="-0.49865654"
   y="-86.993965"
   transform="matrix(-0.62793962,0.77826206,-0.764504,-0.64461899,0,0)"
   inkscape:transform-center-x="1.156511"
   inkscape:transform-center-y="-8.4814452" /><path
   style="fill:#a06f78;fill-opacity:1;stroke:#e27364;stroke-width:0.0767443;stroke-opacity:0.9"
   d="m 67.551482,56.602517 c 0.109602,0.156725 2.510686,3.503234 5.335875,7.436692 2.825193,3.933451 5.186522,7.264345 5.247391,7.401968 0.09574,0.216579 -16.194067,-6.751103 -16.652063,-7.122595 -0.125137,-0.101432 0.634662,-1.186514 2.849533,-4.069669 2.824147,-3.676268 3.033085,-3.912805 3.219225,-3.64642 z"
   id="path3397"
   inkscape:transform-center-x="-4.1909255"
   inkscape:transform-center-y="-3.9188625" /><text
   xml:space="preserve"
   style="font-size:12.3928px;line-height:1.25;font-family:'Segoe Script';-inkscape-font-specification:'Segoe Script';fill:#e0e0e0;fill-opacity:1;stroke-width:0.309819"
   x="51.90134"
   y="8.2387362"
   id="text9344"
   transform="scale(1.0279795,0.97278201)"><tspan
     sodipodi:role="line"
     id="tspan9342"
     x="51.90134"
     y="8.2387362"
     style="fill:#e0e0e0;fill-opacity:1;stroke-width:0.309819">c</tspan></text><text
   xml:space="preserve"
   style="font-size:9.93056px;line-height:1.25;font-family:'Segoe Script';-inkscape-font-specification:'Segoe Script';fill:#e0e0e0;fill-opacity:1;stroke-width:0.248263"
   x="57.607204"
   y="96.113312"
   id="text11307"
   transform="scale(0.89368388,1.1189639)"><tspan
     sodipodi:role="line"
     id="tspan11305"
     x="57.607204"
     y="96.113312"
     style="fill:#e0e0e0;fill-opacity:1;stroke-width:0.248263">ю</tspan></text><text
   xml:space="preserve"
   style="font-size:11.4372px;line-height:1.25;font-family:'Segoe Script';-inkscape-font-specification:'Segoe Script';fill:#e0e0e0;fill-opacity:1;stroke-width:0.285931"
   x="0.68133134"
   y="71.396957"
   id="text16794"
   transform="scale(1.3854961,0.72176313)"><tspan
     sodipodi:role="line"
     id="tspan16792"
     x="0.68133134"
     y="71.396957"
     style="fill:#e0e0e0;fill-opacity:1;stroke-width:0.285931">з</tspan></text><text
   xml:space="preserve"
   style="font-size:11.9102px;line-height:1.25;font-family:'Segoe Script';-inkscape-font-specification:'Segoe Script';fill:#e0e0e0;fill-opacity:1;stroke-width:0.297755"
   x="72.507019"
   y="73.77787"
   id="text19318"
   transform="scale(1.4008743,0.71383994)"><tspan
     sodipodi:role="line"
     id="tspan19316"
     x="72.507019"
     y="73.77787"
     style="fill:#e0e0e0;fill-opacity:1;stroke-width:0.297755">в</tspan></text><text
   xml:space="preserve"
   style="font-size:20.8182px;line-height:1.25;font-family:'Segoe Script';-inkscape-font-specification:'Segoe Script';fill:#16272a;fill-opacity:0.799714;stroke-width:0.520454"
   x="10.676073"
   y="66.429352"
   id="text17884"
   transform="scale(1.3206763,0.75718784)"><tspan
     sodipodi:role="line"
     id="tspan17882"
     x="10.676073"
     y="66.429352"
     style="stroke-width:0.520454">_</tspan></text><text
   xml:space="preserve"
   style="font-size:22.1074px;line-height:1.25;font-family:'Segoe Script';-inkscape-font-specification:'Segoe Script';fill:#16272a;fill-opacity:0.799714;stroke-width:0.552682"
   x="61.198879"
   y="69.984749"
   id="text17884-6"
   transform="scale(1.4024552,0.71303527)"><tspan
     sodipodi:role="line"
     id="tspan17882-2"
     x="61.198879"
     y="69.984749"
     style="stroke-width:0.552682">_</tspan></text><text
   xml:space="preserve"
   style="font-size:18.8287px;line-height:1.25;font-family:'Segoe Script';-inkscape-font-specification:'Segoe Script';fill:#16272a;fill-opacity:0.799714;stroke-width:0.470716"
   x="-74.982536"
   y="70.03611"
   id="text17884-0"
   transform="matrix(-0.01869815,-1.3381464,0.74655851,-0.0532361,0,0)"><tspan
     sodipodi:role="line"
     id="tspan17882-4"
     x="-74.982536"
     y="70.03611"
     style="stroke-width:0.470716">_</tspan></text><text
   xml:space="preserve"
   style="font-size:21.2554px;line-height:1.25;font-family:'Segoe Script';-inkscape-font-specification:'Segoe Script';fill:#16272a;fill-opacity:0.799714;stroke-width:0.531384"
   x="-18.032579"
   y="73.904037"
   id="text17884-9"
   transform="matrix(5.1076214e-4,-1.3384288,0.74714415,0.00145338,0,0)"><tspan
     sodipodi:role="line"
     id="tspan17882-7"
     x="-18.032579"
     y="73.904037"
     style="stroke-width:0.531384">_</tspan></text></svg>
