<?xml version="1.0" encoding="UTF-8" standalone="no"?>
<!-- Generator: Adobe Illustrator 22.0.1, SVG Export Plug-In . SVG Version: 6.00 Build 0)  -->

<svg
   version="1.1"
   id="Layer_1"
   x="0px"
   y="0px"
   viewBox="0 0 110 110"
   xml:space="preserve"
   sodipodi:docname="southEastWind.svg"
   width="110"
   height="110"
   inkscape:version="1.1.1 (3bf5ae0d25, 2021-09-20)"
   xmlns:inkscape="http://www.inkscape.org/namespaces/inkscape"
   xmlns:sodipodi="http://sodipodi.sourceforge.net/DTD/sodipodi-0.dtd"
   xmlns="http://www.w3.org/2000/svg"
   xmlns:svg="http://www.w3.org/2000/svg"><defs
   id="defs7" /><sodipodi:namedview
   id="namedview5"
   pagecolor="#ffffff"
   bordercolor="#666666"
   borderopacity="1.0"
   inkscape:pageshadow="2"
   inkscape:pageopacity="0.0"
   inkscape:pagecheckerboard="0"
   showgrid="false"
   inkscape:zoom="10.158767"
   inkscape:cx="72.154426"
   inkscape:cy="51.33497"
   inkscape:window-width="2400"
   inkscape:window-height="1321"
   inkscape:window-x="2391"
   inkscape:window-y="-9"
   inkscape:window-maximized="1"
   inkscape:current-layer="Layer_1"
   width="140px" />
<path
   d="m 84.598233,21.371103 c 6.236611,4.985101 10.753623,11.110807 13.545202,18.323145 2.791575,7.212346 3.592425,14.608839 2.402585,22.189511 -1.189846,7.580666 -4.309746,14.358331 -9.329109,20.357469 -3.758325,4.491948 -8.285462,8.073494 -13.526084,10.739519 C 72.450203,95.646738 67.03151,97.184109 61.477039,97.72522 55.922547,98.266302 50.275885,97.698081 44.537042,96.020565 38.798176,94.343006 33.623526,91.686268 28.915481,87.923007 24.268589,84.208634 20.546923,79.7543 17.756292,74.614 14.965671,69.473722 13.299864,64.147576 12.71529,58.748665 12.130705,53.349773 12.652119,47.848548 14.28528,42.298999 15.918464,36.749453 18.586577,31.731271 22.36964,27.209764 26.152693,22.688235 30.70456,19.077153 35.945193,16.411139 41.185824,13.74514 46.62922,12.178226 52.1837,11.637094 c 5.554484,-0.541114 11.176422,0.05665 16.878854,1.655796 5.702452,1.599113 10.858228,4.339398 15.535679,8.078213 z m -6.132027,7.328993 c -7.245474,-5.791502 -15.669654,-8.283958 -25.29727,-7.447825 -9.566462,0.885008 -17.289163,4.871241 -23.248103,11.993357 -3.906702,4.669266 -6.349109,9.966497 -7.24723,15.857012 -0.898117,5.89052 -0.327923,11.672446 1.845903,17.306045 2.173809,5.633592 5.648226,10.383449 10.478545,14.244469 4.830317,3.86098 10.313389,6.27107 16.393902,7.23541 6.080514,0.964324 11.997356,0.416948 17.750514,-1.64212 5.75316,-2.059079 10.555428,-5.42068 14.462119,-10.089963 3.906697,-4.669271 6.349102,-9.966501 7.247233,-15.85702 C 91.749927,54.408955 91.149161,48.602566 89.000057,42.939425 86.850955,37.276282 83.296525,32.561099 78.466206,28.700096 Z m -29.975357,0.155617 30.807174,43.118665 c 0.280992,0.273912 0.31021,0.543866 0.08763,0.80984 -0.222604,0.265911 -0.499026,0.291548 -0.829444,0.07677 L 29.229368,51.87701 c -0.435216,-0.150578 -0.655054,-0.37564 -0.714851,-0.670013 -0.05972,-0.29439 0.138013,-0.5308 0.593429,-0.709258 l 12.554205,-7.077881 c 0.369558,-0.197772 0.616815,-0.493299 0.717051,-0.857025 l 4.679741,-13.520111 c 0.06382,-0.442126 0.236922,-0.648986 0.519256,-0.620584 0.282332,0.02845 0.656381,0.130127 0.912653,0.433595 z"
   id="path2"
   style="fill:#2c4f54;fill-opacity:0.5;stroke:#2e3332;stroke-width:0.239387;stroke-miterlimit:4;stroke-dasharray:none;stroke-opacity:0.9" />
<path
   style="fill:#2c4f53;fill-opacity:0.499285;stroke:#e4e7e7;stroke-width:0.237904;stroke-miterlimit:4;stroke-dasharray:none;stroke-opacity:0.9"
   d="m 33.604162,31.809893 c 1.183898,-1.13234 2.582553,-2.299554 3.875353,-3.234114 7.269484,-5.254976 17.742763,-7.235234 27.050766,-5.114688 5.010328,1.141467 8.745043,2.960493 12.946318,6.305632 4.312376,3.433355 6.978222,6.76746 9.145497,11.436933 1.46073,3.147261 2.281524,6.048368 2.721217,9.618289 0.872587,7.08472 -0.403716,13.566168 -3.886645,19.737723 -0.725322,1.285245 -1.085062,1.772556 -3.115624,4.22055 -2.464796,2.971345 -3.248144,3.739824 -5.576315,5.470099 -3.516309,2.613176 -8.348297,4.763664 -12.912103,5.746528 -1.861555,0.400923 -5.80908,0.748107 -7.765297,0.682942 -4.734381,-0.157651 -9.305198,-1.204122 -13.194474,-3.020865 -2.868058,-1.339675 -3.795633,-1.925617 -6.680897,-4.220173 -2.035306,-1.61871 -2.863701,-2.344105 -3.634365,-3.183182 -4.68051,-5.09563 -7.594776,-11.498599 -8.327668,-18.296881 -0.750575,-6.962507 0.761191,-13.899684 4.313601,-19.794064 0.81891,-1.358779 3.967845,-5.32867 5.040622,-6.354764 z m 11.717923,4.712783 c -1.247104,3.626921 -2.326605,6.717556 -2.398902,6.868072 -0.08918,0.18578 -2.192936,1.451211 -6.550842,3.940478 -3.695297,2.110799 -6.456999,3.760582 -6.508012,3.887773 -0.105683,0.263629 0.186152,0.67959 0.63353,0.902917 0.177625,0.08864 10.938586,4.620781 23.913277,10.071394 22.736146,9.55136 23.601636,9.903598 23.901834,9.727536 0.231964,-0.136118 0.303842,-0.248253 0.281248,-0.439902 C 78.55705,71.163946 49.247686,30.180446 48.808551,29.8313 c -0.396762,-0.315463 -1.020049,-0.372263 -1.134066,-0.103328 -0.04659,0.110241 -1.105301,3.167792 -2.352402,6.794711 z"
   id="path861" /><rect
   style="fill:#c7485e;fill-opacity:1;stroke:#3c4343;stroke-width:0.970885;stroke-opacity:0.9"
   id="rect2803"
   width="10.663289"
   height="0.12489498"
   x="-0.49865654"
   y="-86.993965"
   transform="matrix(-0.62793962,0.77826206,-0.764504,-0.64461899,0,0)"
   inkscape:transform-center-x="1.156511"
   inkscape:transform-center-y="-8.4814452" /><path
   style="fill:#a06f78;fill-opacity:1;stroke:#e27364;stroke-width:0.0767443;stroke-opacity:0.9"
   d="m 67.551482,56.602517 c 0.109602,0.156725 2.510686,3.503234 5.335875,7.436692 2.825193,3.933451 5.186522,7.264345 5.247391,7.401968 0.09574,0.216579 -16.194067,-6.751103 -16.652063,-7.122595 -0.125137,-0.101432 0.634662,-1.186514 2.849533,-4.069669 2.824147,-3.676268 3.033085,-3.912805 3.219225,-3.64642 z"
   id="path3397"
   inkscape:transform-center-x="-4.1909255"
   inkscape:transform-center-y="-3.9188625" /><g
   aria-label="c"
   transform="scale(1.0279795,0.97278201)"
   id="text9344"
   style="font-size:12.3928px;line-height:1.25;font-family:'Segoe Script';-inkscape-font-specification:'Segoe Script';fill:#e0e0e0;stroke-width:0.309819"><path
     d="m 58.81783,5.7335509 q 0,0.2178422 -0.15733,0.3933262 -0.163382,0.1815352 -0.284405,0.3086098 -0.121024,0.1210234 -0.229945,0.2238934 -0.108921,0.1028699 -0.229945,0.1996886 -0.121023,0.090768 -0.284405,0.211791 -0.459889,0.3328145 -0.87742,0.562759 -0.41753,0.2238934 -0.810857,0.3691215 -0.393326,0.139177 -0.780601,0.1996887 -0.381224,0.060512 -0.768499,0.060512 -0.405428,0 -0.72614,-0.1512793 Q 53.347571,7.9543311 53.123677,7.6880795 52.905835,7.4218279 52.790863,7.0708599 52.675891,6.7138408 52.675891,6.3205146 v -0.030256 q 0,-0.3993774 0.102869,-0.8471641 0.10287,-0.4538379 0.284406,-0.9076758 0.187586,-0.4538379 0.447786,-0.8895223 0.260201,-0.4417356 0.574862,-0.8229594 0.127074,-0.1512793 0.302558,-0.3207121 0.181535,-0.175484 0.381224,-0.3207122 0.20574,-0.1452281 0.423582,-0.2359957 0.223893,-0.096819 0.435684,-0.096819 0.145229,0 0.278354,0.090768 0.133126,0.084716 0.248098,0.2238933 0.114973,0.139177 0.211791,0.314661 0.09682,0.1694328 0.163382,0.350968 0.06656,0.1754839 0.10287,0.3388656 0.03631,0.1633816 0.03631,0.2783539 0,0.175484 -0.108921,0.4538379 -0.108921,0.2783539 -0.2602,0.2783539 -0.217843,0 -0.363071,-0.2965074 Q 55.883012,3.76692 55.840653,3.6156407 55.804346,3.4643614 55.749886,3.3191333 55.701477,3.1739052 55.61676,3.0528817 55.532044,2.9258071 55.380764,2.8652954 q -0.151279,0.036307 -0.308609,0.1573305 -0.15128,0.1210234 -0.302559,0.2965074 -0.145228,0.175484 -0.290456,0.3993773 -0.139177,0.2178422 -0.266252,0.4538379 -0.121023,0.2178422 -0.235996,0.5022473 -0.114972,0.2783539 -0.205739,0.5809125 -0.09077,0.2965075 -0.145228,0.5930149 -0.05446,0.2965074 -0.05446,0.5446055 0,0.175484 0.08472,0.3570191 0.08472,0.175484 0.217843,0.3207121 0.139177,0.1452282 0.308609,0.2359958 0.175484,0.090768 0.357019,0.090768 0.895574,0 1.779045,-0.3691215 0.883471,-0.3691214 1.682226,-1.0710574 0.441735,-0.387275 0.732192,-0.387275 0.08472,0 0.08472,0.1633816 z"
     id="path3065" /></g><g
   aria-label="ю"
   transform="scale(0.89368388,1.1189639)"
   id="text11307"
   style="font-size:9.93056px;line-height:1.25;font-family:'Segoe Script';-inkscape-font-specification:'Segoe Script';fill:#e0e0e0;stroke-width:0.248263"><path
     d="m 58.906711,94.110713 q 0,-0.0194 -0.02424,-0.03394 -0.0194,-0.0194 -0.04849,-0.04849 -0.02909,-0.02909 -0.05334,-0.07758 -0.0194,-0.04849 -0.0194,-0.13577 0,-0.07758 0.04364,-0.140618 0.04364,-0.06304 0.09213,-0.116374 0.05334,-0.05334 0.09698,-0.09698 0.04849,-0.04364 0.05819,-0.08243 0.08243,-0.465495 0.140618,-0.877652 0.05819,-0.412157 0.07273,-0.688545 0.0048,-0.08243 0,-0.169712 0,-0.08728 -0.0048,-0.17456 -0.0048,-0.06304 -0.0097,-0.121223 0,-0.05819 0,-0.111525 0,-0.05819 0.04364,-0.13092 0.04364,-0.07273 0.106676,-0.13577 0.06788,-0.06304 0.145467,-0.101827 0.08243,-0.04364 0.160014,-0.04364 0.06789,0 0.135769,0.03879 0.06788,0.03394 0.121223,0.101827 0.05334,0.06304 0.08728,0.160014 0.03394,0.09213 0.03394,0.208503 0,0.08728 -0.01455,0.213352 -0.01455,0.126072 -0.03879,0.276388 -0.02425,0.150316 -0.05819,0.315179 -0.02909,0.164862 -0.05819,0.329725 -0.03879,0.227899 -0.07758,0.436402 -0.03394,0.208503 -0.05334,0.358819 0.0194,0.04364 0.03394,0.07758 0.0194,0.02909 0.04849,0.04849 0.02909,0.0194 0.07273,0.02909 0.04849,0.0097 0.126072,0.0097 0.208503,0 0.44125,-0.04364 0.232748,-0.04364 0.441251,-0.111525 0.208503,-0.06788 0.373366,-0.140619 0.169711,-0.07758 0.252143,-0.145467 0.05334,-0.04364 0.116374,-0.116374 0.06788,-0.07273 0.135769,-0.155165 0.06789,-0.08728 0.13092,-0.169711 0.06788,-0.08728 0.116374,-0.150316 0.164863,-0.208503 0.373366,-0.407308 0.208503,-0.198806 0.460646,-0.349122 0.252143,-0.150316 0.543078,-0.242445 0.295783,-0.09213 0.640055,-0.09213 0.261841,0 0.513984,0.13092 0.252143,0.126072 0.4461,0.344273 0.198805,0.2182 0.315179,0.504286 0.121222,0.281236 0.121222,0.591566 0,0.31033 -0.06304,0.567322 -0.05819,0.252144 -0.189107,0.538229 -0.07273,0.150316 -0.252143,0.358819 -0.17941,0.208503 -0.431553,0.431553 -0.247294,0.223049 -0.543077,0.44125 -0.295784,0.218201 -0.601265,0.392762 -0.305481,0.17456 -0.601264,0.281236 -0.290934,0.106676 -0.528531,0.106676 -0.320028,0 -0.547926,-0.106676 -0.227899,-0.111525 -0.373366,-0.286085 -0.145467,-0.17941 -0.213352,-0.407308 -0.06789,-0.227899 -0.06789,-0.460647 0,-0.189107 0.05334,-0.455797 0.05819,-0.271538 0.193957,-0.547926 -0.184259,0.116374 -0.412157,0.184258 -0.22305,0.06789 -0.412157,0.121223 -0.08243,0.02424 -0.184259,0.04364 -0.101827,0.01455 -0.203654,0.02909 -0.09698,0.01455 -0.189107,0.02909 -0.08728,0.01455 -0.150316,0.02425 -0.09698,0.01939 -0.13577,0.07758 -0.03394,0.05334 -0.05334,0.140618 -0.01939,0.08243 -0.05819,0.218201 -0.03879,0.135769 -0.07758,0.281237 -0.04364,0.155165 -0.09213,0.320027 -0.04849,0.164863 -0.08728,0.315179 -0.03394,0.145468 -0.06303,0.271539 -0.02425,0.121223 -0.02425,0.189107 0,0.06304 -0.05334,0.13577 -0.04849,0.07273 -0.116374,0.135769 -0.06303,0.06789 -0.13092,0.111525 -0.06304,0.04364 -0.09698,0.04364 -0.07273,0 -0.140619,-0.04849 -0.06303,-0.04849 -0.111524,-0.111525 -0.04849,-0.06303 -0.07758,-0.126071 -0.02909,-0.06788 -0.02909,-0.101827 0,-0.04364 0.03394,-0.155165 0.03879,-0.111525 0.07758,-0.227899 0.02424,-0.07273 0.06303,-0.198805 0.03879,-0.126072 0.07758,-0.276388 0.04364,-0.155165 0.08243,-0.320027 0.04364,-0.164863 0.07758,-0.310331 0.03394,-0.145467 0.05334,-0.252143 0.0194,-0.111524 0.0194,-0.160014 z m 5.842932,-1.095852 q 0,-0.484891 -0.281236,-0.75643 -0.276388,-0.276387 -0.795221,-0.276387 -0.07273,0 -0.179409,0.05819 -0.106676,0.05819 -0.232748,0.150317 -0.121222,0.08728 -0.247294,0.193956 -0.121223,0.106676 -0.232748,0.208503 -0.106675,0.101827 -0.184258,0.184258 -0.07758,0.08243 -0.106676,0.116374 -0.101827,0.121223 -0.213352,0.334575 -0.106676,0.208502 -0.198805,0.450948 -0.09213,0.242445 -0.155165,0.489739 -0.05819,0.242446 -0.05819,0.426704 0,0.111525 0.02909,0.227899 0.03394,0.116373 0.09698,0.213352 0.06788,0.09213 0.169711,0.155165 0.101827,0.05819 0.237597,0.05819 0.150316,0 0.383063,-0.08728 0.232748,-0.08728 0.48974,-0.242445 0.261841,-0.155165 0.523682,-0.368517 0.26669,-0.213352 0.475193,-0.460646 0.213352,-0.247294 0.344272,-0.518833 0.135769,-0.276388 0.135769,-0.557624 z"
     id="path3023" /></g><g
   aria-label="з"
   transform="scale(1.3854961,0.72176313)"
   id="text16794"
   style="font-size:11.4372px;line-height:1.25;font-family:'Segoe Script';-inkscape-font-specification:'Segoe Script';fill:#e0e0e0;stroke-width:0.285931"><path
     d="m 1.5022631,71.843723 q 0.055846,0 0.089353,0.03909 0.039092,0.03909 0.06143,0.09494 0.022338,0.06143 0.027923,0.134029 0.011169,0.0726 0.011169,0.139615 0,0.128445 0.044677,0.279228 0.050261,0.150784 0.156368,0.279229 0.1116914,0.128445 0.284813,0.212213 0.1731217,0.08935 0.4244274,0.08935 0.3406587,0 0.7036558,-0.178706 0.362997,-0.178706 0.6645638,-0.497027 0.3015668,-0.31832 0.4914422,-0.759501 0.19546,-0.435597 0.19546,-0.954962 0,-0.480273 -0.1005223,-0.815347 Q 4.4565007,69.570803 4.2945482,69.364174 4.1381802,69.15196 3.9315511,69.057023 3.724922,68.962085 3.518293,68.962085 q -0.078184,0 -0.1731217,0.03909 -0.094938,0.03351 -0.19546,0.08935 -0.094938,0.05026 -0.1954599,0.111691 -0.094938,0.06143 -0.1731217,0.111692 -0.1340297,0.08935 -0.2568902,0.150783 -0.117276,0.06143 -0.312736,0.06143 -0.1507833,0 -0.2624747,-0.111691 -0.1061069,-0.117276 -0.1061069,-0.307151 0,-0.145199 0.1005223,-0.245721 0.1061068,-0.100523 0.323905,-0.189876 0.4635194,-0.189875 0.8265164,-0.385335 0.3685817,-0.201045 0.6198873,-0.430012 0.2513057,-0.234552 0.3853353,-0.513781 0.1340297,-0.279228 0.1340297,-0.63664 0,-0.139615 -0.044676,-0.273644 -0.039092,-0.139615 -0.1228606,-0.245722 -0.083769,-0.111691 -0.2066291,-0.178706 -0.1172759,-0.0726 -0.2736439,-0.0726 -0.3350742,0 -0.636641,0.206629 -0.3015668,0.206629 -0.5919644,0.508196 -0.1284451,0.134029 -0.2122137,0.19546 -0.083769,0.05584 -0.1787062,0.05584 -0.078184,0 -0.1396143,-0.03909 -0.055846,-0.04468 -0.094938,-0.100522 -0.033507,-0.06143 -0.055846,-0.128445 -0.016754,-0.0726 -0.016754,-0.12286 0,-0.13403 0.072599,-0.251306 0.078184,-0.122861 0.2066291,-0.228967 0.2792285,-0.234552 0.5472879,-0.385336 0.2680593,-0.150783 0.441181,-0.223383 0.19546,-0.07818 0.4020891,-0.150783 0.2122136,-0.0726 0.3965044,-0.0726 0.2624748,0 0.5026114,0.09494 0.2401365,0.08935 0.4188427,0.26806 0.1842908,0.173121 0.2903977,0.430012 0.1116914,0.25689 0.1116914,0.580795 0,0.469104 -0.2289674,0.932623 -0.2233828,0.463519 -0.7650861,0.899116 0.3741662,0.01675 0.6533947,0.189875 0.2792285,0.173122 0.4635193,0.457935 0.1898754,0.284813 0.2792285,0.658979 0.094938,0.368582 0.094938,0.78184 0,0.413258 -0.1116914,0.820932 -0.1116914,0.407673 -0.3183205,0.78184 -0.2010445,0.374166 -0.4858576,0.692486 -0.2792285,0.318321 -0.6198873,0.552873 -0.3350742,0.234552 -0.7204095,0.368581 -0.3797508,0.13403 -0.7818398,0.13403 -0.3853354,0 -0.6701484,-0.128445 -0.2848131,-0.122861 -0.4746885,-0.312736 -0.1842908,-0.189875 -0.2792285,-0.407674 -0.0949377,-0.217798 -0.0949377,-0.402089 0,-0.139614 0.0502611,-0.301566 0.055846,-0.161953 0.1228606,-0.256891 0.044677,-0.06143 0.1284451,-0.128445 0.083768,-0.06143 0.2122136,-0.06143 z"
     id="path3044" /></g><g
   aria-label="в"
   transform="scale(1.4008743,0.71383994)"
   id="text19318"
   style="font-size:11.9102px;line-height:1.25;font-family:'Segoe Script';-inkscape-font-specification:'Segoe Script';fill:#e0e0e0;stroke-width:0.297755"><path
     d="m 77.019868,66.304917 q 0,-0.06979 -0.02908,-0.139572 -0.02326,-0.0756 -0.0756,-0.133757 -0.04652,-0.06397 -0.127942,-0.10468 -0.0756,-0.04071 -0.180281,-0.04071 -0.203544,0 -0.424534,0.145389 -0.215174,0.145388 -0.436164,0.401271 -0.215175,0.250068 -0.418718,0.598999 -0.203544,0.343117 -0.378009,0.744388 -0.174466,0.401271 -0.314039,0.843251 -0.133757,0.436165 -0.215174,0.878145 0.05234,-0.03489 0.157019,-0.110495 0.104679,-0.08142 0.232621,-0.180281 0.133757,-0.10468 0.279145,-0.22099 0.151204,-0.122126 0.284961,-0.238437 0.139573,-0.116311 0.255883,-0.22099 0.116311,-0.10468 0.186097,-0.180281 0.645524,-0.697864 0.924669,-1.20963 0.279145,-0.511767 0.279145,-0.831621 z m -0.180281,6.269139 q -0.180281,0.267514 -0.436165,0.523397 -0.250067,0.250068 -0.552475,0.441981 -0.302407,0.191912 -0.645523,0.302407 -0.337301,0.110495 -0.686232,0.08142 -0.244253,-0.01745 -0.465243,-0.157019 -0.22099,-0.145388 -0.38964,-0.407087 -0.16865,-0.267514 -0.267514,-0.651339 -0.09886,-0.383825 -0.09886,-0.88396 0,-0.319854 0.03489,-0.692048 0.03489,-0.378009 0.09305,-0.761834 0.05816,-0.383825 0.127942,-0.750203 0.0756,-0.366378 0.145388,-0.674601 0.09305,-0.418718 0.244252,-0.825805 0.151204,-0.412902 0.337301,-0.790912 0.186097,-0.383825 0.401271,-0.721125 0.215175,-0.337301 0.44198,-0.61063 0.314039,-0.366379 0.71531,-0.587369 0.407087,-0.22099 0.953747,-0.22099 0.226805,0 0.412902,0.09305 0.186097,0.09305 0.319854,0.244252 0.133757,0.145388 0.203544,0.331485 0.0756,0.186097 0.0756,0.366378 0,0.250068 -0.10468,0.558291 -0.09886,0.302407 -0.290776,0.633892 -0.191913,0.331485 -0.465243,0.668786 -0.273329,0.3373 -0.622261,0.651339 0.08142,0.0058 0.186097,0.02908 0.110495,0.01745 0.226805,0.06979 0.122127,0.05234 0.244253,0.139573 0.127941,0.08723 0.244252,0.22099 0.05234,0.06397 0.11631,0.174465 0.06397,0.10468 0.116311,0.261699 0.05815,0.151204 0.09305,0.348932 0.04071,0.197728 0.04071,0.436164 0,0.465243 -0.16865,1.006087 -0.162835,0.535028 -0.581553,1.151474 z m -0.162835,-2.140114 q 0,-0.319854 -0.09305,-0.535029 -0.09305,-0.22099 -0.22099,-0.348931 -0.127942,-0.133757 -0.261699,-0.186097 -0.133757,-0.05815 -0.215175,-0.05815 -0.0756,0 -0.238436,0.11631 -0.162835,0.116311 -0.348932,0.255883 -0.139572,0.122126 -0.279145,0.226806 -0.139573,0.104679 -0.261699,0.203543 -0.11631,0.09886 -0.215174,0.197728 -0.09886,0.09886 -0.162835,0.209359 -0.162835,0.296592 -0.191913,0.674601 -0.02908,0.37801 -0.02908,0.773466 0,0.261698 0.05234,0.471057 0.05815,0.203544 0.139572,0.348932 0.08723,0.145388 0.186097,0.226806 0.09886,0.0756 0.180281,0.0756 0.197728,0 0.447796,-0.08142 0.250068,-0.08142 0.511766,-0.319854 0.226806,-0.209359 0.407087,-0.471058 0.186097,-0.261698 0.314039,-0.552475 0.133757,-0.290776 0.203543,-0.604815 0.0756,-0.314038 0.0756,-0.622261 z"
     id="path3086" /></g><text
   xml:space="preserve"
   style="font-size:20.8182px;line-height:1.25;font-family:'Segoe Script';-inkscape-font-specification:'Segoe Script';fill:#16272a;fill-opacity:0.799714;stroke-width:0.520454"
   x="10.154325"
   y="66.429352"
   id="text17884"
   transform="scale(1.3206763,0.75718783)"><tspan
     sodipodi:role="line"
     id="tspan17882"
     x="10.154325"
     y="66.429352"
     style="stroke-width:0.520454">_</tspan></text><text
   xml:space="preserve"
   style="font-size:21.661px;line-height:1.25;font-family:'Segoe Script';-inkscape-font-specification:'Segoe Script';fill:#16272a;fill-opacity:0.799714;stroke-width:0.541523"
   x="63.579262"
   y="68.707008"
   id="text17884-6"
   transform="scale(1.3741394,0.72772822)"><tspan
     sodipodi:role="line"
     id="tspan17882-2"
     x="63.579262"
     y="68.707008"
     style="stroke-width:0.541523">_</tspan></text><text
   xml:space="preserve"
   style="font-size:18.8287px;line-height:1.25;font-family:'Segoe Script';-inkscape-font-specification:'Segoe Script';fill:#16272a;fill-opacity:0.799714;stroke-width:0.470716"
   x="-75.491722"
   y="69.891502"
   id="text17884-0"
   transform="matrix(-0.01869815,-1.3381464,0.74655851,-0.0532361,0,0)"><tspan
     sodipodi:role="line"
     id="tspan17882-4"
     x="-75.491722"
     y="69.891502"
     style="stroke-width:0.470716">_</tspan></text><text
   xml:space="preserve"
   style="font-size:21.2554px;line-height:1.25;font-family:'Segoe Script';-inkscape-font-specification:'Segoe Script';fill:#16272a;fill-opacity:0.799714;stroke-width:0.531384"
   x="-18.032579"
   y="73.904037"
   id="text17884-9"
   transform="matrix(5.1076214e-4,-1.3384288,0.74714415,0.00145338,0,0)"><tspan
     sodipodi:role="line"
     id="tspan17882-7"
     x="-18.032579"
     y="73.904037"
     style="stroke-width:0.531384">_</tspan></text></svg>
