<?xml version="1.0" encoding="UTF-8" standalone="no"?>
<!-- Generator: Adobe Illustrator 22.0.1, SVG Export Plug-In . SVG Version: 6.00 Build 0)  -->

<svg
   version="1.1"
   id="Layer_1"
   x="0px"
   y="0px"
   viewBox="0 0 110 110"
   xml:space="preserve"
   sodipodi:docname="southWind.svg"
   width="110"
   height="110"
   inkscape:version="1.1.1 (3bf5ae0d25, 2021-09-20)"
   xmlns:inkscape="http://www.inkscape.org/namespaces/inkscape"
   xmlns:sodipodi="http://sodipodi.sourceforge.net/DTD/sodipodi-0.dtd"
   xmlns="http://www.w3.org/2000/svg"
   xmlns:svg="http://www.w3.org/2000/svg"><defs
   id="defs7" /><sodipodi:namedview
   id="namedview5"
   pagecolor="#ffffff"
   bordercolor="#666666"
   borderopacity="1.0"
   inkscape:pageshadow="2"
   inkscape:pageopacity="0.0"
   inkscape:pagecheckerboard="0"
   showgrid="false"
   inkscape:zoom="10.158767"
   inkscape:cx="70.284119"
   inkscape:cy="41.589692"
   inkscape:window-width="2400"
   inkscape:window-height="1321"
   inkscape:window-x="2391"
   inkscape:window-y="-9"
   inkscape:window-maximized="1"
   inkscape:current-layer="Layer_1"
   width="140px" />
<path
   d="m 99.764631,55.863799 c -0.26184,7.964589 -2.4725,15.278758 -6.592089,21.904756 -4.119604,6.626 -9.582213,11.800758 -16.387858,15.524277 -6.80564,3.723519 -14.124659,5.436827 -21.958362,5.179004 C 48.960714,98.27879 43.365124,96.922083 38.076887,94.442074 32.788672,91.96204 28.300452,88.648491 24.531257,84.616014 20.762075,80.583497 17.828928,75.796843 15.73181,70.256049 13.634714,64.715214 12.663126,59.016031 12.860781,53.003539 13.055862,47.069147 14.40095,41.407119 16.85615,36.0552 c 2.455185,-5.351898 5.734956,-9.934074 9.722271,-13.711274 3.987291,-3.777199 8.720751,-6.748128 14.16043,-8.87508 5.439693,-2.126933 11.073689,-3.11402 16.977898,-2.919694 5.904222,0.194304 11.538387,1.552285 16.826625,4.032314 5.288222,2.480037 9.815012,5.794839 13.584229,9.827314 3.769203,4.032491 6.663768,8.817871 8.802006,14.281886 2.138269,5.464015 3.031397,11.199707 2.835022,17.173133 z M 90.194392,55.548821 C 90.498581,46.295854 87.444265,38.143966 80.992876,31.09188 74.538919,24.117888 66.699826,20.498631 57.399731,20.192539 c -6.097162,-0.200685 -11.81989,1.135259 -17.0923,4.04938 -5.272412,2.914132 -9.576125,6.915408 -12.79798,12.085754 -3.221863,5.170329 -4.95284,10.819665 -5.155645,16.988323 -0.202776,6.168635 1.152151,11.958617 4.027442,17.329642 2.875304,5.371015 6.867067,9.684418 11.975273,12.940207 5.108215,3.255781 10.692231,4.96386 16.789398,5.164522 6.097165,0.200679 11.819889,-1.13527 17.09231,-4.049385 5.272393,-2.914123 9.577415,-6.954459 12.837844,-12.123533 3.260439,-5.169076 4.915524,-10.85998 5.118319,-17.028628 z M 72.074917,32.088147 55.921144,82.795992 c -0.05141,0.389143 -0.250798,0.577997 -0.598135,0.566534 -0.3473,-0.0115 -0.533839,-0.212998 -0.559607,-0.604647 L 42.01359,31.09875 c -0.140269,-0.434553 -0.09138,-0.745622 0.109252,-0.973516 0.200695,-0.227855 0.509367,-0.217735 0.926155,0.03048 l 13.223737,5.516202 c 0.380767,0.168882 0.766664,0.18158 1.119105,0.03682 l 13.673225,-4.630953 c 0.393587,-0.221535 0.663713,-0.212637 0.810378,0.02669 0.146633,0.239347 0.289466,0.595786 0.199462,0.98367 z"
   id="path2"
   style="fill:#2c4f54;fill-opacity:0.5;stroke:#2e3332;stroke-width:0.239433;stroke-miterlimit:4;stroke-dasharray:none;stroke-opacity:0.9" />
<path
   style="fill:#2c4f53;fill-opacity:0.499285;stroke:#e4e7e7;stroke-width:0.239433;stroke-miterlimit:4;stroke-dasharray:none;stroke-opacity:0.9"
   d="m 60.792738,21.849391 c 1.633832,0.211856 3.426135,0.569424 4.966076,0.990712 8.659102,2.369004 16.613274,9.299149 20.544317,17.899432 2.115999,4.629378 2.910315,8.689214 2.753469,14.073334 -0.160803,5.526346 -1.240063,9.704901 -3.701654,14.334321 -1.659146,3.120242 -3.507388,5.586067 -6.127668,8.175134 -5.200103,5.138158 -11.215784,8.21927 -18.319322,9.382841 -1.47933,0.242321 -2.091621,0.268059 -5.302976,0.222929 -3.897978,-0.05484 -4.994597,-0.18294 -7.806053,-0.911904 -4.246142,-1.101053 -8.916153,-3.520255 -12.479245,-6.46465 -1.453381,-1.201003 -4.128583,-4.064211 -5.262458,-5.632313 -2.74423,-3.795057 -4.670459,-8.021575 -5.56037,-12.200627 -0.656277,-3.081717 -0.745065,-4.174441 -0.639574,-7.870306 0.0745,-2.607183 0.158649,-3.710207 0.369743,-4.839682 1.281778,-6.859456 4.692135,-13.16255 9.745328,-18.011454 5.175276,-4.966023 11.70233,-8.150016 18.623865,-9.084976 1.595559,-0.215527 6.716032,-0.254769 8.196539,-0.06282 z m 3.296493,12.112342 c -3.689525,1.308139 -6.843702,2.409734 -7.009274,2.447988 -0.204334,0.04726 -2.503751,-0.798957 -7.160169,-2.634948 -3.948442,-1.556821 -6.957767,-2.674857 -7.091571,-2.634669 -0.277301,0.08335 -0.436666,0.572849 -0.345908,1.062589 0.03605,0.194429 2.898175,11.446068 6.360304,25.00367 6.066837,23.757591 6.306965,24.654829 6.631435,24.778413 0.250781,0.09546 0.385057,0.08101 0.526343,-0.05716 0.233827,-0.228413 15.598914,-48.891228 15.6149,-49.453683 0.01446,-0.508184 -0.317677,-1.030483 -0.604321,-0.950305 -0.117409,0.03299 -3.23222,1.129997 -6.921745,2.438135 z"
   id="path861" /><rect
   style="fill:#c7485e;fill-opacity:1;stroke:#3c4343;stroke-width:1.02805;stroke-opacity:0.9"
   id="rect2803"
   width="11.273958"
   height="0.13245302"
   x="-64.133652"
   y="-61.026722"
   transform="matrix(-0.99951897,-0.03101322,0.03975504,-0.99920946,0,0)"
   inkscape:transform-center-x="-6.3282726"
   inkscape:transform-center-y="-6.4107947" /><path
   style="fill:#a06f78;fill-opacity:1;stroke:#e27364;stroke-width:0.0805617;stroke-opacity:0.9"
   d="m 61.273165,64.725286 c -0.06319,0.190723 -1.374168,4.314261 -2.91322,9.163532 -1.539043,4.84927 -2.861821,8.929599 -2.939496,9.067377 -0.12226,0.21678 -4.475935,-17.849073 -4.450515,-18.46758 0.0069,-0.168949 1.39705,-0.214286 5.213812,-0.170168 4.866687,0.05626 5.196902,0.08273 5.089415,0.406789 z"
   id="path3397"
   inkscape:transform-center-x="-5.5876783"
   inkscape:transform-center-y="3.4169379" /><text
   xml:space="preserve"
   style="font-size:12.6065px;line-height:1.25;font-family:'Segoe Script';-inkscape-font-specification:'Segoe Script';fill:#e0e0e0;fill-opacity:1;stroke-width:0.315162"
   x="52.007"
   y="7.0575304"
   id="text9344"
   transform="scale(1.0216279,0.97883001)"><tspan
     sodipodi:role="line"
     id="tspan9342"
     x="52.007"
     y="7.0575304"
     style="fill:#e0e0e0;fill-opacity:1;stroke-width:0.315162">c</tspan></text><text
   xml:space="preserve"
   style="font-size:10.1019px;line-height:1.25;font-family:'Segoe Script';-inkscape-font-specification:'Segoe Script';fill:#e0e0e0;fill-opacity:1;stroke-width:0.252545"
   x="57.692631"
   y="96.620628"
   id="text11307"
   transform="scale(0.88816199,1.1259207)"><tspan
     sodipodi:role="line"
     id="tspan11305"
     x="57.692631"
     y="96.620628"
     style="fill:#e0e0e0;fill-opacity:1;stroke-width:0.252545">ю</tspan></text><text
   xml:space="preserve"
   style="font-size:11.6347px;line-height:1.25;font-family:'Segoe Script';-inkscape-font-specification:'Segoe Script';fill:#e0e0e0;fill-opacity:1;stroke-width:0.290862"
   x="0.10728285"
   y="70.844856"
   id="text16794"
   transform="scale(1.3769354,0.7262505)"><tspan
     sodipodi:role="line"
     id="tspan16792"
     x="0.10728285"
     y="70.844856"
     style="fill:#e0e0e0;fill-opacity:1;stroke-width:0.290862">з</tspan></text><text
   xml:space="preserve"
   style="font-size:12.1154px;line-height:1.25;font-family:'Segoe Script';-inkscape-font-specification:'Segoe Script';fill:#e0e0e0;fill-opacity:1;stroke-width:0.30289"
   x="73.178238"
   y="73.247055"
   id="text19318"
   transform="scale(1.3922185,0.71827805)"><tspan
     sodipodi:role="line"
     id="tspan19316"
     x="73.178238"
     y="73.247055"
     style="fill:#e0e0e0;fill-opacity:1;stroke-width:0.30289">в</tspan></text><text
   xml:space="preserve"
   style="font-size:21.0984px;line-height:1.25;font-family:'Segoe Script';-inkscape-font-specification:'Segoe Script';fill:#16272a;fill-opacity:0.799714;stroke-width:0.527461"
   x="10.350392"
   y="65.629807"
   id="text17884"
   transform="scale(1.3076301,0.76474226)"><tspan
     sodipodi:role="line"
     id="tspan17882"
     x="10.350392"
     y="65.629807"
     style="stroke-width:0.527461">_</tspan></text><text
   xml:space="preserve"
   style="font-size:21.9539px;line-height:1.25;font-family:'Segoe Script';-inkscape-font-specification:'Segoe Script';fill:#16272a;fill-opacity:0.799714;stroke-width:0.548844"
   x="63.145885"
   y="67.736404"
   id="text17884-6"
   transform="scale(1.3606443,0.73494594)"><tspan
     sodipodi:role="line"
     id="tspan17882-2"
     x="63.145885"
     y="67.736404"
     style="stroke-width:0.548844">_</tspan></text><text
   xml:space="preserve"
   style="font-size:18.9498px;line-height:1.25;font-family:'Segoe Script';-inkscape-font-specification:'Segoe Script';fill:#16272a;fill-opacity:0.799714;stroke-width:0.473741"
   x="-74.356483"
   y="70.835884"
   id="text17884-0"
   transform="matrix(-0.01836029,-1.3627711,0.73306852,-0.05421576,0,0)"><tspan
     sodipodi:role="line"
     id="tspan17882-4"
     x="-74.356483"
     y="70.835884"
     style="stroke-width:0.473741">_</tspan></text><text
   xml:space="preserve"
   style="font-size:21.3854px;line-height:1.25;font-family:'Segoe Script';-inkscape-font-specification:'Segoe Script';fill:#16272a;fill-opacity:0.799714;stroke-width:0.534631"
   x="-16.986286"
   y="73.280403"
   id="text17884-9"
   transform="matrix(5.1322552e-4,-1.3320046,0.75074761,0.0014464,0,0)"><tspan
     sodipodi:role="line"
     id="tspan17882-7"
     x="-16.986286"
     y="73.280403"
     style="stroke-width:0.534631">_</tspan></text></svg>
