<?xml version="1.0" encoding="UTF-8" standalone="no"?>
<!-- Generator: Adobe Illustrator 22.0.1, SVG Export Plug-In . SVG Version: 6.00 Build 0)  -->

<svg
   version="1.1"
   id="Layer_1"
   x="0px"
   y="0px"
   viewBox="0 0 110 110"
   xml:space="preserve"
   sodipodi:docname="southwestWind.svg"
   width="110"
   height="110"
   inkscape:version="1.1.1 (3bf5ae0d25, 2021-09-20)"
   xmlns:inkscape="http://www.inkscape.org/namespaces/inkscape"
   xmlns:sodipodi="http://sodipodi.sourceforge.net/DTD/sodipodi-0.dtd"
   xmlns="http://www.w3.org/2000/svg"
   xmlns:svg="http://www.w3.org/2000/svg"><defs
   id="defs7" /><sodipodi:namedview
   id="namedview5"
   pagecolor="#ffffff"
   bordercolor="#666666"
   borderopacity="1.0"
   inkscape:pageshadow="2"
   inkscape:pageopacity="0.0"
   inkscape:pagecheckerboard="0"
   showgrid="false"
   inkscape:zoom="10.158767"
   inkscape:cx="64.673201"
   inkscape:cy="44.345932"
   inkscape:window-width="2400"
   inkscape:window-height="1321"
   inkscape:window-x="2391"
   inkscape:window-y="-9"
   inkscape:window-maximized="1"
   inkscape:current-layer="Layer_1"
   width="140px" />
<path
   d="m 86.575889,86.333639 c -5.719261,5.526395 -12.37297,9.22049 -19.90654,11.083157 -7.533583,1.86266 -15.014344,1.743523 -22.442307,-0.357427 C 36.799083,94.958427 30.402419,91.056483 25.008977,85.380639 20.97055,81.130759 17.932596,76.235907 15.893638,70.751178 13.854712,65.266445 12.963911,59.744911 13.084029,54.21196 c 0.120157,-5.532969 1.35893,-11.020575 3.716318,-16.462822 2.357432,-5.442265 5.625505,-10.209127 9.942982,-14.38103 4.261391,-4.117714 9.151636,-7.234075 14.616131,-9.349984 5.464471,-2.115904 10.980791,-3.101991 16.441209,-3.015029 5.4604,0.08695 10.891478,1.274946 16.23862,3.563027 5.34714,2.288103 10.04064,5.529576 14.105637,9.807427 4.065021,4.277845 7.129531,9.200653 9.168477,14.685396 2.038931,5.484739 2.956297,11.03421 2.836197,16.567175 -0.12012,5.532965 -1.385455,10.992613 -3.660253,16.40864 -2.274782,5.416047 -5.624035,10.154084 -9.913458,14.298879 z m -6.589034,-6.93404 C 86.631272,72.979228 90.121681,64.994102 90.431524,55.416272 90.685286,45.89263 87.623196,37.803143 81.220163,31.064829 77.022324,26.64717 72.023347,23.593601 66.248348,21.9871 60.473342,20.380606 54.632186,20.232509 48.748462,21.68086 c -5.883715,1.448336 -11.039645,4.285109 -15.469275,8.565358 -4.429591,4.280254 -7.488052,9.380912 -9.173945,15.246908 -1.685875,5.866 -1.842829,11.756359 -0.47087,17.671064 1.371971,5.914705 4.157593,11.053351 8.35545,15.470999 4.197844,4.417654 9.196822,7.47122 14.971824,9.077728 5.774988,1.606493 11.644211,1.727502 17.554489,0.307101 5.910286,-1.420393 11.041107,-4.340169 15.47072,-8.620419 z m 3.408722,-29.520103 -46.717794,25.0303 c -0.306911,0.242943 -0.57994,0.23858 -0.819056,-0.0131 -0.239069,-0.251679 -0.231781,-0.526893 0.02197,-0.825735 L 62.6986,28.098795 c 0.202102,-0.409859 0.45297,-0.598612 0.754018,-0.621349 0.301054,-0.02267 0.513601,0.20094 0.637645,0.671044 l 5.574685,13.223784 c 0.153537,0.387972 0.419226,0.667569 0.770498,0.810835 l 12.943649,6.2642 c 0.433882,0.117062 0.619859,0.312785 0.55793,0.587165 -0.06198,0.274374 -0.207981,0.630029 -0.541465,0.845021 z"
   id="path2"
   style="fill:#2c4f54;fill-opacity:0.5;stroke:#2e3332;stroke-width:0.239064;stroke-miterlimit:4;stroke-dasharray:none;stroke-opacity:0.9" />
<path
   style="fill:#2c4f53;fill-opacity:0.499285;stroke:#e4e7e7;stroke-width:0.239605;stroke-miterlimit:4;stroke-dasharray:none;stroke-opacity:0.9"
   d="m 82.452289,34.913718 c 0.997212,1.31623 2.002753,2.848806 2.78614,4.246409 4.404935,7.858793 5.093493,18.446027 1.778428,27.345083 -1.784445,4.790197 -4.094365,8.233532 -8.007291,11.936243 -4.016154,3.800652 -7.725063,5.990859 -12.722732,7.513871 -3.368462,1.026498 -6.407441,1.454376 -10.075388,1.418531 -7.279266,-0.07111 -13.678115,-2.181795 -19.486209,-6.427477 -1.209553,-0.884173 -1.657524,-1.302959 -3.879826,-3.627006 -2.697409,-2.821002 -3.376697,-3.694456 -4.8353,-6.217579 -2.202857,-3.810742 -3.772231,-8.857922 -4.193669,-13.487154 -0.17191,-1.888251 -0.02745,-5.826236 0.2842,-7.746536 0.75418,-4.647467 2.387294,-9.01679 4.71431,-12.612821 1.715966,-2.651811 2.425436,-3.489379 5.109892,-6.032613 1.893758,-1.79402 2.731899,-2.515454 3.677828,-3.165021 5.744595,-3.94508 12.590363,-5.976723 19.562206,-5.805514 7.140256,0.175367 13.970725,2.578126 19.489592,6.855883 1.272216,0.986112 4.894196,4.612999 5.797852,5.805691 z m -6.241064,10.934454 c -3.513769,-1.706545 -6.505873,-3.177326 -6.649113,-3.268397 -0.176809,-0.112364 -1.193177,-2.353092 -3.164935,-6.977369 -1.671978,-3.92117 -2.99467,-6.861176 -3.116977,-6.928205 -0.253517,-0.138869 -0.711118,0.09419 -0.993317,0.505957 -0.112024,0.163483 -6.050067,10.178103 -13.195655,22.254747 -12.52154,21.162436 -12.986706,21.969523 -12.846235,22.288667 0.108611,0.246625 0.213066,0.332231 0.409833,0.335173 0.325461,0.005 45.481593,-23.505943 45.890084,-23.893033 0.369078,-0.349729 0.504844,-0.956837 0.247006,-1.10462 -0.105717,-0.06044 -3.066945,-1.506361 -6.580715,-3.212905 z"
   id="path861" /><rect
   style="fill:#c7485e;fill-opacity:1;stroke:#3c4343;stroke-width:1.02878;stroke-opacity:0.9"
   id="rect2803"
   width="11.287295"
   height="0.1324825"
   x="-84.307915"
   y="-4.9894314"
   transform="matrix(-0.69309184,-0.72084929,0.72009156,-0.69387906,0,0)"
   inkscape:transform-center-x="-8.9677984"
   inkscape:transform-center-y="-0.20380507" /><path
   style="fill:#a06f78;fill-opacity:1;stroke:#e27364;stroke-width:0.0836603;stroke-opacity:0.9"
   d="m 53.798963,64.78325 c -0.182456,0.09684 -4.087094,2.231533 -8.676998,4.743891 -4.589901,2.51236 -8.472215,4.605771 -8.627346,4.652001 -0.244119,0.07272 9.50931,-16.759117 9.970291,-17.206137 0.125859,-0.122167 1.170703,0.873451 3.91871,3.733897 3.503935,3.647312 3.72547,3.911858 3.415372,4.076308 z"
   id="path3397"
   inkscape:transform-center-x="-3.1372548"
   inkscape:transform-center-y="4.6037426" /><text
   xml:space="preserve"
   style="font-size:12.5872px;line-height:1.25;font-family:'Segoe Script';-inkscape-font-specification:'Segoe Script';fill:#e0e0e0;fill-opacity:1;stroke-width:0.314679"
   x="52.514565"
   y="7.3186493"
   id="text9344"
   transform="scale(1.017659,0.98264741)"><tspan
     sodipodi:role="line"
     id="tspan9342"
     x="52.514565"
     y="7.3186493"
     style="fill:#e0e0e0;fill-opacity:1;stroke-width:0.314679">c</tspan></text><text
   xml:space="preserve"
   style="font-size:10.0864px;line-height:1.25;font-family:'Segoe Script';-inkscape-font-specification:'Segoe Script';fill:#e0e0e0;fill-opacity:1;stroke-width:0.252156"
   x="58.279739"
   y="96.708603"
   id="text11307"
   transform="scale(0.88471169,1.1303117)"><tspan
     sodipodi:role="line"
     id="tspan11305"
     x="58.279739"
     y="96.708603"
     style="fill:#e0e0e0;fill-opacity:1;stroke-width:0.252156">ю</tspan></text><text
   xml:space="preserve"
   style="font-size:11.6167px;line-height:1.25;font-family:'Segoe Script';-inkscape-font-specification:'Segoe Script';fill:#e0e0e0;fill-opacity:1;stroke-width:0.290416"
   x="0.54300058"
   y="71.102562"
   id="text16794"
   transform="scale(1.3715863,0.72908283)"><tspan
     sodipodi:role="line"
     id="tspan16792"
     x="0.54300058"
     y="71.102562"
     style="fill:#e0e0e0;fill-opacity:1;stroke-width:0.290416">з</tspan></text><text
   xml:space="preserve"
   style="font-size:12.0969px;line-height:1.25;font-family:'Segoe Script';-inkscape-font-specification:'Segoe Script';fill:#e0e0e0;fill-opacity:1;stroke-width:0.302425"
   x="73.496895"
   y="73.505127"
   id="text19318"
   transform="scale(1.38681,0.72107931)"><tspan
     sodipodi:role="line"
     id="tspan19316"
     x="73.496895"
     y="73.505127"
     style="fill:#e0e0e0;fill-opacity:1;stroke-width:0.302425">в</tspan></text><text
   xml:space="preserve"
   style="font-size:21.0657px;line-height:1.25;font-family:'Segoe Script';-inkscape-font-specification:'Segoe Script';fill:#16272a;fill-opacity:0.799714;stroke-width:0.52664"
   x="10.720549"
   y="65.875717"
   id="text17884"
   transform="scale(1.3025237,0.76774033)"><tspan
     sodipodi:role="line"
     id="tspan17882"
     x="10.720549"
     y="65.875717"
     style="stroke-width:0.52664">_</tspan></text><text
   xml:space="preserve"
   style="font-size:22.3747px;line-height:1.25;font-family:'Segoe Script';-inkscape-font-specification:'Segoe Script';fill:#16272a;fill-opacity:0.799714;stroke-width:0.559365"
   x="62.226963"
   y="69.40451"
   id="text17884-6"
   transform="scale(1.383464,0.72282328)"><tspan
     sodipodi:role="line"
     id="tspan17882-2"
     x="62.226963"
     y="69.40451"
     style="stroke-width:0.559365">_</tspan></text><text
   xml:space="preserve"
   style="font-size:19.6565px;line-height:1.25;font-family:'Segoe Script';-inkscape-font-specification:'Segoe Script';fill:#16272a;fill-opacity:0.799714;stroke-width:0.491412"
   x="-71.863174"
   y="74.460571"
   id="text17884-0"
   transform="matrix(-0.01760421,-1.4212999,0.70288093,-0.05654424,0,0)"><tspan
     sodipodi:role="line"
     id="tspan17882-4"
     x="-71.863174"
     y="74.460571"
     style="stroke-width:0.491412">_</tspan></text><text
   xml:space="preserve"
   style="font-size:20.8049px;line-height:1.25;font-family:'Segoe Script';-inkscape-font-specification:'Segoe Script';fill:#16272a;fill-opacity:0.799714;stroke-width:0.52012"
   x="-17.648138"
   y="72.071175"
   id="text17884-9"
   transform="matrix(5.2468705e-4,-1.3029076,0.76751354,0.0014148,0,0)"><tspan
     sodipodi:role="line"
     id="tspan17882-7"
     x="-17.648138"
     y="72.071175"
     style="stroke-width:0.52012">_</tspan></text></svg>
