<?xml version="1.0" encoding="UTF-8" standalone="no"?>
<!-- Generator: Adobe Illustrator 22.0.1, SVG Export Plug-In . SVG Version: 6.00 Build 0)  -->

<svg
   version="1.1"
   id="Layer_1"
   x="0px"
   y="0px"
   viewBox="0 0 110 110"
   xml:space="preserve"
   sodipodi:docname="southWind.svg"
   width="110"
   height="110"
   inkscape:version="1.1.1 (3bf5ae0d25, 2021-09-20)"
   xmlns:inkscape="http://www.inkscape.org/namespaces/inkscape"
   xmlns:sodipodi="http://sodipodi.sourceforge.net/DTD/sodipodi-0.dtd"
   xmlns="http://www.w3.org/2000/svg"
   xmlns:svg="http://www.w3.org/2000/svg"><defs
   id="defs7" /><sodipodi:namedview
   id="namedview5"
   pagecolor="#ffffff"
   bordercolor="#666666"
   borderopacity="1.0"
   inkscape:pageshadow="2"
   inkscape:pageopacity="0.0"
   inkscape:pagecheckerboard="0"
   showgrid="false"
   inkscape:zoom="10.158767"
   inkscape:cx="87.756713"
   inkscape:cy="41.589693"
   inkscape:window-width="2400"
   inkscape:window-height="1321"
   inkscape:window-x="2391"
   inkscape:window-y="-9"
   inkscape:window-maximized="1"
   inkscape:current-layer="Layer_1"
   width="140px" />
<path
   d="m 99.764631,55.863799 c -0.26184,7.964589 -2.4725,15.278758 -6.592089,21.904756 -4.119604,6.626 -9.582213,11.800758 -16.387858,15.524277 -6.80564,3.723519 -14.124659,5.436827 -21.958362,5.179004 C 48.960714,98.27879 43.365124,96.922083 38.076887,94.442074 32.788672,91.96204 28.300452,88.648491 24.531257,84.616014 20.762075,80.583497 17.828928,75.796843 15.73181,70.256049 13.634714,64.715214 12.663126,59.016031 12.860781,53.003539 13.055862,47.069147 14.40095,41.407119 16.85615,36.0552 c 2.455185,-5.351898 5.734956,-9.934074 9.722271,-13.711274 3.987291,-3.777199 8.720751,-6.748128 14.16043,-8.87508 5.439693,-2.126933 11.073689,-3.11402 16.977898,-2.919694 5.904222,0.194304 11.538387,1.552285 16.826625,4.032314 5.288222,2.480037 9.815012,5.794839 13.584229,9.827314 3.769203,4.032491 6.663768,8.817871 8.802006,14.281886 2.138269,5.464015 3.031397,11.199707 2.835022,17.173133 z M 90.194392,55.548821 C 90.498581,46.295854 87.444265,38.143966 80.992876,31.09188 74.538919,24.117888 66.699826,20.498631 57.399731,20.192539 c -6.097162,-0.200685 -11.81989,1.135259 -17.0923,4.04938 -5.272412,2.914132 -9.576125,6.915408 -12.79798,12.085754 -3.221863,5.170329 -4.95284,10.819665 -5.155645,16.988323 -0.202776,6.168635 1.152151,11.958617 4.027442,17.329642 2.875304,5.371015 6.867067,9.684418 11.975273,12.940207 5.108215,3.255781 10.692231,4.96386 16.789398,5.164522 6.097165,0.200679 11.819889,-1.13527 17.09231,-4.049385 5.272393,-2.914123 9.577415,-6.954459 12.837844,-12.123533 3.260439,-5.169076 4.915524,-10.85998 5.118319,-17.028628 z M 72.074917,32.088147 55.921144,82.795992 c -0.05141,0.389143 -0.250798,0.577997 -0.598135,0.566534 -0.3473,-0.0115 -0.533839,-0.212998 -0.559607,-0.604647 L 42.01359,31.09875 c -0.140269,-0.434553 -0.09138,-0.745622 0.109252,-0.973516 0.200695,-0.227855 0.509367,-0.217735 0.926155,0.03048 l 13.223737,5.516202 c 0.380767,0.168882 0.766664,0.18158 1.119105,0.03682 l 13.673225,-4.630953 c 0.393587,-0.221535 0.663713,-0.212637 0.810378,0.02669 0.146633,0.239347 0.289466,0.595786 0.199462,0.98367 z"
   id="path2"
   style="fill:#2c4f54;fill-opacity:0.5;stroke:#2e3332;stroke-width:0.239433;stroke-miterlimit:4;stroke-dasharray:none;stroke-opacity:0.9" />
<path
   style="fill:#2c4f53;fill-opacity:0.499285;stroke:#e4e7e7;stroke-width:0.239433;stroke-miterlimit:4;stroke-dasharray:none;stroke-opacity:0.9"
   d="m 60.792738,21.849391 c 1.633832,0.211856 3.426135,0.569424 4.966076,0.990712 8.659102,2.369004 16.613274,9.299149 20.544317,17.899432 2.115999,4.629378 2.910315,8.689214 2.753469,14.073334 -0.160803,5.526346 -1.240063,9.704901 -3.701654,14.334321 -1.659146,3.120242 -3.507388,5.586067 -6.127668,8.175134 -5.200103,5.138158 -11.215784,8.21927 -18.319322,9.382841 -1.47933,0.242321 -2.091621,0.268059 -5.302976,0.222929 -3.897978,-0.05484 -4.994597,-0.18294 -7.806053,-0.911904 -4.246142,-1.101053 -8.916153,-3.520255 -12.479245,-6.46465 -1.453381,-1.201003 -4.128583,-4.064211 -5.262458,-5.632313 -2.74423,-3.795057 -4.670459,-8.021575 -5.56037,-12.200627 -0.656277,-3.081717 -0.745065,-4.174441 -0.639574,-7.870306 0.0745,-2.607183 0.158649,-3.710207 0.369743,-4.839682 1.281778,-6.859456 4.692135,-13.16255 9.745328,-18.011454 5.175276,-4.966023 11.70233,-8.150016 18.623865,-9.084976 1.595559,-0.215527 6.716032,-0.254769 8.196539,-0.06282 z m 3.296493,12.112342 c -3.689525,1.308139 -6.843702,2.409734 -7.009274,2.447988 -0.204334,0.04726 -2.503751,-0.798957 -7.160169,-2.634948 -3.948442,-1.556821 -6.957767,-2.674857 -7.091571,-2.634669 -0.277301,0.08335 -0.436666,0.572849 -0.345908,1.062589 0.03605,0.194429 2.898175,11.446068 6.360304,25.00367 6.066837,23.757591 6.306965,24.654829 6.631435,24.778413 0.250781,0.09546 0.385057,0.08101 0.526343,-0.05716 0.233827,-0.228413 15.598914,-48.891228 15.6149,-49.453683 0.01446,-0.508184 -0.317677,-1.030483 -0.604321,-0.950305 -0.117409,0.03299 -3.23222,1.129997 -6.921745,2.438135 z"
   id="path861" /><rect
   style="fill:#c7485e;fill-opacity:1;stroke:#3c4343;stroke-width:1.02805;stroke-opacity:0.9"
   id="rect2803"
   width="11.273958"
   height="0.13245302"
   x="-64.133652"
   y="-61.026722"
   transform="matrix(-0.99951897,-0.03101322,0.03975504,-0.99920946,0,0)"
   inkscape:transform-center-x="-6.3282726"
   inkscape:transform-center-y="-6.4107947" /><path
   style="fill:#a06f78;fill-opacity:1;stroke:#e27364;stroke-width:0.0816152;stroke-opacity:0.9"
   d="m 61.273165,64.245286 c -0.06319,0.195744 -1.374168,4.427839 -2.91322,9.404772 -1.539043,4.976933 -2.861821,9.164681 -2.939496,9.306086 -0.12226,0.222487 -4.475935,-18.31897 -4.450515,-18.953759 0.0069,-0.173397 1.39705,-0.219928 5.213812,-0.174648 4.866687,0.05774 5.196902,0.08491 5.089415,0.417498 z"
   id="path3397"
   inkscape:transform-center-x="-5.5876783"
   inkscape:transform-center-y="3.5068926" /><g
   aria-label="c"
   transform="scale(1.0216279,0.97883001)"
   id="text9344"
   style="font-size:12.6065px;line-height:1.25;font-family:'Segoe Script';-inkscape-font-specification:'Segoe Script';fill:#e0e0e0;stroke-width:0.315162"><path
     d="m 59.042756,4.5091462 q 0,0.2215986 -0.160043,0.4001086 -0.166199,0.1846655 -0.289309,0.3139314 -0.123111,0.1231104 -0.23391,0.2277542 -0.110799,0.1046438 -0.23391,0.203132 -0.12311,0.092333 -0.289309,0.2154431 -0.467819,0.3385535 -0.89255,0.5724632 -0.424731,0.2277541 -0.824839,0.3754865 -0.400109,0.1415769 -0.794062,0.2031321 -0.387798,0.061555 -0.781751,0.061555 -0.41242,0 -0.738662,-0.153888 Q 53.478169,6.7682211 53.250414,6.4973783 53.028816,6.2265356 52.911861,5.8695155 52.794906,5.50634 52.794906,5.1062314 v -0.030778 q 0,-0.4062642 0.104644,-0.8617724 0.104644,-0.4616639 0.289309,-0.9233277 0.190821,-0.4616638 0.455509,-0.904861 0.264687,-0.4493528 0.584774,-0.8371504 0.129266,-0.1538879 0.307776,-0.3262424 0.184665,-0.17851 0.387797,-0.32624243 0.209288,-0.14773242 0.430886,-0.24006518 0.227755,-0.0984883 0.443198,-0.0984883 0.147732,0 0.283154,0.0923328 0.135421,0.0861772 0.252376,0.22775415 0.116955,0.14157688 0.215443,0.32008688 0.09849,0.1723545 0.166199,0.35702 0.06771,0.17851 0.104644,0.344709 0.03693,0.166199 0.03693,0.2831538 0,0.17851 -0.1108,0.4616638 -0.110799,0.2831538 -0.264687,0.2831538 -0.221598,0 -0.369331,-0.3016203 Q 56.05733,2.508603 56.014242,2.3547151 55.977309,2.2008272 55.921909,2.0530947 55.872665,1.9053623 55.786488,1.782252 55.70031,1.6529861 55.546422,1.5914309 q -0.153887,0.036933 -0.313931,0.1600435 -0.153888,0.1231103 -0.307776,0.3016203 -0.147732,0.17851 -0.295465,0.4062642 -0.141577,0.2215986 -0.270842,0.4616638 -0.123111,0.2215986 -0.240066,0.5109079 -0.116954,0.2831538 -0.209287,0.5909297 -0.09233,0.3016204 -0.147733,0.6032407 -0.0554,0.3016204 -0.0554,0.5539966 0,0.17851 0.08618,0.3631755 0.08618,0.17851 0.221599,0.3262424 0.141577,0.1477325 0.313931,0.2400652 0.17851,0.092333 0.363176,0.092333 0.911016,0 1.809722,-0.3754866 0.898705,-0.3754865 1.711234,-1.0895266 0.449352,-0.3939531 0.744817,-0.3939531 0.08618,0 0.08618,0.166199 z"
     id="path3485" /></g><g
   aria-label="ю"
   transform="scale(0.88816199,1.1259207)"
   id="text11307"
   style="font-size:10.1019px;line-height:1.25;font-family:'Segoe Script';-inkscape-font-specification:'Segoe Script';fill:#e0e0e0;stroke-width:0.252545"><path
     d="m 59.014559,94.583478 q 0,-0.01973 -0.02466,-0.03453 -0.01973,-0.01973 -0.04933,-0.04933 -0.0296,-0.0296 -0.05426,-0.07892 -0.01973,-0.04933 -0.01973,-0.138112 0,-0.07892 0.04439,-0.143045 0.04439,-0.06412 0.09372,-0.118381 0.05426,-0.05426 0.09865,-0.09865 0.04933,-0.04439 0.05919,-0.08385 0.08385,-0.473527 0.143045,-0.892795 0.05919,-0.419268 0.07399,-0.700425 0.0049,-0.08385 0,-0.17264 0,-0.08879 -0.0049,-0.177572 -0.0049,-0.06412 -0.0099,-0.123314 0,-0.05919 0,-0.113449 0,-0.05919 0.04439,-0.13318 0.04439,-0.07399 0.108516,-0.138112 0.06906,-0.06412 0.147977,-0.103584 0.08385,-0.04439 0.162775,-0.04439 0.06906,0 0.138112,0.03946 0.06906,0.03453 0.123314,0.103584 0.05426,0.06412 0.08879,0.162774 0.03453,0.09372 0.03453,0.212101 0,0.08879 -0.0148,0.217033 -0.0148,0.128247 -0.03946,0.281156 -0.02466,0.15291 -0.05919,0.320617 -0.0296,0.167708 -0.05919,0.335415 -0.03946,0.231831 -0.07892,0.443931 -0.03453,0.212101 -0.05426,0.36501 0.01973,0.04439 0.03453,0.07892 0.01973,0.0296 0.04933,0.04933 0.0296,0.01973 0.07399,0.0296 0.04933,0.0099 0.128247,0.0099 0.2121,0 0.448864,-0.04439 0.236763,-0.04439 0.448863,-0.113449 0.212101,-0.06906 0.379808,-0.143044 0.17264,-0.07892 0.256494,-0.147977 0.05426,-0.04439 0.118381,-0.118382 0.06906,-0.07399 0.138112,-0.157842 0.06906,-0.08879 0.13318,-0.17264 0.06906,-0.08879 0.118381,-0.15291 0.167708,-0.2121 0.379808,-0.414335 0.2121,-0.202236 0.468594,-0.355145 0.256494,-0.15291 0.552448,-0.246629 0.300886,-0.09372 0.651099,-0.09372 0.266358,0 0.522852,0.13318 0.256494,0.128247 0.453796,0.350212 0.202236,0.221966 0.320617,0.512987 0.123314,0.286089 0.123314,0.601774 0,0.315684 -0.06412,0.57711 -0.05919,0.256494 -0.19237,0.547515 -0.07399,0.15291 -0.256494,0.36501 -0.182505,0.212101 -0.438998,0.438999 -0.251561,0.226898 -0.552448,0.448864 -0.300887,0.221965 -0.611638,0.399538 -0.310752,0.177572 -0.611639,0.286089 -0.295954,0.108516 -0.53765,0.108516 -0.325549,0 -0.55738,-0.108516 -0.231831,-0.113449 -0.379808,-0.291022 -0.147977,-0.182505 -0.217033,-0.414336 -0.06906,-0.23183 -0.06906,-0.468594 0,-0.19237 0.05426,-0.463661 0.05919,-0.276224 0.197303,-0.55738 -0.187437,0.118381 -0.419268,0.187437 -0.226898,0.06906 -0.419268,0.123315 -0.08385,0.02466 -0.187438,0.04439 -0.103584,0.0148 -0.207168,0.0296 -0.09865,0.0148 -0.19237,0.0296 -0.08879,0.0148 -0.15291,0.02466 -0.09865,0.01973 -0.138112,0.07892 -0.03453,0.05426 -0.05426,0.143045 -0.01973,0.08385 -0.05919,0.221965 -0.03946,0.138112 -0.07892,0.286089 -0.04439,0.157843 -0.09372,0.32555 -0.04933,0.167707 -0.08879,0.320617 -0.03453,0.147977 -0.06412,0.276224 -0.02466,0.123314 -0.02466,0.19237 0,0.06412 -0.05426,0.138112 -0.04933,0.07399 -0.118382,0.138112 -0.06412,0.06906 -0.133179,0.113449 -0.06412,0.04439 -0.09865,0.04439 -0.07399,0 -0.143044,-0.04933 -0.06412,-0.04932 -0.113449,-0.113449 -0.04933,-0.06412 -0.07892,-0.128247 -0.0296,-0.06906 -0.0296,-0.103584 0,-0.04439 0.03453,-0.157842 0.03946,-0.113449 0.07892,-0.23183 0.02466,-0.07399 0.06412,-0.202236 0.03946,-0.128247 0.07892,-0.281156 0.04439,-0.157842 0.08385,-0.32555 0.04439,-0.167707 0.07892,-0.315684 0.03453,-0.147977 0.05426,-0.256494 0.01973,-0.113449 0.01973,-0.162774 z m 5.943745,-1.114761 q 0,-0.493257 -0.286089,-0.769481 -0.281156,-0.281156 -0.808941,-0.281156 -0.07399,0 -0.182505,0.05919 -0.108517,0.05919 -0.236763,0.15291 -0.123315,0.08879 -0.251561,0.197302 -0.123315,0.108517 -0.236764,0.212101 -0.108516,0.103584 -0.187437,0.187437 -0.07892,0.08385 -0.108517,0.118382 -0.103584,0.123314 -0.217033,0.340347 -0.108516,0.212101 -0.202235,0.458729 -0.09372,0.246628 -0.157842,0.498189 -0.05919,0.246629 -0.05919,0.434066 0,0.11345 0.0296,0.231831 0.03453,0.118382 0.09865,0.217033 0.06906,0.09372 0.17264,0.157842 0.103583,0.05919 0.241695,0.05919 0.15291,0 0.389673,-0.08879 0.236764,-0.08879 0.49819,-0.246628 0.266358,-0.157843 0.532717,-0.374876 0.271291,-0.217033 0.483392,-0.468594 0.217033,-0.251561 0.350212,-0.527784 0.138112,-0.281157 0.138112,-0.567246 z"
     id="path3443" /></g><g
   aria-label="з"
   transform="scale(1.3769354,0.7262505)"
   id="text16794"
   style="font-size:11.6347px;line-height:1.25;font-family:'Segoe Script';-inkscape-font-specification:'Segoe Script';fill:#e0e0e0;stroke-width:0.290862"><path
     d="m 0.9423907,71.299337 q 0.05681,0 0.0908961,0.03977 0.039767,0.03977 0.062491,0.09658 0.022724,0.06249 0.028405,0.136344 0.011362,0.07385 0.011362,0.142025 0,0.130663 0.045448,0.28405 0.051129,0.153388 0.1590682,0.284051 0.1136201,0.130663 0.2897313,0.215878 0.1761112,0.0909 0.4317564,0.0909 0.3465414,0 0.7158068,-0.181792 0.3692653,-0.181792 0.6760396,-0.50561 0.3067744,-0.323817 0.4999286,-0.772616 0.1988352,-0.443119 0.1988352,-0.971452 0,-0.488567 -0.1022581,-0.829427 Q 3.9476427,68.987167 3.7828936,68.77697 3.6238254,68.561092 3.4136282,68.464515 3.203431,68.367938 2.9932338,68.367938 q -0.079534,0 -0.1761112,0.03977 -0.096577,0.03409 -0.1988352,0.0909 -0.096577,0.05113 -0.1988352,0.11362 -0.096577,0.06249 -0.1761112,0.11362 -0.1363441,0.0909 -0.2613262,0.153387 -0.1193012,0.06249 -0.3181364,0.06249 -0.1533871,0 -0.2670072,-0.11362 -0.1079392,-0.119301 -0.1079392,-0.312455 0,-0.147706 0.1022582,-0.249964 0.1079391,-0.102258 0.3294983,-0.193155 0.4715235,-0.193154 0.8407888,-0.391989 0.3749464,-0.204516 0.6305917,-0.437437 0.2556452,-0.238603 0.3919894,-0.522653 0.1363441,-0.28405 0.1363441,-0.647635 0,-0.142025 -0.045448,-0.278369 -0.039767,-0.142025 -0.1249822,-0.249964 -0.085215,-0.11362 -0.2101972,-0.181792 -0.1193011,-0.07385 -0.2783693,-0.07385 -0.3408603,0 -0.6476346,0.210197 -0.3067743,0.210197 -0.6021866,0.516971 -0.1306632,0.136344 -0.2158782,0.198836 -0.085215,0.05681 -0.1817922,0.05681 -0.079534,0 -0.1420252,-0.03977 -0.05681,-0.04545 -0.096577,-0.102259 -0.034086,-0.06249 -0.05681,-0.130663 -0.017043,-0.07385 -0.017043,-0.124982 0,-0.136344 0.073853,-0.255645 0.079534,-0.124982 0.2101972,-0.232921 0.2840503,-0.238603 0.5567386,-0.39199 0.2726883,-0.153387 0.4487995,-0.22724 0.1988352,-0.07953 0.4090324,-0.153387 0.2158782,-0.07385 0.4033514,-0.07385 0.2670073,0 0.5112905,0.09658 0.2442833,0.0909 0.4260754,0.272688 0.1874732,0.176111 0.2954123,0.437438 0.1136202,0.261326 0.1136202,0.590824 0,0.477205 -0.2329213,0.948728 -0.2272402,0.471524 -0.7782978,0.914642 0.3806274,0.01704 0.6646777,0.193154 0.2840503,0.176112 0.4715235,0.465843 0.1931542,0.289731 0.2840503,0.670359 0.096577,0.374946 0.096577,0.79534 0,0.420395 -0.1136201,0.835108 -0.1136202,0.414714 -0.3238174,0.795341 -0.2045162,0.380627 -0.4942475,0.704445 -0.2840503,0.323817 -0.6305916,0.562419 -0.3408604,0.238603 -0.7328498,0.374947 -0.3863083,0.136344 -0.7953408,0.136344 -0.3919894,0 -0.6817207,-0.130663 -0.28973125,-0.124982 -0.48288545,-0.318137 -0.18747319,-0.193154 -0.28405029,-0.414713 -0.0965771,-0.221559 -0.0965771,-0.409033 0,-0.142025 0.0511291,-0.306774 0.05681,-0.164749 0.12498212,-0.261326 0.045448,-0.06249 0.13066314,-0.130663 0.0852151,-0.06249 0.21587822,-0.06249 z"
     id="path3464" /></g><g
   aria-label="в"
   transform="scale(1.3922185,0.71827805)"
   id="text19318"
   style="font-size:12.1154px;line-height:1.25;font-family:'Segoe Script';-inkscape-font-specification:'Segoe Script';fill:#e0e0e0;stroke-width:0.30289"><path
     d="m 77.768839,65.645351 q 0,-0.07099 -0.02958,-0.141977 -0.02366,-0.0769 -0.0769,-0.136062 -0.04733,-0.06507 -0.130146,-0.106483 -0.0769,-0.04141 -0.183388,-0.04141 -0.20705,0 -0.431847,0.147893 -0.218882,0.147893 -0.443679,0.408185 -0.218882,0.254376 -0.425933,0.60932 -0.20705,0.349027 -0.384522,0.757212 -0.177471,0.408185 -0.319449,0.85778 -0.136061,0.443679 -0.218881,0.893274 0.05324,-0.03549 0.159724,-0.112399 0.106483,-0.08282 0.236629,-0.183387 0.136062,-0.106483 0.283955,-0.224798 0.153809,-0.12423 0.28987,-0.242544 0.141978,-0.118315 0.260292,-0.224798 0.118315,-0.106483 0.189303,-0.183387 0.656645,-0.709887 0.9406,-1.23047 0.283955,-0.520584 0.283955,-0.845949 z M 77.585451,72.0225 q -0.183387,0.272124 -0.443679,0.532415 -0.254376,0.254377 -0.561993,0.449595 -0.307618,0.195219 -0.656646,0.307618 -0.343112,0.112399 -0.698055,0.08282 -0.24846,-0.01775 -0.473258,-0.159724 -0.224797,-0.147893 -0.396353,-0.414101 -0.171556,-0.272123 -0.272123,-0.662561 -0.100568,-0.390438 -0.100568,-0.89919 0,-0.325365 0.03549,-0.703971 0.03549,-0.384522 0.09465,-0.77496 0.05916,-0.390437 0.130146,-0.763128 0.0769,-0.37269 0.147893,-0.686224 0.09465,-0.425932 0.24846,-0.840032 0.153809,-0.420017 0.343112,-0.804539 0.189304,-0.390437 0.408185,-0.733549 0.218882,-0.343112 0.449595,-0.621151 0.319449,-0.372691 0.727634,-0.597488 0.414101,-0.224798 0.970179,-0.224798 0.230713,0 0.420016,0.09465 0.189303,0.09465 0.325365,0.24846 0.136061,0.147893 0.20705,0.337197 0.0769,0.189303 0.0769,0.37269 0,0.254376 -0.106483,0.56791 -0.100567,0.307617 -0.295786,0.644813 -0.195219,0.337197 -0.473258,0.680308 -0.278039,0.343112 -0.632982,0.662561 0.08282,0.0059 0.189303,0.02958 0.112399,0.01775 0.230713,0.07099 0.124231,0.05324 0.248461,0.141977 0.130146,0.08874 0.24846,0.224797 0.05324,0.06507 0.118315,0.177472 0.06507,0.106483 0.118314,0.266208 0.05916,0.153808 0.09465,0.354943 0.04141,0.201135 0.04141,0.443679 0,0.473258 -0.171556,1.02342 -0.165641,0.544247 -0.591573,1.171313 z m -0.16564,-2.176986 q 0,-0.325364 -0.09465,-0.544246 -0.09465,-0.224798 -0.224798,-0.354943 -0.130146,-0.136062 -0.266207,-0.189304 -0.136062,-0.05916 -0.218882,-0.05916 -0.0769,0 -0.242545,0.118315 -0.16564,0.118314 -0.354943,0.260291 -0.141977,0.124231 -0.283955,0.230714 -0.141977,0.106483 -0.266207,0.20705 -0.118315,0.100567 -0.218882,0.201135 -0.100567,0.100567 -0.16564,0.212966 -0.165641,0.301701 -0.195219,0.686223 -0.02958,0.384522 -0.02958,0.786792 0,0.266207 0.05324,0.479173 0.05916,0.20705 0.141977,0.354943 0.08874,0.147894 0.189303,0.230714 0.100567,0.0769 0.183388,0.0769 0.201134,0 0.45551,-0.08282 0.254376,-0.08282 0.520584,-0.325365 0.230713,-0.212966 0.4141,-0.479173 0.189304,-0.266208 0.319449,-0.561994 0.136062,-0.295786 0.207051,-0.615235 0.0769,-0.319449 0.0769,-0.632983 z"
     id="path3506" /></g><text
   xml:space="preserve"
   style="font-size:21.0984px;line-height:1.25;font-family:'Segoe Script';-inkscape-font-specification:'Segoe Script';fill:#16272a;fill-opacity:0.799714;stroke-width:0.527461"
   x="10.350392"
   y="65.629807"
   id="text17884"
   transform="scale(1.3076301,0.76474226)"><tspan
     sodipodi:role="line"
     id="tspan17882"
     x="10.350392"
     y="65.629807"
     style="stroke-width:0.527461">_</tspan></text><text
   xml:space="preserve"
   style="font-size:21.9539px;line-height:1.25;font-family:'Segoe Script';-inkscape-font-specification:'Segoe Script';fill:#16272a;fill-opacity:0.799714;stroke-width:0.548844"
   x="63.435268"
   y="67.736404"
   id="text17884-6"
   transform="scale(1.3606443,0.73494594)"><tspan
     sodipodi:role="line"
     id="tspan17882-2"
     x="63.435268"
     y="67.736404"
     style="stroke-width:0.548844">_</tspan></text><text
   xml:space="preserve"
   style="font-size:18.9498px;line-height:1.25;font-family:'Segoe Script';-inkscape-font-specification:'Segoe Script';fill:#16272a;fill-opacity:0.799714;stroke-width:0.473741"
   x="-74.356483"
   y="70.835884"
   id="text17884-0"
   transform="matrix(-0.01836029,-1.3627711,0.73306852,-0.05421576,0,0)"><tspan
     sodipodi:role="line"
     id="tspan17882-4"
     x="-74.356483"
     y="70.835884"
     style="stroke-width:0.473741">_</tspan></text><text
   xml:space="preserve"
   style="font-size:20.8357px;line-height:1.25;font-family:'Segoe Script';-inkscape-font-specification:'Segoe Script';fill:#16272a;fill-opacity:0.799714;stroke-width:0.520888"
   x="-17.471899"
   y="71.397316"
   id="text17884-9"
   transform="matrix(5.2676639e-4,-1.2977645,0.77055523,0.00140922,0,0)"><tspan
     sodipodi:role="line"
     id="tspan17882-7"
     x="-17.471899"
     y="71.397316"
     style="stroke-width:0.520888">_</tspan></text></svg>
