<?xml version="1.0" encoding="UTF-8" standalone="no"?>
<!-- Generator: Adobe Illustrator 22.0.1, SVG Export Plug-In . SVG Version: 6.00 Build 0)  -->

<svg
   version="1.1"
   id="Layer_1"
   x="0px"
   y="0px"
   viewBox="0 0 110 110"
   xml:space="preserve"
   sodipodi:docname="southwestWind.svg"
   width="110"
   height="110"
   inkscape:version="1.1.1 (3bf5ae0d25, 2021-09-20)"
   xmlns:inkscape="http://www.inkscape.org/namespaces/inkscape"
   xmlns:sodipodi="http://sodipodi.sourceforge.net/DTD/sodipodi-0.dtd"
   xmlns="http://www.w3.org/2000/svg"
   xmlns:svg="http://www.w3.org/2000/svg"><defs
   id="defs7" /><sodipodi:namedview
   id="namedview5"
   pagecolor="#ffffff"
   bordercolor="#666666"
   borderopacity="1.0"
   inkscape:pageshadow="2"
   inkscape:pageopacity="0.0"
   inkscape:pagecheckerboard="0"
   showgrid="false"
   inkscape:zoom="10.158767"
   inkscape:cx="105.77071"
   inkscape:cy="75.845819"
   inkscape:window-width="2400"
   inkscape:window-height="1321"
   inkscape:window-x="2391"
   inkscape:window-y="-9"
   inkscape:window-maximized="1"
   inkscape:current-layer="Layer_1"
   width="140px" />
<path
   d="m 86.575889,86.333639 c -5.719261,5.526395 -12.37297,9.22049 -19.90654,11.083157 -7.533583,1.86266 -15.014344,1.743523 -22.442307,-0.357427 C 36.799083,94.958427 30.402419,91.056483 25.008977,85.380639 20.97055,81.130759 17.932596,76.235907 15.893638,70.751178 13.854712,65.266445 12.963911,59.744911 13.084029,54.21196 c 0.120157,-5.532969 1.35893,-11.020575 3.716318,-16.462822 2.357432,-5.442265 5.625505,-10.209127 9.942982,-14.38103 4.261391,-4.117714 9.151636,-7.234075 14.616131,-9.349984 5.464471,-2.115904 10.980791,-3.101991 16.441209,-3.015029 5.4604,0.08695 10.891478,1.274946 16.23862,3.563027 5.34714,2.288103 10.04064,5.529576 14.105637,9.807427 4.065021,4.277845 7.129531,9.200653 9.168477,14.685396 2.038931,5.484739 2.956297,11.03421 2.836197,16.567175 -0.12012,5.532965 -1.385455,10.992613 -3.660253,16.40864 -2.274782,5.416047 -5.624035,10.154084 -9.913458,14.298879 z m -6.589034,-6.93404 C 86.631272,72.979228 90.121681,64.994102 90.431524,55.416272 90.685286,45.89263 87.623196,37.803143 81.220163,31.064829 77.022324,26.64717 72.023347,23.593601 66.248348,21.9871 60.473342,20.380606 54.632186,20.232509 48.748462,21.68086 c -5.883715,1.448336 -11.039645,4.285109 -15.469275,8.565358 -4.429591,4.280254 -7.488052,9.380912 -9.173945,15.246908 -1.685875,5.866 -1.842829,11.756359 -0.47087,17.671064 1.371971,5.914705 4.157593,11.053351 8.35545,15.470999 4.197844,4.417654 9.196822,7.47122 14.971824,9.077728 5.774988,1.606493 11.644211,1.727502 17.554489,0.307101 5.910286,-1.420393 11.041107,-4.340169 15.47072,-8.620419 z m 3.408722,-29.520103 -46.717794,25.0303 c -0.306911,0.242943 -0.57994,0.23858 -0.819056,-0.0131 -0.239069,-0.251679 -0.231781,-0.526893 0.02197,-0.825735 L 62.6986,28.098795 c 0.202102,-0.409859 0.45297,-0.598612 0.754018,-0.621349 0.301054,-0.02267 0.513601,0.20094 0.637645,0.671044 l 5.574685,13.223784 c 0.153537,0.387972 0.419226,0.667569 0.770498,0.810835 l 12.943649,6.2642 c 0.433882,0.117062 0.619859,0.312785 0.55793,0.587165 -0.06198,0.274374 -0.207981,0.630029 -0.541465,0.845021 z"
   id="path2"
   style="fill:#2c4f54;fill-opacity:0.5;stroke:#2e3332;stroke-width:0.239064;stroke-miterlimit:4;stroke-dasharray:none;stroke-opacity:0.9" />
<path
   style="fill:#2c4f53;fill-opacity:0.499285;stroke:#e4e7e7;stroke-width:0.239605;stroke-miterlimit:4;stroke-dasharray:none;stroke-opacity:0.9"
   d="m 82.452289,34.913718 c 0.997212,1.31623 2.002753,2.848806 2.78614,4.246409 4.404935,7.858793 5.093493,18.446027 1.778428,27.345083 -1.784445,4.790197 -4.094365,8.233532 -8.007291,11.936243 -4.016154,3.800652 -7.725063,5.990859 -12.722732,7.513871 -3.368462,1.026498 -6.407441,1.454376 -10.075388,1.418531 -7.279266,-0.07111 -13.678115,-2.181795 -19.486209,-6.427477 -1.209553,-0.884173 -1.657524,-1.302959 -3.879826,-3.627006 -2.697409,-2.821002 -3.376697,-3.694456 -4.8353,-6.217579 -2.202857,-3.810742 -3.772231,-8.857922 -4.193669,-13.487154 -0.17191,-1.888251 -0.02745,-5.826236 0.2842,-7.746536 0.75418,-4.647467 2.387294,-9.01679 4.71431,-12.612821 1.715966,-2.651811 2.425436,-3.489379 5.109892,-6.032613 1.893758,-1.79402 2.731899,-2.515454 3.677828,-3.165021 5.744595,-3.94508 12.590363,-5.976723 19.562206,-5.805514 7.140256,0.175367 13.970725,2.578126 19.489592,6.855883 1.272216,0.986112 4.894196,4.612999 5.797852,5.805691 z m -6.241064,10.934454 c -3.513769,-1.706545 -6.505873,-3.177326 -6.649113,-3.268397 -0.176809,-0.112364 -1.193177,-2.353092 -3.164935,-6.977369 -1.671978,-3.92117 -2.99467,-6.861176 -3.116977,-6.928205 -0.253517,-0.138869 -0.711118,0.09419 -0.993317,0.505957 -0.112024,0.163483 -6.050067,10.178103 -13.195655,22.254747 -12.52154,21.162436 -12.986706,21.969523 -12.846235,22.288667 0.108611,0.246625 0.213066,0.332231 0.409833,0.335173 0.325461,0.005 45.481593,-23.505943 45.890084,-23.893033 0.369078,-0.349729 0.504844,-0.956837 0.247006,-1.10462 -0.105717,-0.06044 -3.066945,-1.506361 -6.580715,-3.212905 z"
   id="path861" /><rect
   style="fill:#c7485e;fill-opacity:1;stroke:#3c4343;stroke-width:1.02878;stroke-opacity:0.9"
   id="rect2803"
   width="11.287295"
   height="0.1324825"
   x="-84.307915"
   y="-4.9894314"
   transform="matrix(-0.69309184,-0.72084929,0.72009156,-0.69387906,0,0)"
   inkscape:transform-center-x="-8.9677984"
   inkscape:transform-center-y="-0.20380507" /><path
   style="fill:#a06f78;fill-opacity:1;stroke:#e27364;stroke-width:0.0836603;stroke-opacity:0.9"
   d="m 53.798963,64.78325 c -0.182456,0.09684 -4.087094,2.231533 -8.676998,4.743891 -4.589901,2.51236 -8.472215,4.605771 -8.627346,4.652001 -0.244119,0.07272 9.50931,-16.759117 9.970291,-17.206137 0.125859,-0.122167 1.170703,0.873451 3.91871,3.733897 3.503935,3.647312 3.72547,3.911858 3.415372,4.076308 z"
   id="path3397"
   inkscape:transform-center-x="-3.1372548"
   inkscape:transform-center-y="4.6037426" /><g
   aria-label="c"
   transform="scale(1.017659,0.98264741)"
   id="text9344"
   style="font-size:12.5872px;line-height:1.25;font-family:'Segoe Script';-inkscape-font-specification:'Segoe Script';fill:#e0e0e0;stroke-width:0.314679"><path
     d="m 59.53955,4.7741664 q 0,0.2212594 -0.159799,0.3994961 -0.165944,0.1843829 -0.288866,0.3134508 -0.122922,0.1229219 -0.233552,0.2274055 -0.110629,0.1044836 -0.233551,0.2028211 -0.122922,0.092191 -0.288867,0.2151133 -0.467103,0.3380351 -0.891183,0.5715867 -0.424081,0.2274055 -0.823577,0.3749117 -0.399496,0.1413602 -0.792846,0.2028211 -0.387204,0.061461 -0.780554,0.061461 -0.411788,0 -0.737531,-0.1536524 Q 53.983481,7.0297829 53.756075,6.7593548 53.534816,6.4889266 53.41804,6.1324532 53.301265,5.7698336 53.301265,5.3703375 v -0.03073 q 0,-0.4056422 0.104483,-0.8604532 0.104484,-0.460957 0.288867,-0.921914 0.190528,-0.4609571 0.45481,-0.9034758 0.264283,-0.4486649 0.583879,-0.8358688 0.129068,-0.1536523 0.307305,-0.325743 0.184383,-0.1782367 0.387204,-0.3257429 0.208967,-0.1475063 0.430227,-0.23969769 0.227405,-0.0983375 0.442518,-0.0983375 0.147507,0 0.282721,0.0921914 0.135214,0.0860453 0.251989,0.22740549 0.116776,0.1413601 0.215114,0.3195969 0.09834,0.1720906 0.165944,0.3564734 0.06761,0.1782367 0.104484,0.3441813 0.03688,0.1659445 0.03688,0.2827203 0,0.1782367 -0.110629,0.460957 -0.11063,0.2827203 -0.264282,0.2827203 -0.22126,0 -0.368766,-0.3011586 Q 56.558694,2.776686 56.515672,2.6230336 56.478795,2.4693813 56.42348,2.321875 56.374311,2.1743688 56.288266,2.0514469 56.202221,1.9223789 56.048568,1.860918 55.894916,1.8977945 55.735118,2.0207164 55.581465,2.1436383 55.427813,2.321875 55.280307,2.5001117 55.1328,2.7275172 54.99144,2.9487766 54.862372,3.1884742 54.73945,3.4097336 54.622675,3.6986 q -0.116776,0.2827203 -0.208967,0.590025 -0.09219,0.3011586 -0.147507,0.6023172 -0.05532,0.3011586 -0.05532,0.5531485 0,0.1782367 0.08605,0.3626195 0.08604,0.1782367 0.221259,0.325743 0.14136,0.1475062 0.313451,0.2396976 0.178237,0.092191 0.362619,0.092191 0.909622,0 1.806952,-0.3749117 0.89733,-0.3749117 1.708614,-1.0878586 0.448665,-0.39335 0.743677,-0.39335 0.08605,0 0.08605,0.1659445 z"
     id="path3233" /></g><g
   aria-label="ю"
   transform="scale(0.88471169,1.1303117)"
   id="text11307"
   style="font-size:10.0864px;line-height:1.25;font-family:'Segoe Script';-inkscape-font-specification:'Segoe Script';fill:#e0e0e0;stroke-width:0.252156"><path
     d="m 59.599639,94.674578 q 0,-0.0197 -0.02463,-0.03448 -0.0197,-0.0197 -0.04925,-0.04925 -0.02955,-0.02955 -0.05418,-0.0788 -0.0197,-0.04925 -0.0197,-0.1379 0,-0.0788 0.04433,-0.142825 0.04433,-0.06403 0.09358,-0.1182 0.05417,-0.05418 0.0985,-0.0985 0.04925,-0.04433 0.0591,-0.08373 0.08373,-0.4728 0.142825,-0.891425 0.0591,-0.418625 0.07388,-0.69935 0.0049,-0.08373 0,-0.172375 0,-0.08865 -0.0049,-0.1773 -0.0049,-0.06403 -0.0099,-0.123125 0,-0.0591 0,-0.113275 0,-0.0591 0.04433,-0.132975 0.04433,-0.07388 0.10835,-0.1379 0.06895,-0.06403 0.14775,-0.103425 0.08373,-0.04433 0.162525,-0.04433 0.06895,0 0.1379,0.0394 0.06895,0.03448 0.123125,0.103425 0.05418,0.06403 0.08865,0.162525 0.03448,0.09358 0.03448,0.211775 0,0.08865 -0.01478,0.2167 -0.01478,0.12805 -0.0394,0.280725 -0.02463,0.152675 -0.0591,0.320125 -0.02955,0.16745 -0.0591,0.3349 -0.0394,0.231475 -0.0788,0.44325 -0.03448,0.211775 -0.05418,0.36445 0.0197,0.04433 0.03448,0.0788 0.0197,0.02955 0.04925,0.04925 0.02955,0.0197 0.07387,0.02955 0.04925,0.0099 0.12805,0.0099 0.211775,0 0.448175,-0.04433 0.2364,-0.04433 0.448175,-0.113275 0.211775,-0.06895 0.379225,-0.142825 0.172375,-0.0788 0.2561,-0.14775 0.05418,-0.04433 0.1182,-0.1182 0.06895,-0.07387 0.1379,-0.1576 0.06895,-0.08865 0.132975,-0.172375 0.06895,-0.08865 0.1182,-0.152675 0.16745,-0.211775 0.379225,-0.4137 0.211775,-0.201925 0.467875,-0.3546 0.2561,-0.152675 0.5516,-0.24625 0.300425,-0.09358 0.6501,-0.09358 0.26595,0 0.52205,0.132975 0.2561,0.12805 0.4531,0.349675 0.201925,0.221625 0.320125,0.5122 0.123125,0.28565 0.123125,0.60085 0,0.3152 -0.06403,0.576225 -0.0591,0.2561 -0.192075,0.546675 -0.07388,0.152675 -0.2561,0.36445 -0.182225,0.211775 -0.438325,0.438325 -0.251175,0.22655 -0.5516,0.448175 -0.300425,0.221625 -0.6107,0.398925 -0.310275,0.1773 -0.6107,0.28565 -0.2955,0.10835 -0.536825,0.10835 -0.32505,0 -0.556525,-0.10835 -0.231475,-0.113275 -0.379225,-0.290575 -0.14775,-0.182225 -0.2167,-0.4137 -0.06895,-0.231475 -0.06895,-0.467875 0,-0.192075 0.05418,-0.46295 0.0591,-0.2758 0.197,-0.556525 -0.18715,0.1182 -0.418625,0.18715 -0.22655,0.06895 -0.418625,0.123125 -0.08372,0.02463 -0.18715,0.04433 -0.103425,0.01478 -0.20685,0.02955 -0.0985,0.01478 -0.192075,0.02955 -0.08865,0.01478 -0.152675,0.02463 -0.0985,0.0197 -0.1379,0.0788 -0.03448,0.05418 -0.05418,0.142825 -0.0197,0.08373 -0.0591,0.221625 -0.0394,0.1379 -0.0788,0.28565 -0.04432,0.1576 -0.09357,0.32505 -0.04925,0.16745 -0.08865,0.320125 -0.03448,0.14775 -0.06403,0.2758 -0.02463,0.123125 -0.02463,0.192075 0,0.06403 -0.05418,0.1379 -0.04925,0.07388 -0.1182,0.1379 -0.06403,0.06895 -0.132975,0.113275 -0.06403,0.04433 -0.0985,0.04433 -0.07388,0 -0.142825,-0.04925 -0.06403,-0.04925 -0.113275,-0.113275 -0.04925,-0.06403 -0.0788,-0.12805 -0.02955,-0.06895 -0.02955,-0.103425 0,-0.04433 0.03448,-0.1576 0.0394,-0.113275 0.0788,-0.231475 0.02463,-0.07388 0.06403,-0.201925 0.0394,-0.12805 0.0788,-0.280725 0.04433,-0.1576 0.08373,-0.32505 0.04433,-0.16745 0.0788,-0.3152 0.03448,-0.14775 0.05418,-0.2561 0.0197,-0.113275 0.0197,-0.162525 z m 5.934625,-1.11305 q 0,-0.4925 -0.28565,-0.7683 -0.280725,-0.280725 -0.8077,-0.280725 -0.07388,0 -0.182225,0.0591 -0.10835,0.0591 -0.2364,0.152675 -0.123125,0.08865 -0.251175,0.197 -0.123125,0.10835 -0.2364,0.211775 -0.10835,0.103425 -0.18715,0.18715 -0.0788,0.08372 -0.10835,0.1182 -0.103425,0.123125 -0.2167,0.339825 -0.10835,0.211775 -0.201925,0.458025 -0.09358,0.24625 -0.1576,0.497425 -0.0591,0.24625 -0.0591,0.4334 0,0.113275 0.02955,0.231475 0.03448,0.1182 0.0985,0.2167 0.06895,0.09358 0.172375,0.1576 0.103425,0.0591 0.241325,0.0591 0.152675,0 0.389075,-0.08865 0.2364,-0.08865 0.497425,-0.24625 0.26595,-0.1576 0.5319,-0.3743 0.270875,-0.2167 0.48265,-0.467875 0.2167,-0.251175 0.349675,-0.526975 0.1379,-0.280725 0.1379,-0.566375 z"
     id="path3275" /></g><g
   aria-label="з"
   transform="scale(1.3715863,0.72908283)"
   id="text16794"
   style="font-size:11.6167px;line-height:1.25;font-family:'Segoe Script';-inkscape-font-specification:'Segoe Script';fill:#e0e0e0;stroke-width:0.290416"><path
     d="m 1.3768165,71.556339 q 0.056722,0 0.090755,0.03971 0.039705,0.0397 0.062394,0.09643 0.022689,0.06239 0.028361,0.136133 0.011344,0.07374 0.011344,0.141805 0,0.130461 0.045378,0.283611 0.05105,0.15315 0.158822,0.283611 0.1134444,0.130461 0.2892831,0.215544 0.1758387,0.09076 0.4310885,0.09076 0.3460052,0 0.7146993,-0.181511 0.3686941,-0.181511 0.6749938,-0.504828 0.3062997,-0.323316 0.4991551,-0.771421 0.1985276,-0.442433 0.1985276,-0.969949 0,-0.487811 -0.1020999,-0.828144 -0.1020999,-0.340333 -0.2665942,-0.550205 -0.1588221,-0.215544 -0.3686941,-0.311972 -0.209872,-0.09643 -0.419744,-0.09643 -0.079411,0 -0.1758388,0.03971 -0.096428,0.03403 -0.1985276,0.09076 -0.096428,0.05105 -0.1985276,0.113445 -0.096428,0.06239 -0.1758387,0.113444 -0.1361332,0.09076 -0.260922,0.15315 -0.1191165,0.06239 -0.3176441,0.06239 -0.1531499,0 -0.2665942,-0.113444 -0.1077721,-0.119117 -0.1077721,-0.311972 0,-0.147478 0.1020999,-0.249578 0.1077721,-0.102099 0.3289886,-0.192855 0.470794,-0.192855 0.8394881,-0.391383 0.3743663,-0.2042 0.629616,-0.436761 0.2552498,-0.238233 0.391383,-0.521844 0.1361332,-0.28361 0.1361332,-0.646632 0,-0.141806 -0.045378,-0.277939 -0.039706,-0.141805 -0.1247888,-0.249577 -0.085083,-0.113445 -0.209872,-0.181511 -0.1191166,-0.07374 -0.2779386,-0.07374 -0.3403331,0 -0.6466328,0.209872 -0.3062997,0.209872 -0.601255,0.516172 -0.1304609,0.136133 -0.2155442,0.198527 -0.085083,0.05672 -0.1815109,0.05672 -0.079411,0 -0.1418055,-0.0397 -0.056722,-0.04538 -0.096428,-0.1021 -0.034033,-0.06239 -0.056722,-0.130461 -0.017017,-0.07374 -0.017017,-0.124789 0,-0.136133 0.073739,-0.25525 0.079411,-0.124788 0.209872,-0.23256 0.2836108,-0.238234 0.5558772,-0.391383 0.2722664,-0.15315 0.4481052,-0.226889 0.1985276,-0.07941 0.4083996,-0.15315 0.2155442,-0.07374 0.4027274,-0.07374 0.2665942,0 0.5104995,0.09643 0.2439053,0.09076 0.4254163,0.272266 0.1871831,0.175839 0.2949552,0.436761 0.1134444,0.260922 0.1134444,0.589911 0,0.476466 -0.2325609,0.94726 -0.2268887,0.470794 -0.7770937,0.913227 0.3800385,0.01702 0.6636494,0.192855 0.2836108,0.175839 0.470794,0.465122 0.1928553,0.289283 0.2836108,0.669321 0.096428,0.374367 0.096428,0.794111 0,0.419744 -0.1134444,0.833816 -0.1134443,0.414072 -0.3233163,0.79411 -0.2041998,0.380039 -0.4934829,0.703355 -0.2836108,0.323316 -0.6296161,0.561549 -0.340333,0.238234 -0.7317159,0.374367 -0.3857108,0.136133 -0.7941104,0.136133 -0.391383,0 -0.680666,-0.130461 Q 1.4278664,73.331743 1.235011,73.138888 1.0478279,72.946032 0.95140019,72.724816 q -0.0964277,-0.221216 -0.0964277,-0.4084 0,-0.141805 0.05105,-0.306299 0.0567222,-0.164495 0.12478874,-0.260922 0.045378,-0.06239 0.130461,-0.130461 0.085083,-0.0624 0.2155443,-0.0624 z"
     id="path3296" /></g><g
   aria-label="в"
   transform="scale(1.38681,0.72107931)"
   id="text19318"
   style="font-size:12.0969px;line-height:1.25;font-family:'Segoe Script';-inkscape-font-specification:'Segoe Script';fill:#e0e0e0;stroke-width:0.302425"><path
     d="m 78.080486,65.915031 q 0,-0.07088 -0.02953,-0.141761 -0.02363,-0.07679 -0.07679,-0.135853 -0.04725,-0.06497 -0.129947,-0.106321 -0.07679,-0.04135 -0.183107,-0.04135 -0.206734,0 -0.431188,0.147668 -0.218548,0.147667 -0.443002,0.407561 -0.218548,0.253988 -0.425282,0.608389 -0.206734,0.348495 -0.383935,0.756056 -0.1772,0.407562 -0.318961,0.85647 -0.135854,0.443002 -0.218547,0.891911 0.05316,-0.03544 0.15948,-0.112228 0.106321,-0.08269 0.236268,-0.183107 0.135854,-0.10632 0.283521,-0.224454 0.153574,-0.124041 0.289428,-0.242174 0.14176,-0.118134 0.259894,-0.224455 0.118134,-0.10632 0.189014,-0.183107 0.655643,-0.708803 0.939164,-1.228591 0.283521,-0.519789 0.283521,-0.844657 z m -0.183108,6.367411 q -0.183107,0.271708 -0.443001,0.531602 -0.253988,0.253988 -0.561136,0.448909 -0.307148,0.19492 -0.655642,0.307148 -0.342588,0.112227 -0.69699,0.08269 -0.248081,-0.01772 -0.472535,-0.15948 -0.224454,-0.147668 -0.395748,-0.413469 -0.171294,-0.271707 -0.271708,-0.661549 -0.100413,-0.389841 -0.100413,-0.897817 0,-0.324868 0.03544,-0.702896 0.03544,-0.383935 0.09451,-0.773776 0.05907,-0.389842 0.129947,-0.761963 0.07679,-0.372121 0.147667,-0.685176 0.09451,-0.425282 0.248081,-0.83875 0.153574,-0.419375 0.342588,-0.80331 0.189014,-0.389841 0.407562,-0.732429 0.218547,-0.342588 0.448908,-0.620203 0.318961,-0.372121 0.726523,-0.596575 0.413468,-0.224454 0.968697,-0.224454 0.230361,0 0.419375,0.09451 0.189014,0.09451 0.324868,0.248081 0.135854,0.147667 0.206734,0.336681 0.07679,0.189014 0.07679,0.372121 0,0.253988 -0.10632,0.567043 -0.100414,0.307147 -0.295335,0.643829 -0.194921,0.336681 -0.472535,0.679269 -0.277615,0.342588 -0.632016,0.661549 0.08269,0.0059 0.189014,0.02953 0.112227,0.01772 0.230361,0.07088 0.124041,0.05316 0.248081,0.14176 0.129947,0.0886 0.248081,0.224455 0.05316,0.06497 0.118134,0.1772 0.06497,0.106321 0.118134,0.265801 0.05907,0.153574 0.09451,0.354402 0.04135,0.200827 0.04135,0.443001 0,0.472536 -0.171294,1.021858 -0.165387,0.543415 -0.590669,1.169524 z m -0.165387,-2.173661 q 0,-0.324868 -0.09451,-0.543416 -0.09451,-0.224454 -0.224454,-0.354401 -0.129947,-0.135854 -0.265801,-0.189014 -0.135854,-0.05907 -0.218548,-0.05907 -0.07679,0 -0.242174,0.118134 -0.165387,0.118133 -0.354401,0.259894 -0.141761,0.12404 -0.283521,0.230361 -0.141761,0.10632 -0.265801,0.206734 -0.118134,0.100414 -0.218548,0.200827 -0.100414,0.100414 -0.165387,0.212641 -0.165387,0.301241 -0.194921,0.685176 -0.02953,0.383935 -0.02953,0.78559 0,0.265801 0.05316,0.478442 0.05907,0.206734 0.14176,0.354401 0.0886,0.147667 0.189014,0.230361 0.100414,0.07679 0.183108,0.07679 0.200827,0 0.454815,-0.08269 0.253988,-0.08269 0.519789,-0.324868 0.23036,-0.21264 0.413468,-0.478442 0.189014,-0.265801 0.318961,-0.561135 0.135854,-0.295334 0.206734,-0.614296 0.07679,-0.318961 0.07679,-0.632015 z"
     id="path3254" /></g><text
   xml:space="preserve"
   style="font-size:21.0657px;line-height:1.25;font-family:'Segoe Script';-inkscape-font-specification:'Segoe Script';fill:#16272a;fill-opacity:0.799714;stroke-width:0.52664"
   x="10.720549"
   y="65.875717"
   id="text17884"
   transform="scale(1.3025237,0.76774033)"><tspan
     sodipodi:role="line"
     id="tspan17882"
     x="10.720549"
     y="65.875717"
     style="stroke-width:0.52664">_</tspan></text><text
   xml:space="preserve"
   style="font-size:22.3747px;line-height:1.25;font-family:'Segoe Script';-inkscape-font-specification:'Segoe Script';fill:#16272a;fill-opacity:0.799714;stroke-width:0.559365"
   x="62.226963"
   y="69.40451"
   id="text17884-6"
   transform="scale(1.383464,0.72282328)"><tspan
     sodipodi:role="line"
     id="tspan17882-2"
     x="62.226963"
     y="69.40451"
     style="stroke-width:0.559365">_</tspan></text><text
   xml:space="preserve"
   style="font-size:19.6565px;line-height:1.25;font-family:'Segoe Script';-inkscape-font-specification:'Segoe Script';fill:#16272a;fill-opacity:0.799714;stroke-width:0.491412"
   x="-71.863174"
   y="74.460571"
   id="text17884-0"
   transform="matrix(-0.01760421,-1.4212999,0.70288093,-0.05654424,0,0)"><tspan
     sodipodi:role="line"
     id="tspan17882-4"
     x="-71.863174"
     y="74.460571"
     style="stroke-width:0.491412">_</tspan></text><text
   xml:space="preserve"
   style="font-size:20.8049px;line-height:1.25;font-family:'Segoe Script';-inkscape-font-specification:'Segoe Script';fill:#16272a;fill-opacity:0.799714;stroke-width:0.52012"
   x="-17.648138"
   y="72.071175"
   id="text17884-9"
   transform="matrix(5.2468705e-4,-1.3029076,0.76751354,0.0014148,0,0)"><tspan
     sodipodi:role="line"
     id="tspan17882-7"
     x="-17.648138"
     y="72.071175"
     style="stroke-width:0.52012">_</tspan></text></svg>
