<?xml version="1.0" encoding="UTF-8" standalone="no"?>
<!-- Generator: Adobe Illustrator 22.0.1, SVG Export Plug-In . SVG Version: 6.00 Build 0)  -->

<svg
   version="1.1"
   id="Layer_1"
   x="0px"
   y="0px"
   viewBox="0 0 110 110"
   xml:space="preserve"
   sodipodi:docname="westWind.svg"
   width="110"
   height="110"
   inkscape:version="1.1.1 (3bf5ae0d25, 2021-09-20)"
   xmlns:inkscape="http://www.inkscape.org/namespaces/inkscape"
   xmlns:sodipodi="http://sodipodi.sourceforge.net/DTD/sodipodi-0.dtd"
   xmlns="http://www.w3.org/2000/svg"
   xmlns:svg="http://www.w3.org/2000/svg"><defs
   id="defs7" /><sodipodi:namedview
   id="namedview5"
   pagecolor="#ffffff"
   bordercolor="#666666"
   borderopacity="1.0"
   inkscape:pageshadow="2"
   inkscape:pageopacity="0.0"
   inkscape:pagecheckerboard="0"
   showgrid="false"
   inkscape:zoom="7.183333"
   inkscape:cx="91.670538"
   inkscape:cy="44.895594"
   inkscape:window-width="2400"
   inkscape:window-height="1321"
   inkscape:window-x="2391"
   inkscape:window-y="-9"
   inkscape:window-maximized="1"
   inkscape:current-layer="Layer_1"
   width="140px" />
<path
   d="M 54.092598,96.824054 C 46.227593,96.368334 39.052222,93.978061 32.602842,89.693954 26.153463,85.409839 21.170607,79.816871 17.65427,72.915035 14.13793,66.013206 12.620594,58.646439 13.06367,50.81248 c 0.331761,-5.865806 1.807061,-11.433072 4.385119,-16.665423 2.578083,-5.232331 5.960689,-9.643733 10.036522,-13.318036 4.075873,-3.674288 8.876956,-6.493514 14.403254,-8.457677 5.526337,-1.964144 11.182116,-2.797989 17.119433,-2.454003 5.860194,0.339514 11.423577,1.823371 16.653801,4.410724 5.230199,2.587338 9.679881,5.981237 13.317012,10.0637 3.637123,4.082439 6.459488,8.892067 8.430792,14.387985 1.971288,5.495934 2.811397,11.158614 2.477441,17.063018 -0.333914,5.904418 -1.811407,11.510264 -4.38948,16.742616 -2.578089,5.232338 -5.962861,9.682316 -10.038704,13.35664 -4.075836,3.674316 -8.874734,6.454962 -14.32614,8.46214 -5.451409,2.00721 -11.141384,2.761633 -17.040122,2.41989 z M 54.633896,87.25349 C 63.771172,87.78288 71.900987,84.924201 79.025532,78.638881 86.07294,72.349087 89.838213,64.591453 90.364239,55.291053 90.709092,49.193689 89.526355,43.433717 86.773078,38.08607 84.0198,32.738422 80.168829,28.33385 75.136477,24.983616 70.104141,21.633376 64.562578,19.763618 58.471047,19.410679 52.379539,19.057774 46.624811,20.273068 41.247592,23.02018 c -5.37721,2.747128 -9.736029,6.637355 -13.076453,11.670665 -3.340416,5.033321 -5.162696,10.580464 -5.507546,16.677833 -0.344866,6.097362 0.837894,11.857334 3.591162,17.204988 2.753268,5.347633 6.642816,9.75447 11.672983,13.143271 5.030166,3.388822 10.61464,5.183637 16.706158,5.536553 z M 78.255256,69.689274 28.529593,52.289301 c -0.38335,-0.06092 -0.5652,-0.265057 -0.545525,-0.612402 0.01972,-0.347308 0.223332,-0.529105 0.611012,-0.545376 L 79.955566,39.626957 c 0.43283,-0.129822 0.739078,-0.07334 0.95948,0.133009 0.220362,0.206399 0.202948,0.515085 -0.05282,0.926168 l -5.76941,13.10065 c -0.176056,0.376978 -0.19788,0.762889 -0.0633,1.119142 l 4.248086,13.797194 c 0.209487,0.399303 0.194195,0.669439 -0.04549,0.810426 -0.240079,0.140929 -0.595769,0.275221 -0.976941,0.175716 z"
   id="path2"
   style="fill:#2c4f54;fill-opacity:0.5;stroke:#2e3332;stroke-width:0.238195;stroke-miterlimit:4;stroke-dasharray:none;stroke-opacity:0.9" />
<path
   style="fill:#2c4f53;fill-opacity:0.499285;stroke:#e4e7e7;stroke-width:0.238195;stroke-miterlimit:4;stroke-dasharray:none;stroke-opacity:0.9"
   d="m 88.689993,58.660641 c -0.257454,1.628637 -0.663546,3.411521 -1.125181,4.939971 -2.595854,8.594483 -9.678005,16.347722 -18.292036,20.025324 -4.636777,1.979572 -8.671856,2.653523 -13.987508,2.336226 -5.45607,-0.325501 -9.553299,-1.529934 -14.055339,-4.131089 -3.03439,-1.753209 -5.416558,-3.676148 -7.897769,-6.375331 -4.924132,-5.356678 -7.791573,-11.468255 -8.732204,-18.611307 -0.19589,-1.487563 -0.203292,-2.101043 -0.06415,-5.313252 0.168961,-3.899016 0.327819,-4.992567 1.130918,-7.784242 1.213013,-4.21626 3.741021,-8.817422 6.755406,-12.295267 1.229552,-1.418608 4.137566,-4.010375 5.720462,-5.098325 3.830844,-2.633087 8.063953,-4.434762 12.219646,-5.200826 3.064493,-0.564946 4.146871,-0.621252 7.795803,-0.40562 2.574069,0.152194 3.661535,0.269253 4.7714,0.51413 6.740371,1.486939 12.868304,5.087348 17.510924,10.28841 4.754759,5.326717 7.708816,11.953069 8.428903,18.907189 0.165998,1.60307 0.05399,6.72822 -0.179245,8.204025 z m -12.065758,2.938025 c -1.183997,-3.73101 -2.179661,-6.920156 -2.212586,-7.08698 -0.04068,-0.205882 0.863199,-2.481673 2.814514,-7.086604 1.654608,-3.904779 2.847987,-6.882869 2.812215,-7.017962 -0.0742,-0.279973 -0.553201,-0.454025 -1.039803,-0.37779 -0.19318,0.03028 -11.395656,2.559279 -24.894411,5.620014 -23.654471,5.363457 -24.548135,5.577025 -24.679805,5.898038 -0.101712,0.248111 -0.09139,0.382906 0.04098,0.528406 0.218994,0.240622 47.852145,17.065651 48.407463,17.098403 0.501726,0.0296 1.027619,-0.287206 0.956823,-0.576435 -0.0291,-0.118476 -1.021428,-3.268087 -2.205423,-6.999096 z"
   id="path861" /><rect
   style="fill:#c7485e;fill-opacity:1;stroke:#3c4343;stroke-width:1.02275;stroke-opacity:0.9"
   id="rect2803"
   width="11.286674"
   height="0.13094063"
   x="-57.971081"
   y="48.482307"
   transform="matrix(0.00368261,-0.99999322,0.99991977,0.01266694,0,0)"
   inkscape:transform-center-x="-6.5059161"
   inkscape:transform-center-y="6.1581395" /><path
   style="fill:#a06f78;fill-opacity:1;stroke:#e27364;stroke-width:0.0821625;stroke-opacity:0.9"
   d="m 46.849529,58.025313 c -0.197064,-0.06634 -4.458578,-1.445672 -9.470152,-3.065088 -5.011574,-1.619412 -9.228007,-3.009835 -9.36982,-3.08983 -0.223131,-0.125908 18.617766,-4.190231 19.259859,-4.154732 0.175395,0.0096 0.199011,1.401926 0.08871,5.221773 -0.140644,4.870623 -0.173729,5.200736 -0.508547,5.087873 z"
   id="path3397"
   inkscape:transform-center-x="3.6132107"
   inkscape:transform-center-y="5.6849723" /><g
   aria-label="c"
   transform="scale(1.0157974,0.9844483)"
   id="text9344"
   style="font-size:12.5414px;line-height:1.25;font-family:'Segoe Script';-inkscape-font-specification:'Segoe Script';fill:#e0e0e0;stroke-width:0.313535"><path
     d="m 59.523205,4.558332 q 0,0.2204543 -0.159217,0.3980425 -0.165341,0.1837119 -0.287816,0.3123102 -0.122474,0.1224746 -0.232701,0.2265781 -0.110228,0.1041034 -0.232702,0.2020831 -0.122475,0.091856 -0.287815,0.2143305 -0.465404,0.3368052 -0.887941,0.569507 -0.422538,0.226578 -0.82058,0.3735475 -0.398043,0.1408458 -0.789961,0.2020831 -0.385795,0.061237 -0.777714,0.061237 -0.41029,0 -0.734848,-0.1530932 Q 53.987352,6.8057411 53.760774,6.5362969 53.54032,6.2668528 53.423969,5.9116764 53.307618,5.5503763 53.307618,5.1523339 v -0.030619 q 0,-0.4041662 0.104104,-0.8573223 0.104103,-0.4592797 0.287815,-0.9185595 0.189836,-0.4592798 0.453156,-0.9001884 0.263321,-0.4470323 0.581755,-0.8328273 0.128598,-0.1530933 0.306186,-0.3245578 0.183712,-0.1775881 0.385795,-0.32455767 0.208207,-0.14696953 0.428661,-0.23882549 0.226578,-0.0979797 0.440909,-0.0979797 0.146969,0 0.281691,0.091856 0.134722,0.0857322 0.251073,0.22657803 0.116351,0.14084576 0.214331,0.31843396 0.09798,0.1714645 0.165341,0.3551764 0.06736,0.1775882 0.104103,0.3429289 0.03674,0.1653407 0.03674,0.2816916 0,0.1775882 -0.110227,0.4592798 -0.110227,0.2816916 -0.26332,0.2816916 -0.220454,0 -0.367424,-0.3000628 -0.05511,-0.1163509 -0.09798,-0.2694442 -0.03674,-0.1530932 -0.09186,-0.3000627 -0.04899,-0.1469696 -0.134722,-0.2694442 -0.08573,-0.1285983 -0.238825,-0.1898356 -0.153093,0.036742 -0.31231,0.159217 -0.153094,0.1224746 -0.306187,0.3000628 -0.146969,0.1775881 -0.293939,0.4041662 -0.140846,0.2204543 -0.269444,0.4592797 -0.122475,0.2204543 -0.238826,0.5082697 -0.116351,0.2816916 -0.208206,0.5878781 -0.09186,0.3000628 -0.14697,0.6001256 -0.05511,0.3000628 -0.05511,0.5511357 0,0.1775882 0.08573,0.3613001 0.08573,0.1775882 0.220454,0.3245577 0.140846,0.1469696 0.31231,0.2388255 0.177588,0.091856 0.3613,0.091856 0.906312,0 1.800377,-0.3735476 0.894065,-0.3735475 1.702397,-1.0839003 0.447032,-0.3919187 0.740971,-0.3919187 0.08573,0 0.08573,0.1653407 z"
     id="path3794" /></g><g
   aria-label="ю"
   transform="scale(0.88309324,1.1323833)"
   id="text11307"
   style="font-size:10.0497px;line-height:1.25;font-family:'Segoe Script';-inkscape-font-specification:'Segoe Script';fill:#e0e0e0;stroke-width:0.25124"><path
     d="m 59.61317,94.157878 q 0,-0.01963 -0.02454,-0.03435 -0.01963,-0.01963 -0.04907,-0.04907 -0.02944,-0.02944 -0.05398,-0.07851 -0.01963,-0.04907 -0.01963,-0.137398 0,-0.07851 0.04416,-0.142306 0.04416,-0.06379 0.09323,-0.117769 0.05398,-0.05398 0.09814,-0.09814 0.04907,-0.04416 0.05888,-0.08342 0.08342,-0.47108 0.142305,-0.888182 0.05889,-0.417102 0.07361,-0.696805 0.0049,-0.08342 0,-0.171748 0,-0.08833 -0.0049,-0.176655 -0.0049,-0.06379 -0.0098,-0.122677 0,-0.05889 0,-0.112863 0,-0.05889 0.04416,-0.132491 0.04416,-0.07361 0.107955,-0.137398 0.0687,-0.06379 0.147213,-0.103049 0.08342,-0.04416 0.161933,-0.04416 0.0687,0 0.137399,0.03926 0.0687,0.03435 0.122677,0.103049 0.05398,0.06379 0.08833,0.161933 0.03435,0.09324 0.03435,0.211005 0,0.08833 -0.01472,0.215911 -0.01472,0.127584 -0.03926,0.279704 -0.02454,0.152119 -0.05888,0.31896 -0.02944,0.166841 -0.05889,0.333682 -0.03926,0.230632 -0.07851,0.441637 -0.03435,0.211004 -0.05398,0.363124 0.01963,0.04416 0.03435,0.07851 0.01963,0.02944 0.04907,0.04907 0.02944,0.01963 0.07361,0.02944 0.04907,0.0098 0.127584,0.0098 0.211005,0 0.446545,-0.04416 0.235539,-0.04416 0.446544,-0.112863 0.211004,-0.0687 0.377845,-0.142306 0.171748,-0.07851 0.255168,-0.147212 0.05398,-0.04416 0.11777,-0.11777 0.0687,-0.07361 0.137398,-0.157026 0.0687,-0.08833 0.132492,-0.171748 0.0687,-0.08833 0.117769,-0.15212 0.166841,-0.211004 0.377846,-0.412194 0.211004,-0.201191 0.466172,-0.35331 0.255168,-0.15212 0.549593,-0.245354 0.299332,-0.09324 0.647735,-0.09324 0.264982,0 0.52015,0.132491 0.255168,0.127585 0.451452,0.348403 0.20119,0.220819 0.31896,0.510336 0.122677,0.284611 0.122677,0.598664 0,0.314053 -0.06379,0.574129 -0.05889,0.255168 -0.191376,0.544685 -0.07361,0.15212 -0.255169,0.363124 -0.181562,0.211005 -0.43673,0.43673 -0.250261,0.225726 -0.549593,0.446545 -0.299331,0.220818 -0.608478,0.397473 -0.309146,0.176655 -0.608477,0.284611 -0.294425,0.107956 -0.534872,0.107956 -0.323867,0 -0.5545,-0.107956 -0.230633,-0.112863 -0.377845,-0.289518 -0.147213,-0.181562 -0.215912,-0.412195 -0.0687,-0.230632 -0.0687,-0.466172 0,-0.191376 0.05398,-0.461266 0.05888,-0.274796 0.196283,-0.5545 -0.186469,0.11777 -0.417102,0.186469 -0.225725,0.0687 -0.417102,0.122677 -0.08342,0.02454 -0.186469,0.04416 -0.103048,0.01472 -0.206097,0.02944 -0.09814,0.01472 -0.191376,0.02944 -0.08833,0.01472 -0.15212,0.02454 -0.09814,0.01963 -0.137398,0.07851 -0.03435,0.05398 -0.05398,0.142305 -0.01963,0.08342 -0.05888,0.220819 -0.03926,0.137398 -0.07851,0.28461 -0.04416,0.157027 -0.09323,0.323868 -0.04907,0.16684 -0.08833,0.31896 -0.03435,0.147212 -0.06379,0.274796 -0.02454,0.122677 -0.02454,0.191376 0,0.06379 -0.05398,0.137399 -0.04907,0.07361 -0.11777,0.137398 -0.06379,0.0687 -0.132491,0.112863 -0.06379,0.04416 -0.09814,0.04416 -0.07361,0 -0.142305,-0.04907 -0.06379,-0.04907 -0.112863,-0.112863 -0.04907,-0.06379 -0.07851,-0.127584 -0.02944,-0.0687 -0.02944,-0.103049 0,-0.04416 0.03435,-0.157027 0.03926,-0.112862 0.07851,-0.230632 0.02454,-0.07361 0.06379,-0.201191 0.03926,-0.127584 0.07851,-0.279703 0.04416,-0.157027 0.08342,-0.323867 0.04416,-0.166841 0.07851,-0.314054 0.03435,-0.147212 0.05398,-0.255168 0.01963,-0.112863 0.01963,-0.161933 z m 5.913032,-1.109 q 0,-0.490708 -0.284611,-0.765505 -0.279704,-0.279703 -0.804761,-0.279703 -0.07361,0 -0.181562,0.05888 -0.107956,0.05888 -0.23554,0.15212 -0.122677,0.08833 -0.250261,0.196283 -0.122677,0.107956 -0.23554,0.211005 -0.107956,0.103048 -0.186469,0.186469 -0.07851,0.08342 -0.107956,0.11777 -0.103048,0.122677 -0.215911,0.338588 -0.107956,0.211005 -0.20119,0.456359 -0.09323,0.245354 -0.157027,0.495615 -0.05888,0.245354 -0.05888,0.431823 0,0.112862 0.02944,0.230632 0.03435,0.11777 0.09814,0.215912 0.0687,0.09323 0.171748,0.157026 0.103049,0.05889 0.240447,0.05889 0.152119,0 0.387659,-0.08833 0.23554,-0.08833 0.495615,-0.245354 0.264983,-0.157027 0.529965,-0.372938 0.269889,-0.215912 0.480894,-0.466173 0.215911,-0.250261 0.348402,-0.525057 0.137399,-0.279704 0.137399,-0.564314 z"
     id="path3752" /></g><g
   aria-label="з"
   transform="scale(1.3690772,0.73041903)"
   id="text16794"
   style="font-size:11.5745px;line-height:1.25;font-family:'Segoe Script';-inkscape-font-specification:'Segoe Script';fill:#e0e0e0;stroke-width:0.28936"><path
     d="m 1.5202892,71.028698 q 0.056516,0 0.090426,0.03956 0.039561,0.03956 0.062168,0.09608 0.022606,0.06217 0.028258,0.135639 0.011303,0.07347 0.011303,0.14129 0,0.129987 0.045213,0.282581 0.050865,0.152593 0.1582451,0.28258 0.1130323,0.129987 0.2882322,0.214762 0.1752,0.09042 0.4295225,0.09042 0.3447483,0 0.712103,-0.180851 0.3673547,-0.180852 0.6725418,-0.502994 0.305187,-0.322142 0.4973418,-0.768619 0.1978064,-0.440826 0.1978064,-0.966425 0,-0.486039 -0.1017291,-0.825136 -0.101729,-0.339096 -0.2656257,-0.548206 -0.1582451,-0.214761 -0.3673547,-0.310839 -0.2091096,-0.09608 -0.4182193,-0.09608 -0.079123,0 -0.1751999,0.03956 -0.096077,0.03391 -0.1978064,0.09043 -0.096077,0.05087 -0.1978064,0.113032 -0.096077,0.06217 -0.1752,0.113033 -0.1356386,0.09042 -0.2599741,0.152593 -0.1186838,0.06217 -0.3164902,0.06217 -0.1525935,0 -0.2656258,-0.113032 -0.1073806,-0.118684 -0.1073806,-0.310839 0,-0.146942 0.101729,-0.248671 0.1073806,-0.101729 0.3277935,-0.192155 0.4690837,-0.192155 0.8364385,-0.389961 0.3730063,-0.203458 0.6273288,-0.435174 0.2543225,-0.237368 0.3899612,-0.519948 0.1356387,-0.282581 0.1356387,-0.644284 0,-0.14129 -0.045213,-0.276929 -0.039561,-0.14129 -0.1243355,-0.248671 -0.084774,-0.113032 -0.2091096,-0.180851 -0.1186838,-0.07347 -0.2769289,-0.07347 -0.3390967,0 -0.6442837,0.209109 -0.305187,0.20911 -0.5990708,0.514297 -0.1299871,0.135639 -0.2147613,0.197806 -0.084774,0.05652 -0.1808515,0.05652 -0.079123,0 -0.1412903,-0.03956 -0.056516,-0.04521 -0.096077,-0.101729 -0.03391,-0.06217 -0.056516,-0.129987 -0.016955,-0.07347 -0.016955,-0.124335 0,-0.135639 0.073471,-0.254323 0.079123,-0.124335 0.2091096,-0.231716 0.2825806,-0.237368 0.5538579,-0.389961 0.2712774,-0.152594 0.4464773,-0.226065 0.1978064,-0.07912 0.406916,-0.152593 0.2147613,-0.07347 0.4012645,-0.07347 0.2656257,0 0.508645,0.09608 0.2430193,0.09043 0.4238708,0.271278 0.1865032,0.1752 0.2938838,0.435174 0.1130322,0.259974 0.1130322,0.587767 0,0.474736 -0.231716,0.943819 -0.2260645,0.469084 -0.7742708,0.90991 0.378658,0.01696 0.6612386,0.192155 0.2825805,0.1752 0.4690837,0.463432 0.1921548,0.288232 0.2825806,0.66689 0.096077,0.373006 0.096077,0.791226 0,0.418219 -0.1130323,0.830786 -0.1130322,0.412568 -0.3221418,0.791226 -0.203458,0.378658 -0.4916902,0.7008 -0.2825806,0.322142 -0.6273289,0.559509 -0.3390966,0.237368 -0.7290578,0.373007 -0.3843096,0.135638 -0.7912256,0.135638 -0.3899612,0 -0.6781934,-0.129987 -0.2882322,-0.124335 -0.480387,-0.31649 -0.1865031,-0.192155 -0.2825805,-0.412568 -0.096077,-0.220412 -0.096077,-0.406916 0,-0.14129 0.050865,-0.305187 0.056516,-0.163896 0.1243354,-0.259974 0.045213,-0.06217 0.1299871,-0.129987 0.084774,-0.06217 0.2147612,-0.06217 z"
     id="path3773" /></g><g
   aria-label="в"
   transform="scale(1.3842731,0.72240082)"
   id="text19318"
   style="font-size:12.053px;line-height:1.25;font-family:'Segoe Script';-inkscape-font-specification:'Segoe Script';fill:#e0e0e0;stroke-width:0.301325"><path
     d="m 77.943529,65.404886 q 0,-0.07062 -0.02943,-0.141246 -0.02354,-0.07651 -0.07651,-0.135361 -0.04708,-0.06474 -0.129475,-0.105934 -0.07651,-0.0412 -0.182443,-0.0412 -0.205984,0 -0.429624,0.147131 -0.217754,0.147132 -0.441394,0.406083 -0.217754,0.253066 -0.423738,0.606181 -0.205984,0.34723 -0.382542,0.753312 -0.176557,0.406083 -0.317803,0.853362 -0.135361,0.441394 -0.217755,0.888674 0.05297,-0.03531 0.158902,-0.11182 0.105935,-0.08239 0.23541,-0.182443 0.135361,-0.105935 0.282492,-0.22364 0.153017,-0.12359 0.288378,-0.241295 0.141246,-0.117705 0.258951,-0.22364 0.117705,-0.105934 0.188328,-0.182443 0.653263,-0.70623 0.935756,-1.224132 0.282492,-0.517903 0.282492,-0.841592 z m -0.182443,6.344304 q -0.182443,0.270722 -0.441394,0.529673 -0.253066,0.253066 -0.559099,0.447279 -0.306033,0.194214 -0.653263,0.306034 -0.341345,0.111819 -0.69446,0.08239 -0.247181,-0.01766 -0.470821,-0.158902 -0.223639,-0.147131 -0.394312,-0.411968 -0.170672,-0.270721 -0.270721,-0.659148 -0.10005,-0.388427 -0.10005,-0.894559 0,-0.323689 0.03531,-0.700345 0.03531,-0.382541 0.09416,-0.770968 0.05885,-0.388427 0.129475,-0.759198 0.07651,-0.370771 0.147132,-0.682689 0.09416,-0.423739 0.24718,-0.835707 0.153017,-0.417853 0.341345,-0.800394 0.188328,-0.388427 0.406083,-0.729772 0.217754,-0.341344 0.447279,-0.617951 0.317804,-0.370771 0.723886,-0.594411 0.411968,-0.22364 0.965182,-0.22364 0.229525,0 0.417853,0.09416 0.188328,0.09417 0.323689,0.247181 0.135361,0.147131 0.205984,0.33546 0.07651,0.188328 0.07651,0.370771 0,0.253066 -0.105934,0.564984 -0.10005,0.306033 -0.294263,0.641493 -0.194214,0.335459 -0.47082,0.676804 -0.276607,0.341345 -0.629723,0.659148 0.08239,0.0059 0.188328,0.02943 0.11182,0.01765 0.229525,0.07062 0.123591,0.05297 0.247181,0.141246 0.129476,0.08828 0.247181,0.223639 0.05297,0.06474 0.117705,0.176558 0.06474,0.105935 0.117705,0.264837 0.05885,0.153016 0.09416,0.353115 0.0412,0.200098 0.0412,0.441394 0,0.47082 -0.170673,1.018149 -0.164787,0.541443 -0.588525,1.16528 z m -0.164787,-2.165773 q 0,-0.323689 -0.09416,-0.541444 -0.09416,-0.223639 -0.22364,-0.353115 -0.129475,-0.135361 -0.264836,-0.188328 -0.135361,-0.05885 -0.217755,-0.05885 -0.07651,0 -0.241295,0.117705 -0.164787,0.117705 -0.353115,0.258952 -0.141246,0.12359 -0.282493,0.229524 -0.141246,0.105935 -0.264836,0.205984 -0.117705,0.10005 -0.217754,0.200099 -0.10005,0.100049 -0.164788,0.211869 -0.164787,0.300148 -0.194213,0.68269 -0.02943,0.382541 -0.02943,0.782738 0,0.264837 0.05297,0.476706 0.05885,0.205984 0.141246,0.353115 0.08828,0.147132 0.188328,0.229525 0.10005,0.07651 0.182443,0.07651 0.200099,0 0.453165,-0.08239 0.253066,-0.08239 0.517902,-0.323689 0.229525,-0.211869 0.411968,-0.476706 0.188328,-0.264836 0.317804,-0.559099 0.135361,-0.294262 0.205984,-0.612066 0.07651,-0.317804 0.07651,-0.629722 z"
     id="path3815" /></g><text
   xml:space="preserve"
   style="font-size:21.0678px;line-height:1.25;font-family:'Segoe Script';-inkscape-font-specification:'Segoe Script';fill:#16272a;fill-opacity:0.799714;stroke-width:0.526696"
   x="10.426961"
   y="65.627846"
   id="text17884"
   transform="scale(1.3050255,0.76626854)"><tspan
     sodipodi:role="line"
     id="tspan17882"
     x="10.426961"
     y="65.627846"
     style="stroke-width:0.526696">_</tspan></text><text
   xml:space="preserve"
   style="font-size:21.9966px;line-height:1.25;font-family:'Segoe Script';-inkscape-font-specification:'Segoe Script';fill:#16272a;fill-opacity:0.799714;stroke-width:0.549917"
   x="63.401722"
   y="67.965843"
   id="text17884-6"
   transform="scale(1.3625585,0.73391344)"><tspan
     sodipodi:role="line"
     id="tspan17882-2"
     x="63.401722"
     y="67.965843"
     style="stroke-width:0.549917">_</tspan></text><text
   xml:space="preserve"
   style="font-size:18.8518px;line-height:1.25;font-family:'Segoe Script';-inkscape-font-specification:'Segoe Script';fill:#16272a;fill-opacity:0.799714;stroke-width:0.471293"
   x="-72.848122"
   y="71.592735"
   id="text17884-0"
   transform="matrix(-0.01825551,-1.3705932,0.72888482,-0.05452696,0,0)"><tspan
     sodipodi:role="line"
     id="tspan17882-4"
     x="-72.848122"
     y="71.592735"
     style="stroke-width:0.471293">_</tspan></text><text
   xml:space="preserve"
   style="font-size:21.2749px;line-height:1.25;font-family:'Segoe Script';-inkscape-font-specification:'Segoe Script';fill:#16272a;fill-opacity:0.799714;stroke-width:0.531869"
   x="-16.95064"
   y="73.970726"
   id="text17884-9"
   transform="matrix(5.1029653e-4,-1.33965,0.74646307,0.0014547,0,0)"><tspan
     sodipodi:role="line"
     id="tspan17882-7"
     x="-16.95064"
     y="73.970726"
     style="stroke-width:0.531869">_</tspan></text></svg>
