<?xml version="1.0" encoding="UTF-8" standalone="no"?>
<!-- Generator: Adobe Illustrator 22.0.1, SVG Export Plug-In . SVG Version: 6.00 Build 0)  -->

<svg
   version="1.1"
   id="Layer_1"
   x="0px"
   y="0px"
   viewBox="0 0 110 110"
   xml:space="preserve"
   sodipodi:docname="westWind.svg"
   width="110"
   height="110"
   inkscape:version="1.1.1 (3bf5ae0d25, 2021-09-20)"
   xmlns:inkscape="http://www.inkscape.org/namespaces/inkscape"
   xmlns:sodipodi="http://sodipodi.sourceforge.net/DTD/sodipodi-0.dtd"
   xmlns="http://www.w3.org/2000/svg"
   xmlns:svg="http://www.w3.org/2000/svg"><defs
   id="defs7" /><sodipodi:namedview
   id="namedview5"
   pagecolor="#ffffff"
   bordercolor="#666666"
   borderopacity="1.0"
   inkscape:pageshadow="2"
   inkscape:pageopacity="0.0"
   inkscape:pagecheckerboard="0"
   showgrid="false"
   inkscape:zoom="14.366666"
   inkscape:cx="54.918795"
   inkscape:cy="92.192577"
   inkscape:window-width="2400"
   inkscape:window-height="1321"
   inkscape:window-x="2391"
   inkscape:window-y="-9"
   inkscape:window-maximized="1"
   inkscape:current-layer="Layer_1"
   width="140px" />
<path
   d="M 54.092598,96.824054 C 46.227593,96.368334 39.052222,93.978061 32.602842,89.693954 26.153463,85.409839 21.170607,79.816871 17.65427,72.915035 14.13793,66.013206 12.620594,58.646439 13.06367,50.81248 c 0.331761,-5.865806 1.807061,-11.433072 4.385119,-16.665423 2.578083,-5.232331 5.960689,-9.643733 10.036522,-13.318036 4.075873,-3.674288 8.876956,-6.493514 14.403254,-8.457677 5.526337,-1.964144 11.182116,-2.797989 17.119433,-2.454003 5.860194,0.339514 11.423577,1.823371 16.653801,4.410724 5.230199,2.587338 9.679881,5.981237 13.317012,10.0637 3.637123,4.082439 6.459488,8.892067 8.430792,14.387985 1.971288,5.495934 2.811397,11.158614 2.477441,17.063018 -0.333914,5.904418 -1.811407,11.510264 -4.38948,16.742616 -2.578089,5.232338 -5.962861,9.682316 -10.038704,13.35664 -4.075836,3.674316 -8.874734,6.454962 -14.32614,8.46214 -5.451409,2.00721 -11.141384,2.761633 -17.040122,2.41989 z M 54.633896,87.25349 C 63.771172,87.78288 71.900987,84.924201 79.025532,78.638881 86.07294,72.349087 89.838213,64.591453 90.364239,55.291053 90.709092,49.193689 89.526355,43.433717 86.773078,38.08607 84.0198,32.738422 80.168829,28.33385 75.136477,24.983616 70.104141,21.633376 64.562578,19.763618 58.471047,19.410679 52.379539,19.057774 46.624811,20.273068 41.247592,23.02018 c -5.37721,2.747128 -9.736029,6.637355 -13.076453,11.670665 -3.340416,5.033321 -5.162696,10.580464 -5.507546,16.677833 -0.344866,6.097362 0.837894,11.857334 3.591162,17.204988 2.753268,5.347633 6.642816,9.75447 11.672983,13.143271 5.030166,3.388822 10.61464,5.183637 16.706158,5.536553 z M 78.255256,69.689274 28.529593,52.289301 c -0.38335,-0.06092 -0.5652,-0.265057 -0.545525,-0.612402 0.01972,-0.347308 0.223332,-0.529105 0.611012,-0.545376 L 79.955566,39.626957 c 0.43283,-0.129822 0.739078,-0.07334 0.95948,0.133009 0.220362,0.206399 0.202948,0.515085 -0.05282,0.926168 l -5.76941,13.10065 c -0.176056,0.376978 -0.19788,0.762889 -0.0633,1.119142 l 4.248086,13.797194 c 0.209487,0.399303 0.194195,0.669439 -0.04549,0.810426 -0.240079,0.140929 -0.595769,0.275221 -0.976941,0.175716 z"
   id="path2"
   style="fill:#2c4f54;fill-opacity:0.5;stroke:#2e3332;stroke-width:0.238195;stroke-miterlimit:4;stroke-dasharray:none;stroke-opacity:0.9" />
<path
   style="fill:#2c4f53;fill-opacity:0.499285;stroke:#e4e7e7;stroke-width:0.238195;stroke-miterlimit:4;stroke-dasharray:none;stroke-opacity:0.9"
   d="m 88.689993,58.660641 c -0.257454,1.628637 -0.663546,3.411521 -1.125181,4.939971 -2.595854,8.594483 -9.678005,16.347722 -18.292036,20.025324 -4.636777,1.979572 -8.671856,2.653523 -13.987508,2.336226 -5.45607,-0.325501 -9.553299,-1.529934 -14.055339,-4.131089 -3.03439,-1.753209 -5.416558,-3.676148 -7.897769,-6.375331 -4.924132,-5.356678 -7.791573,-11.468255 -8.732204,-18.611307 -0.19589,-1.487563 -0.203292,-2.101043 -0.06415,-5.313252 0.168961,-3.899016 0.327819,-4.992567 1.130918,-7.784242 1.213013,-4.21626 3.741021,-8.817422 6.755406,-12.295267 1.229552,-1.418608 4.137566,-4.010375 5.720462,-5.098325 3.830844,-2.633087 8.063953,-4.434762 12.219646,-5.200826 3.064493,-0.564946 4.146871,-0.621252 7.795803,-0.40562 2.574069,0.152194 3.661535,0.269253 4.7714,0.51413 6.740371,1.486939 12.868304,5.087348 17.510924,10.28841 4.754759,5.326717 7.708816,11.953069 8.428903,18.907189 0.165998,1.60307 0.05399,6.72822 -0.179245,8.204025 z m -12.065758,2.938025 c -1.183997,-3.73101 -2.179661,-6.920156 -2.212586,-7.08698 -0.04068,-0.205882 0.863199,-2.481673 2.814514,-7.086604 1.654608,-3.904779 2.847987,-6.882869 2.812215,-7.017962 -0.0742,-0.279973 -0.553201,-0.454025 -1.039803,-0.37779 -0.19318,0.03028 -11.395656,2.559279 -24.894411,5.620014 -23.654471,5.363457 -24.548135,5.577025 -24.679805,5.898038 -0.101712,0.248111 -0.09139,0.382906 0.04098,0.528406 0.218994,0.240622 47.852145,17.065651 48.407463,17.098403 0.501726,0.0296 1.027619,-0.287206 0.956823,-0.576435 -0.0291,-0.118476 -1.021428,-3.268087 -2.205423,-6.999096 z"
   id="path861" /><rect
   style="fill:#c7485e;fill-opacity:1;stroke:#3c4343;stroke-width:1.02275;stroke-opacity:0.9"
   id="rect2803"
   width="11.286674"
   height="0.13094063"
   x="-57.971081"
   y="48.482307"
   transform="matrix(0.00368261,-0.99999322,0.99991977,0.01266694,0,0)"
   inkscape:transform-center-x="-6.5059161"
   inkscape:transform-center-y="6.1581395" /><path
   style="fill:#a06f78;fill-opacity:1;stroke:#e27364;stroke-width:0.0821625;stroke-opacity:0.9"
   d="m 46.849529,58.025313 c -0.197064,-0.06634 -4.458578,-1.445672 -9.470152,-3.065088 -5.011574,-1.619412 -9.228007,-3.009835 -9.36982,-3.08983 -0.223131,-0.125908 18.617766,-4.190231 19.259859,-4.154732 0.175395,0.0096 0.199011,1.401926 0.08871,5.221773 -0.140644,4.870623 -0.173729,5.200736 -0.508547,5.087873 z"
   id="path3397"
   inkscape:transform-center-x="3.6132107"
   inkscape:transform-center-y="5.6849723" /><text
   xml:space="preserve"
   style="font-size:12.5414px;line-height:1.25;font-family:'Segoe Script';-inkscape-font-specification:'Segoe Script';fill:#e0e0e0;fill-opacity:1;stroke-width:0.313535"
   x="52.523781"
   y="7.0935564"
   id="text9344"
   transform="scale(1.0157974,0.9844483)"><tspan
     sodipodi:role="line"
     id="tspan9342"
     x="52.523781"
     y="7.0935564"
     style="fill:#e0e0e0;fill-opacity:1;stroke-width:0.313535">c</tspan></text><text
   xml:space="preserve"
   style="font-size:10.0497px;line-height:1.25;font-family:'Segoe Script';-inkscape-font-specification:'Segoe Script';fill:#e0e0e0;fill-opacity:1;stroke-width:0.25124"
   x="58.298073"
   y="96.184502"
   id="text11307"
   transform="scale(0.88309324,1.1323833)"><tspan
     sodipodi:role="line"
     id="tspan11305"
     x="58.298073"
     y="96.184502"
     style="fill:#e0e0e0;fill-opacity:1;stroke-width:0.25124">ю</tspan></text><text
   xml:space="preserve"
   style="font-size:11.5745px;line-height:1.25;font-family:'Segoe Script';-inkscape-font-specification:'Segoe Script';fill:#e0e0e0;fill-opacity:1;stroke-width:0.28936"
   x="0.68950236"
   y="70.576569"
   id="text16794"
   transform="scale(1.3690772,0.73041903)"><tspan
     sodipodi:role="line"
     id="tspan16792"
     x="0.68950236"
     y="70.576569"
     style="fill:#e0e0e0;fill-opacity:1;stroke-width:0.28936">з</tspan></text><text
   xml:space="preserve"
   style="font-size:12.053px;line-height:1.25;font-family:'Segoe Script';-inkscape-font-specification:'Segoe Script';fill:#e0e0e0;fill-opacity:1;stroke-width:0.301325"
   x="73.376572"
   y="72.967438"
   id="text19318"
   transform="scale(1.3842731,0.72240082)"><tspan
     sodipodi:role="line"
     id="tspan19316"
     x="73.376572"
     y="72.967438"
     style="fill:#e0e0e0;fill-opacity:1;stroke-width:0.301325">в</tspan></text><text
   xml:space="preserve"
   style="font-size:21.0678px;line-height:1.25;font-family:'Segoe Script';-inkscape-font-specification:'Segoe Script';fill:#16272a;fill-opacity:0.799714;stroke-width:0.526696"
   x="10.426961"
   y="65.627846"
   id="text17884"
   transform="scale(1.3050255,0.76626854)"><tspan
     sodipodi:role="line"
     id="tspan17882"
     x="10.426961"
     y="65.627846"
     style="stroke-width:0.526696">_</tspan></text><text
   xml:space="preserve"
   style="font-size:21.9966px;line-height:1.25;font-family:'Segoe Script';-inkscape-font-specification:'Segoe Script';fill:#16272a;fill-opacity:0.799714;stroke-width:0.549917"
   x="63.401722"
   y="67.965843"
   id="text17884-6"
   transform="scale(1.3625585,0.73391344)"><tspan
     sodipodi:role="line"
     id="tspan17882-2"
     x="63.401722"
     y="67.965843"
     style="stroke-width:0.549917">_</tspan></text><text
   xml:space="preserve"
   style="font-size:18.8518px;line-height:1.25;font-family:'Segoe Script';-inkscape-font-specification:'Segoe Script';fill:#16272a;fill-opacity:0.799714;stroke-width:0.471293"
   x="-72.848122"
   y="71.592735"
   id="text17884-0"
   transform="matrix(-0.01825551,-1.3705932,0.72888482,-0.05452696,0,0)"><tspan
     sodipodi:role="line"
     id="tspan17882-4"
     x="-72.848122"
     y="71.592735"
     style="stroke-width:0.471293">_</tspan></text><text
   xml:space="preserve"
   style="font-size:21.2749px;line-height:1.25;font-family:'Segoe Script';-inkscape-font-specification:'Segoe Script';fill:#16272a;fill-opacity:0.799714;stroke-width:0.531869"
   x="-16.95064"
   y="73.970726"
   id="text17884-9"
   transform="matrix(5.1029653e-4,-1.33965,0.74646307,0.0014547,0,0)"><tspan
     sodipodi:role="line"
     id="tspan17882-7"
     x="-16.95064"
     y="73.970726"
     style="stroke-width:0.531869">_</tspan></text></svg>
