<?xml version="1.0" encoding="UTF-8" standalone="no"?>
<!-- Generator: Adobe Illustrator 22.0.1, SVG Export Plug-In . SVG Version: 6.00 Build 0)  -->

<svg
   version="1.1"
   id="Layer_1"
   x="0px"
   y="0px"
   viewBox="0 0 50 50"
   xml:space="preserve"
   sodipodi:docname="eastWind.svg"
   width="50"
   height="50"
   inkscape:version="1.1.1 (3bf5ae0d25, 2021-09-20)"
   xmlns:inkscape="http://www.inkscape.org/namespaces/inkscape"
   xmlns:sodipodi="http://sodipodi.sourceforge.net/DTD/sodipodi-0.dtd"
   xmlns="http://www.w3.org/2000/svg"
   xmlns:svg="http://www.w3.org/2000/svg"><defs
   id="defs7" /><sodipodi:namedview
   id="namedview5"
   pagecolor="#ffffff"
   bordercolor="#666666"
   borderopacity="1.0"
   inkscape:pageshadow="2"
   inkscape:pageopacity="0.0"
   inkscape:pagecheckerboard="0"
   showgrid="false"
   inkscape:zoom="12.255556"
   inkscape:cx="11.504986"
   inkscape:cy="15.788757"
   inkscape:window-width="2400"
   inkscape:window-height="1321"
   inkscape:window-x="2391"
   inkscape:window-y="-9"
   inkscape:window-maximized="1"
   inkscape:current-layer="Layer_1"
   width="140px" />
<path
   d="m 23.044911,9.8933079 c 2.668533,-0.322021 5.219758,0.04539 7.639047,1.0907401 2.419287,1.045361 4.423354,2.617493 6.012204,4.716397 1.588852,2.098901 2.53377,4.474117 2.847847,7.124073 0.23518,1.9842 0.06863,3.937438 -0.488081,5.845074 -0.556728,1.907631 -1.432175,3.58892 -2.584012,5.065223 -1.151851,1.476303 -2.59779,2.710054 -4.337852,3.701233 -1.740066,0.99118 -3.590394,1.611691 -5.604883,1.854791 -1.988316,0.239942 -3.944564,0.07878 -5.854118,-0.471976 -1.909543,-0.550763 -3.604594,-1.418704 -5.06742,-2.566244 -1.462822,-1.147533 -2.694962,-2.587736 -3.68181,-4.3091 -0.986838,-1.721369 -1.60361,-3.566836 -1.840329,-5.56409 -0.2367292,-1.997259 -0.07173,-3.963548 0.484995,-5.871185 0.556728,-1.907635 1.430623,-3.60197 2.582458,-5.078282 1.151842,-1.476306 2.599335,-2.696995 4.311691,-3.698069 1.712355,-1.001085 3.578863,-1.597068 5.580263,-1.8385851 z m 0.383704,3.2373861 c -3.100208,0.374119 -5.661844,1.821943 -7.683364,4.356525 -1.995354,2.531425 -2.801602,5.356301 -2.428731,8.502304 0.244455,2.062527 0.982056,3.919894 2.222779,5.544422 1.240727,1.624527 2.79441,2.867022 4.682583,3.68518 1.888167,0.818162 3.859885,1.109852 5.926698,0.860445 2.066798,-0.249416 3.927825,-1.003629 5.571542,-2.24799 1.643713,-1.244366 2.877836,-2.81005 3.702367,-4.697043 0.824533,-1.886992 1.108802,-3.85443 0.864344,-5.916961 -0.244456,-2.062525 -0.982054,-3.919892 -2.222778,-5.544423 -1.240728,-1.624519 -2.807497,-2.865443 -4.697214,-3.696654 -1.889718,-0.831213 -3.871421,-1.095217 -5.938226,-0.845805 z m -6.895836,7.306841 17.729448,2.82575 c 0.132357,-0.0027 0.205498,0.05464 0.219414,0.172145 0.01389,0.1175 -0.04376,0.19065 -0.172996,0.219493 l -16.5706,6.951651 c -0.137704,0.0696 -0.243902,0.06918 -0.330123,0.01344 -0.0862,-0.05581 -0.0986,-0.160229 -0.03713,-0.313299 l 1.163666,-4.734932 c 0.03685,-0.136856 0.02138,-0.267396 -0.04486,-0.378565 l -2.242061,-4.363674 c -0.09394,-0.121066 -0.104776,-0.212443 -0.03249,-0.274133 0.0723,-0.06168 0.183837,-0.128111 0.317742,-0.11779 z"
   id="path2"
   style="fill:#2c4f54;fill-opacity:0.5;stroke:#bccdc6;stroke-width:0.5;stroke-miterlimit:4;stroke-dasharray:none;stroke-opacity:0.9" />
<path
   style="fill:#2c4f53;fill-opacity:0.499285;stroke:#e4e7e7;stroke-width:0.2;stroke-miterlimit:4;stroke-dasharray:none;stroke-opacity:0.9"
   d="m 13.782134,24.753777 c -0.006,-0.560946 0.02944,-1.182218 0.0979,-1.721415 0.38497,-3.031893 2.326344,-6.041875 5.01425,-7.77429 1.446853,-0.932525 2.765492,-1.392434 4.571041,-1.59427 1.853236,-0.207234 3.299424,-0.04098 4.961041,0.570021 1.119935,0.411841 2.03018,0.918407 3.017804,1.679466 1.959997,1.510368 3.271247,3.393067 3.993108,5.733303 0.150334,0.487362 0.187654,0.692605 0.32324,1.777596 0.164541,1.316981 0.173215,1.692814 0.06165,2.675317 -0.16853,1.483873 -0.757408,3.173038 -1.57362,4.513798 -0.332927,0.546893 -1.163679,1.584421 -1.6342,2.04095 -1.13873,1.104887 -2.45994,1.954359 -3.81391,2.452147 -0.998448,0.367089 -1.359231,0.448726 -2.598523,0.588007 -0.874244,0.09822 -1.24658,0.122041 -1.633706,0.104282 -2.351058,-0.10768 -4.61616,-0.959447 -6.472661,-2.433965 -1.901343,-1.51014 -3.270945,-3.560403 -3.907917,-5.850085 -0.146831,-0.527822 -0.400158,-2.252571 -0.405508,-2.760871 z m 3.890632,-1.684601 c 0.609981,1.182205 1.125866,2.193665 1.146411,2.247687 0.02537,0.06666 -0.149378,0.882054 -0.544112,2.539042 -0.334712,1.405053 -0.566936,2.47268 -0.547236,2.515898 0.04084,0.08957 0.211803,0.120138 0.371109,0.06636 0.06326,-0.02135 3.6868,-1.518768 8.052351,-3.327598 7.649952,-3.169686 7.938345,-3.293106 7.9644,-3.408364 0.02011,-0.0891 0.009,-0.133669 -0.04379,-0.174775 -0.08727,-0.06804 -17.060512,-2.946852 -17.24911,-2.92563 -0.170403,0.01917 -0.329258,0.155872 -0.289032,0.248735 0.01653,0.03804 0.529031,1.036431 1.139014,2.218638 z"
   id="path861" /><rect
   style="fill:#c7485e;fill-opacity:1;stroke:#3c4343;stroke-width:0.382115;stroke-opacity:0.9"
   id="rect2803"
   width="4.8866167"
   height="0.042215388"
   x="27.511072"
   y="-21.554035"
   transform="matrix(0.15110913,0.98851709,-0.97304015,0.23063579,0,0)"
   inkscape:transform-center-x="2.445625"
   inkscape:transform-center-y="-2.1147453" /><path
   style="fill:#cc4f66;fill-opacity:1;stroke:#e27364;stroke-width:0.0353566;stroke-opacity:0.9"
   d="m 25.673524,22.378931 c 0.09042,0.01324 2.041982,0.277103 4.336784,0.586263 2.294796,0.30916 4.227769,0.580881 4.295483,0.603816 0.106567,0.03611 -7.695603,3.090754 -7.975637,3.122578 -0.0765,0.0086 -0.199837,-0.567867 -0.462667,-2.162475 -0.335131,-2.03326 -0.347679,-2.172774 -0.193984,-2.150179 z"
   id="path3397"
   inkscape:transform-center-x="-1.0063939"
   inkscape:transform-center-y="-1.9432383" /><g
   aria-label="c"
   transform="scale(1.0219254,0.97854503)"
   id="text9344"
   style="font-size:17.7699px;line-height:1.25;font-family:'Segoe Script';-inkscape-font-specification:'Segoe Script';fill:#e0e0e0;stroke-width:0.444246"><path
     d="m 29.462539,5.6492414 q 0,0.3123615 -0.225594,0.5639861 -0.234271,0.2603012 -0.407806,0.4425121 -0.173534,0.1735342 -0.329715,0.3210382 -0.15618,0.1475041 -0.329714,0.2863314 -0.173535,0.1301507 -0.407806,0.3036848 -0.65943,0.477219 -1.258123,0.8069339 -0.598692,0.3210383 -1.162678,0.5292793 -0.563987,0.1995643 -1.119296,0.2863314 -0.546633,0.086767 -1.101942,0.086767 -0.581339,0 -1.041205,-0.2169177 Q 21.618794,8.8335935 21.297756,8.4518183 20.985395,8.0700431 20.820537,7.566794 20.65568,7.0548682 20.65568,6.4908822 v -0.043384 q 0,-0.5726628 0.147504,-1.2147392 Q 20.950688,4.5820063 21.210989,3.9312531 21.479967,3.2805 21.853066,2.6557769 22.226164,2.0223772 22.677353,1.4757445 22.859564,1.2588268 23.111188,1.015879 23.37149,0.76425443 23.657821,0.55601343 q 0.295008,-0.20824101 0.60737,-0.33839164 0.321038,-0.13882734 0.624723,-0.13882734 0.208241,0 0.399128,0.13015063 0.190888,0.12147392 0.355745,0.32103822 0.164858,0.1995643 0.303685,0.45118885 0.138827,0.24294785 0.234271,0.50324915 0.09544,0.2516245 0.147504,0.4858956 0.05206,0.2342712 0.05206,0.3991286 0,0.2516246 -0.156181,0.6507532 -0.156181,0.3991286 -0.373099,0.3991286 -0.312361,0 -0.520602,-0.4251587 -0.07809,-0.1648575 -0.138828,-0.3817752 -0.05206,-0.2169177 -0.13015,-0.4251587 -0.06941,-0.2082411 -0.190888,-0.3817752 -0.121474,-0.1822109 -0.338391,-0.268978 -0.216918,0.05206 -0.442513,0.2255944 -0.216917,0.1735342 -0.433835,0.4251588 -0.208241,0.2516245 -0.416482,0.5726627 -0.199564,0.3123615 -0.381775,0.6507532 -0.173534,0.3123615 -0.338392,0.7201668 -0.164857,0.3991286 -0.295008,0.832964 -0.130151,0.4251588 -0.208241,0.8503175 -0.07809,0.4251587 -0.07809,0.7809038 0,0.2516245 0.121474,0.5119258 0.121474,0.2516245 0.312361,0.4598655 0.199564,0.208241 0.442512,0.3383917 0.251625,0.1301506 0.511926,0.1301506 1.284153,0 2.550952,-0.5292792 1.2668,-0.5292793 2.412125,-1.5357775 0.6334,-0.5553093 1.049882,-0.5553093 0.121474,0 0.121474,0.2342711 z"
     id="path968" /></g><g
   aria-label="ю"
   transform="scale(0.88842035,1.1255933)"
   id="text11307"
   style="font-size:14.2395px;line-height:1.25;font-family:'Segoe Script';-inkscape-font-specification:'Segoe Script';fill:#e0e0e0;stroke-width:0.355984"><path
     d="m 22.434373,40.208893 q 0,-0.02781 -0.03476,-0.04867 -0.02781,-0.02781 -0.06953,-0.06953 -0.04172,-0.04172 -0.07648,-0.111246 -0.02781,-0.06953 -0.02781,-0.194681 0,-0.111246 0.06258,-0.201633 0.06258,-0.09039 0.132104,-0.166869 0.07648,-0.07648 0.139058,-0.139058 0.06953,-0.06258 0.08343,-0.118199 0.118199,-0.667476 0.201633,-1.258471 0.08344,-0.590995 0.104293,-0.987309 0.007,-0.118199 0,-0.243351 0,-0.125152 -0.007,-0.250304 -0.007,-0.09039 -0.0139,-0.173822 0,-0.08344 0,-0.159916 0,-0.08344 0.06258,-0.187728 0.06258,-0.104293 0.152963,-0.194681 0.09734,-0.09039 0.208586,-0.14601 0.118199,-0.06258 0.229445,-0.06258 0.09734,0 0.194681,0.05562 0.09734,0.04867 0.173822,0.14601 0.07648,0.09039 0.125152,0.229445 0.04867,0.132105 0.04867,0.298974 0,0.125152 -0.02086,0.305927 -0.02086,0.180775 -0.05562,0.396314 -0.03476,0.21554 -0.08343,0.451938 -0.04172,0.236398 -0.08343,0.472795 -0.05562,0.326786 -0.111246,0.62576 -0.04867,0.298974 -0.07648,0.514513 0.02781,0.06258 0.04867,0.111246 0.02781,0.04172 0.06953,0.06953 0.04172,0.02781 0.104293,0.04172 0.06953,0.01391 0.180775,0.01391 0.298974,0 0.632712,-0.06258 0.333738,-0.06258 0.632712,-0.159916 0.298974,-0.09734 0.535372,-0.201634 0.243351,-0.111246 0.36155,-0.208586 0.07648,-0.06258 0.166869,-0.166869 0.09734,-0.104294 0.19468,-0.222493 0.09734,-0.125151 0.187728,-0.24335 0.09734,-0.125152 0.166869,-0.21554 0.236398,-0.298974 0.535372,-0.584042 0.298974,-0.285068 0.660524,-0.500607 0.36155,-0.215539 0.778723,-0.347644 0.424125,-0.132105 0.91778,-0.132105 0.375455,0 0.737005,0.187728 0.36155,0.180775 0.639665,0.493654 0.285068,0.31288 0.451937,0.7231 0.173822,0.403267 0.173822,0.848251 0,0.444985 -0.09039,0.813488 -0.08344,0.361549 -0.271162,0.771769 -0.104294,0.21554 -0.36155,0.514513 -0.257257,0.298974 -0.618807,0.618807 -0.354596,0.319832 -0.778722,0.632712 -0.424126,0.31288 -0.862157,0.563183 -0.438032,0.250304 -0.862158,0.403267 -0.417172,0.152964 -0.757864,0.152964 -0.45889,0 -0.785675,-0.152964 -0.326786,-0.159916 -0.535372,-0.410219 -0.208586,-0.257257 -0.305927,-0.584042 -0.09734,-0.326786 -0.09734,-0.660524 0,-0.271163 0.07648,-0.653571 0.08343,-0.389361 0.278115,-0.785676 -0.26421,0.16687 -0.590995,0.26421 -0.319833,0.09734 -0.590995,0.173822 -0.118199,0.03476 -0.264209,0.06258 -0.146011,0.02086 -0.292021,0.04172 -0.139058,0.02086 -0.271163,0.04172 -0.125152,0.02086 -0.215539,0.03477 -0.139058,0.02781 -0.194681,0.111246 -0.04867,0.07648 -0.07648,0.201634 -0.02781,0.118199 -0.08344,0.312879 -0.05562,0.194681 -0.111246,0.403267 -0.06258,0.222492 -0.132105,0.45889 -0.06953,0.236398 -0.125152,0.451938 -0.04867,0.208586 -0.09039,0.389361 -0.03476,0.173822 -0.03476,0.271162 0,0.09039 -0.07648,0.194681 -0.06953,0.104293 -0.166869,0.194681 -0.09039,0.09734 -0.187728,0.159916 -0.09039,0.06258 -0.139058,0.06258 -0.104293,0 -0.201633,-0.06953 -0.09039,-0.06953 -0.159917,-0.159916 -0.06953,-0.09039 -0.111246,-0.180775 -0.04172,-0.09734 -0.04172,-0.146011 0,-0.06258 0.04867,-0.222492 0.05562,-0.159916 0.111246,-0.326785 0.03477,-0.104293 0.09039,-0.285068 0.05562,-0.180775 0.111246,-0.396315 0.06258,-0.222492 0.118199,-0.45889 0.06258,-0.236398 0.111246,-0.444984 0.04867,-0.208586 0.07648,-0.36155 0.02781,-0.159916 0.02781,-0.229445 z m 8.378222,-1.571351 q 0,-0.695288 -0.403267,-1.084649 -0.396315,-0.396315 -1.140273,-0.396315 -0.104293,0 -0.257257,0.08343 -0.152963,0.08344 -0.333738,0.215539 -0.173822,0.125152 -0.354597,0.278115 -0.173822,0.152964 -0.333738,0.298974 -0.152963,0.146011 -0.26421,0.26421 -0.111246,0.118199 -0.152963,0.166869 -0.14601,0.173822 -0.305927,0.479749 -0.152963,0.298974 -0.285068,0.646618 -0.132105,0.347644 -0.222492,0.702241 -0.08343,0.347644 -0.08343,0.611853 0,0.159916 0.04172,0.326786 0.04867,0.166869 0.139057,0.305926 0.09734,0.132105 0.243351,0.222493 0.146011,0.08343 0.340691,0.08343 0.21554,0 0.549278,-0.125152 0.333738,-0.125152 0.702241,-0.347644 0.375455,-0.222492 0.750911,-0.528419 0.382409,-0.305927 0.681382,-0.660523 0.305927,-0.354597 0.493655,-0.743959 0.194681,-0.396314 0.194681,-0.799581 z"
     id="path1010" /></g><g
   aria-label="з"
   transform="scale(1.3773385,0.72603794)"
   id="text16794"
   style="font-size:16.3999px;line-height:1.25;font-family:'Segoe Script';-inkscape-font-specification:'Segoe Script';fill:#e0e0e0;stroke-width:0.409994"><path
     d="m 0.83710645,34.636166 q 0.0800776,0 0.12812422,0.05605 0.0560543,0.05605 0.0880854,0.136132 0.032031,0.08808 0.040039,0.192186 0.016015,0.104101 0.016015,0.200194 0,0.184179 0.064062,0.400389 0.07207,0.216209 0.2242174,0.400388 0.1601553,0.184178 0.408396,0.304295 0.2482407,0.128124 0.60859,0.128124 0.4884736,0 1.0089783,-0.256248 0.5205046,-0.256249 0.9529239,-0.712691 0.4324192,-0.456443 0.7046832,-1.089056 0.2802717,-0.624606 0.2802717,-1.369328 0,-0.688668 -0.1441397,-1.169134 Q 5.0732135,31.377006 4.8409884,31.080718 4.616771,30.776423 4.3204837,30.640291 4.0241965,30.504159 3.7279092,30.504159 q -0.1121087,0 -0.2482407,0.05605 -0.136132,0.04805 -0.2802717,0.128124 -0.136132,0.07207 -0.2802717,0.160155 -0.136132,0.08809 -0.2482407,0.160156 -0.1921864,0.128124 -0.3683572,0.216209 -0.168163,0.08809 -0.4484347,0.08809 -0.2162097,0 -0.3763649,-0.160156 Q 1.32558,30.984625 1.32558,30.712361 q 0,-0.208202 0.1441398,-0.352341 0.1521475,-0.14414 0.4644503,-0.272264 0.6646444,-0.272264 1.1851491,-0.552536 0.5285124,-0.28828 0.8888617,-0.616598 0.3603494,-0.336326 0.5525358,-0.736714 0.1921863,-0.400388 0.1921863,-0.912885 0,-0.200194 -0.064062,-0.392381 -0.056054,-0.200194 -0.1761708,-0.352341 -0.1201165,-0.160156 -0.2962873,-0.256249 -0.168163,-0.104101 -0.3923804,-0.104101 -0.4804659,0 -0.9128851,0.296288 -0.4324193,0.296287 -0.848823,0.728706 -0.1841785,0.192186 -0.304295,0.280272 -0.1201165,0.08008 -0.2562484,0.08008 -0.1121087,0 -0.2001941,-0.05606 -0.080078,-0.06406 -0.136132,-0.14414 -0.048047,-0.08808 -0.080078,-0.184178 -0.024023,-0.104101 -0.024023,-0.176171 0,-0.192186 0.104101,-0.360349 0.1121087,-0.176171 0.2962872,-0.328319 0.4003882,-0.336326 0.7847609,-0.552535 0.3843727,-0.21621 0.6326133,-0.320311 0.2802718,-0.112109 0.576559,-0.21621 0.3042951,-0.1041 0.5685513,-0.1041 0.3763649,0 0.7206987,0.136132 0.3443339,0.128124 0.6005823,0.384372 0.2642562,0.248241 0.4164037,0.616598 0.1601553,0.368357 0.1601553,0.832807 0,0.672653 -0.3283183,1.337297 -0.3203106,0.664644 -1.0970637,1.28925 0.5365202,0.02402 0.9369084,0.272264 0.4003882,0.248241 0.6646444,0.656637 0.272264,0.408396 0.4003882,0.944916 0.136132,0.528512 0.136132,1.121087 0,0.592574 -0.1601553,1.177141 -0.1601553,0.584567 -0.4564425,1.121087 -0.2882795,0.53652 -0.6966755,0.992963 -0.4003882,0.456442 -0.8888618,0.792768 -0.4804658,0.336326 -1.0330015,0.528513 -0.544528,0.192186 -1.121087,0.192186 -0.5525357,0 -0.9609316,-0.184179 Q 0.90917632,37.142596 0.63691235,36.870332 0.37265614,36.598068 0.23652416,36.285765 0.10039217,35.973462 0.10039217,35.709206 q 0,-0.200194 0.0720699,-0.432419 0.0800776,-0.232225 0.1761708,-0.368357 0.0640621,-0.08809 0.18417857,-0.184179 0.12011646,-0.08808 0.30429503,-0.08808 z"
     id="path1031" /></g><g
   aria-label="в"
   transform="scale(1.3926245,0.71806865)"
   id="text19318"
   style="font-size:17.078px;line-height:1.25;font-family:'Segoe Script';-inkscape-font-specification:'Segoe Script';fill:#e0e0e0;stroke-width:0.426944"
   inkscape:transform-center-x="-4.2524983"
   inkscape:transform-center-y="0.70873208"><path
     d="m 34.387972,26.533385 q 0,-0.100066 -0.04169,-0.200133 -0.03336,-0.108405 -0.108406,-0.191794 -0.06671,-0.09173 -0.183455,-0.150099 -0.108405,-0.05837 -0.258505,-0.05837 -0.29186,0 -0.608737,0.208471 -0.308538,0.208472 -0.625415,0.575382 -0.308538,0.358571 -0.600398,0.858903 -0.291861,0.491994 -0.542027,1.067375 -0.250166,0.575382 -0.450299,1.209136 -0.191793,0.625415 -0.308538,1.259169 0.07505,-0.05003 0.22515,-0.158439 0.150099,-0.116744 0.333554,-0.258504 0.191794,-0.1501 0.400266,-0.316877 0.216811,-0.175117 0.408605,-0.341894 0.200132,-0.166777 0.36691,-0.316877 0.166777,-0.150099 0.266843,-0.258505 0.925615,-1.000664 1.32588,-1.734484 0.400266,-0.73382 0.400266,-1.192458 z m -0.258505,8.989298 q -0.258505,0.383588 -0.625415,0.750498 -0.358571,0.358572 -0.792192,0.633754 -0.433621,0.275183 -0.925615,0.433621 -0.483654,0.158439 -0.983986,0.116745 -0.350232,-0.02502 -0.667109,-0.22515 -0.316877,-0.208472 -0.558704,-0.583721 -0.241827,-0.383587 -0.383588,-0.933953 -0.141761,-0.550365 -0.141761,-1.267507 0,-0.458638 0.05003,-0.992325 0.05003,-0.542027 0.133422,-1.092392 0.08339,-0.550365 0.183455,-1.075714 0.108406,-0.525348 0.208472,-0.967308 0.133422,-0.600399 0.350232,-1.184119 0.216811,-0.59206 0.483655,-1.134086 0.266843,-0.550366 0.575381,-1.03402 0.308538,-0.483654 0.633754,-0.875581 0.450299,-0.525348 1.025681,-0.842225 0.583721,-0.316877 1.367574,-0.316877 0.325216,0 0.59206,0.133422 0.266843,0.133421 0.458637,0.350232 0.191794,0.208472 0.291861,0.475315 0.108405,0.266844 0.108405,0.525349 0,0.358571 -0.1501,0.800531 -0.14176,0.433621 -0.416943,0.908937 -0.275183,0.475315 -0.667109,0.958969 -0.391927,0.483655 -0.892259,0.933953 0.116744,0.0083 0.266844,0.0417 0.158438,0.02502 0.325215,0.100066 0.175117,0.07505 0.350233,0.200133 0.183455,0.125083 0.350232,0.316877 0.07505,0.09173 0.166778,0.250166 0.09173,0.150099 0.166777,0.375249 0.08339,0.21681 0.133422,0.500332 0.05837,0.283521 0.05837,0.625415 0,0.667109 -0.241827,1.442624 -0.233489,0.767176 -0.833887,1.651095 z m -0.233488,-3.068702 q 0,-0.458638 -0.133422,-0.767176 -0.133422,-0.316877 -0.316877,-0.500332 -0.183455,-0.191794 -0.375249,-0.266844 -0.191794,-0.08339 -0.308538,-0.08339 -0.108405,0 -0.341894,0.166778 -0.233488,0.166777 -0.500332,0.36691 -0.200132,0.175116 -0.400265,0.325216 -0.200133,0.150099 -0.375249,0.29186 -0.166778,0.141761 -0.308538,0.283521 -0.141761,0.141761 -0.233489,0.3002 -0.233488,0.425282 -0.275182,0.967308 -0.0417,0.542027 -0.0417,1.109069 0,0.375249 0.07505,0.675449 0.08339,0.29186 0.200133,0.500332 0.125083,0.208471 0.266844,0.325215 0.14176,0.108406 0.258505,0.108406 0.283521,0 0.642092,-0.116744 0.358572,-0.116745 0.733821,-0.458638 0.325215,-0.300199 0.58372,-0.675448 0.266844,-0.375249 0.450299,-0.792193 0.191794,-0.416943 0.29186,-0.867242 0.108406,-0.450299 0.108406,-0.892258 z"
     id="path989" /></g><text
   xml:space="preserve"
   style="font-size:7.17644px;line-height:1.25;font-family:'Segoe Script';-inkscape-font-specification:'Segoe Script';fill:#16272a;fill-opacity:0.799714;stroke-width:0.17941"
   x="7.8276672"
   y="30.367035"
   id="text17884"
   transform="scale(1.3070051,0.76510793)"><tspan
     sodipodi:role="line"
     id="tspan17882"
     x="7.8276672"
     y="30.367035"
     style="stroke-width:0.17941">_</tspan></text><text
   xml:space="preserve"
   style="font-size:7.30989px;line-height:1.25;font-family:'Segoe Script';-inkscape-font-specification:'Segoe Script';fill:#16272a;fill-opacity:0.799714;stroke-width:0.182746"
   x="26.584021"
   y="30.857821"
   id="text17884-6"
   transform="scale(1.3313025,0.75114411)"><tspan
     sodipodi:role="line"
     id="tspan17882-2"
     x="26.584021"
     y="30.857821"
     style="stroke-width:0.182746">_</tspan></text><text
   xml:space="preserve"
   style="font-size:6.42158px;line-height:1.25;font-family:'Segoe Script';-inkscape-font-specification:'Segoe Script';fill:#16272a;fill-opacity:0.799714;stroke-width:0.160539"
   x="-30.009192"
   y="31.9126"
   id="text17884-0"
   transform="matrix(-0.01828321,-1.3685172,0.72999053,-0.0544444,0,0)"><tspan
     sodipodi:role="line"
     id="tspan17882-4"
     x="-30.009192"
     y="31.9126"
     style="stroke-width:0.160539">_</tspan></text><text
   xml:space="preserve"
   style="font-size:7.24696px;line-height:1.25;font-family:'Segoe Script';-inkscape-font-specification:'Segoe Script';fill:#16272a;fill-opacity:0.799714;stroke-width:0.181174"
   x="-10.348597"
   y="32.675579"
   id="text17884-9"
   transform="matrix(5.1107057e-4,-1.337621,0.74759535,0.00145252,0,0)"><tspan
     sodipodi:role="line"
     id="tspan17882-7"
     x="-10.348597"
     y="32.675579"
     style="stroke-width:0.181174">_</tspan></text></svg>
