<?xml version="1.0" encoding="UTF-8" standalone="no"?>
<!-- Generator: Adobe Illustrator 22.0.1, SVG Export Plug-In . SVG Version: 6.00 Build 0)  -->

<svg
   version="1.1"
   id="Layer_1"
   x="0px"
   y="0px"
   viewBox="0 0 50 50"
   xml:space="preserve"
   sodipodi:docname="eastWind.svg"
   width="50"
   height="50"
   inkscape:version="1.1.1 (3bf5ae0d25, 2021-09-20)"
   xmlns:inkscape="http://www.inkscape.org/namespaces/inkscape"
   xmlns:sodipodi="http://sodipodi.sourceforge.net/DTD/sodipodi-0.dtd"
   xmlns="http://www.w3.org/2000/svg"
   xmlns:svg="http://www.w3.org/2000/svg"><defs
   id="defs7" /><sodipodi:namedview
   id="namedview5"
   pagecolor="#ffffff"
   bordercolor="#666666"
   borderopacity="1.0"
   inkscape:pageshadow="2"
   inkscape:pageopacity="0.0"
   inkscape:pagecheckerboard="0"
   showgrid="false"
   inkscape:zoom="12.255556"
   inkscape:cx="11.504986"
   inkscape:cy="15.707162"
   inkscape:window-width="2400"
   inkscape:window-height="1321"
   inkscape:window-x="2391"
   inkscape:window-y="-9"
   inkscape:window-maximized="1"
   inkscape:current-layer="Layer_1"
   width="140px" />
<path
   d="m 23.044911,9.8933079 c 2.668533,-0.322021 5.219758,0.04539 7.639047,1.0907401 2.419287,1.045361 4.423354,2.617493 6.012204,4.716397 1.588852,2.098901 2.53377,4.474117 2.847847,7.124073 0.23518,1.9842 0.06863,3.937438 -0.488081,5.845074 -0.556728,1.907631 -1.432175,3.58892 -2.584012,5.065223 -1.151851,1.476303 -2.59779,2.710054 -4.337852,3.701233 -1.740066,0.99118 -3.590394,1.611691 -5.604883,1.854791 -1.988316,0.239942 -3.944564,0.07878 -5.854118,-0.471976 -1.909543,-0.550763 -3.604594,-1.418704 -5.06742,-2.566244 -1.462822,-1.147533 -2.694962,-2.587736 -3.68181,-4.3091 -0.986838,-1.721369 -1.60361,-3.566836 -1.840329,-5.56409 -0.2367292,-1.997259 -0.07173,-3.963548 0.484995,-5.871185 0.556728,-1.907635 1.430623,-3.60197 2.582458,-5.078282 1.151842,-1.476306 2.599335,-2.696995 4.311691,-3.698069 1.712355,-1.001085 3.578863,-1.597068 5.580263,-1.8385851 z m 0.383704,3.2373861 c -3.100208,0.374119 -5.661844,1.821943 -7.683364,4.356525 -1.995354,2.531425 -2.801602,5.356301 -2.428731,8.502304 0.244455,2.062527 0.982056,3.919894 2.222779,5.544422 1.240727,1.624527 2.79441,2.867022 4.682583,3.68518 1.888167,0.818162 3.859885,1.109852 5.926698,0.860445 2.066798,-0.249416 3.927825,-1.003629 5.571542,-2.24799 1.643713,-1.244366 2.877836,-2.81005 3.702367,-4.697043 0.824533,-1.886992 1.108802,-3.85443 0.864344,-5.916961 -0.244456,-2.062525 -0.982054,-3.919892 -2.222778,-5.544423 -1.240728,-1.624519 -2.807497,-2.865443 -4.697214,-3.696654 -1.889718,-0.831213 -3.871421,-1.095217 -5.938226,-0.845805 z m -6.895836,7.306841 17.729448,2.82575 c 0.132357,-0.0027 0.205498,0.05464 0.219414,0.172145 0.01389,0.1175 -0.04376,0.19065 -0.172996,0.219493 l -16.5706,6.951651 c -0.137704,0.0696 -0.243902,0.06918 -0.330123,0.01344 -0.0862,-0.05581 -0.0986,-0.160229 -0.03713,-0.313299 l 1.163666,-4.734932 c 0.03685,-0.136856 0.02138,-0.267396 -0.04486,-0.378565 l -2.242061,-4.363674 c -0.09394,-0.121066 -0.104776,-0.212443 -0.03249,-0.274133 0.0723,-0.06168 0.183837,-0.128111 0.317742,-0.11779 z"
   id="path2"
   style="fill:#2c4f54;fill-opacity:0.5;stroke:#bccdc6;stroke-width:1;stroke-miterlimit:4;stroke-dasharray:none;stroke-opacity:0.9" />
<path
   style="fill:#2c4f53;fill-opacity:0.499285;stroke:#e4e7e7;stroke-width:0.081137;stroke-miterlimit:4;stroke-dasharray:none;stroke-opacity:0.9"
   d="m 13.782134,24.753777 c -0.006,-0.560946 0.02944,-1.182218 0.0979,-1.721415 0.38497,-3.031893 2.326344,-6.041875 5.01425,-7.77429 1.446853,-0.932525 2.765492,-1.392434 4.571041,-1.59427 1.853236,-0.207234 3.299424,-0.04098 4.961041,0.570021 1.119935,0.411841 2.03018,0.918407 3.017804,1.679466 1.959997,1.510368 3.271247,3.393067 3.993108,5.733303 0.150334,0.487362 0.187654,0.692605 0.32324,1.777596 0.164541,1.316981 0.173215,1.692814 0.06165,2.675317 -0.16853,1.483873 -0.757408,3.173038 -1.57362,4.513798 -0.332927,0.546893 -1.163679,1.584421 -1.6342,2.04095 -1.13873,1.104887 -2.45994,1.954359 -3.81391,2.452147 -0.998448,0.367089 -1.359231,0.448726 -2.598523,0.588007 -0.874244,0.09822 -1.24658,0.122041 -1.633706,0.104282 -2.351058,-0.10768 -4.61616,-0.959447 -6.472661,-2.433965 -1.901343,-1.51014 -3.270945,-3.560403 -3.907917,-5.850085 -0.146831,-0.527822 -0.400158,-2.252571 -0.405508,-2.760871 z m 3.890632,-1.684601 c 0.609981,1.182205 1.125866,2.193665 1.146411,2.247687 0.02537,0.06666 -0.149378,0.882054 -0.544112,2.539042 -0.334712,1.405053 -0.566936,2.47268 -0.547236,2.515898 0.04084,0.08957 0.211803,0.120138 0.371109,0.06636 0.06326,-0.02135 3.6868,-1.518768 8.052351,-3.327598 7.649952,-3.169686 7.938345,-3.293106 7.9644,-3.408364 0.02011,-0.0891 0.009,-0.133669 -0.04379,-0.174775 -0.08727,-0.06804 -17.060512,-2.946852 -17.24911,-2.92563 -0.170403,0.01917 -0.329258,0.155872 -0.289032,0.248735 0.01653,0.03804 0.529031,1.036431 1.139014,2.218638 z"
   id="path861" /><rect
   style="fill:#c7485e;fill-opacity:1;stroke:#3c4343;stroke-width:0.382115;stroke-opacity:0.9"
   id="rect2803"
   width="4.8866167"
   height="0.042215388"
   x="27.511072"
   y="-21.554035"
   transform="matrix(0.15110913,0.98851709,-0.97304015,0.23063579,0,0)"
   inkscape:transform-center-x="2.445625"
   inkscape:transform-center-y="-2.1147453" /><path
   style="fill:#cc4f66;fill-opacity:1;stroke:#e27364;stroke-width:0.0353566;stroke-opacity:0.9"
   d="m 25.673524,22.378931 c 0.09042,0.01324 2.041982,0.277103 4.336784,0.586263 2.294796,0.30916 4.227769,0.580881 4.295483,0.603816 0.106567,0.03611 -7.695603,3.090754 -7.975637,3.122578 -0.0765,0.0086 -0.199837,-0.567867 -0.462667,-2.162475 -0.335131,-2.03326 -0.347679,-2.172774 -0.193984,-2.150179 z"
   id="path3397"
   inkscape:transform-center-x="-1.0063939"
   inkscape:transform-center-y="-1.9432383" /><text
   xml:space="preserve"
   style="font-size:17.7699px;line-height:1.25;font-family:'Segoe Script';-inkscape-font-specification:'Segoe Script';fill:#e0e0e0;fill-opacity:1;stroke-width:0.444246"
   x="19.545061"
   y="9.2413988"
   id="text9344"
   transform="scale(1.0219254,0.97854503)"><tspan
     sodipodi:role="line"
     id="tspan9342"
     x="19.545061"
     y="9.2413988"
     style="fill:#e0e0e0;fill-opacity:1;stroke-width:0.444246">c</tspan></text><text
   xml:space="preserve"
   style="font-size:14.2395px;line-height:1.25;font-family:'Segoe Script';-inkscape-font-specification:'Segoe Script';fill:#e0e0e0;fill-opacity:1;stroke-width:0.355984"
   x="20.571001"
   y="43.080433"
   id="text11307"
   transform="scale(0.88842035,1.1255933)"><tspan
     sodipodi:role="line"
     id="tspan11305"
     x="20.571001"
     y="43.080433"
     style="fill:#e0e0e0;fill-opacity:1;stroke-width:0.355984">ю</tspan></text><text
   xml:space="preserve"
   style="font-size:16.3999px;line-height:1.25;font-family:'Segoe Script';-inkscape-font-specification:'Segoe Script';fill:#e0e0e0;fill-opacity:1;stroke-width:0.409994"
   x="-0.34003484"
   y="33.995544"
   id="text16794"
   transform="scale(1.3773385,0.72603794)"><tspan
     sodipodi:role="line"
     id="tspan16792"
     x="-0.34003484"
     y="33.995544"
     style="fill:#e0e0e0;fill-opacity:1;stroke-width:0.409994">з</tspan></text><text
   xml:space="preserve"
   style="font-size:17.078px;line-height:1.25;font-family:'Segoe Script';-inkscape-font-specification:'Segoe Script';fill:#e0e0e0;fill-opacity:1;stroke-width:0.426944"
   x="27.917011"
   y="37.248829"
   id="text19318"
   transform="scale(1.3926245,0.71806865)"
   inkscape:transform-center-x="-4.2524983"
   inkscape:transform-center-y="0.70873208"><tspan
     sodipodi:role="line"
     id="tspan19316"
     x="27.917011"
     y="37.248829"
     style="fill:#e0e0e0;fill-opacity:1;stroke-width:0.426944">в</tspan></text><text
   xml:space="preserve"
   style="font-size:7.17644px;line-height:1.25;font-family:'Segoe Script';-inkscape-font-specification:'Segoe Script';fill:#16272a;fill-opacity:0.799714;stroke-width:0.17941"
   x="7.8276672"
   y="30.367035"
   id="text17884"
   transform="scale(1.3070051,0.76510793)"><tspan
     sodipodi:role="line"
     id="tspan17882"
     x="7.8276672"
     y="30.367035"
     style="stroke-width:0.17941">_</tspan></text><text
   xml:space="preserve"
   style="font-size:7.30989px;line-height:1.25;font-family:'Segoe Script';-inkscape-font-specification:'Segoe Script';fill:#16272a;fill-opacity:0.799714;stroke-width:0.182746"
   x="26.584021"
   y="30.857821"
   id="text17884-6"
   transform="scale(1.3313025,0.75114411)"><tspan
     sodipodi:role="line"
     id="tspan17882-2"
     x="26.584021"
     y="30.857821"
     style="stroke-width:0.182746">_</tspan></text><text
   xml:space="preserve"
   style="font-size:6.42158px;line-height:1.25;font-family:'Segoe Script';-inkscape-font-specification:'Segoe Script';fill:#16272a;fill-opacity:0.799714;stroke-width:0.160539"
   x="-30.009192"
   y="31.9126"
   id="text17884-0"
   transform="matrix(-0.01828321,-1.3685172,0.72999053,-0.0544444,0,0)"><tspan
     sodipodi:role="line"
     id="tspan17882-4"
     x="-30.009192"
     y="31.9126"
     style="stroke-width:0.160539">_</tspan></text><text
   xml:space="preserve"
   style="font-size:7.24696px;line-height:1.25;font-family:'Segoe Script';-inkscape-font-specification:'Segoe Script';fill:#16272a;fill-opacity:0.799714;stroke-width:0.181174"
   x="-10.348597"
   y="32.675579"
   id="text17884-9"
   transform="matrix(5.1107057e-4,-1.337621,0.74759535,0.00145252,0,0)"><tspan
     sodipodi:role="line"
     id="tspan17882-7"
     x="-10.348597"
     y="32.675579"
     style="stroke-width:0.181174">_</tspan></text></svg>
