<?xml version="1.0" encoding="UTF-8" standalone="no"?>
<!-- Generator: Adobe Illustrator 22.0.1, SVG Export Plug-In . SVG Version: 6.00 Build 0)  -->

<svg
   version="1.1"
   id="Layer_1"
   x="0px"
   y="0px"
   viewBox="0 0 50 50"
   xml:space="preserve"
   sodipodi:docname="northWind.svg"
   width="50"
   height="50"
   inkscape:version="1.1.1 (3bf5ae0d25, 2021-09-20)"
   xmlns:inkscape="http://www.inkscape.org/namespaces/inkscape"
   xmlns:sodipodi="http://sodipodi.sourceforge.net/DTD/sodipodi-0.dtd"
   xmlns="http://www.w3.org/2000/svg"
   xmlns:svg="http://www.w3.org/2000/svg"><defs
   id="defs7" /><sodipodi:namedview
   id="namedview5"
   pagecolor="#ffffff"
   bordercolor="#666666"
   borderopacity="1.0"
   inkscape:pageshadow="2"
   inkscape:pageopacity="0.0"
   inkscape:pagecheckerboard="0"
   showgrid="false"
   inkscape:zoom="10.158767"
   inkscape:cx="0.88593427"
   inkscape:cy="15.799161"
   inkscape:window-width="2400"
   inkscape:window-height="1321"
   inkscape:window-x="2391"
   inkscape:window-y="-9"
   inkscape:window-maximized="1"
   inkscape:current-layer="Layer_1"
   width="140px" />
<path
   d="m 9.9039428,24.665914 c 0.05428,-2.702078 0.7937792,-5.192468 2.2047872,-7.458186 1.411007,-2.265718 3.298968,-4.045416 5.663885,-5.339102 2.364926,-1.293686 4.918995,-1.9080227 7.662494,-1.85627 2.054243,0.03875 4.019431,0.473342 5.882293,1.290261 1.862857,0.816924 3.449576,1.920144 4.787971,3.270442 1.338396,1.350307 2.387662,2.960153 3.147798,4.829558 0.760135,1.869413 1.127023,3.797651 1.086062,5.837456 -0.04042,2.013312 -0.484697,3.939501 -1.319046,5.76558 -0.834336,1.826075 -1.960948,3.394884 -3.339024,4.693936 -1.378067,1.299054 -3.021128,2.328089 -4.915374,3.07414 -1.894248,0.746041 -3.861867,1.106432 -5.929629,1.067427 -2.067763,-0.03901 -4.046451,-0.473848 -5.909314,-1.290777 -1.862864,-0.816923 -3.463095,-1.920395 -4.80149,-3.270689 -1.338403,-1.350299 -2.374153,-2.959899 -3.148325,-4.803072 -0.774199,-1.843174 -1.1137802,-3.78415 -1.0730882,-5.810704 z m 3.3516672,0.06323 c -0.06303,3.139177 1.04445,5.889668 3.335968,8.251733 2.292037,2.335573 5.053213,3.527204 8.310274,3.588648 2.135332,0.04029 4.132385,-0.438811 5.964373,-1.451038 1.831999,-1.012229 3.319776,-2.38871 4.423354,-4.15671 1.10357,-1.767995 1.682992,-3.691635 1.725024,-5.784424 0.04202,-2.092781 -0.459483,-4.050061 -1.491237,-5.858346 -1.031761,-1.808277 -2.449393,-3.252825 -4.252877,-4.333637 -1.803484,-1.080812 -3.766267,-1.634606 -5.901606,-1.674889 -2.135333,-0.04028 -4.132379,0.438812 -5.964377,1.45104 -1.831979,1.012228 -3.320041,2.40196 -4.437121,4.169701 -1.11709,1.767744 -1.66975,3.705136 -1.711775,5.797922 z m 6.453141,7.873274 5.416723,-17.269207 c 0.01619,-0.132196 0.08503,-0.19715 0.206721,-0.194843 0.121628,0.0024 0.187875,0.0698 0.198738,0.202493 l 4.705836,17.460164 c 0.05115,0.146723 0.0355,0.252429 -0.03371,0.330626 -0.0692,0.07818 -0.177287,0.07615 -0.324363,-0.0061 L 25.223644,31.31517 c -0.134092,-0.05553 -0.269239,-0.05809 -0.391932,-0.0074 l -4.764749,1.632683 c -0.13674,0.07691 -0.231347,0.07513 -0.283815,-0.0054 -0.05248,-0.08049 -0.104121,-0.200718 -0.07439,-0.332664 z"
   id="path2"
   style="fill:#2c4f54;fill-opacity:0.5;stroke:#bbcdc6;stroke-width:1;stroke-miterlimit:4;stroke-dasharray:none;stroke-opacity:0.9" />
<path
   style="fill:#2c4f53;fill-opacity:0.499285;stroke:#e4e7e7;stroke-width:0.0824479;stroke-miterlimit:4;stroke-dasharray:none;stroke-opacity:0.9"
   d="m 23.672526,36.019863 c -0.566969,-0.07108 -1.189031,-0.19184 -1.723603,-0.334582 -3.005891,-0.802677 -5.771002,-3.164912 -7.14181,-6.101267 -0.737878,-1.580588 -1.016784,-2.967579 -0.966812,-4.807982 0.05124,-1.889022 0.422191,-3.318117 1.272329,-4.902439 0.573001,-1.067838 1.212152,-1.912151 2.119021,-2.799217 1.799738,-1.760431 3.884104,-2.81844 6.347447,-3.221923 0.512998,-0.08402 0.72538,-0.09331 1.839482,-0.08051 1.352289,0.01559 1.73283,0.05848 2.708754,0.305346 1.473944,0.372884 3.096018,1.195963 4.334522,2.19945 0.505181,0.409318 1.435604,1.385778 1.830262,1.920821 0.955126,1.294907 1.626842,2.737951 1.939008,4.16561 0.23021,1.052792 0.261908,1.426208 0.228359,2.689531 -0.02369,0.891182 -0.05194,1.268266 -0.124274,1.654489 -0.439007,2.345584 -1.616907,4.502736 -3.365921,6.164181 -1.791261,1.701588 -4.05295,2.795172 -6.453337,3.120365 -0.553342,0.07496 -2.329662,0.09254 -2.843427,0.02813 z m -1.153569,-4.137279 c 1.278863,-0.450118 2.372167,-0.829205 2.42958,-0.842415 0.07082,-0.01631 0.869234,0.271046 2.486115,0.894795 1.371039,0.528906 2.415935,0.9086 2.462314,0.894755 0.09613,-0.02872 0.151019,-0.196154 0.119125,-0.363469 -0.0127,-0.06642 -1.014844,-3.909876 -2.227078,-8.541006 -2.124235,-8.11534 -2.208275,-8.421815 -2.320943,-8.463795 -0.08708,-0.03243 -0.133646,-0.02739 -0.182545,0.01998 -0.08093,0.07828 -5.371139,16.723555 -5.376226,16.915813 -0.0044,0.173709 0.11106,0.351959 0.210432,0.324322 0.04069,-0.01138 1.120362,-0.388858 2.399226,-0.838975 z"
   id="path861" /><rect
   style="fill:#c7485e;fill-opacity:1;stroke:#3c4343;stroke-width:0.385055;stroke-opacity:0.9"
   id="rect2803"
   width="5.3171701"
   height="0.039397486"
   x="21.195801"
   y="25.081413"
   transform="matrix(0.99993376,-0.0115099,0.05036997,0.99873063,0,0)"
   inkscape:transform-center-x="2.7630397"
   inkscape:transform-center-y="1.9948401" /><path
   style="fill:#cb4d64;fill-opacity:1;stroke:#e27364;stroke-width:0.0396494;stroke-opacity:0.9"
   d="m 22.513735,24.254354 c 0.03182,-0.09015 0.692361,-2.03946 1.467741,-4.331828 0.775377,-2.292363 1.442043,-4.221239 1.481473,-4.28638 0.06202,-0.102524 2.343424,8.433924 2.3321,8.726242 -0.003,0.07985 -0.715419,0.101789 -2.671732,0.08235 -2.494462,-0.02479 -2.663773,-0.03715 -2.609582,-0.190364 z"
   id="path3397"
   inkscape:transform-center-x="2.8482128"
   inkscape:transform-center-y="-1.6133385" /><text
   xml:space="preserve"
   style="font-size:17.7699px;line-height:1.25;font-family:'Segoe Script';-inkscape-font-specification:'Segoe Script';fill:#e0e0e0;fill-opacity:1;stroke-width:0.444249"
   x="20.631212"
   y="9.3147364"
   id="text9344"
   transform="scale(1.0219254,0.978545)"><tspan
     sodipodi:role="line"
     id="tspan9342"
     x="20.631212"
     y="9.3147364"
     style="fill:#e0e0e0;fill-opacity:1;stroke-width:0.444249">c</tspan></text><text
   xml:space="preserve"
   style="font-size:14.2395px;line-height:1.25;font-family:'Segoe Script';-inkscape-font-specification:'Segoe Script';fill:#e0e0e0;fill-opacity:1;stroke-width:0.355984"
   x="23.474346"
   y="43.678215"
   id="text11307"
   transform="scale(0.88842153,1.1255918)"><tspan
     sodipodi:role="line"
     id="tspan11305"
     x="23.474346"
     y="43.678215"
     style="fill:#e0e0e0;fill-opacity:1;stroke-width:0.355984">ю</tspan></text><text
   xml:space="preserve"
   style="font-size:16.3999px;line-height:1.25;font-family:'Segoe Script';-inkscape-font-specification:'Segoe Script';fill:#e0e0e0;fill-opacity:1;stroke-width:0.409999"
   x="-0.18319771"
   y="36.543442"
   id="text16794"
   transform="scale(1.3773347,0.72603994)"><tspan
     sodipodi:role="line"
     id="tspan16792"
     x="-0.18319771"
     y="36.543442"
     style="fill:#e0e0e0;fill-opacity:1;stroke-width:0.409999">з</tspan></text><text
   xml:space="preserve"
   style="font-size:17.0779px;line-height:1.25;font-family:'Segoe Script';-inkscape-font-specification:'Segoe Script';fill:#e0e0e0;fill-opacity:1;stroke-width:0.426952"
   x="28.391434"
   y="38.446327"
   id="text19318"
   transform="scale(1.3926243,0.71806875)"><tspan
     sodipodi:role="line"
     id="tspan19316"
     x="28.391434"
     y="38.446327"
     style="fill:#e0e0e0;fill-opacity:1;stroke-width:0.426952">в</tspan></text><text
   xml:space="preserve"
   style="font-size:7.29227px;line-height:1.25;font-family:'Segoe Script';-inkscape-font-specification:'Segoe Script';fill:#16272a;fill-opacity:0.799714;stroke-width:0.182307"
   x="7.8874912"
   y="30.993086"
   id="text17884"
   transform="scale(1.3222995,0.75625833)"><tspan
     sodipodi:role="line"
     id="tspan17882"
     x="7.8874912"
     y="30.993086"
     style="stroke-width:0.182307">_</tspan></text><text
   xml:space="preserve"
   style="font-size:7.42784px;line-height:1.25;font-family:'Segoe Script';-inkscape-font-specification:'Segoe Script';fill:#16272a;fill-opacity:0.799714;stroke-width:0.185697"
   x="26.550293"
   y="31.381758"
   id="text17884-6"
   transform="scale(1.3468812,0.74245597)"><tspan
     sodipodi:role="line"
     id="tspan17882-2"
     x="26.550293"
     y="31.381758"
     style="stroke-width:0.185697">_</tspan></text><text
   xml:space="preserve"
   style="font-size:6.52525px;line-height:1.25;font-family:'Segoe Script';-inkscape-font-specification:'Segoe Script';fill:#16272a;fill-opacity:0.799714;stroke-width:0.163131"
   x="-30.566231"
   y="32.343685"
   id="text17884-0"
   transform="matrix(-0.01849714,-1.3526881,0.73853281,-0.05381464,0,0)"><tspan
     sodipodi:role="line"
     id="tspan17882-4"
     x="-30.566231"
     y="32.343685"
     style="stroke-width:0.163131">_</tspan></text><text
   xml:space="preserve"
   style="font-size:7.36392px;line-height:1.25;font-family:'Segoe Script';-inkscape-font-specification:'Segoe Script';fill:#16272a;fill-opacity:0.799714;stroke-width:0.184097"
   x="-10.593446"
   y="33.122791"
   id="text17884-9"
   transform="matrix(5.1705109e-4,-1.3221493,0.75634365,0.0014357,0,0)"><tspan
     sodipodi:role="line"
     id="tspan17882-7"
     x="-10.593446"
     y="33.122791"
     style="stroke-width:0.184097">_</tspan></text></svg>
