<?xml version="1.0" encoding="UTF-8" standalone="no"?>
<!-- Generator: Adobe Illustrator 22.0.1, SVG Export Plug-In . SVG Version: 6.00 Build 0)  -->

<svg
   version="1.1"
   id="Layer_1"
   x="0px"
   y="0px"
   viewBox="0 0 50 50"
   xml:space="preserve"
   sodipodi:docname="northWind.svg"
   width="50"
   height="50"
   inkscape:version="1.1.1 (3bf5ae0d25, 2021-09-20)"
   xmlns:inkscape="http://www.inkscape.org/namespaces/inkscape"
   xmlns:sodipodi="http://sodipodi.sourceforge.net/DTD/sodipodi-0.dtd"
   xmlns="http://www.w3.org/2000/svg"
   xmlns:svg="http://www.w3.org/2000/svg"><defs
   id="defs7" /><sodipodi:namedview
   id="namedview5"
   pagecolor="#ffffff"
   bordercolor="#666666"
   borderopacity="1.0"
   inkscape:pageshadow="2"
   inkscape:pageopacity="0.0"
   inkscape:pagecheckerboard="0"
   showgrid="false"
   inkscape:zoom="10.158767"
   inkscape:cx="0.88593429"
   inkscape:cy="15.799161"
   inkscape:window-width="2400"
   inkscape:window-height="1321"
   inkscape:window-x="2391"
   inkscape:window-y="-9"
   inkscape:window-maximized="1"
   inkscape:current-layer="Layer_1"
   width="140px" />
<path
   d="m 9.9039428,24.665914 c 0.05428,-2.702078 0.7937792,-5.192468 2.2047872,-7.458186 1.411007,-2.265718 3.298968,-4.045416 5.663885,-5.339102 2.364926,-1.293686 4.918995,-1.9080227 7.662494,-1.85627 2.054243,0.03875 4.019431,0.473342 5.882293,1.290261 1.862857,0.816924 3.449576,1.920144 4.787971,3.270442 1.338396,1.350307 2.387662,2.960153 3.147798,4.829558 0.760135,1.869413 1.127023,3.797651 1.086062,5.837456 -0.04042,2.013312 -0.484697,3.939501 -1.319046,5.76558 -0.834336,1.826075 -1.960948,3.394884 -3.339024,4.693936 -1.378067,1.299054 -3.021128,2.328089 -4.915374,3.07414 -1.894248,0.746041 -3.861867,1.106432 -5.929629,1.067427 -2.067763,-0.03901 -4.046451,-0.473848 -5.909314,-1.290777 -1.862864,-0.816923 -3.463095,-1.920395 -4.80149,-3.270689 -1.338403,-1.350299 -2.374153,-2.959899 -3.148325,-4.803072 -0.774199,-1.843174 -1.1137802,-3.78415 -1.0730882,-5.810704 z m 3.3516672,0.06323 c -0.06303,3.139177 1.04445,5.889668 3.335968,8.251733 2.292037,2.335573 5.053213,3.527204 8.310274,3.588648 2.135332,0.04029 4.132385,-0.438811 5.964373,-1.451038 1.831999,-1.012229 3.319776,-2.38871 4.423354,-4.15671 1.10357,-1.767995 1.682992,-3.691635 1.725024,-5.784424 0.04202,-2.092781 -0.459483,-4.050061 -1.491237,-5.858346 -1.031761,-1.808277 -2.449393,-3.252825 -4.252877,-4.333637 -1.803484,-1.080812 -3.766267,-1.634606 -5.901606,-1.674889 -2.135333,-0.04028 -4.132379,0.438812 -5.964377,1.45104 -1.831979,1.012228 -3.320041,2.40196 -4.437121,4.169701 -1.11709,1.767744 -1.66975,3.705136 -1.711775,5.797922 z m 6.453141,7.873274 5.416723,-17.269207 c 0.01619,-0.132196 0.08503,-0.19715 0.206721,-0.194843 0.121628,0.0024 0.187875,0.0698 0.198738,0.202493 l 4.705836,17.460164 c 0.05115,0.146723 0.0355,0.252429 -0.03371,0.330626 -0.0692,0.07818 -0.177287,0.07615 -0.324363,-0.0061 L 25.223644,31.31517 c -0.134092,-0.05553 -0.269239,-0.05809 -0.391932,-0.0074 l -4.764749,1.632683 c -0.13674,0.07691 -0.231347,0.07513 -0.283815,-0.0054 -0.05248,-0.08049 -0.104121,-0.200718 -0.07439,-0.332664 z"
   id="path2"
   style="fill:#2c4f54;fill-opacity:0.5;stroke:#bbcdc6;stroke-width:0.5;stroke-miterlimit:4;stroke-dasharray:none;stroke-opacity:0.9" />
<path
   style="fill:#2c4f53;fill-opacity:0.499285;stroke:#e4e7e7;stroke-width:0.0824479;stroke-miterlimit:4;stroke-dasharray:none;stroke-opacity:0.9"
   d="m 23.672526,36.019863 c -0.566969,-0.07108 -1.189031,-0.19184 -1.723603,-0.334582 -3.005891,-0.802677 -5.771002,-3.164912 -7.14181,-6.101267 -0.737878,-1.580588 -1.016784,-2.967579 -0.966812,-4.807982 0.05124,-1.889022 0.422191,-3.318117 1.272329,-4.902439 0.573001,-1.067838 1.212152,-1.912151 2.119021,-2.799217 1.799738,-1.760431 3.884104,-2.81844 6.347447,-3.221923 0.512998,-0.08402 0.72538,-0.09331 1.839482,-0.08051 1.352289,0.01559 1.73283,0.05848 2.708754,0.305346 1.473944,0.372884 3.096018,1.195963 4.334522,2.19945 0.505181,0.409318 1.435604,1.385778 1.830262,1.920821 0.955126,1.294907 1.626842,2.737951 1.939008,4.16561 0.23021,1.052792 0.261908,1.426208 0.228359,2.689531 -0.02369,0.891182 -0.05194,1.268266 -0.124274,1.654489 -0.439007,2.345584 -1.616907,4.502736 -3.365921,6.164181 -1.791261,1.701588 -4.05295,2.795172 -6.453337,3.120365 -0.553342,0.07496 -2.329662,0.09254 -2.843427,0.02813 z m -1.153569,-4.137279 c 1.278863,-0.450118 2.372167,-0.829205 2.42958,-0.842415 0.07082,-0.01631 0.869234,0.271046 2.486115,0.894795 1.371039,0.528906 2.415935,0.9086 2.462314,0.894755 0.09613,-0.02872 0.151019,-0.196154 0.119125,-0.363469 -0.0127,-0.06642 -1.014844,-3.909876 -2.227078,-8.541006 -2.124235,-8.11534 -2.208275,-8.421815 -2.320943,-8.463795 -0.08708,-0.03243 -0.133646,-0.02739 -0.182545,0.01998 -0.08093,0.07828 -5.371139,16.723555 -5.376226,16.915813 -0.0044,0.173709 0.11106,0.351959 0.210432,0.324322 0.04069,-0.01138 1.120362,-0.388858 2.399226,-0.838975 z"
   id="path861" /><rect
   style="fill:#c7485e;fill-opacity:1;stroke:#3c4343;stroke-width:0.385055;stroke-opacity:0.9"
   id="rect2803"
   width="5.3171701"
   height="0.039397486"
   x="21.195801"
   y="25.081413"
   transform="matrix(0.99993376,-0.0115099,0.05036997,0.99873063,0,0)"
   inkscape:transform-center-x="2.7630397"
   inkscape:transform-center-y="1.9948401" /><path
   style="fill:#cb4d64;fill-opacity:1;stroke:#e27364;stroke-width:0.0396494;stroke-opacity:0.9"
   d="m 22.513735,24.254354 c 0.03182,-0.09015 0.692361,-2.03946 1.467741,-4.331828 0.775377,-2.292363 1.442043,-4.221239 1.481473,-4.28638 0.06202,-0.102524 2.343424,8.433924 2.3321,8.726242 -0.003,0.07985 -0.715419,0.101789 -2.671732,0.08235 -2.494462,-0.02479 -2.663773,-0.03715 -2.609582,-0.190364 z"
   id="path3397"
   inkscape:transform-center-x="2.8482128"
   inkscape:transform-center-y="-1.6133385" /><g
   aria-label="c"
   transform="scale(1.0219254,0.978545)"
   id="text9344"
   style="font-size:17.7699px;line-height:1.25;font-family:'Segoe Script';-inkscape-font-specification:'Segoe Script';fill:#e0e0e0;stroke-width:0.444249"><path
     d="m 30.54869,5.722579 q 0,0.3123615 -0.225594,0.563986 -0.234271,0.2603013 -0.407805,0.4425122 -0.173535,0.1735342 -0.329715,0.3210382 -0.156181,0.147504 -0.329715,0.2863314 -0.173535,0.1301506 -0.407806,0.3036848 -0.65943,0.477219 -1.258122,0.8069339 -0.598693,0.3210382 -1.162679,0.5292792 -0.563986,0.1995643 -1.119296,0.2863314 -0.546632,0.086767 -1.101942,0.086767 -0.581339,0 -1.041205,-0.2169177 Q 22.704946,8.9069311 22.383907,8.5251559 22.071546,8.1433807 21.906688,7.6401316 21.741831,7.1282058 21.741831,6.5642197 v -0.043384 q 0,-0.5726628 0.147504,-1.2147392 Q 22.036839,4.6553438 22.29714,4.0045907 22.566118,3.3538375 22.939217,2.7291145 23.312315,2.0957147 23.763504,1.5490821 23.945715,1.3321644 24.19734,1.0892165 24.457641,0.83759199 24.743972,0.62935098 25.03898,0.42110997 25.351342,0.29095934 25.67238,0.152132 25.976065,0.152132 q 0.208241,0 0.399128,0.13015063 0.190888,0.12147393 0.355745,0.32103823 0.164858,0.1995643 0.303685,0.45118884 0.138828,0.2429478 0.234271,0.5032491 0.09544,0.2516246 0.147504,0.4858957 0.05206,0.2342711 0.05206,0.3991286 0,0.2516245 -0.156181,0.6507531 -0.156181,0.3991286 -0.373099,0.3991286 -0.312361,0 -0.520602,-0.4251587 Q 26.340487,2.9026487 26.27975,2.6857309 26.227689,2.4688132 26.149599,2.2605722 26.080185,2.0523312 25.958711,1.878797 25.837237,1.6965861 25.62032,1.6098191 25.403402,1.6618793 25.177808,1.8354135 24.96089,2.0089477 24.743972,2.2605722 24.535731,2.5121968 24.32749,2.833235 24.127926,3.1455965 23.945715,3.4839881 23.772181,3.7963496 23.607323,4.204155 q -0.164857,0.3991286 -0.295008,0.832964 -0.13015,0.4251587 -0.208241,0.8503174 -0.07809,0.4251588 -0.07809,0.7809038 0,0.2516246 0.121474,0.5119258 0.121474,0.2516246 0.312361,0.4598656 0.199565,0.208241 0.442512,0.3383916 0.251625,0.1301507 0.511926,0.1301507 1.284153,0 2.550953,-0.5292793 1.266799,-0.5292792 2.412125,-1.5357774 0.633399,-0.5553094 1.049881,-0.5553094 0.121474,0 0.121474,0.2342712 z"
     id="path1635" /></g><g
   aria-label="ю"
   transform="scale(0.88842153,1.1255918)"
   id="text11307"
   style="font-size:14.2395px;line-height:1.25;font-family:'Segoe Script';-inkscape-font-specification:'Segoe Script';fill:#e0e0e0;stroke-width:0.355984"><path
     d="m 25.337718,40.806675 q 0,-0.02781 -0.03476,-0.04867 -0.02781,-0.02781 -0.06953,-0.06953 -0.04172,-0.04172 -0.07648,-0.111246 -0.02781,-0.06953 -0.02781,-0.194681 0,-0.111246 0.06258,-0.201633 0.06258,-0.09039 0.132104,-0.166869 0.07648,-0.07648 0.139058,-0.139058 0.06953,-0.06258 0.08344,-0.118199 0.118199,-0.667476 0.201633,-1.258471 0.08343,-0.590995 0.104293,-0.987309 0.007,-0.118199 0,-0.243351 0,-0.125152 -0.007,-0.250304 -0.007,-0.09039 -0.01391,-0.173822 0,-0.08343 0,-0.159916 0,-0.08344 0.06258,-0.187728 0.06258,-0.104293 0.152963,-0.194681 0.09734,-0.09039 0.208587,-0.14601 0.118198,-0.06258 0.229445,-0.06258 0.09734,0 0.19468,0.05562 0.09734,0.04867 0.173822,0.146011 0.07648,0.09039 0.125152,0.229445 0.04867,0.132104 0.04867,0.298973 0,0.125152 -0.02086,0.305927 -0.02086,0.180775 -0.05562,0.396314 -0.03476,0.21554 -0.08343,0.451938 -0.04172,0.236398 -0.08344,0.472796 -0.05562,0.326785 -0.111246,0.625759 -0.04867,0.298974 -0.07648,0.514513 0.02781,0.06258 0.04867,0.111246 0.02781,0.04172 0.06953,0.06953 0.04172,0.02781 0.104293,0.04172 0.06953,0.01391 0.180775,0.01391 0.298974,0 0.632712,-0.06258 0.333738,-0.06258 0.632712,-0.159916 0.298974,-0.09734 0.535372,-0.201634 0.243351,-0.111246 0.36155,-0.208586 0.07648,-0.06258 0.166869,-0.166869 0.09734,-0.104293 0.194681,-0.222492 0.09734,-0.125152 0.187727,-0.243351 0.09734,-0.125152 0.166869,-0.21554 0.236398,-0.298973 0.535372,-0.584042 0.298974,-0.285068 0.660524,-0.500607 0.36155,-0.215539 0.778723,-0.347644 0.424125,-0.132105 0.91778,-0.132105 0.375455,0 0.737005,0.187728 0.36155,0.180775 0.639665,0.493655 0.285068,0.312879 0.451938,0.723099 0.173822,0.403267 0.173822,0.848252 0,0.444984 -0.09039,0.813487 -0.08343,0.361549 -0.271162,0.771769 -0.104293,0.21554 -0.36155,0.514514 -0.257257,0.298974 -0.618806,0.618806 -0.354597,0.319833 -0.778723,0.632712 -0.424126,0.31288 -0.862157,0.563184 -0.438032,0.250303 -0.862158,0.403267 -0.417172,0.152963 -0.757864,0.152963 -0.45889,0 -0.785675,-0.152963 -0.326785,-0.159917 -0.535372,-0.41022 -0.208586,-0.257257 -0.305927,-0.584042 -0.09734,-0.326786 -0.09734,-0.660524 0,-0.271162 0.07648,-0.653571 0.08343,-0.389361 0.278115,-0.785675 -0.26421,0.166869 -0.590995,0.264209 -0.319832,0.09734 -0.590995,0.173822 -0.118199,0.03477 -0.264209,0.06258 -0.146011,0.02086 -0.292021,0.04172 -0.139058,0.02086 -0.271163,0.04172 -0.125152,0.02086 -0.215539,0.03476 -0.139058,0.02781 -0.194681,0.111246 -0.04867,0.07648 -0.07648,0.201634 -0.02781,0.118199 -0.08344,0.312879 -0.05562,0.194681 -0.111246,0.403267 -0.06258,0.222493 -0.132105,0.458891 -0.06953,0.236397 -0.125152,0.451937 -0.04867,0.208586 -0.09039,0.389361 -0.03476,0.173822 -0.03476,0.271162 0,0.09039 -0.07648,0.194681 -0.06953,0.104293 -0.166869,0.194681 -0.09039,0.09734 -0.187728,0.159916 -0.09039,0.06258 -0.139058,0.06258 -0.104293,0 -0.201633,-0.06953 -0.09039,-0.06953 -0.159916,-0.159916 -0.06953,-0.09039 -0.111247,-0.180775 -0.04172,-0.09734 -0.04172,-0.14601 0,-0.06258 0.04867,-0.222493 0.05562,-0.159916 0.111246,-0.326785 0.03477,-0.104293 0.09039,-0.285068 0.05562,-0.180775 0.111246,-0.396314 0.06258,-0.222493 0.118199,-0.458891 0.06258,-0.236397 0.111246,-0.444984 0.04867,-0.208586 0.07648,-0.36155 0.02781,-0.159916 0.02781,-0.229445 z m 8.378222,-1.571351 q 0,-0.695288 -0.403267,-1.084649 -0.396315,-0.396314 -1.140273,-0.396314 -0.104293,0 -0.257256,0.08343 -0.152964,0.08344 -0.333739,0.215539 -0.173822,0.125152 -0.354597,0.278116 -0.173822,0.152963 -0.333738,0.298974 -0.152963,0.14601 -0.264209,0.264209 -0.111247,0.118199 -0.152964,0.166869 -0.14601,0.173822 -0.305927,0.479749 -0.152963,0.298974 -0.285068,0.646618 -0.132104,0.347644 -0.222492,0.702241 -0.08343,0.347644 -0.08343,0.611853 0,0.159917 0.04172,0.326786 0.04867,0.166869 0.139057,0.305926 0.09734,0.132105 0.243351,0.222493 0.146011,0.08343 0.340691,0.08343 0.21554,0 0.549278,-0.125152 0.333738,-0.125151 0.702241,-0.347644 0.375456,-0.222492 0.750911,-0.528419 0.382409,-0.305926 0.681382,-0.660523 0.305927,-0.354597 0.493655,-0.743959 0.194681,-0.396314 0.194681,-0.799581 z"
     id="path1677" /></g><g
   aria-label="з"
   transform="scale(1.3773347,0.72603994)"
   id="text16794"
   style="font-size:16.3999px;line-height:1.25;font-family:'Segoe Script';-inkscape-font-specification:'Segoe Script';fill:#e0e0e0;stroke-width:0.409999"><path
     d="m 0.99394358,37.184063 q 0.0800776,0 0.12812422,0.05605 0.056054,0.05606 0.088085,0.136132 0.032031,0.08809 0.040039,0.192187 0.016016,0.1041 0.016016,0.200194 0,0.184178 0.064062,0.400388 0.07207,0.216209 0.2242174,0.400388 0.1601552,0.184179 0.4083959,0.304295 0.2482407,0.128124 0.6085901,0.128124 0.4884736,0 1.0089782,-0.256248 0.5205047,-0.256249 0.9529239,-0.712691 0.4324193,-0.456443 0.7046832,-1.089056 0.2802718,-0.624606 0.2802718,-1.369328 0,-0.688667 -0.1441398,-1.169133 Q 5.2300507,33.924903 4.9978255,33.628616 4.7736081,33.324321 4.4773209,33.188189 4.1810336,33.052057 3.8847463,33.052057 q -0.1121086,0 -0.2482406,0.05605 -0.136132,0.04805 -0.2802718,0.128124 -0.136132,0.07207 -0.2802717,0.160156 -0.136132,0.08808 -0.2482407,0.160155 -0.1921863,0.128124 -0.3683571,0.216209 -0.1681631,0.08809 -0.4484348,0.08809 -0.2162096,0 -0.3763649,-0.160155 -0.1521475,-0.168163 -0.1521475,-0.440427 0,-0.208202 0.1441397,-0.352342 0.1521475,-0.14414 0.4644503,-0.272264 0.6646444,-0.272264 1.1851491,-0.552536 0.5285124,-0.288279 0.8888618,-0.616598 0.3603494,-0.336326 0.5525357,-0.736714 0.1921863,-0.400388 0.1921863,-0.912885 0,-0.200194 -0.064062,-0.39238 Q 4.7896237,29.224346 4.6695072,29.072198 4.5493907,28.912043 4.3732199,28.81595 4.2050569,28.711849 3.9808395,28.711849 q -0.4804658,0 -0.9128851,0.296287 -0.4324192,0.296287 -0.8488229,0.728706 -0.1841786,0.192187 -0.3042951,0.280272 -0.1201164,0.08008 -0.2562484,0.08008 -0.1121087,0 -0.2001941,-0.05606 -0.080078,-0.06406 -0.136132,-0.144139 -0.048047,-0.08809 -0.080078,-0.184179 -0.024023,-0.104101 -0.024023,-0.176171 0,-0.192186 0.1041009,-0.360349 0.1121087,-0.176171 0.2962873,-0.328318 0.4003882,-0.336326 0.7847608,-0.552536 0.3843727,-0.21621 0.6326134,-0.320311 0.2802717,-0.112108 0.576559,-0.216209 0.304295,-0.104101 0.5685512,-0.104101 0.3763649,0 0.7206988,0.136132 0.3443338,0.128124 0.6005823,0.384373 0.2642562,0.24824 0.4164037,0.616597 0.1601553,0.368357 0.1601553,0.832808 0,0.672652 -0.3283184,1.337296 -0.3203105,0.664645 -1.0970636,1.28925 0.5365202,0.02402 0.9369084,0.272264 0.4003881,0.248241 0.6646444,0.656637 0.2722639,0.408396 0.4003882,0.944916 0.1361319,0.528512 0.1361319,1.121087 0,0.592575 -0.1601552,1.177141 -0.1601553,0.584567 -0.4564426,1.121087 -0.2882795,0.53652 -0.6966754,0.992963 -0.4003882,0.456443 -0.8888618,0.792769 -0.4804659,0.336326 -1.0330016,0.528512 -0.5445279,0.192186 -1.1210869,0.192186 -0.5525357,0 -0.9609317,-0.184178 Q 1.0660135,39.690493 0.79374949,39.418229 0.52949328,39.145965 0.39336129,38.833662 0.25722931,38.521359 0.25722931,38.257103 q 0,-0.200194 0.0720699,-0.432419 0.0800776,-0.232225 0.17617081,-0.368357 0.0640621,-0.08809 0.18417857,-0.184179 0.12011645,-0.08808 0.30429502,-0.08808 z"
     id="path1656" /></g><g
   aria-label="в"
   transform="scale(1.3926243,0.71806875)"
   id="text19318"
   style="font-size:17.0779px;line-height:1.25;font-family:'Segoe Script';-inkscape-font-specification:'Segoe Script';fill:#e0e0e0;stroke-width:0.426952"><path
     d="m 34.862357,27.730946 q 0,-0.100066 -0.04169,-0.200132 -0.03336,-0.108405 -0.108405,-0.191793 -0.06671,-0.09173 -0.183454,-0.150099 -0.108405,-0.05837 -0.258503,-0.05837 -0.291859,0 -0.608734,0.20847 -0.308536,0.208471 -0.625411,0.575379 -0.308537,0.358569 -0.600395,0.858898 -0.291859,0.49199 -0.542024,1.067369 -0.250164,0.575378 -0.450296,1.209128 -0.191793,0.625412 -0.308536,1.259162 0.07505,-0.05003 0.225148,-0.158438 0.150099,-0.116743 0.333553,-0.258503 0.191793,-0.150099 0.400263,-0.316875 0.216809,-0.175115 0.408602,-0.341892 0.200132,-0.166776 0.366908,-0.316875 0.166777,-0.150098 0.266842,-0.258503 0.925609,-1.000658 1.325872,-1.734474 0.400264,-0.733816 0.400264,-1.192451 z m -0.258504,8.989246 q -0.258503,0.383585 -0.625411,0.750493 -0.358569,0.35857 -0.792188,0.633751 -0.433618,0.275181 -0.925609,0.433618 -0.483651,0.158438 -0.98398,0.116744 -0.350231,-0.02502 -0.667106,-0.225148 -0.316875,-0.208471 -0.5587,-0.583718 -0.241826,-0.383585 -0.383586,-0.933947 -0.14176,-0.550362 -0.14176,-1.267501 0,-0.458635 0.05003,-0.992319 0.05003,-0.542023 0.133421,-1.092385 0.08339,-0.550362 0.183454,-1.075708 0.108405,-0.525345 0.20847,-0.967303 0.133422,-0.600395 0.350231,-1.184112 0.216809,-0.592056 0.483651,-1.134079 0.266842,-0.550362 0.575379,-1.034014 0.308536,-0.483651 0.63375,-0.875576 0.450296,-0.525345 1.025675,-0.84222 0.583717,-0.316875 1.367566,-0.316875 0.325214,0 0.592056,0.133421 0.266842,0.133421 0.458635,0.35023 0.191793,0.20847 0.291859,0.475313 0.108404,0.266842 0.108404,0.525345 0,0.358569 -0.150099,0.800527 -0.141759,0.433618 -0.41694,0.908931 -0.275181,0.475313 -0.667106,0.958964 -0.391924,0.483652 -0.892253,0.933948 0.116743,0.0083 0.266842,0.04169 0.158437,0.02502 0.325214,0.100066 0.175115,0.07505 0.35023,0.200131 0.183454,0.125083 0.35023,0.316875 0.07505,0.09173 0.166777,0.250165 0.09173,0.150099 0.166776,0.375247 0.08339,0.216809 0.133421,0.500329 0.05837,0.28352 0.05837,0.625411 0,0.667106 -0.241826,1.442616 -0.233487,0.767171 -0.833882,1.651086 z m -0.233487,-3.068685 q 0,-0.458635 -0.133421,-0.767172 -0.133421,-0.316875 -0.316875,-0.500329 -0.183454,-0.191793 -0.375247,-0.266842 -0.191792,-0.08339 -0.308536,-0.08339 -0.108404,0 -0.341891,0.166776 -0.233487,0.166777 -0.500329,0.366908 -0.200132,0.175115 -0.400264,0.325214 -0.200131,0.150099 -0.375247,0.291859 -0.166776,0.14176 -0.308536,0.28352 -0.14176,0.14176 -0.233487,0.300197 -0.233487,0.42528 -0.275181,0.967303 -0.04169,0.542023 -0.04169,1.109063 0,0.375247 0.07505,0.675444 0.08339,0.291859 0.200132,0.500329 0.125082,0.208471 0.266842,0.325214 0.14176,0.108405 0.258504,0.108405 0.28352,0 0.642089,-0.116744 0.358569,-0.116743 0.733816,-0.458635 0.325214,-0.300197 0.583717,-0.675444 0.266842,-0.375247 0.450296,-0.792188 0.191793,-0.416941 0.291859,-0.867237 0.108404,-0.450296 0.108404,-0.892253 z"
     id="path1698" /></g><text
   xml:space="preserve"
   style="font-size:7.29227px;line-height:1.25;font-family:'Segoe Script';-inkscape-font-specification:'Segoe Script';fill:#16272a;fill-opacity:0.799714;stroke-width:0.182307"
   x="7.8874912"
   y="30.993086"
   id="text17884"
   transform="scale(1.3222995,0.75625833)"><tspan
     sodipodi:role="line"
     id="tspan17882"
     x="7.8874912"
     y="30.993086"
     style="stroke-width:0.182307">_</tspan></text><text
   xml:space="preserve"
   style="font-size:7.42784px;line-height:1.25;font-family:'Segoe Script';-inkscape-font-specification:'Segoe Script';fill:#16272a;fill-opacity:0.799714;stroke-width:0.185697"
   x="26.550293"
   y="31.381758"
   id="text17884-6"
   transform="scale(1.3468812,0.74245597)"><tspan
     sodipodi:role="line"
     id="tspan17882-2"
     x="26.550293"
     y="31.381758"
     style="stroke-width:0.185697">_</tspan></text><text
   xml:space="preserve"
   style="font-size:6.52525px;line-height:1.25;font-family:'Segoe Script';-inkscape-font-specification:'Segoe Script';fill:#16272a;fill-opacity:0.799714;stroke-width:0.163131"
   x="-30.566231"
   y="32.343685"
   id="text17884-0"
   transform="matrix(-0.01849714,-1.3526881,0.73853281,-0.05381464,0,0)"><tspan
     sodipodi:role="line"
     id="tspan17882-4"
     x="-30.566231"
     y="32.343685"
     style="stroke-width:0.163131">_</tspan></text><text
   xml:space="preserve"
   style="font-size:7.36392px;line-height:1.25;font-family:'Segoe Script';-inkscape-font-specification:'Segoe Script';fill:#16272a;fill-opacity:0.799714;stroke-width:0.184097"
   x="-10.593446"
   y="33.122791"
   id="text17884-9"
   transform="matrix(5.1705109e-4,-1.3221493,0.75634365,0.0014357,0,0)"><tspan
     sodipodi:role="line"
     id="tspan17882-7"
     x="-10.593446"
     y="33.122791"
     style="stroke-width:0.184097">_</tspan></text></svg>
