<?xml version="1.0" encoding="UTF-8" standalone="no"?>
<!-- Generator: Adobe Illustrator 22.0.1, SVG Export Plug-In . SVG Version: 6.00 Build 0)  -->

<svg
   version="1.1"
   id="Layer_1"
   x="0px"
   y="0px"
   viewBox="0 0 50 50"
   xml:space="preserve"
   sodipodi:docname="northwestWind.svg"
   width="50"
   height="50"
   inkscape:version="1.1.1 (3bf5ae0d25, 2021-09-20)"
   xmlns:inkscape="http://www.inkscape.org/namespaces/inkscape"
   xmlns:sodipodi="http://sodipodi.sourceforge.net/DTD/sodipodi-0.dtd"
   xmlns="http://www.w3.org/2000/svg"
   xmlns:svg="http://www.w3.org/2000/svg"><defs
   id="defs7" /><sodipodi:namedview
   id="namedview5"
   pagecolor="#ffffff"
   bordercolor="#666666"
   borderopacity="1.0"
   inkscape:pageshadow="2"
   inkscape:pageopacity="0.0"
   inkscape:pagecheckerboard="0"
   showgrid="false"
   inkscape:zoom="20.317534"
   inkscape:cx="22.837417"
   inkscape:cy="25.716704"
   inkscape:window-width="2400"
   inkscape:window-height="1321"
   inkscape:window-x="2391"
   inkscape:window-y="-9"
   inkscape:window-maximized="1"
   inkscape:current-layer="Layer_1"
   width="140px" />
<path
   d="m 15.473051,36.188843 c -2.013163,-1.824654 -3.428955,-4.014847 -4.246308,-6.551866 -0.817346,-2.537023 -0.962238,-5.104793 -0.434672,-7.703317 0.527565,-2.598525 1.690587,-4.887864 3.479193,-6.876972 1.339249,-1.489378 2.921694,-2.651635 4.728643,-3.485922 1.806949,-0.834278 3.654795,-1.275816 5.531536,-1.37104 1.876751,-0.09521 3.765833,0.194227 5.667256,0.868307 1.901429,0.674094 3.596685,1.677057 5.116435,3.054484 1.500007,1.359534 2.676477,2.959363 3.528352,4.780739 0.851876,1.821369 1.322423,3.68837 1.428183,5.56266 0.105766,1.874279 -0.162077,3.765652 -0.804536,5.655366 -0.642475,1.889716 -1.624005,3.578828 -2.972062,5.078003 -1.348065,1.499187 -2.939317,2.671237 -4.74627,3.505522 -1.806954,0.834277 -3.663598,1.285614 -5.540351,1.380845 -1.876746,0.09522 -3.757021,-0.204009 -5.647518,-0.85042 -1.890506,-0.646404 -3.578005,-1.677913 -5.087881,-3.046389 z M 17.658148,33.7588 c 2.338829,2.119804 5.129472,3.119655 8.380731,2.989763 3.231521,-0.147782 5.895255,-1.397074 8.018675,-3.758521 1.392115,-1.548173 2.302441,-3.337384 2.703492,-5.35699 0.401044,-2.019607 0.306566,-4.02594 -0.329622,-6.007512 -0.63618,-1.981568 -1.724542,-3.67938 -3.28376,-5.092589 -1.559218,-1.413194 -3.362325,-2.336064 -5.390628,-2.769468 -2.028299,-0.4334 -4.026996,-0.341997 -5.996075,0.274206 -1.969076,0.616206 -3.640332,1.697961 -5.032448,3.246137 -1.392118,1.548168 -2.302442,3.337384 -2.703494,5.356992 -0.401047,2.019601 -0.296695,4.034891 0.330684,6.026254 0.627376,1.991366 1.743225,3.678524 3.302445,5.091728 z m 10.081569,0.440938 -9.633493,-15.400455 c -0.08987,-0.09923 -0.09516,-0.192955 -0.01584,-0.281143 0.07932,-0.08817 0.172697,-0.09247 0.280184,-0.01284 l 16.232833,8.061354 c 0.143805,0.05917 0.213933,0.140545 0.229092,0.2432 0.01511,0.102658 -0.05535,0.181048 -0.211572,0.235071 l -4.340274,2.237331 c -0.127592,0.0622 -0.215693,0.160193 -0.255516,0.28416 l -1.800903,4.592255 c -0.02892,0.151648 -0.09058,0.220234 -0.184929,0.205857 -0.09446,-0.01449 -0.218514,-0.05578 -0.299584,-0.164815 z"
   id="path2"
   style="fill:#2c4f54;fill-opacity:0.5;stroke:#bbcdc6;stroke-width:0.5;stroke-miterlimit:4;stroke-dasharray:none;stroke-opacity:0.9" />
<path
   style="fill:#2c4f53;fill-opacity:0.499285;stroke:#e4e7e7;stroke-width:0.0816749;stroke-miterlimit:4;stroke-dasharray:none;stroke-opacity:0.9"
   d="m 32.717003,33.406563 c -0.418168,0.375522 -0.909138,0.759521 -1.360373,1.063979 -2.537296,1.711966 -6.092772,2.223033 -9.183211,1.32 -1.663522,-0.486091 -2.886194,-1.18705 -4.238362,-2.429868 -1.387925,-1.275603 -2.224239,-2.487946 -2.869082,-4.158706 -0.43462,-1.126102 -0.658569,-2.15502 -0.742457,-3.411254 -0.166486,-2.493071 0.378482,-4.737894 1.65953,-6.836074 0.266784,-0.436955 0.396412,-0.601161 1.12269,-1.422169 0.881581,-0.996534 1.15862,-1.251732 1.972078,-1.816554 1.228586,-0.85303 2.891088,-1.521423 4.442556,-1.786079 0.632841,-0.10795 1.965806,-0.160958 2.622116,-0.104257 1.588388,0.137207 3.105898,0.582452 4.380555,1.285294 0.939967,0.51828 1.241233,0.739296 2.169894,1.591854 0.655091,0.60144 0.920533,0.869515 1.164535,1.176347 1.481906,1.863377 2.34679,4.15339 2.471443,6.543857 0.127657,2.448212 -0.504596,4.848347 -1.804045,6.848379 -0.299544,0.461049 -1.428942,1.794963 -1.807859,2.13526 z m -3.854006,-1.851464 c 0.484053,-1.246929 0.90218,-2.309193 0.929179,-2.360587 0.03328,-0.06342 0.763006,-0.469561 2.272241,-1.26466 1.279756,-0.674216 2.237469,-1.20337 2.256896,-1.246972 0.04024,-0.09038 -0.05043,-0.24092 -0.196768,-0.326786 -0.0581,-0.03408 -3.593728,-1.805775 -7.856927,-3.937088 -7.470603,-3.734793 -7.755188,-3.872996 -7.859232,-3.816618 -0.0804,0.04358 -0.106562,0.08158 -0.102406,0.148977 0.0069,0.111509 9.124124,14.953933 9.265462,15.083658 0.1277,0.117224 0.336176,0.147885 0.379306,0.0558 0.01762,-0.03773 0.428188,-1.088802 0.912241,-2.33573 z"
   id="path861" /><rect
   style="fill:#c7485e;fill-opacity:1;stroke:#3c4343;stroke-width:0.403428;stroke-opacity:0.9"
   id="rect2803"
   width="4.4259882"
   height="0.051955421"
   x="-4.5291834"
   y="33.888657"
   transform="matrix(0.64873865,-0.76101127,0.75446227,0.65634341,0,0)"
   inkscape:transform-center-x="-0.408872"
   inkscape:transform-center-y="3.5133561" /><path
   style="fill:#cb4d64;fill-opacity:1;stroke:#e27364;stroke-width:0.0338644;stroke-opacity:0.9"
   d="m 22.378886,25.243541 c -0.04387,-0.07152 -1.008047,-1.600629 -2.142636,-3.398017 -1.13459,-1.797386 -2.081539,-3.318487 -2.10432,-3.380212 -0.03584,-0.09713 7.000305,3.4312 7.192601,3.606788 0.05253,0.04792 -0.319988,0.49679 -1.397143,1.683432 -1.37346,1.513066 -1.473957,1.60959 -1.548484,1.48802 z"
   id="path3397"
   inkscape:transform-center-x="1.8678331"
   inkscape:transform-center-y="1.4859598" /><g
   aria-label="c"
   transform="scale(1.0219264,0.97854405)"
   id="text9344"
   style="font-size:17.77px;line-height:1.25;font-family:'Segoe Script';-inkscape-font-specification:'Segoe Script';fill:#e0e0e0;stroke-width:0.444249"
   inkscape:transform-center-x="-77.540607"
   inkscape:transform-center-y="20.464038"><path
     d="m 29.347682,5.701119 q 0,0.3123633 -0.225596,0.5639893 -0.234273,0.2603027 -0.407808,0.4425146 -0.173535,0.1735352 -0.329717,0.3210401 -0.156181,0.1475049 -0.329716,0.286333 -0.173536,0.1301514 -0.407808,0.3036865 -0.659434,0.4772217 -1.25813,0.8069385 -0.598696,0.3210401 -1.162685,0.5292823 -0.56399,0.1995654 -1.119302,0.286333 -0.546636,0.086767 -1.101949,0.086767 -0.581342,0 -1.04121,-0.2169189 Q 21.503892,8.8854892 21.182852,8.5037118 20.870489,8.1219345 20.705631,7.6186825 20.540772,7.1067538 20.540772,6.5427645 v -0.043384 q 0,-0.572666 0.147505,-1.2147461 0.147505,-0.6507569 0.407808,-1.3015137 0.268979,-0.6507569 0.64208,-1.2754834 0.3731,-0.6334034 0.824292,-1.1800391 0.182212,-0.216919 0.433838,-0.4598682 0.260302,-0.25162599 0.546635,-0.45986818 0.29501,-0.20824219 0.607374,-0.33839356 0.32104,-0.13882813 0.624726,-0.13882813 0.208242,0 0.399131,0.13015137 0.190889,0.12147461 0.355747,0.32104005 0.164858,0.19956543 0.303687,0.45119145 0.138828,0.2429492 0.234272,0.5032519 0.09544,0.251626 0.147505,0.4858985 0.05206,0.2342724 0.05206,0.3991308 0,0.251626 -0.156182,0.6507569 -0.156182,0.3991309 -0.373101,0.3991309 -0.312363,0 -0.520605,-0.4251612 -0.07809,-0.1648584 -0.138828,-0.3817773 -0.05206,-0.216919 -0.130152,-0.4251612 -0.06941,-0.2082422 -0.190888,-0.3817773 -0.121475,-0.1822119 -0.338394,-0.2689795 -0.216919,0.052061 -0.442515,0.2255957 -0.216919,0.1735351 -0.433838,0.4251611 -0.208242,0.251626 -0.416484,0.5726661 -0.199565,0.3123633 -0.381777,0.6507568 -0.173535,0.3123633 -0.338394,0.7201709 -0.164858,0.3991309 -0.29501,0.8329688 -0.130151,0.4251611 -0.208242,0.8503223 -0.07809,0.4251611 -0.07809,0.7809082 0,0.251626 0.121475,0.5119287 0.121475,0.251626 0.312363,0.4598682 0.199566,0.2082422 0.442515,0.3383936 0.251626,0.1301513 0.511929,0.1301513 1.28416,0 2.550967,-0.5292822 1.266806,-0.5292822 2.412138,-1.5357862 0.633404,-0.5553125 1.049888,-0.5553125 0.121475,0 0.121475,0.2342725 z"
     id="path1388" /></g><g
   aria-label="ю"
   transform="scale(0.88842148,1.1255919)"
   id="text11307"
   style="font-size:14.2395px;line-height:1.25;font-family:'Segoe Script';-inkscape-font-specification:'Segoe Script';fill:#e0e0e0;stroke-width:0.355984"><path
     d="m 24.215305,40.972298 q 0,-0.02781 -0.03477,-0.04867 -0.02781,-0.02781 -0.06953,-0.06953 -0.04172,-0.04172 -0.07648,-0.111246 -0.02781,-0.06953 -0.02781,-0.194681 0,-0.111246 0.06258,-0.201633 0.06258,-0.09039 0.132105,-0.166869 0.07648,-0.07648 0.139057,-0.139058 0.06953,-0.06258 0.08344,-0.118199 0.118199,-0.667477 0.201634,-1.258472 0.08343,-0.590994 0.104293,-0.987309 0.007,-0.118199 0,-0.24335 0,-0.125152 -0.007,-0.250304 -0.007,-0.09039 -0.01391,-0.173822 0,-0.08343 0,-0.159916 0,-0.08344 0.06258,-0.187728 0.06258,-0.104293 0.152963,-0.194681 0.09734,-0.09039 0.208587,-0.14601 0.118199,-0.06258 0.229445,-0.06258 0.09734,0 0.194681,0.05562 0.09734,0.04867 0.173822,0.14601 0.07648,0.09039 0.125151,0.229445 0.04867,0.132105 0.04867,0.298974 0,0.125152 -0.02086,0.305927 -0.02086,0.180775 -0.05562,0.396314 -0.03476,0.215539 -0.08343,0.451937 -0.04172,0.236398 -0.08343,0.472796 -0.05562,0.326786 -0.111246,0.62576 -0.04867,0.298973 -0.07648,0.514513 0.02781,0.06258 0.04867,0.111246 0.02781,0.04172 0.06953,0.06953 0.04172,0.02781 0.104293,0.04172 0.06953,0.01391 0.180775,0.01391 0.298974,0 0.632712,-0.06258 0.333739,-0.06258 0.632712,-0.159916 0.298974,-0.09734 0.535372,-0.201634 0.243351,-0.111246 0.36155,-0.208586 0.07648,-0.06258 0.166869,-0.16687 0.09734,-0.104293 0.194681,-0.222492 0.09734,-0.125152 0.187728,-0.243351 0.09734,-0.125151 0.166869,-0.215539 0.236398,-0.298974 0.535372,-0.584042 0.298974,-0.285068 0.660523,-0.500607 0.36155,-0.21554 0.778723,-0.347644 0.424126,-0.132105 0.91778,-0.132105 0.375456,0 0.737006,0.187728 0.361549,0.180775 0.639665,0.493654 0.285068,0.31288 0.451937,0.7231 0.173822,0.403267 0.173822,0.848251 0,0.444985 -0.09039,0.813487 -0.08344,0.36155 -0.271163,0.77177 -0.104293,0.215539 -0.36155,0.514513 -0.257256,0.298974 -0.618806,0.618807 -0.354597,0.319832 -0.778723,0.632712 -0.424125,0.31288 -0.862157,0.563183 -0.438031,0.250304 -0.862157,0.403267 -0.417173,0.152964 -0.757864,0.152964 -0.45889,0 -0.785676,-0.152964 -0.326785,-0.159916 -0.535372,-0.41022 -0.208586,-0.257256 -0.305926,-0.584042 -0.09734,-0.326785 -0.09734,-0.660523 0,-0.271163 0.07648,-0.653571 0.08344,-0.389361 0.278115,-0.785676 -0.264209,0.166869 -0.590995,0.26421 -0.319832,0.09734 -0.590994,0.173822 -0.118199,0.03476 -0.26421,0.06258 -0.14601,0.02086 -0.292021,0.04172 -0.139058,0.02086 -0.271162,0.04172 -0.125152,0.02086 -0.21554,0.03477 -0.139057,0.02781 -0.19468,0.111246 -0.04867,0.07648 -0.07648,0.201633 -0.02781,0.118199 -0.08343,0.31288 -0.05562,0.194681 -0.111246,0.403267 -0.06258,0.222492 -0.132104,0.45889 -0.06953,0.236398 -0.125152,0.451938 -0.04867,0.208586 -0.09039,0.389361 -0.03476,0.173822 -0.03476,0.271162 0,0.09039 -0.07648,0.194681 -0.06953,0.104293 -0.166869,0.194681 -0.09039,0.09734 -0.187728,0.159916 -0.09039,0.06258 -0.139057,0.06258 -0.104294,0 -0.201634,-0.06953 -0.09039,-0.06953 -0.159916,-0.159916 -0.06953,-0.09039 -0.111246,-0.180775 -0.04172,-0.09734 -0.04172,-0.146011 0,-0.06258 0.04867,-0.222492 0.05562,-0.159916 0.111246,-0.326785 0.03476,-0.104294 0.09039,-0.285068 0.05562,-0.180775 0.111246,-0.396315 0.06258,-0.222492 0.118199,-0.45889 0.06258,-0.236398 0.111246,-0.444984 0.04867,-0.208587 0.07648,-0.36155 0.02781,-0.159916 0.02781,-0.229445 z m 8.378221,-1.571351 q 0,-0.695288 -0.403267,-1.08465 -0.396314,-0.396314 -1.140272,-0.396314 -0.104294,0 -0.257257,0.08344 -0.152963,0.08343 -0.333738,0.215539 -0.173822,0.125152 -0.354597,0.278115 -0.173822,0.152964 -0.333739,0.298974 -0.152963,0.146011 -0.264209,0.26421 -0.111246,0.118199 -0.152963,0.166869 -0.146011,0.173822 -0.305927,0.479749 -0.152964,0.298973 -0.285068,0.646618 -0.132105,0.347644 -0.222492,0.702241 -0.08343,0.347644 -0.08343,0.611853 0,0.159916 0.04172,0.326785 0.04867,0.16687 0.139058,0.305927 0.09734,0.132105 0.243351,0.222492 0.14601,0.08344 0.340691,0.08344 0.215539,0 0.549277,-0.125152 0.333739,-0.125152 0.702241,-0.347644 0.375456,-0.222492 0.750912,-0.528419 0.382408,-0.305927 0.681382,-0.660524 0.305927,-0.354597 0.493654,-0.743958 0.194681,-0.396314 0.194681,-0.799581 z"
     id="path1430" /></g><g
   aria-label="з"
   transform="scale(1.3773352,0.72603967)"
   id="text16794"
   style="font-size:16.3999px;line-height:1.25;font-family:'Segoe Script';-inkscape-font-specification:'Segoe Script';fill:#e0e0e0;stroke-width:0.409997"><path
     d="m 1.1563272,35.68903 q 0.080078,0 0.1281242,0.05605 0.056054,0.05605 0.088085,0.136132 0.032031,0.08808 0.040039,0.192186 0.016016,0.104101 0.016016,0.200194 0,0.184179 0.064062,0.400389 0.07207,0.216209 0.2242174,0.400388 0.1601552,0.184178 0.4083959,0.304295 0.2482407,0.128124 0.6085901,0.128124 0.4884736,0 1.0089782,-0.256248 0.5205047,-0.256249 0.9529239,-0.712691 0.4324193,-0.456443 0.7046832,-1.089056 0.2802718,-0.624606 0.2802718,-1.369328 0,-0.688668 -0.1441398,-1.169133 Q 5.3924343,32.42987 5.1602091,32.133582 4.9359917,31.829287 4.6397045,31.693155 4.3434172,31.557023 4.0471299,31.557023 q -0.1121087,0 -0.2482406,0.05606 -0.136132,0.04805 -0.2802718,0.128124 -0.136132,0.07207 -0.2802717,0.160155 -0.136132,0.08809 -0.2482407,0.160156 -0.1921863,0.128124 -0.3683571,0.216209 -0.1681631,0.08809 -0.4484348,0.08809 -0.2162096,0 -0.3763649,-0.160156 -0.1521475,-0.168163 -0.1521475,-0.440427 0,-0.208202 0.1441397,-0.352341 0.1521475,-0.14414 0.4644503,-0.272264 0.6646444,-0.272264 1.1851491,-0.552536 0.5285124,-0.288279 0.8888618,-0.616598 0.3603494,-0.336326 0.5525357,-0.736714 0.1921863,-0.400388 0.1921863,-0.912885 0,-0.200194 -0.064062,-0.392381 Q 4.9520073,27.729312 4.8318908,27.577165 4.7117743,27.41701 4.5356035,27.320916 4.3674405,27.216815 4.1432231,27.216815 q -0.4804658,0 -0.9128851,0.296288 -0.4324192,0.296287 -0.8488229,0.728706 -0.1841786,0.192187 -0.3042951,0.280272 -0.1201164,0.08008 -0.2562484,0.08008 -0.1121087,0 -0.2001941,-0.05606 -0.080078,-0.06406 -0.136132,-0.14414 -0.048047,-0.08808 -0.080078,-0.184178 -0.024023,-0.104101 -0.024023,-0.176171 0,-0.192186 0.1041009,-0.360349 0.1121087,-0.176171 0.2962873,-0.328319 0.4003882,-0.336326 0.7847608,-0.552535 0.3843727,-0.21621 0.6326134,-0.320311 0.2802717,-0.112109 0.576559,-0.216209 0.304295,-0.104101 0.5685512,-0.104101 0.3763649,0 0.7206988,0.136132 0.3443338,0.128124 0.6005822,0.384372 0.2642563,0.248241 0.4164038,0.616598 0.1601552,0.368357 0.1601552,0.832808 0,0.672652 -0.3283183,1.337296 -0.3203105,0.664644 -1.0970636,1.28925 0.5365202,0.02402 0.9369083,0.272264 0.4003882,0.248241 0.6646445,0.656637 0.2722639,0.408396 0.4003881,0.944916 0.136132,0.528512 0.136132,1.121087 0,0.592574 -0.1601552,1.177141 -0.1601553,0.584567 -0.4564426,1.121087 -0.2882795,0.53652 -0.6966754,0.992963 -0.4003882,0.456442 -0.8888618,0.792768 -0.4804659,0.336326 -1.0330016,0.528513 -0.5445279,0.192186 -1.1210869,0.192186 -0.5525357,0 -0.9609317,-0.184178 Q 1.2283971,38.19546 0.95613308,37.923196 0.69187687,37.650932 0.55574489,37.338629 0.4196129,37.026326 0.4196129,36.76207 q 0,-0.200194 0.0720699,-0.432419 0.0800776,-0.232225 0.1761708,-0.368357 0.0640621,-0.08809 0.18417857,-0.184179 0.12011646,-0.08808 0.30429505,-0.08808 z"
     id="path1409" /></g><g
   aria-label="в"
   transform="scale(1.3926276,0.71806706)"
   id="text19318"
   style="font-size:17.078px;line-height:1.25;font-family:'Segoe Script';-inkscape-font-specification:'Segoe Script';fill:#e0e0e0;stroke-width:0.5;stroke-miterlimit:4;stroke-dasharray:none"><path
     d="m 34.745853,26.76118 q 0,-0.100067 -0.04169,-0.200133 -0.03336,-0.108405 -0.108405,-0.191794 -0.06671,-0.09173 -0.183455,-0.1501 -0.108406,-0.05837 -0.258505,-0.05837 -0.29186,0 -0.608737,0.208472 -0.308538,0.208472 -0.625415,0.575382 -0.308538,0.358571 -0.600399,0.858903 -0.29186,0.491993 -0.542026,1.067375 -0.250166,0.575382 -0.450299,1.209136 -0.191794,0.625415 -0.308538,1.259169 0.07505,-0.05003 0.225149,-0.158439 0.1501,-0.116744 0.333555,-0.258505 0.191794,-0.150099 0.400266,-0.316877 0.21681,-0.175116 0.408604,-0.341893 0.200133,-0.166778 0.36691,-0.316877 0.166778,-0.1501 0.266844,-0.258505 0.925614,-1.000664 1.32588,-1.734484 0.400265,-0.733821 0.400265,-1.192458 z m -0.258504,8.989298 q -0.258505,0.383588 -0.625415,0.750498 -0.358572,0.358571 -0.792193,0.633754 -0.433621,0.275183 -0.925614,0.433621 -0.483654,0.158439 -0.983986,0.116744 -0.350233,-0.02502 -0.66711,-0.225149 -0.316877,-0.208472 -0.558704,-0.583721 -0.241827,-0.383588 -0.383588,-0.933953 -0.14176,-0.550365 -0.14176,-1.267508 0,-0.458637 0.05003,-0.992325 0.05003,-0.542026 0.133422,-1.092391 0.08339,-0.550366 0.183455,-1.075714 0.108405,-0.525349 0.208471,-0.967309 0.133422,-0.600398 0.350233,-1.184119 0.21681,-0.592059 0.483654,-1.134086 0.266844,-0.550365 0.575382,-1.034019 0.308538,-0.483654 0.633754,-0.875581 0.450299,-0.525349 1.02568,-0.842226 0.583721,-0.316877 1.367575,-0.316877 0.325215,0 0.592059,0.133422 0.266844,0.133422 0.458638,0.350233 0.191794,0.208471 0.29186,0.475315 0.108405,0.266844 0.108405,0.525349 0,0.358571 -0.150099,0.800531 -0.141761,0.433621 -0.416944,0.908936 -0.275182,0.475316 -0.667109,0.95897 -0.391927,0.483654 -0.892259,0.933953 0.116745,0.0083 0.266844,0.04169 0.158439,0.02502 0.325216,0.100067 0.175116,0.07505 0.350232,0.200133 0.183455,0.125083 0.350233,0.316877 0.07505,0.09173 0.166777,0.250166 0.09173,0.150099 0.166777,0.375249 0.08339,0.21681 0.133422,0.500332 0.05837,0.283521 0.05837,0.625415 0,0.667109 -0.241827,1.442623 -0.233488,0.767176 -0.833886,1.651096 z M 34.25386,32.681775 q 0,-0.458638 -0.133422,-0.767176 -0.133421,-0.316877 -0.316877,-0.500332 -0.183455,-0.191794 -0.375249,-0.266843 -0.191793,-0.08339 -0.308538,-0.08339 -0.108405,0 -0.341893,0.166777 -0.233488,0.166778 -0.500332,0.36691 -0.200133,0.175117 -0.400266,0.325216 -0.200133,0.1501 -0.375249,0.291861 -0.166777,0.14176 -0.308538,0.283521 -0.141761,0.141761 -0.233488,0.300199 -0.233488,0.425282 -0.275183,0.967309 -0.04169,0.542026 -0.04169,1.109069 0,0.375249 0.07505,0.675448 0.08339,0.291861 0.200133,0.500332 0.125083,0.208472 0.266843,0.325216 0.141761,0.108405 0.258505,0.108405 0.283522,0 0.642093,-0.116744 0.358571,-0.116744 0.73382,-0.458637 0.325216,-0.3002 0.583721,-0.675449 0.266844,-0.375249 0.450299,-0.792192 0.191794,-0.416943 0.29186,-0.867242 0.108405,-0.450299 0.108405,-0.892259 z"
     id="path1451"
     style="stroke-width:0.5;stroke-miterlimit:4;stroke-dasharray:none" /></g><text
   xml:space="preserve"
   style="font-size:7.43191px;line-height:1.25;font-family:'Segoe Script';-inkscape-font-specification:'Segoe Script';fill:#16272a;fill-opacity:0.799714;stroke-width:0.185799"
   x="7.8944187"
   y="32.305996"
   id="text17884"
   transform="scale(1.3480201,0.74182871)"><tspan
     sodipodi:role="line"
     id="tspan17882"
     x="7.8944187"
     y="32.305996"
     style="stroke-width:0.185799">_</tspan></text><text
   xml:space="preserve"
   style="font-size:7.72567px;line-height:1.25;font-family:'Segoe Script';-inkscape-font-specification:'Segoe Script';fill:#16272a;fill-opacity:0.799714;stroke-width:0.193141"
   x="25.175694"
   y="33.387691"
   id="text17884-6"
   transform="scale(1.4012927,0.71362678)"><tspan
     sodipodi:role="line"
     id="tspan17882-2"
     x="25.175694"
     y="33.387691"
     style="stroke-width:0.193141">_</tspan></text><text
   xml:space="preserve"
   style="font-size:6.40917px;line-height:1.25;font-family:'Segoe Script';-inkscape-font-specification:'Segoe Script';fill:#16272a;fill-opacity:0.799714;stroke-width:0.160229"
   x="-30.62253"
   y="31.949633"
   id="text17884-0"
   transform="matrix(-0.01848645,-1.3534698,0.73810629,-0.05384574,0,0)"><tspan
     sodipodi:role="line"
     id="tspan17882-4"
     x="-30.62253"
     y="31.949633"
     style="stroke-width:0.160229">_</tspan></text><text
   xml:space="preserve"
   style="font-size:7.40675px;line-height:1.25;font-family:'Segoe Script';-inkscape-font-specification:'Segoe Script';fill:#16272a;fill-opacity:0.799714;stroke-width:0.185167"
   x="-10.721886"
   y="33.511597"
   id="text17884-9"
   transform="matrix(5.0462808e-4,-1.3546982,0.73817125,0.00147104,0,0)"><tspan
     sodipodi:role="line"
     id="tspan17882-7"
     x="-10.721886"
     y="33.511597"
     style="stroke-width:0.185167">_</tspan></text></svg>
