<?xml version="1.0" encoding="UTF-8" standalone="no"?>
<!-- Generator: Adobe Illustrator 22.0.1, SVG Export Plug-In . SVG Version: 6.00 Build 0)  -->

<svg
   version="1.1"
   id="Layer_1"
   x="0px"
   y="0px"
   viewBox="0 0 50 50"
   xml:space="preserve"
   sodipodi:docname="northEastWind.svg"
   width="50"
   height="50"
   inkscape:version="1.1.1 (3bf5ae0d25, 2021-09-20)"
   xmlns:inkscape="http://www.inkscape.org/namespaces/inkscape"
   xmlns:sodipodi="http://sodipodi.sourceforge.net/DTD/sodipodi-0.dtd"
   xmlns="http://www.w3.org/2000/svg"
   xmlns:svg="http://www.w3.org/2000/svg"><defs
   id="defs7" /><sodipodi:namedview
   id="namedview5"
   pagecolor="#ffffff"
   bordercolor="#666666"
   borderopacity="1.0"
   inkscape:pageshadow="2"
   inkscape:pageopacity="0.0"
   inkscape:pagecheckerboard="0"
   showgrid="false"
   inkscape:zoom="16"
   inkscape:cx="12"
   inkscape:cy="25.09375"
   inkscape:window-width="2400"
   inkscape:window-height="1321"
   inkscape:window-x="2391"
   inkscape:window-y="-9"
   inkscape:window-maximized="1"
   inkscape:current-layer="Layer_1"
   width="140px" />
<path
   d="m 13.835531,14.875974 c 1.877646,-1.960083 4.11901,-3.32768 6.705058,-4.101972 2.586049,-0.774293 5.194948,-0.8861924 7.826706,-0.335704 2.631757,0.550488 4.941683,1.722872 6.938997,3.507537 1.495516,1.336299 2.655883,2.908104 3.480458,4.697003 0.824565,1.788897 1.249876,3.613351 1.323198,5.462115 0.07331,1.848765 -0.244054,3.705073 -0.952137,5.568922 -0.708078,1.863855 -1.747501,3.520793 -3.164938,5.000468 -1.399028,1.460457 -3.037999,2.599516 -4.897871,3.416371 -1.859867,0.816848 -3.761319,1.257738 -5.665628,1.339416 -1.904303,0.08168 -3.82131,-0.204643 -5.73197,-0.859763 -1.91066,-0.655128 -3.613429,-1.641644 -5.118789,-2.986735 -1.505368,-1.345091 -2.675567,-2.925686 -3.500139,-4.714589 -0.824568,-1.788901 -1.2597116,-3.62214 -1.3330399,-5.470904 -0.073319,-1.848764 0.2538937,-3.696281 0.9337299,-5.549706 0.679827,-1.853431 1.748135,-3.502398 3.156365,-4.972459 z m 2.440065,2.180281 c -2.181377,2.27716 -3.231274,5.012525 -3.139855,8.214893 0.109828,3.183148 1.345103,5.820502 3.71629,7.939242 1.554555,1.389054 3.359843,2.306671 5.405389,2.725681 2.045548,0.419001 4.083786,0.350002 6.103623,-0.252585 2.019834,-0.602587 3.757194,-1.653734 5.211451,-3.17184 1.454246,-1.518105 2.413689,-3.28218 2.878973,-5.273821 0.46528,-1.991638 0.397352,-3.96041 -0.203784,-5.90631 -0.60114,-1.945902 -1.678664,-3.604173 -3.23322,-4.993225 -1.554555,-1.389051 -3.359842,-2.306673 -5.405393,-2.725679 -2.045539,-0.419 -4.092991,-0.340396 -6.122663,0.253406 -2.029673,0.5938 -3.756558,1.672135 -5.210811,3.190238 z m -0.573161,9.919854 15.756214,-9.29963 c 0.101876,-0.08728 0.197095,-0.09137 0.285646,-0.01223 0.08852,0.07914 0.09173,0.171123 0.0095,0.275992 l -8.386837,15.884418 c -0.06188,0.140865 -0.145362,0.208937 -0.249778,0.222628 -0.104417,0.01367 -0.18313,-0.05663 -0.236135,-0.210998 l -2.217578,-4.299711 c -0.06158,-0.126351 -0.159961,-0.214266 -0.285332,-0.254952 l -4.640179,-1.827933 c -0.153607,-0.03026 -0.222479,-0.09182 -0.206612,-0.184625 0.01588,-0.09282 0.05936,-0.214455 0.171066,-0.292959 z"
   id="path2"
   style="fill:#2c4f54;fill-opacity:0.5;stroke:#bbcdc5;stroke-width:0.5;stroke-miterlimit:4;stroke-dasharray:none;stroke-opacity:0.9" />
<path
   style="fill:#2c4f53;fill-opacity:0.499285;stroke:#e4e7e7;stroke-width:0.0816633;stroke-miterlimit:4;stroke-dasharray:none;stroke-opacity:0.9"
   d="m 16.307041,31.935108 c -0.374949,-0.417117 -0.757406,-0.906032 -1.059708,-1.354666 -1.699823,-2.522694 -2.16503,-6.030295 -1.201555,-9.059559 0.518626,-1.630597 1.248752,-2.824074 2.530972,-4.137164 1.31604,-1.347826 2.559533,-2.153529 4.265554,-2.764084 1.149872,-0.411509 2.197889,-0.617032 3.474584,-0.681375 2.533678,-0.127689 4.804574,0.441387 6.915482,1.732979 0.439602,0.268976 0.604361,0.398974 1.426954,1.125877 0.998446,0.882348 1.253366,1.15878 1.814541,1.967786 0.847518,1.221868 1.501031,2.868219 1.746311,4.399403 0.100047,0.624562 0.133749,1.937567 0.06628,2.582847 -0.163277,1.561695 -0.638238,3.049135 -1.371052,4.293768 -0.54039,0.917824 -0.769332,1.211197 -1.648931,2.113038 -0.620519,0.636169 -0.896694,0.893586 -1.2119,1.129337 -1.914216,1.431806 -4.252275,2.249988 -6.68115,2.337993 -2.487546,0.09013 -4.914811,-0.567146 -6.925792,-1.875421 -0.463573,-0.301585 -1.800828,-1.432787 -2.140598,-1.810755 z m 1.937926,-3.76719 c 1.258677,0.494636 2.330862,0.921686 2.382632,0.949006 0.0639,0.03369 0.465219,0.757963 1.249689,2.255262 0.665199,1.269641 1.187983,2.220154 1.231958,2.239908 0.09114,0.04093 0.245362,-0.04612 0.33475,-0.188964 0.03548,-0.05671 1.887609,-3.511615 4.115835,-7.677569 3.904624,-7.300191 4.049231,-7.578342 3.993564,-7.68159 -0.04304,-0.07978 -0.08119,-0.106094 -0.149714,-0.102969 -0.113322,0.0051 -15.320146,8.765092 -15.453991,8.902353 -0.120933,0.124017 -0.155217,0.328798 -0.06238,0.372597 0.03806,0.01791 1.09898,0.437332 2.357656,0.931966 z"
   id="path861" /><rect
   style="fill:#c7485e;fill-opacity:1;stroke:#3c4343;stroke-width:0.411112;stroke-opacity:0.9"
   id="rect2803"
   width="4.5046043"
   height="0.053010285"
   x="32.85136"
   y="-0.22508714"
   transform="matrix(0.73534433,0.67769367,-0.66702717,0.74503339,0,0)"
   inkscape:transform-center-x="3.54609"
   inkscape:transform-center-y="0.32597185" /><path
   style="fill:#cb4d64;fill-opacity:1;stroke:#e27364;stroke-width:0.0329537;stroke-opacity:0.9"
   d="m 24.933159,21.854613 c 0.07032,-0.04207 1.573696,-0.967034 3.34085,-2.055481 1.76715,-1.088448 3.262609,-1.996798 3.323238,-2.018554 0.09539,-0.03423 -3.391375,6.745026 -3.564308,6.930003 -0.04723,0.05055 -0.48609,-0.310832 -1.64601,-1.355298 -1.478994,-1.331781 -1.573295,-1.429172 -1.453784,-1.500656 z"
   id="path3397"
   inkscape:transform-center-x="1.4452202"
   inkscape:transform-center-y="-1.8028093" /><g
   aria-label="c"
   transform="scale(1.0219263,0.97854416)"
   id="text9344"
   style="font-size:17.7699px;line-height:1.25;font-family:'Segoe Script';-inkscape-font-specification:'Segoe Script';fill:#e0e0e0;stroke-width:0.44425"><path
     d="m 29.697112,5.9415598 q 0,0.3123615 -0.225594,0.563986 -0.234271,0.2603013 -0.407805,0.4425122 -0.173534,0.1735341 -0.329715,0.3210382 -0.156181,0.147504 -0.329715,0.2863314 -0.173534,0.1301506 -0.407805,0.3036848 -0.65943,0.477219 -1.258123,0.8069339 -0.598693,0.3210382 -1.162679,0.5292792 -0.563986,0.1995643 -1.119296,0.2863314 -0.546632,0.086767 -1.101942,0.086767 -0.581339,0 -1.041205,-0.2169177 Q 21.853368,9.1259118 21.53233,8.7441367 21.219968,8.3623615 21.055111,7.8591124 20.890253,7.3471866 20.890253,6.7832005 V 6.739817 q 0,-0.5726628 0.147504,-1.2147393 0.147504,-0.6507531 0.407806,-1.3015063 0.268978,-0.6507531 0.642076,-1.2754761 0.373098,-0.6333998 0.824287,-1.1800324 0.182211,-0.2169177 0.433836,-0.4598656 0.260301,-0.2516245 0.546632,-0.45986553 0.295008,-0.20824101 0.60737,-0.33839164 0.321038,-0.13882734 0.624723,-0.13882734 0.208241,0 0.399129,0.13015063 0.190887,0.12147393 0.355745,0.32103822 0.164857,0.19956426 0.303684,0.45118886 0.138828,0.2429478 0.234272,0.5032491 0.09544,0.2516246 0.147504,0.4858957 0.05206,0.2342711 0.05206,0.3991286 0,0.2516245 -0.156181,0.6507531 -0.156181,0.3991286 -0.373098,0.3991286 -0.312362,0 -0.520603,-0.4251587 Q 25.488909,3.1216294 25.428172,2.9047117 25.376112,2.687794 25.298021,2.479553 25.228608,2.271312 25.107134,2.0977778 24.98566,1.9155669 24.768742,1.8287999 q -0.216918,0.05206 -0.442512,0.2255944 -0.216918,0.1735342 -0.433836,0.4251587 -0.208241,0.2516246 -0.416482,0.5726628 -0.199564,0.3123615 -0.381775,0.6507531 -0.173534,0.3123615 -0.338391,0.7201668 -0.164858,0.3991286 -0.295009,0.8329641 -0.13015,0.4251587 -0.208241,0.8503174 -0.07809,0.4251588 -0.07809,0.7809038 0,0.2516246 0.121474,0.5119258 0.121474,0.2516246 0.312362,0.4598656 0.199564,0.208241 0.442512,0.3383916 0.251624,0.1301506 0.511925,0.1301506 1.284153,0 2.550953,-0.5292792 1.266799,-0.5292792 2.412125,-1.5357774 0.6334,-0.5553094 1.049882,-0.5553094 0.121473,0 0.121473,0.2342712 z"
     id="path1178" /></g><g
   aria-label="ю"
   transform="scale(0.88842146,1.1255919)"
   id="text11307"
   style="font-size:14.2395px;line-height:1.25;font-family:'Segoe Script';-inkscape-font-specification:'Segoe Script';fill:#e0e0e0;stroke-width:0.355984"><path
     d="m 24.824464,40.838265 q 0,-0.02781 -0.03476,-0.04867 -0.02781,-0.02781 -0.06953,-0.06953 -0.04172,-0.04172 -0.07648,-0.111246 -0.02781,-0.06953 -0.02781,-0.194681 0,-0.111246 0.06258,-0.201634 0.06258,-0.09039 0.132104,-0.166869 0.07648,-0.07648 0.139058,-0.139057 0.06953,-0.06258 0.08343,-0.118199 0.118199,-0.667477 0.201634,-1.258472 0.08343,-0.590995 0.104293,-0.987309 0.007,-0.118199 0,-0.243351 0,-0.125151 -0.007,-0.250303 -0.007,-0.09039 -0.01391,-0.173822 0,-0.08344 0,-0.159917 0,-0.08343 0.06258,-0.187727 0.06257,-0.104294 0.152963,-0.194681 0.09734,-0.09039 0.208586,-0.146011 0.118199,-0.06258 0.229445,-0.06258 0.09734,0 0.194681,0.05562 0.09734,0.04867 0.173822,0.14601 0.07648,0.09039 0.125152,0.229445 0.04867,0.132105 0.04867,0.298974 0,0.125152 -0.02086,0.305927 -0.02086,0.180775 -0.05562,0.396314 -0.03476,0.215539 -0.08343,0.451937 -0.04172,0.236398 -0.08344,0.472796 -0.05562,0.326786 -0.111246,0.625759 -0.04867,0.298974 -0.07648,0.514514 0.02781,0.06258 0.04867,0.111246 0.02781,0.04172 0.06953,0.06953 0.04172,0.02781 0.104294,0.04172 0.06953,0.01391 0.180775,0.01391 0.298973,0 0.632712,-0.06258 0.333738,-0.06258 0.632712,-0.159917 0.298974,-0.09734 0.535372,-0.201633 0.243351,-0.111246 0.36155,-0.208587 0.07648,-0.06258 0.166869,-0.166869 0.09734,-0.104293 0.19468,-0.222492 0.09734,-0.125152 0.187728,-0.243351 0.09734,-0.125152 0.166869,-0.215539 0.236398,-0.298974 0.535372,-0.584042 0.298974,-0.285068 0.660524,-0.500608 0.36155,-0.215539 0.778722,-0.347644 0.424126,-0.132104 0.917781,-0.132104 0.375455,0 0.737005,0.187727 0.36155,0.180775 0.639665,0.493655 0.285068,0.31288 0.451937,0.7231 0.173822,0.403267 0.173822,0.848251 0,0.444984 -0.09039,0.813487 -0.08344,0.36155 -0.271162,0.77177 -0.104294,0.215539 -0.36155,0.514513 -0.257257,0.298974 -0.618807,0.618807 -0.354597,0.319832 -0.778722,0.632712 -0.424126,0.312879 -0.862157,0.563183 -0.438032,0.250304 -0.862158,0.403267 -0.417173,0.152964 -0.757864,0.152964 -0.45889,0 -0.785675,-0.152964 -0.326786,-0.159916 -0.535372,-0.41022 -0.208587,-0.257256 -0.305927,-0.584042 -0.09734,-0.326785 -0.09734,-0.660524 0,-0.271162 0.07648,-0.65357 0.08343,-0.389362 0.278115,-0.785676 -0.26421,0.166869 -0.590995,0.26421 -0.319833,0.09734 -0.590995,0.173822 -0.118199,0.03476 -0.264209,0.06258 -0.146011,0.02086 -0.292021,0.04172 -0.139058,0.02086 -0.271163,0.04172 -0.125152,0.02086 -0.215539,0.03477 -0.139058,0.02781 -0.194681,0.111246 -0.04867,0.07648 -0.07648,0.201633 -0.02781,0.118199 -0.08343,0.31288 -0.05562,0.19468 -0.111246,0.403267 -0.06258,0.222492 -0.132105,0.45889 -0.06953,0.236398 -0.125152,0.451937 -0.04867,0.208587 -0.09039,0.389362 -0.03477,0.173822 -0.03477,0.271162 0,0.09039 -0.07648,0.194681 -0.06953,0.104293 -0.166869,0.19468 -0.09039,0.09734 -0.187728,0.159917 -0.09039,0.06258 -0.139058,0.06258 -0.104293,0 -0.201633,-0.06953 -0.09039,-0.06953 -0.159917,-0.159917 -0.06953,-0.09039 -0.111246,-0.180774 -0.04172,-0.09734 -0.04172,-0.146011 0,-0.06258 0.04867,-0.222492 0.05562,-0.159916 0.111246,-0.326786 0.03477,-0.104293 0.09039,-0.285068 0.05562,-0.180775 0.111246,-0.396314 0.06258,-0.222492 0.118199,-0.45889 0.06258,-0.236398 0.111246,-0.444984 0.04867,-0.208587 0.07648,-0.36155 0.02781,-0.159916 0.02781,-0.229445 z m 8.378222,-1.571351 q 0,-0.695288 -0.403268,-1.08465 -0.396314,-0.396314 -1.140272,-0.396314 -0.104293,0 -0.257257,0.08344 -0.152963,0.08343 -0.333738,0.215539 -0.173822,0.125152 -0.354597,0.278115 -0.173822,0.152964 -0.333738,0.298974 -0.152963,0.146011 -0.26421,0.264209 -0.111246,0.118199 -0.152963,0.16687 -0.14601,0.173822 -0.305927,0.479748 -0.152963,0.298974 -0.285068,0.646618 -0.132105,0.347644 -0.222492,0.702241 -0.08344,0.347644 -0.08344,0.611854 0,0.159916 0.04172,0.326785 0.04867,0.166869 0.139057,0.305927 0.09734,0.132105 0.243351,0.222492 0.146011,0.08344 0.340691,0.08344 0.21554,0 0.549278,-0.125152 0.333738,-0.125152 0.702241,-0.347644 0.375455,-0.222492 0.750911,-0.528419 0.382408,-0.305927 0.681382,-0.660524 0.305927,-0.354597 0.493655,-0.743958 0.194681,-0.396314 0.194681,-0.799581 z"
     id="path1220" /></g><g
   aria-label="з"
   transform="scale(1.3773363,0.72603909)"
   id="text16794"
   style="font-size:16.3999px;line-height:1.25;font-family:'Segoe Script';-inkscape-font-specification:'Segoe Script';fill:#e0e0e0;stroke-width:0.409994"><path
     d="m 0.74182157,34.51704 q 0.0800776,0 0.12812422,0.05606 0.0560543,0.05605 0.0880854,0.136132 0.0320311,0.08808 0.0400388,0.192186 0.0160155,0.104101 0.0160155,0.200194 0,0.184179 0.064062,0.400388 0.07207,0.21621 0.2242173,0.400388 0.1601553,0.184179 0.408396,0.304295 0.2482407,0.128125 0.6085901,0.128125 0.4884736,0 1.0089782,-0.256249 0.5205047,-0.256248 0.9529239,-0.712691 0.4324193,-0.456442 0.7046832,-1.089056 0.2802718,-0.624605 0.2802718,-1.369327 0,-0.688668 -0.1441398,-1.169134 Q 4.9779287,31.25788 4.7457035,30.961593 4.5214861,30.657298 4.2251989,30.521166 3.9289116,30.385034 3.6326243,30.385034 q -0.1121087,0 -0.2482406,0.05605 -0.136132,0.04805 -0.2802718,0.128125 -0.136132,0.07207 -0.2802717,0.160155 -0.136132,0.08808 -0.2482407,0.160155 -0.1921863,0.128124 -0.3683571,0.21621 -0.1681631,0.08808 -0.4484348,0.08808 -0.2162096,0 -0.3763649,-0.160155 -0.1521475,-0.168163 -0.1521475,-0.440427 0,-0.208202 0.1441397,-0.352342 0.1521475,-0.144139 0.4644503,-0.272264 0.6646444,-0.272264 1.1851491,-0.552535 0.5285124,-0.28828 0.8888618,-0.616598 0.3603493,-0.336326 0.5525357,-0.736715 0.1921863,-0.400388 0.1921863,-0.912885 0,-0.200194 -0.064062,-0.39238 Q 4.5375017,26.557323 4.4173852,26.405175 4.2972687,26.24502 4.1210979,26.148927 3.9529349,26.044826 3.7287175,26.044826 q -0.4804658,0 -0.9128851,0.296287 -0.4324192,0.296288 -0.848823,0.728707 -0.1841785,0.192186 -0.304295,0.280272 -0.1201164,0.08008 -0.2562484,0.08008 -0.1121087,0 -0.2001941,-0.05605 -0.080078,-0.06406 -0.136132,-0.14414 -0.048047,-0.08808 -0.0800777,-0.184179 -0.0240233,-0.1041 -0.0240233,-0.17617 0,-0.192187 0.10410094,-0.36035 0.1121087,-0.176171 0.2962873,-0.328318 0.4003881,-0.336326 0.7847608,-0.552536 0.3843727,-0.216209 0.6326134,-0.32031 0.2802717,-0.112109 0.576559,-0.21621 0.304295,-0.104101 0.5685512,-0.104101 0.3763649,0 0.7206987,0.136132 0.3443339,0.128124 0.6005823,0.384373 0.2642562,0.24824 0.4164038,0.616598 0.1601552,0.368357 0.1601552,0.832807 0,0.672652 -0.3283183,1.337297 -0.3203105,0.664644 -1.0970636,1.28925 0.5365201,0.02402 0.9369083,0.272264 0.4003882,0.24824 0.6646444,0.656636 0.272264,0.408396 0.4003882,0.944916 0.136132,0.528513 0.136132,1.121087 0,0.592575 -0.1601553,1.177142 -0.1601552,0.584566 -0.4564425,1.121087 -0.2882795,0.53652 -0.6966755,0.992962 -0.4003881,0.456443 -0.8888617,0.792769 -0.4804659,0.336326 -1.0330016,0.528512 -0.5445279,0.192187 -1.1210869,0.192187 -0.5525357,0 -0.9609317,-0.184179 Q 0.81389144,37.02347 0.54162747,36.751206 0.27737126,36.478942 0.14123928,36.16664 0.00510729,35.854337 0.00510729,35.590081 q 0,-0.200195 0.07206988,-0.43242 0.08007764,-0.232225 0.1761708,-0.368357 0.0640621,-0.08808 0.18417857,-0.184178 0.12011646,-0.08809 0.30429503,-0.08809 z"
     id="path1241" /></g><g
   aria-label="в"
   transform="scale(1.3926286,0.71806653)"
   id="text19318"
   style="font-size:17.0779px;line-height:1.25;font-family:'Segoe Script';-inkscape-font-specification:'Segoe Script';fill:#e0e0e0;stroke-width:0.426951"><path
     d="m 34.721152,27.741062 q 0,-0.100066 -0.04169,-0.200131 -0.03336,-0.108405 -0.108405,-0.191793 -0.06671,-0.09173 -0.183454,-0.150099 -0.108404,-0.05837 -0.258503,-0.05837 -0.291859,0 -0.608734,0.208471 -0.308536,0.20847 -0.625411,0.575378 -0.308537,0.358569 -0.600395,0.858899 -0.291859,0.49199 -0.542023,1.067368 -0.250165,0.575379 -0.450297,1.209129 -0.191792,0.625411 -0.308536,1.259161 0.07505,-0.05003 0.225148,-0.158437 0.150099,-0.116744 0.333553,-0.258503 0.191793,-0.150099 0.400263,-0.316876 0.216809,-0.175115 0.408602,-0.341891 0.200132,-0.166776 0.366908,-0.316875 0.166777,-0.150099 0.266843,-0.258504 0.925608,-1.000658 1.325872,-1.734474 0.400263,-0.733816 0.400263,-1.192451 z m -0.258503,8.989246 q -0.258504,0.383586 -0.625412,0.750494 -0.358569,0.358569 -0.792188,0.63375 -0.433618,0.275181 -0.925608,0.433619 -0.483652,0.158437 -0.983981,0.116743 -0.35023,-0.02502 -0.667105,-0.225148 -0.316876,-0.20847 -0.558701,-0.583717 -0.241826,-0.383586 -0.383586,-0.933948 -0.14176,-0.550362 -0.14176,-1.2675 0,-0.458635 0.05003,-0.99232 0.05003,-0.542023 0.133421,-1.092385 0.08339,-0.550362 0.183454,-1.075707 0.108405,-0.525346 0.208471,-0.967303 0.133421,-0.600395 0.35023,-1.184112 0.216809,-0.592057 0.483651,-1.13408 0.266843,-0.550362 0.575379,-1.034013 0.308536,-0.483652 0.63375,-0.875576 0.450296,-0.525346 1.025675,-0.842221 0.583717,-0.316875 1.367566,-0.316875 0.325214,0 0.592056,0.133421 0.266842,0.133421 0.458635,0.350231 0.191793,0.20847 0.291859,0.475312 0.108404,0.266842 0.108404,0.525346 0,0.358569 -0.150098,0.800526 -0.14176,0.433619 -0.416941,0.908932 -0.275181,0.475312 -0.667106,0.958964 -0.391924,0.483651 -0.892253,0.933947 0.116743,0.0083 0.266842,0.04169 0.158437,0.02502 0.325214,0.100066 0.175115,0.07505 0.35023,0.200132 0.183454,0.125082 0.350231,0.316875 0.07505,0.09173 0.166776,0.250164 0.09173,0.150099 0.166776,0.375247 0.08339,0.21681 0.133421,0.500329 0.05837,0.28352 0.05837,0.625412 0,0.667105 -0.241826,1.442615 -0.233487,0.767172 -0.833881,1.651086 z m -0.233487,-3.068685 q 0,-0.458635 -0.133421,-0.767171 -0.133422,-0.316875 -0.316876,-0.500329 -0.183454,-0.191793 -0.375246,-0.266842 -0.191793,-0.08339 -0.308537,-0.08339 -0.108404,0 -0.341891,0.166777 -0.233487,0.166776 -0.500329,0.366908 -0.200132,0.175115 -0.400264,0.325214 -0.200131,0.150099 -0.375246,0.291858 -0.166777,0.14176 -0.308537,0.28352 -0.14176,0.14176 -0.233487,0.300198 -0.233487,0.425279 -0.275181,0.967303 -0.04169,0.542023 -0.04169,1.109062 0,0.375247 0.07505,0.675445 0.08339,0.291858 0.200131,0.500329 0.125083,0.20847 0.266842,0.325214 0.14176,0.108404 0.258504,0.108404 0.28352,0 0.642089,-0.116743 0.358569,-0.116744 0.733816,-0.458635 0.325214,-0.300198 0.583717,-0.675444 0.266842,-0.375247 0.450296,-0.792188 0.191793,-0.416941 0.291859,-0.867237 0.108405,-0.450296 0.108405,-0.892254 z"
     id="path1199" /></g><text
   xml:space="preserve"
   style="font-size:7.22299px;line-height:1.25;font-family:'Segoe Script';-inkscape-font-specification:'Segoe Script';fill:#16272a;fill-opacity:0.799714;stroke-width:0.180573"
   x="7.5890508"
   y="30.758051"
   id="text17884"
   transform="scale(1.3359429,0.74853499)"><tspan
     sodipodi:role="line"
     id="tspan17882"
     x="7.5890508"
     y="30.758051"
     style="stroke-width:0.180573">_</tspan></text><text
   xml:space="preserve"
   style="font-size:7.35723px;line-height:1.25;font-family:'Segoe Script';-inkscape-font-specification:'Segoe Script';fill:#16272a;fill-opacity:0.799714;stroke-width:0.18393"
   x="26.058374"
   y="31.144127"
   id="text17884-6"
   transform="scale(1.360778,0.73487373)"><tspan
     sodipodi:role="line"
     id="tspan17882-2"
     x="26.058374"
     y="31.144127"
     style="stroke-width:0.18393">_</tspan></text><text
   xml:space="preserve"
   style="font-size:6.60499px;line-height:1.25;font-family:'Segoe Script';-inkscape-font-specification:'Segoe Script';fill:#16272a;fill-opacity:0.799714;stroke-width:0.165123"
   x="-29.823427"
   y="32.320698"
   id="text17884-0"
   transform="matrix(-0.0182868,-1.3682465,0.73013493,-0.05443362,0,0)"><tspan
     sodipodi:role="line"
     id="tspan17882-4"
     x="-29.823427"
     y="32.320698"
     style="stroke-width:0.165123">_</tspan></text><text
   xml:space="preserve"
   style="font-size:7.58321px;line-height:1.25;font-family:'Segoe Script';-inkscape-font-specification:'Segoe Script';fill:#16272a;fill-opacity:0.799714;stroke-width:0.189579"
   x="-10.714712"
   y="33.665897"
   id="text17884-9"
   transform="matrix(5.0245376e-4,-1.3605605,0.73499065,0.00147741,0,0)"><tspan
     sodipodi:role="line"
     id="tspan17882-7"
     x="-10.714712"
     y="33.665897"
     style="stroke-width:0.189579">_</tspan></text></svg>
