<?xml version="1.0" encoding="UTF-8" standalone="no"?>
<!-- Generator: Adobe Illustrator 22.0.1, SVG Export Plug-In . SVG Version: 6.00 Build 0)  -->

<svg
   version="1.1"
   id="Layer_1"
   x="0px"
   y="0px"
   viewBox="0 0 50 50"
   xml:space="preserve"
   sodipodi:docname="northwestWind.svg"
   width="50"
   height="50"
   inkscape:version="1.1.1 (3bf5ae0d25, 2021-09-20)"
   xmlns:inkscape="http://www.inkscape.org/namespaces/inkscape"
   xmlns:sodipodi="http://sodipodi.sourceforge.net/DTD/sodipodi-0.dtd"
   xmlns="http://www.w3.org/2000/svg"
   xmlns:svg="http://www.w3.org/2000/svg"><defs
   id="defs7" /><sodipodi:namedview
   id="namedview5"
   pagecolor="#ffffff"
   bordercolor="#666666"
   borderopacity="1.0"
   inkscape:pageshadow="2"
   inkscape:pageopacity="0.0"
   inkscape:pagecheckerboard="0"
   showgrid="false"
   inkscape:zoom="20.317534"
   inkscape:cx="22.837417"
   inkscape:cy="25.716704"
   inkscape:window-width="2400"
   inkscape:window-height="1321"
   inkscape:window-x="2391"
   inkscape:window-y="-9"
   inkscape:window-maximized="1"
   inkscape:current-layer="Layer_1"
   width="140px" />
<path
   d="m 15.473051,36.188843 c -2.013163,-1.824654 -3.428955,-4.014847 -4.246308,-6.551866 -0.817346,-2.537023 -0.962238,-5.104793 -0.434672,-7.703317 0.527565,-2.598525 1.690587,-4.887864 3.479193,-6.876972 1.339249,-1.489378 2.921694,-2.651635 4.728643,-3.485922 1.806949,-0.834278 3.654795,-1.275816 5.531536,-1.37104 1.876751,-0.09521 3.765833,0.194227 5.667256,0.868307 1.901429,0.674094 3.596685,1.677057 5.116435,3.054484 1.500007,1.359534 2.676477,2.959363 3.528352,4.780739 0.851876,1.821369 1.322423,3.68837 1.428183,5.56266 0.105766,1.874279 -0.162077,3.765652 -0.804536,5.655366 -0.642475,1.889716 -1.624005,3.578828 -2.972062,5.078003 -1.348065,1.499187 -2.939317,2.671237 -4.74627,3.505522 -1.806954,0.834277 -3.663598,1.285614 -5.540351,1.380845 -1.876746,0.09522 -3.757021,-0.204009 -5.647518,-0.85042 -1.890506,-0.646404 -3.578005,-1.677913 -5.087881,-3.046389 z M 17.658148,33.7588 c 2.338829,2.119804 5.129472,3.119655 8.380731,2.989763 3.231521,-0.147782 5.895255,-1.397074 8.018675,-3.758521 1.392115,-1.548173 2.302441,-3.337384 2.703492,-5.35699 0.401044,-2.019607 0.306566,-4.02594 -0.329622,-6.007512 -0.63618,-1.981568 -1.724542,-3.67938 -3.28376,-5.092589 -1.559218,-1.413194 -3.362325,-2.336064 -5.390628,-2.769468 -2.028299,-0.4334 -4.026996,-0.341997 -5.996075,0.274206 -1.969076,0.616206 -3.640332,1.697961 -5.032448,3.246137 -1.392118,1.548168 -2.302442,3.337384 -2.703494,5.356992 -0.401047,2.019601 -0.296695,4.034891 0.330684,6.026254 0.627376,1.991366 1.743225,3.678524 3.302445,5.091728 z m 10.081569,0.440938 -9.633493,-15.400455 c -0.08987,-0.09923 -0.09516,-0.192955 -0.01584,-0.281143 0.07932,-0.08817 0.172697,-0.09247 0.280184,-0.01284 l 16.232833,8.061354 c 0.143805,0.05917 0.213933,0.140545 0.229092,0.2432 0.01511,0.102658 -0.05535,0.181048 -0.211572,0.235071 l -4.340274,2.237331 c -0.127592,0.0622 -0.215693,0.160193 -0.255516,0.28416 l -1.800903,4.592255 c -0.02892,0.151648 -0.09058,0.220234 -0.184929,0.205857 -0.09446,-0.01449 -0.218514,-0.05578 -0.299584,-0.164815 z"
   id="path2"
   style="fill:#2c4f54;fill-opacity:0.5;stroke:#bbcdc6;stroke-width:1;stroke-miterlimit:4;stroke-dasharray:none;stroke-opacity:0.9" />
<path
   style="fill:#2c4f53;fill-opacity:0.499285;stroke:#e4e7e7;stroke-width:0.0816749;stroke-miterlimit:4;stroke-dasharray:none;stroke-opacity:0.9"
   d="m 32.717003,33.406563 c -0.418168,0.375522 -0.909138,0.759521 -1.360373,1.063979 -2.537296,1.711966 -6.092772,2.223033 -9.183211,1.32 -1.663522,-0.486091 -2.886194,-1.18705 -4.238362,-2.429868 -1.387925,-1.275603 -2.224239,-2.487946 -2.869082,-4.158706 -0.43462,-1.126102 -0.658569,-2.15502 -0.742457,-3.411254 -0.166486,-2.493071 0.378482,-4.737894 1.65953,-6.836074 0.266784,-0.436955 0.396412,-0.601161 1.12269,-1.422169 0.881581,-0.996534 1.15862,-1.251732 1.972078,-1.816554 1.228586,-0.85303 2.891088,-1.521423 4.442556,-1.786079 0.632841,-0.10795 1.965806,-0.160958 2.622116,-0.104257 1.588388,0.137207 3.105898,0.582452 4.380555,1.285294 0.939967,0.51828 1.241233,0.739296 2.169894,1.591854 0.655091,0.60144 0.920533,0.869515 1.164535,1.176347 1.481906,1.863377 2.34679,4.15339 2.471443,6.543857 0.127657,2.448212 -0.504596,4.848347 -1.804045,6.848379 -0.299544,0.461049 -1.428942,1.794963 -1.807859,2.13526 z m -3.854006,-1.851464 c 0.484053,-1.246929 0.90218,-2.309193 0.929179,-2.360587 0.03328,-0.06342 0.763006,-0.469561 2.272241,-1.26466 1.279756,-0.674216 2.237469,-1.20337 2.256896,-1.246972 0.04024,-0.09038 -0.05043,-0.24092 -0.196768,-0.326786 -0.0581,-0.03408 -3.593728,-1.805775 -7.856927,-3.937088 -7.470603,-3.734793 -7.755188,-3.872996 -7.859232,-3.816618 -0.0804,0.04358 -0.106562,0.08158 -0.102406,0.148977 0.0069,0.111509 9.124124,14.953933 9.265462,15.083658 0.1277,0.117224 0.336176,0.147885 0.379306,0.0558 0.01762,-0.03773 0.428188,-1.088802 0.912241,-2.33573 z"
   id="path861" /><rect
   style="fill:#c7485e;fill-opacity:1;stroke:#3c4343;stroke-width:0.403428;stroke-opacity:0.9"
   id="rect2803"
   width="4.4259882"
   height="0.051955421"
   x="-4.5291834"
   y="33.888657"
   transform="matrix(0.64873865,-0.76101127,0.75446227,0.65634341,0,0)"
   inkscape:transform-center-x="-0.408872"
   inkscape:transform-center-y="3.5133561" /><path
   style="fill:#cb4d64;fill-opacity:1;stroke:#e27364;stroke-width:0.0338644;stroke-opacity:0.9"
   d="m 22.378886,25.243541 c -0.04387,-0.07152 -1.008047,-1.600629 -2.142636,-3.398017 -1.13459,-1.797386 -2.081539,-3.318487 -2.10432,-3.380212 -0.03584,-0.09713 7.000305,3.4312 7.192601,3.606788 0.05253,0.04792 -0.319988,0.49679 -1.397143,1.683432 -1.37346,1.513066 -1.473957,1.60959 -1.548484,1.48802 z"
   id="path3397"
   inkscape:transform-center-x="1.8678331"
   inkscape:transform-center-y="1.4859598" /><text
   xml:space="preserve"
   style="font-size:17.77px;line-height:1.25;font-family:'Segoe Script';-inkscape-font-specification:'Segoe Script';fill:#e0e0e0;fill-opacity:1;stroke-width:0.444249"
   x="19.430147"
   y="9.2932968"
   id="text9344"
   transform="scale(1.0219264,0.97854405)"
   inkscape:transform-center-x="-77.540607"
   inkscape:transform-center-y="20.464038"><tspan
     sodipodi:role="line"
     id="tspan9342"
     x="19.430147"
     y="9.2932968"
     style="fill:#e0e0e0;fill-opacity:1;stroke-width:0.444249">c</tspan></text><text
   xml:space="preserve"
   style="font-size:14.2395px;line-height:1.25;font-family:'Segoe Script';-inkscape-font-specification:'Segoe Script';fill:#e0e0e0;fill-opacity:1;stroke-width:0.355984"
   x="22.351933"
   y="43.843838"
   id="text11307"
   transform="scale(0.88842148,1.1255919)"><tspan
     sodipodi:role="line"
     id="tspan11305"
     x="22.351933"
     y="43.843838"
     style="fill:#e0e0e0;fill-opacity:1;stroke-width:0.355984">ю</tspan></text><text
   xml:space="preserve"
   style="font-size:16.3999px;line-height:1.25;font-family:'Segoe Script';-inkscape-font-specification:'Segoe Script';fill:#e0e0e0;fill-opacity:1;stroke-width:0.409997"
   x="-0.020814111"
   y="35.048409"
   id="text16794"
   transform="scale(1.3773352,0.72603967)"><tspan
     sodipodi:role="line"
     id="tspan16792"
     x="-0.020814111"
     y="35.048409"
     style="fill:#e0e0e0;fill-opacity:1;stroke-width:0.409997">з</tspan></text><text
   xml:space="preserve"
   style="font-size:17.078px;line-height:1.25;font-family:'Segoe Script';-inkscape-font-specification:'Segoe Script';fill:#e0e0e0;fill-opacity:1;stroke-width:0.426949"
   x="28.274893"
   y="37.476624"
   id="text19318"
   transform="scale(1.3926276,0.71806706)"><tspan
     sodipodi:role="line"
     id="tspan19316"
     x="28.274893"
     y="37.476624"
     style="fill:#e0e0e0;fill-opacity:1;stroke-width:0.426949">в</tspan></text><text
   xml:space="preserve"
   style="font-size:7.43191px;line-height:1.25;font-family:'Segoe Script';-inkscape-font-specification:'Segoe Script';fill:#16272a;fill-opacity:0.799714;stroke-width:0.185799"
   x="7.8944187"
   y="32.305996"
   id="text17884"
   transform="scale(1.3480201,0.74182871)"><tspan
     sodipodi:role="line"
     id="tspan17882"
     x="7.8944187"
     y="32.305996"
     style="stroke-width:0.185799">_</tspan></text><text
   xml:space="preserve"
   style="font-size:7.72567px;line-height:1.25;font-family:'Segoe Script';-inkscape-font-specification:'Segoe Script';fill:#16272a;fill-opacity:0.799714;stroke-width:0.193141"
   x="25.175694"
   y="33.387691"
   id="text17884-6"
   transform="scale(1.4012927,0.71362678)"><tspan
     sodipodi:role="line"
     id="tspan17882-2"
     x="25.175694"
     y="33.387691"
     style="stroke-width:0.193141">_</tspan></text><text
   xml:space="preserve"
   style="font-size:6.40917px;line-height:1.25;font-family:'Segoe Script';-inkscape-font-specification:'Segoe Script';fill:#16272a;fill-opacity:0.799714;stroke-width:0.160229"
   x="-30.62253"
   y="31.949633"
   id="text17884-0"
   transform="matrix(-0.01848645,-1.3534698,0.73810629,-0.05384574,0,0)"><tspan
     sodipodi:role="line"
     id="tspan17882-4"
     x="-30.62253"
     y="31.949633"
     style="stroke-width:0.160229">_</tspan></text><text
   xml:space="preserve"
   style="font-size:7.40675px;line-height:1.25;font-family:'Segoe Script';-inkscape-font-specification:'Segoe Script';fill:#16272a;fill-opacity:0.799714;stroke-width:0.185167"
   x="-10.721886"
   y="33.511597"
   id="text17884-9"
   transform="matrix(5.0462808e-4,-1.3546982,0.73817125,0.00147104,0,0)"><tspan
     sodipodi:role="line"
     id="tspan17882-7"
     x="-10.721886"
     y="33.511597"
     style="stroke-width:0.185167">_</tspan></text></svg>
