<?xml version="1.0" encoding="UTF-8" standalone="no"?>
<!-- Generator: Adobe Illustrator 22.0.1, SVG Export Plug-In . SVG Version: 6.00 Build 0)  -->

<svg
   version="1.1"
   id="Layer_1"
   x="0px"
   y="0px"
   viewBox="0 0 50 50"
   xml:space="preserve"
   sodipodi:docname="northEastWind.svg"
   width="50"
   height="50"
   inkscape:version="1.1.1 (3bf5ae0d25, 2021-09-20)"
   xmlns:inkscape="http://www.inkscape.org/namespaces/inkscape"
   xmlns:sodipodi="http://sodipodi.sourceforge.net/DTD/sodipodi-0.dtd"
   xmlns="http://www.w3.org/2000/svg"
   xmlns:svg="http://www.w3.org/2000/svg"><defs
   id="defs7" /><sodipodi:namedview
   id="namedview5"
   pagecolor="#ffffff"
   bordercolor="#666666"
   borderopacity="1.0"
   inkscape:pageshadow="2"
   inkscape:pageopacity="0.0"
   inkscape:pagecheckerboard="0"
   showgrid="false"
   inkscape:zoom="16"
   inkscape:cx="12"
   inkscape:cy="25.09375"
   inkscape:window-width="2400"
   inkscape:window-height="1321"
   inkscape:window-x="2391"
   inkscape:window-y="-9"
   inkscape:window-maximized="1"
   inkscape:current-layer="Layer_1"
   width="140px" />
<path
   d="m 13.835531,14.875974 c 1.877646,-1.960083 4.11901,-3.32768 6.705058,-4.101972 2.586049,-0.774293 5.194948,-0.8861924 7.826706,-0.335704 2.631757,0.550488 4.941683,1.722872 6.938997,3.507537 1.495516,1.336299 2.655883,2.908104 3.480458,4.697003 0.824565,1.788897 1.249876,3.613351 1.323198,5.462115 0.07331,1.848765 -0.244054,3.705073 -0.952137,5.568922 -0.708078,1.863855 -1.747501,3.520793 -3.164938,5.000468 -1.399028,1.460457 -3.037999,2.599516 -4.897871,3.416371 -1.859867,0.816848 -3.761319,1.257738 -5.665628,1.339416 -1.904303,0.08168 -3.82131,-0.204643 -5.73197,-0.859763 -1.91066,-0.655128 -3.613429,-1.641644 -5.118789,-2.986735 -1.505368,-1.345091 -2.675567,-2.925686 -3.500139,-4.714589 -0.824568,-1.788901 -1.2597116,-3.62214 -1.3330399,-5.470904 -0.073319,-1.848764 0.2538937,-3.696281 0.9337299,-5.549706 0.679827,-1.853431 1.748135,-3.502398 3.156365,-4.972459 z m 2.440065,2.180281 c -2.181377,2.27716 -3.231274,5.012525 -3.139855,8.214893 0.109828,3.183148 1.345103,5.820502 3.71629,7.939242 1.554555,1.389054 3.359843,2.306671 5.405389,2.725681 2.045548,0.419001 4.083786,0.350002 6.103623,-0.252585 2.019834,-0.602587 3.757194,-1.653734 5.211451,-3.17184 1.454246,-1.518105 2.413689,-3.28218 2.878973,-5.273821 0.46528,-1.991638 0.397352,-3.96041 -0.203784,-5.90631 -0.60114,-1.945902 -1.678664,-3.604173 -3.23322,-4.993225 -1.554555,-1.389051 -3.359842,-2.306673 -5.405393,-2.725679 -2.045539,-0.419 -4.092991,-0.340396 -6.122663,0.253406 -2.029673,0.5938 -3.756558,1.672135 -5.210811,3.190238 z m -0.573161,9.919854 15.756214,-9.29963 c 0.101876,-0.08728 0.197095,-0.09137 0.285646,-0.01223 0.08852,0.07914 0.09173,0.171123 0.0095,0.275992 l -8.386837,15.884418 c -0.06188,0.140865 -0.145362,0.208937 -0.249778,0.222628 -0.104417,0.01367 -0.18313,-0.05663 -0.236135,-0.210998 l -2.217578,-4.299711 c -0.06158,-0.126351 -0.159961,-0.214266 -0.285332,-0.254952 l -4.640179,-1.827933 c -0.153607,-0.03026 -0.222479,-0.09182 -0.206612,-0.184625 0.01588,-0.09282 0.05936,-0.214455 0.171066,-0.292959 z"
   id="path2"
   style="fill:#2c4f54;fill-opacity:0.5;stroke:#bbcdc5;stroke-width:0.985955;stroke-miterlimit:4;stroke-dasharray:none;stroke-opacity:0.9" />
<path
   style="fill:#2c4f53;fill-opacity:0.499285;stroke:#e4e7e7;stroke-width:0.0816633;stroke-miterlimit:4;stroke-dasharray:none;stroke-opacity:0.9"
   d="m 16.307041,31.935108 c -0.374949,-0.417117 -0.757406,-0.906032 -1.059708,-1.354666 -1.699823,-2.522694 -2.16503,-6.030295 -1.201555,-9.059559 0.518626,-1.630597 1.248752,-2.824074 2.530972,-4.137164 1.31604,-1.347826 2.559533,-2.153529 4.265554,-2.764084 1.149872,-0.411509 2.197889,-0.617032 3.474584,-0.681375 2.533678,-0.127689 4.804574,0.441387 6.915482,1.732979 0.439602,0.268976 0.604361,0.398974 1.426954,1.125877 0.998446,0.882348 1.253366,1.15878 1.814541,1.967786 0.847518,1.221868 1.501031,2.868219 1.746311,4.399403 0.100047,0.624562 0.133749,1.937567 0.06628,2.582847 -0.163277,1.561695 -0.638238,3.049135 -1.371052,4.293768 -0.54039,0.917824 -0.769332,1.211197 -1.648931,2.113038 -0.620519,0.636169 -0.896694,0.893586 -1.2119,1.129337 -1.914216,1.431806 -4.252275,2.249988 -6.68115,2.337993 -2.487546,0.09013 -4.914811,-0.567146 -6.925792,-1.875421 -0.463573,-0.301585 -1.800828,-1.432787 -2.140598,-1.810755 z m 1.937926,-3.76719 c 1.258677,0.494636 2.330862,0.921686 2.382632,0.949006 0.0639,0.03369 0.465219,0.757963 1.249689,2.255262 0.665199,1.269641 1.187983,2.220154 1.231958,2.239908 0.09114,0.04093 0.245362,-0.04612 0.33475,-0.188964 0.03548,-0.05671 1.887609,-3.511615 4.115835,-7.677569 3.904624,-7.300191 4.049231,-7.578342 3.993564,-7.68159 -0.04304,-0.07978 -0.08119,-0.106094 -0.149714,-0.102969 -0.113322,0.0051 -15.320146,8.765092 -15.453991,8.902353 -0.120933,0.124017 -0.155217,0.328798 -0.06238,0.372597 0.03806,0.01791 1.09898,0.437332 2.357656,0.931966 z"
   id="path861" /><rect
   style="fill:#c7485e;fill-opacity:1;stroke:#3c4343;stroke-width:0.411112;stroke-opacity:0.9"
   id="rect2803"
   width="4.5046043"
   height="0.053010285"
   x="32.85136"
   y="-0.22508714"
   transform="matrix(0.73534433,0.67769367,-0.66702717,0.74503339,0,0)"
   inkscape:transform-center-x="3.54609"
   inkscape:transform-center-y="0.32597185" /><path
   style="fill:#cb4d64;fill-opacity:1;stroke:#e27364;stroke-width:0.0329537;stroke-opacity:0.9"
   d="m 24.933159,21.854613 c 0.07032,-0.04207 1.573696,-0.967034 3.34085,-2.055481 1.76715,-1.088448 3.262609,-1.996798 3.323238,-2.018554 0.09539,-0.03423 -3.391375,6.745026 -3.564308,6.930003 -0.04723,0.05055 -0.48609,-0.310832 -1.64601,-1.355298 -1.478994,-1.331781 -1.573295,-1.429172 -1.453784,-1.500656 z"
   id="path3397"
   inkscape:transform-center-x="1.4452202"
   inkscape:transform-center-y="-1.8028093" /><text
   xml:space="preserve"
   style="font-size:17.7699px;line-height:1.25;font-family:'Segoe Script';-inkscape-font-specification:'Segoe Script';fill:#e0e0e0;fill-opacity:1;stroke-width:0.44425"
   x="19.779634"
   y="9.5337172"
   id="text9344"
   transform="scale(1.0219263,0.97854416)"><tspan
     sodipodi:role="line"
     id="tspan9342"
     x="19.779634"
     y="9.5337172"
     style="fill:#e0e0e0;fill-opacity:1;stroke-width:0.44425">c</tspan></text><text
   xml:space="preserve"
   style="font-size:14.2395px;line-height:1.25;font-family:'Segoe Script';-inkscape-font-specification:'Segoe Script';fill:#e0e0e0;fill-opacity:1;stroke-width:0.355984"
   x="22.961092"
   y="43.709805"
   id="text11307"
   transform="scale(0.88842146,1.1255919)"><tspan
     sodipodi:role="line"
     id="tspan11305"
     x="22.961092"
     y="43.709805"
     style="fill:#e0e0e0;fill-opacity:1;stroke-width:0.355984">ю</tspan></text><text
   xml:space="preserve"
   style="font-size:16.3999px;line-height:1.25;font-family:'Segoe Script';-inkscape-font-specification:'Segoe Script';fill:#e0e0e0;fill-opacity:1;stroke-width:0.409994"
   x="-0.43531972"
   y="33.876419"
   id="text16794"
   transform="scale(1.3773363,0.72603909)"><tspan
     sodipodi:role="line"
     id="tspan16792"
     x="-0.43531972"
     y="33.876419"
     style="fill:#e0e0e0;fill-opacity:1;stroke-width:0.409994">з</tspan></text><text
   xml:space="preserve"
   style="font-size:17.0779px;line-height:1.25;font-family:'Segoe Script';-inkscape-font-specification:'Segoe Script';fill:#e0e0e0;fill-opacity:1;stroke-width:0.426951"
   x="28.250229"
   y="38.456444"
   id="text19318"
   transform="scale(1.3926286,0.71806653)"><tspan
     sodipodi:role="line"
     id="tspan19316"
     x="28.250229"
     y="38.456444"
     style="fill:#e0e0e0;fill-opacity:1;stroke-width:0.426951">в</tspan></text><text
   xml:space="preserve"
   style="font-size:7.22299px;line-height:1.25;font-family:'Segoe Script';-inkscape-font-specification:'Segoe Script';fill:#16272a;fill-opacity:0.799714;stroke-width:0.180573"
   x="7.5890508"
   y="30.758051"
   id="text17884"
   transform="scale(1.3359429,0.74853499)"><tspan
     sodipodi:role="line"
     id="tspan17882"
     x="7.5890508"
     y="30.758051"
     style="stroke-width:0.180573">_</tspan></text><text
   xml:space="preserve"
   style="font-size:7.35723px;line-height:1.25;font-family:'Segoe Script';-inkscape-font-specification:'Segoe Script';fill:#16272a;fill-opacity:0.799714;stroke-width:0.18393"
   x="26.058374"
   y="31.144127"
   id="text17884-6"
   transform="scale(1.360778,0.73487373)"><tspan
     sodipodi:role="line"
     id="tspan17882-2"
     x="26.058374"
     y="31.144127"
     style="stroke-width:0.18393">_</tspan></text><text
   xml:space="preserve"
   style="font-size:6.60499px;line-height:1.25;font-family:'Segoe Script';-inkscape-font-specification:'Segoe Script';fill:#16272a;fill-opacity:0.799714;stroke-width:0.165123"
   x="-29.823427"
   y="32.320698"
   id="text17884-0"
   transform="matrix(-0.0182868,-1.3682465,0.73013493,-0.05443362,0,0)"><tspan
     sodipodi:role="line"
     id="tspan17882-4"
     x="-29.823427"
     y="32.320698"
     style="stroke-width:0.165123">_</tspan></text><text
   xml:space="preserve"
   style="font-size:7.58321px;line-height:1.25;font-family:'Segoe Script';-inkscape-font-specification:'Segoe Script';fill:#16272a;fill-opacity:0.799714;stroke-width:0.189579"
   x="-10.714712"
   y="33.665897"
   id="text17884-9"
   transform="matrix(5.0245376e-4,-1.3605605,0.73499065,0.00147741,0,0)"><tspan
     sodipodi:role="line"
     id="tspan17882-7"
     x="-10.714712"
     y="33.665897"
     style="stroke-width:0.189579">_</tspan></text></svg>
