<?xml version="1.0" encoding="UTF-8" standalone="no"?>
<!-- Generator: Adobe Illustrator 22.0.1, SVG Export Plug-In . SVG Version: 6.00 Build 0)  -->

<svg
   version="1.1"
   id="Layer_1"
   x="0px"
   y="0px"
   viewBox="0 0 50 50"
   xml:space="preserve"
   sodipodi:docname="southwestWind.svg"
   width="50"
   height="50"
   inkscape:version="1.1.1 (3bf5ae0d25, 2021-09-20)"
   xmlns:inkscape="http://www.inkscape.org/namespaces/inkscape"
   xmlns:sodipodi="http://sodipodi.sourceforge.net/DTD/sodipodi-0.dtd"
   xmlns="http://www.w3.org/2000/svg"
   xmlns:svg="http://www.w3.org/2000/svg"><defs
   id="defs7" /><sodipodi:namedview
   id="namedview5"
   pagecolor="#ffffff"
   bordercolor="#666666"
   borderopacity="1.0"
   inkscape:pageshadow="2"
   inkscape:pageopacity="0.0"
   inkscape:pagecheckerboard="0"
   showgrid="false"
   inkscape:zoom="20.317534"
   inkscape:cx="15.110102"
   inkscape:cy="17.792514"
   inkscape:window-width="2400"
   inkscape:window-height="1321"
   inkscape:window-x="2391"
   inkscape:window-y="-9"
   inkscape:window-maximized="1"
   inkscape:current-layer="Layer_1"
   width="140px" />
<path
   d="m 35.775411,35.475514 c -2.008883,1.899765 -4.345987,3.169654 -6.992138,3.809968 -2.646157,0.640311 -5.273763,0.599357 -7.882821,-0.122871 -2.609058,-0.722223 -4.855874,-2.063563 -6.750312,-4.014702 -1.418489,-1.460947 -2.485565,-3.143611 -3.201746,-5.029052 -0.716169,-1.885443 -1.0290622,-3.783536 -0.9868702,-5.685554 0.04221,-1.902024 0.4773212,-3.788454 1.3053502,-5.659291 0.828044,-1.870844 1.975949,-3.50951 3.492456,-4.943652 1.496805,-1.415513 3.214494,-2.4868 5.133888,-3.214168 1.919386,-0.727367 3.856984,-1.066347 5.774946,-1.036452 1.917956,0.02989 3.825615,0.438278 5.703789,1.224832 1.878173,0.786563 3.526757,1.900859 4.954578,3.371421 1.427831,1.47056 2.50424,3.162834 3.220417,5.048281 0.716169,1.885444 1.038395,3.793141 0.996204,5.695163 -0.04219,1.902023 -0.486639,3.778843 -1.285654,5.640666 -0.799017,1.861831 -1.975438,3.490588 -3.482087,4.915411 z m -2.314389,-2.383659 c 2.333838,-2.207079 3.55984,-4.952062 3.668674,-8.244556 0.08913,-3.273865 -0.986423,-6.054723 -3.235475,-8.371099 -1.474484,-1.518622 -3.230364,-2.568323 -5.258822,-3.120577 -2.028463,-0.552252 -4.080158,-0.603162 -6.146807,-0.105275 -2.066644,0.497884 -3.877655,1.473058 -5.433553,2.944445 -1.555888,1.471389 -2.630166,3.224801 -3.222333,5.241306 -0.592161,2.016509 -0.647291,4.04139 -0.165393,6.07464 0.481902,2.03325 1.460348,3.799722 2.934837,5.31834 1.474485,1.518623 3.230367,2.568322 5.258827,3.120579 2.028454,0.55225 4.090009,0.593848 6.165982,0.105569 2.075976,-0.488278 3.878171,-1.491985 5.434063,-2.963372 z M 34.65833,22.943967 18.248788,31.548431 c -0.107802,0.08352 -0.203703,0.08202 -0.287692,-0.0044 -0.08398,-0.08652 -0.08141,-0.181125 0.0077,-0.283857 l 9.419748,-15.803501 c 0.07099,-0.140894 0.159105,-0.20578 0.264849,-0.213597 0.10574,-0.0078 0.180402,0.06907 0.223969,0.230679 l 1.958101,4.545834 c 0.05393,0.133371 0.14725,0.229486 0.270633,0.278735 l 4.546434,2.153394 c 0.1524,0.04024 0.217727,0.107523 0.195972,0.201844 -0.02175,0.09432 -0.07306,0.216581 -0.190185,0.290487 z"
   id="path2"
   style="fill:#2c4f54;fill-opacity:0.5;stroke:#bbcdc6;stroke-width:0.5;stroke-miterlimit:4;stroke-dasharray:none;stroke-opacity:0.9" />
<path
   style="fill:#2c4f53;fill-opacity:0.499285;stroke:#e4e7e7;stroke-width:0.0832593;stroke-miterlimit:4;stroke-dasharray:none;stroke-opacity:0.9"
   d="m 34.37622,17.799303 c 0.350269,0.452469 0.703463,0.979309 0.978628,1.459753 1.547228,2.701553 1.789082,6.341041 0.624669,9.400199 -0.626784,1.646686 -1.438137,2.830374 -2.812547,4.103226 -1.410666,1.30652 -2.713412,2.059429 -4.468836,2.582983 -1.183166,0.352871 -2.250603,0.499959 -3.538962,0.487636 -2.556831,-0.02444 -4.804415,-0.750018 -6.844497,-2.209521 -0.424854,-0.303946 -0.582202,-0.447908 -1.362782,-1.246827 -0.94746,-0.969753 -1.186059,-1.270014 -1.698391,-2.137367 -0.77375,-1.309989 -1.324989,-3.045016 -1.473018,-4.636371 -0.06038,-0.649108 -0.0096,-2.002838 0.09982,-2.662964 0.264904,-1.597623 0.838533,-3.099628 1.655893,-4.335808 0.60273,-0.911591 0.85193,-1.199515 1.794841,-2.073782 0.66518,-0.616715 0.959574,-0.864717 1.29183,-1.088014 2.017779,-1.356169 4.422343,-2.05457 6.871192,-1.995715 2.508003,0.06028 4.907189,0.886261 6.845685,2.356792 0.446862,0.338988 1.719078,1.585773 2.036486,1.995775 z m -2.192161,3.758848 c -1.234204,-0.586646 -2.285176,-1.092244 -2.335489,-1.12355 -0.0621,-0.03863 -0.419102,-0.808903 -1.111678,-2.398555 -0.587279,-1.347948 -1.051871,-2.35861 -1.094833,-2.381652 -0.08904,-0.04774 -0.249778,0.03238 -0.348901,0.173928 -0.03935,0.05621 -2.125075,3.498844 -4.634951,7.650335 -4.398169,7.27484 -4.561557,7.552287 -4.512217,7.661996 0.03815,0.08478 0.07484,0.114208 0.143952,0.11522 0.114319,0.0018 15.975331,-8.08045 16.118811,-8.213516 0.129639,-0.120223 0.177329,-0.328925 0.08676,-0.379726 -0.03714,-0.02078 -1.077258,-0.51783 -2.311463,-1.104475 z"
   id="path861" /><rect
   style="fill:#c7485e;fill-opacity:1;stroke:#3c4343;stroke-width:0.454714;stroke-opacity:0.9"
   id="rect2803"
   width="4.9846292"
   height="0.058606479"
   x="-37.814625"
   y="-0.16898541"
   transform="matrix(-0.70910756,-0.70510033,0.7354699,-0.67755739,0,0)"
   inkscape:transform-center-x="-4.0518191"
   inkscape:transform-center-y="-0.088035044" /><path
   style="fill:#cb4d64;fill-opacity:1;stroke:#e27364;stroke-width:0.0380605;stroke-opacity:0.9"
   d="m 26.240311,27.087343 c -0.08437,0.04333 -1.889901,0.998832 -4.012303,2.123361 -2.122403,1.124529 -3.917611,2.061539 -3.989345,2.08223 -0.112874,0.03257 4.397171,-7.501366 4.610332,-7.701451 0.0582,-0.05469 0.54134,0.390957 1.812038,1.671291 1.620243,1.632532 1.722683,1.750943 1.579291,1.824551 z"
   id="path3397"
   inkscape:transform-center-x="-1.4506878"
   inkscape:transform-center-y="2.06063" /><g
   aria-label="c"
   transform="scale(1.0219273,0.97854317)"
   id="text9344"
   style="font-size:17.77px;line-height:1.25;font-family:'Segoe Script';-inkscape-font-specification:'Segoe Script';fill:#e0e0e0;stroke-width:0.444248"><path
     d="m 29.154715,5.5975471 q 0,0.3123633 -0.225596,0.5639893 -0.234272,0.2603027 -0.407807,0.4425146 -0.173535,0.1735352 -0.329717,0.3210401 -0.156182,0.1475049 -0.329717,0.286333 -0.173535,0.1301514 -0.407807,0.3036865 -0.659434,0.4772217 -1.25813,0.8069385 -0.598697,0.3210401 -1.162686,0.5292823 -0.563989,0.1995654 -1.119302,0.286333 -0.546635,0.086768 -1.101948,0.086768 -0.581343,0 -1.041211,-0.216919 Q 21.310926,8.7819173 20.989886,8.4001399 20.677523,8.0183626 20.512664,7.5151106 20.347806,7.0031819 20.347806,6.4391926 v -0.043384 q 0,-0.572666 0.147505,-1.2147461 0.147505,-0.6507568 0.407807,-1.3015137 0.26898,-0.6507568 0.64208,-1.2754834 0.373101,-0.6334034 0.824292,-1.1800391 0.182212,-0.216919 0.433838,-0.4598682 0.260303,-0.25162598 0.546636,-0.45986817 0.29501,-0.20824219 0.607373,-0.33839357 0.32104,-0.13882812 0.624727,-0.13882812 0.208242,0 0.399131,0.13015137 0.190888,0.12147461 0.355747,0.32104004 0.164858,0.19956544 0.303686,0.45119142 0.138828,0.24294923 0.234273,0.50325193 0.09544,0.251626 0.147504,0.4858985 0.05206,0.2342725 0.05206,0.3991309 0,0.2516259 -0.156182,0.6507568 -0.156181,0.3991309 -0.3731,0.3991309 -0.312363,0 -0.520606,-0.4251612 Q 24.946487,2.7776007 24.88575,2.5606818 24.83369,2.3437628 24.755599,2.1355206 24.686185,1.9272784 24.56471,1.7537433 24.443236,1.5715314 24.226317,1.4847638 q -0.216919,0.05206 -0.442515,0.2255957 -0.216919,0.1735352 -0.433838,0.4251611 -0.208242,0.251626 -0.416484,0.5726661 -0.199566,0.3123633 -0.381778,0.6507568 -0.173535,0.3123633 -0.338393,0.7201709 -0.164859,0.3991309 -0.29501,0.8329688 -0.130151,0.4251612 -0.208242,0.8503223 -0.07809,0.4251611 -0.07809,0.7809082 0,0.251626 0.121475,0.5119287 0.121474,0.251626 0.312363,0.4598682 0.199565,0.2082422 0.442514,0.3383936 0.251626,0.1301514 0.511929,0.1301514 1.28416,0 2.550967,-0.5292823 1.266807,-0.5292822 2.412139,-1.5357862 0.633403,-0.5553125 1.049888,-0.5553125 0.121474,0 0.121474,0.2342725 z"
     id="path4035" /></g><g
   aria-label="ю"
   transform="scale(0.88842185,1.1255914)"
   id="text11307"
   style="font-size:14.2395px;line-height:1.25;font-family:'Segoe Script';-inkscape-font-specification:'Segoe Script';fill:#e0e0e0;stroke-width:0.355981"><path
     d="m 22.79457,40.8223 q 0,-0.02781 -0.03476,-0.04867 -0.02781,-0.02781 -0.06953,-0.06953 -0.04172,-0.04172 -0.07648,-0.111246 -0.02781,-0.06953 -0.02781,-0.194681 0,-0.111246 0.06258,-0.201633 0.06258,-0.09039 0.132104,-0.166869 0.07648,-0.07648 0.139058,-0.139058 0.06953,-0.06258 0.08344,-0.118199 0.118199,-0.667476 0.201633,-1.258471 0.08344,-0.590995 0.104293,-0.987309 0.007,-0.118199 0,-0.243351 0,-0.125152 -0.007,-0.250304 -0.007,-0.09039 -0.01391,-0.173822 0,-0.08343 0,-0.159916 0,-0.08344 0.06258,-0.187728 0.06258,-0.104293 0.152963,-0.194681 0.09734,-0.09039 0.208586,-0.14601 0.118199,-0.06258 0.229446,-0.06258 0.09734,0 0.19468,0.05562 0.09734,0.04867 0.173822,0.146011 0.07648,0.09039 0.125152,0.229445 0.04867,0.132104 0.04867,0.298973 0,0.125152 -0.02086,0.305927 -0.02086,0.180775 -0.05562,0.396314 -0.03477,0.21554 -0.08343,0.451938 -0.04172,0.236398 -0.08344,0.472796 -0.05562,0.326785 -0.111246,0.625759 -0.04867,0.298974 -0.07648,0.514513 0.02781,0.06258 0.04867,0.111246 0.02781,0.04172 0.06953,0.06953 0.04172,0.02781 0.104293,0.04172 0.06953,0.01391 0.180775,0.01391 0.298974,0 0.632712,-0.06258 0.333738,-0.06258 0.632712,-0.159916 0.298974,-0.09734 0.535372,-0.201634 0.243351,-0.111246 0.36155,-0.208586 0.07648,-0.06258 0.166869,-0.166869 0.09734,-0.104293 0.19468,-0.222492 0.09734,-0.125152 0.187728,-0.243351 0.09734,-0.125152 0.166869,-0.21554 0.236398,-0.298973 0.535372,-0.584042 0.298974,-0.285068 0.660524,-0.500607 0.36155,-0.215539 0.778723,-0.347644 0.424125,-0.132105 0.91778,-0.132105 0.375455,0 0.737005,0.187728 0.36155,0.180775 0.639665,0.493655 0.285068,0.312879 0.451938,0.723099 0.173822,0.403267 0.173822,0.848252 0,0.444984 -0.09039,0.813487 -0.08343,0.361549 -0.271162,0.771769 -0.104293,0.21554 -0.36155,0.514514 -0.257257,0.298974 -0.618806,0.618806 -0.354597,0.319833 -0.778723,0.632712 -0.424126,0.31288 -0.862157,0.563184 -0.438032,0.250303 -0.862158,0.403267 -0.417172,0.152963 -0.757864,0.152963 -0.45889,0 -0.785675,-0.152963 -0.326786,-0.159917 -0.535372,-0.41022 -0.208586,-0.257257 -0.305927,-0.584042 -0.09734,-0.326786 -0.09734,-0.660524 0,-0.271162 0.07648,-0.653571 0.08343,-0.389361 0.278115,-0.785675 -0.26421,0.166869 -0.590995,0.264209 -0.319833,0.09734 -0.590995,0.173822 -0.118199,0.03477 -0.264209,0.06258 -0.146011,0.02086 -0.292021,0.04172 -0.139058,0.02086 -0.271163,0.04172 -0.125152,0.02086 -0.215539,0.03476 -0.139058,0.02781 -0.194681,0.111246 -0.04867,0.07648 -0.07648,0.201634 -0.02781,0.118199 -0.08343,0.312879 -0.05562,0.194681 -0.111246,0.403267 -0.06258,0.222493 -0.132105,0.458891 -0.06953,0.236397 -0.125152,0.451937 -0.04867,0.208586 -0.09039,0.389361 -0.03476,0.173822 -0.03476,0.271162 0,0.09039 -0.07648,0.194681 -0.06953,0.104293 -0.166869,0.194681 -0.09039,0.09734 -0.187728,0.159916 -0.09039,0.06258 -0.139058,0.06258 -0.104293,0 -0.201633,-0.06953 -0.09039,-0.06953 -0.159917,-0.159916 -0.06953,-0.09039 -0.111246,-0.180775 -0.04172,-0.09734 -0.04172,-0.14601 0,-0.06258 0.04867,-0.222493 0.05562,-0.159916 0.111246,-0.326785 0.03477,-0.104293 0.09039,-0.285068 0.05562,-0.180775 0.111246,-0.396314 0.06258,-0.222493 0.118199,-0.458891 0.06258,-0.236397 0.111246,-0.444984 0.04867,-0.208586 0.07648,-0.36155 0.02781,-0.159916 0.02781,-0.229445 z m 8.378222,-1.571351 q 0,-0.695288 -0.403267,-1.084649 -0.396315,-0.396314 -1.140273,-0.396314 -0.104293,0 -0.257256,0.08343 -0.152964,0.08344 -0.333739,0.215539 -0.173822,0.125152 -0.354597,0.278116 -0.173822,0.152963 -0.333738,0.298974 -0.152963,0.14601 -0.264209,0.264209 -0.111247,0.118199 -0.152964,0.166869 -0.14601,0.173822 -0.305927,0.479749 -0.152963,0.298974 -0.285068,0.646618 -0.132104,0.347644 -0.222492,0.702241 -0.08343,0.347644 -0.08343,0.611853 0,0.159917 0.04172,0.326786 0.04867,0.166869 0.139057,0.305926 0.09734,0.132105 0.243351,0.222493 0.146011,0.08343 0.340691,0.08343 0.21554,0 0.549278,-0.125152 0.333738,-0.125151 0.702241,-0.347644 0.375456,-0.222492 0.750911,-0.528419 0.382409,-0.305926 0.681382,-0.660523 0.305927,-0.354597 0.493655,-0.743959 0.194681,-0.396314 0.194681,-0.799581 z"
     id="path4077" /></g><g
   aria-label="з"
   transform="scale(1.3773356,0.72603946)"
   id="text16794"
   style="font-size:16.3999px;line-height:1.25;font-family:'Segoe Script';-inkscape-font-specification:'Segoe Script';fill:#e0e0e0;stroke-width:0.409997"
   inkscape:transform-center-x="-26.18428"
   inkscape:transform-center-y="-15.356194"><path
     d="m 0.87342269,36.925316 q 0.0800776,0 0.12812421,0.05605 0.056054,0.05605 0.088085,0.136132 0.032031,0.08809 0.040039,0.192186 0.016016,0.104101 0.016016,0.200195 0,0.184178 0.064062,0.400388 0.07207,0.216209 0.2242174,0.400388 0.1601552,0.184179 0.4083959,0.304295 0.2482407,0.128124 0.6085901,0.128124 0.4884736,0 1.0089782,-0.256248 0.5205047,-0.256249 0.9529239,-0.712691 0.4324193,-0.456443 0.7046833,-1.089056 0.2802717,-0.624606 0.2802717,-1.369328 0,-0.688667 -0.1441398,-1.169133 Q 5.1095298,33.666156 4.8773046,33.369869 4.6530872,33.065574 4.3568,32.929442 4.0605127,32.79331 3.7642255,32.79331 q -0.1121087,0 -0.2482407,0.05605 -0.136132,0.04805 -0.2802718,0.128124 -0.1361319,0.07207 -0.2802717,0.160155 -0.136132,0.08809 -0.2482407,0.160156 -0.1921863,0.128124 -0.3683571,0.216209 -0.1681631,0.08809 -0.4484348,0.08809 -0.2162096,0 -0.3763649,-0.160156 -0.1521475,-0.168163 -0.1521475,-0.440427 0,-0.208201 0.1441397,-0.352341 0.1521476,-0.14414 0.4644503,-0.272264 0.6646444,-0.272264 1.1851491,-0.552536 0.5285124,-0.288279 0.8888618,-0.616598 0.3603494,-0.336326 0.5525357,-0.736714 0.1921863,-0.400388 0.1921863,-0.912885 0,-0.200194 -0.064062,-0.39238 Q 4.6691028,28.965598 4.5489863,28.813451 4.4288699,28.653296 4.2526991,28.557203 4.084536,28.453102 3.8603186,28.453102 q -0.4804658,0 -0.9128851,0.296287 -0.4324192,0.296287 -0.8488229,0.728706 -0.1841786,0.192187 -0.3042951,0.280272 -0.1201164,0.08008 -0.2562484,0.08008 -0.1121087,0 -0.2001941,-0.05606 -0.080078,-0.06406 -0.136132,-0.144139 -0.048047,-0.08809 -0.080078,-0.184179 -0.024023,-0.104101 -0.024023,-0.176171 0,-0.192186 0.1041009,-0.360349 0.1121087,-0.176171 0.2962873,-0.328318 0.4003882,-0.336327 0.7847608,-0.552536 0.3843727,-0.21621 0.6326134,-0.320311 0.2802717,-0.112108 0.576559,-0.216209 0.304295,-0.104101 0.5685512,-0.104101 0.3763649,0 0.7206988,0.136132 0.3443338,0.128124 0.6005823,0.384372 0.2642562,0.248241 0.4164037,0.616598 0.1601553,0.368357 0.1601553,0.832808 0,0.672652 -0.3283184,1.337296 -0.3203105,0.664645 -1.0970636,1.28925 0.5365202,0.02402 0.9369084,0.272264 0.4003882,0.248241 0.6646444,0.656637 0.2722639,0.408396 0.4003882,0.944916 0.1361319,0.528512 0.1361319,1.121087 0,0.592574 -0.1601552,1.177141 -0.1601553,0.584567 -0.4564426,1.121087 -0.2882795,0.53652 -0.6966754,0.992963 -0.4003882,0.456442 -0.8888618,0.792769 -0.4804659,0.336326 -1.0330016,0.528512 -0.5445279,0.192186 -1.1210869,0.192186 -0.5525357,0 -0.9609317,-0.184178 Q 0.94549257,39.431746 0.6732286,39.159482 0.40897239,38.887218 0.2728404,38.574915 0.13670842,38.262612 0.13670842,37.998356 q 0,-0.200194 0.0720699,-0.432419 0.0800776,-0.232225 0.17617081,-0.368357 0.0640621,-0.08809 0.18417857,-0.184179 0.12011646,-0.08808 0.30429502,-0.08808 z"
     id="path4098" /></g><g
   aria-label="в"
   transform="scale(1.3926245,0.71806865)"
   id="text19318"
   style="font-size:17.0779px;line-height:1.25;font-family:'Segoe Script';-inkscape-font-specification:'Segoe Script';fill:#e0e0e0;stroke-width:0.426953"><path
     d="m 34.766791,28.510571 q 0,-0.100066 -0.04169,-0.200132 -0.03336,-0.108405 -0.108405,-0.191793 -0.06671,-0.09173 -0.183454,-0.150099 -0.108404,-0.05837 -0.258503,-0.05837 -0.291859,0 -0.608734,0.20847 -0.308536,0.208471 -0.625411,0.575379 -0.308537,0.358569 -0.600395,0.858898 -0.291859,0.49199 -0.542023,1.067369 -0.250165,0.575378 -0.450297,1.209128 -0.191792,0.625412 -0.308536,1.259162 0.07505,-0.05003 0.225148,-0.158438 0.150099,-0.116743 0.333553,-0.258503 0.191793,-0.150099 0.400263,-0.316875 0.21681,-0.175115 0.408602,-0.341892 0.200132,-0.166776 0.366908,-0.316875 0.166777,-0.150099 0.266843,-0.258503 0.925608,-1.000658 1.325872,-1.734474 0.400263,-0.733816 0.400263,-1.192451 z m -0.258503,8.989246 q -0.258504,0.383585 -0.625412,0.750493 -0.358569,0.35857 -0.792188,0.633751 -0.433618,0.275181 -0.925608,0.433618 -0.483652,0.158438 -0.983981,0.116744 -0.35023,-0.02502 -0.667105,-0.225148 -0.316876,-0.208471 -0.558701,-0.583718 -0.241826,-0.383585 -0.383586,-0.933947 -0.14176,-0.550362 -0.14176,-1.267501 0,-0.458635 0.05003,-0.992319 0.05003,-0.542023 0.133421,-1.092385 0.08339,-0.550362 0.183454,-1.075708 0.108405,-0.525346 0.208471,-0.967303 0.133421,-0.600395 0.35023,-1.184112 0.216809,-0.592056 0.483652,-1.134079 0.266842,-0.550362 0.575378,-1.034014 0.308536,-0.483651 0.63375,-0.875576 0.450296,-0.525345 1.025675,-0.84222 0.583717,-0.316876 1.367566,-0.316876 0.325214,0 0.592056,0.133422 0.266842,0.133421 0.458635,0.35023 0.191793,0.20847 0.291859,0.475313 0.108404,0.266842 0.108404,0.525345 0,0.358569 -0.150098,0.800527 -0.14176,0.433618 -0.416941,0.908931 -0.275181,0.475313 -0.667106,0.958964 -0.391924,0.483651 -0.892253,0.933948 0.116743,0.0083 0.266842,0.04169 0.158437,0.02502 0.325214,0.100066 0.175115,0.07505 0.35023,0.200131 0.183454,0.125082 0.350231,0.316875 0.07505,0.09173 0.166776,0.250165 0.09173,0.150099 0.166776,0.375247 0.08339,0.216809 0.133421,0.500329 0.05837,0.28352 0.05837,0.625411 0,0.667106 -0.241826,1.442616 -0.233487,0.767171 -0.833881,1.651086 z m -0.233487,-3.068685 q 0,-0.458635 -0.133421,-0.767172 -0.133422,-0.316875 -0.316876,-0.500329 -0.183454,-0.191793 -0.375246,-0.266842 -0.191793,-0.08339 -0.308537,-0.08339 -0.108404,0 -0.341891,0.166776 -0.233487,0.166777 -0.500329,0.366908 -0.200132,0.175115 -0.400264,0.325214 -0.200131,0.150099 -0.375246,0.291859 -0.166777,0.14176 -0.308537,0.28352 -0.14176,0.14176 -0.233487,0.300197 -0.233486,0.42528 -0.275181,0.967303 -0.04169,0.542023 -0.04169,1.109063 0,0.375247 0.07505,0.675444 0.08339,0.291859 0.200131,0.500329 0.125083,0.208471 0.266843,0.325214 0.141759,0.108405 0.258503,0.108405 0.28352,0 0.642089,-0.116744 0.358569,-0.116743 0.733816,-0.458635 0.325214,-0.300197 0.583717,-0.675444 0.266842,-0.375247 0.450296,-0.792188 0.191793,-0.416941 0.291859,-0.867237 0.108405,-0.450296 0.108405,-0.892253 z"
     id="path4056" /></g><text
   xml:space="preserve"
   style="font-size:7.69848px;line-height:1.25;font-family:'Segoe Script';-inkscape-font-specification:'Segoe Script';fill:#16272a;fill-opacity:0.799714;stroke-width:0.192462"
   x="7.2649593"
   y="32.101944"
   id="text17884"
   transform="scale(1.3847066,0.72217464)"><tspan
     sodipodi:role="line"
     id="tspan17882"
     x="7.2649593"
     y="32.101944"
     style="stroke-width:0.192462">_</tspan></text><text
   xml:space="preserve"
   style="font-size:8.1322px;line-height:1.25;font-family:'Segoe Script';-inkscape-font-specification:'Segoe Script';fill:#16272a;fill-opacity:0.799714;stroke-width:0.203303"
   x="24.16008"
   y="33.70528"
   id="text17884-6"
   transform="scale(1.4627207,0.6836575)"><tspan
     sodipodi:role="line"
     id="tspan17882-2"
     x="24.16008"
     y="33.70528"
     style="stroke-width:0.203303">_</tspan></text><text
   xml:space="preserve"
   style="font-size:7.1826px;line-height:1.25;font-family:'Segoe Script';-inkscape-font-specification:'Segoe Script';fill:#16272a;fill-opacity:0.799714;stroke-width:0.179564"
   x="-28.164949"
   y="35.175041"
   id="text17884-0"
   transform="matrix(-0.01692218,-1.478584,0.67564952,-0.0588232,0,0)"><tspan
     sodipodi:role="line"
     id="tspan17882-4"
     x="-28.164949"
     y="35.175041"
     style="stroke-width:0.179564">_</tspan></text><text
   xml:space="preserve"
   style="font-size:7.56164px;line-height:1.25;font-family:'Segoe Script';-inkscape-font-specification:'Segoe Script';fill:#16272a;fill-opacity:0.799714;stroke-width:0.18904"
   x="-10.315804"
   y="33.497726"
   id="text17884-9"
   transform="matrix(5.0706542e-4,-1.3481865,0.74173659,0.00146396,0,0)"><tspan
     sodipodi:role="line"
     id="tspan17882-7"
     x="-10.315804"
     y="33.497726"
     style="stroke-width:0.18904">_</tspan></text></svg>
