<?xml version="1.0" encoding="UTF-8" standalone="no"?>
<!-- Generator: Adobe Illustrator 22.0.1, SVG Export Plug-In . SVG Version: 6.00 Build 0)  -->

<svg
   version="1.1"
   id="Layer_1"
   x="0px"
   y="0px"
   viewBox="0 0 50 50"
   xml:space="preserve"
   sodipodi:docname="southEastWind.svg"
   width="50"
   height="50"
   inkscape:version="1.1.1 (3bf5ae0d25, 2021-09-20)"
   xmlns:inkscape="http://www.inkscape.org/namespaces/inkscape"
   xmlns:sodipodi="http://sodipodi.sourceforge.net/DTD/sodipodi-0.dtd"
   xmlns="http://www.w3.org/2000/svg"
   xmlns:svg="http://www.w3.org/2000/svg"><defs
   id="defs7" /><sodipodi:namedview
   id="namedview5"
   pagecolor="#ffffff"
   bordercolor="#666666"
   borderopacity="1.0"
   inkscape:pageshadow="2"
   inkscape:pageopacity="0.0"
   inkscape:pagecheckerboard="0"
   showgrid="false"
   inkscape:zoom="20.317534"
   inkscape:cx="25.347564"
   inkscape:cy="28.522162"
   inkscape:window-width="2400"
   inkscape:window-height="1321"
   inkscape:window-x="2391"
   inkscape:window-y="-9"
   inkscape:window-maximized="1"
   inkscape:current-layer="Layer_1"
   width="140px" />
<path
   d="m 34.482077,13.665003 c 2.105696,1.717975 3.630802,3.829028 4.573335,6.314558 0.942533,2.485534 1.21293,5.034527 0.811196,7.646993 -0.401734,2.612463 -1.455123,4.948196 -3.149833,7.01563 -1.268943,1.548027 -2.797463,2.782304 -4.566881,3.701075 -1.769417,0.918759 -3.598956,1.448572 -5.474338,1.63505 -1.875392,0.186468 -3.781901,-0.0094 -5.719536,-0.587461 -1.937642,-0.578125 -3.684783,-1.493694 -5.274384,-2.790596 -1.568953,-1.280056 -2.825517,-2.815116 -3.767732,-4.586578 -0.942212,-1.771452 -1.504645,-3.606958 -1.702017,-5.467542 -0.197377,-1.860577 -0.02133,-3.756421 0.530082,-5.668917 0.551421,-1.912495 1.452268,-3.641871 2.729562,-5.200081 1.277291,-1.558218 2.81416,-2.802677 4.583581,-3.721443 1.76942,-0.918763 3.6073,-1.458755 5.482689,-1.645242 1.875387,-0.18648 3.773552,0.01952 5.698887,0.570624 1.925351,0.55109 3.666118,1.495452 5.245389,2.78393 z m -2.070386,2.525732 C 29.965368,14.194856 27.121069,13.3359 23.87045,13.624051 c -3.229973,0.304993 -5.837426,1.678736 -7.849372,4.133174 -1.319039,1.60913 -2.143681,3.434673 -2.446918,5.464675 -0.303236,2.030003 -0.110718,4.022581 0.623241,5.964043 0.733955,1.94146 1.907038,3.578364 3.537923,4.908957 1.630884,1.330578 3.48216,2.161149 5.535154,2.493481 2.052994,0.332328 4.050729,0.14369 5.993196,-0.56591 1.942467,-0.709604 3.56388,-1.868086 4.882913,-3.477224 1.319038,-1.609132 2.143677,-3.434675 2.44692,-5.464678 0.303232,-2.029997 0.100396,-4.031006 -0.625218,-5.982648 -0.725612,-1.951644 -1.925713,-3.576599 -3.556598,-4.907186 z m -10.120728,0.05363 10.401581,14.85964 c 0.09487,0.0944 0.104737,0.187427 0.0296,0.279087 -0.07516,0.09164 -0.168492,0.100476 -0.28005,0.02645 L 15.787615,24.178008 c -0.146944,-0.05189 -0.221169,-0.129452 -0.241359,-0.2309 -0.02016,-0.101452 0.0466,-0.182927 0.200363,-0.244427 l 4.238738,-2.439194 c 0.124775,-0.06815 0.208258,-0.170001 0.242101,-0.295349 l 1.580043,-4.659328 c 0.02155,-0.152365 0.07999,-0.223654 0.175319,-0.213866 0.09533,0.0099 0.221617,0.04484 0.308143,0.149426 z"
   id="path2"
   style="fill:#2c4f54;fill-opacity:0.5;stroke:#bbcdc6;stroke-width:0.5;stroke-miterlimit:4;stroke-dasharray:none;stroke-opacity:0.9" />
<path
   style="fill:#2c4f53;fill-opacity:0.499285;stroke:#e4e7e7;stroke-width:0.0811514;stroke-miterlimit:4;stroke-dasharray:none;stroke-opacity:0.9"
   d="m 17.193975,17.335351 c 0.399726,-0.390229 0.871961,-0.792476 1.308456,-1.114546 2.454431,-1.81098 5.990576,-2.493421 9.133284,-1.762634 1.691662,0.393374 2.952628,1.020251 4.37113,2.173059 1.456007,1.183211 2.35609,2.332217 3.087837,3.94142 0.493192,1.084614 0.770321,2.0844 0.918777,3.314673 0.294618,2.441551 -0.136308,4.675201 -1.312265,6.802054 -0.244896,0.442922 -0.366357,0.61086 -1.051944,1.454492 -0.832201,1.023991 -1.096689,1.288827 -1.882759,1.885118 -1.187228,0.900558 -2.818677,1.641662 -4.35958,1.980379 -0.628524,0.138166 -1.961346,0.257813 -2.621833,0.235357 -1.598492,-0.05434 -3.14176,-0.414968 -4.454915,-1.041057 -0.968357,-0.461681 -1.281539,-0.66361 -2.255704,-1.454364 -0.687191,-0.557843 -0.966885,-0.80783 -1.227089,-1.096995 -1.580304,-1.756065 -2.564261,-3.962669 -2.811711,-6.305506 -0.253421,-2.399433 0.257004,-4.790136 1.456422,-6.82147 0.276493,-0.468265 1.339683,-1.836376 1.70189,-2.18999 z m 3.956381,1.624129 c -0.421066,1.249919 -0.785543,2.315019 -0.809954,2.366889 -0.03012,0.06402 -0.740411,0.500121 -2.211792,1.357975 -1.247661,0.727429 -2.180108,1.29598 -2.197333,1.339812 -0.03568,0.09085 0.06285,0.234202 0.213902,0.311167 0.05998,0.03054 3.693249,1.592421 8.073958,3.470822 7.676518,3.291608 7.968734,3.412998 8.070094,3.352322 0.07832,-0.04691 0.102585,-0.08555 0.09496,-0.151598 -0.01254,-0.109252 -9.908416,-14.23306 -10.056683,-14.353383 -0.133962,-0.108711 -0.344404,-0.12829 -0.382901,-0.0356 -0.01573,0.03799 -0.373187,1.091691 -0.794253,2.341607 z"
   id="path861" /><rect
   style="fill:#c7485e;fill-opacity:1;stroke:#3c4343;stroke-width:0.404327;stroke-opacity:0.9"
   id="rect2803"
   width="4.4507213"
   height="0.051896125"
   x="0.48945478"
   y="-36.697689"
   transform="matrix(-0.61893822,0.78543967,-0.75693469,-0.65349054,0,0)"
   inkscape:transform-center-x="0.47579176"
   inkscape:transform-center-y="-3.5726929" /><path
   style="fill:#cb4d64;fill-opacity:1;stroke:#e27364;stroke-width:0.0336421;stroke-opacity:0.9"
   d="m 27.774981,24.705151 c 0.04847,0.0681 1.110361,1.522209 2.359816,3.231354 1.249452,1.709142 2.29376,3.156465 2.320679,3.216265 0.04237,0.09412 -7.161889,-2.933454 -7.36444,-3.094875 -0.05533,-0.04406 0.28068,-0.515556 1.260218,-1.76833 1.24899,-1.597391 1.34139,-1.700173 1.423715,-1.584423 z"
   id="path3397"
   inkscape:transform-center-x="-1.853455"
   inkscape:transform-center-y="-1.7028029" /><g
   aria-label="c"
   transform="scale(1.0219263,0.97854415)"
   id="text9344"
   style="font-size:17.7699px;line-height:1.25;font-family:'Segoe Script';-inkscape-font-specification:'Segoe Script';fill:#e0e0e0;stroke-width:0.444247"><path
     d="m 29.55108,5.786561 q 0,0.3123615 -0.225594,0.563986 -0.234271,0.2603013 -0.407806,0.4425122 -0.173534,0.1735342 -0.329715,0.3210382 -0.15618,0.1475041 -0.329714,0.2863314 -0.173535,0.1301506 -0.407806,0.3036848 -0.65943,0.477219 -1.258122,0.8069339 -0.598693,0.3210382 -1.162679,0.5292792 -0.563987,0.1995643 -1.119296,0.2863314 -0.546633,0.086767 -1.101942,0.086767 -0.581339,0 -1.041205,-0.2169177 Q 21.707336,8.9709131 21.386297,8.5891379 21.073936,8.2073627 20.909078,7.7041136 20.744221,7.1921878 20.744221,6.6282017 v -0.043384 q 0,-0.5726628 0.147504,-1.2147392 0.147504,-0.6507532 0.407805,-1.3015063 0.268978,-0.6507532 0.642077,-1.2754762 0.373098,-0.6333997 0.824287,-1.1800324 0.182211,-0.2169177 0.433835,-0.4598655 0.260302,-0.2516246 0.546633,-0.45986561 0.295008,-0.20824101 0.60737,-0.33839164 0.321038,-0.13882734 0.624723,-0.13882734 0.208241,0 0.399128,0.13015063 0.190888,0.12147393 0.355745,0.32103823 0.164858,0.1995643 0.303685,0.45118883 0.138827,0.2429479 0.234271,0.5032491 0.09544,0.2516246 0.147504,0.4858957 0.05206,0.2342711 0.05206,0.3991286 0,0.2516246 -0.156181,0.6507532 -0.156181,0.3991286 -0.373099,0.3991286 -0.312361,0 -0.520602,-0.4251588 Q 25.342876,2.9666307 25.282139,2.7497129 25.230079,2.5327952 25.151989,2.3245542 25.082575,2.1163132 24.961101,1.942779 24.839627,1.7605682 24.62271,1.6738011 24.405792,1.7258613 24.180197,1.8993955 23.96328,2.0729297 23.746362,2.3245542 23.538121,2.5761788 23.32988,2.897217 23.130316,3.2095785 22.948105,3.5479701 22.774571,3.8603317 22.609713,4.268137 q -0.164857,0.3991286 -0.295008,0.832964 -0.130151,0.4251587 -0.208241,0.8503174 -0.07809,0.4251588 -0.07809,0.7809038 0,0.2516246 0.121474,0.5119258 0.121474,0.2516246 0.312361,0.4598656 0.199564,0.208241 0.442512,0.3383916 0.251625,0.1301507 0.511926,0.1301507 1.284153,0 2.550952,-0.5292793 1.2668,-0.5292792 2.412125,-1.5357774 0.6334,-0.5553093 1.049882,-0.5553093 0.121474,0 0.121474,0.2342711 z"
     id="path3846" /></g><g
   aria-label="ю"
   transform="scale(0.88842169,1.1255916)"
   id="text11307"
   style="font-size:14.2395px;line-height:1.25;font-family:'Segoe Script';-inkscape-font-specification:'Segoe Script';fill:#e0e0e0;stroke-width:0.355984"><path
     d="m 24.512304,40.998314 q 0,-0.02781 -0.03477,-0.04867 -0.02781,-0.02781 -0.06953,-0.06953 -0.04172,-0.04172 -0.07648,-0.111246 -0.02781,-0.06953 -0.02781,-0.194681 0,-0.111246 0.06258,-0.201633 0.06258,-0.09039 0.132105,-0.166869 0.07648,-0.07648 0.139057,-0.139058 0.06953,-0.06258 0.08344,-0.118199 0.118199,-0.667476 0.201634,-1.258471 0.08343,-0.590995 0.104293,-0.987309 0.007,-0.118199 0,-0.243351 0,-0.125152 -0.007,-0.250304 -0.007,-0.09039 -0.01391,-0.173822 0,-0.08344 0,-0.159916 0,-0.08344 0.06258,-0.187728 0.06258,-0.104293 0.152963,-0.194681 0.09734,-0.09039 0.208587,-0.14601 0.118199,-0.06258 0.229445,-0.06258 0.09734,0 0.194681,0.05562 0.09734,0.04867 0.173822,0.14601 0.07648,0.09039 0.125151,0.229446 0.04867,0.132104 0.04867,0.298973 0,0.125152 -0.02086,0.305927 -0.02086,0.180775 -0.05562,0.396314 -0.03476,0.21554 -0.08343,0.451938 -0.04172,0.236398 -0.08343,0.472796 -0.05562,0.326785 -0.111246,0.625759 -0.04867,0.298974 -0.07648,0.514513 0.02781,0.06258 0.04867,0.111246 0.02781,0.04172 0.06953,0.06953 0.04172,0.02781 0.104293,0.04172 0.06953,0.01391 0.180775,0.01391 0.298974,0 0.632712,-0.06258 0.333739,-0.06258 0.632712,-0.159916 0.298974,-0.09734 0.535372,-0.201634 0.243351,-0.111246 0.36155,-0.208586 0.07648,-0.06258 0.166869,-0.166869 0.09734,-0.104294 0.194681,-0.222493 0.09734,-0.125151 0.187728,-0.24335 0.09734,-0.125152 0.166869,-0.21554 0.236398,-0.298974 0.535372,-0.584042 0.298974,-0.285068 0.660523,-0.500607 0.36155,-0.215539 0.778723,-0.347644 0.424126,-0.132105 0.91778,-0.132105 0.375456,0 0.737006,0.187728 0.361549,0.180775 0.639665,0.493654 0.285068,0.31288 0.451937,0.7231 0.173822,0.403267 0.173822,0.848252 0,0.444984 -0.09039,0.813487 -0.08343,0.361549 -0.271162,0.771769 -0.104293,0.21554 -0.36155,0.514514 -0.257256,0.298973 -0.618806,0.618806 -0.354597,0.319832 -0.778723,0.632712 -0.424125,0.31288 -0.862157,0.563183 -0.438031,0.250304 -0.862157,0.403268 -0.417173,0.152963 -0.757864,0.152963 -0.45889,0 -0.785676,-0.152963 -0.326785,-0.159917 -0.535372,-0.41022 -0.208586,-0.257257 -0.305926,-0.584042 -0.09734,-0.326786 -0.09734,-0.660524 0,-0.271162 0.07648,-0.653571 0.08344,-0.389361 0.278115,-0.785675 -0.264209,0.166869 -0.590995,0.264209 -0.319832,0.09734 -0.590994,0.173822 -0.118199,0.03476 -0.26421,0.06258 -0.14601,0.02086 -0.292021,0.04172 -0.139058,0.02086 -0.271162,0.04172 -0.125152,0.02086 -0.21554,0.03476 -0.139057,0.02781 -0.19468,0.111246 -0.04867,0.07648 -0.07648,0.201634 -0.02781,0.118199 -0.08343,0.312879 -0.05562,0.194681 -0.111246,0.403267 -0.06258,0.222493 -0.132104,0.45889 -0.06953,0.236398 -0.125152,0.451938 -0.04867,0.208586 -0.09039,0.389361 -0.03476,0.173822 -0.03476,0.271162 0,0.09039 -0.07648,0.194681 -0.06953,0.104293 -0.166869,0.194681 -0.09039,0.09734 -0.187728,0.159916 -0.09039,0.06258 -0.139057,0.06258 -0.104294,0 -0.201634,-0.06953 -0.09039,-0.06953 -0.159916,-0.159916 -0.06953,-0.09039 -0.111246,-0.180775 -0.04172,-0.09734 -0.04172,-0.146011 0,-0.06258 0.04867,-0.222492 0.05562,-0.159916 0.111246,-0.326785 0.03476,-0.104293 0.09039,-0.285068 0.05562,-0.180775 0.111246,-0.396314 0.06258,-0.222493 0.118199,-0.458891 0.06258,-0.236398 0.111246,-0.444984 0.04867,-0.208586 0.07648,-0.36155 0.02781,-0.159916 0.02781,-0.229445 z m 8.378221,-1.571351 q 0,-0.695288 -0.403267,-1.084649 -0.396314,-0.396315 -1.140273,-0.396315 -0.104293,0 -0.257256,0.08344 -0.152963,0.08344 -0.333738,0.215539 -0.173822,0.125152 -0.354597,0.278116 -0.173822,0.152963 -0.333739,0.298973 -0.152963,0.146011 -0.264209,0.26421 -0.111246,0.118199 -0.152963,0.166869 -0.146011,0.173822 -0.305927,0.479749 -0.152964,0.298974 -0.285068,0.646618 -0.132105,0.347644 -0.222493,0.702241 -0.08343,0.347644 -0.08343,0.611853 0,0.159917 0.04172,0.326786 0.04867,0.166869 0.139058,0.305926 0.09734,0.132105 0.243351,0.222493 0.14601,0.08343 0.340691,0.08343 0.215539,0 0.549277,-0.125152 0.333739,-0.125152 0.702241,-0.347644 0.375456,-0.222492 0.750912,-0.528419 0.382408,-0.305926 0.681382,-0.660523 0.305927,-0.354597 0.493654,-0.743959 0.194681,-0.396314 0.194681,-0.799581 z"
     id="path3888" /></g><g
   aria-label="з"
   transform="scale(1.3773373,0.72603857)"
   id="text16794"
   style="font-size:16.3999px;line-height:1.25;font-family:'Segoe Script';-inkscape-font-specification:'Segoe Script';fill:#e0e0e0;stroke-width:0.409999"><path
     d="m 0.81421305,36.813255 q 0.0800776,0 0.12812422,0.05606 0.0560544,0.05605 0.0880854,0.136132 0.032031,0.08808 0.040039,0.192186 0.016015,0.104101 0.016015,0.200194 0,0.184179 0.064062,0.400388 0.07207,0.21621 0.2242174,0.400388 0.1601553,0.184179 0.408396,0.304295 0.2482407,0.128125 0.60859,0.128125 0.4884736,0 1.0089783,-0.256249 0.5205046,-0.256248 0.9529239,-0.712691 0.4324192,-0.456442 0.7046832,-1.089056 0.2802717,-0.624605 0.2802717,-1.369327 0,-0.688668 -0.1441397,-1.169134 Q 5.0503201,33.554095 4.818095,33.257808 4.5938776,32.953513 4.2975903,32.817381 4.0013031,32.681249 3.7050158,32.681249 q -0.1121087,0 -0.2482407,0.05605 -0.136132,0.04805 -0.2802717,0.128125 -0.136132,0.07207 -0.2802717,0.160155 -0.136132,0.08808 -0.2482407,0.160155 -0.1921864,0.128124 -0.3683572,0.21621 -0.168163,0.08808 -0.4484347,0.08808 -0.2162097,0 -0.3763649,-0.160155 -0.1521476,-0.168163 -0.1521476,-0.440427 0,-0.208202 0.1441398,-0.352342 0.1521475,-0.144139 0.4644503,-0.272264 0.6646444,-0.272264 1.1851491,-0.552535 0.5285124,-0.28828 0.8888617,-0.616598 0.3603494,-0.336326 0.5525358,-0.736714 0.1921863,-0.400389 0.1921863,-0.912886 0,-0.200194 -0.064062,-0.39238 Q 4.6098931,28.853538 4.4897767,28.70139 4.3696602,28.541235 4.1934894,28.445142 4.0253264,28.341041 3.801109,28.341041 q -0.4804659,0 -0.9128851,0.296287 -0.4324193,0.296288 -0.848823,0.728707 -0.1841785,0.192186 -0.304295,0.280272 -0.1201165,0.08008 -0.2562484,0.08008 -0.1121087,0 -0.2001941,-0.05605 -0.080078,-0.06406 -0.136132,-0.14414 -0.048047,-0.08808 -0.080078,-0.184178 -0.024023,-0.104101 -0.024023,-0.176171 0,-0.192187 0.104101,-0.36035 0.1121087,-0.17617 0.2962872,-0.328318 0.4003882,-0.336326 0.7847609,-0.552536 0.3843727,-0.216209 0.6326133,-0.32031 0.2802718,-0.112109 0.576559,-0.21621 0.3042951,-0.104101 0.5685513,-0.104101 0.3763649,0 0.7206987,0.136132 0.3443339,0.128124 0.6005823,0.384373 0.2642562,0.248241 0.4164037,0.616598 0.1601553,0.368357 0.1601553,0.832807 0,0.672652 -0.3283183,1.337297 -0.3203106,0.664644 -1.0970637,1.28925 0.5365202,0.02402 0.9369084,0.272264 0.4003882,0.24824 0.6646444,0.656636 0.272264,0.408396 0.4003882,0.944916 0.136132,0.528513 0.136132,1.121087 0,0.592575 -0.1601553,1.177142 -0.1601553,0.584566 -0.4564425,1.121087 -0.2882795,0.53652 -0.6966755,0.992962 -0.4003882,0.456443 -0.8888618,0.792769 -0.4804658,0.336326 -1.0330015,0.528512 -0.544528,0.192187 -1.121087,0.192187 -0.5525357,0 -0.9609316,-0.184179 Q 0.88628292,39.319685 0.61401895,39.047421 0.34976274,38.775157 0.21363076,38.462855 0.07749877,38.150552 0.07749877,37.886296 q 0,-0.200195 0.07206988,-0.43242 0.0800776,-0.232225 0.1761708,-0.368357 0.0640621,-0.08808 0.18417857,-0.184178 0.12011646,-0.08809 0.30429503,-0.08809 z"
     id="path3825" /></g><g
   aria-label="в"
   transform="scale(1.3926261,0.71806783)"
   id="text19318"
   style="font-size:17.078px;line-height:1.25;font-family:'Segoe Script';-inkscape-font-specification:'Segoe Script';fill:#e0e0e0;stroke-width:0.426948"><path
     d="m 34.742348,27.037059 q 0,-0.100067 -0.04169,-0.200133 -0.03336,-0.108405 -0.108405,-0.191794 -0.06671,-0.09173 -0.183455,-0.1501 -0.108405,-0.05837 -0.258505,-0.05837 -0.29186,0 -0.608737,0.208472 -0.308538,0.208472 -0.625415,0.575382 -0.308538,0.358571 -0.600399,0.858903 -0.29186,0.491993 -0.542026,1.067375 -0.250166,0.575382 -0.450299,1.209136 -0.191794,0.625415 -0.308538,1.259169 0.07505,-0.05003 0.22515,-0.158439 0.150099,-0.116744 0.333554,-0.258505 0.191794,-0.150099 0.400266,-0.316877 0.21681,-0.175116 0.408604,-0.341893 0.200133,-0.166778 0.366911,-0.316877 0.166777,-0.1501 0.266843,-0.258505 0.925614,-1.000664 1.32588,-1.734484 0.400266,-0.733821 0.400266,-1.192458 z m -0.258505,8.989298 q -0.258505,0.383588 -0.625415,0.750498 -0.358571,0.358571 -0.792193,0.633754 -0.433621,0.275183 -0.925614,0.433621 -0.483654,0.158438 -0.983986,0.116744 -0.350232,-0.02502 -0.667109,-0.225149 -0.316877,-0.208472 -0.558704,-0.583721 -0.241828,-0.383588 -0.383588,-0.933953 -0.141761,-0.550365 -0.141761,-1.267508 0,-0.458637 0.05003,-0.992325 0.05003,-0.542026 0.133422,-1.092391 0.08339,-0.550366 0.183455,-1.075714 0.108405,-0.525349 0.208472,-0.967309 0.133422,-0.600398 0.350232,-1.184119 0.216811,-0.592059 0.483654,-1.134086 0.266844,-0.550365 0.575382,-1.034019 0.308538,-0.483655 0.633754,-0.875581 0.450299,-0.525349 1.025681,-0.842226 0.58372,-0.316877 1.367574,-0.316877 0.325216,0 0.592059,0.133422 0.266844,0.133422 0.458638,0.350233 0.191794,0.208471 0.29186,0.475315 0.108406,0.266844 0.108406,0.525349 0,0.358571 -0.1501,0.800531 -0.141761,0.433621 -0.416943,0.908936 -0.275183,0.475316 -0.66711,0.95897 -0.391926,0.483654 -0.892258,0.933953 0.116744,0.0083 0.266843,0.04169 0.158439,0.02502 0.325216,0.100067 0.175116,0.07505 0.350233,0.200133 0.183455,0.125083 0.350232,0.316876 0.07505,0.09173 0.166777,0.250166 0.09173,0.1501 0.166778,0.375249 0.08339,0.216811 0.133422,0.500332 0.05837,0.283522 0.05837,0.625415 0,0.66711 -0.241827,1.442624 -0.233489,0.767176 -0.833887,1.651096 z m -0.233488,-3.068703 q 0,-0.458638 -0.133422,-0.767176 -0.133422,-0.316877 -0.316877,-0.500332 -0.183455,-0.191794 -0.375249,-0.266843 -0.191794,-0.08339 -0.308538,-0.08339 -0.108406,0 -0.341894,0.166777 -0.233488,0.166778 -0.500332,0.36691 -0.200133,0.175117 -0.400265,0.325216 -0.200133,0.1501 -0.375249,0.291861 -0.166778,0.14176 -0.308539,0.283521 -0.14176,0.141761 -0.233488,0.300199 -0.233488,0.425282 -0.275182,0.967309 -0.0417,0.542026 -0.0417,1.109069 0,0.375249 0.07505,0.675448 0.08339,0.291861 0.200133,0.500332 0.125083,0.208472 0.266844,0.325216 0.14176,0.108405 0.258504,0.108405 0.283522,0 0.642093,-0.116744 0.358571,-0.116744 0.73382,-0.458638 0.325216,-0.300199 0.583721,-0.675448 0.266844,-0.375249 0.450299,-0.792192 0.191794,-0.416943 0.29186,-0.867242 0.108406,-0.450299 0.108406,-0.892259 z"
     id="path3867" /></g><text
   xml:space="preserve"
   style="font-size:7.56049px;line-height:1.25;font-family:'Segoe Script';-inkscape-font-specification:'Segoe Script';fill:#16272a;fill-opacity:0.799714;stroke-width:0.189013"
   x="7.3246508"
   y="32.994556"
   id="text17884"
   transform="scale(1.3917482,0.71852076)"><tspan
     sodipodi:role="line"
     id="tspan17882"
     x="7.3246508"
     y="32.994556"
     style="stroke-width:0.189013">_</tspan></text><text
   xml:space="preserve"
   style="font-size:8.18328px;line-height:1.25;font-family:'Segoe Script';-inkscape-font-specification:'Segoe Script';fill:#16272a;fill-opacity:0.799714;stroke-width:0.204581"
   x="23.063713"
   y="35.55827"
   id="text17884-6"
   transform="scale(1.5063905,0.66383849)"><tspan
     sodipodi:role="line"
     id="tspan17882-2"
     x="23.063713"
     y="35.55827"
     style="stroke-width:0.204581">_</tspan></text><text
   xml:space="preserve"
   style="font-size:7.40974px;line-height:1.25;font-family:'Segoe Script';-inkscape-font-specification:'Segoe Script';fill:#16272a;fill-opacity:0.799714;stroke-width:0.185242"
   x="-27.019073"
   y="36.971546"
   id="text17884-0"
   transform="matrix(-0.01604217,-1.5596935,0.6405134,-0.06205,0,0)"><tspan
     sodipodi:role="line"
     id="tspan17882-4"
     x="-27.019073"
     y="36.971546"
     style="stroke-width:0.185242">_</tspan></text><text
   xml:space="preserve"
   style="font-size:7.54973px;line-height:1.25;font-family:'Segoe Script';-inkscape-font-specification:'Segoe Script';fill:#16272a;fill-opacity:0.799714;stroke-width:0.188743"
   x="-10.404744"
   y="34.48695"
   id="text17884-9"
   transform="matrix(4.8551685e-4,-1.4080227,0.71021529,0.00152895,0,0)"><tspan
     sodipodi:role="line"
     id="tspan17882-7"
     x="-10.404744"
     y="34.48695"
     style="stroke-width:0.188743">_</tspan></text></svg>
