<?xml version="1.0" encoding="UTF-8" standalone="no"?>
<!-- Generator: Adobe Illustrator 22.0.1, SVG Export Plug-In . SVG Version: 6.00 Build 0)  -->

<svg
   version="1.1"
   id="Layer_1"
   x="0px"
   y="0px"
   viewBox="0 0 50 50"
   xml:space="preserve"
   sodipodi:docname="southEastWind.svg"
   width="50"
   height="50"
   inkscape:version="1.1.1 (3bf5ae0d25, 2021-09-20)"
   xmlns:inkscape="http://www.inkscape.org/namespaces/inkscape"
   xmlns:sodipodi="http://sodipodi.sourceforge.net/DTD/sodipodi-0.dtd"
   xmlns="http://www.w3.org/2000/svg"
   xmlns:svg="http://www.w3.org/2000/svg"><defs
   id="defs7" /><sodipodi:namedview
   id="namedview5"
   pagecolor="#ffffff"
   bordercolor="#666666"
   borderopacity="1.0"
   inkscape:pageshadow="2"
   inkscape:pageopacity="0.0"
   inkscape:pagecheckerboard="0"
   showgrid="false"
   inkscape:zoom="20.317534"
   inkscape:cx="25.101471"
   inkscape:cy="23.206556"
   inkscape:window-width="2400"
   inkscape:window-height="1321"
   inkscape:window-x="2391"
   inkscape:window-y="-9"
   inkscape:window-maximized="1"
   inkscape:current-layer="Layer_1"
   width="140px" />
<path
   d="m 34.482077,13.665003 c 2.105696,1.717975 3.630802,3.829028 4.573335,6.314558 0.942533,2.485534 1.21293,5.034527 0.811196,7.646993 -0.401734,2.612463 -1.455123,4.948196 -3.149833,7.01563 -1.268943,1.548027 -2.797463,2.782304 -4.566881,3.701075 -1.769417,0.918759 -3.598956,1.448572 -5.474338,1.63505 -1.875392,0.186468 -3.781901,-0.0094 -5.719536,-0.587461 -1.937642,-0.578125 -3.684783,-1.493694 -5.274384,-2.790596 -1.568953,-1.280056 -2.825517,-2.815116 -3.767732,-4.586578 -0.942212,-1.771452 -1.504645,-3.606958 -1.702017,-5.467542 -0.197377,-1.860577 -0.02133,-3.756421 0.530082,-5.668917 0.551421,-1.912495 1.452268,-3.641871 2.729562,-5.200081 1.277291,-1.558218 2.81416,-2.802677 4.583581,-3.721443 1.76942,-0.918763 3.6073,-1.458755 5.482689,-1.645242 1.875387,-0.18648 3.773552,0.01952 5.698887,0.570624 1.925351,0.55109 3.666118,1.495452 5.245389,2.78393 z m -2.070386,2.525732 C 29.965368,14.194856 27.121069,13.3359 23.87045,13.624051 c -3.229973,0.304993 -5.837426,1.678736 -7.849372,4.133174 -1.319039,1.60913 -2.143681,3.434673 -2.446918,5.464675 -0.303236,2.030003 -0.110718,4.022581 0.623241,5.964043 0.733955,1.94146 1.907038,3.578364 3.537923,4.908957 1.630884,1.330578 3.48216,2.161149 5.535154,2.493481 2.052994,0.332328 4.050729,0.14369 5.993196,-0.56591 1.942467,-0.709604 3.56388,-1.868086 4.882913,-3.477224 1.319038,-1.609132 2.143677,-3.434675 2.44692,-5.464678 0.303232,-2.029997 0.100396,-4.031006 -0.625218,-5.982648 -0.725612,-1.951644 -1.925713,-3.576599 -3.556598,-4.907186 z m -10.120728,0.05363 10.401581,14.85964 c 0.09487,0.0944 0.104737,0.187427 0.0296,0.279087 -0.07516,0.09164 -0.168492,0.100476 -0.28005,0.02645 L 15.787615,24.178008 c -0.146944,-0.05189 -0.221169,-0.129452 -0.241359,-0.2309 -0.02016,-0.101452 0.0466,-0.182927 0.200363,-0.244427 l 4.238738,-2.439194 c 0.124775,-0.06815 0.208258,-0.170001 0.242101,-0.295349 l 1.580043,-4.659328 c 0.02155,-0.152365 0.07999,-0.223654 0.175319,-0.213866 0.09533,0.0099 0.221617,0.04484 0.308143,0.149426 z"
   id="path2"
   style="fill:#2c4f54;fill-opacity:0.5;stroke:#bbcdc6;stroke-width:1.03166;stroke-miterlimit:4;stroke-dasharray:none;stroke-opacity:0.9" />
<path
   style="fill:#2c4f53;fill-opacity:0.499285;stroke:#e4e7e7;stroke-width:0.0811514;stroke-miterlimit:4;stroke-dasharray:none;stroke-opacity:0.9"
   d="m 17.193975,17.335351 c 0.399726,-0.390229 0.871961,-0.792476 1.308456,-1.114546 2.454431,-1.81098 5.990576,-2.493421 9.133284,-1.762634 1.691662,0.393374 2.952628,1.020251 4.37113,2.173059 1.456007,1.183211 2.35609,2.332217 3.087837,3.94142 0.493192,1.084614 0.770321,2.0844 0.918777,3.314673 0.294618,2.441551 -0.136308,4.675201 -1.312265,6.802054 -0.244896,0.442922 -0.366357,0.61086 -1.051944,1.454492 -0.832201,1.023991 -1.096689,1.288827 -1.882759,1.885118 -1.187228,0.900558 -2.818677,1.641662 -4.35958,1.980379 -0.628524,0.138166 -1.961346,0.257813 -2.621833,0.235357 -1.598492,-0.05434 -3.14176,-0.414968 -4.454915,-1.041057 -0.968357,-0.461681 -1.281539,-0.66361 -2.255704,-1.454364 -0.687191,-0.557843 -0.966885,-0.80783 -1.227089,-1.096995 -1.580304,-1.756065 -2.564261,-3.962669 -2.811711,-6.305506 -0.253421,-2.399433 0.257004,-4.790136 1.456422,-6.82147 0.276493,-0.468265 1.339683,-1.836376 1.70189,-2.18999 z m 3.956381,1.624129 c -0.421066,1.249919 -0.785543,2.315019 -0.809954,2.366889 -0.03012,0.06402 -0.740411,0.500121 -2.211792,1.357975 -1.247661,0.727429 -2.180108,1.29598 -2.197333,1.339812 -0.03568,0.09085 0.06285,0.234202 0.213902,0.311167 0.05998,0.03054 3.693249,1.592421 8.073958,3.470822 7.676518,3.291608 7.968734,3.412998 8.070094,3.352322 0.07832,-0.04691 0.102585,-0.08555 0.09496,-0.151598 -0.01254,-0.109252 -9.908416,-14.23306 -10.056683,-14.353383 -0.133962,-0.108711 -0.344404,-0.12829 -0.382901,-0.0356 -0.01573,0.03799 -0.373187,1.091691 -0.794253,2.341607 z"
   id="path861" /><rect
   style="fill:#c7485e;fill-opacity:1;stroke:#3c4343;stroke-width:0.404327;stroke-opacity:0.9"
   id="rect2803"
   width="4.4507213"
   height="0.051896125"
   x="0.48945478"
   y="-36.697689"
   transform="matrix(-0.61893822,0.78543967,-0.75693469,-0.65349054,0,0)"
   inkscape:transform-center-x="0.47579176"
   inkscape:transform-center-y="-3.5726929" /><path
   style="fill:#cb4d64;fill-opacity:1;stroke:#e27364;stroke-width:0.0336421;stroke-opacity:0.9"
   d="m 27.774981,24.705151 c 0.04847,0.0681 1.110361,1.522209 2.359816,3.231354 1.249452,1.709142 2.29376,3.156465 2.320679,3.216265 0.04237,0.09412 -7.161889,-2.933454 -7.36444,-3.094875 -0.05533,-0.04406 0.28068,-0.515556 1.260218,-1.76833 1.24899,-1.597391 1.34139,-1.700173 1.423715,-1.584423 z"
   id="path3397"
   inkscape:transform-center-x="-1.853455"
   inkscape:transform-center-y="-1.7028029" /><text
   xml:space="preserve"
   style="font-size:17.7699px;line-height:1.25;font-family:'Segoe Script';-inkscape-font-specification:'Segoe Script';fill:#e0e0e0;fill-opacity:1;stroke-width:0.444247"
   x="19.633602"
   y="9.3787184"
   id="text9344"
   transform="scale(1.0219263,0.97854415)"><tspan
     sodipodi:role="line"
     id="tspan9342"
     x="19.633602"
     y="9.3787184"
     style="fill:#e0e0e0;fill-opacity:1;stroke-width:0.444247">c</tspan></text><text
   xml:space="preserve"
   style="font-size:14.2395px;line-height:1.25;font-family:'Segoe Script';-inkscape-font-specification:'Segoe Script';fill:#e0e0e0;fill-opacity:1;stroke-width:0.355984"
   x="22.648932"
   y="43.869854"
   id="text11307"
   transform="scale(0.88842169,1.1255916)"><tspan
     sodipodi:role="line"
     id="tspan11305"
     x="22.648932"
     y="43.869854"
     style="fill:#e0e0e0;fill-opacity:1;stroke-width:0.355984">ю</tspan></text><text
   xml:space="preserve"
   style="font-size:16.3999px;line-height:1.25;font-family:'Segoe Script';-inkscape-font-specification:'Segoe Script';fill:#e0e0e0;fill-opacity:1;stroke-width:0.409999"
   x="-0.36292824"
   y="36.172634"
   id="text16794"
   transform="scale(1.3773373,0.72603857)"><tspan
     sodipodi:role="line"
     id="tspan16792"
     x="-0.36292824"
     y="36.172634"
     style="fill:#e0e0e0;fill-opacity:1;stroke-width:0.409999">з</tspan></text><text
   xml:space="preserve"
   style="font-size:17.078px;line-height:1.25;font-family:'Segoe Script';-inkscape-font-specification:'Segoe Script';fill:#e0e0e0;fill-opacity:1;stroke-width:0.426948"
   x="28.271387"
   y="37.752502"
   id="text19318"
   transform="scale(1.3926261,0.71806783)"><tspan
     sodipodi:role="line"
     id="tspan19316"
     x="28.271387"
     y="37.752502"
     style="fill:#e0e0e0;fill-opacity:1;stroke-width:0.426948">в</tspan></text><text
   xml:space="preserve"
   style="font-size:7.56049px;line-height:1.25;font-family:'Segoe Script';-inkscape-font-specification:'Segoe Script';fill:#16272a;fill-opacity:0.799714;stroke-width:0.189013"
   x="7.2246246"
   y="32.994556"
   id="text17884"
   transform="scale(1.3917482,0.71852075)"><tspan
     sodipodi:role="line"
     id="tspan17882"
     x="7.2246246"
     y="32.994556"
     style="stroke-width:0.189013">_</tspan></text><text
   xml:space="preserve"
   style="font-size:8.18328px;line-height:1.25;font-family:'Segoe Script';-inkscape-font-specification:'Segoe Script';fill:#16272a;fill-opacity:0.799714;stroke-width:0.204581"
   x="23.156128"
   y="35.505844"
   id="text17884-6"
   transform="scale(1.5063905,0.66383848)"><tspan
     sodipodi:role="line"
     id="tspan17882-2"
     x="23.156128"
     y="35.505844"
     style="stroke-width:0.204581">_</tspan></text><text
   xml:space="preserve"
   style="font-size:7.40974px;line-height:1.25;font-family:'Segoe Script';-inkscape-font-specification:'Segoe Script';fill:#16272a;fill-opacity:0.799714;stroke-width:0.185242"
   x="-27.188768"
   y="36.749954"
   id="text17884-0"
   transform="matrix(-0.01604217,-1.5596935,0.6405134,-0.06205,0,0)"><tspan
     sodipodi:role="line"
     id="tspan17882-4"
     x="-27.188768"
     y="36.749954"
     style="stroke-width:0.185242">_</tspan></text><text
   xml:space="preserve"
   style="font-size:7.54973px;line-height:1.25;font-family:'Segoe Script';-inkscape-font-specification:'Segoe Script';fill:#16272a;fill-opacity:0.799714;stroke-width:0.188743"
   x="-10.404744"
   y="34.48695"
   id="text17884-9"
   transform="matrix(4.8551685e-4,-1.4080227,0.71021529,0.00152895,0,0)"><tspan
     sodipodi:role="line"
     id="tspan17882-7"
     x="-10.404744"
     y="34.48695"
     style="stroke-width:0.188743">_</tspan></text></svg>
