<?xml version="1.0" encoding="UTF-8" standalone="no"?>
<!-- Generator: Adobe Illustrator 22.0.1, SVG Export Plug-In . SVG Version: 6.00 Build 0)  -->

<svg
   version="1.1"
   id="Layer_1"
   x="0px"
   y="0px"
   viewBox="0 0 50 50"
   xml:space="preserve"
   sodipodi:docname="southWind.svg"
   width="50"
   height="50"
   inkscape:version="1.1.1 (3bf5ae0d25, 2021-09-20)"
   xmlns:inkscape="http://www.inkscape.org/namespaces/inkscape"
   xmlns:sodipodi="http://sodipodi.sourceforge.net/DTD/sodipodi-0.dtd"
   xmlns="http://www.w3.org/2000/svg"
   xmlns:svg="http://www.w3.org/2000/svg"><defs
   id="defs7" /><sodipodi:namedview
   id="namedview5"
   pagecolor="#ffffff"
   bordercolor="#666666"
   borderopacity="1.0"
   inkscape:pageshadow="2"
   inkscape:pageopacity="0.0"
   inkscape:pagecheckerboard="0"
   showgrid="false"
   inkscape:zoom="20.317534"
   inkscape:cx="18.998369"
   inkscape:cy="23.403431"
   inkscape:window-width="2400"
   inkscape:window-height="1321"
   inkscape:window-x="2391"
   inkscape:window-y="-9"
   inkscape:window-maximized="1"
   inkscape:current-layer="Layer_1"
   width="140px" />
<path
   d="m 40.274467,25.401566 c -0.09021,2.76332 -0.852007,5.300975 -2.271583,7.599868 -1.419584,2.298895 -3.301963,4.094281 -5.647128,5.386158 -2.345175,1.291877 -4.867249,1.88631 -7.566686,1.796858 -2.021245,-0.06698 -3.949441,-0.537687 -5.771726,-1.398128 -1.822279,-0.860449 -3.368884,-2.010087 -4.66772,-3.409157 -1.298831,-1.399084 -2.309572,-3.059817 -3.032222,-4.982199 -0.722644,-1.922395 -1.057446,-3.89973 -0.989335,-5.985769 0.06722,-2.058939 0.530731,-4.023383 1.376773,-5.880236 0.846039,-1.856843 1.976224,-3.446632 3.350222,-4.757133 1.373988,-1.310504 3.005103,-2.341268 4.879575,-3.079215 1.874477,-0.7379413 3.815905,-1.0804116 5.850453,-1.0129901 2.034548,0.067417 3.976039,0.5385661 5.798328,1.3990141 1.82228,0.86045 3.382178,2.010523 4.681017,3.409592 1.298846,1.399075 2.29629,3.059366 3.033104,4.955109 0.736831,1.895744 1.044597,3.885745 0.976928,5.958228 z m -3.297825,-0.109282 c 0.104818,-3.210322 -0.947678,-6.038623 -3.170781,-8.48535 -2.223982,-2.41963 -4.92527,-3.675333 -8.130014,-3.781532 -2.101036,-0.06963 -4.073042,0.393879 -5.889875,1.404935 -1.816833,1.011059 -3.299858,2.399304 -4.410086,4.193158 -1.110229,1.79385 -1.70671,3.75389 -1.776595,5.89411 -0.06987,2.140211 0.397022,4.149049 1.387826,6.012529 0.990807,1.863477 2.366337,3.360015 4.126587,4.489612 1.760251,1.129596 3.684459,1.722215 5.785497,1.791835 2.101037,0.06963 4.073042,-0.393884 5.88988,-1.404937 1.816832,-1.011056 3.300307,-2.412853 4.423822,-4.206266 1.123524,-1.793414 1.693851,-3.767877 1.763739,-5.908094 z M 30.732803,17.15259 25.16634,34.745707 c -0.01772,0.135013 -0.08643,0.200536 -0.206113,0.19656 -0.119678,-0.004 -0.183958,-0.0739 -0.192836,-0.209784 l -4.39349,-17.923164 c -0.04834,-0.15077 -0.03149,-0.258695 0.03764,-0.337763 0.06916,-0.07905 0.175523,-0.07554 0.319147,0.01063 l 4.556796,1.913849 c 0.131208,0.05859 0.264188,0.063 0.385636,0.01278 l 4.71169,-1.606712 c 0.135624,-0.07685 0.228708,-0.07378 0.279249,0.0092 0.05054,0.08304 0.09975,0.206709 0.06874,0.341285 z"
   id="path2"
   style="fill:#2c4f54;fill-opacity:0.5;stroke:#bbcdc6;stroke-width:1.02435;stroke-miterlimit:4;stroke-dasharray:none;stroke-opacity:0.9" />
<path
   style="fill:#2c4f53;fill-opacity:0.499285;stroke:#e4e7e7;stroke-width:0.0827203;stroke-miterlimit:4;stroke-dasharray:none;stroke-opacity:0.9"
   d="m 26.717083,13.650661 c 0.562075,0.0735 1.17867,0.197562 1.708445,0.343728 2.978932,0.821927 5.715355,3.226345 7.067717,6.210218 0.727959,1.606167 1.001222,3.014729 0.94726,4.882752 -0.05535,1.917369 -0.426613,3.367122 -1.273457,4.973301 -0.570782,1.082571 -1.206624,1.938089 -2.108054,2.836367 -1.788958,1.782688 -3.858493,2.851682 -6.302272,3.255384 -0.508925,0.08407 -0.719569,0.09299 -1.82435,0.07734 -1.340993,-0.01903 -1.718257,-0.06347 -2.685459,-0.316385 -1.460773,-0.382011 -3.067366,-1.221355 -4.293152,-2.242915 -0.499996,-0.416687 -1.420327,-1.41008 -1.810408,-1.954135 -0.944078,-1.316695 -1.606745,-2.783089 -1.912895,-4.233014 -0.225775,-1.069203 -0.25632,-1.448324 -0.220029,-2.730606 0.02563,-0.904564 0.05457,-1.287259 0.127201,-1.679132 0.440961,-2.379892 1.614203,-4.566754 3.352619,-6.249083 1.780414,-1.722965 4.025872,-2.827653 6.40704,-3.152039 0.548908,-0.07477 2.310471,-0.0884 2.819799,-0.0218 z m 1.134071,4.202385 c -1.26928,0.453859 -2.354391,0.836059 -2.411351,0.84933 -0.0703,0.01639 -0.861352,-0.277198 -2.463265,-0.914197 -1.358358,-0.54014 -2.393634,-0.928042 -2.439666,-0.914099 -0.0954,0.02892 -0.150223,0.19875 -0.119001,0.368666 0.01241,0.06746 0.997039,3.97122 2.188091,8.675038 2.087133,8.242709 2.169741,8.554007 2.28137,8.596883 0.08627,0.03311 0.132467,0.02811 0.181074,-0.01983 0.08044,-0.07926 5.366386,-16.962841 5.371887,-17.157984 0.0049,-0.176316 -0.109288,-0.357527 -0.2079,-0.329709 -0.04039,0.01144 -1.111961,0.392052 -2.381243,0.845911 z"
   id="path861" /><rect
   style="fill:#c7485e;fill-opacity:1;stroke:#3c4343;stroke-width:0.403411;stroke-opacity:0.9"
   id="rect2803"
   width="5.0010295"
   height="0.045977719"
   x="-28.910192"
   y="-24.716299"
   transform="matrix(-0.99970576,-0.02425669,0.05081251,-0.99870821,0,0)"
   inkscape:transform-center-x="-2.8076842"
   inkscape:transform-center-y="-2.2242308" /><path
   style="fill:#cb4d64;fill-opacity:1;stroke:#e27364;stroke-width:0.0378069;stroke-opacity:0.9"
   d="m 27.52419,25.879935 c -0.02831,0.09382 -0.615109,2.122689 -1.304013,4.508609 -0.688903,2.38592 -1.281004,4.393514 -1.31577,4.461303 -0.05476,0.106667 -2.003521,-8.782041 -1.992136,-9.086359 0.0032,-0.08314 0.625343,-0.105437 2.333797,-0.0837 2.178425,0.02769 2.326233,0.04069 2.278117,0.200145 z"
   id="path3397"
   inkscape:transform-center-x="-2.5011497"
   inkscape:transform-center-y="1.681194" /><text
   xml:space="preserve"
   style="font-size:17.77px;line-height:1.25;font-family:'Segoe Script';-inkscape-font-specification:'Segoe Script';fill:#e0e0e0;fill-opacity:1;stroke-width:0.444247"
   x="19.895796"
   y="9.2033348"
   id="text9344"
   transform="scale(1.0219277,0.97854281)"><tspan
     sodipodi:role="line"
     id="tspan9342"
     x="19.895796"
     y="9.2033348"
     style="fill:#e0e0e0;fill-opacity:1;stroke-width:0.444247">c</tspan></text><text
   xml:space="preserve"
   style="font-size:14.2395px;line-height:1.25;font-family:'Segoe Script';-inkscape-font-specification:'Segoe Script';fill:#e0e0e0;fill-opacity:1;stroke-width:0.355982"
   x="22.250643"
   y="44.031906"
   id="text11307"
   transform="scale(0.88842335,1.1255895)"><tspan
     sodipodi:role="line"
     id="tspan11305"
     x="22.250643"
     y="44.031906"
     style="fill:#e0e0e0;fill-opacity:1;stroke-width:0.355982">ю</tspan></text><text
   xml:space="preserve"
   style="font-size:16.4px;line-height:1.25;font-family:'Segoe Script';-inkscape-font-specification:'Segoe Script';fill:#e0e0e0;fill-opacity:1;stroke-width:0.409989"
   x="-0.15614597"
   y="37.013836"
   id="text16794"
   transform="scale(1.3773402,0.72603702)"><tspan
     sodipodi:role="line"
     id="tspan16792"
     x="-0.15614597"
     y="37.013836"
     style="fill:#e0e0e0;fill-opacity:1;stroke-width:0.409989">з</tspan></text><text
   xml:space="preserve"
   style="font-size:17.078px;line-height:1.25;font-family:'Segoe Script';-inkscape-font-specification:'Segoe Script';fill:#e0e0e0;fill-opacity:1;stroke-width:0.426956"
   x="28.278337"
   y="38.878036"
   id="text19318"
   transform="scale(1.3926265,0.71806763)"
   inkscape:transform-center-x="0.41763343"><tspan
     sodipodi:role="line"
     id="tspan19316"
     x="28.278337"
     y="38.878036"
     style="fill:#e0e0e0;fill-opacity:1;stroke-width:0.426956">в</tspan></text><text
   xml:space="preserve"
   style="font-size:7.28917px;line-height:1.25;font-family:'Segoe Script';-inkscape-font-specification:'Segoe Script';fill:#16272a;fill-opacity:0.799714;stroke-width:0.182228"
   x="8.0325136"
   y="30.577795"
   id="text17884"
   transform="scale(1.3021018,0.7679891)"><tspan
     sodipodi:role="line"
     id="tspan17882"
     x="8.0325136"
     y="30.577795"
     style="stroke-width:0.182228">_</tspan></text><text
   xml:space="preserve"
   style="font-size:7.58472px;line-height:1.25;font-family:'Segoe Script';-inkscape-font-specification:'Segoe Script';fill:#16272a;fill-opacity:0.799714;stroke-width:0.189617"
   x="26.098852"
   y="31.626024"
   id="text17884-6"
   transform="scale(1.3548918,0.7380663)"><tspan
     sodipodi:role="line"
     id="tspan17882-2"
     x="26.098852"
     y="31.626024"
     style="stroke-width:0.189617">_</tspan></text><text
   xml:space="preserve"
   style="font-size:6.54684px;line-height:1.25;font-family:'Segoe Script';-inkscape-font-specification:'Segoe Script';fill:#16272a;fill-opacity:0.799714;stroke-width:0.163671"
   x="-30.435822"
   y="32.303371"
   id="text17884-0"
   transform="matrix(-0.01828266,-1.3685569,0.72996932,-0.05444595,0,0)"><tspan
     sodipodi:role="line"
     id="tspan17882-4"
     x="-30.435822"
     y="32.303371"
     style="stroke-width:0.163671">_</tspan></text><text
   xml:space="preserve"
   style="font-size:7.3883px;line-height:1.25;font-family:'Segoe Script';-inkscape-font-specification:'Segoe Script';fill:#16272a;fill-opacity:0.799714;stroke-width:0.184707"
   x="-10.397832"
   y="33.082691"
   id="text17884-9"
   transform="matrix(5.1105576e-4,-1.3376598,0.74757369,0.00145253,0,0)"><tspan
     sodipodi:role="line"
     id="tspan17882-7"
     x="-10.397832"
     y="33.082691"
     style="stroke-width:0.184707">_</tspan></text></svg>
