<?xml version="1.0" encoding="UTF-8" standalone="no"?>
<!-- Generator: Adobe Illustrator 22.0.1, SVG Export Plug-In . SVG Version: 6.00 Build 0)  -->

<svg
   version="1.1"
   id="Layer_1"
   x="0px"
   y="0px"
   viewBox="0 0 50 50"
   xml:space="preserve"
   sodipodi:docname="southWind.svg"
   width="50"
   height="50"
   inkscape:version="1.1.1 (3bf5ae0d25, 2021-09-20)"
   xmlns:inkscape="http://www.inkscape.org/namespaces/inkscape"
   xmlns:sodipodi="http://sodipodi.sourceforge.net/DTD/sodipodi-0.dtd"
   xmlns="http://www.w3.org/2000/svg"
   xmlns:svg="http://www.w3.org/2000/svg"><defs
   id="defs7" /><sodipodi:namedview
   id="namedview5"
   pagecolor="#ffffff"
   bordercolor="#666666"
   borderopacity="1.0"
   inkscape:pageshadow="2"
   inkscape:pageopacity="0.0"
   inkscape:pagecheckerboard="0"
   showgrid="false"
   inkscape:zoom="20.317534"
   inkscape:cx="19.047587"
   inkscape:cy="23.403431"
   inkscape:window-width="2400"
   inkscape:window-height="1321"
   inkscape:window-x="2391"
   inkscape:window-y="-9"
   inkscape:window-maximized="1"
   inkscape:current-layer="Layer_1"
   width="140px" />
<path
   d="m 40.274467,25.401566 c -0.09021,2.76332 -0.852007,5.300975 -2.271583,7.599868 -1.419584,2.298895 -3.301963,4.094281 -5.647128,5.386158 -2.345175,1.291877 -4.867249,1.88631 -7.566686,1.796858 -2.021245,-0.06698 -3.949441,-0.537687 -5.771726,-1.398128 -1.822279,-0.860449 -3.368884,-2.010087 -4.66772,-3.409157 -1.298831,-1.399084 -2.309572,-3.059817 -3.032222,-4.982199 -0.722644,-1.922395 -1.057446,-3.89973 -0.989335,-5.985769 0.06722,-2.058939 0.530731,-4.023383 1.376773,-5.880236 0.846039,-1.856843 1.976224,-3.446632 3.350222,-4.757133 1.373988,-1.310504 3.005103,-2.341268 4.879575,-3.079215 1.874477,-0.7379413 3.815905,-1.0804116 5.850453,-1.0129901 2.034548,0.067417 3.976039,0.5385661 5.798328,1.3990141 1.82228,0.86045 3.382178,2.010523 4.681017,3.409592 1.298846,1.399075 2.29629,3.059366 3.033104,4.955109 0.736831,1.895744 1.044597,3.885745 0.976928,5.958228 z m -3.297825,-0.109282 c 0.104818,-3.210322 -0.947678,-6.038623 -3.170781,-8.48535 -2.223982,-2.41963 -4.92527,-3.675333 -8.130014,-3.781532 -2.101036,-0.06963 -4.073042,0.393879 -5.889875,1.404935 -1.816833,1.011059 -3.299858,2.399304 -4.410086,4.193158 -1.110229,1.79385 -1.70671,3.75389 -1.776595,5.89411 -0.06987,2.140211 0.397022,4.149049 1.387826,6.012529 0.990807,1.863477 2.366337,3.360015 4.126587,4.489612 1.760251,1.129596 3.684459,1.722215 5.785497,1.791835 2.101037,0.06963 4.073042,-0.393884 5.88988,-1.404937 1.816832,-1.011056 3.300307,-2.412853 4.423822,-4.206266 1.123524,-1.793414 1.693851,-3.767877 1.763739,-5.908094 z M 30.732803,17.15259 25.16634,34.745707 c -0.01772,0.135013 -0.08643,0.200536 -0.206113,0.19656 -0.119678,-0.004 -0.183958,-0.0739 -0.192836,-0.209784 l -4.39349,-17.923164 c -0.04834,-0.15077 -0.03149,-0.258695 0.03764,-0.337763 0.06916,-0.07905 0.175523,-0.07554 0.319147,0.01063 l 4.556796,1.913849 c 0.131208,0.05859 0.264188,0.063 0.385636,0.01278 l 4.71169,-1.606712 c 0.135624,-0.07685 0.228708,-0.07378 0.279249,0.0092 0.05054,0.08304 0.09975,0.206709 0.06874,0.341285 z"
   id="path2"
   style="fill:#2c4f54;fill-opacity:0.5;stroke:#bbcdc6;stroke-width:0.5;stroke-miterlimit:4;stroke-dasharray:none;stroke-opacity:0.9" />
<path
   style="fill:#2c4f53;fill-opacity:0.499285;stroke:#e4e7e7;stroke-width:0.0827203;stroke-miterlimit:4;stroke-dasharray:none;stroke-opacity:0.9"
   d="m 26.717083,13.650661 c 0.562075,0.0735 1.17867,0.197562 1.708445,0.343728 2.978932,0.821927 5.715355,3.226345 7.067717,6.210218 0.727959,1.606167 1.001222,3.014729 0.94726,4.882752 -0.05535,1.917369 -0.426613,3.367122 -1.273457,4.973301 -0.570782,1.082571 -1.206624,1.938089 -2.108054,2.836367 -1.788958,1.782688 -3.858493,2.851682 -6.302272,3.255384 -0.508925,0.08407 -0.719569,0.09299 -1.82435,0.07734 -1.340993,-0.01903 -1.718257,-0.06347 -2.685459,-0.316385 -1.460773,-0.382011 -3.067366,-1.221355 -4.293152,-2.242915 -0.499996,-0.416687 -1.420327,-1.41008 -1.810408,-1.954135 -0.944078,-1.316695 -1.606745,-2.783089 -1.912895,-4.233014 -0.225775,-1.069203 -0.25632,-1.448324 -0.220029,-2.730606 0.02563,-0.904564 0.05457,-1.287259 0.127201,-1.679132 0.440961,-2.379892 1.614203,-4.566754 3.352619,-6.249083 1.780414,-1.722965 4.025872,-2.827653 6.40704,-3.152039 0.548908,-0.07477 2.310471,-0.0884 2.819799,-0.0218 z m 1.134071,4.202385 c -1.26928,0.453859 -2.354391,0.836059 -2.411351,0.84933 -0.0703,0.01639 -0.861352,-0.277198 -2.463265,-0.914197 -1.358358,-0.54014 -2.393634,-0.928042 -2.439666,-0.914099 -0.0954,0.02892 -0.150223,0.19875 -0.119001,0.368666 0.01241,0.06746 0.997039,3.97122 2.188091,8.675038 2.087133,8.242709 2.169741,8.554007 2.28137,8.596883 0.08627,0.03311 0.132467,0.02811 0.181074,-0.01983 0.08044,-0.07926 5.366386,-16.962841 5.371887,-17.157984 0.0049,-0.176316 -0.109288,-0.357527 -0.2079,-0.329709 -0.04039,0.01144 -1.111961,0.392052 -2.381243,0.845911 z"
   id="path861" /><rect
   style="fill:#c7485e;fill-opacity:1;stroke:#3c4343;stroke-width:0.403411;stroke-opacity:0.9"
   id="rect2803"
   width="5.0010295"
   height="0.045977719"
   x="-28.910192"
   y="-24.716299"
   transform="matrix(-0.99970576,-0.02425669,0.05081251,-0.99870821,0,0)"
   inkscape:transform-center-x="-2.8076842"
   inkscape:transform-center-y="-2.2242308" /><path
   style="fill:#cb4d64;fill-opacity:1;stroke:#e27364;stroke-width:0.0378069;stroke-opacity:0.9"
   d="m 27.52419,25.879935 c -0.02831,0.09382 -0.615109,2.122689 -1.304013,4.508609 -0.688903,2.38592 -1.281004,4.393514 -1.31577,4.461303 -0.05476,0.106667 -2.003521,-8.782041 -1.992136,-9.086359 0.0032,-0.08314 0.625343,-0.105437 2.333797,-0.0837 2.178425,0.02769 2.326233,0.04069 2.278117,0.200145 z"
   id="path3397"
   inkscape:transform-center-x="-2.5011497"
   inkscape:transform-center-y="1.681194" /><g
   aria-label="c"
   transform="scale(1.0219277,0.97854281)"
   id="text9344"
   style="font-size:17.77px;line-height:1.25;font-family:'Segoe Script';-inkscape-font-specification:'Segoe Script';fill:#e0e0e0;stroke-width:0.444247"><path
     d="m 29.81333,5.611157 q 0,0.3123633 -0.225595,0.5639893 -0.234273,0.2603027 -0.407808,0.4425146 -0.173535,0.1735352 -0.329717,0.3210401 -0.156182,0.1475048 -0.329717,0.286333 -0.173535,0.1301513 -0.407807,0.3036865 -0.659434,0.4772217 -1.25813,0.8069385 -0.598697,0.3210401 -1.162686,0.5292822 -0.563989,0.1995655 -1.119302,0.2863331 -0.546635,0.086767 -1.101948,0.086767 -0.581343,0 -1.041211,-0.2169189 Q 21.969541,8.7955272 21.648501,8.4137498 21.336138,8.0319725 21.171279,7.5287205 21.006421,7.0167918 21.006421,6.4528025 v -0.043384 q 0,-0.572666 0.147505,-1.2147461 0.147505,-0.6507569 0.407807,-1.3015137 0.26898,-0.6507569 0.64208,-1.2754834 0.373101,-0.6334034 0.824292,-1.1800391 0.182212,-0.216919 0.433838,-0.45986821 0.260303,-0.25162598 0.546636,-0.45986818 0.29501,-0.20824219 0.607373,-0.33839356 0.32104,-0.13882813 0.624727,-0.13882813 0.208242,0 0.399131,0.13015137 0.190888,0.12147462 0.355747,0.32104005 0.164858,0.19956544 0.303686,0.45119142 0.138828,0.24294924 0.234273,0.50325194 0.09544,0.251626 0.147505,0.4858985 0.05206,0.2342724 0.05206,0.3991308 0,0.251626 -0.156181,0.6507569 -0.156182,0.3991309 -0.373101,0.3991309 -0.312363,0 -0.520606,-0.4251612 Q 25.605103,2.7912106 25.544365,2.5742917 25.492305,2.3573727 25.414214,2.1491305 25.3448,1.9408883 25.223325,1.7673532 25.101851,1.5851413 24.884932,1.4983737 q -0.216919,0.052061 -0.442515,0.2255957 -0.216919,0.1735351 -0.433838,0.4251611 -0.208242,0.251626 -0.416484,0.5726661 -0.199566,0.3123632 -0.381778,0.6507568 -0.173535,0.3123633 -0.338393,0.7201709 -0.164859,0.3991309 -0.29501,0.8329688 -0.130151,0.4251611 -0.208242,0.8503223 -0.07809,0.4251611 -0.07809,0.7809082 0,0.251626 0.121475,0.5119287 0.121474,0.251626 0.312363,0.4598682 0.199565,0.2082422 0.442515,0.3383936 0.251626,0.1301513 0.511928,0.1301513 1.284161,0 2.550967,-0.5292822 1.266807,-0.5292822 2.412139,-1.5357862 0.633403,-0.5553125 1.049888,-0.5553125 0.121474,0 0.121474,0.2342725 z"
     id="path4264" /></g><g
   aria-label="ю"
   transform="scale(0.88842335,1.1255895)"
   id="text11307"
   style="font-size:14.2395px;line-height:1.25;font-family:'Segoe Script';-inkscape-font-specification:'Segoe Script';fill:#e0e0e0;stroke-width:0.355982"><path
     d="m 24.114015,41.160366 q 0,-0.02781 -0.03477,-0.04867 -0.02781,-0.02781 -0.06953,-0.06953 -0.04172,-0.04172 -0.07648,-0.111246 -0.02781,-0.06953 -0.02781,-0.19468 0,-0.111247 0.06258,-0.201634 0.06258,-0.09039 0.132105,-0.166869 0.07648,-0.07648 0.139058,-0.139058 0.06953,-0.06258 0.08343,-0.118199 0.118199,-0.667476 0.201634,-1.258471 0.08343,-0.590995 0.104293,-0.987309 0.007,-0.118199 0,-0.243351 0,-0.125152 -0.007,-0.250304 -0.007,-0.09039 -0.01391,-0.173822 0,-0.08343 0,-0.159916 0,-0.08344 0.06258,-0.187728 0.06258,-0.104293 0.152964,-0.19468 0.09734,-0.09039 0.208586,-0.146011 0.118199,-0.06258 0.229445,-0.06258 0.09734,0 0.194681,0.05562 0.09734,0.04867 0.173822,0.146011 0.07648,0.09039 0.125152,0.229445 0.04867,0.132104 0.04867,0.298974 0,0.125151 -0.02086,0.305926 -0.02086,0.180775 -0.05562,0.396315 -0.03476,0.215539 -0.08343,0.451937 -0.04172,0.236398 -0.08344,0.472796 -0.05562,0.326785 -0.111246,0.625759 -0.04867,0.298974 -0.07648,0.514513 0.02781,0.06258 0.04867,0.111246 0.02781,0.04172 0.06953,0.06953 0.04172,0.02781 0.104293,0.04172 0.06953,0.01391 0.180775,0.01391 0.298974,0 0.632713,-0.06258 0.333738,-0.06258 0.632712,-0.159916 0.298974,-0.09734 0.535372,-0.201634 0.24335,-0.111246 0.361549,-0.208586 0.07648,-0.06258 0.166869,-0.166869 0.09734,-0.104293 0.194681,-0.222492 0.09734,-0.125152 0.187728,-0.243351 0.09734,-0.125152 0.166869,-0.21554 0.236398,-0.298973 0.535372,-0.584042 0.298974,-0.285068 0.660524,-0.500607 0.361549,-0.215539 0.778722,-0.347644 0.424126,-0.132105 0.917781,-0.132105 0.375455,0 0.737005,0.187728 0.36155,0.180775 0.639665,0.493655 0.285068,0.312879 0.451937,0.723099 0.173822,0.403267 0.173822,0.848252 0,0.444984 -0.09039,0.813487 -0.08343,0.36155 -0.271163,0.77177 -0.104293,0.215539 -0.361549,0.514513 -0.257257,0.298974 -0.618807,0.618806 -0.354597,0.319833 -0.778722,0.632712 -0.424126,0.31288 -0.862158,0.563184 -0.438031,0.250303 -0.862157,0.403267 -0.417173,0.152963 -0.757864,0.152963 -0.45889,0 -0.785675,-0.152963 -0.326786,-0.159917 -0.535372,-0.41022 -0.208587,-0.257257 -0.305927,-0.584042 -0.09734,-0.326786 -0.09734,-0.660524 0,-0.271162 0.07648,-0.653571 0.08343,-0.389361 0.278116,-0.785675 -0.26421,0.166869 -0.590995,0.264209 -0.319833,0.09734 -0.590995,0.173822 -0.118199,0.03477 -0.26421,0.06258 -0.14601,0.02086 -0.292021,0.04172 -0.139057,0.02086 -0.271162,0.04172 -0.125152,0.02086 -0.215539,0.03476 -0.139058,0.02781 -0.194681,0.111246 -0.04867,0.07648 -0.07648,0.201634 -0.02781,0.118199 -0.08343,0.312879 -0.05562,0.194681 -0.111246,0.403268 -0.06258,0.222492 -0.132105,0.45889 -0.06953,0.236398 -0.125152,0.451937 -0.04867,0.208586 -0.09039,0.389361 -0.03477,0.173822 -0.03477,0.271163 0,0.09039 -0.07648,0.19468 -0.06953,0.104293 -0.166869,0.194681 -0.09039,0.09734 -0.187727,0.159916 -0.09039,0.06258 -0.139058,0.06258 -0.104293,0 -0.201634,-0.06953 -0.09039,-0.06953 -0.159916,-0.159916 -0.06953,-0.09039 -0.111246,-0.180775 -0.04172,-0.09734 -0.04172,-0.14601 0,-0.06258 0.04867,-0.222493 0.05562,-0.159916 0.111246,-0.326785 0.03476,-0.104293 0.09039,-0.285068 0.05562,-0.180775 0.111247,-0.396314 0.06257,-0.222492 0.118199,-0.45889 0.06258,-0.236398 0.111246,-0.444985 0.04867,-0.208586 0.07648,-0.36155 0.02781,-0.159916 0.02781,-0.229445 z m 8.378221,-1.571351 q 0,-0.695288 -0.403267,-1.084649 -0.396314,-0.396314 -1.140272,-0.396314 -0.104293,0 -0.257257,0.08343 -0.152963,0.08344 -0.333738,0.215539 -0.173822,0.125152 -0.354597,0.278116 -0.173822,0.152963 -0.333738,0.298974 -0.152964,0.14601 -0.26421,0.264209 -0.111246,0.118199 -0.152963,0.166869 -0.146011,0.173822 -0.305927,0.479749 -0.152963,0.298974 -0.285068,0.646618 -0.132105,0.347644 -0.222492,0.702241 -0.08344,0.347644 -0.08344,0.611853 0,0.159917 0.04172,0.326786 0.04867,0.166869 0.139058,0.305927 0.09734,0.132104 0.243351,0.222492 0.14601,0.08343 0.340691,0.08343 0.215539,0 0.549278,-0.125152 0.333738,-0.125151 0.702241,-0.347644 0.375455,-0.222492 0.750911,-0.528419 0.382408,-0.305926 0.681382,-0.660523 0.305927,-0.354597 0.493655,-0.743958 0.19468,-0.396315 0.19468,-0.799582 z"
     id="path4306" /></g><g
   aria-label="з"
   transform="scale(1.3773402,0.72603702)"
   id="text16794"
   style="font-size:16.4px;line-height:1.25;font-family:'Segoe Script';-inkscape-font-specification:'Segoe Script';fill:#e0e0e0;stroke-width:0.409989"><path
     d="m 1.0210024,37.654461 q 0.080078,0 0.128125,0.05606 0.056055,0.05605 0.088086,0.136132 0.032031,0.08809 0.040039,0.192188 0.016016,0.104101 0.016016,0.200195 0,0.18418 0.064063,0.400391 0.07207,0.216211 0.2242187,0.40039 0.1601562,0.18418 0.4083984,0.304297 0.2482422,0.128125 0.6085938,0.128125 0.4884765,0 1.0089843,-0.25625 0.5205078,-0.25625 0.9529297,-0.712695 0.4324218,-0.456445 0.7046875,-1.089062 0.2802734,-0.62461 0.2802734,-1.369336 0,-0.688672 -0.1441406,-1.169141 Q 5.2571351,34.395281 5.0249086,34.098992 4.8006898,33.794695 4.5044008,33.658563 4.2081117,33.52243 3.9118227,33.52243 q -0.1121094,0 -0.2482422,0.05605 -0.1361328,0.04805 -0.2802734,0.128125 -0.1361328,0.07207 -0.2802735,0.160157 -0.1361328,0.08809 -0.2482421,0.160156 -0.1921875,0.128125 -0.3683594,0.216211 -0.1681641,0.08809 -0.4484375,0.08809 -0.2162109,0 -0.3763672,-0.160156 -0.1521484,-0.168165 -0.1521484,-0.44043 0,-0.208203 0.1441406,-0.352344 0.1521484,-0.144141 0.4644531,-0.272266 0.6646484,-0.272265 1.1851562,-0.552539 0.5285157,-0.288281 0.8888672,-0.616601 0.3603516,-0.336328 0.5525391,-0.736719 0.1921875,-0.40039 0.1921875,-0.91289 0,-0.200196 -0.064062,-0.392383 -0.056055,-0.200196 -0.1761719,-0.352344 -0.1201172,-0.160156 -0.2962891,-0.25625 -0.168164,-0.104102 -0.3923828,-0.104102 -0.4804687,0 -0.9128906,0.29629 -0.4324218,0.296289 -0.8488281,0.72871 -0.1841797,0.192188 -0.3042968,0.280274 -0.1201172,0.08008 -0.25625,0.08008 -0.1121094,0 -0.2001954,-0.05606 -0.080078,-0.06406 -0.1361328,-0.14414 -0.048047,-0.08809 -0.080078,-0.18418 -0.024023,-0.104102 -0.024023,-0.176172 0,-0.192187 0.1041015,-0.360351 0.1121094,-0.176172 0.2962891,-0.328321 0.4003906,-0.336328 0.7847656,-0.552539 0.384375,-0.216211 0.6326172,-0.320312 0.2802734,-0.11211 0.5765625,-0.216211 0.3042968,-0.104102 0.5685546,-0.104102 0.3763672,0 0.7207031,0.136133 0.344336,0.128125 0.600586,0.384375 0.2642578,0.248242 0.4164062,0.616602 0.1601563,0.368359 0.1601563,0.832812 0,0.672656 -0.3283204,1.337305 -0.3203124,0.664648 -1.0970702,1.289258 0.5365234,0.02402 0.936914,0.272265 0.4003906,0.248242 0.6646484,0.656641 0.2722656,0.408398 0.4003906,0.944922 0.1361329,0.528515 0.1361329,1.121093 0,0.592578 -0.1601563,1.177149 -0.1601562,0.58457 -0.4564453,1.121093 -0.2882812,0.536524 -0.6966797,0.992969 -0.4003906,0.456445 -0.8888671,0.792774 -0.4804688,0.336328 -1.0330078,0.528515 -0.5445313,0.192188 -1.1210937,0.192188 -0.5525391,0 -0.9609375,-0.18418 Q 1.0930727,40.160906 0.82080713,39.888641 0.55654932,39.616375 0.42041651,39.30407 0.2842837,38.991766 0.2842837,38.727508 q 0,-0.200196 0.0720703,-0.432422 0.0800781,-0.232227 0.17617187,-0.368359 0.0640625,-0.08809 0.18417969,-0.18418 0.12011718,-0.08809 0.30429683,-0.08809 z"
     id="path4285" /></g><g
   aria-label="в"
   transform="scale(1.3926265,0.71806763)"
   id="text19318"
   style="font-size:17.078px;line-height:1.25;font-family:'Segoe Script';-inkscape-font-specification:'Segoe Script';fill:#e0e0e0;stroke-width:0.426956"
   inkscape:transform-center-x="0.41763343"><path
     d="m 34.749298,28.162593 q 0,-0.100067 -0.04169,-0.200133 -0.03336,-0.108405 -0.108406,-0.191794 -0.06671,-0.09173 -0.183455,-0.1501 -0.108405,-0.05837 -0.258504,-0.05837 -0.291861,0 -0.608738,0.208472 -0.308538,0.208472 -0.625415,0.575382 -0.308538,0.358571 -0.600398,0.858903 -0.29186,0.491993 -0.542026,1.067375 -0.250166,0.575382 -0.450299,1.209136 -0.191794,0.625415 -0.308538,1.259169 0.07505,-0.05003 0.225149,-0.158439 0.1501,-0.116744 0.333555,-0.258505 0.191794,-0.150099 0.400265,-0.316877 0.216811,-0.175116 0.408605,-0.341893 0.200133,-0.166778 0.36691,-0.316877 0.166777,-0.1501 0.266844,-0.258505 0.925614,-1.000664 1.325879,-1.734484 0.400266,-0.733821 0.400266,-1.192458 z m -0.258505,8.989298 q -0.258505,0.383588 -0.625415,0.750498 -0.358571,0.358571 -0.792192,0.633754 -0.433621,0.275183 -0.925614,0.433621 -0.483655,0.158439 -0.983987,0.116744 -0.350232,-0.02502 -0.667109,-0.225149 -0.316877,-0.208472 -0.558704,-0.583721 -0.241827,-0.383588 -0.383588,-0.933953 -0.141761,-0.550365 -0.141761,-1.267508 0,-0.458637 0.05003,-0.992325 0.05003,-0.542026 0.133421,-1.092391 0.08339,-0.550366 0.183455,-1.075714 0.108406,-0.525349 0.208472,-0.967309 0.133422,-0.600398 0.350233,-1.184119 0.21681,-0.592059 0.483654,-1.134086 0.266844,-0.550365 0.575382,-1.034019 0.308538,-0.483654 0.633754,-0.875581 0.450298,-0.525349 1.02568,-0.842226 0.583721,-0.316877 1.367574,-0.316877 0.325216,0 0.59206,0.133422 0.266844,0.133422 0.458637,0.350233 0.191794,0.208471 0.291861,0.475315 0.108405,0.266844 0.108405,0.525349 0,0.358571 -0.1501,0.800531 -0.14176,0.433621 -0.416943,0.908936 -0.275182,0.475316 -0.667109,0.95897 -0.391927,0.483654 -0.892259,0.933953 0.116744,0.0083 0.266844,0.04169 0.158438,0.02502 0.325216,0.100067 0.175116,0.07505 0.350232,0.200133 0.183455,0.125083 0.350232,0.316876 0.07505,0.09173 0.166778,0.250166 0.09173,0.1501 0.166777,0.37525 0.08339,0.21681 0.133422,0.500332 0.05837,0.283521 0.05837,0.625415 0,0.667109 -0.241827,1.442623 -0.233488,0.767176 -0.833887,1.651096 z m -0.233488,-3.068703 q 0,-0.458638 -0.133422,-0.767176 -0.133422,-0.316877 -0.316877,-0.500332 -0.183455,-0.191794 -0.375249,-0.266843 -0.191794,-0.08339 -0.308538,-0.08339 -0.108405,0 -0.341893,0.166777 -0.233489,0.166778 -0.500332,0.36691 -0.200133,0.175117 -0.400266,0.325216 -0.200133,0.1501 -0.375249,0.291861 -0.166777,0.14176 -0.308538,0.283521 -0.141761,0.141761 -0.233488,0.300199 -0.233489,0.425282 -0.275183,0.967309 -0.04169,0.542026 -0.04169,1.109069 0,0.375249 0.07505,0.675448 0.08339,0.291861 0.200133,0.500332 0.125083,0.208472 0.266844,0.325216 0.141761,0.108405 0.258505,0.108405 0.283521,0 0.642093,-0.116744 0.358571,-0.116744 0.73382,-0.458637 0.325216,-0.3002 0.583721,-0.675449 0.266843,-0.375249 0.450298,-0.792192 0.191794,-0.416943 0.291861,-0.867242 0.108405,-0.450299 0.108405,-0.892259 z"
     id="path4327" /></g><text
   xml:space="preserve"
   style="font-size:7.28917px;line-height:1.25;font-family:'Segoe Script';-inkscape-font-specification:'Segoe Script';fill:#16272a;fill-opacity:0.799714;stroke-width:0.182228"
   x="8.0325136"
   y="30.577795"
   id="text17884"
   transform="scale(1.3021018,0.7679891)"><tspan
     sodipodi:role="line"
     id="tspan17882"
     x="8.0325136"
     y="30.577795"
     style="stroke-width:0.182228">_</tspan></text><text
   xml:space="preserve"
   style="font-size:7.58472px;line-height:1.25;font-family:'Segoe Script';-inkscape-font-specification:'Segoe Script';fill:#16272a;fill-opacity:0.799714;stroke-width:0.189617"
   x="26.098852"
   y="31.626024"
   id="text17884-6"
   transform="scale(1.3548918,0.7380663)"><tspan
     sodipodi:role="line"
     id="tspan17882-2"
     x="26.098852"
     y="31.626024"
     style="stroke-width:0.189617">_</tspan></text><text
   xml:space="preserve"
   style="font-size:6.54684px;line-height:1.25;font-family:'Segoe Script';-inkscape-font-specification:'Segoe Script';fill:#16272a;fill-opacity:0.799714;stroke-width:0.163671"
   x="-30.435822"
   y="32.303371"
   id="text17884-0"
   transform="matrix(-0.01828266,-1.3685569,0.72996932,-0.05444595,0,0)"><tspan
     sodipodi:role="line"
     id="tspan17882-4"
     x="-30.435822"
     y="32.303371"
     style="stroke-width:0.163671">_</tspan></text><text
   xml:space="preserve"
   style="font-size:7.3883px;line-height:1.25;font-family:'Segoe Script';-inkscape-font-specification:'Segoe Script';fill:#16272a;fill-opacity:0.799714;stroke-width:0.184707"
   x="-10.397832"
   y="33.082691"
   id="text17884-9"
   transform="matrix(5.1105576e-4,-1.3376598,0.74757369,0.00145253,0,0)"><tspan
     sodipodi:role="line"
     id="tspan17882-7"
     x="-10.397832"
     y="33.082691"
     style="stroke-width:0.184707">_</tspan></text></svg>
