<?xml version="1.0" encoding="UTF-8" standalone="no"?>
<!-- Generator: Adobe Illustrator 22.0.1, SVG Export Plug-In . SVG Version: 6.00 Build 0)  -->

<svg
   version="1.1"
   id="Layer_1"
   x="0px"
   y="0px"
   viewBox="0 0 50 50"
   xml:space="preserve"
   sodipodi:docname="southwestWind.svg"
   width="50"
   height="50"
   inkscape:version="1.1.1 (3bf5ae0d25, 2021-09-20)"
   xmlns:inkscape="http://www.inkscape.org/namespaces/inkscape"
   xmlns:sodipodi="http://sodipodi.sourceforge.net/DTD/sodipodi-0.dtd"
   xmlns="http://www.w3.org/2000/svg"
   xmlns:svg="http://www.w3.org/2000/svg"><defs
   id="defs7" /><sodipodi:namedview
   id="namedview5"
   pagecolor="#ffffff"
   bordercolor="#666666"
   borderopacity="1.0"
   inkscape:pageshadow="2"
   inkscape:pageopacity="0.0"
   inkscape:pagecheckerboard="0"
   showgrid="false"
   inkscape:zoom="14.366666"
   inkscape:cx="18.23666"
   inkscape:cy="15.904873"
   inkscape:window-width="2400"
   inkscape:window-height="1321"
   inkscape:window-x="2391"
   inkscape:window-y="-9"
   inkscape:window-maximized="1"
   inkscape:current-layer="Layer_1"
   width="140px" />
<path
   d="m 35.775411,35.475514 c -2.008883,1.899765 -4.345987,3.169654 -6.992138,3.809968 -2.646157,0.640311 -5.273763,0.599357 -7.882821,-0.122871 -2.609058,-0.722223 -4.855874,-2.063563 -6.750312,-4.014702 -1.418489,-1.460947 -2.485565,-3.143611 -3.201746,-5.029052 -0.716169,-1.885443 -1.0290622,-3.783536 -0.9868702,-5.685554 0.04221,-1.902024 0.4773212,-3.788454 1.3053502,-5.659291 0.828044,-1.870844 1.975949,-3.50951 3.492456,-4.943652 1.496805,-1.415513 3.214494,-2.4868 5.133888,-3.214168 1.919386,-0.727367 3.856984,-1.066347 5.774946,-1.036452 1.917956,0.02989 3.825615,0.438278 5.703789,1.224832 1.878173,0.786563 3.526757,1.900859 4.954578,3.371421 1.427831,1.47056 2.50424,3.162834 3.220417,5.048281 0.716169,1.885444 1.038395,3.793141 0.996204,5.695163 -0.04219,1.902023 -0.486639,3.778843 -1.285654,5.640666 -0.799017,1.861831 -1.975438,3.490588 -3.482087,4.915411 z m -2.314389,-2.383659 c 2.333838,-2.207079 3.55984,-4.952062 3.668674,-8.244556 0.08913,-3.273865 -0.986423,-6.054723 -3.235475,-8.371099 -1.474484,-1.518622 -3.230364,-2.568323 -5.258822,-3.120577 -2.028463,-0.552252 -4.080158,-0.603162 -6.146807,-0.105275 -2.066644,0.497884 -3.877655,1.473058 -5.433553,2.944445 -1.555888,1.471389 -2.630166,3.224801 -3.222333,5.241306 -0.592161,2.016509 -0.647291,4.04139 -0.165393,6.07464 0.481902,2.03325 1.460348,3.799722 2.934837,5.31834 1.474485,1.518623 3.230367,2.568322 5.258827,3.120579 2.028454,0.55225 4.090009,0.593848 6.165982,0.105569 2.075976,-0.488278 3.878171,-1.491985 5.434063,-2.963372 z M 34.65833,22.943967 18.248788,31.548431 c -0.107802,0.08352 -0.203703,0.08202 -0.287692,-0.0044 -0.08398,-0.08652 -0.08141,-0.181125 0.0077,-0.283857 l 9.419748,-15.803501 c 0.07099,-0.140894 0.159105,-0.20578 0.264849,-0.213597 0.10574,-0.0078 0.180402,0.06907 0.223969,0.230679 l 1.958101,4.545834 c 0.05393,0.133371 0.14725,0.229486 0.270633,0.278735 l 4.546434,2.153394 c 0.1524,0.04024 0.217727,0.107523 0.195972,0.201844 -0.02175,0.09432 -0.07306,0.216581 -0.190185,0.290487 z"
   id="path2"
   style="fill:#2c4f54;fill-opacity:0.5;stroke:#bbcdc6;stroke-width:1;stroke-miterlimit:4;stroke-dasharray:none;stroke-opacity:0.9" />
<path
   style="fill:#2c4f53;fill-opacity:0.499285;stroke:#e4e7e7;stroke-width:0.0832593;stroke-miterlimit:4;stroke-dasharray:none;stroke-opacity:0.9"
   d="m 34.37622,17.799303 c 0.350269,0.452469 0.703463,0.979309 0.978628,1.459753 1.547228,2.701553 1.789082,6.341041 0.624669,9.400199 -0.626784,1.646686 -1.438137,2.830374 -2.812547,4.103226 -1.410666,1.30652 -2.713412,2.059429 -4.468836,2.582983 -1.183166,0.352871 -2.250603,0.499959 -3.538962,0.487636 -2.556831,-0.02444 -4.804415,-0.750018 -6.844497,-2.209521 -0.424854,-0.303946 -0.582202,-0.447908 -1.362782,-1.246827 -0.94746,-0.969753 -1.186059,-1.270014 -1.698391,-2.137367 -0.77375,-1.309989 -1.324989,-3.045016 -1.473018,-4.636371 -0.06038,-0.649108 -0.0096,-2.002838 0.09982,-2.662964 0.264904,-1.597623 0.838533,-3.099628 1.655893,-4.335808 0.60273,-0.911591 0.85193,-1.199515 1.794841,-2.073782 0.66518,-0.616715 0.959574,-0.864717 1.29183,-1.088014 2.017779,-1.356169 4.422343,-2.05457 6.871192,-1.995715 2.508003,0.06028 4.907189,0.886261 6.845685,2.356792 0.446862,0.338988 1.719078,1.585773 2.036486,1.995775 z m -2.192161,3.758848 c -1.234204,-0.586646 -2.285176,-1.092244 -2.335489,-1.12355 -0.0621,-0.03863 -0.419102,-0.808903 -1.111678,-2.398555 -0.587279,-1.347948 -1.051871,-2.35861 -1.094833,-2.381652 -0.08904,-0.04774 -0.249778,0.03238 -0.348901,0.173928 -0.03935,0.05621 -2.125075,3.498844 -4.634951,7.650335 -4.398169,7.27484 -4.561557,7.552287 -4.512217,7.661996 0.03815,0.08478 0.07484,0.114208 0.143952,0.11522 0.114319,0.0018 15.975331,-8.08045 16.118811,-8.213516 0.129639,-0.120223 0.177329,-0.328925 0.08676,-0.379726 -0.03714,-0.02078 -1.077258,-0.51783 -2.311463,-1.104475 z"
   id="path861" /><rect
   style="fill:#c7485e;fill-opacity:1;stroke:#3c4343;stroke-width:0.454714;stroke-opacity:0.9"
   id="rect2803"
   width="4.9846292"
   height="0.058606479"
   x="-37.814625"
   y="-0.16898541"
   transform="matrix(-0.70910756,-0.70510033,0.7354699,-0.67755739,0,0)"
   inkscape:transform-center-x="-4.0518191"
   inkscape:transform-center-y="-0.088035044" /><path
   style="fill:#cb4d64;fill-opacity:1;stroke:#e27364;stroke-width:0.0380605;stroke-opacity:0.9"
   d="m 26.240311,27.087343 c -0.08437,0.04333 -1.889901,0.998832 -4.012303,2.123361 -2.122403,1.124529 -3.917611,2.061539 -3.989345,2.08223 -0.112874,0.03257 4.397171,-7.501366 4.610332,-7.701451 0.0582,-0.05469 0.54134,0.390957 1.812038,1.671291 1.620243,1.632532 1.722683,1.750943 1.579291,1.824551 z"
   id="path3397"
   inkscape:transform-center-x="-1.4506878"
   inkscape:transform-center-y="2.06063" /><text
   xml:space="preserve"
   style="font-size:17.77px;line-height:1.25;font-family:'Segoe Script';-inkscape-font-specification:'Segoe Script';fill:#e0e0e0;fill-opacity:1;stroke-width:0.444248"
   x="19.237181"
   y="9.1897249"
   id="text9344"
   transform="scale(1.0219273,0.97854317)"><tspan
     sodipodi:role="line"
     id="tspan9342"
     x="19.237181"
     y="9.1897249"
     style="fill:#e0e0e0;fill-opacity:1;stroke-width:0.444248">c</tspan></text><text
   xml:space="preserve"
   style="font-size:14.2395px;line-height:1.25;font-family:'Segoe Script';-inkscape-font-specification:'Segoe Script';fill:#e0e0e0;fill-opacity:1;stroke-width:0.355981"
   x="20.931198"
   y="43.69384"
   id="text11307"
   transform="scale(0.88842185,1.1255914)"><tspan
     sodipodi:role="line"
     id="tspan11305"
     x="20.931198"
     y="43.69384"
     style="fill:#e0e0e0;fill-opacity:1;stroke-width:0.355981">ю</tspan></text><text
   xml:space="preserve"
   style="font-size:16.3999px;line-height:1.25;font-family:'Segoe Script';-inkscape-font-specification:'Segoe Script';fill:#e0e0e0;fill-opacity:1;stroke-width:0.409997"
   x="-0.3037186"
   y="36.284695"
   id="text16794"
   transform="scale(1.3773356,0.72603946)"
   inkscape:transform-center-x="-26.18428"
   inkscape:transform-center-y="-15.356194"><tspan
     sodipodi:role="line"
     id="tspan16792"
     x="-0.3037186"
     y="36.284695"
     style="fill:#e0e0e0;fill-opacity:1;stroke-width:0.409997">з</tspan></text><text
   xml:space="preserve"
   style="font-size:17.0779px;line-height:1.25;font-family:'Segoe Script';-inkscape-font-specification:'Segoe Script';fill:#e0e0e0;fill-opacity:1;stroke-width:0.426953"
   x="28.295868"
   y="39.225952"
   id="text19318"
   transform="scale(1.3926245,0.71806865)"><tspan
     sodipodi:role="line"
     id="tspan19316"
     x="28.295868"
     y="39.225952"
     style="fill:#e0e0e0;fill-opacity:1;stroke-width:0.426953">в</tspan></text><text
   xml:space="preserve"
   style="font-size:7.69848px;line-height:1.25;font-family:'Segoe Script';-inkscape-font-specification:'Segoe Script';fill:#16272a;fill-opacity:0.799714;stroke-width:0.192462"
   x="7.1227818"
   y="32.101944"
   id="text17884"
   transform="scale(1.3847066,0.72217463)"><tspan
     sodipodi:role="line"
     id="tspan17882"
     x="7.1227818"
     y="32.101944"
     style="stroke-width:0.192462">_</tspan></text><text
   xml:space="preserve"
   style="font-size:8.1322px;line-height:1.25;font-family:'Segoe Script';-inkscape-font-specification:'Segoe Script';fill:#16272a;fill-opacity:0.799714;stroke-width:0.203303"
   x="24.39562"
   y="33.70528"
   id="text17884-6"
   transform="scale(1.4627207,0.68365749)"><tspan
     sodipodi:role="line"
     id="tspan17882-2"
     x="24.39562"
     y="33.70528"
     style="stroke-width:0.203303">_</tspan></text><text
   xml:space="preserve"
   style="font-size:7.1826px;line-height:1.25;font-family:'Segoe Script';-inkscape-font-specification:'Segoe Script';fill:#16272a;fill-opacity:0.799714;stroke-width:0.179564"
   x="-28.397732"
   y="35.169212"
   id="text17884-0"
   transform="matrix(-0.01692218,-1.478584,0.67564951,-0.0588232,0,0)"><tspan
     sodipodi:role="line"
     id="tspan17882-4"
     x="-28.397732"
     y="35.169212"
     style="stroke-width:0.179564">_</tspan></text><text
   xml:space="preserve"
   style="font-size:7.56164px;line-height:1.25;font-family:'Segoe Script';-inkscape-font-specification:'Segoe Script';fill:#16272a;fill-opacity:0.799714;stroke-width:0.18904"
   x="-10.133267"
   y="33.497601"
   id="text17884-9"
   transform="matrix(5.0706542e-4,-1.3481865,0.74173658,0.00146396,0,0)"><tspan
     sodipodi:role="line"
     id="tspan17882-7"
     x="-10.133267"
     y="33.497601"
     style="stroke-width:0.18904">_</tspan></text></svg>
