<?xml version="1.0" encoding="UTF-8" standalone="no"?>
<!-- Generator: Adobe Illustrator 22.0.1, SVG Export Plug-In . SVG Version: 6.00 Build 0)  -->

<svg
   version="1.1"
   id="Layer_1"
   x="0px"
   y="0px"
   viewBox="0 0 50 50"
   xml:space="preserve"
   sodipodi:docname="westWind.svg"
   width="50"
   height="50"
   inkscape:version="1.1.1 (3bf5ae0d25, 2021-09-20)"
   xmlns:inkscape="http://www.inkscape.org/namespaces/inkscape"
   xmlns:sodipodi="http://sodipodi.sourceforge.net/DTD/sodipodi-0.dtd"
   xmlns="http://www.w3.org/2000/svg"
   xmlns:svg="http://www.w3.org/2000/svg"><defs
   id="defs7" /><sodipodi:namedview
   id="namedview5"
   pagecolor="#ffffff"
   bordercolor="#666666"
   borderopacity="1.0"
   inkscape:pageshadow="2"
   inkscape:pageopacity="0.0"
   inkscape:pagecheckerboard="0"
   showgrid="false"
   inkscape:zoom="10.158767"
   inkscape:cx="44.09984"
   inkscape:cy="27.513182"
   inkscape:window-width="2400"
   inkscape:window-height="1321"
   inkscape:window-x="2391"
   inkscape:window-y="-9"
   inkscape:window-maximized="1"
   inkscape:current-layer="Layer_1"
   width="140px" />
<path
   d="M 24.145829,39.75124 C 21.41025,39.596082 18.914537,38.78228 16.671335,37.323703 14.428133,35.865129 12.695013,33.960929 11.471973,31.611112 10.248932,29.261299 9.7211758,26.753192 9.8752852,24.086025 9.990676,22.088937 10.503811,20.193494 11.400502,18.412074 c 0.896701,-1.781412 2.073228,-3.283328 3.49087,-4.53429 1.417658,-1.250957 3.087554,-2.210796 5.009691,-2.879519 1.922153,-0.668718 3.889327,-0.952611 5.954425,-0.835498 2.038273,0.115592 3.97331,0.62079 5.79247,1.501687 1.81915,0.880891 3.366823,2.036386 4.631878,3.42631 1.265051,1.389918 2.246716,3.027415 2.932369,4.898569 0.685647,1.871157 0.97785,3.799087 0.861695,5.809315 -0.116139,2.010232 -0.630038,3.918811 -1.526733,5.700229 -0.896703,1.781416 -2.073983,3.296469 -3.491629,4.547436 -1.417643,1.250966 -3.086781,2.197673 -4.982871,2.881042 -1.896091,0.683379 -3.875158,0.940229 -5.926838,0.823885 z m 0.188273,-3.258417 c 3.178095,0.180236 6.005782,-0.793038 8.483816,-2.932955 2.451207,-2.14144 3.760832,-4.782623 3.943792,-7.949058 0.119943,-2.075924 -0.291431,-4.036977 -1.249066,-5.85765 -0.957635,-1.820673 -2.297068,-3.320264 -4.047403,-4.460892 -1.75033,-1.140631 -3.677778,-1.777213 -5.796514,-1.897376 -2.118728,-0.120145 -4.120317,0.293611 -5.990604,1.2289 -1.870283,0.935294 -3.386352,2.25977 -4.548209,3.973421 -1.16185,1.713657 -1.795672,3.60225 -1.915614,5.678175 -0.119958,2.075923 0.291432,4.036977 1.249065,5.857651 0.957632,1.820668 2.310482,3.32103 4.060058,4.474788 1.749575,1.153772 3.691947,1.76484 5.810679,1.884996 z m 8.215902,-5.979961 -17.295412,-5.924036 c -0.133336,-0.02074 -0.196586,-0.09025 -0.189744,-0.2085 0.0069,-0.11824 0.07769,-0.180142 0.21252,-0.185681 L 33.1414,20.277774 c 0.150546,-0.04421 0.257064,-0.02497 0.333724,0.04528 0.07664,0.07027 0.0706,0.175367 -0.01838,0.315325 l -2.006697,4.460278 c -0.06124,0.128346 -0.06882,0.259735 -0.02202,0.381026 l 1.477557,4.697426 c 0.07287,0.135948 0.06754,0.227919 -0.01581,0.275919 -0.08351,0.04797 -0.20722,0.0937 -0.339797,0.05982 z"
   id="path2"
   style="fill:#2c4f54;fill-opacity:0.5;stroke:#bbcdc6;stroke-width:1;stroke-miterlimit:4;stroke-dasharray:none;stroke-opacity:0.9" />
<path
   style="fill:#2c4f53;fill-opacity:0.499285;stroke:#e4e7e7;stroke-width:0.0828381;stroke-miterlimit:4;stroke-dasharray:none;stroke-opacity:0.9"
   d="m 36.175553,26.797217 c -0.09071,0.558988 -0.233822,1.170919 -0.396493,1.695521 -0.914733,2.949845 -3.410357,5.610952 -6.445788,6.873197 -1.633917,0.67944 -3.055807,0.910756 -4.928947,0.801853 -1.922623,-0.111723 -3.366412,-0.525112 -4.95285,-1.417895 -1.069266,-0.601744 -1.908698,-1.261747 -2.783032,-2.188173 -1.735178,-1.838548 -2.745613,-3.936195 -3.077074,-6.38787 -0.06903,-0.510571 -0.07164,-0.721132 -0.0226,-1.823644 0.05954,-1.338241 0.115514,-1.713576 0.398515,-2.671748 0.427444,-1.447127 1.31827,-3.026363 2.380485,-4.220046 0.433272,-0.486903 1.458004,-1.376463 2.015788,-1.749875 1.349921,-0.903741 2.841593,-1.522121 4.305986,-1.785054 1.079872,-0.193904 1.461282,-0.213229 2.747101,-0.139218 0.907057,0.05223 1.290259,0.0924 1.681357,0.176461 2.375185,0.510356 4.534559,1.746108 6.170536,3.531243 1.675492,1.828264 2.716448,4.102594 2.970195,6.489423 0.05849,0.550215 0.01902,2.309297 -0.06315,2.81583 z m -4.251757,1.008404 c -0.41722,-1.280578 -0.768074,-2.375172 -0.779675,-2.432431 -0.01433,-0.07067 0.304175,-0.851772 0.991783,-2.4323 0.583054,-1.340221 1.00358,-2.362376 0.990974,-2.408743 -0.02615,-0.0961 -0.194937,-0.155833 -0.366407,-0.129674 -0.06807,0.01032 -4.015626,0.87841 -8.772346,1.928931 -8.335413,1.840874 -8.650324,1.914175 -8.696722,2.024356 -0.03584,0.08516 -0.03221,0.131419 0.01445,0.181362 0.07717,0.08258 16.862242,5.857362 17.057926,5.868603 0.176798,0.0102 0.362114,-0.09858 0.337167,-0.197847 -0.01021,-0.04066 -0.359934,-1.12169 -0.777152,-2.402267 z"
   id="path861" /><rect
   style="fill:#c7485e;fill-opacity:1;stroke:#3c4343;stroke-width:0.406529;stroke-opacity:0.9"
   id="rect2803"
   width="5.0602899"
   height="0.046143431"
   x="-27.049004"
   y="24.466278"
   transform="matrix(0.00289441,-0.99999581,0.99987013,0.01611562,0,0)"
   inkscape:transform-center-x="-2.292569"
   inkscape:transform-center-y="2.760957" /><path
   style="fill:#cb4d64;fill-opacity:1;stroke:#e27364;stroke-width:0.0395176;stroke-opacity:0.9"
   d="m 23.876846,27.407785 c -0.09388,-0.03222 -2.123727,-0.702102 -4.510859,-1.488587 -2.387131,-0.78648 -4.395517,-1.461751 -4.463068,-1.500601 -0.106286,-0.06115 8.868085,-2.03502 9.17393,-2.01778 0.08354,0.0047 0.0948,0.680858 0.04225,2.535997 -0.067,2.36546 -0.08275,2.525781 -0.242235,2.470968 z"
   id="path3397"
   inkscape:transform-center-x="1.721058"
   inkscape:transform-center-y="2.7609539" /><text
   xml:space="preserve"
   style="font-size:17.77px;line-height:1.25;font-family:'Segoe Script';-inkscape-font-specification:'Segoe Script';fill:#e0e0e0;fill-opacity:1;stroke-width:0.444248"
   x="20.178215"
   y="9.3665266"
   id="text9344"
   transform="scale(1.0219273,0.97854318)"><tspan
     sodipodi:role="line"
     id="tspan9342"
     x="20.178215"
     y="9.3665266"
     style="fill:#e0e0e0;fill-opacity:1;stroke-width:0.444248">c</tspan></text><text
   xml:space="preserve"
   style="font-size:14.2395px;line-height:1.25;font-family:'Segoe Script';-inkscape-font-specification:'Segoe Script';fill:#e0e0e0;fill-opacity:1;stroke-width:0.355982"
   x="23.068392"
   y="43.847782"
   id="text11307"
   transform="scale(0.88842184,1.1255914)"><tspan
     sodipodi:role="line"
     id="tspan11305"
     x="23.068392"
     y="43.847782"
     style="fill:#e0e0e0;fill-opacity:1;stroke-width:0.355982">ю</tspan></text><text
   xml:space="preserve"
   style="font-size:16.3999px;line-height:1.25;font-family:'Segoe Script';-inkscape-font-specification:'Segoe Script';fill:#e0e0e0;fill-opacity:1;stroke-width:0.409997"
   x="-0.35574007"
   y="37.702557"
   id="text16794"
   transform="scale(1.3773354,0.72603958)"><tspan
     sodipodi:role="line"
     id="tspan16792"
     x="-0.35574007"
     y="37.702557"
     style="fill:#e0e0e0;fill-opacity:1;stroke-width:0.409997">з</tspan></text><text
   xml:space="preserve"
   style="font-size:17.078px;line-height:1.25;font-family:'Segoe Script';-inkscape-font-specification:'Segoe Script';fill:#e0e0e0;fill-opacity:1;stroke-width:0.426948"
   x="28.122322"
   y="38.804642"
   id="text19318"
   transform="scale(1.3926277,0.718067)"><tspan
     sodipodi:role="line"
     id="tspan19316"
     x="28.122322"
     y="38.804642"
     style="fill:#e0e0e0;fill-opacity:1;stroke-width:0.426948">в</tspan></text><text
   xml:space="preserve"
   style="font-size:7.12447px;line-height:1.25;font-family:'Segoe Script';-inkscape-font-specification:'Segoe Script';fill:#16272a;fill-opacity:0.799714;stroke-width:0.178112"
   x="7.7411842"
   y="30.761063"
   id="text17884"
   transform="scale(1.2857984,0.77772688)"><tspan
     sodipodi:role="line"
     id="tspan17882"
     x="7.7411842"
     y="30.761063"
     style="stroke-width:0.178112">_</tspan></text><text
   xml:space="preserve"
   style="font-size:7.80122px;line-height:1.25;font-family:'Segoe Script';-inkscape-font-specification:'Segoe Script';fill:#16272a;fill-opacity:0.799714;stroke-width:0.195032"
   x="25.126867"
   y="33.486252"
   id="text17884-6"
   transform="scale(1.4079409,0.71025707)"><tspan
     sodipodi:role="line"
     id="tspan17882-2"
     x="25.126867"
     y="33.486252"
     style="stroke-width:0.195032">_</tspan></text><text
   xml:space="preserve"
   style="font-size:6.55618px;line-height:1.25;font-family:'Segoe Script';-inkscape-font-specification:'Segoe Script';fill:#16272a;fill-opacity:0.799714;stroke-width:0.163903"
   x="-30.520777"
   y="31.433701"
   id="text17884-0"
   transform="matrix(-0.01849742,-1.3526681,0.73854378,-0.05381383,0,0)"><tspan
     sodipodi:role="line"
     id="tspan17882-4"
     x="-30.520777"
     y="31.433701"
     style="stroke-width:0.163903">_</tspan></text><text
   xml:space="preserve"
   style="font-size:7.59138px;line-height:1.25;font-family:'Segoe Script';-inkscape-font-specification:'Segoe Script';fill:#16272a;fill-opacity:0.799714;stroke-width:0.189782"
   x="-10.637533"
   y="33.075436"
   id="text17884-9"
   transform="matrix(5.0394684e-4,-1.3565295,0.73717471,0.00147303,0,0)"><tspan
     sodipodi:role="line"
     id="tspan17882-7"
     x="-10.637533"
     y="33.075436"
     style="stroke-width:0.189782">_</tspan></text></svg>
