<?xml version="1.0" encoding="UTF-8" standalone="no"?>
<!-- Generator: Adobe Illustrator 22.0.1, SVG Export Plug-In . SVG Version: 6.00 Build 0)  -->

<svg
   version="1.1"
   id="Layer_1"
   x="0px"
   y="0px"
   viewBox="0 0 50 50"
   xml:space="preserve"
   sodipodi:docname="westWind.svg"
   width="50"
   height="50"
   inkscape:version="1.1.1 (3bf5ae0d25, 2021-09-20)"
   xmlns:inkscape="http://www.inkscape.org/namespaces/inkscape"
   xmlns:sodipodi="http://sodipodi.sourceforge.net/DTD/sodipodi-0.dtd"
   xmlns="http://www.w3.org/2000/svg"
   xmlns:svg="http://www.w3.org/2000/svg"><defs
   id="defs7" /><sodipodi:namedview
   id="namedview5"
   pagecolor="#ffffff"
   bordercolor="#666666"
   borderopacity="1.0"
   inkscape:pageshadow="2"
   inkscape:pageopacity="0.0"
   inkscape:pagecheckerboard="0"
   showgrid="false"
   inkscape:zoom="20.317534"
   inkscape:cx="17.2265"
   inkscape:cy="22.960464"
   inkscape:window-width="2400"
   inkscape:window-height="1321"
   inkscape:window-x="2391"
   inkscape:window-y="-9"
   inkscape:window-maximized="1"
   inkscape:current-layer="Layer_1"
   width="140px" />
<path
   d="M 24.145829,39.75124 C 21.41025,39.596082 18.914537,38.78228 16.671335,37.323703 14.428133,35.865129 12.695013,33.960929 11.471973,31.611112 10.248932,29.261299 9.7211758,26.753192 9.8752852,24.086025 9.990676,22.088937 10.503811,20.193494 11.400502,18.412074 c 0.896701,-1.781412 2.073228,-3.283328 3.49087,-4.53429 1.417658,-1.250957 3.087554,-2.210796 5.009691,-2.879519 1.922153,-0.668718 3.889327,-0.952611 5.954425,-0.835498 2.038273,0.115592 3.97331,0.62079 5.79247,1.501687 1.81915,0.880891 3.366823,2.036386 4.631878,3.42631 1.265051,1.389918 2.246716,3.027415 2.932369,4.898569 0.685647,1.871157 0.97785,3.799087 0.861695,5.809315 -0.116139,2.010232 -0.630038,3.918811 -1.526733,5.700229 -0.896703,1.781416 -2.073983,3.296469 -3.491629,4.547436 -1.417643,1.250966 -3.086781,2.197673 -4.982871,2.881042 -1.896091,0.683379 -3.875158,0.940229 -5.926838,0.823885 z m 0.188273,-3.258417 c 3.178095,0.180236 6.005782,-0.793038 8.483816,-2.932955 2.451207,-2.14144 3.760832,-4.782623 3.943792,-7.949058 0.119943,-2.075924 -0.291431,-4.036977 -1.249066,-5.85765 -0.957635,-1.820673 -2.297068,-3.320264 -4.047403,-4.460892 -1.75033,-1.140631 -3.677778,-1.777213 -5.796514,-1.897376 -2.118728,-0.120145 -4.120317,0.293611 -5.990604,1.2289 -1.870283,0.935294 -3.386352,2.25977 -4.548209,3.973421 -1.16185,1.713657 -1.795672,3.60225 -1.915614,5.678175 -0.119958,2.075923 0.291432,4.036977 1.249065,5.857651 0.957632,1.820668 2.310482,3.32103 4.060058,4.474788 1.749575,1.153772 3.691947,1.76484 5.810679,1.884996 z m 8.215902,-5.979961 -17.295412,-5.924036 c -0.133336,-0.02074 -0.196586,-0.09025 -0.189744,-0.2085 0.0069,-0.11824 0.07769,-0.180142 0.21252,-0.185681 L 33.1414,20.277774 c 0.150546,-0.04421 0.257064,-0.02497 0.333724,0.04528 0.07664,0.07027 0.0706,0.175367 -0.01838,0.315325 l -2.006697,4.460278 c -0.06124,0.128346 -0.06882,0.259735 -0.02202,0.381026 l 1.477557,4.697426 c 0.07287,0.135948 0.06754,0.227919 -0.01581,0.275919 -0.08351,0.04797 -0.20722,0.0937 -0.339797,0.05982 z"
   id="path2"
   style="fill:#2c4f54;fill-opacity:0.5;stroke:#bbcdc6;stroke-width:0.5;stroke-miterlimit:4;stroke-dasharray:none;stroke-opacity:0.9" />
<path
   style="fill:#2c4f53;fill-opacity:0.499285;stroke:#e4e7e7;stroke-width:0.0828381;stroke-miterlimit:4;stroke-dasharray:none;stroke-opacity:0.9"
   d="m 36.175553,26.797217 c -0.09071,0.558988 -0.233822,1.170919 -0.396493,1.695521 -0.914733,2.949845 -3.410357,5.610952 -6.445788,6.873197 -1.633917,0.67944 -3.055807,0.910756 -4.928947,0.801853 -1.922623,-0.111723 -3.366412,-0.525112 -4.95285,-1.417895 -1.069266,-0.601744 -1.908698,-1.261747 -2.783032,-2.188173 -1.735178,-1.838548 -2.745613,-3.936195 -3.077074,-6.38787 -0.06903,-0.510571 -0.07164,-0.721132 -0.0226,-1.823644 0.05954,-1.338241 0.115514,-1.713576 0.398515,-2.671748 0.427444,-1.447127 1.31827,-3.026363 2.380485,-4.220046 0.433272,-0.486903 1.458004,-1.376463 2.015788,-1.749875 1.349921,-0.903741 2.841593,-1.522121 4.305986,-1.785054 1.079872,-0.193904 1.461282,-0.213229 2.747101,-0.139218 0.907057,0.05223 1.290259,0.0924 1.681357,0.176461 2.375185,0.510356 4.534559,1.746108 6.170536,3.531243 1.675492,1.828264 2.716448,4.102594 2.970195,6.489423 0.05849,0.550215 0.01902,2.309297 -0.06315,2.81583 z m -4.251757,1.008404 c -0.41722,-1.280578 -0.768074,-2.375172 -0.779675,-2.432431 -0.01433,-0.07067 0.304175,-0.851772 0.991783,-2.4323 0.583054,-1.340221 1.00358,-2.362376 0.990974,-2.408743 -0.02615,-0.0961 -0.194937,-0.155833 -0.366407,-0.129674 -0.06807,0.01032 -4.015626,0.87841 -8.772346,1.928931 -8.335413,1.840874 -8.650324,1.914175 -8.696722,2.024356 -0.03584,0.08516 -0.03221,0.131419 0.01445,0.181362 0.07717,0.08258 16.862242,5.857362 17.057926,5.868603 0.176798,0.0102 0.362114,-0.09858 0.337167,-0.197847 -0.01021,-0.04066 -0.359934,-1.12169 -0.777152,-2.402267 z"
   id="path861" /><rect
   style="fill:#c7485e;fill-opacity:1;stroke:#3c4343;stroke-width:0.406529;stroke-opacity:0.9"
   id="rect2803"
   width="5.0602899"
   height="0.046143431"
   x="-27.049004"
   y="24.466278"
   transform="matrix(0.00289441,-0.99999581,0.99987013,0.01611562,0,0)"
   inkscape:transform-center-x="-2.292569"
   inkscape:transform-center-y="2.760957" /><path
   style="fill:#cb4d64;fill-opacity:1;stroke:#e27364;stroke-width:0.0395176;stroke-opacity:0.9"
   d="m 23.876846,27.407785 c -0.09388,-0.03222 -2.123727,-0.702102 -4.510859,-1.488587 -2.387131,-0.78648 -4.395517,-1.461751 -4.463068,-1.500601 -0.106286,-0.06115 8.868085,-2.03502 9.17393,-2.01778 0.08354,0.0047 0.0948,0.680858 0.04225,2.535997 -0.067,2.36546 -0.08275,2.525781 -0.242235,2.470968 z"
   id="path3397"
   inkscape:transform-center-x="1.721058"
   inkscape:transform-center-y="2.7609539" /><g
   aria-label="c"
   transform="scale(1.0219273,0.97854318)"
   id="text9344"
   style="font-size:17.77px;line-height:1.25;font-family:'Segoe Script';-inkscape-font-specification:'Segoe Script';fill:#e0e0e0;stroke-width:0.444248"><path
     d="m 30.095749,5.7743488 q 0,0.3123633 -0.225595,0.5639892 -0.234273,0.2603028 -0.407808,0.4425147 -0.173535,0.1735352 -0.329717,0.3210401 -0.156181,0.1475048 -0.329716,0.286333 -0.173536,0.1301513 -0.407808,0.3036865 -0.659434,0.4772217 -1.25813,0.8069385 -0.598696,0.32104 -1.162686,0.5292822 -0.563989,0.1995655 -1.119301,0.2863331 -0.546636,0.086767 -1.101949,0.086767 -0.581342,0 -1.041211,-0.2169189 Q 22.25196,8.958719 21.93092,8.5769416 21.618557,8.1951643 21.453698,7.6919123 21.28884,7.1799836 21.28884,6.6159943 v -0.043384 q 0,-0.572666 0.147505,-1.2147461 0.147505,-0.6507569 0.407808,-1.3015137 0.268979,-0.6507569 0.64208,-1.2754834 0.3731,-0.6334034 0.824292,-1.1800391 0.182212,-0.216919 0.433838,-0.4598682 0.260302,-0.251626 0.546635,-0.45986819 0.29501,-0.20824219 0.607373,-0.33839356 0.32104,-0.13882813 0.624727,-0.13882813 0.208242,0 0.399131,0.13015137 0.190889,0.12147461 0.355747,0.32104005 0.164858,0.19956543 0.303686,0.45119146 0.138829,0.2429492 0.234273,0.5032519 0.09544,0.251626 0.147505,0.4858985 0.05206,0.2342724 0.05206,0.3991308 0,0.251626 -0.156181,0.6507569 -0.156182,0.3991309 -0.373101,0.3991309 -0.312363,0 -0.520605,-0.4251612 Q 25.887522,2.9544024 25.826785,2.7374835 25.774724,2.5205645 25.696633,2.3123223 25.627219,2.1040801 25.505744,1.930545 25.38427,1.748333 25.167351,1.6615655 24.950432,1.713626 24.724836,1.8871612 24.507917,2.0606963 24.290998,2.3123223 24.082756,2.5639483 23.874514,2.8849884 23.674949,3.1973516 23.492737,3.5357452 23.319201,3.8481085 23.154343,4.2559161 22.989485,4.655047 22.859333,5.0888849 22.729182,5.514046 22.651091,5.9392072 22.573,6.3643683 22.573,6.7201154 q 0,0.251626 0.121475,0.5119287 0.121474,0.251626 0.312363,0.4598682 0.199566,0.2082422 0.442515,0.3383936 0.251626,0.1301513 0.511929,0.1301513 1.28416,0 2.550966,-0.5292822 1.266807,-0.5292822 2.412139,-1.5357862 0.633403,-0.5553125 1.049888,-0.5553125 0.121474,0 0.121474,0.2342725 z"
     id="path4474" /></g><g
   aria-label="ю"
   transform="scale(0.88842184,1.1255914)"
   id="text11307"
   style="font-size:14.2395px;line-height:1.25;font-family:'Segoe Script';-inkscape-font-specification:'Segoe Script';fill:#e0e0e0;stroke-width:0.355982"><path
     d="m 24.931764,40.976242 q 0,-0.02781 -0.03477,-0.04867 -0.02781,-0.02781 -0.06953,-0.06953 -0.04172,-0.04172 -0.07648,-0.111246 -0.02781,-0.06953 -0.02781,-0.19468 0,-0.111246 0.06258,-0.201634 0.06258,-0.09039 0.132105,-0.166869 0.07648,-0.07648 0.139058,-0.139058 0.06953,-0.06258 0.08343,-0.118199 0.118199,-0.667476 0.201634,-1.258471 0.08343,-0.590995 0.104293,-0.987309 0.007,-0.118199 0,-0.243351 0,-0.125152 -0.007,-0.250304 -0.007,-0.09039 -0.01391,-0.173822 0,-0.08343 0,-0.159916 0,-0.08344 0.06258,-0.187728 0.06258,-0.104293 0.152964,-0.19468 0.09734,-0.09039 0.208586,-0.146011 0.118199,-0.06258 0.229445,-0.06258 0.09734,0 0.194681,0.05562 0.09734,0.04867 0.173822,0.146011 0.07648,0.09039 0.125152,0.229445 0.04867,0.132104 0.04867,0.298974 0,0.125151 -0.02086,0.305926 -0.02086,0.180775 -0.05562,0.396315 -0.03476,0.215539 -0.08343,0.451937 -0.04172,0.236398 -0.08343,0.472796 -0.05562,0.326785 -0.111246,0.625759 -0.04867,0.298974 -0.07648,0.514513 0.02781,0.06258 0.04867,0.111246 0.02781,0.04172 0.06953,0.06953 0.04172,0.02781 0.104294,0.04172 0.06953,0.01391 0.180774,0.01391 0.298974,0 0.632713,-0.06258 0.333738,-0.06258 0.632712,-0.159916 0.298974,-0.09734 0.535372,-0.201634 0.24335,-0.111246 0.361549,-0.208586 0.07648,-0.06258 0.16687,-0.166869 0.09734,-0.104293 0.19468,-0.222492 0.09734,-0.125152 0.187728,-0.243351 0.09734,-0.125152 0.166869,-0.21554 0.236398,-0.298973 0.535372,-0.584041 0.298974,-0.285069 0.660524,-0.500608 0.361549,-0.215539 0.778722,-0.347644 0.424126,-0.132105 0.917781,-0.132105 0.375455,0 0.737005,0.187728 0.36155,0.180775 0.639665,0.493655 0.285068,0.312879 0.451937,0.723099 0.173822,0.403267 0.173822,0.848252 0,0.444984 -0.09039,0.813487 -0.08343,0.36155 -0.271163,0.77177 -0.104293,0.215539 -0.361549,0.514513 -0.257257,0.298974 -0.618807,0.618806 -0.354597,0.319833 -0.778722,0.632712 -0.424126,0.31288 -0.862158,0.563184 -0.438031,0.250303 -0.862157,0.403267 -0.417173,0.152963 -0.757864,0.152963 -0.45889,0 -0.785675,-0.152963 -0.326786,-0.159917 -0.535372,-0.41022 -0.208587,-0.257257 -0.305927,-0.584042 -0.09734,-0.326786 -0.09734,-0.660524 0,-0.271162 0.07648,-0.653571 0.08344,-0.389361 0.278116,-0.785675 -0.26421,0.166869 -0.590995,0.264209 -0.319833,0.09734 -0.590995,0.173822 -0.118199,0.03477 -0.26421,0.06258 -0.14601,0.02086 -0.292021,0.04172 -0.139057,0.02086 -0.271162,0.04172 -0.125152,0.02086 -0.215539,0.03476 -0.139058,0.02781 -0.194681,0.111246 -0.04867,0.07648 -0.07648,0.201634 -0.02781,0.118199 -0.08343,0.312879 -0.05562,0.194681 -0.111246,0.403268 -0.06258,0.222492 -0.132105,0.45889 -0.06953,0.236398 -0.125152,0.451937 -0.04867,0.208586 -0.09039,0.389361 -0.03477,0.173822 -0.03477,0.271163 0,0.09039 -0.07648,0.19468 -0.06953,0.104293 -0.16687,0.194681 -0.09039,0.09734 -0.187727,0.159916 -0.09039,0.06258 -0.139058,0.06258 -0.104293,0 -0.201634,-0.06953 -0.09039,-0.06953 -0.159916,-0.159916 -0.06953,-0.09039 -0.111246,-0.180775 -0.04172,-0.09734 -0.04172,-0.14601 0,-0.06258 0.04867,-0.222493 0.05562,-0.159916 0.111246,-0.326785 0.03476,-0.104293 0.09039,-0.285068 0.05562,-0.180775 0.111247,-0.396314 0.06258,-0.222492 0.118199,-0.45889 0.06257,-0.236398 0.111246,-0.444985 0.04867,-0.208586 0.07648,-0.36155 0.02781,-0.159916 0.02781,-0.229445 z m 8.378221,-1.571351 q 0,-0.695288 -0.403267,-1.084649 -0.396314,-0.396314 -1.140272,-0.396314 -0.104293,0 -0.257257,0.08343 -0.152963,0.08344 -0.333738,0.21554 -0.173822,0.125151 -0.354597,0.278115 -0.173822,0.152963 -0.333738,0.298974 -0.152964,0.14601 -0.26421,0.264209 -0.111246,0.118199 -0.152963,0.166869 -0.146011,0.173822 -0.305927,0.479749 -0.152963,0.298974 -0.285068,0.646618 -0.132105,0.347644 -0.222492,0.702241 -0.08344,0.347644 -0.08344,0.611853 0,0.159917 0.04172,0.326786 0.04867,0.166869 0.139058,0.305927 0.09734,0.132104 0.243351,0.222492 0.14601,0.08343 0.340691,0.08343 0.215539,0 0.549278,-0.125152 0.333738,-0.125151 0.702241,-0.347644 0.375455,-0.222492 0.750911,-0.528419 0.382408,-0.305926 0.681382,-0.660523 0.305927,-0.354597 0.493655,-0.743958 0.19468,-0.396315 0.19468,-0.799582 z"
     id="path4516" /></g><g
   aria-label="з"
   transform="scale(1.3773354,0.72603958)"
   id="text16794"
   style="font-size:16.3999px;line-height:1.25;font-family:'Segoe Script';-inkscape-font-specification:'Segoe Script';fill:#e0e0e0;stroke-width:0.409997"><path
     d="m 0.82140122,38.343178 q 0.0800776,0 0.12812422,0.05605 0.0560544,0.05605 0.0880854,0.136132 0.032031,0.08808 0.040039,0.192186 0.016015,0.104101 0.016015,0.200194 0,0.184179 0.064062,0.400389 0.07207,0.216209 0.2242174,0.400388 0.1601553,0.184178 0.408396,0.304295 0.2482406,0.128124 0.60859,0.128124 0.4884736,0 1.0089783,-0.256248 0.5205046,-0.256249 0.9529239,-0.712691 0.4324192,-0.456443 0.7046832,-1.089056 0.2802717,-0.624606 0.2802717,-1.369328 0,-0.688668 -0.1441397,-1.169133 Q 5.0575083,35.084018 4.8252832,34.787731 4.6010658,34.483436 4.3047785,34.347304 4.0084912,34.211172 3.712204,34.211172 q -0.1121087,0 -0.2482407,0.05605 -0.136132,0.04805 -0.2802717,0.128124 -0.136132,0.07207 -0.2802718,0.160155 -0.136132,0.08809 -0.2482406,0.160156 -0.1921864,0.128124 -0.3683572,0.216209 -0.168163,0.08809 -0.4484348,0.08809 -0.2162096,0 -0.3763649,-0.160156 -0.1521475,-0.168163 -0.1521475,-0.440427 0,-0.208201 0.1441398,-0.352341 0.1521475,-0.14414 0.4644503,-0.272264 0.6646444,-0.272264 1.185149,-0.552536 0.5285124,-0.288279 0.8888618,-0.616598 0.3603494,-0.336326 0.5525357,-0.736714 0.1921864,-0.400388 0.1921864,-0.912885 0,-0.200194 -0.064062,-0.39238 -0.056054,-0.200195 -0.1761708,-0.352342 -0.1201164,-0.160155 -0.2962872,-0.256249 -0.1681631,-0.1041 -0.3923805,-0.1041 -0.4804658,0 -0.912885,0.296287 -0.4324193,0.296287 -0.848823,0.728706 -0.1841786,0.192187 -0.304295,0.280272 -0.1201165,0.08008 -0.2562485,0.08008 -0.1121087,0 -0.2001941,-0.05606 -0.080078,-0.06406 -0.136132,-0.144139 -0.048047,-0.08809 -0.080078,-0.184179 -0.024023,-0.104101 -0.024023,-0.176171 0,-0.192186 0.1041009,-0.360349 Q 1.2618282,30.159243 1.4460068,30.007096 1.846395,29.670769 2.2307677,29.45456 2.6151403,29.23835 2.863381,29.134249 3.1436527,29.022141 3.43994,28.91804 q 0.304295,-0.104101 0.5685512,-0.104101 0.3763649,0 0.7206988,0.136132 0.3443338,0.128124 0.6005823,0.384372 0.2642562,0.248241 0.4164037,0.616598 0.1601553,0.368357 0.1601553,0.832808 0,0.672652 -0.3283183,1.337296 -0.3203106,0.664645 -1.0970637,1.28925 0.5365202,0.02402 0.9369084,0.272264 0.4003882,0.248241 0.6646444,0.656637 0.272264,0.408396 0.4003882,0.944916 0.136132,0.528512 0.136132,1.121087 0,0.592574 -0.1601553,1.177141 -0.1601553,0.584567 -0.4564425,1.121087 -0.2882795,0.53652 -0.6966755,0.992963 -0.4003882,0.456442 -0.8888618,0.792768 -0.4804658,0.336327 -1.0330015,0.528513 -0.544528,0.192186 -1.121087,0.192186 -0.5525357,0 -0.9609316,-0.184178 Q 0.8934711,40.849608 0.62120712,40.577344 0.35695092,40.30508 0.22081893,39.992777 0.08468694,39.680474 0.08468694,39.416218 q 0,-0.200194 0.07206988,-0.432419 0.0800776,-0.232225 0.1761708,-0.368357 0.0640621,-0.08809 0.18417857,-0.184179 0.12011646,-0.08808 0.30429503,-0.08808 z"
     id="path4537" /></g><g
   aria-label="в"
   transform="scale(1.3926277,0.718067)"
   id="text19318"
   style="font-size:17.078px;line-height:1.25;font-family:'Segoe Script';-inkscape-font-specification:'Segoe Script';fill:#e0e0e0;stroke-width:0.426948"><path
     d="m 34.593283,28.089198 q 0,-0.100066 -0.04169,-0.200133 -0.03336,-0.108405 -0.108405,-0.191794 -0.06671,-0.09173 -0.183455,-0.150099 -0.108405,-0.05837 -0.258505,-0.05837 -0.29186,0 -0.608737,0.208471 -0.308538,0.208472 -0.625415,0.575382 -0.308538,0.358571 -0.600399,0.858903 -0.29186,0.491993 -0.542026,1.067375 -0.250166,0.575382 -0.450299,1.209136 -0.191794,0.625415 -0.308538,1.259169 0.07505,-0.05003 0.22515,-0.158439 0.150099,-0.116744 0.333554,-0.258505 0.191794,-0.150099 0.400266,-0.316876 0.21681,-0.175117 0.408604,-0.341894 0.200133,-0.166777 0.366911,-0.316877 0.166777,-0.1501 0.266843,-0.258505 0.925614,-1.000664 1.32588,-1.734484 0.400266,-0.73382 0.400266,-1.192458 z m -0.258505,8.989298 q -0.258505,0.383588 -0.625415,0.750498 -0.358571,0.358572 -0.792193,0.633754 -0.433621,0.275183 -0.925614,0.433621 -0.483654,0.158439 -0.983986,0.116744 -0.350232,-0.02502 -0.667109,-0.225149 -0.316877,-0.208472 -0.558704,-0.583721 -0.241828,-0.383588 -0.383588,-0.933953 -0.141761,-0.550365 -0.141761,-1.267508 0,-0.458637 0.05003,-0.992325 0.05003,-0.542026 0.133422,-1.092391 0.08339,-0.550365 0.183455,-1.075714 0.108405,-0.525349 0.208472,-0.967309 0.133422,-0.600398 0.350232,-1.184119 0.216811,-0.592059 0.483654,-1.134086 0.266844,-0.550365 0.575382,-1.034019 0.308538,-0.483654 0.633754,-0.875581 0.450299,-0.525349 1.025681,-0.842226 0.58372,-0.316876 1.367574,-0.316876 0.325216,0 0.592059,0.133421 0.266844,0.133422 0.458638,0.350233 0.191794,0.208471 0.29186,0.475315 0.108406,0.266844 0.108406,0.525349 0,0.358571 -0.1501,0.800531 -0.141761,0.433621 -0.416943,0.908936 -0.275183,0.475316 -0.66711,0.95897 -0.391926,0.483654 -0.892258,0.933953 0.116744,0.0083 0.266843,0.0417 0.158439,0.02502 0.325216,0.100066 0.175116,0.07505 0.350233,0.200133 0.183455,0.125083 0.350232,0.316877 0.07505,0.09173 0.166777,0.250166 0.09173,0.150099 0.166778,0.375249 0.08339,0.21681 0.133422,0.500332 0.05837,0.283521 0.05837,0.625415 0,0.667109 -0.241828,1.442624 -0.233488,0.767175 -0.833886,1.651095 z M 34.10129,34.009793 q 0,-0.458637 -0.133422,-0.767175 -0.133422,-0.316877 -0.316877,-0.500332 -0.183455,-0.191794 -0.375249,-0.266844 -0.191794,-0.08339 -0.308538,-0.08339 -0.108406,0 -0.341894,0.166778 -0.233488,0.166777 -0.500332,0.36691 -0.200133,0.175116 -0.400265,0.325215 -0.200133,0.1501 -0.375249,0.291861 -0.166778,0.141761 -0.308539,0.283521 -0.14176,0.141761 -0.233488,0.300199 -0.233488,0.425283 -0.275182,0.967309 -0.0417,0.542026 -0.0417,1.109069 0,0.375249 0.07505,0.675449 0.08339,0.29186 0.200133,0.500332 0.125083,0.208471 0.266844,0.325215 0.14176,0.108406 0.258504,0.108406 0.283522,0 0.642093,-0.116745 0.358571,-0.116744 0.73382,-0.458637 0.325216,-0.300199 0.583721,-0.675448 0.266844,-0.375249 0.450299,-0.792193 0.191794,-0.416943 0.29186,-0.867242 0.108406,-0.450299 0.108406,-0.892259 z"
     id="path4495" /></g><text
   xml:space="preserve"
   style="font-size:7.12447px;line-height:1.25;font-family:'Segoe Script';-inkscape-font-specification:'Segoe Script';fill:#16272a;fill-opacity:0.799714;stroke-width:0.178112"
   x="7.7411842"
   y="30.761063"
   id="text17884"
   transform="scale(1.2857984,0.77772688)"><tspan
     sodipodi:role="line"
     id="tspan17882"
     x="7.7411842"
     y="30.761063"
     style="stroke-width:0.178112">_</tspan></text><text
   xml:space="preserve"
   style="font-size:7.80122px;line-height:1.25;font-family:'Segoe Script';-inkscape-font-specification:'Segoe Script';fill:#16272a;fill-opacity:0.799714;stroke-width:0.195032"
   x="25.126867"
   y="33.486252"
   id="text17884-6"
   transform="scale(1.4079409,0.71025707)"><tspan
     sodipodi:role="line"
     id="tspan17882-2"
     x="25.126867"
     y="33.486252"
     style="stroke-width:0.195032">_</tspan></text><text
   xml:space="preserve"
   style="font-size:6.55618px;line-height:1.25;font-family:'Segoe Script';-inkscape-font-specification:'Segoe Script';fill:#16272a;fill-opacity:0.799714;stroke-width:0.163903"
   x="-30.520777"
   y="31.433701"
   id="text17884-0"
   transform="matrix(-0.01849742,-1.3526681,0.73854378,-0.05381383,0,0)"><tspan
     sodipodi:role="line"
     id="tspan17882-4"
     x="-30.520777"
     y="31.433701"
     style="stroke-width:0.163903">_</tspan></text><text
   xml:space="preserve"
   style="font-size:7.59138px;line-height:1.25;font-family:'Segoe Script';-inkscape-font-specification:'Segoe Script';fill:#16272a;fill-opacity:0.799714;stroke-width:0.189782"
   x="-10.637533"
   y="33.075436"
   id="text17884-9"
   transform="matrix(5.0394684e-4,-1.3565295,0.73717471,0.00147303,0,0)"><tspan
     sodipodi:role="line"
     id="tspan17882-7"
     x="-10.637533"
     y="33.075436"
     style="stroke-width:0.189782">_</tspan></text></svg>
