<?xml version="1.0" encoding="UTF-8" standalone="no"?>
<!-- Generator: Adobe Illustrator 22.0.1, SVG Export Plug-In . SVG Version: 6.00 Build 0)  -->

<svg
   version="1.1"
   id="Layer_1"
   x="0px"
   y="0px"
   viewBox="0 0 56 56"
   xml:space="preserve"
   sodipodi:docname="eastWind.svg"
   width="56"
   height="56"
   inkscape:version="1.1.1 (3bf5ae0d25, 2021-09-20)"
   xmlns:inkscape="http://www.inkscape.org/namespaces/inkscape"
   xmlns:sodipodi="http://sodipodi.sourceforge.net/DTD/sodipodi-0.dtd"
   xmlns="http://www.w3.org/2000/svg"
   xmlns:svg="http://www.w3.org/2000/svg"><defs
   id="defs7" /><sodipodi:namedview
   id="namedview5"
   pagecolor="#ffffff"
   bordercolor="#666666"
   borderopacity="1.0"
   inkscape:pageshadow="2"
   inkscape:pageopacity="0.0"
   inkscape:pagecheckerboard="0"
   showgrid="false"
   inkscape:zoom="10.158767"
   inkscape:cx="30.121766"
   inkscape:cy="24.953816"
   inkscape:window-width="2400"
   inkscape:window-height="1321"
   inkscape:window-x="2391"
   inkscape:window-y="-9"
   inkscape:window-maximized="1"
   inkscape:current-layer="Layer_1"
   width="140px" />
<path
   d="m 25.16442,8.5612634 c 3.335781,-0.4227165 6.52492,0.059572 9.549136,1.4318141 3.024212,1.3722415 5.529378,3.4359725 7.515507,6.1911965 1.986133,2.755223 3.167323,5.873163 3.559935,9.351752 0.293978,2.604655 0.08578,5.168662 -0.610127,7.672813 -0.695934,2.504142 -1.790278,4.711166 -3.230123,6.649107 -1.439859,1.937938 -3.247349,3.557479 -5.422499,4.858593 -2.175156,1.301125 -4.488146,2.115664 -7.006344,2.43478 -2.485477,0.314975 -4.930871,0.103425 -7.317888,-0.619556 -2.387018,-0.722987 -4.5059,-1.86233 -6.334495,-3.368705 C 14.03893,41.656694 12.498703,39.766145 11.265104,37.506516 10.031512,35.246879 9.2605225,32.824339 8.964613,30.202549 8.6686933,27.580751 8.8749501,24.999611 9.5708778,22.49546 c 0.6959312,-2.504146 1.7883402,-4.728298 3.2281802,-6.666244 1.43985,-1.937944 3.249284,-3.540341 5.3898,-4.854447 2.140513,-1.3141216 4.473724,-2.0964652 6.975562,-2.4135056 z m 0.479652,4.2497076 c -3.875398,0.491104 -7.077549,2.391658 -9.604534,5.718801 -2.494281,3.322993 -3.502122,7.031196 -3.036015,11.160949 0.305576,2.707473 1.227607,5.145636 2.778564,7.278148 1.550964,2.132513 3.493132,3.763534 5.853426,4.837528 2.360292,1.073998 4.825023,1.4569 7.408625,1.129501 2.583593,-0.327409 4.909944,-1.317459 6.964665,-2.95093 2.054709,-1.63348 3.597419,-3.688744 4.628117,-6.165794 1.0307,-2.477054 1.386047,-5.059708 1.080469,-7.767179 -0.305585,-2.707473 -1.227611,-5.145635 -2.778573,-7.278152 -1.550956,-2.132503 -3.509485,-3.76146 -5.871713,-4.852588 -2.362231,-1.091126 -4.83944,-1.437686 -7.423031,-1.110284 z m -8.62009,9.591671 22.162559,3.709353 c 0.165452,-0.0036 0.256883,0.07174 0.274275,0.225975 0.01736,0.154226 -0.05466,0.250263 -0.216246,0.288126 l -20.713957,9.125416 c -0.172137,0.09134 -0.304889,0.09079 -0.412665,0.01754 -0.107764,-0.07328 -0.123249,-0.210333 -0.04641,-0.411263 l 1.454631,-6.215538 c 0.04607,-0.179648 0.02674,-0.35101 -0.05611,-0.496944 L 16.667391,22.91713 c -0.117451,-0.158923 -0.130979,-0.278873 -0.04061,-0.359854 0.09038,-0.08096 0.229804,-0.168169 0.397189,-0.154624 z"
   id="path2"
   style="fill:#2c4f54;fill-opacity:0.5;stroke:#2e3333;stroke-width:0.103936;stroke-miterlimit:4;stroke-dasharray:none;stroke-opacity:0.9" />
<path
   style="fill:#1f4447;fill-opacity:0.809728;stroke:#e4e7e7;stroke-width:0.103936;stroke-miterlimit:4;stroke-dasharray:none;stroke-opacity:0.9"
   d="m 13.381562,27.961449 c -0.0074,-0.736352 0.0368,-1.551897 0.122381,-2.259696 0.481229,-3.97996 2.908031,-7.931155 6.268024,-10.205291 1.808631,-1.224122 3.456984,-1.827846 5.713994,-2.092793 2.316625,-0.272036 4.124422,-0.05383 6.201512,0.748267 1.399966,0.540621 2.537813,1.205586 3.772383,2.204627 2.45008,1.982657 4.0892,4.454068 4.991555,7.526092 0.187922,0.639756 0.234574,0.909181 0.404062,2.333447 0.205682,1.728798 0.216527,2.222155 0.07707,3.51188 -0.210666,1.947877 -0.946788,4.165239 -1.967087,5.925249 -0.416175,0.717908 -1.454651,2.079867 -2.042819,2.67915 -1.42346,1.450384 -3.075031,2.565484 -4.767551,3.21893 -1.248107,0.481875 -1.69909,0.58904 -3.248266,0.771872 -1.092836,0.12894 -1.558276,0.160196 -2.042202,0.136898 -2.938919,-0.141361 -5.770392,-1.259462 -8.091096,-3.195056 -2.376759,-1.98236 -4.088818,-4.673737 -4.885061,-7.679394 -0.18355,-0.69287 -0.500215,-2.956943 -0.506902,-3.624191 z m 4.863457,-2.211373 c 0.762502,1.55188 1.407382,2.87962 1.433061,2.950534 0.0317,0.08751 -0.186728,1.157871 -0.680164,3.332992 -0.418402,1.844408 -0.708691,3.24588 -0.684066,3.302613 0.05107,0.117571 0.264765,0.15771 0.463903,0.08713 0.07906,-0.02802 4.608651,-1.993686 10.065776,-4.368127 9.562761,-4.160845 9.923271,-4.322851 9.955835,-4.474153 0.02518,-0.11693 0.01118,-0.175471 -0.05473,-0.229425 C 38.635529,26.26233 17.41826,22.483319 17.1825,22.511173 c -0.21301,0.02517 -0.411588,0.204615 -0.361303,0.326514 0.02066,0.04992 0.661313,1.360521 1.423816,2.912402 z"
   id="path861" /><rect
   style="fill:#c7485e;fill-opacity:1;stroke:#3c4343;stroke-width:0.446268;stroke-opacity:0.9"
   id="rect2803"
   width="5.0345654"
   height="0.055890016"
   x="28.59687"
   y="-27.311499"
   transform="matrix(0.12229346,0.99249398,-0.99179615,0.12782957,0,0)"
   inkscape:transform-center-x="3.095286"
   inkscape:transform-center-y="-2.3334828" /><path
   style="fill:#cd425b;fill-opacity:1;stroke:#e27364;stroke-width:0.0349714;stroke-opacity:0.9"
   d="m 31.287076,25.033372 c 0.08367,0.01397 1.888819,0.29308 4.01148,0.620069 2.122671,0.326985 3.910644,0.614376 3.973282,0.638635 0.09856,0.03818 -7.118353,3.268979 -7.377385,3.302636 -0.07076,0.0093 -0.184843,-0.600612 -0.427964,-2.287172 -0.309989,-2.150502 -0.321595,-2.298062 -0.179432,-2.274165 z"
   id="path3397"
   inkscape:transform-center-x="-0.93090506"
   inkscape:transform-center-y="-2.0552894" /><text
   xml:space="preserve"
   style="font-size:12.5895px;line-height:1.25;font-family:'Segoe Script';-inkscape-font-specification:'Segoe Script';fill:#0e0e0e;fill-opacity:1;stroke-width:0.314735"
   x="25.957802"
   y="6.9036989"
   id="text9344"
   transform="scale(0.98081909,1.019556)"><tspan
     sodipodi:role="line"
     id="tspan9342"
     x="25.957802"
     y="6.9036989"
     style="fill:#0e0e0e;fill-opacity:1;stroke-width:0.314735">c</tspan></text><text
   xml:space="preserve"
   style="font-size:10.397px;line-height:1.25;font-family:'Segoe Script';-inkscape-font-specification:'Segoe Script';fill:#151515;fill-opacity:1;stroke-width:0.259921"
   x="24.404099"
   y="50.032284"
   id="text11307"
   transform="scale(0.9025851,1.1079288)"><tspan
     sodipodi:role="line"
     id="tspan11305"
     x="24.404099"
     y="50.032284"
     style="fill:#151515;fill-opacity:1;stroke-width:0.259921">ю</tspan></text><text
   xml:space="preserve"
   style="font-size:11.9744px;line-height:1.25;font-family:'Segoe Script';-inkscape-font-specification:'Segoe Script';fill:#131313;fill-opacity:1;stroke-width:0.29936"
   x="0.16472591"
   y="38.589695"
   id="text16794"
   transform="scale(1.3992949,0.71464564)"><tspan
     sodipodi:role="line"
     id="tspan16792"
     x="0.16472591"
     y="38.589695"
     style="fill:#131313;fill-opacity:1;stroke-width:0.29936">з</tspan></text><text
   xml:space="preserve"
   style="font-size:12.4694px;line-height:1.25;font-family:'Segoe Script';-inkscape-font-specification:'Segoe Script';fill:#161616;fill-opacity:1;stroke-width:0.311739"
   x="33.774517"
   y="40.117123"
   id="text19318"
   transform="scale(1.4148279,0.70679975)"><tspan
     sodipodi:role="line"
     id="tspan19316"
     x="33.774517"
     y="40.117123"
     style="fill:#161616;fill-opacity:1;stroke-width:0.311739">в</tspan></text><text
   xml:space="preserve"
   style="font-size:9.19298px;line-height:1.25;font-family:'Segoe Script';-inkscape-font-specification:'Segoe Script';fill:#16272a;fill-opacity:0.799714;stroke-width:0.229825"
   x="7.0111561"
   y="33.118526"
   id="text17884"
   transform="scale(1.2754322,0.78404796)"><tspan
     sodipodi:role="line"
     id="tspan17882"
     x="7.0111561"
     y="33.118526"
     style="stroke-width:0.229825">_</tspan></text><text
   xml:space="preserve"
   style="font-size:9.36387px;line-height:1.25;font-family:'Segoe Script';-inkscape-font-specification:'Segoe Script';fill:#16272a;fill-opacity:0.799714;stroke-width:0.234096"
   x="30.566168"
   y="33.497837"
   id="text17884-6"
   transform="scale(1.2991425,0.76973853)"><tspan
     sodipodi:role="line"
     id="tspan17882-2"
     x="30.566168"
     y="33.497837"
     style="stroke-width:0.234096">_</tspan></text><text
   xml:space="preserve"
   style="font-size:8.22588px;line-height:1.25;font-family:'Segoe Script';-inkscape-font-specification:'Segoe Script';fill:#16272a;fill-opacity:0.799714;stroke-width:0.205648"
   x="-34.997814"
   y="35.565914"
   id="text17884-0"
   transform="matrix(-0.01784153,-1.4023944,0.71235636,-0.05579211,0,0)"><tspan
     sodipodi:role="line"
     id="tspan17882-4"
     x="-34.997814"
     y="35.565914"
     style="stroke-width:0.205648">_</tspan></text><text
   xml:space="preserve"
   style="font-size:9.28322px;line-height:1.25;font-family:'Segoe Script';-inkscape-font-specification:'Segoe Script';fill:#16272a;fill-opacity:0.799714;stroke-width:0.23208"
   x="-9.9553232"
   y="36.581944"
   id="text17884-9"
   transform="matrix(4.9872477e-4,-1.3707335,0.72953587,0.00148846,0,0)"><tspan
     sodipodi:role="line"
     id="tspan17882-7"
     x="-9.9553232"
     y="36.581944"
     style="stroke-width:0.23208">_</tspan></text></svg>
