<?xml version="1.0" encoding="UTF-8" standalone="no"?>
<!-- Generator: Adobe Illustrator 22.0.1, SVG Export Plug-In . SVG Version: 6.00 Build 0)  -->

<svg
   version="1.1"
   id="Layer_1"
   x="0px"
   y="0px"
   viewBox="0 0 56 56"
   xml:space="preserve"
   sodipodi:docname="northwestWind.svg"
   width="56"
   height="56"
   inkscape:version="1.1.1 (3bf5ae0d25, 2021-09-20)"
   xmlns:inkscape="http://www.inkscape.org/namespaces/inkscape"
   xmlns:sodipodi="http://sodipodi.sourceforge.net/DTD/sodipodi-0.dtd"
   xmlns="http://www.w3.org/2000/svg"
   xmlns:svg="http://www.w3.org/2000/svg"><defs
   id="defs7" /><sodipodi:namedview
   id="namedview5"
   pagecolor="#ffffff"
   bordercolor="#666666"
   borderopacity="1.0"
   inkscape:pageshadow="2"
   inkscape:pageopacity="0.0"
   inkscape:pagecheckerboard="0"
   showgrid="false"
   inkscape:zoom="5.0793835"
   inkscape:cx="18.899931"
   inkscape:cy="43.607654"
   inkscape:window-width="2400"
   inkscape:window-height="1321"
   inkscape:window-x="2391"
   inkscape:window-y="-9"
   inkscape:window-maximized="1"
   inkscape:current-layer="Layer_1"
   width="140px" />
<path
   d="M 14.447895,42.373145 C 11.750235,39.965368 9.8530574,37.075233 8.7577973,33.727435 7.6625435,30.37963 7.4683873,26.991251 8.1753323,23.56229 c 0.7069423,-3.42896 2.2654047,-6.449922 4.6621557,-9.074711 1.794606,-1.96535 3.915099,-3.499043 6.33643,-4.5999516 2.421331,-1.1008948 4.897462,-1.6835432 7.412315,-1.8091956 2.514864,-0.125635 5.046261,0.2562976 7.594188,1.1457991 2.547939,0.8895201 4.819594,2.2130111 6.856074,4.0306361 2.010031,1.794014 3.586507,3.905114 4.728032,6.308567 1.141522,2.403442 1.772052,4.867097 1.913778,7.340371 0.141723,2.473263 -0.217184,4.96908 -1.078094,7.462708 -0.860924,2.49363 -2.176177,4.722548 -3.982591,6.700831 -1.806414,1.978296 -3.938713,3.52491 -6.36005,4.625815 -2.421335,1.100894 -4.909263,1.696472 -7.424125,1.822134 -2.51486,0.125649 -5.034449,-0.269205 -7.567738,-1.122196 -2.533296,-0.852983 -4.794562,-2.214139 -6.817812,-4.019952 z m 2.928053,-3.206638 c 3.134055,2.79725 6.873544,4.116635 11.230272,3.945233 4.330272,-0.195012 7.899699,-1.843553 10.745103,-4.959669 1.865451,-2.042936 3.085299,-4.403946 3.622713,-7.068976 0.537406,-2.665033 0.410795,-5.31255 -0.441699,-7.927389 -0.852492,-2.614838 -2.310907,-4.855238 -4.400278,-6.720079 -2.089372,-1.864823 -4.505549,-3.082623 -7.223494,-3.654536 -2.717945,-0.571904 -5.396215,-0.45129 -8.034801,0.361838 -2.638586,0.813133 -4.878088,2.240595 -6.743537,4.283535 -1.865454,2.042935 -3.085295,4.403947 -3.622711,7.06898 -0.537409,2.665024 -0.397576,5.324361 0.443121,7.952121 0.84069,2.627769 2.335941,4.854111 4.425311,6.718942 z M 30.885357,39.748361 17.976373,19.426233 c -0.12043,-0.130954 -0.127511,-0.25462 -0.02123,-0.370991 0.106288,-0.116343 0.231416,-0.122004 0.375451,-0.01693 l 21.752153,10.637601 c 0.192702,0.0781 0.286681,0.185461 0.306986,0.320922 0.02027,0.13547 -0.07415,0.238906 -0.283502,0.310195 l -5.816016,2.952336 c -0.170967,0.08209 -0.289035,0.211387 -0.342393,0.374971 l -2.413224,6.059848 c -0.03873,0.200109 -0.121375,0.290617 -0.24781,0.271642 -0.12657,-0.01911 -0.29281,-0.07361 -0.401437,-0.217485 z"
   id="path2"
   style="fill:#2c4f54;fill-opacity:0.5;stroke:#2e3332;stroke-width:0.108607;stroke-miterlimit:4;stroke-dasharray:none;stroke-opacity:0.9" />
<path
   style="fill:#1f4347;fill-opacity:0.81;stroke:#e4e7e7;stroke-width:0.108607;stroke-miterlimit:4;stroke-dasharray:none;stroke-opacity:0.9"
   d="m 37.686883,38.896549 c -0.560354,0.49553 -1.218266,1.002246 -1.822917,1.404002 -3.400005,2.259078 -8.164381,2.933471 -12.305599,1.741847 -2.229139,-0.641436 -3.867533,-1.566409 -5.679452,-3.206405 -1.859834,-1.683258 -2.980504,-3.283042 -3.844599,-5.487744 -0.582398,-1.485984 -0.882491,-2.84372 -0.994899,-4.501421 -0.223094,-3.289808 0.507167,-6.252029 2.223786,-9.020748 0.357492,-0.576595 0.531197,-0.793279 1.504415,-1.876663 1.181329,-1.315007 1.552563,-1.651762 2.642605,-2.39709 1.64632,-1.125638 3.874088,-2.007637 5.953073,-2.356871 0.848011,-0.142455 2.634196,-0.212397 3.51366,-0.137572 2.12846,0.181057 4.161936,0.768593 5.869992,1.696048 1.259565,0.683911 1.663268,0.975561 2.907686,2.100579 0.87783,0.793649 1.233519,1.147394 1.560485,1.552284 1.985769,2.458874 3.14472,5.48073 3.311759,8.63514 0.171064,3.230611 -0.676166,6.39778 -2.417435,9.036984 -0.401396,0.608391 -1.914806,2.368596 -2.422553,2.817645 z m -5.164417,-2.443155 c 0.64864,-1.645423 1.208939,-3.047167 1.245109,-3.114983 0.04462,-0.0837 1.022445,-0.619624 3.044825,-1.668821 1.714886,-0.889683 2.998246,-1.587943 3.024274,-1.645477 0.05391,-0.119257 -0.06753,-0.317915 -0.263675,-0.431221 -0.07787,-0.04497 -4.815626,-2.382865 -10.528364,-5.195302 -10.010687,-4.928358 -10.392033,-5.110725 -10.531455,-5.036333 -0.107736,0.05751 -0.142793,0.107627 -0.137226,0.196589 0.0092,0.147146 12.226419,19.732906 12.415821,19.904089 0.171112,0.154685 0.450475,0.195146 0.508272,0.07363 0.02363,-0.04981 0.573771,-1.436761 1.222412,-3.082183 z"
   id="path861" /><rect
   style="fill:#c7485e;fill-opacity:1;stroke:#3c4343;stroke-width:0.466323;stroke-opacity:0.9"
   id="rect2803"
   width="5.1094418"
   height="0.060132232"
   x="-6.616508"
   y="35.108425"
   transform="matrix(0.63250872,-0.77455324,0.77605622,0.63066373,0,0)"
   inkscape:transform-center-x="-0.58718475"
   inkscape:transform-center-y="4.0211757" /><path
   style="fill:#cd425b;fill-opacity:1;stroke:#e27364;stroke-width:0.0365434;stroke-opacity:0.9"
   d="m 22.686467,26.546443 c -0.047,-0.07777 -1.079472,-1.740544 -2.294459,-3.695043 -1.214988,-1.954496 -2.229035,-3.608557 -2.253432,-3.675681 -0.03838,-0.105629 7.496334,3.731126 7.702262,3.922062 0.05627,0.05213 -0.342664,0.540216 -1.496143,1.830583 -1.470784,1.645325 -1.578402,1.750285 -1.658209,1.618092 z"
   id="path3397"
   inkscape:transform-center-x="2.0001856"
   inkscape:transform-center-y="1.6158481" /><text
   xml:space="preserve"
   style="font-size:9.60625px;line-height:1.25;font-family:'Segoe Script';-inkscape-font-specification:'Segoe Script';fill:#16272a;fill-opacity:0.799714;stroke-width:0.240153"
   x="5.9035048"
   y="34.909367"
   id="text17884"
   transform="scale(1.320407,0.75734226)"><tspan
     sodipodi:role="line"
     id="tspan17882"
     x="5.9035048"
     y="34.909367"
     style="stroke-width:0.240153">_</tspan></text><text
   xml:space="preserve"
   style="font-size:9.78471px;line-height:1.25;font-family:'Segoe Script';-inkscape-font-specification:'Segoe Script';fill:#16272a;fill-opacity:0.799714;stroke-width:0.244618"
   x="30.543224"
   y="35.311344"
   id="text17884-6"
   transform="scale(1.3449533,0.74352025)"><tspan
     sodipodi:role="line"
     id="tspan17882-2"
     x="30.543224"
     y="35.311344"
     style="stroke-width:0.244618">_</tspan></text><text
   xml:space="preserve"
   style="font-size:8.59562px;line-height:1.25;font-family:'Segoe Script';-inkscape-font-specification:'Segoe Script';fill:#16272a;fill-opacity:0.799714;stroke-width:0.214891"
   x="-36.638439"
   y="34.615417"
   id="text17884-0"
   transform="matrix(-0.01847067,-1.3546271,0.73747571,-0.05389177,0,0)"><tspan
     sodipodi:role="line"
     id="tspan17882-4"
     x="-36.638439"
     y="34.615417"
     style="stroke-width:0.214891">_</tspan></text><text
   xml:space="preserve"
   style="font-size:9.70055px;line-height:1.25;font-family:'Segoe Script';-inkscape-font-specification:'Segoe Script';fill:#16272a;fill-opacity:0.799714;stroke-width:0.242511"
   x="-10.578371"
   y="35.738903"
   id="text17884-9"
   transform="matrix(5.1631104e-4,-1.3240444,0.75526111,0.00143777,0,0)"><tspan
     sodipodi:role="line"
     id="tspan17882-7"
     x="-10.578371"
     y="35.738903"
     style="stroke-width:0.242511">_</tspan></text><text
   xml:space="preserve"
   style="font-size:11.4087px;line-height:1.25;font-family:'Segoe Script';-inkscape-font-specification:'Segoe Script';fill:#0e0e0e;fill-opacity:1;stroke-width:0.285215"
   x="23.832966"
   y="7.0162468"
   id="text9344"
   transform="scale(1.0366221,0.96467173)"><tspan
     sodipodi:role="line"
     id="tspan9342"
     x="23.832966"
     y="7.0162468"
     style="fill:#0e0e0e;fill-opacity:1;stroke-width:0.285215">c</tspan></text><text
   xml:space="preserve"
   style="font-size:10.9645px;line-height:1.25;font-family:'Segoe Script';-inkscape-font-specification:'Segoe Script';fill:#161616;fill-opacity:1;stroke-width:0.274114"
   x="34.459461"
   y="43.234352"
   id="text19318"
   transform="scale(1.4126533,0.70788775)"><tspan
     sodipodi:role="line"
     id="tspan19316"
     x="34.459461"
     y="43.234352"
     style="fill:#161616;fill-opacity:1;stroke-width:0.274114">в</tspan></text><text
   xml:space="preserve"
   style="font-size:9.14201px;line-height:1.25;font-family:'Segoe Script';-inkscape-font-specification:'Segoe Script';fill:#151515;fill-opacity:1;stroke-width:0.22855"
   x="26.807224"
   y="49.568466"
   id="text11307"
   transform="scale(0.90119843,1.1096335)"><tspan
     sodipodi:role="line"
     id="tspan11305"
     x="26.807224"
     y="49.568466"
     style="fill:#151515;fill-opacity:1;stroke-width:0.22855">ю</tspan></text><text
   xml:space="preserve"
   style="font-size:10.5291px;line-height:1.25;font-family:'Segoe Script';-inkscape-font-specification:'Segoe Script';fill:#131313;fill-opacity:1;stroke-width:0.263229"
   x="0.11549819"
   y="39.782562"
   id="text16794"
   transform="scale(1.3971491,0.7157432)"><tspan
     sodipodi:role="line"
     id="tspan16792"
     x="0.11549819"
     y="39.782562"
     style="fill:#131313;fill-opacity:1;stroke-width:0.263229">з</tspan></text></svg>
