<?xml version="1.0" encoding="UTF-8" standalone="no"?>
<!-- Generator: Adobe Illustrator 22.0.1, SVG Export Plug-In . SVG Version: 6.00 Build 0)  -->

<svg
   version="1.1"
   id="Layer_1"
   x="0px"
   y="0px"
   viewBox="0 0 56 56"
   xml:space="preserve"
   sodipodi:docname="northEastWind.svg"
   width="56"
   height="56"
   inkscape:version="1.1.1 (3bf5ae0d25, 2021-09-20)"
   xmlns:inkscape="http://www.inkscape.org/namespaces/inkscape"
   xmlns:sodipodi="http://sodipodi.sourceforge.net/DTD/sodipodi-0.dtd"
   xmlns="http://www.w3.org/2000/svg"
   xmlns:svg="http://www.w3.org/2000/svg"><defs
   id="defs7" /><sodipodi:namedview
   id="namedview5"
   pagecolor="#ffffff"
   bordercolor="#666666"
   borderopacity="1.0"
   inkscape:pageshadow="2"
   inkscape:pageopacity="0.0"
   inkscape:pagecheckerboard="0"
   showgrid="false"
   inkscape:zoom="14.366666"
   inkscape:cx="34.037124"
   inkscape:cy="29.129931"
   inkscape:window-width="2400"
   inkscape:window-height="1321"
   inkscape:window-x="2391"
   inkscape:window-y="-9"
   inkscape:window-maximized="1"
   inkscape:current-layer="Layer_1"
   width="140px" />
<path
   d="m 13.805834,14.642126 c 2.442565,-2.681947 5.35828,-4.553206 8.722378,-5.6126579 3.364103,-1.0594504 6.757929,-1.2125616 10.181492,-0.4593361 3.423562,0.753222 6.428465,2.357376 9.026699,4.7993 1.945469,1.828436 3.454948,3.979108 4.527611,6.426827 1.072648,2.447719 1.625916,4.944089 1.721298,7.47372 0.09537,2.529632 -0.317482,5.069587 -1.238597,7.619857 -0.921118,2.55028 -2.273268,4.817441 -4.117163,6.842057 -1.819943,1.998317 -3.952026,3.556869 -6.371468,4.674557 -2.419438,1.117681 -4.89297,1.720938 -7.37022,1.8327 -2.477243,0.11177 -4.971009,-0.280006 -7.456523,-1.176396 -2.485511,-0.896402 -4.700585,-2.246234 -6.658855,-4.0867 -1.958282,-1.840462 -3.480553,-4.003164 -4.55321,-6.45089 -1.0726509,-2.447721 -1.6387151,-4.956112 -1.7341057,-7.485742 -0.095382,-2.529633 0.330282,-5.057557 1.2146585,-7.593566 0.8843642,-2.53602 2.2740862,-4.79227 4.1060052,-6.80373 z m 3.174196,2.983243 c -2.837677,3.115796 -4.203452,6.85855 -4.084528,11.240295 0.142872,4.355446 1.749795,7.96409 4.834394,10.863125 2.022265,1.900617 4.370703,3.156181 7.031682,3.7295 2.660982,0.573315 5.312457,0.478906 7.939994,-0.345609 2.627532,-0.824507 4.887602,-2.262772 6.779395,-4.339971 1.891777,-2.077197 3.139884,-4.490949 3.745155,-7.216075 0.605267,-2.725126 0.516901,-5.418961 -0.265097,-8.081503 -0.781996,-2.662544 -2.183712,-4.931527 -4.205983,-6.832142 -2.022265,-1.900616 -4.370702,-3.156181 -7.031686,-3.7295 -2.660975,-0.573311 -5.324433,-0.465755 -7.964762,0.346731 -2.640332,0.812487 -4.886777,2.287952 -6.778564,4.365149 z M 16.234425,31.19853 36.731139,18.47401 c 0.132528,-0.119436 0.256394,-0.125024 0.371587,-0.01673 0.115159,0.108294 0.119321,0.234143 0.01241,0.377633 L 26.204978,40.569277 c -0.0805,0.192743 -0.189096,0.285886 -0.324927,0.30462 -0.135837,0.0187 -0.238228,-0.0775 -0.307181,-0.288704 L 22.6881,34.701971 C 22.608,34.529088 22.480013,34.408794 22.31692,34.353125 l -6.036243,-2.501129 c -0.199822,-0.04142 -0.289413,-0.125619 -0.268775,-0.252618 0.02065,-0.126997 0.0772,-0.293435 0.222534,-0.40085 z"
   id="path2"
   style="fill:#2c4f54;fill-opacity:0.5;stroke:#2e3332;stroke-width:0.10895;stroke-miterlimit:4;stroke-dasharray:none;stroke-opacity:0.9" />
<path
   style="fill:#1f4347;fill-opacity:0.81;stroke:#e4e7e7;stroke-width:0.10895;stroke-miterlimit:4;stroke-dasharray:none;stroke-opacity:0.9"
   d="M 17.020936,37.983843 C 16.533178,37.413106 16.035655,36.744136 15.6424,36.130276 13.431158,32.678518 12.825985,27.87913 14.079338,23.734242 14.754,21.503123 15.703795,19.87011 17.371789,18.073429 c 1.711993,-1.844204 3.32961,-2.946635 5.548912,-3.782047 1.495829,-0.563061 2.859161,-0.844272 4.519969,-0.932313 3.295973,-0.174716 6.250103,0.603942 8.99611,2.371206 0.571864,0.368036 0.786193,0.545908 1.856275,1.540515 1.298846,1.207303 1.630462,1.585541 2.360475,2.692489 1.102506,1.671859 1.952638,3.924535 2.271719,6.019626 0.130153,0.854579 0.173982,2.651141 0.08621,3.534068 -0.212405,2.136837 -0.830258,4.172076 -1.783555,5.875084 -0.702974,1.255844 -1.000797,1.657259 -2.145036,2.891235 -0.807212,0.870458 -1.166479,1.222681 -1.576518,1.545253 -2.490139,1.959113 -5.531639,3.078618 -8.691277,3.199033 -3.235965,0.123317 -6.393508,-0.776016 -9.009523,-2.566105 -0.603046,-0.412654 -2.342636,-1.960458 -2.78463,-2.477625 z m 2.52098,-5.154581 c 1.637371,0.676802 3.032139,1.261129 3.099484,1.298507 0.08312,0.04611 0.605187,1.037107 1.625677,3.085838 0.865337,1.737227 1.545407,3.037797 1.602613,3.064826 0.118571,0.05599 0.319182,-0.0631 0.435465,-0.258553 0.04616,-0.07759 2.455524,-4.804883 5.354148,-10.505086 5.079389,-9.988723 5.267504,-10.369314 5.19509,-10.510586 -0.05599,-0.109173 -0.105622,-0.145168 -0.194759,-0.140892 -0.147418,0.0069 -19.929449,11.993124 -20.103563,12.180936 -0.157316,0.16969 -0.201918,0.449889 -0.08114,0.509818 0.04951,0.02451 1.429623,0.598393 3.06699,1.275193 z"
   id="path861" /><rect
   style="fill:#c7485e;fill-opacity:1;stroke:#3c4343;stroke-width:0.467802;stroke-opacity:0.9"
   id="rect2803"
   width="5.1276608"
   height="0.060298633"
   x="37.282112"
   y="-2.1281402"
   transform="matrix(0.73789778,0.67491249,-0.66982962,0.74251483,0,0)"
   inkscape:transform-center-x="4.0505877"
   inkscape:transform-center-y="0.36953536" /><path
   style="fill:#cd425c;fill-opacity:1;stroke:#e27364;stroke-width:0.0366586;stroke-opacity:0.9"
   d="m 29.519956,23.155865 c 0.07803,-0.04693 1.746394,-1.078358 3.707476,-2.292108 1.96108,-1.213749 3.620654,-2.226668 3.687935,-2.250928 0.10588,-0.03818 -3.763546,7.52151 -3.955458,7.727781 -0.0524,0.05637 -0.539433,-0.346615 -1.826646,-1.511318 -1.641301,-1.485095 -1.745951,-1.593699 -1.613323,-1.673411 z"
   id="path3397"
   inkscape:transform-center-x="1.6038195"
   inkscape:transform-center-y="-2.0103487" /><g
   aria-label="c"
   transform="scale(1.0035478,0.99646475)"
   id="text9344"
   style="font-size:11.7769px;line-height:1.25;font-family:'Segoe Script';-inkscape-font-specification:'Segoe Script';stroke-width:0.29442"><path
     d="m 32.426875,4.3788595 q 0,0.2070158 -0.149512,0.3737786 -0.155262,0.1725132 -0.27027,0.2932724 -0.115009,0.1150088 -0.218517,0.2127663 -0.103508,0.097758 -0.218517,0.1897645 -0.115009,0.086257 -0.270271,0.2012654 -0.437033,0.3162741 -0.833813,0.5347909 -0.396781,0.2127662 -0.770559,0.3507768 -0.373779,0.1322601 -0.741807,0.1897645 -0.362278,0.057504 -0.730306,0.057504 -0.385279,0 -0.690052,-0.143761 Q 27.228477,6.4892709 27.015711,6.2362515 26.808695,5.9832322 26.699437,5.6497067 26.590178,5.3104307 26.590178,4.9366522 V 4.9079 q 0,-0.3795291 0.09776,-0.8050616 0.09776,-0.431283 0.270271,-0.8625659 0.178263,-0.431283 0.425532,-0.8453146 0.247269,-0.4197821 0.546292,-0.7820598 0.120759,-0.143761 0.287522,-0.3047733 0.172513,-0.1667628 0.362278,-0.3047733 0.195514,-0.13801057 0.40253,-0.22426717 0.212767,-0.092007 0.414032,-0.092007 0.138011,0 0.26452,0.0862566 0.12651,0.0805062 0.235768,0.21276627 0.109259,0.13226014 0.201266,0.29902284 0.09201,0.1610123 0.155261,0.3335255 0.06325,0.1667628 0.09776,0.3220246 0.0345,0.1552619 0.0345,0.2645203 0,0.1667627 -0.103508,0.4312829 -0.103508,0.2645202 -0.247269,0.2645202 -0.207016,0 -0.345027,-0.2817715 -0.05175,-0.1092583 -0.09201,-0.2530193 -0.0345,-0.143761 -0.08626,-0.2817716 -0.046,-0.1380105 -0.12651,-0.2530193 -0.08051,-0.1207593 -0.224267,-0.1782636 -0.143761,0.034503 -0.293272,0.1495114 -0.143761,0.1150088 -0.287522,0.2817715 -0.138011,0.1667628 -0.276022,0.379529 -0.13226,0.2070159 -0.253019,0.431283 -0.115009,0.2070158 -0.224267,0.4772865 -0.109258,0.2645202 -0.195515,0.5520422 -0.08626,0.2817715 -0.138011,0.5635431 -0.05175,0.2817715 -0.05175,0.5175395 0,0.1667628 0.08051,0.339276 0.08051,0.1667627 0.207015,0.3047733 0.132261,0.1380105 0.293273,0.2242671 0.166763,0.086257 0.339276,0.086257 0.851065,0 1.690629,-0.3507768 0.839564,-0.3507768 1.598622,-1.0178278 0.419782,-0.3680282 0.695803,-0.3680282 0.08051,0 0.08051,0.1552619 z"
     id="path4806" /></g><text
   xml:space="preserve"
   style="font-size:9.63638px;line-height:1.25;font-family:'Segoe Script';-inkscape-font-specification:'Segoe Script';fill:#16272a;fill-opacity:0.799714;stroke-width:0.240911"
   x="6.9065251"
   y="33.594727"
   id="text17884"
   transform="scale(1.3026154,0.76768632)"><tspan
     sodipodi:role="line"
     id="tspan17882"
     x="6.9065251"
     y="33.594727"
     style="stroke-width:0.240911">_</tspan></text><text
   xml:space="preserve"
   style="font-size:9.81558px;line-height:1.25;font-family:'Segoe Script';-inkscape-font-specification:'Segoe Script';fill:#16272a;fill-opacity:0.799714;stroke-width:0.24539"
   x="31.658533"
   y="33.971485"
   id="text17884-6"
   transform="scale(1.3268309,0.75367555)"><tspan
     sodipodi:role="line"
     id="tspan17882-2"
     x="31.658533"
     y="33.971485"
     style="stroke-width:0.24539">_</tspan></text><text
   xml:space="preserve"
   style="font-size:8.62296px;line-height:1.25;font-family:'Segoe Script';-inkscape-font-specification:'Segoe Script';fill:#16272a;fill-opacity:0.799714;stroke-width:0.215569"
   x="-36.37904"
   y="36.400902"
   id="text17884-0"
   transform="matrix(-0.0182218,-1.373129,0.72753877,-0.05462785,0,0)"><tspan
     sodipodi:role="line"
     id="tspan17882-4"
     x="-36.37904"
     y="36.400902"
     style="stroke-width:0.215569">_</tspan></text><text
   xml:space="preserve"
   style="font-size:9.73129px;line-height:1.25;font-family:'Segoe Script';-inkscape-font-specification:'Segoe Script';fill:#16272a;fill-opacity:0.799714;stroke-width:0.243277"
   x="-10.261654"
   y="37.572479"
   id="text17884-9"
   transform="matrix(5.0935407e-4,-1.3421288,0.74508443,0.00145741,0,0)"><tspan
     sodipodi:role="line"
     id="tspan17882-7"
     x="-10.261654"
     y="37.572479"
     style="stroke-width:0.243277">_</tspan></text><g
   aria-label="в"
   transform="scale(1.3801532,0.72455723)"
   id="text19318"
   style="font-size:11.4444px;line-height:1.25;font-family:'Segoe Script';-inkscape-font-specification:'Segoe Script';fill:#161616;stroke-width:0.286109"><path
     d="m 39.599878,31.353425 q 0,-0.06706 -0.02794,-0.134115 -0.02235,-0.07265 -0.07265,-0.128526 -0.04471,-0.06147 -0.122938,-0.100585 -0.07265,-0.03912 -0.17323,-0.03912 -0.195583,0 -0.407931,0.139702 -0.206759,0.139703 -0.419106,0.385578 -0.206759,0.240288 -0.402342,0.575573 -0.195583,0.329697 -0.363226,0.715275 -0.167642,0.385578 -0.301756,0.810273 -0.128526,0.419106 -0.20676,0.843801 0.05029,-0.03353 0.150879,-0.106174 0.100585,-0.07823 0.223523,-0.173231 0.128526,-0.100585 0.268228,-0.212347 0.14529,-0.11735 0.273816,-0.229111 0.134114,-0.111762 0.245876,-0.212348 0.111762,-0.100585 0.178819,-0.17323 0.620277,-0.670571 0.888506,-1.162322 0.268228,-0.491752 0.268228,-0.799096 z m -0.173231,6.023956 q -0.173231,0.257052 -0.419106,0.502928 -0.240288,0.240287 -0.530869,0.424694 -0.29058,0.184407 -0.620277,0.290581 -0.324109,0.106173 -0.659394,0.07823 -0.2347,-0.01676 -0.447047,-0.150878 -0.212347,-0.139702 -0.374402,-0.391166 -0.162054,-0.257052 -0.257052,-0.625866 -0.095,-0.368814 -0.095,-0.849389 0,-0.307345 0.03353,-0.664982 0.03353,-0.363226 0.08941,-0.732039 0.05588,-0.368814 0.122938,-0.720864 0.07265,-0.352049 0.139702,-0.648218 0.08941,-0.402342 0.234699,-0.793508 0.145291,-0.396754 0.324109,-0.759979 0.178819,-0.368814 0.385578,-0.692923 0.206759,-0.324109 0.424695,-0.586749 0.301756,-0.352049 0.687334,-0.564397 0.391166,-0.212347 0.916446,-0.212347 0.217936,0 0.396754,0.08941 0.178819,0.08941 0.307345,0.2347 0.128526,0.139702 0.195583,0.318521 0.07265,0.178819 0.07265,0.352049 0,0.240288 -0.100585,0.536457 -0.095,0.29058 -0.279405,0.609101 -0.184406,0.318521 -0.447046,0.64263 -0.26264,0.324109 -0.597926,0.625865 0.07823,0.0056 0.178819,0.02794 0.106174,0.01676 0.217936,0.06706 0.117349,0.05029 0.234699,0.134114 0.122938,0.08382 0.2347,0.212347 0.05029,0.06147 0.111761,0.167643 0.06147,0.100585 0.111762,0.251464 0.05588,0.14529 0.08941,0.335285 0.03912,0.189995 0.03912,0.419106 0,0.447047 -0.162054,0.966739 -0.156467,0.514104 -0.558809,1.106441 z m -0.156466,-2.056416 q 0,-0.307344 -0.08941,-0.514103 -0.08941,-0.212348 -0.212347,-0.335286 -0.122938,-0.128526 -0.251464,-0.178818 -0.128526,-0.05588 -0.206759,-0.05588 -0.07265,0 -0.229112,0.111762 -0.156466,0.111761 -0.335285,0.245875 -0.134114,0.11735 -0.268228,0.217936 -0.134114,0.100585 -0.251464,0.195583 -0.111761,0.095 -0.206759,0.189995 -0.095,0.095 -0.156466,0.201171 -0.156467,0.284992 -0.184407,0.648218 -0.02794,0.363225 -0.02794,0.743215 0,0.251464 0.05029,0.452635 0.05588,0.195583 0.134114,0.335285 0.08382,0.139702 0.178819,0.217936 0.095,0.07265 0.173231,0.07265 0.189995,0 0.430282,-0.07823 0.240288,-0.07823 0.491752,-0.307344 0.217935,-0.201171 0.391166,-0.452635 0.178819,-0.251464 0.301757,-0.530868 0.128526,-0.279405 0.195583,-0.581161 0.07265,-0.301757 0.07265,-0.597926 z"
     id="path4827" /></g><g
   aria-label="ю"
   transform="scale(0.8804645,1.1357641)"
   id="text11307"
   style="font-size:9.54221px;line-height:1.25;font-family:'Segoe Script';-inkscape-font-specification:'Segoe Script';fill:#151515;stroke-width:0.23855"><path
     d="m 28.346508,46.770098 q 0,-0.01864 -0.0233,-0.03261 -0.01864,-0.01864 -0.04659,-0.04659 -0.02796,-0.02796 -0.05125,-0.07455 -0.01864,-0.04659 -0.01864,-0.13046 0,-0.07455 0.04193,-0.135119 0.04193,-0.06057 0.08853,-0.111823 0.05125,-0.05125 0.09319,-0.09319 0.04659,-0.04193 0.05591,-0.07921 0.07921,-0.447291 0.13512,-0.84333 0.05591,-0.396039 0.06989,-0.661618 0.0047,-0.07921 0,-0.163075 0,-0.08387 -0.0047,-0.167734 -0.0047,-0.06057 -0.0093,-0.116483 0,-0.05591 0,-0.107163 0,-0.05591 0.04193,-0.125801 0.04193,-0.06989 0.102505,-0.13046 0.06523,-0.06057 0.139778,-0.09784 0.07921,-0.04193 0.153756,-0.04193 0.06523,0 0.13046,0.03727 0.06523,0.03261 0.116482,0.09784 0.05125,0.06057 0.08387,0.153756 0.03261,0.08853 0.03261,0.20035 0,0.08387 -0.01398,0.205008 -0.01398,0.121141 -0.03727,0.265579 -0.0233,0.144438 -0.05591,0.302853 -0.02796,0.158416 -0.05591,0.316832 -0.03728,0.218986 -0.07455,0.419335 -0.03261,0.200349 -0.05125,0.344787 0.01864,0.04193 0.03261,0.07455 0.01864,0.02796 0.04659,0.04659 0.02796,0.01864 0.06989,0.02796 0.04659,0.0093 0.121141,0.0093 0.200349,0 0.423995,-0.04193 0.223645,-0.04193 0.423995,-0.107164 0.200349,-0.06523 0.358764,-0.135119 0.163075,-0.07455 0.242283,-0.139778 0.05125,-0.04193 0.111823,-0.111823 0.06523,-0.06989 0.13046,-0.149097 0.06523,-0.08387 0.1258,-0.163075 0.06523,-0.08387 0.111823,-0.144438 0.158416,-0.200349 0.358765,-0.391379 0.200349,-0.191031 0.442632,-0.335469 0.242282,-0.144437 0.521839,-0.232964 0.284216,-0.08853 0.615025,-0.08853 0.251602,0 0.493884,0.125801 0.242283,0.121141 0.428654,0.330809 0.191031,0.209667 0.302854,0.484565 0.116482,0.270238 0.116482,0.568432 0,0.298194 -0.06057,0.545136 -0.05591,0.242283 -0.181712,0.517181 -0.06989,0.144437 -0.242283,0.344786 -0.172393,0.20035 -0.414676,0.414677 -0.237623,0.214327 -0.521839,0.423994 -0.284217,0.209668 -0.577751,0.377402 -0.293535,0.167734 -0.577751,0.270238 -0.279557,0.102505 -0.507862,0.102505 -0.307513,0 -0.526499,-0.102505 -0.218986,-0.107163 -0.358765,-0.274897 -0.139778,-0.172394 -0.205008,-0.39138 -0.06523,-0.218986 -0.06523,-0.442632 0,-0.181712 0.05125,-0.437972 0.05591,-0.26092 0.186371,-0.526499 -0.177052,0.111823 -0.396039,0.177053 -0.214327,0.06523 -0.396039,0.116482 -0.07921,0.0233 -0.177052,0.04193 -0.09784,0.01398 -0.19569,0.02796 -0.09319,0.01398 -0.181712,0.02796 -0.08387,0.01398 -0.144438,0.0233 -0.09319,0.01864 -0.13046,0.07455 -0.03261,0.05125 -0.05125,0.135119 -0.01864,0.07921 -0.05591,0.209667 -0.03728,0.13046 -0.07455,0.270239 -0.04193,0.149097 -0.08853,0.307512 -0.04659,0.158416 -0.08387,0.302854 -0.03261,0.139778 -0.06057,0.26092 -0.0233,0.116482 -0.0233,0.181712 0,0.06057 -0.05125,0.130459 -0.04659,0.06989 -0.111823,0.13046 -0.06057,0.06523 -0.125801,0.107164 -0.06057,0.04193 -0.09319,0.04193 -0.06989,0 -0.13512,-0.04659 -0.06057,-0.04659 -0.107163,-0.107164 -0.04659,-0.06057 -0.07455,-0.121141 -0.02796,-0.06523 -0.02796,-0.09784 0,-0.04193 0.03262,-0.149097 0.03727,-0.107164 0.07455,-0.218986 0.0233,-0.06989 0.06057,-0.191031 0.03727,-0.121141 0.07455,-0.265579 0.04193,-0.149097 0.07921,-0.307513 0.04193,-0.158415 0.07455,-0.298194 0.03261,-0.139778 0.05125,-0.242282 0.01864,-0.107164 0.01864,-0.153757 z M 33.960943,45.7171 q 0,-0.465928 -0.270239,-0.726848 -0.265579,-0.265579 -0.764122,-0.265579 -0.06989,0 -0.172393,0.05591 -0.102505,0.05591 -0.223646,0.144438 -0.116482,0.08387 -0.237623,0.186371 -0.116482,0.102504 -0.223646,0.200349 -0.102504,0.09784 -0.177052,0.177053 -0.07455,0.07921 -0.102505,0.111822 -0.09784,0.116482 -0.205008,0.321491 -0.102504,0.200349 -0.191031,0.433313 -0.08853,0.232964 -0.149097,0.470588 -0.05591,0.232964 -0.05591,0.410016 0,0.107164 0.02796,0.218987 0.03261,0.111822 0.09318,0.205008 0.06523,0.08853 0.163075,0.149097 0.09784,0.05591 0.228305,0.05591 0.144438,0 0.368083,-0.08387 0.223646,-0.08387 0.470588,-0.232964 0.251601,-0.149097 0.503202,-0.354105 0.256261,-0.205009 0.45661,-0.442632 0.205008,-0.237623 0.330809,-0.498543 0.13046,-0.265579 0.13046,-0.535818 z"
     id="path4866" /></g><g
   aria-label="з"
   transform="scale(1.3650009,0.73260025)"
   id="text16794"
   style="font-size:10.9899px;line-height:1.25;font-family:'Segoe Script';-inkscape-font-specification:'Segoe Script';fill:#131313;stroke-width:0.27475"><path
     d="m 0.79048876,37.788058 q 0.0536616,0 0.0858586,0.03756 0.0375631,0.03756 0.0590278,0.09122 0.0214646,0.05903 0.0268308,0.128788 0.0107323,0.06976 0.0107323,0.134154 0,0.123422 0.0429293,0.268309 0.048295,0.144886 0.1502525,0.268308 0.1073232,0.123421 0.2736742,0.203914 0.1663511,0.08586 0.4078284,0.08586 0.3273358,0 0.6761364,-0.171717 0.3488005,-0.171717 0.6385732,-0.477588 0.2897728,-0.305871 0.4722223,-0.729798 0.1878156,-0.418561 0.1878156,-0.917614 0,-0.46149 -0.096591,-0.78346 -0.096591,-0.321969 -0.2522096,-0.520517 -0.1502525,-0.203914 -0.3488005,-0.295139 -0.198548,-0.09123 -0.397096,-0.09123 -0.075126,0 -0.166351,0.03756 -0.091225,0.0322 -0.1878157,0.08586 -0.091225,0.0483 -0.1878156,0.107323 -0.091225,0.05903 -0.1663511,0.107323 -0.1287878,0.08586 -0.2468434,0.144887 -0.1126894,0.05903 -0.3005051,0.05903 -0.1448864,0 -0.2522096,-0.107323 -0.1019571,-0.112689 -0.1019571,-0.295139 0,-0.13952 0.096591,-0.236111 0.1019571,-0.09659 0.3112374,-0.182449 0.4453915,-0.18245 0.794192,-0.370266 0.3541667,-0.193181 0.595644,-0.413194 0.2414773,-0.225379 0.3702652,-0.493687 0.1287878,-0.268308 0.1287878,-0.611742 0,-0.134154 -0.042929,-0.262942 -0.037563,-0.134154 -0.1180555,-0.236111 -0.080492,-0.107324 -0.198548,-0.171718 -0.1126894,-0.06976 -0.2629419,-0.06976 -0.3219698,0 -0.6117425,0.198548 -0.2897727,0.198548 -0.5688132,0.488321 -0.1234217,0.128788 -0.2039141,0.187816 -0.080493,0.05366 -0.1717172,0.05366 -0.075126,0 -0.1341541,-0.03756 -0.053662,-0.04293 -0.091225,-0.09659 -0.032197,-0.05903 -0.0536616,-0.123421 -0.0160985,-0.06976 -0.0160985,-0.118056 0,-0.128788 0.0697601,-0.241477 0.075126,-0.118056 0.198548,-0.220013 0.2683081,-0.225379 0.5258839,-0.370265 0.2575757,-0.144887 0.4239267,-0.214647 0.1878157,-0.07513 0.3863637,-0.144886 0.2039142,-0.06976 0.3809975,-0.06976 0.2522096,0 0.4829546,0.09122 0.2307449,0.08586 0.4024621,0.257575 0.1770834,0.166351 0.2790404,0.413195 0.1073233,0.246843 0.1073233,0.558081 0,0.450757 -0.2200127,0.896149 -0.2146464,0.445391 -0.7351641,0.863952 0.3595328,0.0161 0.6278409,0.182449 0.2683081,0.166351 0.4453914,0.440026 0.1824495,0.273674 0.2683081,0.633207 0.091225,0.354166 0.091225,0.751262 0,0.397096 -0.1073232,0.788826 -0.1073233,0.39173 -0.3058713,0.751263 -0.1931818,0.359533 -0.4668561,0.665404 -0.2683081,0.305871 -0.5956439,0.53125 -0.3219698,0.225379 -0.6922349,0.354167 -0.364899,0.128788 -0.7512627,0.128788 -0.3702652,0 -0.6439394,-0.123422 -0.27367429,-0.118056 -0.45612379,-0.300505 -0.17708335,-0.18245 -0.2683081,-0.39173 -0.0912248,-0.20928 -0.0912248,-0.386364 0,-0.134154 0.0482955,-0.289772 0.0536616,-0.155619 0.11805557,-0.246844 0.0429293,-0.05903 0.12342172,-0.123422 0.0804924,-0.05903 0.20391416,-0.05903 z"
     id="path4785" /></g></svg>
