<?xml version="1.0" encoding="UTF-8" standalone="no"?>
<!-- Generator: Adobe Illustrator 22.0.1, SVG Export Plug-In . SVG Version: 6.00 Build 0)  -->

<svg
   version="1.1"
   id="Layer_1"
   x="0px"
   y="0px"
   viewBox="0 0 56 56"
   xml:space="preserve"
   sodipodi:docname="northWind.svg"
   width="56"
   height="56"
   inkscape:version="1.1.1 (3bf5ae0d25, 2021-09-20)"
   xmlns:inkscape="http://www.inkscape.org/namespaces/inkscape"
   xmlns:sodipodi="http://sodipodi.sourceforge.net/DTD/sodipodi-0.dtd"
   xmlns="http://www.w3.org/2000/svg"
   xmlns:svg="http://www.w3.org/2000/svg"><defs
   id="defs7" /><sodipodi:namedview
   id="namedview5"
   pagecolor="#ffffff"
   bordercolor="#666666"
   borderopacity="1.0"
   inkscape:pageshadow="2"
   inkscape:pageopacity="0.0"
   inkscape:pagecheckerboard="0"
   showgrid="false"
   inkscape:zoom="10.158767"
   inkscape:cx="13.978074"
   inkscape:cy="33.714721"
   inkscape:window-width="2400"
   inkscape:window-height="1321"
   inkscape:window-x="2391"
   inkscape:window-y="-9"
   inkscape:window-maximized="1"
   inkscape:current-layer="Layer_1"
   width="140px" />
<path
   d="m 9.2178652,27.831136 c 0.069682,-3.493821 1.0190628,-6.713928 2.8305148,-9.64353 1.811458,-2.929602 4.235231,-5.230774 7.271337,-6.903526 3.0361,-1.6727539 6.315035,-2.4670988 9.837158,-2.4001823 2.637251,0.050108 5.160166,0.6120389 7.551725,1.6683233 2.391544,1.056294 4.42859,2.482774 6.146832,4.228725 1.718227,1.745964 3.065294,3.827515 4.041159,6.244681 0.975873,2.417175 1.446872,4.91041 1.39429,7.547905 -0.05192,2.603237 -0.622263,5.093825 -1.693394,7.45497 -1.071131,2.361137 -2.517481,4.389628 -4.28666,6.069319 -1.769172,1.679694 -3.878545,3.010249 -6.310387,3.974899 -2.431849,0.964644 -4.957899,1.430634 -7.612501,1.380197 C 25.73333,47.402486 23.193071,46.840224 20.80152,45.783932 18.409968,44.727636 16.355578,43.300833 14.637336,41.554885 12.919095,39.808931 11.589385,37.727699 10.595494,35.344452 9.6015809,32.961204 9.1656212,30.451498 9.2178652,27.831136 Z m 4.3028878,0.08175 c -0.08092,4.058998 1.340878,7.615419 4.282732,10.669599 2.942544,3.019924 6.487357,4.560718 10.668794,4.640167 2.741357,0.05209 5.305172,-0.567389 7.657094,-1.876211 2.35193,-1.308825 4.26196,-3.088634 5.678733,-5.37468 1.416773,-2.286039 2.160641,-4.773332 2.214596,-7.479333 0.05397,-2.705994 -0.589888,-5.236783 -1.914464,-7.574917 -1.324577,-2.338128 -3.144531,-4.205947 -5.459864,-5.603448 -2.315326,-1.397504 -4.835157,-2.113568 -7.576522,-2.165654 -2.741358,-0.05209 -5.305172,0.56739 -7.657102,1.876212 -2.351915,1.308823 -4.262289,3.105765 -5.696414,5.39148 -1.434117,2.285715 -2.143627,4.790787 -2.197583,7.496785 z m 8.284578,10.180245 6.954024,-22.329305 c 0.02078,-0.170931 0.109224,-0.254917 0.265393,-0.251934 0.156153,0.0031 0.241205,0.09025 0.255149,0.261826 l 6.041374,22.576216 c 0.06564,0.189715 0.0456,0.326395 -0.04325,0.427505 -0.08883,0.10109 -0.227607,0.09847 -0.416413,-0.0079 l -5.976184,-2.340843 c -0.172139,-0.07181 -0.345643,-0.07511 -0.503162,-0.0096 l -6.117013,2.11108 c -0.175552,0.09946 -0.297003,0.09715 -0.364359,-0.0069 -0.06734,-0.104084 -0.133683,-0.259533 -0.09557,-0.430141 z"
   id="path2"
   style="fill:#2c4f54;fill-opacity:0.5;stroke:#2e3332;stroke-width:0.106296;stroke-miterlimit:4;stroke-dasharray:none;stroke-opacity:0.9" />
<path
   style="fill:#1f4347;fill-opacity:0.81;stroke:#e4e7e7;stroke-width:0.106296;stroke-miterlimit:4;stroke-dasharray:none;stroke-opacity:0.9"
   d="m 26.794203,42.59396 c -0.734557,-0.0912 -1.540494,-0.246124 -2.233079,-0.429259 -3.894382,-1.029809 -7.476812,-4.060479 -9.252813,-7.827727 -0.955988,-2.027843 -1.317329,-3.807308 -1.252587,-6.168486 0.06638,-2.423553 0.546984,-4.257036 1.648404,-6.289669 0.742376,-1.370002 1.570444,-2.453229 2.745374,-3.591307 2.331714,-2.258576 5.032187,-3.615966 8.223646,-4.133622 0.664632,-0.107803 0.939805,-0.11973 2.383203,-0.103294 1.752012,0.02 2.245033,0.07502 3.50942,0.391748 1.909618,0.478398 4.011156,1.534383 5.615738,2.821824 0.654513,0.525142 1.859944,1.777908 2.371255,2.464353 1.237448,1.661323 2.107714,3.512701 2.512159,5.344342 0.298251,1.350698 0.339321,1.829778 0.295858,3.450581 -0.03069,1.143358 -0.06734,1.627144 -0.161006,2.122653 -0.568778,3.00931 -2.094835,5.776865 -4.360839,7.908448 -2.320729,2.183083 -5.25093,3.586115 -8.36084,4.003325 -0.716898,0.09618 -3.018271,0.118723 -3.683893,0.03611 z m -1.494557,-5.307995 c 1.656871,-0.577487 3.07335,-1.063844 3.147726,-1.080791 0.09179,-0.02094 1.126173,0.347743 3.22097,1.147993 1.776302,0.67857 3.130044,1.165704 3.190146,1.147942 0.124542,-0.03684 0.195643,-0.251658 0.154332,-0.466319 -0.01638,-0.08522 -1.314819,-5.016245 -2.885358,-10.957834 -2.752137,-10.411719 -2.861017,-10.804917 -3.006986,-10.858775 -0.112815,-0.04161 -0.173151,-0.03513 -0.236506,0.02562 -0.104833,0.100425 -6.958759,21.45578 -6.965346,21.702442 -0.0059,0.222862 0.143883,0.451552 0.272632,0.416094 0.05272,-0.01459 1.45152,-0.498893 3.108397,-1.076379 z"
   id="path861" /><rect
   style="fill:#c7485e;fill-opacity:1;stroke:#3c4343;stroke-width:0.472991;stroke-opacity:0.9"
   id="rect2803"
   width="5.5957408"
   height="0.056487102"
   x="24.929102"
   y="26.98794"
   transform="matrix(0.9998769,-0.01569025,0.03696949,0.99931639,0,0)"
   inkscape:transform-center-x="2.9076315"
   inkscape:transform-center-y="2.8618297" /><path
   style="fill:#cd415c;fill-opacity:1;stroke:#e27364;stroke-width:0.0410676;stroke-opacity:0.9"
   d="m 26.239042,25.868278 c 0.02985,-0.09715 0.646674,-2.197042 1.370704,-4.666463 0.724028,-2.469418 1.347536,-4.54764 1.38557,-4.618262 0.05984,-0.111138 2.550502,8.950606 2.546046,9.263232 -8.05e-4,0.08539 -0.71553,0.127307 -2.679138,0.15726 -2.503756,0.03819 -2.673951,0.02934 -2.623182,-0.135742 z"
   id="path3397"
   inkscape:transform-center-x="2.7952236"
   inkscape:transform-center-y="-1.6478557" /><text
   xml:space="preserve"
   style="font-size:9.40172px;line-height:1.25;font-family:'Segoe Script';-inkscape-font-specification:'Segoe Script';fill:#16272a;fill-opacity:0.799714;stroke-width:0.235042"
   x="7.2524209"
   y="35.150139"
   id="text17884"
   transform="scale(1.3287852,0.7525671)"><tspan
     sodipodi:role="line"
     id="tspan17882"
     x="7.2524209"
     y="35.150139"
     style="stroke-width:0.235042">_</tspan></text><text
   xml:space="preserve"
   style="font-size:9.5764px;line-height:1.25;font-family:'Segoe Script';-inkscape-font-specification:'Segoe Script';fill:#16272a;fill-opacity:0.799714;stroke-width:0.239411"
   x="31.366856"
   y="35.561848"
   id="text17884-6"
   transform="scale(1.3534873,0.73883218)"><tspan
     sodipodi:role="line"
     id="tspan17882-2"
     x="31.366856"
     y="35.561848"
     style="stroke-width:0.239411">_</tspan></text><text
   xml:space="preserve"
   style="font-size:8.41275px;line-height:1.25;font-family:'Segoe Script';-inkscape-font-specification:'Segoe Script';fill:#16272a;fill-opacity:0.799714;stroke-width:0.210317"
   x="-36.514908"
   y="36.549881"
   id="text17884-0"
   transform="matrix(-0.01858787,-1.3460859,0.74215516,-0.05355197,0,0)"><tspan
     sodipodi:role="line"
     id="tspan17882-4"
     x="-36.514908"
     y="36.549881"
     style="stroke-width:0.210317">_</tspan></text><text
   xml:space="preserve"
   style="font-size:9.49414px;line-height:1.25;font-family:'Segoe Script';-inkscape-font-specification:'Segoe Script';fill:#16272a;fill-opacity:0.799714;stroke-width:0.237351"
   x="-10.913099"
   y="37.602989"
   id="text17884-9"
   transform="matrix(5.1958717e-4,-1.315696,0.76005344,0.0014287,0,0)"><tspan
     sodipodi:role="line"
     id="tspan17882-7"
     x="-10.913099"
     y="37.602989"
     style="stroke-width:0.237351">_</tspan></text><g
   aria-label="c"
   transform="scale(1.0060394,0.99399686)"
   id="text9344"
   style="font-size:12.8207px;line-height:1.25;font-family:'Segoe Script';-inkscape-font-specification:'Segoe Script';fill:#0e0e0e;stroke-width:0.320514"><path
     d="m 32.426158,5.0600666 q 0,0.2253639 -0.162763,0.406907 -0.169023,0.1878032 -0.294225,0.3192655 -0.125202,0.1252021 -0.237884,0.2316239 -0.112682,0.1064219 -0.237884,0.2065836 -0.125203,0.093902 -0.294225,0.2191037 -0.475769,0.3443059 -0.907716,0.58219 -0.431947,0.231624 -0.838854,0.3818666 -0.406907,0.1439824 -0.807554,0.2065835 -0.394387,0.062601 -0.795034,0.062601 -0.419427,0 -0.751213,-0.1565027 Q 26.767021,7.357526 26.535397,7.0820813 26.310033,6.8066366 26.191091,6.4435503 26.072149,6.074204 26.072149,5.667297 v -0.0313 q 0,-0.4131671 0.106422,-0.876415 0.106421,-0.4695081 0.294225,-0.9390161 0.194063,-0.4695081 0.463247,-0.9202358 0.269185,-0.4569878 0.594711,-0.8513746 0.131462,-0.1565026 0.313005,-0.3317857 0.187803,-0.1815431 0.394387,-0.3317856 0.212843,-0.1502426 0.438207,-0.2441442 0.231624,-0.1001617 0.450728,-0.1001617 0.150243,0 0.287965,0.093902 0.137722,0.087641 0.256664,0.2316239 0.118942,0.1439825 0.219104,0.3255256 0.100162,0.175283 0.169023,0.3630862 0.06886,0.1815432 0.106422,0.350566 0.03756,0.1690229 0.03756,0.287965 0,0.1815431 -0.112681,0.469508 -0.112682,0.287965 -0.269185,0.287965 -0.225364,0 -0.375607,-0.3067453 -0.05634,-0.118942 -0.100161,-0.2754447 -0.03756,-0.1565027 -0.0939,-0.3067453 -0.05008,-0.1502425 -0.137722,-0.2754447 -0.08764,-0.1314622 -0.244144,-0.1940633 -0.156503,0.037561 -0.319266,0.1627628 -0.156503,0.1252021 -0.313005,0.3067452 -0.150243,0.1815431 -0.300485,0.4131671 -0.143983,0.2253639 -0.275445,0.4695081 -0.125202,0.2253638 -0.244144,0.5195889 -0.118942,0.2879649 -0.212844,0.6009703 -0.0939,0.3067452 -0.150242,0.6134905 -0.05634,0.3067452 -0.05634,0.5634096 0,0.1815431 0.08764,0.3693464 0.08764,0.1815431 0.225364,0.3317856 0.143982,0.1502426 0.319265,0.2441442 0.181544,0.093902 0.369347,0.093902 0.926496,0 1.840471,-0.3818665 0.913976,-0.3818666 1.74031,-1.108039 0.456988,-0.4006469 0.757473,-0.4006469 0.08764,0 0.08764,0.1690229 z"
     id="path5364" /></g><g
   aria-label="в"
   transform="scale(1.4035516,0.71247825)"
   id="text19318"
   style="font-size:12.2815px;line-height:1.25;font-family:'Segoe Script';-inkscape-font-specification:'Segoe Script';fill:#161616;stroke-width:0.307038"><path
     d="m 38.826087,33.7429 q 0,-0.07196 -0.02998,-0.143923 -0.02399,-0.07796 -0.07796,-0.137927 -0.04797,-0.06596 -0.13193,-0.107943 -0.07796,-0.04198 -0.185901,-0.04198 -0.209889,0 -0.437769,0.149921 -0.221882,0.14992 -0.449762,0.413781 -0.221882,0.257863 -0.431771,0.617673 -0.209889,0.353812 -0.389794,0.767593 -0.179905,0.413781 -0.323828,0.86954 -0.137927,0.449762 -0.221883,0.905521 0.05397,-0.03598 0.161914,-0.11394 0.107943,-0.08396 0.239873,-0.185901 0.137927,-0.107943 0.287848,-0.22788 0.155917,-0.125933 0.293844,-0.24587 0.143924,-0.119936 0.263861,-0.227879 0.119936,-0.107943 0.191898,-0.185902 0.665648,-0.719619 0.953496,-1.247339 0.287847,-0.527721 0.287847,-0.857547 z m -0.185901,6.464579 q -0.185902,0.275854 -0.449762,0.539714 -0.257864,0.257864 -0.569699,0.455759 -0.311835,0.197895 -0.665647,0.311835 -0.347816,0.11394 -0.707626,0.08396 -0.251867,-0.01799 -0.479746,-0.161915 -0.227879,-0.14992 -0.401787,-0.419777 -0.173908,-0.275854 -0.275854,-0.671645 -0.101946,-0.395791 -0.101946,-0.911518 0,-0.329825 0.03598,-0.713622 0.03598,-0.389794 0.09595,-0.785584 0.05997,-0.395791 0.13193,-0.773591 0.07796,-0.3778 0.149921,-0.695631 0.09595,-0.431772 0.251866,-0.85155 0.155918,-0.425774 0.347816,-0.815568 0.191899,-0.395791 0.413781,-0.743607 0.221883,-0.347815 0.455759,-0.629666 0.323829,-0.3778 0.73761,-0.60568 0.419777,-0.227879 0.983479,-0.227879 0.233876,0 0.425775,0.09595 0.191898,0.09595 0.329825,0.251867 0.137927,0.14992 0.209889,0.341819 0.07796,0.191898 0.07796,0.3778 0,0.257863 -0.107943,0.575695 -0.101946,0.311835 -0.299841,0.653654 -0.197896,0.341819 -0.479746,0.689635 -0.281851,0.347816 -0.641661,0.671645 0.08396,0.006 0.191899,0.02998 0.113939,0.01799 0.233876,0.07196 0.125933,0.05397 0.251866,0.143924 0.131931,0.08995 0.251867,0.227879 0.05397,0.06596 0.119937,0.179905 0.06596,0.107943 0.119936,0.269857 0.05997,0.155917 0.09595,0.35981 0.04198,0.203892 0.04198,0.449762 0,0.479746 -0.173908,1.03745 -0.167911,0.551708 -0.599682,1.187372 z m -0.167911,-2.206832 q 0,-0.329825 -0.09595,-0.551708 -0.09595,-0.227879 -0.227879,-0.35981 -0.13193,-0.137927 -0.269857,-0.191898 -0.137927,-0.05997 -0.221883,-0.05997 -0.07796,0 -0.24587,0.119936 -0.167911,0.119937 -0.359809,0.263861 -0.143924,0.125933 -0.287848,0.233876 -0.143924,0.107943 -0.269857,0.209889 -0.119937,0.101946 -0.221883,0.203892 -0.101946,0.101946 -0.167911,0.215886 -0.167911,0.305838 -0.197895,0.695631 -0.02998,0.389794 -0.02998,0.797578 0,0.269857 0.05397,0.485743 0.05997,0.209889 0.143924,0.35981 0.08995,0.14992 0.191899,0.233876 0.101946,0.07796 0.185901,0.07796 0.203892,0 0.461756,-0.08396 0.257863,-0.08395 0.52772,-0.329825 0.233877,-0.215886 0.419778,-0.485743 0.191899,-0.269857 0.323829,-0.569699 0.137927,-0.299841 0.209889,-0.62367 0.07796,-0.323828 0.07796,-0.64166 z"
     id="path5385" /></g><g
   aria-label="ю"
   transform="scale(0.89539144,1.11683)"
   id="text11307"
   style="font-size:10.2402px;line-height:1.25;font-family:'Segoe Script';-inkscape-font-specification:'Segoe Script';fill:#151515;stroke-width:0.256002"><path
     d="m 27.89669,47.385441 q 0,-0.02 -0.025,-0.035 -0.02,-0.02 -0.05,-0.05 -0.03,-0.03 -0.055,-0.08 -0.02,-0.05 -0.02,-0.140003 0,-0.08 0.045,-0.145003 0.045,-0.065 0.095,-0.120002 0.055,-0.055 0.100002,-0.100002 0.05,-0.045 0.06,-0.085 0.085,-0.480009 0.145002,-0.905017 0.06,-0.425009 0.075,-0.710014 0.005,-0.085 0,-0.175004 0,-0.09 -0.005,-0.180003 -0.005,-0.065 -0.01,-0.125003 0,-0.06 0,-0.115002 0,-0.06 0.045,-0.135002 0.045,-0.075 0.110002,-0.140003 0.07,-0.065 0.150003,-0.105002 0.085,-0.045 0.165003,-0.045 0.07,0 0.140003,0.04 0.07,0.035 0.125002,0.105002 0.055,0.065 0.09,0.165003 0.035,0.095 0.035,0.215004 0,0.09 -0.015,0.220004 -0.015,0.130003 -0.04,0.285006 -0.025,0.155003 -0.06,0.325006 -0.03,0.170004 -0.06,0.340007 -0.04,0.235005 -0.08,0.450009 -0.035,0.215004 -0.055,0.370007 0.02,0.045 0.035,0.08 0.02,0.03 0.05,0.05 0.03,0.02 0.075,0.03 0.05,0.01 0.130003,0.01 0.215004,0 0.455009,-0.045 0.240005,-0.045 0.455009,-0.115002 0.215004,-0.07 0.385007,-0.145003 0.175004,-0.08 0.260005,-0.150003 0.055,-0.045 0.120003,-0.120002 0.07,-0.075 0.140002,-0.160003 0.07,-0.09 0.135003,-0.175003 0.07,-0.09 0.120002,-0.155004 0.170004,-0.215004 0.385008,-0.420008 0.215004,-0.205004 0.475009,-0.360007 0.260005,-0.155003 0.560011,-0.250005 0.305006,-0.095 0.660013,-0.095 0.270005,0 0.53001,0.135002 0.260006,0.130003 0.460009,0.355007 0.205004,0.225004 0.325007,0.52001 0.125002,0.290006 0.125002,0.610012 0,0.320006 -0.065,0.585012 -0.06,0.260005 -0.195004,0.55501 -0.075,0.155003 -0.260005,0.370008 -0.185004,0.215004 -0.445009,0.445008 -0.255005,0.230005 -0.560011,0.455009 -0.305006,0.225005 -0.620012,0.405008 -0.315006,0.180004 -0.620012,0.290006 -0.300006,0.110002 -0.54501,0.110002 -0.330007,0 -0.565011,-0.110002 -0.235005,-0.115002 -0.385008,-0.295006 -0.150003,-0.185004 -0.220004,-0.420008 -0.07,-0.235005 -0.07,-0.475009 0,-0.195004 0.055,-0.47001 0.06,-0.280005 0.200004,-0.565011 -0.190003,0.120003 -0.425008,0.190004 -0.230004,0.07 -0.425008,0.125003 -0.085,0.025 -0.190004,0.045 -0.105002,0.015 -0.210004,0.03 -0.100002,0.015 -0.195004,0.03 -0.09,0.015 -0.155003,0.025 -0.100002,0.02 -0.140003,0.08 -0.035,0.055 -0.055,0.145002 -0.02,0.085 -0.06,0.225005 -0.04,0.140003 -0.08,0.290006 -0.045,0.160003 -0.095,0.330006 -0.05,0.170003 -0.09,0.325006 -0.035,0.150003 -0.065,0.280006 -0.025,0.125002 -0.025,0.195004 0,0.065 -0.055,0.140002 -0.05,0.075 -0.120002,0.140003 -0.065,0.07 -0.135003,0.115002 -0.065,0.045 -0.100002,0.045 -0.075,0 -0.145003,-0.05 -0.065,-0.05 -0.115002,-0.115002 -0.05,-0.065 -0.08,-0.130003 -0.03,-0.07 -0.03,-0.105002 0,-0.045 0.035,-0.160003 0.04,-0.115002 0.08,-0.235004 0.025,-0.075 0.065,-0.205004 0.04,-0.130003 0.08,-0.285006 0.045,-0.160003 0.085,-0.330006 0.045,-0.170004 0.08,-0.320007 0.035,-0.150003 0.055,-0.260005 0.02,-0.115002 0.02,-0.165003 z m 6.025117,-1.130022 q 0,-0.50001 -0.290005,-0.780015 -0.285006,-0.285006 -0.820016,-0.285006 -0.075,0 -0.185004,0.06 -0.110002,0.06 -0.240005,0.155003 -0.125002,0.09 -0.255005,0.200004 -0.125002,0.110002 -0.240004,0.215005 -0.110002,0.105002 -0.190004,0.190003 -0.08,0.085 -0.110002,0.120003 -0.105002,0.125002 -0.220004,0.345006 -0.110003,0.215004 -0.205004,0.465009 -0.095,0.250005 -0.160004,0.50501 -0.06,0.250005 -0.06,0.440009 0,0.115002 0.03,0.235004 0.035,0.120003 0.100002,0.220005 0.07,0.095 0.175003,0.160003 0.105002,0.06 0.245005,0.06 0.155003,0 0.395008,-0.09 0.240004,-0.09 0.50501,-0.250005 0.270005,-0.160003 0.54001,-0.380007 0.275006,-0.220004 0.49001,-0.475009 0.220004,-0.255005 0.355007,-0.535011 0.140002,-0.285005 0.140002,-0.575011 z"
     id="path5322" /></g><g
   aria-label="з"
   transform="scale(1.3881424,0.72038718)"
   id="text16794"
   style="font-size:11.7939px;line-height:1.25;font-family:'Segoe Script';-inkscape-font-specification:'Segoe Script';fill:#131313;stroke-width:0.294847"><path
     d="m 1.8672813,38.203825 q 0.057587,0 0.09214,0.04031 0.040311,0.04031 0.063346,0.0979 0.023035,0.06335 0.028794,0.13821 0.011518,0.07486 0.011518,0.143968 0,0.132451 0.04607,0.287937 0.051829,0.155486 0.1612448,0.287937 0.1151748,0.132451 0.2936957,0.218832 0.1785209,0.09214 0.4376642,0.09214 0.3512832,0 0.7256013,-0.18428 0.3743181,-0.184279 0.68529,-0.512527 0.310972,-0.328249 0.5067692,-0.783189 0.2015559,-0.449182 0.2015559,-0.984745 0,-0.495251 -0.1036574,-0.840776 -0.1036573,-0.345524 -0.2706607,-0.558597 -0.1612448,-0.218833 -0.3743181,-0.316731 -0.2130734,-0.0979 -0.4261468,-0.0979 -0.080622,0 -0.1785209,0.04031 -0.097899,0.03455 -0.2015559,0.09214 -0.097899,0.05183 -0.2015559,0.115175 -0.097899,0.06335 -0.178521,0.115175 -0.1382097,0.09214 -0.264902,0.155486 -0.1209336,0.06335 -0.3224895,0.06335 -0.1554859,0 -0.2706607,-0.115175 -0.1094161,-0.120933 -0.1094161,-0.31673 0,-0.149728 0.1036573,-0.253385 0.1094161,-0.103657 0.3340069,-0.195797 0.4779755,-0.195797 0.8522936,-0.397353 0.3800768,-0.207315 0.6392201,-0.443423 0.2591433,-0.241867 0.3973531,-0.529804 0.1382097,-0.287937 0.1382097,-0.656497 0,-0.143968 -0.04607,-0.282178 -0.040311,-0.143968 -0.1266923,-0.253385 -0.086381,-0.115174 -0.2130734,-0.184279 -0.1209335,-0.07486 -0.2821782,-0.07486 -0.3455244,0 -0.6564964,0.213074 -0.3109719,0.213073 -0.6104264,0.524045 -0.132451,0.13821 -0.2188321,0.201556 -0.086381,0.05759 -0.1842797,0.05759 -0.080622,0 -0.1439685,-0.04031 -0.057587,-0.04607 -0.097899,-0.103657 -0.034552,-0.06335 -0.057587,-0.132451 -0.017276,-0.07486 -0.017276,-0.126693 0,-0.138209 0.074864,-0.259143 Q 2.184012,32.318393 2.316463,32.208977 2.6044,31.96711 2.8808195,31.811624 3.157239,31.656138 3.33576,31.581274 q 0.2015559,-0.08062 0.4146292,-0.155486 0.2188322,-0.07486 0.4088706,-0.07486 0.2706608,0 0.5182866,0.0979 0.2476258,0.09214 0.4319055,0.27642 0.1900384,0.178521 0.2994545,0.443423 0.1151748,0.264902 0.1151748,0.598909 0,0.483734 -0.2361084,0.961709 -0.2303496,0.477976 -0.7889474,0.927157 0.3858356,0.01728 0.6737726,0.195797 0.287937,0.178521 0.4779754,0.472217 0.1957972,0.293696 0.287937,0.679531 0.097899,0.380077 0.097899,0.806224 0,0.426147 -0.1151748,0.846535 -0.1151748,0.420388 -0.3282482,0.806223 -0.2073146,0.385836 -0.5010103,0.714084 -0.287937,0.328248 -0.6392202,0.570115 -0.3455244,0.241868 -0.7428774,0.380077 -0.3915944,0.13821 -0.8062236,0.13821 -0.3973531,0 -0.6910488,-0.132451 -0.2936958,-0.126692 -0.4894929,-0.322489 -0.1900385,-0.195798 -0.287937,-0.420388 -0.097899,-0.224591 -0.097899,-0.41463 0,-0.143968 0.051829,-0.310972 0.057587,-0.167003 0.1266923,-0.264902 0.04607,-0.06335 0.132451,-0.132451 0.086381,-0.06335 0.2188322,-0.06335 z"
     id="path5343" /></g></svg>
