<?xml version="1.0" encoding="UTF-8" standalone="no"?>
<!-- Generator: Adobe Illustrator 22.0.1, SVG Export Plug-In . SVG Version: 6.00 Build 0)  -->

<svg
   version="1.1"
   id="Layer_1"
   x="0px"
   y="0px"
   viewBox="0 0 56 56"
   xml:space="preserve"
   sodipodi:docname="northWind.svg"
   width="56"
   height="56"
   inkscape:version="1.1.1 (3bf5ae0d25, 2021-09-20)"
   xmlns:inkscape="http://www.inkscape.org/namespaces/inkscape"
   xmlns:sodipodi="http://sodipodi.sourceforge.net/DTD/sodipodi-0.dtd"
   xmlns="http://www.w3.org/2000/svg"
   xmlns:svg="http://www.w3.org/2000/svg"><defs
   id="defs7" /><sodipodi:namedview
   id="namedview5"
   pagecolor="#ffffff"
   bordercolor="#666666"
   borderopacity="1.0"
   inkscape:pageshadow="2"
   inkscape:pageopacity="0.0"
   inkscape:pagecheckerboard="0"
   showgrid="false"
   inkscape:zoom="2.5396918"
   inkscape:cx="-48.824822"
   inkscape:cy="92.334038"
   inkscape:window-width="2400"
   inkscape:window-height="1321"
   inkscape:window-x="2391"
   inkscape:window-y="-9"
   inkscape:window-maximized="1"
   inkscape:current-layer="Layer_1"
   width="140px" />
<path
   d="m 9.2178652,27.831136 c 0.069682,-3.493821 1.0190628,-6.713928 2.8305148,-9.64353 1.811458,-2.929602 4.235231,-5.230774 7.271337,-6.903526 3.0361,-1.6727539 6.315035,-2.4670988 9.837158,-2.4001823 2.637251,0.050108 5.160166,0.6120389 7.551725,1.6683233 2.391544,1.056294 4.42859,2.482774 6.146832,4.228725 1.718227,1.745964 3.065294,3.827515 4.041159,6.244681 0.975873,2.417175 1.446872,4.91041 1.39429,7.547905 -0.05192,2.603237 -0.622263,5.093825 -1.693394,7.45497 -1.071131,2.361137 -2.517481,4.389628 -4.28666,6.069319 -1.769172,1.679694 -3.878545,3.010249 -6.310387,3.974899 -2.431849,0.964644 -4.957899,1.430634 -7.612501,1.380197 C 25.73333,47.402486 23.193071,46.840224 20.80152,45.783932 18.409968,44.727636 16.355578,43.300833 14.637336,41.554885 12.919095,39.808931 11.589385,37.727699 10.595494,35.344452 9.6015809,32.961204 9.1656212,30.451498 9.2178652,27.831136 Z m 4.3028878,0.08175 c -0.08092,4.058998 1.340878,7.615419 4.282732,10.669599 2.942544,3.019924 6.487357,4.560718 10.668794,4.640167 2.741357,0.05209 5.305172,-0.567389 7.657094,-1.876211 2.35193,-1.308825 4.26196,-3.088634 5.678733,-5.37468 1.416773,-2.286039 2.160641,-4.773332 2.214596,-7.479333 0.05397,-2.705994 -0.589888,-5.236783 -1.914464,-7.574917 -1.324577,-2.338128 -3.144531,-4.205947 -5.459864,-5.603448 -2.315326,-1.397504 -4.835157,-2.113568 -7.576522,-2.165654 -2.741358,-0.05209 -5.305172,0.56739 -7.657102,1.876212 -2.351915,1.308823 -4.262289,3.105765 -5.696414,5.39148 -1.434117,2.285715 -2.143627,4.790787 -2.197583,7.496785 z m 8.284578,10.180245 6.954024,-22.329305 c 0.02078,-0.170931 0.109224,-0.254917 0.265393,-0.251934 0.156153,0.0031 0.241205,0.09025 0.255149,0.261826 l 6.041374,22.576216 c 0.06564,0.189715 0.0456,0.326395 -0.04325,0.427505 -0.08883,0.10109 -0.227607,0.09847 -0.416413,-0.0079 l -5.976184,-2.340843 c -0.172139,-0.07181 -0.345643,-0.07511 -0.503162,-0.0096 l -6.117013,2.11108 c -0.175552,0.09946 -0.297003,0.09715 -0.364359,-0.0069 -0.06734,-0.104084 -0.133683,-0.259533 -0.09557,-0.430141 z"
   id="path2"
   style="fill:#2c4f54;fill-opacity:0.5;stroke:#2e3332;stroke-width:0.106296;stroke-miterlimit:4;stroke-dasharray:none;stroke-opacity:0.9" />
<path
   style="fill:#1f4347;fill-opacity:0.81;stroke:#e4e7e7;stroke-width:0.106296;stroke-miterlimit:4;stroke-dasharray:none;stroke-opacity:0.9"
   d="m 26.794203,42.59396 c -0.734557,-0.0912 -1.540494,-0.246124 -2.233079,-0.429259 -3.894382,-1.029809 -7.476812,-4.060479 -9.252813,-7.827727 -0.955988,-2.027843 -1.317329,-3.807308 -1.252587,-6.168486 0.06638,-2.423553 0.546984,-4.257036 1.648404,-6.289669 0.742376,-1.370002 1.570444,-2.453229 2.745374,-3.591307 2.331714,-2.258576 5.032187,-3.615966 8.223646,-4.133622 0.664632,-0.107803 0.939805,-0.11973 2.383203,-0.103294 1.752012,0.02 2.245033,0.07502 3.50942,0.391748 1.909618,0.478398 4.011156,1.534383 5.615738,2.821824 0.654513,0.525142 1.859944,1.777908 2.371255,2.464353 1.237448,1.661323 2.107714,3.512701 2.512159,5.344342 0.298251,1.350698 0.339321,1.829778 0.295858,3.450581 -0.03069,1.143358 -0.06734,1.627144 -0.161006,2.122653 -0.568778,3.00931 -2.094835,5.776865 -4.360839,7.908448 -2.320729,2.183083 -5.25093,3.586115 -8.36084,4.003325 -0.716898,0.09618 -3.018271,0.118723 -3.683893,0.03611 z m -1.494557,-5.307995 c 1.656871,-0.577487 3.07335,-1.063844 3.147726,-1.080791 0.09179,-0.02094 1.126173,0.347743 3.22097,1.147993 1.776302,0.67857 3.130044,1.165704 3.190146,1.147942 0.124542,-0.03684 0.195643,-0.251658 0.154332,-0.466319 -0.01638,-0.08522 -1.314819,-5.016245 -2.885358,-10.957834 -2.752137,-10.411719 -2.861017,-10.804917 -3.006986,-10.858775 -0.112815,-0.04161 -0.173151,-0.03513 -0.236506,0.02562 -0.104833,0.100425 -6.958759,21.45578 -6.965346,21.702442 -0.0059,0.222862 0.143883,0.451552 0.272632,0.416094 0.05272,-0.01459 1.45152,-0.498893 3.108397,-1.076379 z"
   id="path861" /><rect
   style="fill:#c7485e;fill-opacity:1;stroke:#3c4343;stroke-width:0.472991;stroke-opacity:0.9"
   id="rect2803"
   width="5.5957408"
   height="0.056487102"
   x="24.929102"
   y="26.98794"
   transform="matrix(0.9998769,-0.01569025,0.03696949,0.99931639,0,0)"
   inkscape:transform-center-x="2.9076315"
   inkscape:transform-center-y="2.8618297" /><path
   style="fill:#cd415c;fill-opacity:1;stroke:#e27364;stroke-width:0.0410676;stroke-opacity:0.9"
   d="m 26.239042,25.868278 c 0.02985,-0.09715 0.646674,-2.197042 1.370704,-4.666463 0.724028,-2.469418 1.347536,-4.54764 1.38557,-4.618262 0.05984,-0.111138 2.550502,8.950606 2.546046,9.263232 -8.05e-4,0.08539 -0.71553,0.127307 -2.679138,0.15726 -2.503756,0.03819 -2.673951,0.02934 -2.623182,-0.135742 z"
   id="path3397"
   inkscape:transform-center-x="2.7952236"
   inkscape:transform-center-y="-1.6478557" /><text
   xml:space="preserve"
   style="font-size:9.40172px;line-height:1.25;font-family:'Segoe Script';-inkscape-font-specification:'Segoe Script';fill:#16272a;fill-opacity:0.799714;stroke-width:0.235042"
   x="7.2524209"
   y="35.150139"
   id="text17884"
   transform="scale(1.3287852,0.7525671)"><tspan
     sodipodi:role="line"
     id="tspan17882"
     x="7.2524209"
     y="35.150139"
     style="stroke-width:0.235042">_</tspan></text><text
   xml:space="preserve"
   style="font-size:9.5764px;line-height:1.25;font-family:'Segoe Script';-inkscape-font-specification:'Segoe Script';fill:#16272a;fill-opacity:0.799714;stroke-width:0.239411"
   x="31.366856"
   y="35.561848"
   id="text17884-6"
   transform="scale(1.3534873,0.73883218)"><tspan
     sodipodi:role="line"
     id="tspan17882-2"
     x="31.366856"
     y="35.561848"
     style="stroke-width:0.239411">_</tspan></text><text
   xml:space="preserve"
   style="font-size:8.41275px;line-height:1.25;font-family:'Segoe Script';-inkscape-font-specification:'Segoe Script';fill:#16272a;fill-opacity:0.799714;stroke-width:0.210317"
   x="-36.514908"
   y="36.549881"
   id="text17884-0"
   transform="matrix(-0.01858787,-1.3460859,0.74215516,-0.05355197,0,0)"><tspan
     sodipodi:role="line"
     id="tspan17882-4"
     x="-36.514908"
     y="36.549881"
     style="stroke-width:0.210317">_</tspan></text><text
   xml:space="preserve"
   style="font-size:9.49414px;line-height:1.25;font-family:'Segoe Script';-inkscape-font-specification:'Segoe Script';fill:#16272a;fill-opacity:0.799714;stroke-width:0.237351"
   x="-10.913099"
   y="37.602989"
   id="text17884-9"
   transform="matrix(5.1958717e-4,-1.315696,0.76005344,0.0014287,0,0)"><tspan
     sodipodi:role="line"
     id="tspan17882-7"
     x="-10.913099"
     y="37.602989"
     style="stroke-width:0.237351">_</tspan></text><text
   xml:space="preserve"
   style="font-size:12.8207px;line-height:1.25;font-family:'Segoe Script';-inkscape-font-specification:'Segoe Script';fill:#0e0e0e;fill-opacity:1;stroke-width:0.320514"
   x="25.270855"
   y="7.651751"
   id="text9344"
   transform="scale(1.0060394,0.99399686)"><tspan
     sodipodi:role="line"
     id="tspan9342"
     x="25.270855"
     y="7.651751"
     style="fill:#0e0e0e;fill-opacity:1;stroke-width:0.320514">c</tspan></text><text
   xml:space="preserve"
   style="font-size:12.2815px;line-height:1.25;font-family:'Segoe Script';-inkscape-font-specification:'Segoe Script';fill:#161616;fill-opacity:1;stroke-width:0.307038"
   x="34.17255"
   y="41.448822"
   id="text19318"
   transform="scale(1.4035516,0.71247825)"><tspan
     sodipodi:role="line"
     id="tspan19316"
     x="34.17255"
     y="41.448822"
     style="fill:#161616;fill-opacity:1;stroke-width:0.307038">в</tspan></text><text
   xml:space="preserve"
   style="font-size:10.2402px;line-height:1.25;font-family:'Segoe Script';-inkscape-font-specification:'Segoe Script';fill:#151515;fill-opacity:1;stroke-width:0.256002"
   x="26.556664"
   y="49.450481"
   id="text11307"
   transform="scale(0.89539144,1.11683)"><tspan
     sodipodi:role="line"
     id="tspan11305"
     x="26.556664"
     y="49.450481"
     style="fill:#151515;fill-opacity:1;stroke-width:0.256002">ю</tspan></text><text
   xml:space="preserve"
   style="font-size:11.7939px;line-height:1.25;font-family:'Segoe Script';-inkscape-font-specification:'Segoe Script';fill:#131313;fill-opacity:1;stroke-width:0.294847"
   x="1.0207465"
   y="37.743126"
   id="text16794"
   transform="scale(1.3881424,0.72038718)"><tspan
     sodipodi:role="line"
     id="tspan16792"
     x="1.0207465"
     y="37.743126"
     style="fill:#131313;fill-opacity:1;stroke-width:0.294847">з</tspan></text></svg>
