<?xml version="1.0" encoding="UTF-8" standalone="no"?>
<!-- Generator: Adobe Illustrator 22.0.1, SVG Export Plug-In . SVG Version: 6.00 Build 0)  -->

<svg
   version="1.1"
   id="Layer_1"
   x="0px"
   y="0px"
   viewBox="0 0 56 56"
   xml:space="preserve"
   sodipodi:docname="southwestWind.svg"
   width="56"
   height="56"
   inkscape:version="1.1.1 (3bf5ae0d25, 2021-09-20)"
   xmlns:inkscape="http://www.inkscape.org/namespaces/inkscape"
   xmlns:sodipodi="http://sodipodi.sourceforge.net/DTD/sodipodi-0.dtd"
   xmlns="http://www.w3.org/2000/svg"
   xmlns:svg="http://www.w3.org/2000/svg"><defs
   id="defs7" /><sodipodi:namedview
   id="namedview5"
   pagecolor="#ffffff"
   bordercolor="#666666"
   borderopacity="1.0"
   inkscape:pageshadow="2"
   inkscape:pageopacity="0.0"
   inkscape:pagecheckerboard="0"
   showgrid="false"
   inkscape:zoom="7.1833332"
   inkscape:cx="24.083527"
   inkscape:cy="36.821346"
   inkscape:window-width="2400"
   inkscape:window-height="1321"
   inkscape:window-x="2391"
   inkscape:window-y="-9"
   inkscape:window-maximized="1"
   inkscape:current-layer="Layer_1"
   width="140px" />
<path
   d="m 42.476127,42.29786 c -2.659858,2.46422 -5.7543,4.111418 -9.257938,4.941982 -3.503646,0.83056 -6.982725,0.777437 -10.437251,-0.159377 -3.454521,-0.93681 -6.429419,-2.676688 -8.937749,-5.207547 C 11.965038,39.977894 10.552176,37.795279 9.6039164,35.349637 8.6556727,32.903993 8.2413874,30.44194 8.2972512,27.974796 8.3531262,25.507644 8.9292488,23.06072 10.025601,20.63402 c 1.096371,-2.426707 2.616255,-4.552251 4.624184,-6.412505 1.981846,-1.836088 4.256153,-3.225676 6.797528,-4.169158 2.541363,-0.9434824 5.106838,-1.3831794 7.646315,-1.3444025 2.53947,0.038767 5.065303,0.5684985 7.552098,1.5887545 2.486797,1.020265 4.669604,2.465638 6.560113,4.373133 1.890519,1.907492 3.315733,4.102574 4.263985,6.548221 0.948246,2.445647 1.374888,4.920157 1.319031,7.387307 -0.05587,2.46715 -0.644334,4.901609 -1.702274,7.316616 -1.057934,2.415017 -2.615571,4.527709 -4.610454,6.375874 z m -3.064364,-3.09189 c 3.090121,-2.862845 4.713407,-6.423415 4.857504,-10.694171 0.118018,-4.246594 -1.30607,-7.853698 -4.283929,-10.858313 -1.95229,-1.969836 -4.277165,-3.331423 -6.962945,-4.047761 -2.685784,-0.716337 -5.402331,-0.782373 -8.138676,-0.136553 -2.736341,0.645812 -5.134211,1.91073 -7.194299,3.819295 -2.06007,1.908566 -3.482471,4.18295 -4.266529,6.7986 -0.78405,2.61565 -0.857045,5.242162 -0.218987,7.87953 0.638063,2.637369 1.933572,4.928692 3.885871,6.898523 1.952291,1.969832 4.277168,3.331418 6.96295,4.047761 2.685774,0.716334 5.415374,0.770293 8.164069,0.136936 2.748696,-0.633354 5.134889,-1.935282 7.194971,-3.843847 z M 40.997058,26.04295 19.270004,37.203966 c -0.142735,0.108328 -0.269714,0.106381 -0.380918,-0.0059 -0.111185,-0.112224 -0.107795,-0.234942 0.01022,-0.368196 L 31.371511,16.33093 c 0.09399,-0.182756 0.210663,-0.266921 0.350672,-0.27706 0.140012,-0.01012 0.238861,0.0896 0.296549,0.299219 l 2.59262,5.896489 c 0.07141,0.172997 0.19497,0.297668 0.358336,0.361552 l 6.019706,2.793207 c 0.201785,0.05219 0.288277,0.139472 0.259477,0.261818 -0.02883,0.122343 -0.09673,0.280929 -0.25182,0.376794 z"
   id="path2"
   style="fill:#2c4f54;fill-opacity:0.5;stroke:#2e3332;stroke-width:0.108866;stroke-miterlimit:4;stroke-dasharray:none;stroke-opacity:0.9" />
<path
   style="fill:#1f4347;fill-opacity:0.81;stroke:#e4e7e7;stroke-width:0.108866;stroke-miterlimit:4;stroke-dasharray:none;stroke-opacity:0.9"
   d="m 40.517338,19.352553 c 0.46308,0.58514 0.930025,1.266454 1.29381,1.887769 2.045536,3.493673 2.365283,8.200293 0.825855,12.156423 -0.82865,2.129512 -1.901316,3.660268 -3.718376,5.30633 -1.864995,1.689603 -3.587314,2.663273 -5.908099,3.340337 -1.564225,0.456336 -2.975446,0.646553 -4.678744,0.630617 -3.380299,-0.03162 -6.351756,-0.969931 -9.048881,-2.857375 -0.561684,-0.393063 -0.76971,-0.579238 -1.801688,-1.612406 -1.252606,-1.254094 -1.56805,-1.642395 -2.245386,-2.764064 -1.02295,-1.694088 -1.751725,-3.937844 -1.947429,-5.995797 -0.07983,-0.839433 -0.01275,-2.590088 0.131975,-3.443769 0.350222,-2.066061 1.108596,-4.008469 2.189201,-5.607108 0.796848,-1.178879 1.126308,-1.551224 2.372899,-2.681836 0.87941,-0.797542 1.268621,-1.118259 1.707884,-1.407028 2.66764,-1.75381 5.846634,-2.656989 9.084173,-2.580877 3.315747,0.07796 6.487636,1.146121 9.050452,3.047824 0.590784,0.438383 2.272737,2.050738 2.692368,2.580955 z m -2.898186,4.860979 c -1.631701,-0.758655 -3.021156,-1.412501 -3.087671,-1.452986 -0.08211,-0.04995 -0.554082,-1.046082 -1.469714,-3.101832 -0.776421,-1.74318 -1.390645,-3.050179 -1.447441,-3.079976 -0.117726,-0.06173 -0.330225,0.04188 -0.46127,0.224926 -0.05203,0.07268 -2.809491,4.52474 -6.127714,9.893485 -5.814672,9.407891 -6.030683,9.766685 -5.96545,9.908563 0.05044,0.109638 0.09894,0.147696 0.190314,0.149004 0.151135,0.0023 21.12045,-10.449711 21.310142,-10.621795 0.171391,-0.155474 0.234437,-0.425367 0.114704,-0.491066 -0.0491,-0.02686 -1.424208,-0.669661 -3.05591,-1.428316 z"
   id="path861" /><rect
   style="fill:#c7485e;fill-opacity:1;stroke:#3c4343;stroke-width:0.467643;stroke-opacity:0.9"
   id="rect2803"
   width="5.1265078"
   height="0.060271569"
   x="-42.62254"
   y="-3.4135625"
   transform="matrix(-0.70864146,-0.70556876,0.73502348,-0.67804165,0,0)"
   inkscape:transform-center-x="-4.1644082"
   inkscape:transform-center-y="-0.090603767" /><path
   style="fill:#cd425c;fill-opacity:1;stroke:#e27364;stroke-width:0.0385685;stroke-opacity:0.9"
   d="m 27.140142,32.729251 c -0.08493,0.04422 -1.902562,1.018825 -4.039185,2.165864 -2.136619,1.147038 -3.943854,2.102804 -4.01607,2.123911 -0.113638,0.0332 4.42663,-7.651517 4.641219,-7.855609 0.05859,-0.05578 0.544968,0.398783 1.824178,1.704744 1.631098,1.665212 1.734223,1.785991 1.589871,1.861071 z"
   id="path3397"
   inkscape:transform-center-x="-1.4604062"
   inkscape:transform-center-y="2.1018774" /><text
   xml:space="preserve"
   style="font-size:9.51351px;line-height:1.25;font-family:'Segoe Script';-inkscape-font-specification:'Segoe Script';fill:#16272a;fill-opacity:0.799714;stroke-width:0.237835"
   x="6.5322995"
   y="34.765236"
   id="text17884"
   transform="scale(1.3191999,0.75803523)"><tspan
     sodipodi:role="line"
     id="tspan17882"
     x="6.5322995"
     y="34.765236"
     style="stroke-width:0.237835">_</tspan></text><text
   xml:space="preserve"
   style="font-size:10.1407px;line-height:1.25;font-family:'Segoe Script';-inkscape-font-specification:'Segoe Script';fill:#16272a;fill-opacity:0.799714;stroke-width:0.253517"
   x="30.042728"
   y="36.801495"
   id="text17884-6"
   transform="scale(1.406181,0.71114602)"><tspan
     sodipodi:role="line"
     id="tspan17882-2"
     x="30.042728"
     y="36.801495"
     style="stroke-width:0.253517">_</tspan></text><text
   xml:space="preserve"
   style="font-size:8.61621px;line-height:1.25;font-family:'Segoe Script';-inkscape-font-specification:'Segoe Script';fill:#16272a;fill-opacity:0.799714;stroke-width:0.215404"
   x="-36.865444"
   y="35.470745"
   id="text17884-0"
   transform="matrix(-0.01867796,-1.3395931,0.74575225,-0.05329365,0,0)"><tspan
     sodipodi:role="line"
     id="tspan17882-4"
     x="-36.865444"
     y="35.470745"
     style="stroke-width:0.215404">_</tspan></text><text
   xml:space="preserve"
   style="font-size:9.4738px;line-height:1.25;font-family:'Segoe Script';-inkscape-font-specification:'Segoe Script';fill:#16272a;fill-opacity:0.799714;stroke-width:0.236843"
   x="-11.014032"
   y="35.642891"
   id="text17884-9"
   transform="matrix(5.3587055e-4,-1.2757162,0.7838728,0.00138527,0,0)"><tspan
     sodipodi:role="line"
     id="tspan17882-7"
     x="-11.014032"
     y="35.642891"
     style="stroke-width:0.236843">_</tspan></text><g
   aria-label="в"
   transform="scale(1.3918899,0.71844763)"
   id="text19318"
   style="font-size:12.2653px;line-height:1.25;font-family:'Segoe Script';-inkscape-font-specification:'Segoe Script';fill:#161616;stroke-width:0.306633"><path
     d="m 39.306872,33.678373 q 0,-0.07187 -0.02994,-0.143734 -0.02396,-0.07786 -0.07786,-0.137745 -0.04791,-0.06588 -0.131756,-0.1078 -0.07786,-0.04192 -0.185657,-0.04192 -0.209612,0 -0.437191,0.149723 -0.22159,0.149723 -0.449168,0.413235 -0.22159,0.257524 -0.431202,0.616859 -0.209612,0.353346 -0.38928,0.766581 -0.179667,0.413235 -0.323401,0.868393 -0.137745,0.449169 -0.22159,0.904326 0.0539,-0.03593 0.1617,-0.113789 0.107801,-0.08385 0.239557,-0.185657 0.137745,-0.1078 0.287468,-0.227578 0.155712,-0.125768 0.293457,-0.245546 0.143734,-0.119778 0.263512,-0.227579 0.119779,-0.1078 0.191646,-0.185656 0.664769,-0.71867 0.952237,-1.245695 0.287468,-0.527024 0.287468,-0.856415 z m -0.185656,6.456052 q -0.185657,0.27549 -0.449169,0.539002 -0.257523,0.257523 -0.568947,0.455158 -0.311424,0.197634 -0.66477,0.311423 -0.347357,0.11379 -0.706692,0.08385 -0.251534,-0.01797 -0.479113,-0.161701 -0.227579,-0.149722 -0.401257,-0.419224 -0.173679,-0.27549 -0.27549,-0.670758 -0.101812,-0.395269 -0.101812,-0.910315 0,-0.329391 0.03593,-0.712681 0.03593,-0.38928 0.09582,-0.784548 0.05989,-0.395269 0.131756,-0.772571 0.07786,-0.377301 0.149723,-0.694714 0.09582,-0.431202 0.251535,-0.850426 0.155711,-0.425213 0.347357,-0.814493 0.191645,-0.395268 0.413235,-0.742625 0.22159,-0.347357 0.455158,-0.628836 0.323401,-0.377302 0.736636,-0.604881 0.419224,-0.227579 0.982182,-0.227579 0.233568,0 0.425213,0.09582 0.191646,0.09582 0.329391,0.251535 0.137745,0.149722 0.209612,0.341368 0.07786,0.191645 0.07786,0.377301 0,0.257524 -0.107801,0.574936 -0.101811,0.311424 -0.299445,0.652792 -0.197635,0.341368 -0.479114,0.688726 -0.281479,0.347357 -0.640814,0.670758 0.08384,0.006 0.191646,0.02995 0.113789,0.01797 0.233567,0.07187 0.125768,0.0539 0.251535,0.143734 0.131756,0.08983 0.251534,0.227579 0.0539,0.06588 0.119779,0.179667 0.06588,0.1078 0.119778,0.269501 0.05989,0.155712 0.09582,0.359335 0.04192,0.203623 0.04192,0.449169 0,0.479113 -0.173679,1.036082 -0.167689,0.550981 -0.598891,1.185806 z m -0.16769,-2.203921 q 0,-0.329391 -0.09582,-0.550981 -0.09582,-0.227578 -0.227578,-0.359335 -0.131756,-0.137745 -0.269502,-0.191645 -0.137745,-0.05989 -0.221589,-0.05989 -0.07786,0 -0.245546,0.119778 -0.16769,0.119779 -0.359335,0.263513 -0.143734,0.125767 -0.287468,0.233567 -0.143734,0.107801 -0.269501,0.209612 -0.119778,0.101812 -0.22159,0.203623 -0.101812,0.101812 -0.16769,0.215601 -0.167689,0.305435 -0.197634,0.694715 -0.02994,0.389279 -0.02994,0.796525 0,0.269502 0.0539,0.485103 0.05989,0.209612 0.143734,0.359335 0.08983,0.149723 0.191645,0.233567 0.101812,0.07786 0.185656,0.07786 0.203624,0 0.461147,-0.08384 0.257523,-0.08384 0.527025,-0.32939 0.233567,-0.215601 0.419224,-0.485102 0.191645,-0.269501 0.323401,-0.568947 0.137745,-0.299446 0.209612,-0.622847 0.07786,-0.323402 0.07786,-0.640814 z"
     id="path971" /></g><g
   aria-label="ю"
   transform="scale(0.88795189,1.1261871)"
   id="text11307"
   style="font-size:10.2267px;line-height:1.25;font-family:'Segoe Script';-inkscape-font-specification:'Segoe Script';fill:#151515;stroke-width:0.255664"><path
     d="m 27.218564,47.15768 q 0,-0.01998 -0.02497,-0.03495 -0.01997,-0.01997 -0.04993,-0.04994 -0.02996,-0.02996 -0.05493,-0.0799 -0.01997,-0.04993 -0.01997,-0.139818 0,-0.0799 0.04494,-0.144812 0.04494,-0.06492 0.09488,-0.119844 0.05493,-0.05493 0.09987,-0.09987 0.04993,-0.04494 0.05992,-0.08489 0.08489,-0.479376 0.144812,-0.903824 0.05992,-0.424448 0.0749,-0.709078 0.005,-0.08489 0,-0.174773 0,-0.08988 -0.005,-0.179766 -0.005,-0.06492 -0.01,-0.124838 0,-0.05992 0,-0.11485 0,-0.05992 0.04494,-0.134825 0.04494,-0.0749 0.109857,-0.139818 0.06991,-0.06492 0.149806,-0.104864 0.08489,-0.04494 0.164785,-0.04494 0.06991,0 0.139818,0.03995 0.06991,0.03495 0.124838,0.104863 0.05493,0.06492 0.08988,0.164786 0.03496,0.09488 0.03496,0.214721 0,0.08988 -0.01498,0.219714 -0.01498,0.129831 -0.03995,0.28463 -0.02497,0.154798 -0.05992,0.324578 -0.02996,0.169779 -0.05992,0.339558 -0.03995,0.234695 -0.0799,0.449416 -0.03496,0.21472 -0.05493,0.369519 0.01997,0.04494 0.03496,0.0799 0.01997,0.02996 0.04993,0.04993 0.02996,0.01997 0.0749,0.02996 0.04993,0.01 0.129831,0.01 0.214721,0 0.454409,-0.04494 0.239688,-0.04494 0.454409,-0.114851 0.214721,-0.06991 0.3845,-0.144812 0.174772,-0.0799 0.259662,-0.149805 0.05493,-0.04494 0.119844,-0.119844 0.06991,-0.0749 0.139818,-0.159792 0.06991,-0.08988 0.134825,-0.174773 0.06991,-0.08988 0.119844,-0.154799 0.169779,-0.21472 0.3845,-0.419454 0.214721,-0.204734 0.474383,-0.359532 0.259662,-0.154799 0.559273,-0.249676 0.304604,-0.09488 0.659143,-0.09488 0.269649,0 0.529311,0.134824 0.259662,0.129831 0.459403,0.354539 0.204733,0.224708 0.324578,0.519325 0.124837,0.289623 0.124837,0.609208 0,0.319584 -0.06491,0.58424 -0.05992,0.259662 -0.194747,0.554279 -0.0749,0.154799 -0.259662,0.369519 -0.18476,0.214721 -0.444422,0.444422 -0.254669,0.229702 -0.559273,0.454409 -0.304604,0.224708 -0.619195,0.404474 -0.314591,0.179767 -0.619194,0.289624 -0.299611,0.109857 -0.544293,0.109857 -0.329571,0 -0.564266,-0.109857 -0.234695,-0.114851 -0.3845,-0.294617 -0.149805,-0.18476 -0.219714,-0.419455 -0.06991,-0.234694 -0.06991,-0.474383 0,-0.194746 0.05493,-0.469389 0.05992,-0.279637 0.19974,-0.564266 -0.189753,0.119844 -0.424448,0.189753 -0.229701,0.06991 -0.424448,0.124837 -0.08489,0.02497 -0.189753,0.04494 -0.104864,0.01498 -0.209728,0.02996 -0.09987,0.01498 -0.194746,0.02996 -0.08988,0.01498 -0.154799,0.02497 -0.09987,0.01997 -0.139818,0.0799 -0.03496,0.05493 -0.05493,0.144811 -0.01997,0.08489 -0.05992,0.224708 -0.03995,0.139818 -0.0799,0.289623 -0.04494,0.159793 -0.09488,0.329572 -0.04994,0.169779 -0.08988,0.324578 -0.03495,0.149805 -0.06492,0.279636 -0.02497,0.124838 -0.02497,0.194747 0,0.06491 -0.05493,0.139818 -0.04994,0.0749 -0.119844,0.139818 -0.06492,0.06991 -0.134825,0.114851 -0.06492,0.04494 -0.09987,0.04494 -0.0749,0 -0.144812,-0.04994 -0.06492,-0.04993 -0.114851,-0.11485 -0.04994,-0.06492 -0.0799,-0.129832 -0.02996,-0.06991 -0.02996,-0.104863 0,-0.04494 0.03496,-0.159792 0.03995,-0.114851 0.0799,-0.234695 0.02497,-0.0749 0.06492,-0.204734 0.03995,-0.129831 0.0799,-0.28463 0.04494,-0.159792 0.08489,-0.329571 0.04494,-0.169779 0.0799,-0.319584 0.03496,-0.149806 0.05493,-0.259663 0.01997,-0.11485 0.01997,-0.164785 z m 6.017174,-1.128533 q 0,-0.49935 -0.289623,-0.778987 -0.28463,-0.28463 -0.818935,-0.28463 -0.0749,0 -0.18476,0.05992 -0.109857,0.05992 -0.239688,0.154798 -0.124838,0.08988 -0.254669,0.19974 -0.124837,0.109858 -0.239688,0.214721 -0.109857,0.104864 -0.189753,0.189753 -0.0799,0.08489 -0.109857,0.119845 -0.104864,0.124837 -0.219715,0.344551 -0.109857,0.214721 -0.204733,0.464397 -0.09488,0.249675 -0.159793,0.504344 -0.05992,0.249675 -0.05992,0.439428 0,0.114851 0.02996,0.234695 0.03496,0.119844 0.09987,0.219714 0.06991,0.09488 0.174772,0.159792 0.104864,0.05992 0.244682,0.05992 0.154799,0 0.394487,-0.08988 0.239688,-0.08988 0.504344,-0.249675 0.269649,-0.159792 0.539299,-0.379506 0.274643,-0.219715 0.489363,-0.474384 0.219715,-0.254668 0.354539,-0.534305 0.139818,-0.284629 0.139818,-0.574253 z"
     id="path992" /></g><g
   aria-label="з"
   transform="scale(1.3766087,0.72642282)"
   id="text16794"
   style="font-size:11.7783px;line-height:1.25;font-family:'Segoe Script';-inkscape-font-specification:'Segoe Script';fill:#131313;stroke-width:0.294458"><path
     d="m 1.2279085,38.080157 q 0.057511,0 0.092018,0.04026 0.040258,0.04026 0.063262,0.09777 0.023005,0.06326 0.028756,0.138027 0.011502,0.07476 0.011502,0.143778 0,0.132276 0.046009,0.287557 0.05176,0.15528 0.1610315,0.287556 0.1150224,0.132276 0.2933073,0.218542 0.1782848,0.09202 0.4370853,0.09202 0.3508185,0 0.7246415,-0.184036 0.373823,-0.184035 0.6843837,-0.511849 0.3105606,-0.327815 0.5060988,-0.782153 0.2012893,-0.448588 0.2012893,-0.983442 0,-0.494597 -0.1035202,-0.839664 Q 4.2702527,35.73945 4.1034701,35.526659 3.9424387,35.308116 3.7296471,35.210347 3.5168556,35.112578 3.304064,35.112578 q -0.080516,0 -0.1782848,0.04026 -0.097769,0.03451 -0.2012893,0.09202 -0.097769,0.05176 -0.2012893,0.115022 -0.097769,0.06326 -0.1782848,0.115023 -0.138027,0.09202 -0.2645517,0.15528 -0.1207736,0.06326 -0.3220629,0.06326 -0.1552803,0 -0.2703028,-0.115022 -0.1092713,-0.120774 -0.1092713,-0.316312 0,-0.149529 0.1035202,-0.253049 0.1092713,-0.103521 0.3335651,-0.195539 0.4773432,-0.195538 0.8511663,-0.396827 0.3795741,-0.20704 0.6383746,-0.442837 0.2588006,-0.241547 0.3968275,-0.529103 0.138027,-0.287556 0.138027,-0.655628 0,-0.143778 -0.046009,-0.281805 -0.040258,-0.143778 -0.1265247,-0.253049 -0.086267,-0.115023 -0.2127916,-0.184036 -0.1207736,-0.07476 -0.281805,-0.07476 -0.3450674,0 -0.6556281,0.212792 -0.3105606,0.212791 -0.609619,0.523352 -0.1322758,0.138027 -0.2185427,0.201289 -0.086267,0.05751 -0.1840359,0.05751 -0.080516,0 -0.1437781,-0.04026 -0.057511,-0.04601 -0.097769,-0.103521 -0.034507,-0.06326 -0.057511,-0.132275 -0.017253,-0.07476 -0.017253,-0.126525 0,-0.138027 0.074765,-0.258801 0.080516,-0.126524 0.2127916,-0.235796 0.2875561,-0.241547 0.56361,-0.396827 0.2760539,-0.155281 0.4543388,-0.230045 0.2012893,-0.08052 0.4140808,-0.155281 0.2185427,-0.07476 0.4083298,-0.07476 0.2703028,0 0.5176011,0.09777 0.2472983,0.09202 0.4313342,0.276054 0.1897871,0.178285 0.2990584,0.442836 0.1150225,0.264552 0.1150225,0.598117 0,0.483095 -0.2357961,0.960438 -0.2300449,0.477343 -0.7879039,0.925931 0.3853253,0.01725 0.6728815,0.195538 0.2875561,0.178285 0.4773432,0.471592 0.1955382,0.293307 0.2875561,0.678632 0.097769,0.379575 0.097769,0.805158 0,0.425583 -0.1150224,0.845415 -0.1150225,0.419832 -0.3278141,0.805157 -0.2070404,0.385325 -0.5003477,0.713139 -0.2875561,0.327814 -0.6383746,0.569361 -0.3450674,0.241548 -0.7418949,0.379575 -0.3910764,0.138027 -0.8051573,0.138027 -0.3968275,0 -0.6901348,-0.132276 -0.2933072,-0.126525 -0.4888454,-0.322063 -0.1897871,-0.195538 -0.28755619,-0.419832 -0.0977691,-0.224294 -0.0977691,-0.414081 0,-0.143778 0.0517601,-0.310561 0.0575112,-0.166782 0.12652471,-0.264551 0.046009,-0.06326 0.13227587,-0.132276 0.086267,-0.06326 0.2185426,-0.06326 z"
     id="path1013" /></g><g
   aria-label="c"
   transform="scale(0.9976805,1.0023249)"
   id="text9344"
   style="font-size:12.8038px;line-height:1.25;font-family:'Segoe Script';-inkscape-font-specification:'Segoe Script';fill:#0e0e0e;stroke-width:0.320092"><path
     d="m 32.528298,5.2170197 q 0,0.2250668 -0.162548,0.4063706 -0.168801,0.1875557 -0.293838,0.3188447 -0.125037,0.1250371 -0.23757,0.2313186 -0.112534,0.1062815 -0.237571,0.2063112 -0.125037,0.093778 -0.293837,0.218815 -0.475141,0.343852 -0.906519,0.5814225 -0.431378,0.2313187 -0.837748,0.3813632 -0.406371,0.1437927 -0.80649,0.2063112 -0.393867,0.062519 -0.793985,0.062519 -0.418875,0 -0.750223,-0.1562964 Q 26.876621,7.5114506 26.645302,7.236369 26.420235,6.9612874 26.30145,6.5986798 26.182665,6.2298203 26.182665,5.8234497 v -0.031259 q 0,-0.4126224 0.106281,-0.8752597 Q 26.395228,4.4480415 26.582783,3.9791524 26.776591,3.5102633 27.045421,3.0601297 27.31425,2.6037442 27.639347,2.2098774 27.770636,2.053581 27.95194,1.878529 28.139495,1.6972252 28.345807,1.5471807 28.55837,1.3971362 28.783436,1.3033583 29.014755,1.2033287 29.23357,1.2033287 q 0.150045,0 0.287585,0.093778 0.137541,0.087526 0.256326,0.2313186 0.118786,0.1437927 0.218815,0.3250965 0.10003,0.175052 0.168801,0.3626076 0.06877,0.1813038 0.106281,0.3501039 0.03751,0.1688001 0.03751,0.2875854 0,0.1813038 -0.112533,0.4688891 -0.112534,0.2875853 -0.26883,0.2875853 -0.225067,0 -0.375111,-0.3063409 -0.05627,-0.1187852 -0.10003,-0.2750816 -0.03751,-0.1562964 -0.09378,-0.3063409 -0.05001,-0.1500445 -0.137541,-0.2750816 -0.08753,-0.131289 -0.243822,-0.1938076 -0.156296,0.037511 -0.318845,0.1625483 -0.156296,0.1250371 -0.312592,0.3063409 -0.150045,0.1813038 -0.300089,0.4126224 -0.143793,0.2250668 -0.275082,0.4688892 -0.125037,0.2250668 -0.243822,0.518904 -0.118786,0.2875853 -0.212564,0.6001781 -0.09378,0.3063409 -0.150044,0.6126818 -0.05627,0.3063409 -0.05627,0.562667 0,0.1813038 0.08753,0.3688594 0.08753,0.1813038 0.225067,0.3313484 0.143793,0.1500445 0.318845,0.2438223 0.181303,0.093778 0.368859,0.093778 0.925275,0 1.838046,-0.3813632 0.91277,-0.3813632 1.738015,-1.1065784 0.456386,-0.4001187 0.756475,-0.4001187 0.08753,0 0.08753,0.1688 z"
     id="path950" /></g></svg>
