<?xml version="1.0" encoding="UTF-8" standalone="no"?>
<!-- Generator: Adobe Illustrator 22.0.1, SVG Export Plug-In . SVG Version: 6.00 Build 0)  -->

<svg
   version="1.1"
   id="Layer_1"
   x="0px"
   y="0px"
   viewBox="0 0 56 56"
   xml:space="preserve"
   sodipodi:docname="southwestWind.svg"
   width="56"
   height="56"
   inkscape:version="1.1.1 (3bf5ae0d25, 2021-09-20)"
   xmlns:inkscape="http://www.inkscape.org/namespaces/inkscape"
   xmlns:sodipodi="http://sodipodi.sourceforge.net/DTD/sodipodi-0.dtd"
   xmlns="http://www.w3.org/2000/svg"
   xmlns:svg="http://www.w3.org/2000/svg"><defs
   id="defs7" /><sodipodi:namedview
   id="namedview5"
   pagecolor="#ffffff"
   bordercolor="#666666"
   borderopacity="1.0"
   inkscape:pageshadow="2"
   inkscape:pageopacity="0.0"
   inkscape:pagecheckerboard="0"
   showgrid="false"
   inkscape:zoom="7.1833332"
   inkscape:cx="24.083527"
   inkscape:cy="36.821346"
   inkscape:window-width="2400"
   inkscape:window-height="1321"
   inkscape:window-x="2391"
   inkscape:window-y="-9"
   inkscape:window-maximized="1"
   inkscape:current-layer="Layer_1"
   width="140px" />
<path
   d="m 42.476127,42.29786 c -2.659858,2.46422 -5.7543,4.111418 -9.257938,4.941982 -3.503646,0.83056 -6.982725,0.777437 -10.437251,-0.159377 -3.454521,-0.93681 -6.429419,-2.676688 -8.937749,-5.207547 C 11.965038,39.977894 10.552176,37.795279 9.6039164,35.349637 8.6556727,32.903993 8.2413874,30.44194 8.2972512,27.974796 8.3531262,25.507644 8.9292488,23.06072 10.025601,20.63402 c 1.096371,-2.426707 2.616255,-4.552251 4.624184,-6.412505 1.981846,-1.836088 4.256153,-3.225676 6.797528,-4.169158 2.541363,-0.9434824 5.106838,-1.3831794 7.646315,-1.3444025 2.53947,0.038767 5.065303,0.5684985 7.552098,1.5887545 2.486797,1.020265 4.669604,2.465638 6.560113,4.373133 1.890519,1.907492 3.315733,4.102574 4.263985,6.548221 0.948246,2.445647 1.374888,4.920157 1.319031,7.387307 -0.05587,2.46715 -0.644334,4.901609 -1.702274,7.316616 -1.057934,2.415017 -2.615571,4.527709 -4.610454,6.375874 z m -3.064364,-3.09189 c 3.090121,-2.862845 4.713407,-6.423415 4.857504,-10.694171 0.118018,-4.246594 -1.30607,-7.853698 -4.283929,-10.858313 -1.95229,-1.969836 -4.277165,-3.331423 -6.962945,-4.047761 -2.685784,-0.716337 -5.402331,-0.782373 -8.138676,-0.136553 -2.736341,0.645812 -5.134211,1.91073 -7.194299,3.819295 -2.06007,1.908566 -3.482471,4.18295 -4.266529,6.7986 -0.78405,2.61565 -0.857045,5.242162 -0.218987,7.87953 0.638063,2.637369 1.933572,4.928692 3.885871,6.898523 1.952291,1.969832 4.277168,3.331418 6.96295,4.047761 2.685774,0.716334 5.415374,0.770293 8.164069,0.136936 2.748696,-0.633354 5.134889,-1.935282 7.194971,-3.843847 z M 40.997058,26.04295 19.270004,37.203966 c -0.142735,0.108328 -0.269714,0.106381 -0.380918,-0.0059 -0.111185,-0.112224 -0.107795,-0.234942 0.01022,-0.368196 L 31.371511,16.33093 c 0.09399,-0.182756 0.210663,-0.266921 0.350672,-0.27706 0.140012,-0.01012 0.238861,0.0896 0.296549,0.299219 l 2.59262,5.896489 c 0.07141,0.172997 0.19497,0.297668 0.358336,0.361552 l 6.019706,2.793207 c 0.201785,0.05219 0.288277,0.139472 0.259477,0.261818 -0.02883,0.122343 -0.09673,0.280929 -0.25182,0.376794 z"
   id="path2"
   style="fill:#2c4f54;fill-opacity:0.5;stroke:#2e3332;stroke-width:0.108866;stroke-miterlimit:4;stroke-dasharray:none;stroke-opacity:0.9" />
<path
   style="fill:#1f4347;fill-opacity:0.81;stroke:#e4e7e7;stroke-width:0.108866;stroke-miterlimit:4;stroke-dasharray:none;stroke-opacity:0.9"
   d="m 40.517338,19.352553 c 0.46308,0.58514 0.930025,1.266454 1.29381,1.887769 2.045536,3.493673 2.365283,8.200293 0.825855,12.156423 -0.82865,2.129512 -1.901316,3.660268 -3.718376,5.30633 -1.864995,1.689603 -3.587314,2.663273 -5.908099,3.340337 -1.564225,0.456336 -2.975446,0.646553 -4.678744,0.630617 -3.380299,-0.03162 -6.351756,-0.969931 -9.048881,-2.857375 -0.561684,-0.393063 -0.76971,-0.579238 -1.801688,-1.612406 -1.252606,-1.254094 -1.56805,-1.642395 -2.245386,-2.764064 -1.02295,-1.694088 -1.751725,-3.937844 -1.947429,-5.995797 -0.07983,-0.839433 -0.01275,-2.590088 0.131975,-3.443769 0.350222,-2.066061 1.108596,-4.008469 2.189201,-5.607108 0.796848,-1.178879 1.126308,-1.551224 2.372899,-2.681836 0.87941,-0.797542 1.268621,-1.118259 1.707884,-1.407028 2.66764,-1.75381 5.846634,-2.656989 9.084173,-2.580877 3.315747,0.07796 6.487636,1.146121 9.050452,3.047824 0.590784,0.438383 2.272737,2.050738 2.692368,2.580955 z m -2.898186,4.860979 c -1.631701,-0.758655 -3.021156,-1.412501 -3.087671,-1.452986 -0.08211,-0.04995 -0.554082,-1.046082 -1.469714,-3.101832 -0.776421,-1.74318 -1.390645,-3.050179 -1.447441,-3.079976 -0.117726,-0.06173 -0.330225,0.04188 -0.46127,0.224926 -0.05203,0.07268 -2.809491,4.52474 -6.127714,9.893485 -5.814672,9.407891 -6.030683,9.766685 -5.96545,9.908563 0.05044,0.109638 0.09894,0.147696 0.190314,0.149004 0.151135,0.0023 21.12045,-10.449711 21.310142,-10.621795 0.171391,-0.155474 0.234437,-0.425367 0.114704,-0.491066 -0.0491,-0.02686 -1.424208,-0.669661 -3.05591,-1.428316 z"
   id="path861" /><rect
   style="fill:#c7485e;fill-opacity:1;stroke:#3c4343;stroke-width:0.467643;stroke-opacity:0.9"
   id="rect2803"
   width="5.1265078"
   height="0.060271569"
   x="-42.62254"
   y="-3.4135625"
   transform="matrix(-0.70864146,-0.70556876,0.73502348,-0.67804165,0,0)"
   inkscape:transform-center-x="-4.1644082"
   inkscape:transform-center-y="-0.090603767" /><path
   style="fill:#cd425c;fill-opacity:1;stroke:#e27364;stroke-width:0.0385685;stroke-opacity:0.9"
   d="m 27.140142,32.729251 c -0.08493,0.04422 -1.902562,1.018825 -4.039185,2.165864 -2.136619,1.147038 -3.943854,2.102804 -4.01607,2.123911 -0.113638,0.0332 4.42663,-7.651517 4.641219,-7.855609 0.05859,-0.05578 0.544968,0.398783 1.824178,1.704744 1.631098,1.665212 1.734223,1.785991 1.589871,1.861071 z"
   id="path3397"
   inkscape:transform-center-x="-1.4604062"
   inkscape:transform-center-y="2.1018774" /><text
   xml:space="preserve"
   style="font-size:9.51351px;line-height:1.25;font-family:'Segoe Script';-inkscape-font-specification:'Segoe Script';fill:#16272a;fill-opacity:0.799714;stroke-width:0.237835"
   x="6.5322995"
   y="34.765236"
   id="text17884"
   transform="scale(1.3191999,0.75803523)"><tspan
     sodipodi:role="line"
     id="tspan17882"
     x="6.5322995"
     y="34.765236"
     style="stroke-width:0.237835">_</tspan></text><text
   xml:space="preserve"
   style="font-size:10.1407px;line-height:1.25;font-family:'Segoe Script';-inkscape-font-specification:'Segoe Script';fill:#16272a;fill-opacity:0.799714;stroke-width:0.253517"
   x="30.042728"
   y="36.801495"
   id="text17884-6"
   transform="scale(1.406181,0.71114602)"><tspan
     sodipodi:role="line"
     id="tspan17882-2"
     x="30.042728"
     y="36.801495"
     style="stroke-width:0.253517">_</tspan></text><text
   xml:space="preserve"
   style="font-size:8.61621px;line-height:1.25;font-family:'Segoe Script';-inkscape-font-specification:'Segoe Script';fill:#16272a;fill-opacity:0.799714;stroke-width:0.215404"
   x="-36.865444"
   y="35.470745"
   id="text17884-0"
   transform="matrix(-0.01867796,-1.3395931,0.74575225,-0.05329365,0,0)"><tspan
     sodipodi:role="line"
     id="tspan17882-4"
     x="-36.865444"
     y="35.470745"
     style="stroke-width:0.215404">_</tspan></text><text
   xml:space="preserve"
   style="font-size:9.4738px;line-height:1.25;font-family:'Segoe Script';-inkscape-font-specification:'Segoe Script';fill:#16272a;fill-opacity:0.799714;stroke-width:0.236843"
   x="-11.014032"
   y="35.642891"
   id="text17884-9"
   transform="matrix(5.3587055e-4,-1.2757162,0.7838728,0.00138527,0,0)"><tspan
     sodipodi:role="line"
     id="tspan17882-7"
     x="-11.014032"
     y="35.642891"
     style="stroke-width:0.236843">_</tspan></text><text
   xml:space="preserve"
   style="font-size:12.2653px;line-height:1.25;font-family:'Segoe Script';-inkscape-font-specification:'Segoe Script';fill:#161616;fill-opacity:1;stroke-width:0.306633"
   x="34.659473"
   y="41.37413"
   id="text19318"
   transform="scale(1.3918899,0.71844763)"><tspan
     sodipodi:role="line"
     id="tspan19316"
     x="34.659473"
     y="41.37413"
     style="fill:#161616;fill-opacity:1;stroke-width:0.306633">в</tspan></text><text
   xml:space="preserve"
   style="font-size:10.2267px;line-height:1.25;font-family:'Segoe Script';-inkscape-font-specification:'Segoe Script';fill:#151515;fill-opacity:1;stroke-width:0.255664"
   x="25.880304"
   y="49.219997"
   id="text11307"
   transform="scale(0.88795189,1.1261871)"><tspan
     sodipodi:role="line"
     id="tspan11305"
     x="25.880304"
     y="49.219997"
     style="fill:#151515;fill-opacity:1;stroke-width:0.255664">ю</tspan></text><text
   xml:space="preserve"
   style="font-size:11.7783px;line-height:1.25;font-family:'Segoe Script';-inkscape-font-specification:'Segoe Script';fill:#131313;fill-opacity:1;stroke-width:0.294458"
   x="0.38249344"
   y="37.620068"
   id="text16794"
   transform="scale(1.3766087,0.72642282)"><tspan
     sodipodi:role="line"
     id="tspan16792"
     x="0.38249344"
     y="37.620068"
     style="fill:#131313;fill-opacity:1;stroke-width:0.294458">з</tspan></text><text
   xml:space="preserve"
   style="font-size:12.8038px;line-height:1.25;font-family:'Segoe Script';-inkscape-font-specification:'Segoe Script';fill:#0e0e0e;fill-opacity:1;stroke-width:0.320092"
   x="25.382427"
   y="7.8052878"
   id="text9344"
   transform="scale(0.9976805,1.0023249)"><tspan
     sodipodi:role="line"
     id="tspan9342"
     x="25.382427"
     y="7.8052878"
     style="fill:#0e0e0e;fill-opacity:1;stroke-width:0.320092">c</tspan></text></svg>
