<?xml version="1.0" encoding="UTF-8" standalone="no"?>
<!-- Generator: Adobe Illustrator 22.0.1, SVG Export Plug-In . SVG Version: 6.00 Build 0)  -->

<svg
   version="1.1"
   id="Layer_1"
   x="0px"
   y="0px"
   viewBox="0 0 56 56"
   xml:space="preserve"
   sodipodi:docname="southEastWind.svg"
   width="56"
   height="56"
   inkscape:version="1.1.1 (3bf5ae0d25, 2021-09-20)"
   xmlns:inkscape="http://www.inkscape.org/namespaces/inkscape"
   xmlns:sodipodi="http://sodipodi.sourceforge.net/DTD/sodipodi-0.dtd"
   xmlns="http://www.w3.org/2000/svg"
   xmlns:svg="http://www.w3.org/2000/svg"><defs
   id="defs7" /><sodipodi:namedview
   id="namedview5"
   pagecolor="#ffffff"
   bordercolor="#666666"
   borderopacity="1.0"
   inkscape:pageshadow="2"
   inkscape:pageopacity="0.0"
   inkscape:pagecheckerboard="0"
   showgrid="false"
   inkscape:zoom="20.317534"
   inkscape:cx="32.484257"
   inkscape:cy="33.3948"
   inkscape:window-width="2400"
   inkscape:window-height="1321"
   inkscape:window-x="2391"
   inkscape:window-y="-9"
   inkscape:window-maximized="1"
   inkscape:current-layer="Layer_1"
   width="140px" />
<path
   d="m 39.994293,12.604301 c 2.735785,2.262861 4.717241,5.043469 5.941811,8.317326 1.224564,3.273861 1.575876,6.631312 1.05393,10.072364 -0.521945,3.441051 -1.890537,6.5176 -4.092357,9.240756 -1.648647,2.039006 -3.634544,3.664758 -5.933422,4.874931 -2.298881,1.21016 -4.675873,1.908009 -7.112426,2.153634 -2.436563,0.24561 -4.913557,-0.01232 -7.430989,-0.773785 -2.517439,-0.761486 -4.78738,-1.967444 -6.852636,-3.67568 -2.03843,-1.686045 -3.670995,-3.707978 -4.895148,-6.041286 C 9.4489075,34.439263 8.7181758,32.021595 8.4617443,29.570896 8.2053064,27.120205 8.434032,24.623065 9.1504435,22.103988 c 0.716421,-2.519077 1.8868295,-4.796951 3.5463275,-6.849375 1.659494,-2.052433 3.656239,-3.691592 5.955124,-4.901761 2.298884,-1.2101616 4.686711,-1.9214223 7.123269,-2.1670557 2.436558,-0.2456249 4.902707,0.025716 7.404167,0.751605 2.501467,0.725877 4.763126,1.9697607 6.814962,3.6668997 z m -2.689906,3.32681 c -3.178338,-2.628905 -6.873734,-3.760292 -11.097034,-3.38075 -4.196474,0.401726 -7.584154,2.211176 -10.198136,5.44408 -1.713734,2.119494 -2.785132,4.524037 -3.179109,7.197886 -0.393972,2.673853 -0.143847,5.298411 0.809735,7.85564 0.953575,2.557226 2.477681,4.713302 4.596575,6.465914 2.118891,1.752595 4.524124,2.846593 7.191434,3.284331 2.667311,0.43773 5.262823,0.189263 7.786534,-0.745398 2.523711,-0.934666 4.630299,-2.46058 6.344029,-4.580083 1.713732,-2.119496 2.78513,-4.52404 3.179108,-7.197891 0.39397,-2.673846 0.130434,-5.309508 -0.812303,-7.880148 -0.942737,-2.570639 -2.501942,-4.710976 -4.620833,-6.463581 z m -13.149148,0.07064 13.514036,19.572622 c 0.123262,0.124336 0.136079,0.246874 0.03844,0.367606 -0.09765,0.120704 -0.218906,0.13234 -0.363848,0.03485 l -21.63797,-9.525147 c -0.190915,-0.06835 -0.287351,-0.170512 -0.313581,-0.304136 -0.02621,-0.13363 0.06054,-0.240941 0.260316,-0.321949 l 5.507095,-3.212823 c 0.162111,-0.08978 0.270575,-0.223921 0.314544,-0.389025 l 2.052839,-6.137111 c 0.02801,-0.200692 0.103931,-0.29459 0.227781,-0.281698 0.123848,0.0129 0.28793,0.05907 0.40035,0.196819 z"
   id="path2"
   style="fill:#2c4f54;fill-opacity:0.5;stroke:#2e3332;stroke-width:0.106822;stroke-miterlimit:4;stroke-dasharray:none;stroke-opacity:0.9" />
<path
   style="fill:#2d6166;fill-opacity:0.81;stroke:#e4e7e7;stroke-width:0.106822;stroke-miterlimit:4;stroke-dasharray:none;stroke-opacity:0.9"
   d="m 17.650701,17.228949 c 0.519176,-0.520588 1.132529,-1.05721 1.699462,-1.486871 3.187894,-2.415952 7.78075,-3.326367 11.862599,-2.351455 2.197183,0.524785 3.834974,1.361075 5.677362,2.898987 1.891109,1.578471 3.060167,3.111312 4.010583,5.258083 0.640575,1.446939 1.00052,2.78071 1.193338,4.421966 0.382657,3.25717 -0.177041,6.236988 -1.704414,9.074334 -0.318076,0.590887 -0.475832,0.814925 -1.366297,1.94038 -1.080891,1.366061 -1.424413,1.719369 -2.445388,2.514855 -1.542009,1.201396 -3.660986,2.190074 -5.662357,2.641942 -0.816349,0.184321 -2.547462,0.343937 -3.405322,0.313979 -2.076174,-0.07248 -4.080619,-0.553591 -5.786186,-1.38883 -1.257732,-0.61591 -1.664503,-0.885294 -2.929781,-1.940206 -0.892546,-0.744195 -1.255823,-1.077692 -1.593781,-1.463455 -2.05255,-2.342694 -3.330546,-5.286431 -3.651941,-8.411912 -0.32915,-3.200984 0.333805,-6.390321 1.891646,-9.100237 0.359118,-0.624693 1.740024,-2.449833 2.21047,-2.921575 z m 5.138673,2.166682 c -0.546895,1.667463 -1.020289,3.088369 -1.051993,3.157566 -0.0391,0.08542 -0.961672,0.667189 -2.872747,1.811619 -1.620503,0.970431 -2.831596,1.728912 -2.853965,1.787387 -0.04635,0.121202 0.08163,0.312437 0.277821,0.415114 0.0779,0.04075 4.79691,2.124382 10.486713,4.630278 9.970505,4.391198 10.350048,4.553138 10.481697,4.472194 0.101722,-0.06258 0.133241,-0.114132 0.123333,-0.202244 -0.01629,-0.145737 -12.869362,-18.987726 -13.061937,-19.148244 -0.173993,-0.145034 -0.447323,-0.171147 -0.497323,-0.04751 -0.02044,0.05069 -0.484708,1.456379 -1.0316,3.123839 z"
   id="path861" /><rect
   style="fill:#c7485e;fill-opacity:1;stroke:#3c4343;stroke-width:0.446864;stroke-opacity:0.9"
   id="rect2803"
   width="4.9081817"
   height="0.057481349"
   x="2.50226"
   y="-42.680176"
   transform="matrix(-0.60036465,0.79972639,-0.78933413,-0.61396387,0,0)"
   inkscape:transform-center-x="0.67610916"
   inkscape:transform-center-y="-3.8725552" /><path
   style="fill:#cd425e;fill-opacity:1;stroke:#e27364;stroke-width:0.0359423;stroke-opacity:0.9"
   d="m 32.544354,28.649424 c 0.05095,0.07393 1.167323,1.652691 2.480872,3.508344 1.31355,1.855649 2.411431,3.427036 2.439731,3.49196 0.04452,0.102175 -7.5293,-3.184909 -7.742242,-3.360163 -0.05819,-0.04786 0.295082,-0.559751 1.324868,-1.919913 1.313063,-1.734321 1.410208,-1.84591 1.496752,-1.720238 z"
   id="path3397"
   inkscape:transform-center-x="-1.9485358"
   inkscape:transform-center-y="-1.8487677" /><text
   xml:space="preserve"
   style="font-size:9.4482px;line-height:1.25;font-family:'Segoe Script';-inkscape-font-specification:'Segoe Script';fill:#16272a;fill-opacity:0.799714;stroke-width:0.236202"
   x="6.5540342"
   y="33.685158"
   id="text17884"
   transform="scale(1.3054649,0.76601063)"><tspan
     sodipodi:role="line"
     id="tspan17882"
     x="6.5540342"
     y="33.685158"
     style="stroke-width:0.236202">_</tspan></text><text
   xml:space="preserve"
   style="font-size:9.62391px;line-height:1.25;font-family:'Segoe Script';-inkscape-font-specification:'Segoe Script';fill:#16272a;fill-opacity:0.799714;stroke-width:0.240592"
   x="31.182035"
   y="34.068436"
   id="text17884-6"
   transform="scale(1.3297335,0.75203038)"><tspan
     sodipodi:role="line"
     id="tspan17882-2"
     x="31.182035"
     y="34.068436"
     style="stroke-width:0.240592">_</tspan></text><text
   xml:space="preserve"
   style="font-size:8.45435px;line-height:1.25;font-family:'Segoe Script';-inkscape-font-specification:'Segoe Script';fill:#16272a;fill-opacity:0.799714;stroke-width:0.211359"
   x="-35.725998"
   y="35.392452"
   id="text17884-0"
   transform="matrix(-0.01826166,-1.3701317,0.72913035,-0.0545086,0,0)"><tspan
     sodipodi:role="line"
     id="tspan17882-4"
     x="-35.725998"
     y="35.392452"
     style="stroke-width:0.211359">_</tspan></text><text
   xml:space="preserve"
   style="font-size:9.54105px;line-height:1.25;font-family:'Segoe Script';-inkscape-font-specification:'Segoe Script';fill:#16272a;fill-opacity:0.799714;stroke-width:0.238523"
   x="-10.325155"
   y="36.458134"
   id="text17884-9"
   transform="matrix(5.1046834e-4,-1.3391991,0.7467144,0.00145422,0,0)"><tspan
     sodipodi:role="line"
     id="tspan17882-7"
     x="-10.325155"
     y="36.458134"
     style="stroke-width:0.238523">_</tspan></text><g
   aria-label="c"
   transform="scale(1.0008713,0.99912942)"
   id="text9344"
   style="font-size:12.4978px;line-height:1.25;font-family:'Segoe Script';-inkscape-font-specification:'Segoe Script';fill:#0e0e0e;stroke-width:0.31244"><path
     d="m 31.950638,4.7564229 q 0,0.2196878 -0.158663,0.3966586 -0.164766,0.1830733 -0.286815,0.3112246 -0.122049,0.1220488 -0.231893,0.2257903 -0.109844,0.1037415 -0.231893,0.2013805 -0.122048,0.091537 -0.286814,0.2135855 -0.463786,0.3356343 -0.884854,0.567527 -0.421069,0.2257904 -0.817727,0.372249 -0.396659,0.1403561 -0.787215,0.2013805 -0.384454,0.061024 -0.77501,0.061024 -0.408864,0 -0.732293,-0.152561 Q 26.434031,6.9960188 26.208241,6.7275114 25.988553,6.459004 25.872607,6.1050624 25.75666,5.7450184 25.75666,5.3483597 v -0.030512 q 0,-0.4027612 0.103742,-0.8543418 0.103741,-0.4576831 0.286815,-0.9153662 0.189175,-0.4576831 0.45158,-0.8970589 0.262405,-0.4454782 0.579732,-0.829932 0.128151,-0.1525611 0.305122,-0.3234294 0.183073,-0.1769708 0.384454,-0.3234294 0.207483,-0.1464586 0.427171,-0.23799522 0.22579,-0.0976391 0.439376,-0.0976391 0.146458,0 0.280712,0.0915366 0.134254,0.0854342 0.2502,0.22579036 0.115946,0.1403561 0.213586,0.3173269 0.09764,0.1708684 0.164765,0.3539416 0.06713,0.1769708 0.103742,0.3417367 0.03662,0.1647659 0.03662,0.2807123 0,0.1769708 -0.109844,0.4576831 -0.109844,0.2807123 -0.262405,0.2807123 -0.219688,0 -0.366147,-0.2990196 Q 28.990954,2.7731294 28.948237,2.6205684 28.911622,2.4680074 28.8567,2.3215488 28.807881,2.1750902 28.722447,2.0530413 28.637013,1.9248901 28.484452,1.8638657 28.331891,1.9004803 28.173227,2.0225291 28.020666,2.144578 27.868105,2.3215488 27.721646,2.4985196 27.575188,2.7243099 27.434832,2.9439978 27.30668,3.181993 27.184632,3.4016809 27.068685,3.6884956 26.952739,3.9692079 26.861202,4.27433 q -0.09154,0.2990196 -0.146458,0.5980392 -0.05492,0.2990197 -0.05492,0.5492198 0,0.1769708 0.08543,0.360044 0.08543,0.1769708 0.219688,0.3234294 0.140356,0.1464586 0.311224,0.2379952 0.176971,0.091537 0.360044,0.091537 0.903162,0 1.794118,-0.3722489 0.890956,-0.3722489 1.696479,-1.0801321 0.445478,-0.3905563 0.738395,-0.3905563 0.08543,0 0.08543,0.164766 z"
     id="path5532" /></g><g
   aria-label="в"
   transform="scale(1.3963416,0.71615716)"
   id="text19318"
   style="font-size:11.972px;line-height:1.25;font-family:'Segoe Script';-inkscape-font-specification:'Segoe Script';fill:#161616;stroke-width:0.299303"
   inkscape:transform-center-x="-0.61506542"
   inkscape:transform-center-y="10.904641"><path
     d="m 38.346141,33.299734 q 0,-0.07015 -0.02923,-0.140297 -0.02338,-0.07599 -0.07599,-0.134451 -0.04677,-0.0643 -0.128606,-0.105223 -0.07599,-0.04092 -0.181217,-0.04092 -0.204599,0 -0.426736,0.146143 -0.216291,0.146142 -0.438428,0.403353 -0.216291,0.251366 -0.42089,0.602108 -0.2046,0.344896 -0.379971,0.74825 -0.175371,0.403353 -0.315668,0.847627 -0.134451,0.438427 -0.216291,0.882701 0.05261,-0.03507 0.157834,-0.111069 0.105222,-0.08184 0.233828,-0.181216 0.134451,-0.105223 0.280594,-0.222137 0.151988,-0.12276 0.286439,-0.239674 0.140297,-0.116914 0.257211,-0.222137 0.116914,-0.105222 0.187063,-0.181216 0.648873,-0.701485 0.929466,-1.215907 0.280594,-0.514422 0.280594,-0.835935 z m -0.181217,6.301668 q -0.181216,0.268902 -0.438427,0.526113 -0.251366,0.251365 -0.555342,0.444274 -0.303977,0.192908 -0.648873,0.303976 -0.339051,0.111068 -0.689793,0.08184 -0.24552,-0.01754 -0.467656,-0.157834 -0.222137,-0.146143 -0.391663,-0.409199 -0.169525,-0.268903 -0.268902,-0.654719 -0.09938,-0.385816 -0.09938,-0.888547 0,-0.321514 0.03507,-0.695639 0.03508,-0.37997 0.09353,-0.765787 0.05846,-0.385816 0.128605,-0.754095 0.07599,-0.36828 0.146143,-0.678102 0.09353,-0.420891 0.245519,-0.83009 0.151988,-0.415045 0.339051,-0.795015 0.187062,-0.385817 0.403353,-0.724868 0.216291,-0.33905 0.444274,-0.613798 0.315668,-0.36828 0.719021,-0.590416 0.4092,-0.222137 0.958696,-0.222137 0.227982,0 0.415045,0.09353 0.187062,0.09353 0.321513,0.24552 0.134452,0.146142 0.2046,0.333205 0.07599,0.187062 0.07599,0.368279 0,0.251365 -0.105223,0.561187 -0.09938,0.303977 -0.292285,0.637182 -0.192908,0.333205 -0.467656,0.672256 -0.274748,0.339051 -0.62549,0.654719 0.08184,0.0058 0.187062,0.02923 0.111069,0.01754 0.227983,0.07015 0.122759,0.05261 0.245519,0.140297 0.128606,0.08769 0.24552,0.222136 0.05261,0.0643 0.116914,0.175371 0.0643,0.105223 0.116914,0.263057 0.05846,0.151988 0.09353,0.350742 0.04092,0.198754 0.04092,0.438428 0,0.467656 -0.169525,1.011307 -0.16368,0.537804 -0.584571,1.157449 z m -0.163679,-2.151219 q 0,-0.321514 -0.09353,-0.537805 -0.09353,-0.222136 -0.222136,-0.350742 -0.128606,-0.134451 -0.263057,-0.187062 -0.134451,-0.05846 -0.216291,-0.05846 -0.07599,0 -0.239674,0.116914 -0.163679,0.116914 -0.350742,0.257211 -0.140297,0.122759 -0.280594,0.227982 -0.140297,0.105223 -0.263056,0.2046 -0.116914,0.09938 -0.216291,0.198754 -0.09938,0.09938 -0.16368,0.210445 -0.16368,0.298131 -0.192908,0.678101 -0.02923,0.379971 -0.02923,0.777479 0,0.263057 0.05261,0.473502 0.05846,0.2046 0.140296,0.350742 0.08769,0.146143 0.187063,0.227983 0.09938,0.07599 0.181217,0.07599 0.198754,0 0.450119,-0.08184 0.251365,-0.08184 0.514422,-0.321514 0.227982,-0.210445 0.409199,-0.473502 0.187062,-0.263056 0.315668,-0.555342 0.134451,-0.292285 0.2046,-0.607953 0.07599,-0.315668 0.07599,-0.62549 z"
     id="path5574" /></g><g
   aria-label="ю"
   transform="scale(0.89079182,1.1225967)"
   id="text11307"
   style="font-size:9.98225px;line-height:1.25;font-family:'Segoe Script';-inkscape-font-specification:'Segoe Script';fill:#151515;stroke-width:0.249553"
   inkscape:transform-center-x="3.536752"
   inkscape:transform-center-y="-0.31156951"><path
     d="m 27.111718,46.312467 q 0,-0.0195 -0.02437,-0.03412 -0.0195,-0.0195 -0.04874,-0.04874 -0.02924,-0.02924 -0.05362,-0.07799 -0.0195,-0.04874 -0.0195,-0.136476 0,-0.07799 0.04387,-0.14135 0.04387,-0.06336 0.09261,-0.11698 0.05362,-0.05362 0.09748,-0.09748 0.04874,-0.04387 0.05849,-0.08286 0.08286,-0.467918 0.14135,-0.88222 0.05849,-0.414303 0.07311,-0.692129 0.0049,-0.08286 0,-0.170595 0,-0.08774 -0.0049,-0.175469 -0.0049,-0.06336 -0.0097,-0.121854 0,-0.05849 0,-0.112105 0,-0.05849 0.04387,-0.131602 0.04387,-0.07311 0.107232,-0.136476 0.06824,-0.06336 0.146224,-0.102358 0.08286,-0.04387 0.160847,-0.04387 0.06824,0 0.136476,0.03899 0.06824,0.03412 0.121853,0.102357 0.05362,0.06336 0.08773,0.160847 0.03412,0.09261 0.03412,0.209588 0,0.08773 -0.01462,0.214463 -0.01462,0.126728 -0.03899,0.277826 -0.02437,0.151099 -0.05849,0.31682 -0.02924,0.165721 -0.05849,0.331442 -0.03899,0.229084 -0.07799,0.438673 -0.03412,0.209588 -0.05362,0.360686 0.0195,0.04387 0.03412,0.07799 0.0195,0.02925 0.04874,0.04874 0.02924,0.0195 0.07311,0.02925 0.04874,0.0097 0.126727,0.0097 0.209589,0 0.443548,-0.04387 0.233959,-0.04387 0.443547,-0.112105 0.209588,-0.06824 0.375309,-0.141351 0.170595,-0.07799 0.253456,-0.146224 0.05362,-0.04387 0.116979,-0.116979 0.06824,-0.07311 0.136476,-0.155973 0.06824,-0.08774 0.131602,-0.170595 0.06824,-0.08774 0.11698,-0.151099 0.165721,-0.209588 0.375309,-0.409428 0.209588,-0.19984 0.463044,-0.350938 0.253455,-0.151099 0.545904,-0.243708 0.297323,-0.09261 0.643387,-0.09261 0.263204,0 0.51666,0.131602 0.253455,0.126727 0.448421,0.346064 0.19984,0.219336 0.31682,0.506911 0.121853,0.2827 0.121853,0.594646 0,0.311945 -0.06336,0.570275 -0.05849,0.253455 -0.190091,0.54103 -0.07311,0.151098 -0.253456,0.360687 -0.180343,0.209588 -0.433799,0.433799 -0.248581,0.22421 -0.545904,0.443547 -0.297323,0.219337 -0.604394,0.394806 -0.307071,0.175469 -0.604394,0.2827 -0.292449,0.107231 -0.531282,0.107231 -0.321694,0 -0.550779,-0.107231 -0.229084,-0.112105 -0.375309,-0.287574 -0.146224,-0.180344 -0.214462,-0.409429 -0.06824,-0.229084 -0.06824,-0.463043 0,-0.190092 0.05362,-0.45817 0.05849,-0.272952 0.194966,-0.550779 -0.185217,0.11698 -0.414302,0.185218 -0.224211,0.06824 -0.414303,0.121854 -0.08286,0.02437 -0.185217,0.04387 -0.102357,0.01462 -0.204714,0.02924 -0.09748,0.01462 -0.190092,0.02925 -0.08773,0.01462 -0.151098,0.02437 -0.09748,0.0195 -0.136477,0.07799 -0.03412,0.05362 -0.05362,0.14135 -0.0195,0.08286 -0.05849,0.219336 -0.03899,0.136477 -0.07799,0.282701 -0.04387,0.155973 -0.09261,0.321694 -0.04874,0.16572 -0.08773,0.316819 -0.03412,0.146224 -0.06336,0.272952 -0.02437,0.121854 -0.02437,0.190092 0,0.06336 -0.05362,0.136476 -0.04874,0.07311 -0.116979,0.136476 -0.06336,0.06824 -0.131602,0.112105 -0.06336,0.04387 -0.09748,0.04387 -0.07311,0 -0.14135,-0.04874 -0.06336,-0.04874 -0.112106,-0.112105 -0.04874,-0.06336 -0.07799,-0.126728 -0.02924,-0.06824 -0.02924,-0.102357 0,-0.04387 0.03412,-0.155973 0.03899,-0.112105 0.07799,-0.229085 0.02437,-0.07311 0.06336,-0.199839 0.03899,-0.126728 0.07799,-0.277827 0.04387,-0.155972 0.08286,-0.321693 0.04387,-0.165721 0.07799,-0.311946 0.03412,-0.146224 0.05362,-0.253455 0.0195,-0.112106 0.0195,-0.160847 z m 5.873345,-1.101557 q 0,-0.487415 -0.2827,-0.760367 -0.277827,-0.277826 -0.79936,-0.277826 -0.07311,0 -0.180344,0.05849 -0.107231,0.05849 -0.233959,0.151098 -0.121853,0.08773 -0.248581,0.194966 -0.121854,0.107231 -0.233959,0.209588 -0.107231,0.102357 -0.185218,0.185218 -0.07799,0.08286 -0.107231,0.116979 -0.102357,0.121854 -0.214462,0.336316 -0.107231,0.209589 -0.19984,0.453296 -0.09261,0.243707 -0.155973,0.492289 -0.05849,0.243707 -0.05849,0.428924 0,0.112106 0.02925,0.229085 0.03412,0.11698 0.09748,0.214463 0.06824,0.09261 0.170595,0.155972 0.102357,0.05849 0.238833,0.05849 0.151099,0 0.385058,-0.08773 0.233959,-0.08774 0.492289,-0.243708 0.263204,-0.155972 0.526407,-0.370435 0.268078,-0.214462 0.477667,-0.463044 0.214462,-0.248581 0.346064,-0.521533 0.136476,-0.277827 0.136476,-0.560527 z"
     id="path5595" /></g><g
   aria-label="з"
   transform="scale(1.3810116,0.7241069)"
   id="text16794"
   style="font-size:11.4968px;line-height:1.25;font-family:'Segoe Script';-inkscape-font-specification:'Segoe Script';fill:#131313;stroke-width:0.28742"><path
     d="m 1.4331684,38.934556 q 0.056137,0 0.089819,0.0393 0.039296,0.03929 0.06175,0.09543 0.022455,0.06175 0.028068,0.134728 0.011227,0.07298 0.011227,0.140342 0,0.129114 0.044909,0.280684 0.050523,0.151569 0.1571829,0.280683 0.1122734,0.129115 0.2862972,0.21332 0.1740239,0.08982 0.4266391,0.08982 0.342434,0 0.7073227,-0.179638 0.3648887,-0.179637 0.668027,-0.499617 0.3031383,-0.319979 0.4940031,-0.763459 0.1964785,-0.437867 0.1964785,-0.959938 0,-0.482776 -0.1010461,-0.819596 -0.1010461,-0.336821 -0.2638425,-0.544526 -0.1571829,-0.21332 -0.3648887,-0.308752 -0.2077059,-0.09543 -0.4154118,-0.09543 -0.078591,0 -0.1740238,0.0393 -0.095432,0.03368 -0.1964785,0.08982 -0.095432,0.05052 -0.1964785,0.112273 -0.095432,0.06175 -0.1740239,0.112274 -0.1347281,0.08982 -0.2582289,0.151569 -0.1178871,0.06175 -0.3143656,0.06175 -0.1515692,0 -0.2638426,-0.112273 -0.1066598,-0.117888 -0.1066598,-0.308752 0,-0.145956 0.1010461,-0.247002 0.1066598,-0.101046 0.325593,-0.190865 0.4659348,-0.190865 0.8308235,-0.387343 0.3705023,-0.202092 0.6231176,-0.432253 0.2526152,-0.235774 0.3873433,-0.516458 0.1347282,-0.280683 0.1347282,-0.639958 0,-0.140342 -0.044909,-0.27507 -0.039296,-0.140342 -0.1235008,-0.247002 -0.084205,-0.112273 -0.2077059,-0.179637 -0.1178871,-0.07298 -0.2750699,-0.07298 -0.3368203,0 -0.6399586,0.207706 -0.3031383,0.207706 -0.5950493,0.510844 -0.1291144,0.134728 -0.2133195,0.196478 -0.084205,0.05614 -0.1796375,0.05614 -0.078591,0 -0.1403418,-0.0393 -0.056137,-0.04491 -0.095432,-0.101046 -0.033682,-0.06175 -0.056137,-0.129114 -0.016841,-0.07298 -0.016841,-0.123501 0,-0.134728 0.072978,-0.252615 0.078591,-0.123501 0.2077058,-0.230161 0.2806836,-0.235774 0.5501399,-0.387343 0.2694563,-0.151569 0.4434801,-0.224547 0.1964785,-0.07859 0.4041844,-0.151569 0.2133195,-0.07298 0.3985707,-0.07298 0.2638426,0 0.5052305,0.09543 0.2413879,0.08982 0.4210254,0.269456 0.1852512,0.174024 0.2919109,0.432253 0.1122735,0.258229 0.1122735,0.583822 0,0.471548 -0.2301606,0.937483 -0.2245469,0.465935 -0.769073,0.903801 0.376116,0.01684 0.6567996,0.190865 0.2806836,0.174024 0.4659348,0.460321 0.1908648,0.286297 0.2806836,0.662413 0.095432,0.370503 0.095432,0.785914 0,0.415412 -0.1122734,0.82521 -0.1122735,0.409798 -0.3199794,0.785914 -0.2020921,0.376116 -0.4883894,0.696096 -0.2806836,0.319979 -0.6231176,0.555753 -0.3368203,0.235774 -0.7241637,0.370502 -0.3817297,0.134729 -0.7859141,0.134729 -0.3873434,0 -0.6736407,-0.129115 Q 1.4836915,40.691635 1.2928266,40.50077 1.1075754,40.309906 1.012143,40.090972 q -0.0954324,-0.218933 -0.0954324,-0.404184 0,-0.140342 0.050523,-0.303138 0.0561367,-0.162797 0.12350077,-0.258229 0.044909,-0.06175 0.1291145,-0.129115 0.084205,-0.06175 0.2133195,-0.06175 z"
     id="path5553" /></g></svg>
