<?xml version="1.0" encoding="UTF-8" standalone="no"?>
<!-- Generator: Adobe Illustrator 22.0.1, SVG Export Plug-In . SVG Version: 6.00 Build 0)  -->

<svg
   version="1.1"
   id="Layer_1"
   x="0px"
   y="0px"
   viewBox="0 0 56 56"
   xml:space="preserve"
   sodipodi:docname="southEastWind.svg"
   width="56"
   height="56"
   inkscape:version="1.1.1 (3bf5ae0d25, 2021-09-20)"
   xmlns:inkscape="http://www.inkscape.org/namespaces/inkscape"
   xmlns:sodipodi="http://sodipodi.sourceforge.net/DTD/sodipodi-0.dtd"
   xmlns="http://www.w3.org/2000/svg"
   xmlns:svg="http://www.w3.org/2000/svg"><defs
   id="defs7" /><sodipodi:namedview
   id="namedview5"
   pagecolor="#ffffff"
   bordercolor="#666666"
   borderopacity="1.0"
   inkscape:pageshadow="2"
   inkscape:pageopacity="0.0"
   inkscape:pagecheckerboard="0"
   showgrid="false"
   inkscape:zoom="2.5396918"
   inkscape:cx="-96.862147"
   inkscape:cy="-8.0718456"
   inkscape:window-width="2400"
   inkscape:window-height="1321"
   inkscape:window-x="2391"
   inkscape:window-y="-9"
   inkscape:window-maximized="1"
   inkscape:current-layer="Layer_1"
   width="140px" />
<path
   d="m 39.994293,12.604301 c 2.735785,2.262861 4.717241,5.043469 5.941811,8.317326 1.224564,3.273861 1.575876,6.631312 1.05393,10.072364 -0.521945,3.441051 -1.890537,6.5176 -4.092357,9.240756 -1.648647,2.039006 -3.634544,3.664758 -5.933422,4.874931 -2.298881,1.21016 -4.675873,1.908009 -7.112426,2.153634 -2.436563,0.24561 -4.913557,-0.01232 -7.430989,-0.773785 -2.517439,-0.761486 -4.78738,-1.967444 -6.852636,-3.67568 -2.03843,-1.686045 -3.670995,-3.707978 -4.895148,-6.041286 C 9.4489075,34.439263 8.7181758,32.021595 8.4617443,29.570896 8.2053064,27.120205 8.434032,24.623065 9.1504435,22.103988 c 0.716421,-2.519077 1.8868295,-4.796951 3.5463275,-6.849375 1.659494,-2.052433 3.656239,-3.691592 5.955124,-4.901761 2.298884,-1.2101616 4.686711,-1.9214223 7.123269,-2.1670557 2.436558,-0.2456249 4.902707,0.025716 7.404167,0.751605 2.501467,0.725877 4.763126,1.9697607 6.814962,3.6668997 z m -2.689906,3.32681 c -3.178338,-2.628905 -6.873734,-3.760292 -11.097034,-3.38075 -4.196474,0.401726 -7.584154,2.211176 -10.198136,5.44408 -1.713734,2.119494 -2.785132,4.524037 -3.179109,7.197886 -0.393972,2.673853 -0.143847,5.298411 0.809735,7.85564 0.953575,2.557226 2.477681,4.713302 4.596575,6.465914 2.118891,1.752595 4.524124,2.846593 7.191434,3.284331 2.667311,0.43773 5.262823,0.189263 7.786534,-0.745398 2.523711,-0.934666 4.630299,-2.46058 6.344029,-4.580083 1.713732,-2.119496 2.78513,-4.52404 3.179108,-7.197891 0.39397,-2.673846 0.130434,-5.309508 -0.812303,-7.880148 -0.942737,-2.570639 -2.501942,-4.710976 -4.620833,-6.463581 z m -13.149148,0.07064 13.514036,19.572622 c 0.123262,0.124336 0.136079,0.246874 0.03844,0.367606 -0.09765,0.120704 -0.218906,0.13234 -0.363848,0.03485 l -21.63797,-9.525147 c -0.190915,-0.06835 -0.287351,-0.170512 -0.313581,-0.304136 -0.02621,-0.13363 0.06054,-0.240941 0.260316,-0.321949 l 5.507095,-3.212823 c 0.162111,-0.08978 0.270575,-0.223921 0.314544,-0.389025 l 2.052839,-6.137111 c 0.02801,-0.200692 0.103931,-0.29459 0.227781,-0.281698 0.123848,0.0129 0.28793,0.05907 0.40035,0.196819 z"
   id="path2"
   style="fill:#2c4f54;fill-opacity:0.5;stroke:#2e3332;stroke-width:0.106822;stroke-miterlimit:4;stroke-dasharray:none;stroke-opacity:0.9" />
<path
   style="fill:#2d6166;fill-opacity:0.81;stroke:#e4e7e7;stroke-width:0.106822;stroke-miterlimit:4;stroke-dasharray:none;stroke-opacity:0.9"
   d="m 17.650701,17.228949 c 0.519176,-0.520588 1.132529,-1.05721 1.699462,-1.486871 3.187894,-2.415952 7.78075,-3.326367 11.862599,-2.351455 2.197183,0.524785 3.834974,1.361075 5.677362,2.898987 1.891109,1.578471 3.060167,3.111312 4.010583,5.258083 0.640575,1.446939 1.00052,2.78071 1.193338,4.421966 0.382657,3.25717 -0.177041,6.236988 -1.704414,9.074334 -0.318076,0.590887 -0.475832,0.814925 -1.366297,1.94038 -1.080891,1.366061 -1.424413,1.719369 -2.445388,2.514855 -1.542009,1.201396 -3.660986,2.190074 -5.662357,2.641942 -0.816349,0.184321 -2.547462,0.343937 -3.405322,0.313979 -2.076174,-0.07248 -4.080619,-0.553591 -5.786186,-1.38883 -1.257732,-0.61591 -1.664503,-0.885294 -2.929781,-1.940206 -0.892546,-0.744195 -1.255823,-1.077692 -1.593781,-1.463455 -2.05255,-2.342694 -3.330546,-5.286431 -3.651941,-8.411912 -0.32915,-3.200984 0.333805,-6.390321 1.891646,-9.100237 0.359118,-0.624693 1.740024,-2.449833 2.21047,-2.921575 z m 5.138673,2.166682 c -0.546895,1.667463 -1.020289,3.088369 -1.051993,3.157566 -0.0391,0.08542 -0.961672,0.667189 -2.872747,1.811619 -1.620503,0.970431 -2.831596,1.728912 -2.853965,1.787387 -0.04635,0.121202 0.08163,0.312437 0.277821,0.415114 0.0779,0.04075 4.79691,2.124382 10.486713,4.630278 9.970505,4.391198 10.350048,4.553138 10.481697,4.472194 0.101722,-0.06258 0.133241,-0.114132 0.123333,-0.202244 -0.01629,-0.145737 -12.869362,-18.987726 -13.061937,-19.148244 -0.173993,-0.145034 -0.447323,-0.171147 -0.497323,-0.04751 -0.02044,0.05069 -0.484708,1.456379 -1.0316,3.123839 z"
   id="path861" /><rect
   style="fill:#c7485e;fill-opacity:1;stroke:#3c4343;stroke-width:0.446864;stroke-opacity:0.9"
   id="rect2803"
   width="4.9081817"
   height="0.057481349"
   x="2.50226"
   y="-42.680176"
   transform="matrix(-0.60036465,0.79972639,-0.78933413,-0.61396387,0,0)"
   inkscape:transform-center-x="0.67610916"
   inkscape:transform-center-y="-3.8725552" /><path
   style="fill:#cd425e;fill-opacity:1;stroke:#e27364;stroke-width:0.0359423;stroke-opacity:0.9"
   d="m 32.544354,28.649424 c 0.05095,0.07393 1.167323,1.652691 2.480872,3.508344 1.31355,1.855649 2.411431,3.427036 2.439731,3.49196 0.04452,0.102175 -7.5293,-3.184909 -7.742242,-3.360163 -0.05819,-0.04786 0.295082,-0.559751 1.324868,-1.919913 1.313063,-1.734321 1.410208,-1.84591 1.496752,-1.720238 z"
   id="path3397"
   inkscape:transform-center-x="-1.9485358"
   inkscape:transform-center-y="-1.8487677" /><text
   xml:space="preserve"
   style="font-size:9.4482px;line-height:1.25;font-family:'Segoe Script';-inkscape-font-specification:'Segoe Script';fill:#16272a;fill-opacity:0.799714;stroke-width:0.236202"
   x="6.5540342"
   y="33.685158"
   id="text17884"
   transform="scale(1.3054649,0.76601063)"><tspan
     sodipodi:role="line"
     id="tspan17882"
     x="6.5540342"
     y="33.685158"
     style="stroke-width:0.236202">_</tspan></text><text
   xml:space="preserve"
   style="font-size:9.62391px;line-height:1.25;font-family:'Segoe Script';-inkscape-font-specification:'Segoe Script';fill:#16272a;fill-opacity:0.799714;stroke-width:0.240592"
   x="30.774883"
   y="34.068436"
   id="text17884-6"
   transform="scale(1.3297335,0.75203037)"><tspan
     sodipodi:role="line"
     id="tspan17882-2"
     x="30.774883"
     y="34.068436"
     style="stroke-width:0.240592">_</tspan></text><text
   xml:space="preserve"
   style="font-size:8.45435px;line-height:1.25;font-family:'Segoe Script';-inkscape-font-specification:'Segoe Script';fill:#16272a;fill-opacity:0.799714;stroke-width:0.211359"
   x="-35.725998"
   y="35.392452"
   id="text17884-0"
   transform="matrix(-0.01826166,-1.3701317,0.72913035,-0.0545086,0,0)"><tspan
     sodipodi:role="line"
     id="tspan17882-4"
     x="-35.725998"
     y="35.392452"
     style="stroke-width:0.211359">_</tspan></text><text
   xml:space="preserve"
   style="font-size:9.54105px;line-height:1.25;font-family:'Segoe Script';-inkscape-font-specification:'Segoe Script';fill:#16272a;fill-opacity:0.799714;stroke-width:0.238523"
   x="-10.031137"
   y="36.457932"
   id="text17884-9"
   transform="matrix(5.1046834e-4,-1.3391991,0.74671439,0.00145422,0,0)"><tspan
     sodipodi:role="line"
     id="tspan17882-7"
     x="-10.031137"
     y="36.457932"
     style="stroke-width:0.238523">_</tspan></text><text
   xml:space="preserve"
   style="font-size:12.4978px;line-height:1.25;font-family:'Segoe Script';-inkscape-font-specification:'Segoe Script';fill:#0e0e0e;fill-opacity:1;stroke-width:0.31244"
   x="24.975548"
   y="7.2828336"
   id="text9344"
   transform="scale(1.0008713,0.99912942)"><tspan
     sodipodi:role="line"
     id="tspan9342"
     x="24.975548"
     y="7.2828336"
     style="fill:#0e0e0e;fill-opacity:1;stroke-width:0.31244">c</tspan></text><text
   xml:space="preserve"
   style="font-size:11.972px;line-height:1.25;font-family:'Segoe Script';-inkscape-font-specification:'Segoe Script';fill:#161616;fill-opacity:1;stroke-width:0.299303"
   x="33.809875"
   y="40.811462"
   id="text19318"
   transform="scale(1.3963416,0.71615716)"
   inkscape:transform-center-x="-0.61506542"
   inkscape:transform-center-y="10.904641"><tspan
     sodipodi:role="line"
     id="tspan19316"
     x="33.809875"
     y="40.811462"
     style="fill:#161616;fill-opacity:1;stroke-width:0.299303">в</tspan></text><text
   xml:space="preserve"
   style="font-size:9.98225px;line-height:1.25;font-family:'Segoe Script';-inkscape-font-specification:'Segoe Script';fill:#151515;fill-opacity:1;stroke-width:0.249553"
   x="25.805447"
   y="48.325489"
   id="text11307"
   transform="scale(0.89079182,1.1225967)"
   inkscape:transform-center-x="3.536752"
   inkscape:transform-center-y="-0.31156951"><tspan
     sodipodi:role="line"
     id="tspan11305"
     x="25.805447"
     y="48.325489"
     style="fill:#151515;fill-opacity:1;stroke-width:0.249553">ю</tspan></text><text
   xml:space="preserve"
   style="font-size:11.4968px;line-height:1.25;font-family:'Segoe Script';-inkscape-font-specification:'Segoe Script';fill:#131313;fill-opacity:1;stroke-width:0.28742"
   x="0.60795861"
   y="38.485462"
   id="text16794"
   transform="scale(1.3810116,0.7241069)"><tspan
     sodipodi:role="line"
     id="tspan16792"
     x="0.60795861"
     y="38.485462"
     style="fill:#131313;fill-opacity:1;stroke-width:0.28742">з</tspan></text></svg>
