<?xml version="1.0" encoding="UTF-8" standalone="no"?>
<!-- Created with Inkscape (http://www.inkscape.org/) -->

<svg
   width="12"
   height="16"
   viewBox="0 0 3.1750002 4.2333342"
   version="1.1"
   id="svg2249"
   inkscape:version="1.1.1 (3bf5ae0d25, 2021-09-20)"
   sodipodi:docname="tempPlus.svg"
   xmlns:inkscape="http://www.inkscape.org/namespaces/inkscape"
   xmlns:sodipodi="http://sodipodi.sourceforge.net/DTD/sodipodi-0.dtd"
   xmlns="http://www.w3.org/2000/svg"
   xmlns:svg="http://www.w3.org/2000/svg">
  <sodipodi:namedview
     id="namedview2251"
     pagecolor="#ffffff"
     bordercolor="#666666"
     borderopacity="1.0"
     inkscape:pageshadow="2"
     inkscape:pageopacity="0.0"
     inkscape:pagecheckerboard="0"
     inkscape:document-units="px"
     showgrid="false"
     units="px"
     inkscape:zoom="17.375939"
     inkscape:cx="15.135873"
     inkscape:cy="17.006275"
     inkscape:window-width="2400"
     inkscape:window-height="1321"
     inkscape:window-x="2391"
     inkscape:window-y="-9"
     inkscape:window-maximized="1"
     inkscape:current-layer="layer1"
     height="35px" />
  <defs
     id="defs2246">
    <clipPath
       clipPathUnits="userSpaceOnUse"
       id="clipPath1825">
      <path
         d="m 7278.53,6813.28 h 20.78 v -5.79 h -20.78 z"
         id="path1823" />
    </clipPath>
  </defs>
  <g
     inkscape:label="Слой 1"
     inkscape:groupmode="layer"
     id="layer1"
     style="display:inline">
    <g
       id="g1799"
       transform="matrix(0.06831323,0,0,-0.05388237,1.3711412,2.751253)"
       style="fill:#e1ebeb;fill-opacity:1">
      <path
         d="m 0,0 c 3.832,0 7.39,-1.134 10.39,-3.063 v 45.73 c 0,4.019 -3.287,7.305 -7.306,7.305 h -6.17 c -4.018,0 -7.305,-3.286 -7.305,-7.305 V -3.065 C -7.393,-1.134 -3.832,0 0,0"
         style="fill:#e1ebeb;fill-opacity:1;fill-rule:nonzero;stroke:none"
         id="path1801" />
    </g>
    <g
       id="g1803"
       transform="matrix(0.06831323,0,0,-0.04778493,2.6758746,3.3003635)"
       style="fill:#e0ebeb;fill-opacity:1">
      <path
         d="m 0,0 c 0,-10.623 -8.612,-19.235 -19.236,-19.235 -10.625,0 -19.239,8.612 -19.239,19.235 0,10.625 8.614,19.239 19.239,19.239 C -8.612,19.239 0,10.625 0,0"
         style="fill:#e0ebeb;fill-opacity:1;fill-rule:nonzero;stroke:none"
         id="path1805" />
    </g>
    <g
       id="g1819"
       transform="matrix(0.06831323,0,0,-0.04778493,-496.56775,327.82303)">
      <g
         id="g1821" />
      <g
         id="g1833">
        <g
           clip-path="url(#clipPath1825)"
           opacity="0.199997"
           id="g1831">
          <g
             transform="translate(7288.918,6813.2813)"
             id="g1829">
            <path
               d="m 0,0 c -3.759,0 -7.296,-0.948 -10.391,-2.611 v -3.178 c 2.998,1.932 6.559,3.065 10.391,3.065 3.832,0 7.39,-1.133 10.39,-3.063 v 3.176 C 7.295,-0.948 3.758,0 0,0"
               style="fill:#122c3d;fill-opacity:1;fill-rule:nonzero;stroke:none"
               id="path1827" />
          </g>
        </g>
      </g>
    </g>
    <g
       id="g1835"
       transform="matrix(0.08887169,0,0,-0.03004795,3.095495,0.61490338)"
       style="fill:#e0ebeb;fill-opacity:1">
      <path
         d="m 0,0 c 0,-0.353 -0.287,-0.642 -0.64,-0.642 h -9.46 c -0.353,0 -0.64,0.289 -0.64,0.642 v 3.687 c 0,0.353 0.287,0.642 0.64,0.642 h 9.46 C -0.287,4.329 0,4.04 0,3.687 Z"
         style="fill:#e0ebeb;fill-opacity:1;fill-rule:nonzero;stroke:none"
         id="path1837" />
    </g>
    <g
       id="g1839"
       transform="matrix(0.11660802,0,0,-0.02553884,2.8329549,1.1017473)"
       style="fill:#e0ebeb;fill-opacity:1">
      <path
         d="m 0,0 c 0,-0.353 -0.287,-0.64 -0.641,-0.64 h -4.81 c -0.354,0 -0.641,0.287 -0.641,0.64 v 3.687 c 0,0.353 0.287,0.642 0.641,0.642 h 4.81 C -0.287,4.329 0,4.04 0,3.687 Z"
         style="fill:#e0ebeb;fill-opacity:1;fill-rule:nonzero;stroke:none"
         id="path1841" />
    </g>
    <g
       id="g1843"
       transform="matrix(0.08975893,0,0,-0.02526402,2.7061899,1.5460633)"
       style="fill:#e0eaea;fill-opacity:1">
      <path
         d="m 0,0 c 0,-0.353 -0.287,-0.642 -0.641,-0.642 h -4.81 c -0.354,0 -0.641,0.289 -0.641,0.642 v 3.687 c 0,0.353 0.287,0.64 0.641,0.64 h 4.81 C -0.287,4.327 0,4.04 0,3.687 Z"
         style="fill:#e0eaea;fill-opacity:1;fill-rule:nonzero;stroke:none"
         id="path1845" />
    </g>
    <g
       id="g1847"
       transform="matrix(0.09175307,0,0,-0.03161326,3.1172413,2.0967123)"
       style="fill:#e0eaea;fill-opacity:1">
      <path
         d="m 0,0 c 0,-0.353 -0.287,-0.642 -0.64,-0.642 h -9.46 c -0.353,0 -0.64,0.289 -0.64,0.642 v 3.687 c 0,0.353 0.287,0.642 0.64,0.642 h 9.46 C -0.287,4.329 0,4.04 0,3.687 Z"
         style="fill:#e0eaea;fill-opacity:1;fill-rule:nonzero;stroke:none"
         id="path1849" />
    </g>
    <path
       style="fill:#e57900;fill-opacity:0.6;stroke:#3e84ad;stroke-width:0.00485478;stroke-opacity:0.607692"
       d="m 1.2902063,3.9784313 c -0.00898,-8.03e-4 -0.042025,-0.00366 -0.073442,-0.00632 C 1.1133366,3.9633283 0.96578,3.9288297 0.87131752,3.8913504 0.63323228,3.7968872 0.46405873,3.6473323 0.38989136,3.4657546 0.3588683,3.3898028 0.35449643,3.3656456 0.35458945,3.2706745 c 6.376e-5,-0.065274 0.002326,-0.092673 0.009951,-0.1205083 C 0.43269628,2.901357 0.66701182,2.7035408 1.001703,2.6122547 1.3768991,2.5099209 1.8184019,2.5800782 2.09468,2.7859343 2.2352546,2.8906772 2.3241104,3.0151231 2.3595407,3.156881 c 0.016228,0.064932 0.016365,0.1665928 3.074e-4,0.230542 -0.045467,0.1810965 -0.1813658,0.3386406 -0.3869097,0.4485357 -0.062202,0.033257 -0.1851057,0.080687 -0.2584053,0.099722 -0.1305313,0.033898 -0.3153725,0.05252 -0.4243288,0.042752 z"
       id="path20198" />
    <path
       style="fill:#d67300;fill-opacity:0.6;stroke:#3e84ad;stroke-width:0.00485478;stroke-opacity:0.607692"
       d="m 0.84690517,2.2731319 c -0.0018,-0.00536 -0.00331,-0.1535306 -0.003345,-0.329265 L 0.84348318,1.6243502 H 1.3822762 1.9210734 L 1.9194824,1.95109 c -8.697e-4,0.1797071 -0.0033,0.3281067 -0.0054,0.3297771 -0.00209,0.00167 -0.042494,-0.00496 -0.089765,-0.014708 -0.1324546,-0.027347 -0.1949568,-0.03451 -0.3517524,-0.040312 -0.2207473,-0.00817 -0.3585836,0.00304 -0.56523721,0.045995 -0.02921,0.00606 -0.0540164,0.011038 -0.0551266,0.011038 -0.001109,0 -0.003495,-0.00438 -0.005296,-0.00975 z"
       id="path20276" />
    <path
       style="fill:#e57a00;fill-opacity:0.6;stroke:#ccf5ff;stroke-width:0.0146308;stroke-miterlimit:4;stroke-dasharray:none;stroke-opacity:0.9"
       d="m 2.1650121,1.0982078 c -0.016494,-0.00112 -0.018467,-0.00607 -0.018359,-0.046089 8.5e-5,-0.031602 0.00112,-0.036205 0.00877,-0.038906 0.00799,-0.00282 0.031372,-0.00311 0.2954097,-0.00361 0.1577028,-3.001e-4 0.3008293,-3.61e-5 0.318059,5.852e-4 0.028507,0.00103 0.031662,0.00155 0.035043,0.00585 0.0048,0.00609 0.00485,0.070481 6.02e-5,0.076559 -0.00265,0.00335 -0.00801,0.00495 -0.019382,0.00574 -0.017315,0.00122 -0.6015124,0.00109 -0.6196044,-1.389e-4 z"
       id="path20315" />
    <path
       style="fill:#e57b00;fill-opacity:0.6;stroke:#ccf7ff;stroke-width:0.0182841;stroke-miterlimit:4;stroke-dasharray:none;stroke-opacity:0.896154"
       d="m 2.2201629,0.61126513 c -0.045698,-0.001579 -0.049148,-0.005311 -0.049148,-0.0531696 v -0.0415126 l 0.018322,-0.004725 c 0.014604,-0.003767 0.029771,-0.005008 0.074747,-0.006121 0.075702,-0.001874 0.7667241,-2.3893e-4 0.7818664,0.001852 0.019102,0.002636 0.022025,0.009882 0.022025,0.0545934 0,0.0377817 -0.00127,0.0425717 -0.012129,0.0458298 -0.011346,0.003403 -0.037743,0.003653 -0.4111066,0.003888 -0.2194376,1.3831e-4 -0.4104963,-1.4753e-4 -0.4245768,-6.35e-4 z"
       id="path20432" />
    <path
       style="fill:#e57b00;fill-opacity:0.6;stroke:#f9feff;stroke-width:0.00039643;stroke-miterlimit:4;stroke-dasharray:none;stroke-opacity:1"
       d="m 2.2443269,2.1007136 c -0.080266,-0.00125 -0.082104,-0.00241 -0.082037,-0.052294 5.99e-5,-0.044812 0.00535,-0.057638 0.025258,-0.061346 0.029816,-0.00555 0.046003,-0.00581 0.3934805,-0.00629 0.1809277,-2.479e-4 0.3618734,8.06e-5 0.4032885,7.304e-4 0.067932,0.00107 0.076746,0.00148 0.092118,0.00434 0.016574,0.00308 0.017149,0.00373 0.022981,0.025574 0.00363,0.013622 0.00363,0.034765 -1.32e-5,0.053917 -0.00526,0.027683 -0.00742,0.03177 -0.017615,0.033669 -0.01087,0.00201 -0.036601,0.00217 -0.4007234,0.0023 -0.2140096,7.48e-5 -0.4105401,-1.995e-4 -0.4367347,-6.034e-4 z"
       id="path25140" />
    <path
       style="fill:#e57b00;fill-opacity:0.6;stroke:#ccf6ff;stroke-width:0.0169409;stroke-miterlimit:4;stroke-dasharray:none;stroke-opacity:0.9"
       d="m 2.2191882,1.5411556 c -0.00383,-1.96e-4 -0.010626,-5.49e-4 -0.015068,-7.849e-4 -0.00507,-2.674e-4 -0.010266,-0.0016 -0.013964,-0.00359 -0.00519,-0.00279 -0.00583,-0.00686 -0.00554,-0.035069 3.774e-4,-0.036916 0.00129,-0.038461 0.024184,-0.041268 0.013432,-0.00165 0.020843,-0.00169 0.2268407,-0.00169 0.1586216,0 0.2153571,2.637e-4 0.222372,0.00103 0.00518,5.671e-4 0.012248,0.00208 0.015709,0.00336 0.00581,0.00217 0.00628,0.00502 0.0061,0.03769 -1.306e-4,0.024014 -0.00144,0.03606 -0.00409,0.037566 -0.0029,0.00165 -0.0073,0.00236 -0.017263,0.00275 -0.01457,5.898e-4 -0.4278933,5.898e-4 -0.4392771,-1e-7 z"
       id="path25179" />
  </g>
</svg>
