<?xml version="1.0" encoding="UTF-8" standalone="no"?>
<!-- Created with Inkscape (http://www.inkscape.org/) -->

<svg
   width="12"
   height="16"
   viewBox="0 0 3.1750002 4.2333342"
   version="1.1"
   id="svg2249"
   inkscape:version="1.1.1 (3bf5ae0d25, 2021-09-20)"
   sodipodi:docname="tempMinus.svg"
   xmlns:inkscape="http://www.inkscape.org/namespaces/inkscape"
   xmlns:sodipodi="http://sodipodi.sourceforge.net/DTD/sodipodi-0.dtd"
   xmlns="http://www.w3.org/2000/svg"
   xmlns:svg="http://www.w3.org/2000/svg">
  <sodipodi:namedview
     id="namedview2251"
     pagecolor="#ffffff"
     bordercolor="#666666"
     borderopacity="1.0"
     inkscape:pageshadow="2"
     inkscape:pageopacity="0.0"
     inkscape:pagecheckerboard="0"
     inkscape:document-units="px"
     showgrid="false"
     units="px"
     inkscape:zoom="24.573288"
     inkscape:cx="14.324497"
     inkscape:cy="14.344845"
     inkscape:window-width="2400"
     inkscape:window-height="1321"
     inkscape:window-x="2391"
     inkscape:window-y="-9"
     inkscape:window-maximized="1"
     inkscape:current-layer="layer1"
     height="35px" />
  <defs
     id="defs2246">
    <clipPath
       clipPathUnits="userSpaceOnUse"
       id="clipPath1825">
      <path
         d="m 7278.53,6813.28 h 20.78 v -5.79 h -20.78 z"
         id="path1823" />
    </clipPath>
  </defs>
  <g
     inkscape:label="Слой 1"
     inkscape:groupmode="layer"
     id="layer1"
     style="display:inline">
    <g
       id="g1799"
       transform="matrix(0.06882413,0,0,-0.05378902,1.4093254,2.7618149)"
       style="fill:#e1ebeb;fill-opacity:1">
      <path
         d="m 0,0 c 3.832,0 7.39,-1.134 10.39,-3.063 v 45.73 c 0,4.019 -3.287,7.305 -7.306,7.305 h -6.17 c -4.018,0 -7.305,-3.286 -7.305,-7.305 V -3.065 C -7.393,-1.134 -3.832,0 0,0"
         style="fill:#e1ebeb;fill-opacity:1;fill-rule:nonzero;stroke:none"
         id="path1801" />
    </g>
    <g
       id="g1803"
       transform="matrix(0.06882413,0,0,-0.04770213,2.7238163,3.3099738)"
       style="fill:#e0ebeb;fill-opacity:1">
      <path
         d="m 0,0 c 0,-10.623 -8.612,-19.235 -19.236,-19.235 -10.625,0 -19.239,8.612 -19.239,19.235 0,10.625 8.614,19.239 19.239,19.239 C -8.612,19.239 0,10.625 0,0"
         style="fill:#e0ebeb;fill-opacity:1;fill-rule:nonzero;stroke:none"
         id="path1805" />
    </g>
    <g
       id="g1819"
       transform="matrix(0.06882413,0,0,-0.04770213,-500.25342,327.27038)">
      <g
         id="g1821" />
      <g
         id="g1833">
        <g
           clip-path="url(#clipPath1825)"
           opacity="0.199997"
           id="g1831">
          <g
             transform="translate(7288.918,6813.2813)"
             id="g1829">
            <path
               d="m 0,0 c -3.759,0 -7.296,-0.948 -10.391,-2.611 v -3.178 c 2.998,1.932 6.559,3.065 10.391,3.065 3.832,0 7.39,-1.133 10.39,-3.063 v 3.176 C 7.295,-0.948 3.758,0 0,0"
               style="fill:#122c3d;fill-opacity:1;fill-rule:nonzero;stroke:none"
               id="path1827" />
          </g>
        </g>
      </g>
    </g>
    <g
       id="g1835"
       transform="matrix(0.08953631,0,0,-0.02999589,3.1465751,0.62916659)"
       style="fill:#e0ebeb;fill-opacity:1">
      <path
         d="m 0,0 c 0,-0.353 -0.287,-0.642 -0.64,-0.642 h -9.46 c -0.353,0 -0.64,0.289 -0.64,0.642 v 3.687 c 0,0.353 0.287,0.642 0.64,0.642 h 9.46 C -0.287,4.329 0,4.04 0,3.687 Z"
         style="fill:#e0ebeb;fill-opacity:1;fill-rule:nonzero;stroke:none"
         id="path1837" />
    </g>
    <g
       id="g1839"
       transform="matrix(0.11748009,0,0,-0.0254946,2.8820715,1.1151671)"
       style="fill:#e0ebeb;fill-opacity:1">
      <path
         d="m 0,0 c 0,-0.353 -0.287,-0.64 -0.641,-0.64 h -4.81 c -0.354,0 -0.641,0.287 -0.641,0.64 v 3.687 c 0,0.353 0.287,0.642 0.641,0.642 h 4.81 C -0.287,4.329 0,4.04 0,3.687 Z"
         style="fill:#e0ebeb;fill-opacity:1;fill-rule:nonzero;stroke:none"
         id="path1841" />
    </g>
    <g
       id="g1843"
       transform="matrix(0.09043019,0,0,-0.02522025,2.7543583,1.5587132)"
       style="fill:#e0eaea;fill-opacity:1">
      <path
         d="m 0,0 c 0,-0.353 -0.287,-0.642 -0.641,-0.642 h -4.81 c -0.354,0 -0.641,0.289 -0.641,0.642 v 3.687 c 0,0.353 0.287,0.64 0.641,0.64 h 4.81 C -0.287,4.327 0,4.04 0,3.687 Z"
         style="fill:#e0eaea;fill-opacity:1;fill-rule:nonzero;stroke:none"
         id="path1845" />
    </g>
    <g
       id="g1847"
       transform="matrix(0.09243925,0,0,-0.03155849,3.1684839,2.1084083)"
       style="fill:#e0eaea;fill-opacity:1">
      <path
         d="m 0,0 c 0,-0.353 -0.287,-0.642 -0.64,-0.642 h -9.46 c -0.353,0 -0.64,0.289 -0.64,0.642 v 3.687 c 0,0.353 0.287,0.642 0.64,0.642 h 9.46 C -0.287,4.329 0,4.04 0,3.687 Z"
         style="fill:#e0eaea;fill-opacity:1;fill-rule:nonzero;stroke:none"
         id="path1849" />
    </g>
    <path
       style="fill:#4ba0cb;fill-opacity:0.796853;stroke:#3e84ad;stroke-width:0.00486867;stroke-opacity:0.607692"
       d="M 1.3277853,3.986867 C 1.3187415,3.9860637 1.2854457,3.9832085 1.253794,3.98056 1.1495928,3.9717902 1.0009327,3.9373513 0.90576375,3.8999369 0.66589804,3.8056374 0.49545926,3.6563416 0.42073728,3.4750786 0.3894822,3.3992586 0.38507761,3.3751426 0.38517144,3.2803363 c 6.422e-5,-0.065161 0.002343,-0.092513 0.010025,-0.1202995 0.0686656,-0.248378 0.30473348,-0.4458514 0.64192766,-0.5369795 0.378002,-0.1021565 0.8228067,-0.032121 1.101151,0.1733787 0.1416259,0.1045614 0.2311463,0.2287918 0.2668413,0.3703041 0.016351,0.064819 0.016488,0.166304 3.099e-4,0.2301424 -0.045808,0.1807829 -0.1827222,0.338054 -0.3898033,0.4477586 -0.062668,0.033199 -0.18649,0.080547 -0.2603379,0.099549 -0.1315073,0.033839 -0.3177309,0.05243 -0.4275019,0.042677 z"
       id="path20198" />
    <path
       style="fill:#4ea2cb;fill-opacity:0.8;stroke:#3e84ad;stroke-width:0.00486867;stroke-opacity:0.607692"
       d="m 0.88116892,2.284522 c -0.001827,-0.00536 -0.003332,-0.1532645 -0.003375,-0.3286944 L 0.87771567,1.6368644 H 1.4205439 1.9633704 l -0.0016,0.3261739 c -8.739e-4,0.1793956 -0.00332,0.3275381 -0.00544,0.3292055 -0.00212,0.00167 -0.04281,-0.00494 -0.090434,-0.014682 -0.1334419,-0.027299 -0.1964114,-0.03445 -0.3543797,-0.040242 -0.2223983,-0.00815 -0.3612652,0.00303 -0.56946428,0.045915 -0.0294292,0.00606 -0.0544203,0.011018 -0.0555392,0.011018 -0.001118,0 -0.003525,-0.00439 -0.005331,-0.00973 z"
       id="path20276" />
    <path
       style="fill:#4ea2cb;fill-opacity:0.8;stroke:#ccf5ff;stroke-width:0.0146726;stroke-miterlimit:4;stroke-dasharray:none;stroke-opacity:0.9"
       d="m 2.2091335,1.1116337 c -0.016618,-0.00112 -0.018604,-0.00607 -0.018497,-0.04601 8.59e-5,-0.031548 0.00113,-0.036142 0.00885,-0.038838 0.00805,-0.00282 0.031608,-0.0031 0.2976189,-0.0036 0.1588822,-2.996e-4 0.303079,-3.59e-5 0.3204377,5.843e-4 0.028721,0.00103 0.031898,0.00155 0.035304,0.00583 0.00484,0.00609 0.00488,0.070359 6.08e-5,0.076427 -0.00268,0.00334 -0.00808,0.00494 -0.019527,0.00574 -0.017445,0.00121 -0.6060108,0.00109 -0.6242377,-1.387e-4 z"
       id="path20315" />
    <path
       style="fill:#4ea2cb;fill-opacity:0.8;stroke:#ccf7ff;stroke-width:0.0183366;stroke-miterlimit:4;stroke-dasharray:none;stroke-opacity:0.896154"
       d="m 2.2646966,0.62553464 c -0.04604,-0.001575 -0.049517,-0.005301 -0.049517,-0.0530774 v -0.0414408 l 0.018457,-0.004716 c 0.014714,-0.003759 0.029993,-0.004999 0.075305,-0.006111 0.076269,-0.001871 0.772458,-2.3852e-4 0.7877136,0.001848 0.019244,0.002632 0.022189,0.009865 0.022189,0.0544988 0,0.0377163 -0.00129,0.0424979 -0.01222,0.0457504 -0.011434,0.003397 -0.038024,0.003646 -0.41418,0.003882 -0.2210772,1.3802e-4 -0.4135648,-1.4733e-4 -0.4277476,-6.34e-4 z"
       id="path20432" />
    <path
       style="fill:#4ea2cb;fill-opacity:0.8;stroke:#f9feff;stroke-width:0.000397565;stroke-miterlimit:4;stroke-dasharray:none;stroke-opacity:1"
       d="m 2.2890414,2.1124026 c -0.080867,-0.00124 -0.082719,-0.0024 -0.082652,-0.052203 6.04e-5,-0.044734 0.00538,-0.057538 0.025447,-0.061238 0.030039,-0.00554 0.046347,-0.0058 0.396423,-0.00628 0.1822809,-2.474e-4 0.3645797,8.04e-5 0.4063045,7.293e-4 0.068439,0.00107 0.077321,0.00148 0.092808,0.00435 0.0167,0.00307 0.017278,0.00371 0.023154,0.02553 0.00365,0.013597 0.00365,0.034705 -1.32e-5,0.053823 -0.00531,0.027635 -0.00746,0.031715 -0.017745,0.033612 -0.01095,0.00202 -0.036874,0.00216 -0.4037204,0.00229 -0.2156097,7.66e-5 -0.4136101,-1.972e-4 -0.4400003,-6.005e-4 z"
       id="path25140" />
    <path
       style="fill:#4ea2cb;fill-opacity:0.8;stroke:#ccf6ff;stroke-width:0.0169895;stroke-miterlimit:4;stroke-dasharray:none;stroke-opacity:0.9"
       d="m 2.2637146,1.553814 c -0.00387,-1.957e-4 -0.010695,-5.48e-4 -0.01518,-7.836e-4 -0.00512,-2.668e-4 -0.01034,-0.00159 -0.014069,-0.00358 -0.00523,-0.00278 -0.00589,-0.00685 -0.00559,-0.035008 3.803e-4,-0.036852 0.00129,-0.038396 0.024366,-0.041196 0.013533,-0.00164 0.020999,-0.00169 0.228537,-0.00169 0.1598079,0 0.2169676,2.632e-4 0.2240349,0.00103 0.00521,5.661e-4 0.01234,0.00208 0.015826,0.00337 0.00586,0.00216 0.00632,0.00501 0.00615,0.037625 -1.316e-4,0.023972 -0.00146,0.035997 -0.00412,0.037501 -0.00292,0.00165 -0.00735,0.00235 -0.017392,0.00275 -0.014679,5.888e-4 -0.4310934,5.888e-4 -0.4425623,-2e-7 z"
       id="path25179" />
  </g>
</svg>
