<?xml version="1.0" encoding="UTF-8" standalone="no"?>
<!-- Generator: Adobe Illustrator 22.0.1, SVG Export Plug-In . SVG Version: 6.00 Build 0)  -->

<svg
   version="1.1"
   id="Layer_1"
   x="0px"
   y="0px"
   viewBox="0 0 56 56"
   xml:space="preserve"
   sodipodi:docname="westWind.svg"
   width="56"
   height="56"
   inkscape:version="1.1.1 (3bf5ae0d25, 2021-09-20)"
   xmlns:inkscape="http://www.inkscape.org/namespaces/inkscape"
   xmlns:sodipodi="http://sodipodi.sourceforge.net/DTD/sodipodi-0.dtd"
   xmlns="http://www.w3.org/2000/svg"
   xmlns:svg="http://www.w3.org/2000/svg"><defs
   id="defs7" /><sodipodi:namedview
   id="namedview5"
   pagecolor="#ffffff"
   bordercolor="#666666"
   borderopacity="1.0"
   inkscape:pageshadow="2"
   inkscape:pageopacity="0.0"
   inkscape:pagecheckerboard="0"
   showgrid="false"
   inkscape:zoom="7.1833332"
   inkscape:cx="60.974479"
   inkscape:cy="18.306265"
   inkscape:window-width="2400"
   inkscape:window-height="1321"
   inkscape:window-x="2391"
   inkscape:window-y="-9"
   inkscape:window-maximized="1"
   inkscape:current-layer="Layer_1"
   width="140px" />
<path
   d="M 27.729166,46.979039 C 24.232891,46.782013 21.043184,45.74861 18.176207,43.896437 15.30923,42.044254 13.094172,39.626202 11.531035,36.64229 9.9678968,33.658378 9.2933879,30.473455 9.4903508,27.086542 c 0.1474794,-2.536003 0.8033022,-4.942938 1.9493412,-7.205076 1.146049,-2.262128 2.649737,-4.169339 4.46159,-5.757876 1.811871,-1.58853 3.946123,-2.807385 6.402757,-3.656565 2.456654,-0.8491721 4.970848,-1.2096732 7.610198,-1.0609551 2.605063,0.1467844 5.078184,0.7883101 7.403205,1.9069181 2.325009,1.1186 4.303049,2.585909 5.919886,4.350907 1.61683,1.764988 2.871472,3.844367 3.747784,6.220456 0.876308,2.376094 1.249766,4.824279 1.101314,7.376966 -0.148439,2.552704 -0.805238,4.976316 -1.951283,7.238456 -1.146051,2.262129 -2.650703,4.186015 -4.462559,5.77456 -1.811856,1.588544 -3.945135,2.790715 -6.368478,3.658494 -2.423346,0.867797 -4.952742,1.193955 -7.57494,1.046212 z m 0.240626,-4.137704 c 4.061844,0.228866 7.675835,-1.007042 10.842948,-3.724414 3.132824,-2.719316 4.806622,-6.073225 5.040459,-10.094125 0.153301,-2.636112 -0.372472,-5.126365 -1.596398,-7.438349 -1.22393,-2.311985 -2.935825,-4.216244 -5.172883,-5.664673 -2.237053,-1.448433 -4.700475,-2.256797 -7.408375,-2.409386 -2.707892,-0.152574 -5.266074,0.372843 -7.656438,1.560521 -2.390361,1.187683 -4.328011,2.869573 -5.812948,5.045657 -1.484934,2.17609 -2.295002,4.574325 -2.4483,7.21044 -0.153305,2.636112 0.372474,5.126367 1.596399,7.438354 1.223926,2.311977 2.952967,4.217211 5.189056,5.682319 2.236087,1.465107 4.718585,2.241074 7.42648,2.393656 z M 38.470326,35.247674 16.365502,27.725023 c -0.170412,-0.02638 -0.251251,-0.114595 -0.242506,-0.264762 0.0087,-0.150149 0.09928,-0.22875 0.271616,-0.235785 l 22.831561,-4.973847 c 0.19241,-0.05612 0.328549,-0.0317 0.426523,0.05751 0.09796,0.08923 0.09022,0.222689 -0.02347,0.400416 l -2.564706,5.663891 c -0.07827,0.162976 -0.08796,0.329821 -0.02815,0.483848 l 1.888422,5.965031 c 0.09313,0.172628 0.08634,0.289422 -0.02021,0.350377 -0.106725,0.06098 -0.264839,0.118991 -0.434283,0.07592 z"
   id="path2"
   style="fill:#2c4f54;fill-opacity:0.5;stroke:#2e3332;stroke-width:0.104423;stroke-miterlimit:4;stroke-dasharray:none;stroke-opacity:0.9" />
<path
   style="fill:#1f4347;fill-opacity:0.81;stroke:#e4e7e7;stroke-width:0.104423;stroke-miterlimit:4;stroke-dasharray:none;stroke-opacity:0.9"
   d="m 43.108936,30.47959 c -0.114447,0.704118 -0.29497,1.474926 -0.500182,2.135732 -1.153948,3.715709 -4.302216,7.067724 -8.131459,8.657684 -2.061213,0.855838 -3.854948,1.147214 -6.217946,1.010042 -2.425415,-0.14073 -4.246779,-0.661452 -6.248096,-1.78603 -1.348894,-0.75797 -2.407853,-1.589335 -3.510838,-2.756286 -2.188952,-2.315895 -3.463632,-4.958153 -3.881776,-8.046353 -0.08709,-0.643131 -0.09037,-0.908362 -0.02852,-2.297116 0.07511,-1.685689 0.145727,-2.158469 0.502733,-3.365414 0.539229,-1.822844 1.663017,-3.812095 3.003018,-5.315695 0.54658,-0.613317 1.839295,-1.733834 2.542948,-2.204194 1.702949,-1.13838 3.584714,-1.917312 5.432067,-2.248508 1.362277,-0.244247 1.843432,-0.268591 3.465512,-0.175365 1.144265,0.06581 1.627682,0.116408 2.121056,0.222276 2.996334,0.642859 5.72042,2.19945 7.784229,4.448059 2.113658,2.302937 3.426841,5.167753 3.746946,8.174278 0.07379,0.693057 0.024,2.908857 -0.07968,3.5469 z m -5.363657,1.270221 c -0.526328,-1.613058 -0.968936,-2.991844 -0.983573,-3.063969 -0.01808,-0.089 0.383723,-1.072912 1.251151,-3.063793 0.735532,-1.688183 1.266034,-2.975722 1.250129,-3.034127 -0.03298,-0.121042 -0.245916,-0.196292 -0.462227,-0.163333 -0.08588,0.0131 -5.065776,1.10647 -11.06645,2.42974 -10.515254,2.318815 -10.912519,2.411154 -10.971051,2.549939 -0.04522,0.107266 -0.04064,0.165546 0.01821,0.228446 0.09735,0.104034 21.271978,7.378111 21.518837,7.392268 0.223035,0.01279 0.456811,-0.124169 0.425342,-0.249208 -0.01296,-0.05119 -0.454061,-1.412914 -0.98039,-3.025973 z"
   id="path861" /><rect
   style="fill:#c7485e;fill-opacity:1;stroke:#3c4343;stroke-width:0.448364;stroke-opacity:0.9"
   id="rect2803"
   width="4.8796463"
   height="0.058207519"
   x="-30.135902"
   y="25.254585"
   transform="matrix(0.00378653,-0.99999283,0.99992411,0.01231939,0,0)"
   inkscape:transform-center-x="-2.8921065"
   inkscape:transform-center-y="2.6623919" /><path
   style="fill:#cd425c;fill-opacity:1;stroke:#e27364;stroke-width:0.0352446;stroke-opacity:0.9"
   d="m 24.576875,30.134321 c -0.08532,-0.02823 -1.930632,-0.614338 -4.10072,-1.302503 -2.170087,-0.688162 -3.995866,-1.279024 -4.057272,-1.313014 -0.09662,-0.05354 8.061774,-1.780626 8.339811,-1.765541 0.07595,0.0038 0.08618,0.595747 0.03841,2.218974 -0.0609,2.069765 -0.07523,2.210046 -0.220209,2.162084 z"
   id="path3397"
   inkscape:transform-center-x="1.5645728"
   inkscape:transform-center-y="2.4158142" /><text
   xml:space="preserve"
   style="font-size:9.23596px;line-height:1.25;font-family:'Segoe Script';-inkscape-font-specification:'Segoe Script';fill:#16272a;fill-opacity:0.799714;stroke-width:0.230901"
   x="7.3543544"
   y="35.544102"
   id="text17884"
   transform="scale(1.3233086,0.75568163)"><tspan
     sodipodi:role="line"
     id="tspan17882"
     x="7.3543544"
     y="35.544102"
     style="stroke-width:0.230901">_</tspan></text><text
   xml:space="preserve"
   style="font-size:9.09859px;line-height:1.25;font-family:'Segoe Script';-inkscape-font-specification:'Segoe Script';fill:#16272a;fill-opacity:0.799714;stroke-width:0.227465"
   x="32.772961"
   y="34.785229"
   id="text17884-6"
   transform="scale(1.3036061,0.76710286)"><tspan
     sodipodi:role="line"
     id="tspan17882-2"
     x="32.772961"
     y="34.785229"
     style="stroke-width:0.227465">_</tspan></text><text
   xml:space="preserve"
   style="font-size:7.83369px;line-height:1.25;font-family:'Segoe Script';-inkscape-font-specification:'Segoe Script';fill:#16272a;fill-opacity:0.799714;stroke-width:0.19584"
   x="-37.899616"
   y="34.282101"
   id="text17884-0"
   transform="matrix(-0.01952929,-1.2811962,0.77974362,-0.05097044,0,0)"><tspan
     sodipodi:role="line"
     id="tspan17882-4"
     x="-37.899616"
     y="34.282101"
     style="stroke-width:0.19584">_</tspan></text><text
   xml:space="preserve"
   style="font-size:9.32673px;line-height:1.25;font-family:'Segoe Script';-inkscape-font-specification:'Segoe Script';fill:#16272a;fill-opacity:0.799714;stroke-width:0.233168"
   x="-11.30002"
   y="37.296829"
   id="text17884-9"
   transform="matrix(5.1744566e-4,-1.3211411,0.75692085,0.00143461,0,0)"><tspan
     sodipodi:role="line"
     id="tspan17882-7"
     x="-11.30002"
     y="37.296829"
     style="stroke-width:0.233168">_</tspan></text><text
   xml:space="preserve"
   style="font-size:12.2125px;line-height:1.25;font-family:'Segoe Script';-inkscape-font-specification:'Segoe Script';fill:#161616;fill-opacity:1;stroke-width:0.305315"
   x="34.335701"
   y="42.258148"
   id="text19318"
   transform="scale(1.3935413,0.71759627)"><tspan
     sodipodi:role="line"
     id="tspan19316"
     x="34.335701"
     y="42.258148"
     style="fill:#161616;fill-opacity:1;stroke-width:0.305315">в</tspan></text><text
   xml:space="preserve"
   style="font-size:10.1827px;line-height:1.25;font-family:'Segoe Script';-inkscape-font-specification:'Segoe Script';fill:#151515;fill-opacity:1;stroke-width:0.254565"
   x="27.487339"
   y="48.784969"
   id="text11307"
   transform="scale(0.88900539,1.1248526)"><tspan
     sodipodi:role="line"
     id="tspan11305"
     x="27.487339"
     y="48.784969"
     style="fill:#151515;fill-opacity:1;stroke-width:0.254565">ю</tspan></text><text
   xml:space="preserve"
   style="font-size:11.7277px;line-height:1.25;font-family:'Segoe Script';-inkscape-font-specification:'Segoe Script';fill:#131313;fill-opacity:1;stroke-width:0.293192"
   x="0.68604422"
   y="40.060352"
   id="text16794"
   transform="scale(1.378242,0.72556199)"><tspan
     sodipodi:role="line"
     id="tspan16792"
     x="0.68604422"
     y="40.060352"
     style="fill:#131313;fill-opacity:1;stroke-width:0.293192">з</tspan></text><text
   xml:space="preserve"
   style="font-size:12.7487px;line-height:1.25;font-family:'Segoe Script';-inkscape-font-specification:'Segoe Script';fill:#0e0e0e;fill-opacity:1;stroke-width:0.318716"
   x="25.472773"
   y="8.1954908"
   id="text9344"
   transform="scale(0.99886416,1.0011371)"><tspan
     sodipodi:role="line"
     id="tspan9342"
     x="25.472773"
     y="8.1954908"
     style="fill:#0e0e0e;fill-opacity:1;stroke-width:0.318716">c</tspan></text></svg>
