<?xml version="1.0" encoding="UTF-8" standalone="no"?>
<!-- Generator: Adobe Illustrator 19.0.0, SVG Export Plug-In . SVG Version: 6.00 Build 0)  -->

<svg
   version="1.1"
   id="Capa_1"
   x="0px"
   y="0px"
   viewBox="0 0 30 30"
   xml:space="preserve"
   sodipodi:docname="barometer.svg"
   inkscape:version="1.1.1 (3bf5ae0d25, 2021-09-20)"
   width="30"
   height="30"
   xmlns:inkscape="http://www.inkscape.org/namespaces/inkscape"
   xmlns:sodipodi="http://sodipodi.sourceforge.net/DTD/sodipodi-0.dtd"
   xmlns="http://www.w3.org/2000/svg"
   xmlns:svg="http://www.w3.org/2000/svg"><defs
   id="defs920" /><sodipodi:namedview
   id="namedview918"
   pagecolor="#ffffff"
   bordercolor="#666666"
   borderopacity="1.0"
   inkscape:pageshadow="2"
   inkscape:pageopacity="0.0"
   inkscape:pagecheckerboard="0"
   showgrid="false"
   inkscape:zoom="26.551108"
   inkscape:cx="25.159025"
   inkscape:cy="14.217862"
   inkscape:window-width="2400"
   inkscape:window-height="1321"
   inkscape:window-x="2391"
   inkscape:window-y="-9"
   inkscape:window-maximized="1"
   inkscape:current-layer="Capa_1" />
<g
   id="g885"
   transform="matrix(0.06262078,0,0,0.0626156,0.51460195,0.14576521)"
   style="stroke:#272727;stroke-opacity:0.89999998;fill:#bebfb9;fill-opacity:0.58512163;stroke-width:3.1939601;stroke-miterlimit:4;stroke-dasharray:none">
	<path
   d="M 401.17,68.83 C 356.785,24.444 297.771,0 235,0 172.229,0 113.215,24.444 68.83,68.83 24.444,113.216 0,172.229 0,235 0,297.771 24.444,356.784 68.83,401.17 113.215,445.556 172.229,470 235,470 297.771,470 356.785,445.556 401.17,401.17 445.556,356.784 470,297.771 470,235 470,172.229 445.556,113.216 401.17,68.83 Z M 235,455 C 113.691,455 15,356.309 15,235 15,113.691 113.691,15 235,15 c 121.309,0 220,98.691 220,220 0,121.309 -98.691,220 -220,220 z"
   id="path873"
   style="fill:#bebfb9;fill-opacity:0.58512163;stroke:#272727;stroke-opacity:0.89999998;stroke-width:3.1939601;stroke-miterlimit:4;stroke-dasharray:none" />
	<path
   d="M 235,30 C 121.962,30 30,121.963 30,235 30,348.037 121.962,440 235,440 348.038,440 440,348.037 440,235 440,121.963 348.038,30 235,30 Z m 0,395 C 130.234,425 45,339.767 45,235 45,130.233 130.234,45 235,45 c 104.766,0 190,85.233 190,190 0,104.767 -85.234,190 -190,190 z"
   id="path875"
   style="fill:#bebfb9;fill-opacity:0.58512163;stroke:#272727;stroke-opacity:0.89999998;stroke-width:3.1939601;stroke-miterlimit:4;stroke-dasharray:none" />
	<path
   d="m 369.968,157.838 c -0.092,-0.198 -0.19,-0.395 -0.301,-0.588 -0.136,-0.235 -0.283,-0.458 -0.439,-0.673 -13.509,-23.033 -32.772,-42.296 -55.805,-55.805 -0.214,-0.156 -0.438,-0.304 -0.673,-0.439 -0.193,-0.111 -0.389,-0.208 -0.587,-0.301 C 289.41,86.974 263.062,79.5 235,79.5 c -28.063,0 -54.412,7.474 -77.165,20.534 -0.197,0.092 -0.393,0.189 -0.585,0.299 -0.235,0.136 -0.458,0.283 -0.673,0.439 -23.033,13.509 -42.296,32.772 -55.805,55.805 -0.156,0.214 -0.304,0.438 -0.439,0.673 -0.111,0.193 -0.209,0.39 -0.301,0.588 C 86.974,180.59 79.5,206.938 79.5,235 c 0,27.312 7.215,54.195 20.873,77.762 0.385,0.66 3.967,6.332 11.159,2.183 l 20.697,-11.949 c 3.587,-2.071 4.816,-6.658 2.745,-10.245 -2.071,-3.588 -6.658,-4.815 -10.245,-2.745 0,0 -8.613,4.973 -14.966,8.641 -8.874,-17.413 -14.004,-36.571 -15.052,-56.146 H 112 c 4.142,0 7.5,-3.357 7.5,-7.5 0,-4.143 -3.358,-7.5 -7.5,-7.5 H 94.701 c 1.063,-20.119 6.379,-39.128 15.062,-56.146 l 14.966,8.641 c 1.181,0.682 2.471,1.006 3.743,1.006 2.592,0 5.113,-1.345 6.502,-3.751 2.071,-3.587 0.842,-8.174 -2.745,-10.245 l -14.94,-8.625 c 10.696,-16.377 24.713,-30.394 41.09,-41.09 l 8.625,14.939 c 1.389,2.406 3.91,3.751 6.502,3.751 1.272,0 2.562,-0.324 3.743,-1.006 3.587,-2.071 4.816,-6.658 2.745,-10.245 l -8.641,-14.966 C 188.37,101.081 207.38,95.765 227.498,94.702 V 112 c 0,4.143 3.358,7.5 7.5,7.5 4.142,0 7.5,-3.357 7.5,-7.5 V 94.701 c 20.119,1.063 39.128,6.379 56.145,15.062 l -8.641,14.966 c -2.071,3.587 -0.842,8.174 2.745,10.245 1.181,0.682 2.471,1.006 3.743,1.006 2.592,0 5.113,-1.345 6.502,-3.751 l 8.625,-14.939 c 16.377,10.697 30.394,24.713 41.09,41.09 l -14.94,8.625 c -3.587,2.071 -4.816,6.658 -2.745,10.245 1.389,2.406 3.91,3.751 6.502,3.751 1.272,0 2.562,-0.324 3.743,-1.006 l 14.966,-8.641 c 8.683,17.017 13.998,36.027 15.062,56.146 H 358 c -4.142,0 -7.5,3.357 -7.5,7.5 0,4.143 3.358,7.5 7.5,7.5 h 17.29 c -1.048,19.561 -6.172,38.723 -15.034,56.156 l -14.984,-8.651 c -3.588,-2.071 -8.174,-0.843 -10.245,2.745 -2.071,3.587 -0.842,8.174 2.745,10.245 l 21.651,12.5 c 1.181,0.682 2.47,1.006 3.743,1.006 2.59,0 5.11,-1.344 6.5,-3.748 13.63,-23.58 20.835,-50.467 20.835,-77.753 -10e-4,-28.062 -7.475,-54.41 -20.533,-77.162 z"
   id="path877"
   style="stroke:#272727;stroke-opacity:0.89999998;fill:#bebfb9;fill-opacity:0.58512163;stroke-width:3.1939601;stroke-miterlimit:4;stroke-dasharray:none" />
	<path
   d="m 260.554,189.15 c -3.618,-2.01 -8.179,-0.71 -10.192,2.904 l -11.582,20.769 c -1.23,-0.209 -2.491,-0.324 -3.78,-0.324 -12.407,0 -22.5,10.094 -22.5,22.5 0,1.404 0.136,2.776 0.383,4.109 l -62.173,35.896 c -3.587,2.071 -4.816,6.658 -2.745,10.245 1.389,2.406 3.91,3.751 6.502,3.751 1.272,0 2.562,-0.324 3.743,-1.006 l 62.184,-35.902 c 3.934,3.367 9.035,5.407 14.607,5.407 9.66,0 17.915,-6.12 21.098,-14.685 l 23.775,0.354 c 0.038,0.001 0.076,0.001 0.114,0.001 4.085,0 7.429,-3.277 7.497,-7.376 0.157,-9.47 -2.27,-18.821 -7.018,-27.045 -4.748,-8.221 -11.634,-14.998 -19.913,-19.598 z M 235,242.5 c -4.136,0 -7.5,-3.364 -7.5,-7.5 0,-4.136 3.364,-7.5 7.5,-7.5 1.302,0 2.528,0.335 3.596,0.921 0.019,0.011 0.035,0.023 0.054,0.034 2.297,1.29 3.85,3.738 3.85,6.545 0,0.032 -0.004,0.064 -0.005,0.096 -0.063,4.101 -3.398,7.404 -7.495,7.404 z m 21.317,-14.683 c -0.966,-2.858 -2.489,-5.461 -4.443,-7.677 l 7.571,-13.576 c 3.188,2.737 5.908,6.009 8.031,9.686 2.123,3.678 3.596,7.669 4.373,11.799 z"
   id="path879"
   style="stroke:#272727;stroke-opacity:0.89999998;fill:#bebfb9;fill-opacity:0.58512163;stroke-width:3.1939601;stroke-miterlimit:4;stroke-dasharray:none" />
	<path
   d="m 261.147,375.5 h -52.294 c -4.142,0 -7.5,3.357 -7.5,7.5 0,4.143 3.358,7.5 7.5,7.5 h 52.294 c 4.142,0 7.5,-3.357 7.5,-7.5 0,-4.143 -3.358,-7.5 -7.5,-7.5 z"
   id="path881"
   style="stroke:#272727;stroke-opacity:0.89999998;fill:#bebfb9;fill-opacity:0.58512163;stroke-width:3.1939601;stroke-miterlimit:4;stroke-dasharray:none" />
	<path
   d="m 251.147,360.5 c 4.142,0 7.5,-3.357 7.5,-7.5 0,-4.143 -3.358,-7.5 -7.5,-7.5 h -32.294 c -4.142,0 -7.5,3.357 -7.5,7.5 0,4.143 3.358,7.5 7.5,7.5 z"
   id="path883"
   style="stroke:#272727;stroke-opacity:0.89999998;fill:#bebfb9;fill-opacity:0.58512163;stroke-width:3.1939601;stroke-miterlimit:4;stroke-dasharray:none" />
</g>
<g
   id="g887">
</g>
<g
   id="g889">
</g>
<g
   id="g891">
</g>
<g
   id="g893">
</g>
<g
   id="g895">
</g>
<g
   id="g897">
</g>
<g
   id="g899">
</g>
<g
   id="g901">
</g>
<g
   id="g903">
</g>
<g
   id="g905">
</g>
<g
   id="g907">
</g>
<g
   id="g909">
</g>
<g
   id="g911">
</g>
<g
   id="g913">
</g>
<g
   id="g915">
</g>
<path
   style="fill:#c2c7ad;fill-opacity:1;stroke:#dedede;stroke-width:0.0155465;stroke-opacity:0.89999998"
   d="M 14.646731,28.61098 C 12.267664,28.46573 10.284888,27.884768 8.3413971,26.763499 5.3020559,25.009989 2.982765,22.046117 2.0101131,18.672607 0.93248655,14.935011 1.4971752,10.879985 3.552323,7.5980061 4.4983454,6.087254 5.7860144,4.7114736 7.2127406,3.6871181 9.1784831,2.2757614 11.475541,1.4120986 13.929747,1.1616172 c 0.584136,-0.059621 2.022624,-0.060276 2.603783,-0.00119 2.838582,0.2885813 5.417485,1.3795844 7.58241,3.20774 1.924398,1.6250435 3.411955,3.8330389 4.196971,6.2296088 0.689677,2.105512 0.852653,4.457433 0.462801,6.678718 -0.582052,3.316401 -2.423367,6.348612 -5.140268,8.464813 -1.988663,1.548975 -4.404223,2.523326 -6.932102,2.796166 -0.528634,0.05706 -1.66238,0.09758 -2.056611,0.07352 z m 2.000007,-0.979347 c 2.084224,-0.234639 3.953251,-0.912492 5.678732,-2.059553 0.773625,-0.514291 1.286428,-0.936656 1.983623,-1.633791 0.869266,-0.869194 1.506284,-1.695928 2.093664,-2.717195 2.061358,-3.584033 2.233774,-8.088667 0.453568,-11.8501284 C 26.217402,8.020964 25.417377,6.8956223 24.307818,5.7861555 23.591091,5.0694851 23.065508,4.6368934 22.288268,4.1239142 18.743158,1.7841369 14.272424,1.3551583 10.32821,2.9763279 7.721654,4.0476829 5.4624084,6.0382864 4.0549996,8.5035948 2.1822629,11.78401 1.8592457,15.799454 3.1823303,19.351799 c 0.4602038,1.235597 1.1766102,2.491593 2.0338673,3.565755 0.4268012,0.534793 1.4276459,1.535072 1.9588073,1.957705 2.7153402,2.160538 6.0763201,3.138617 9.4717331,2.756374 z"
   id="path1778" /><path
   style="fill:#48a9c7;fill-opacity:1;stroke:#dedede;stroke-width:0;stroke-miterlimit:4;stroke-dasharray:none;stroke-opacity:0.9"
   d="m 14.604827,26.747608 c -2.979848,-0.207612 -5.5311162,-1.330194 -7.6181982,-3.352075 -1.486359,-1.439929 -2.561986,-3.215069 -3.137215,-5.177448 -1.08722,-3.709025 -0.30657,-7.672586 2.112746,-10.7269612 0.403072,-0.508876 1.379004,-1.484727 1.887923,-1.88777 0.796946,-0.63114 1.756072,-1.2092566 2.6603882,-1.6035546 2.675027,-1.166365 5.674696,-1.305986 8.439958,-0.392847 5.359694,1.7698646 8.750059,7.0851628 8.085346,12.6759338 -0.516932,4.347816 -3.414313,8.077341 -7.517697,9.676816 -1.536408,0.598887 -3.380879,0.894669 -4.913251,0.787906 z m 2.550436,-2.187958 c 0.280155,-0.183551 0.267702,-0.674659 -0.02088,-0.823883 -0.165777,-0.08572 -3.610294,-0.08572 -3.77607,0 -0.136273,0.07046 -0.225182,0.234331 -0.225182,0.415027 0,0.16671 0.05114,0.27468 0.182802,0.38597 l 0.10022,0.08471 1.822088,1.77e-4 c 1.629233,1.26e-4 1.832139,-0.0064 1.917032,-0.06202 z m -0.725364,-1.838738 c 0.145664,-0.06087 0.273458,-0.21027 0.305808,-0.357549 0.03605,-0.164105 -0.05714,-0.387398 -0.202491,-0.485201 -0.126647,-0.08521 -0.14241,-0.08628 -1.283021,-0.08614 -1.091711,1.25e-4 -1.161628,0.0043 -1.279716,0.0763 -0.320502,0.195385 -0.296301,0.658726 0.04317,0.826751 0.147586,0.07305 0.222504,0.07782 1.224458,0.07784 0.82167,2.8e-5 1.09591,-0.01195 1.191783,-0.05199 z M 8.1519708,19.549626 c 0.792118,-0.457319 0.905783,-0.559028 0.905523,-0.810251 -3.08e-4,-0.286202 -0.257051,-0.520435 -0.530303,-0.483787 -0.08058,0.0108 -0.348291,0.139858 -0.625936,0.301734 l -0.485136,0.28285 -0.08021,-0.15609 c -0.163321,-0.317848 -0.43014,-1.038303 -0.559864,-1.511727 -0.129678,-0.47326 -0.283841,-1.36867 -0.284257,-1.651021 l -2.06e-4,-0.138961 0.62002,-0.01195 c 0.709907,-0.01369 0.787822,-0.04237 0.888257,-0.326688 0.04877,-0.138045 0.04877,-0.17585 0,-0.313896 -0.100586,-0.284749 -0.17776,-0.312971 -0.893466,-0.326754 l -0.625227,-0.01203 0.02516,-0.308691 c 0.07434,-0.912299 0.383433,-2.061849 0.769787,-2.862968 l 0.140005,-0.290304 0.482723,0.283505 c 0.532254,0.312591 0.660388,0.351792 0.867308,0.265342 0.197429,-0.08249 0.299737,-0.260818 0.280138,-0.488298 -0.02067,-0.239959 -0.0878,-0.304747 -0.65274,-0.629956 -0.257397,-0.148172 -0.467993,-0.281467 -0.467993,-0.296211 0,-0.0909 0.697779,-0.9354768 1.129645,-1.3673088 0.479268,-0.4792274 1.2977212,-1.1443294 1.3760482,-1.1182274 0.01924,0.0064 0.150217,0.213254 0.291057,0.459641 0.140836,0.246387 0.297862,0.489769 0.348946,0.540848 0.131157,0.1311444 0.412007,0.1532954 0.583005,0.04598 0.148427,-0.09315 0.248692,-0.308596 0.221526,-0.475996 -0.0107,-0.06592 -0.147326,-0.338399 -0.303619,-0.605519 l -0.284168,-0.485684 0.290487,-0.139994 c 0.801972,-0.386492 1.951066,-0.695389 2.863359,-0.769721 l 0.308715,-0.02515 0.01204,0.625174 c 0.01378,0.715647 0.04201,0.792816 0.326783,0.893391 0.138056,0.04876 0.175864,0.04876 0.313919,0 0.284754,-0.100567 0.312999,-0.177767 0.326778,-0.893161 l 0.01204,-0.624942 0.326039,0.02647 c 0.912923,0.07406 2.222997,0.437634 2.970213,0.824283 l 0.161702,0.08367 -0.284061,0.48714 c -0.330796,0.567284 -0.36866,0.720975 -0.228459,0.927291 0.121103,0.1782124 0.238501,0.2332504 0.458392,0.2148914 0.235735,-0.01968 0.29383,-0.08006 0.622273,-0.6467624 0.143854,-0.248206 0.276549,-0.456284 0.294877,-0.462393 0.07743,-0.02581 0.900815,0.644701 1.373485,1.1184594 0.432206,0.433202 1.130544,1.277986 1.130544,1.3676268 0,0.01475 -0.210597,0.14804 -0.467992,0.296212 -0.600027,0.345411 -0.645219,0.39292 -0.645219,0.678353 0,0.253873 0.08739,0.38201 0.310816,0.455741 0.19282,0.06363 0.299373,0.02729 0.829406,-0.282748 l 0.482427,-0.282207 0.136524,0.290437 c 0.403533,0.858461 0.696084,1.947244 0.774368,2.881964 l 0.02427,0.289822 -0.625336,0.01203 c -0.715827,0.01378 -0.792985,0.042 -0.893574,0.326759 -0.04877,0.138041 -0.04877,0.17585 0,0.313892 0.100436,0.284322 0.17835,0.312978 0.888258,0.326688 l 0.620019,0.01195 -7.34e-4,0.12009 c -0.0011,0.20092 -0.102354,0.890406 -0.188687,1.286571 -0.104447,0.479277 -0.328448,1.155799 -0.550732,1.663322 -0.168614,0.384983 -0.177569,0.397166 -0.255037,0.34705 -0.04415,-0.02857 -0.266211,-0.15897 -0.493456,-0.289793 -0.4893,-0.281675 -0.652294,-0.316547 -0.850434,-0.181921 -0.179277,0.121806 -0.233301,0.238194 -0.214541,0.462183 0.01227,0.146523 0.03886,0.207189 0.124236,0.283428 0.138323,0.123525 1.473059,0.89325 1.607388,0.926962 0.144371,0.03621 0.350663,-0.04327 0.465085,-0.179247 0.209021,-0.24839 0.6801,-1.287751 0.902435,-1.991086 0.307209,-0.971828 0.437499,-1.857277 0.437499,-2.973238 0,-1.52743 -0.315939,-2.897656 -0.980548,-4.25261 -1.405635,-2.8657072 -4.0983,-4.8537062 -7.257143,-5.3579562 -0.839938,-0.134083 -2.160224,-0.134083 -3.000162,0 -0.9758,0.155778 -1.891901,0.447165 -2.782959,0.885192 -1.9815312,0.974083 -3.5068742,2.499065 -4.4738292,4.4727762 -0.588616,1.20146 -0.902007,2.392693 -0.976024,3.70998 -0.09473,1.685954 0.223084,3.300951 0.943908,4.796498 0.144432,0.299667 0.306811,0.602799 0.360841,0.67363 0.124509,0.163229 0.294007,0.24038 0.465853,0.212045 0.07264,-0.01195 0.463209,-0.212955 0.867927,-0.446616 z m 4.2042372,-2.425792 1.958946,-1.132104 0.173138,0.106629 c 0.190734,0.117468 0.548144,0.222257 0.758048,0.222257 0.501883,0 1.06073,-0.347177 1.272584,-0.790575 l 0.06441,-0.134812 0.779251,0.01409 c 0.682217,0.01234 0.796536,0.0058 0.918075,-0.05177 0.207695,-0.09855 0.265723,-0.239514 0.255711,-0.621169 -0.02714,-1.034397 -0.591564,-2.034047 -1.474112,-2.610798 -0.219049,-0.143154 -0.311597,-0.181929 -0.433963,-0.181816 -0.275303,1.83e-4 -0.348571,0.07941 -0.771528,0.833477 l -0.389576,0.694562 -0.270805,0.0046 c -0.39926,0.0068 -0.667513,0.121348 -0.953353,0.407166 -0.290865,0.29084 -0.402325,0.554899 -0.407928,0.966426 l -0.0039,0.283935 -1.991589,1.14953 c -1.8906082,1.09124 -1.9953712,1.157329 -2.0660532,1.303327 -0.09023,0.186376 -0.09068,0.201098 -0.01215,0.397359 0.08372,0.209212 0.2433382,0.307624 0.4659932,0.287309 0.139964,-0.01276 0.514141,-0.21449 2.128757,-1.147597 z"
   id="path1817" /><path
   style="fill:#48a9c7;fill-opacity:1;stroke:#dedede;stroke-width:0.0155465;stroke-opacity:0.89999998"
   d="m 16.535047,14.274536 c -0.03086,-0.07384 -0.09169,-0.184234 -0.135191,-0.245323 l -0.07909,-0.111066 0.160645,-0.292373 c 0.08835,-0.160802 0.190562,-0.342148 0.227122,-0.402984 l 0.06648,-0.110621 0.154054,0.167218 c 0.215743,0.234176 0.359325,0.466928 0.470908,0.763349 0.145282,0.385949 0.164658,0.366053 -0.356495,0.366053 h -0.452325 z"
   id="path1856" /><path
   style="fill:#48a9c7;fill-opacity:1;stroke:#dedede;stroke-width:0.0155465;stroke-opacity:0.89999998"
   d="m 15.016489,15.240442 c -0.129978,-0.07924 -0.237682,-0.25092 -0.237682,-0.378855 0,-0.202877 0.245385,-0.452329 0.445271,-0.452654 0.213628,-3.62e-4 0.46011,0.24214 0.46011,0.452654 0,0.210511 -0.246482,0.453001 -0.46011,0.452653 -0.04772,-6.4e-5 -0.141144,-0.03331 -0.207589,-0.07379 z"
   id="path1895" /></svg>
