<?xml version="1.0" encoding="UTF-8" standalone="no"?>
<svg
   enable-background="new 0 0 320 320"
   id="Layer_1"
   version="1.1"
   viewBox="0 0 25 25"
   xml:space="preserve"
   sodipodi:docname="humidityIcon.svg"
   width="25"
   height="25"
   inkscape:version="1.1.1 (3bf5ae0d25, 2021-09-20)"
   xmlns:inkscape="http://www.inkscape.org/namespaces/inkscape"
   xmlns:sodipodi="http://sodipodi.sourceforge.net/DTD/sodipodi-0.dtd"
   xmlns="http://www.w3.org/2000/svg"
   xmlns:svg="http://www.w3.org/2000/svg"><defs
     id="defs868" /><sodipodi:namedview
     id="namedview866"
     pagecolor="#ffffff"
     bordercolor="#666666"
     borderopacity="1.0"
     inkscape:pageshadow="2"
     inkscape:pageopacity="0.0"
     inkscape:pagecheckerboard="0"
     showgrid="false"
     inkscape:zoom="13.7875"
     inkscape:cx="33.726201"
     inkscape:cy="34.052584"
     inkscape:window-width="2400"
     inkscape:window-height="1321"
     inkscape:window-x="2391"
     inkscape:window-y="-9"
     inkscape:window-maximized="1"
     inkscape:current-layer="g863"
     inkscape:snap-global="false" /><g
     id="g863"
     transform="matrix(0.18157738,0,0,0.17476957,29.310937,-20.869104)"><g
       id="g849"
       transform="matrix(0.6985411,0,0,0.71163167,-205.17407,-99.722969)"
       style="fill:#539eac;fill-opacity:1"><path
         d="m 258.59838,426.72033 c 0,43.1 -31.9504,78.1 -71.49933,78.1 -39.54892,0 -71.40778,-35 -71.40778,-78.1 0,-43.1 71.40778,-117.2 71.40778,-117.2 0,0 71.49933,74 71.49933,117.2 z"
         fill="#43B1BF"
         id="path847"
         style="fill:#539eac;fill-opacity:1;stroke-width:0.956809" /></g><g
       id="g853"
       transform="matrix(0.61480657,0,0,0.70421896,-173.15784,78.518231)"
       style="fill:#97bfcd;fill-opacity:1"><path
         d="m 169.8,248.2 c -43.1,0 -78.1,-35 -78.1,-78.1 0,-33.5 46.8,-85.4 67.9,-107 C 155.3,67.2 82,138 82,179.9 c 0,43.1 34.9,78.1 78,78.1 24,0 45.5,-10.9 59.8,-28 -13.5,11.4 -31,18.2 -50,18.2 z"
         fill="#66D0D8"
         id="path851"
         style="fill:#97bfcd;fill-opacity:1" /></g><g
       id="g857"
       transform="matrix(0.64010602,0,0,0.71954013,-176.89465,75.824568)"><path
         d="m 160,260 c -44.1,0 -80,-35.9 -80,-80.1 0,-14.3 8.2,-33.2 24.4,-56.2 l 3.2,2.3 c -15.7,22.4 -23.7,40.5 -23.7,54 0,42 34.1,76.2 76.1,76.2 42,0 76.1,-34.2 76.1,-76.2 0,-38.8 -65.8,-104.4 -76.1,-114.5 -4.7,4.6 -21.3,21 -37.6,41.1 l -3,-2.5 c 19.4,-23.8 39.1,-42.5 39.3,-42.7 l 1.3,-1.4 1.3,1.3 c 3.2,3 78.7,75.1 78.7,118.6 0,44.1 -35.9,80.1 -80,80.1 z"
         id="path855"
         style="fill:#e4e5e7;fill-opacity:0.9" /></g><g
       id="g861"
       transform="matrix(0.40827708,0,0,0.3718441,-152.29636,146.56025)"
       style="fill:#539fac;fill-opacity:1"><circle
         cx="135.60001"
         cy="204.3"
         fill="#66D0D8"
         id="ellipse859"
         style="fill:#539fac;fill-opacity:1"
         r="14.6" /></g><text
       xml:space="preserve"
       style="font-size:123.643px;line-height:1.25;font-family:'Segoe Script';-inkscape-font-specification:'Segoe Script';fill:#cddcd9;fill-opacity:1;stroke-width:3.09109"
       x="-124.93705"
       y="221.82982"
       id="text14840"
       transform="scale(0.89708073,1.1147269)"><tspan
         sodipodi:role="line"
         id="tspan14838"
         style="fill:#cddcd9;fill-opacity:1;stroke-width:3.09109"
         x="-124.93705"
         y="221.82982">%</tspan></text></g></svg>
