<?xml version="1.0" encoding="UTF-8" standalone="no"?>
<!-- Created with Inkscape (http://www.inkscape.org/) -->

<svg
   width="35"
   height="35"
   viewBox="0 0 9.2604164 9.2604172"
   version="1.1"
   id="svg3335"
   inkscape:version="1.1.1 (3bf5ae0d25, 2021-09-20)"
   sodipodi:docname="hurricaneWind.svg"
   xmlns:inkscape="http://www.inkscape.org/namespaces/inkscape"
   xmlns:sodipodi="http://sodipodi.sourceforge.net/DTD/sodipodi-0.dtd"
   xmlns="http://www.w3.org/2000/svg"
   xmlns:svg="http://www.w3.org/2000/svg">
  <sodipodi:namedview
     id="namedview3337"
     pagecolor="#ffffff"
     bordercolor="#666666"
     borderopacity="1.0"
     inkscape:pageshadow="2"
     inkscape:pageopacity="0.0"
     inkscape:pagecheckerboard="0"
     inkscape:document-units="mm"
     showgrid="false"
     units="px"
     inkscape:zoom="24.573288"
     inkscape:cx="24.050506"
     inkscape:cy="13.246091"
     inkscape:window-width="2400"
     inkscape:window-height="1321"
     inkscape:window-x="2391"
     inkscape:window-y="-9"
     inkscape:window-maximized="1"
     inkscape:current-layer="layer1" />
  <defs
     id="defs3332" />
  <g
     inkscape:label="Слой 1"
     inkscape:groupmode="layer"
     id="layer1">
    <path
       style="fill:#6285ac;fill-opacity:1;stroke:#e4e7e7;stroke-width:0.135121;stroke-miterlimit:4;stroke-dasharray:none;stroke-opacity:0.9"
       d="M 5.666741,9.1190401 C 5.5100855,9.0825995 5.3229909,9.0033819 5.1984348,8.9207507 4.9867034,8.7802876 4.7940316,8.5468541 4.706882,8.3252046 4.6542462,8.191335 4.6203716,7.9542743 4.6370691,7.8366418 l 0.00558,-0.039291 0.3285117,0.034653 0.3285117,0.034653 0.00317,0.020726 c 0.00174,0.011399 0.00178,0.030938 8.99e-5,0.043417 -0.00587,0.04324 0.012123,0.1326807 0.042777,0.2125819 0.044546,0.1161144 0.1462889,0.2305778 0.2694666,0.3031555 0.194566,0.1146412 0.4087915,0.137206 0.6293933,0.066294 0.082244,-0.026435 0.1187666,-0.04487 0.1972475,-0.099548 C 6.6007708,8.3025308 6.6769485,8.1812056 6.7030694,7.9971861 6.7193001,7.8828429 6.7084693,7.7998424 6.6628557,7.6889734 6.6064141,7.5517843 6.4583384,7.4124445 6.3034471,7.3507652 6.2248923,7.3194848 5.6575839,7.2529807 3.732305,7.0493596 L 1.9765976,6.8636629 2.0184205,6.56902 2.0602434,6.2743774 4.2164258,6.5018002 6.372608,6.7292229 6.4923622,6.772806 C 6.7659184,6.8723628 6.9410243,6.9908345 7.1068386,7.1885428 7.2662913,7.3786659 7.3526124,7.5806575 7.3783247,7.8238211 7.3927511,7.9602385 7.361134,8.1823115 7.3086077,8.3134194 7.2160134,8.5445746 7.0730225,8.7222686 6.8555725,8.8764087 6.6212133,9.0425353 6.3844819,9.126871 6.0946802,9.1474775 5.9781458,9.1557637 5.7632284,9.141484 5.6667374,9.1190398 Z"
       id="path2995" />
    <path
       style="fill:#6285ac;fill-opacity:1;stroke:#e4e7e7;stroke-width:0.141878;stroke-miterlimit:4;stroke-dasharray:none;stroke-opacity:0.9"
       d="M 0.93672661,6.3928907 0.96896599,6.1064491 1.3423938,6.1601444 1.7158217,6.2138395 1.6835823,6.500281 1.6513429,6.7867225 1.2779149,6.7330273 0.90448723,6.6793321 Z"
       id="path3034"
       inkscape:transform-center-x="-0.046703833"
       inkscape:transform-center-y="-0.076536284" />
    <path
       style="fill:#6285ac;fill-opacity:1;stroke:#e4e7e7;stroke-width:0.15471;stroke-miterlimit:4;stroke-dasharray:none;stroke-opacity:0.9"
       d="m 7.8235055,7.1823188 9.5e-6,-0.3961869 0.2086863,-0.00875 c 0.2003189,-0.0084 0.2110366,-0.010084 0.2672952,-0.042115 0.073828,-0.042029 0.1288353,-0.1078056 0.1655799,-0.1979941 0.025803,-0.063332 0.028672,-0.082337 0.028668,-0.189903 -5.2e-6,-0.107639 -0.00276,-0.1258114 -0.027643,-0.1826891 -0.036663,-0.083776 -0.09264,-0.1492571 -0.1654007,-0.19347 l -0.059582,-0.036207 -1.9290791,-2.9e-6 c -1.0609932,-2e-6 -2.8506557,-0.00358 -3.9770277,-0.00795 L 0.28706188,5.9190866 V 5.5266287 5.1341706 H 4.2964726 8.3058831 l 0.0989,0.037158 c 0.1865774,0.070097 0.3157127,0.1579988 0.4349705,0.29608 C 8.96973,5.6179011 9.0561156,5.7826376 9.113164,5.9887929 9.2661993,6.5418184 9.0430359,7.1719488 8.5991,7.4403422 8.4321025,7.5413048 8.305022,7.569701 7.9947883,7.5753737 l -0.1712925,0.00313 z"
       id="path2956" />
    <path
       style="fill:#6285ac;fill-opacity:1;stroke:#e4e7e7;stroke-width:0.126347;stroke-miterlimit:4;stroke-dasharray:none;stroke-opacity:0.9"
       d="m 7.9596877,3.2452889 -8.817e-4,0.2937585 0.1866266,0.00734 c 0.1793136,0.00704 0.1886884,0.00834 0.2392552,0.03253 C 8.4870876,3.6279254 8.5504431,3.7204743 8.559645,3.8344902 8.564915,3.8997912 8.548664,3.9767679 8.51978,4.0233518 8.49093,4.0698748 8.431539,4.1240112 8.3818007,4.1491231 l -0.050949,0.025723 -0.7938044,-0.00349 c -0.4365927,-0.00192 -1.2109269,-0.00267 -1.7207431,-0.00164 l -0.9269388,0.00184 -8.734e-4,0.2923064 -8.734e-4,0.2923171 1.589327,0.00636 c 0.8741295,0.00351 1.6733591,0.00354 1.7760655,7.72e-5 0.1703403,-0.00573 0.1929919,-0.00842 0.2579433,-0.03053 0.2065893,-0.070346 0.381214,-0.2012023 0.4901675,-0.3673216 0.052086,-0.079392 0.077827,-0.1322875 0.112496,-0.2309757 l 0.029656,-0.084445 8.652e-4,-0.1780513 C 9.1450888,3.6766684 9.1418945,3.6577368 9.0836867,3.5182987 9.0214032,3.3689714 8.8893355,3.2048446 8.7613956,3.1177754 8.680514,3.0627289 8.5541711,3.0043772 8.4669068,2.9817606 8.4036755,2.9653704 8.3576228,2.9614366 8.1761738,2.9569077 L 7.960572,2.9515377 7.9596903,3.2452926 Z"
       id="path2917" />
    <path
       style="fill:#6285ac;fill-opacity:1;stroke:#e4e7e7;stroke-width:0.111758;stroke-miterlimit:4;stroke-dasharray:none;stroke-opacity:0.9"
       d="M 1.7990932,4.4607079 V 4.1865321 h 1.312602 1.3126019 v 0.2741758 0.274176 H 3.1116952 1.7990932 Z"
       id="path2878" />
    <path
       style="fill:#6285ac;fill-opacity:1;stroke:#e4e7e7;stroke-width:0.0741809;stroke-miterlimit:4;stroke-dasharray:none;stroke-opacity:0.9"
       d="M 0.39533979,4.4710605 V 4.212316 H 0.82906762 1.2627954 V 4.4710605 4.7298052 H 0.82906762 0.39533979 Z"
       id="path2839" />
    <path
       style="fill:#6285ac;fill-opacity:1;stroke:#e4e7e7;stroke-width:0.145031;stroke-miterlimit:4;stroke-dasharray:none;stroke-opacity:0.9"
       d="M 0.21761418,3.4380836 0.18237371,3.0466235 3.8448194,2.7408476 C 7.4564838,2.4393113 7.5082548,2.4346724 7.5786639,2.4062825 7.9411457,2.2601263 8.113588,1.7630379 7.9497086,1.3366958 7.9041245,1.2181062 7.8528593,1.1390723 7.76026,1.0446291 7.6146512,0.89612048 7.4625776,0.83515405 7.2763788,0.85064084 7.1611871,0.8602217 7.0769263,0.89067265 6.9896519,0.95426131 6.8588085,1.0495942 6.764241,1.189475 6.7161229,1.3588541 6.6909631,1.4474207 6.674256,1.5838093 6.6803182,1.6511498 l 0.00368,0.040892 -0.3257833,0.0272 -0.3257832,0.0272 -0.00295,-0.1070226 C 6.0187913,1.250199 6.1274438,0.8803308 6.3386215,0.58710658 6.4355613,0.45250319 6.5273929,0.35957054 6.6476996,0.27432245 7.0513132,-0.01167479 7.552761,-0.00654885 7.9786963,0.28792816 8.0897811,0.36472812 8.26633,0.54661116 8.3492679,0.6696954 8.5259874,0.93195763 8.6236922,1.2095645 8.6532612,1.5334261 8.6825724,1.8546056 8.6379077,2.1415769 8.5142426,2.4263778 8.357612,2.7870984 8.1011899,3.03743 7.7453648,3.1769935 7.6844024,3.2009037 7.4497714,3.2219555 3.9666115,3.5160156 L 0.25285483,3.8295457 Z"
       id="path2455" />
  </g>
</svg>
