<?xml version="1.0" encoding="UTF-8" standalone="no"?>
<!-- Created with Inkscape (http://www.inkscape.org/) -->

<svg
   width="35"
   height="35"
   viewBox="0 0 9.2604168 9.2604166"
   version="1.1"
   id="svg15674"
   inkscape:version="1.1.1 (3bf5ae0d25, 2021-09-20)"
   sodipodi:docname="middeleWind.svg"
   xmlns:inkscape="http://www.inkscape.org/namespaces/inkscape"
   xmlns:sodipodi="http://sodipodi.sourceforge.net/DTD/sodipodi-0.dtd"
   xmlns="http://www.w3.org/2000/svg"
   xmlns:svg="http://www.w3.org/2000/svg">
  <sodipodi:namedview
     id="namedview15676"
     pagecolor="#ffffff"
     bordercolor="#666666"
     borderopacity="1.0"
     inkscape:pageshadow="2"
     inkscape:pageopacity="0.0"
     inkscape:pagecheckerboard="0"
     inkscape:document-units="mm"
     showgrid="false"
     units="px"
     inkscape:zoom="24.573288"
     inkscape:cx="17.01034"
     inkscape:cy="17.234161"
     inkscape:window-width="2400"
     inkscape:window-height="1321"
     inkscape:window-x="2391"
     inkscape:window-y="-9"
     inkscape:window-maximized="1"
     inkscape:current-layer="layer1" />
  <defs
     id="defs15671" />
  <g
     inkscape:label="Слой 1"
     inkscape:groupmode="layer"
     id="layer1">
    <path
       style="fill:#6585aa;fill-opacity:1;stroke:#e4e7e7;stroke-width:0.155181;stroke-miterlimit:4;stroke-dasharray:none;stroke-opacity:0.9"
       d="M 5.7304013,7.9939801 C 5.6319997,7.9595832 5.5102114,7.8907878 5.4176601,7.8170526 5.3345123,7.7507868 5.2138957,7.6076495 5.1892697,7.5458861 5.1242037,7.3826674 5.1948406,7.1767386 5.3470456,7.085653 5.3878206,7.061204 5.4143836,7.054456 5.4689687,7.054456 c 0.096915,0 0.1262217,0.013488 0.2246372,0.097122 0.047301,0.040637 0.1033569,0.082284 0.1245651,0.092739 0.098744,0.048732 0.2692635,0.041984 0.3633115,-0.013488 0.064511,-0.038611 0.14365,-0.1291597 0.1737987,-0.1989832 0.024864,-0.057499 0.046172,-0.2360264 0.036776,-0.3082269 C 6.3762469,6.6020477 6.2708052,6.4393852 6.1655474,6.3741821 l -0.051385,-0.03187 -2.8705114,-0.00843 -2.87051226,-0.00843 -0.042717,-0.025796 C 0.27166771,6.2642446 0.17354706,6.1511049 0.14834551,6.0896282 0.12039525,6.0215082 0.11983892,5.8794163 0.1472568,5.80816 0.17214967,5.7434123 0.23347468,5.6633204 0.29138239,5.6196995 l 0.0456875,-0.034397 H 3.2577043 6.1783387 l 0.078378,0.030183 c 0.3125314,0.1203911 0.561756,0.3739026 0.6900644,0.7017567 0.066024,0.1687158 0.08192,0.2668495 0.081906,0.5056922 -5.8e-6,0.1850709 -0.00301,0.2248133 -0.023578,0.3094244 C 6.9264308,7.4564539 6.7196086,7.7475671 6.457269,7.9035017 6.3031106,7.9950588 6.1768187,8.0247351 5.9448378,8.023555 5.8391245,8.0230156 5.800768,8.016827 5.7303977,7.9930321 Z"
       id="path14726"
       inkscape:transform-center-x="4.1826194"
       inkscape:transform-center-y="-4.0666987" />
    <path
       style="fill:#6585aa;fill-opacity:1;stroke:#e4e7e7;stroke-width:0.156884;stroke-miterlimit:4;stroke-dasharray:none;stroke-opacity:0.9"
       d="M 0.35106203,5.0062778 C 0.28827333,4.9860969 0.23896823,4.9484714 0.18620464,4.8805745 0.12426541,4.8007058 0.10152685,4.7326379 0.1018137,4.6279365 0.10222808,4.4716197 0.179124,4.3324567 0.30241156,4.2647993 l 0.0647029,-0.035574 3.90951764,-0.00683 3.9095162,-0.00683 0.05922,-0.034546 C 8.362599,4.112587 8.4189981,4.0140767 8.4393446,3.8626513 8.4820428,3.5450067 8.2756228,3.2472866 8.011286,3.298423 7.9330558,3.3138152 7.8727705,3.3488753 7.8092246,3.4167722 7.6779045,3.5570126 7.5065725,3.5775356 7.3690126,3.4692768 7.2374479,3.3656357 7.1926883,3.1437823 7.2658563,2.9577926 7.3051013,2.8580851 7.4761957,2.6920541 7.6255997,2.6088506 7.7833448,2.5209436 7.8474606,2.5062356 8.0722402,2.5060646 8.2577475,2.5059448 8.2743464,2.5077705 8.3622177,2.5399276 8.6631126,2.6495547 8.9056348,2.8914352 9.044725,3.220795 9.1721877,3.5226197 9.180621,3.9259137 9.066208,4.2486548 8.9555934,4.5607239 8.6961129,4.8422652 8.4165967,4.9534999 8.2352313,5.0256725 8.4812567,5.0217394 4.2662794,5.0208839 1.2446447,5.0203025 0.38787706,5.0174549 0.35107143,5.005492 Z"
       id="path974"
       sodipodi:nodetypes="cssscccsssssssscsssccc" />
  </g>
</svg>
