<?xml version="1.0" encoding="UTF-8" standalone="no"?>
<!-- Created with Inkscape (http://www.inkscape.org/) -->

<svg
   width="35"
   height="35"
   viewBox="0 0 9.2604153 9.2604156"
   version="1.1"
   id="svg15674"
   inkscape:version="1.1.1 (3bf5ae0d25, 2021-09-20)"
   sodipodi:docname="strongWind.svg"
   xmlns:inkscape="http://www.inkscape.org/namespaces/inkscape"
   xmlns:sodipodi="http://sodipodi.sourceforge.net/DTD/sodipodi-0.dtd"
   xmlns="http://www.w3.org/2000/svg"
   xmlns:svg="http://www.w3.org/2000/svg">
  <sodipodi:namedview
     id="namedview15676"
     pagecolor="#ffffff"
     bordercolor="#666666"
     borderopacity="1.0"
     inkscape:pageshadow="2"
     inkscape:pageopacity="0.0"
     inkscape:pagecheckerboard="0"
     inkscape:document-units="mm"
     showgrid="false"
     units="px"
     inkscape:zoom="17.375939"
     inkscape:cx="26.876246"
     inkscape:cy="21.207487"
     inkscape:window-width="2400"
     inkscape:window-height="1321"
     inkscape:window-x="2391"
     inkscape:window-y="-9"
     inkscape:window-maximized="1"
     inkscape:current-layer="layer1"
     height="35px" />
  <defs
     id="defs15671" />
  <g
     inkscape:label="Слой 1"
     inkscape:groupmode="layer"
     id="layer1">
    <path
       style="fill:#6585aa;fill-opacity:1;stroke:#e4e7e7;stroke-width:0.193106;stroke-miterlimit:4;stroke-dasharray:none;stroke-opacity:0.9"
       d="M 7.3733119,8.9061154 C 7.2459049,8.8568975 7.0903404,8.7654415 6.973858,8.6709516 6.8692129,8.5860359 6.7212162,8.4081024 6.6936344,8.3338756 6.6207612,8.1377199 6.7308836,7.9044449 6.9396387,7.8125173 c 0.055926,-0.024683 0.091617,-0.030068 0.1638373,-0.024989 0.1282247,0.00902 0.1659073,0.027453 0.2893468,0.1340167 0.059294,0.051729 0.130087,0.105452 0.1573004,0.1196017 0.1267002,0.065945 0.3528536,0.073954 0.481776,0.018093 C 8.1203787,8.0202676 8.2324128,7.9221738 8.2779538,7.8436551 8.3155049,7.779001 8.3581456,7.573049 8.3515658,7.4880829 8.3404853,7.3450149 8.2141471,7.1457516 8.0801626,7.0600165 L 8.0147578,7.0181157 4.2175712,6.7412444 0.42038305,6.4643727 0.36595423,6.4303515 C 0.29108522,6.3836443 0.1704243,6.2427406 0.14205781,6.1687938 0.11059217,6.0868537 0.12135869,5.921307 0.16340268,5.8408648 0.20157896,5.7677682 0.28919948,5.6801901 0.36934626,5.6347724 l 0.063232,-0.035811 3.86418494,0.2717154 3.8641851,0.2717155 0.1012567,0.042445 c 0.4037525,0.1692945 0.7129695,0.4877474 0.8561906,0.8815377 0.073703,0.2026468 0.086782,0.3184219 0.06743,0.596602 C 9.1708367,7.8785295 9.1636312,7.9245371 9.1295837,8.0211713 8.9992499,8.3913265 8.7020447,8.7111457 8.3423298,8.8683577 8.1309563,8.9606525 7.961462,8.9834671 7.654632,8.960511 7.5148105,8.9500478 7.464563,8.939275 7.3733852,8.9050091 Z"
       id="path14726"
       inkscape:transform-center-x="5.1674649"
       inkscape:transform-center-y="-5.1621464" />
    <path
       style="fill:#6585aa;fill-opacity:1;stroke:#e4e7e7;stroke-width:0.161785;stroke-miterlimit:4;stroke-dasharray:none;stroke-opacity:0.9"
       d="M 0.36420656,5.2601677 C 0.30159874,5.2386441 0.25243566,5.1985155 0.19982406,5.1261015 0.13806326,5.0409193 0.1153902,4.9683229 0.11567622,4.8566559 0.11608941,4.6899396 0.19276382,4.5415183 0.31569624,4.4693596 l 0.0645166,-0.03794 3.89825596,-0.00728 3.8982545,-0.00729 0.059045,-0.036845 C 8.352666,4.3070208 8.4089024,4.2019567 8.4291903,4.0404572 8.4717622,3.70168 8.2659396,3.384153 8.0023649,3.4386915 7.9243612,3.4551076 7.8642478,3.4925005 7.8008854,3.5649143 7.6699439,3.7144848 7.4991049,3.7363731 7.3619413,3.620912 7.2307557,3.5103758 7.1861248,3.2737627 7.2590822,3.0753994 7.2982142,2.9690585 7.4688156,2.7919817 7.6177894,2.7032428 7.7750804,2.6094874 7.8390116,2.5938009 8.0631433,2.5936186 c 0.1849731,-1.279e-4 0.2015244,0.00182 0.2891423,0.036116 0.3000282,0.1169205 0.5418511,0.3748929 0.6805418,0.7261646 0.1270953,0.3219047 0.1355037,0.7520294 0.02142,1.096242 -0.1102962,0.3328307 -0.3690296,0.6331025 -0.6477402,0.7517375 -0.1808429,0.076974 0.064473,0.072779 -4.1383622,0.071867 -3.01293,-6.2e-4 -3.86722943,-0.00366 -3.90392906,-0.016417 z"
       id="path974"
       sodipodi:nodetypes="cssscccsssssssscsssccc" />
    <path
       style="fill:#6585aa;fill-opacity:1;stroke:#e4e7e7;stroke-width:0.188263;stroke-miterlimit:4;stroke-dasharray:none;stroke-opacity:0.9"
       d="M 6.6989574,0.47170172 C 6.5831791,0.52603351 6.4439248,0.62418616 6.3414043,0.72406325 6.2493045,0.81381859 6.12294,0.999427 6.1021531,1.0756745 6.0472332,1.277166 6.1659089,1.5099717 6.3671743,1.595999 6.4211077,1.619101 6.4548309,1.623329 6.5219974,1.615679 6.6412447,1.602094 6.6752262,1.582092 6.783437,1.4697261 6.8353809,1.4152001 6.8979361,1.3582587 6.9224215,1.3429646 7.0364137,1.2716886 7.247264,1.2557436 7.3715281,1.3079416 c 0.085319,0.036467 0.1966452,0.1320959 0.2444954,0.2101646 0.039451,0.064285 0.093167,0.2717138 0.092732,0.3581267 -7.362e-4,0.145502 -0.1054119,0.3519957 -0.2248817,0.4435976 L 7.4255558,2.3645935 3.8948958,2.776847 0.364236,3.1891005 0.3156506,3.2254945 C 0.248807,3.2754635 0.14550789,3.4225639 0.12396829,3.4985536 c -0.0238958,0.084203 -0.002699,0.2517545 0.0419967,0.3318975 0.0405996,0.072825 0.12839416,0.1586266 0.2063645,0.2019223 L 0.43384369,4.0665084 4.0274723,3.6571657 7.621103,3.2478227 7.712889,3.2012667 C 8.078892,3.0155706 8.3464976,2.6818473 8.4538724,2.2774506 8.5091272,2.0693457 8.5135625,1.9514571 8.4767637,1.6699546 8.4482511,1.4518273 8.4384785,1.4054028 8.400096,1.3085667 8.2533657,0.93761149 7.9540489,0.62348811 7.6072404,0.47646953 7.4034573,0.39016519 7.2434932,0.37288883 6.9582384,0.40679318 6.8282495,0.42224512 6.7820076,0.43491566 6.6990868,0.47282279 Z"
       id="path14726-8"
       inkscape:transform-center-x="4.4463361"
       inkscape:transform-center-y="5.4324206" />
  </g>
</svg>
