<?xml version="1.0" encoding="UTF-8" standalone="no"?>
<!-- Created with Inkscape (http://www.inkscape.org/) -->

<svg
   width="20"
   height="35"
   viewBox="0 0 5.2916669 9.2604187"
   version="1.1"
   id="svg2249"
   inkscape:version="1.1.1 (3bf5ae0d25, 2021-09-20)"
   sodipodi:docname="tempPlus.svg"
   xmlns:inkscape="http://www.inkscape.org/namespaces/inkscape"
   xmlns:sodipodi="http://sodipodi.sourceforge.net/DTD/sodipodi-0.dtd"
   xmlns="http://www.w3.org/2000/svg"
   xmlns:svg="http://www.w3.org/2000/svg">
  <sodipodi:namedview
     id="namedview2251"
     pagecolor="#ffffff"
     bordercolor="#666666"
     borderopacity="1.0"
     inkscape:pageshadow="2"
     inkscape:pageopacity="0.0"
     inkscape:pagecheckerboard="0"
     inkscape:document-units="px"
     showgrid="false"
     units="px"
     inkscape:zoom="17.375939"
     inkscape:cx="15.135873"
     inkscape:cy="17.006275"
     inkscape:window-width="2400"
     inkscape:window-height="1321"
     inkscape:window-x="2391"
     inkscape:window-y="-9"
     inkscape:window-maximized="1"
     inkscape:current-layer="layer1"
     height="35px" />
  <defs
     id="defs2246">
    <clipPath
       clipPathUnits="userSpaceOnUse"
       id="clipPath1825">
      <path
         d="m 7278.53,6813.28 h 20.78 v -5.79 h -20.78 z"
         id="path1823" />
    </clipPath>
  </defs>
  <g
     inkscape:label="Слой 1"
     inkscape:groupmode="layer"
     id="layer1"
     style="display:inline">
    <g
       id="g1799"
       transform="matrix(0.10457127,0,0,-0.11875679,2.5913848,6.0083842)"
       style="fill:#e1ebeb;fill-opacity:1">
      <path
         d="m 0,0 c 3.832,0 7.39,-1.134 10.39,-3.063 v 45.73 c 0,4.019 -3.287,7.305 -7.306,7.305 h -6.17 c -4.018,0 -7.305,-3.286 -7.305,-7.305 V -3.065 C -7.393,-1.134 -3.832,0 0,0"
         style="fill:#e1ebeb;fill-opacity:1;fill-rule:nonzero;stroke:none"
         id="path1801" />
    </g>
    <g
       id="g1803"
       transform="matrix(0.10457127,0,0,-0.105318,4.5886206,7.2186236)"
       style="fill:#e0ebeb;fill-opacity:1">
      <path
         d="m 0,0 c 0,-10.623 -8.612,-19.235 -19.236,-19.235 -10.625,0 -19.239,8.612 -19.239,19.235 0,10.625 8.614,19.239 19.239,19.239 C -8.612,19.239 0,10.625 0,0"
         style="fill:#e0ebeb;fill-opacity:1;fill-rule:nonzero;stroke:none"
         id="path1805" />
    </g>
    <g
       id="g1819"
       transform="matrix(0.10457127,0,0,-0.105318,-759.63435,722.46676)">
      <g
         id="g1821" />
      <g
         id="g1833">
        <g
           clip-path="url(#clipPath1825)"
           opacity="0.199997"
           id="g1831">
          <g
             transform="translate(7288.918,6813.2813)"
             id="g1829">
            <path
               d="m 0,0 c -3.759,0 -7.296,-0.948 -10.391,-2.611 v -3.178 c 2.998,1.932 6.559,3.065 10.391,3.065 3.832,0 7.39,-1.133 10.39,-3.063 v 3.176 C 7.295,-0.948 3.758,0 0,0"
               style="fill:#122c3d;fill-opacity:1;fill-rule:nonzero;stroke:none"
               id="path1827" />
          </g>
        </g>
      </g>
    </g>
    <g
       id="g1835"
       transform="matrix(0.13604137,0,0,-0.0662257,5.2309596,1.2998683)"
       style="fill:#e0ebeb;fill-opacity:1">
      <path
         d="m 0,0 c 0,-0.353 -0.287,-0.642 -0.64,-0.642 h -9.46 c -0.353,0 -0.64,0.289 -0.64,0.642 v 3.687 c 0,0.353 0.287,0.642 0.64,0.642 h 9.46 C -0.287,4.329 0,4.04 0,3.687 Z"
         style="fill:#e0ebeb;fill-opacity:1;fill-rule:nonzero;stroke:none"
         id="path1837" />
    </g>
    <g
       id="g1839"
       transform="matrix(0.17849909,0,0,-0.05628762,4.8290732,2.3728728)"
       style="fill:#e0ebeb;fill-opacity:1">
      <path
         d="m 0,0 c 0,-0.353 -0.287,-0.64 -0.641,-0.64 h -4.81 c -0.354,0 -0.641,0.287 -0.641,0.64 v 3.687 c 0,0.353 0.287,0.642 0.641,0.642 h 4.81 C -0.287,4.329 0,4.04 0,3.687 Z"
         style="fill:#e0ebeb;fill-opacity:1;fill-rule:nonzero;stroke:none"
         id="path1841" />
    </g>
    <g
       id="g1843"
       transform="matrix(0.13739952,0,0,-0.05568191,4.635026,3.3521453)"
       style="fill:#e0eaea;fill-opacity:1">
      <path
         d="m 0,0 c 0,-0.353 -0.287,-0.642 -0.641,-0.642 h -4.81 c -0.354,0 -0.641,0.289 -0.641,0.642 v 3.687 c 0,0.353 0.287,0.64 0.641,0.64 h 4.81 C -0.287,4.327 0,4.04 0,3.687 Z"
         style="fill:#e0eaea;fill-opacity:1;fill-rule:nonzero;stroke:none"
         id="path1845" />
    </g>
    <g
       id="g1847"
       transform="matrix(0.14045208,0,0,-0.06967565,5.2642479,4.5657761)"
       style="fill:#e0eaea;fill-opacity:1">
      <path
         d="m 0,0 c 0,-0.353 -0.287,-0.642 -0.64,-0.642 h -9.46 c -0.353,0 -0.64,0.289 -0.64,0.642 v 3.687 c 0,0.353 0.287,0.642 0.64,0.642 h 9.46 C -0.287,4.329 0,4.04 0,3.687 Z"
         style="fill:#e0eaea;fill-opacity:1;fill-rule:nonzero;stroke:none"
         id="path1849" />
    </g>
    <path
       style="fill:#e57900;fill-opacity:0.6;stroke:#3e84ad;stroke-width:0.00891721;stroke-opacity:0.607692"
       d="M 2.4674927,8.7130858 C 2.453752,8.7113158 2.4031621,8.7050158 2.3550711,8.6991628 2.1967474,8.6797988 1.9708735,8.6037638 1.8262739,8.5211594 1.4618222,8.3129624 1.2028577,7.9833433 1.0893252,7.583146 1.0418363,7.415748 1.035144,7.3625057 1.0352864,7.1531892 1.035384,7.0093249 1.0388471,6.9489369 1.0505189,6.8875889 1.154849,6.3392133 1.5135302,5.9032264 2.0258627,5.7020317 2.6001984,5.4764879 3.276034,5.6311147 3.69895,6.0848217 3.914136,6.315675 4.0501533,6.589954 4.1043884,6.9023885 4.1292311,7.0454986 4.1294391,7.2695589 4.104859,7.4105029 4.0352595,7.80964 3.8272312,8.1568673 3.5125926,8.3990759 3.4173758,8.4723739 3.22924,8.5769094 3.1170356,8.6188627 2.9172233,8.6935727 2.6342755,8.7346177 2.4674894,8.7130867 Z"
       id="path20198" />
    <path
       style="fill:#d67300;fill-opacity:0.6;stroke:#3e84ad;stroke-width:0.00891721;stroke-opacity:0.607692"
       d="m 1.7889044,4.9546048 c -0.00276,-0.011817 -0.00507,-0.3383815 -0.00513,-0.7257001 L 1.7836557,3.5246896 h 0.8247699 0.8247699 l -0.00244,0.7201349 c -0.00133,0.3960745 -0.00505,0.7231472 -0.00826,0.7268287 -0.00321,0.00368 -0.065049,-0.010906 -0.1374087,-0.032415 -0.2027564,-0.060272 -0.2984324,-0.076059 -0.5384491,-0.088847 -0.3379116,-0.018004 -0.5489061,0.00671 -0.8652435,0.1013719 -0.044714,0.01338 -0.082687,0.024326 -0.084386,0.024326 -0.0017,0 -0.00535,-0.00967 -0.00811,-0.021484 z"
       id="path20276" />
    <path
       style="fill:#e57a00;fill-opacity:0.6;stroke:#ccf5ff;stroke-width:0.0268738;stroke-miterlimit:4;stroke-dasharray:none;stroke-opacity:0.9"
       d="m 3.806612,2.3650716 c -0.025249,-0.00247 -0.028268,-0.01339 -0.028104,-0.1015811 1.302e-4,-0.069653 0.00172,-0.079795 0.013431,-0.085747 0.012233,-0.00622 0.048024,-0.00685 0.4522019,-0.00795 0.2414054,-6.614e-4 0.4604979,-7.95e-5 0.4868725,0.00129 0.043639,0.00226 0.048466,0.00342 0.053642,0.012889 0.00735,0.013449 0.00743,0.1553393 9.22e-5,0.1687382 -0.00405,0.00738 -0.01227,0.010899 -0.029669,0.012667 -0.026505,0.00269 -0.920772,0.00241 -0.9484666,-3.061e-4 z"
       id="path20315" />
    <path
       style="fill:#e57b00;fill-opacity:0.6;stroke:#ccf7ff;stroke-width:0.0335842;stroke-miterlimit:4;stroke-dasharray:none;stroke-opacity:0.896154"
       d="M 3.8910346,1.2918496 C 3.8210821,1.2883706 3.8158005,1.2801444 3.8158005,1.174664 V 1.08317 l 0.028045,-0.010412 c 0.022355,-0.0083 0.045572,-0.011037 0.1144196,-0.013491 0.1158818,-0.00413 1.1736718,-5.266e-4 1.1968511,0.00408 0.02924,0.00581 0.033715,0.02178 0.033715,0.1203239 0,0.083271 -0.00194,0.093828 -0.018567,0.1010089 -0.017375,0.0075 -0.057775,0.00805 -0.6293064,0.00857 -0.3359058,3.034e-4 -0.6283712,-3.266e-4 -0.6499242,-0.0014 z"
       id="path20432" />
    <path
       style="fill:#e57b00;fill-opacity:0.6;stroke:#f9feff;stroke-width:0.000728159;stroke-miterlimit:4;stroke-dasharray:none;stroke-opacity:1"
       d="M 3.9280241,4.574595 C 3.8051551,4.571855 3.8023414,4.569285 3.8024433,4.4593392 c 9.17e-5,-0.098765 0.00818,-0.1270326 0.038664,-0.1352048 0.045641,-0.012237 0.07042,-0.012804 0.6023247,-0.013851 0.2769572,-5.463e-4 0.553942,1.775e-4 0.6173386,0.00161 0.1039879,0.00235 0.1174807,0.00326 0.1410123,0.00958 0.025372,0.0068 0.026252,0.0082 0.035179,0.056365 0.00556,0.030022 0.00556,0.076622 -2.01e-5,0.1188323 -0.00806,0.061014 -0.011344,0.07002 -0.026962,0.074209 -0.016639,0.00446 -0.056027,0.00478 -0.6134122,0.00505 -0.3275975,1.648e-4 -0.628439,-4.397e-4 -0.6685365,-0.00133 z"
       id="path25140" />
    <path
       style="fill:#e57b00;fill-opacity:0.6;stroke:#ccf6ff;stroke-width:0.0311169;stroke-miterlimit:4;stroke-dasharray:none;stroke-opacity:0.9"
       d="m 3.8895426,3.3413288 c -0.00587,-4.32e-4 -0.016257,-0.00121 -0.023065,-0.00173 -0.00777,-5.892e-4 -0.015719,-0.00352 -0.021376,-0.0079 -0.00795,-0.00615 -0.00893,-0.015124 -0.00848,-0.077292 5.779e-4,-0.081362 0.00197,-0.084771 0.037019,-0.090955 0.020561,-0.00363 0.031905,-0.00374 0.347239,-0.00374 0.2428118,0 0.3296603,5.813e-4 0.3403984,0.00226 0.00792,0.00125 0.01875,0.00458 0.024046,0.00743 0.00889,0.00477 0.00961,0.01106 0.00934,0.083068 -1.999e-4,0.052926 -0.00221,0.079475 -0.00625,0.082795 -0.00444,0.00365 -0.011181,0.00519 -0.026425,0.00607 -0.022303,0.0013 -0.6550026,0.0013 -0.6724284,-3e-7 z"
       id="path25179" />
  </g>
</svg>
