<?xml version="1.0" encoding="UTF-8" standalone="no"?>
<!-- Created with Inkscape (http://www.inkscape.org/) -->

<svg
   width="20"
   height="35"
   viewBox="0 0 5.2916669 9.2604187"
   version="1.1"
   id="svg2249"
   inkscape:version="1.1.1 (3bf5ae0d25, 2021-09-20)"
   sodipodi:docname="tempMinus.svg"
   xmlns:inkscape="http://www.inkscape.org/namespaces/inkscape"
   xmlns:sodipodi="http://sodipodi.sourceforge.net/DTD/sodipodi-0.dtd"
   xmlns="http://www.w3.org/2000/svg"
   xmlns:svg="http://www.w3.org/2000/svg">
  <sodipodi:namedview
     id="namedview2251"
     pagecolor="#ffffff"
     bordercolor="#666666"
     borderopacity="1.0"
     inkscape:pageshadow="2"
     inkscape:pageopacity="0.0"
     inkscape:pagecheckerboard="0"
     inkscape:document-units="px"
     showgrid="false"
     units="px"
     inkscape:zoom="12.286644"
     inkscape:cx="13.266438"
     inkscape:cy="15.50464"
     inkscape:window-width="2400"
     inkscape:window-height="1321"
     inkscape:window-x="2391"
     inkscape:window-y="-9"
     inkscape:window-maximized="1"
     inkscape:current-layer="layer1"
     height="35px" />
  <defs
     id="defs2246">
    <clipPath
       clipPathUnits="userSpaceOnUse"
       id="clipPath1825">
      <path
         d="m 7278.53,6813.28 h 20.78 v -5.79 h -20.78 z"
         id="path1823" />
    </clipPath>
  </defs>
  <g
     inkscape:label="Слой 1"
     inkscape:groupmode="layer"
     id="layer1"
     style="display:inline">
    <g
       id="g1799"
       transform="matrix(0.10396176,0,0,-0.11875679,2.1978139,6.0083842)"
       style="fill:#e1ebeb;fill-opacity:1">
      <path
         d="m 0,0 c 3.832,0 7.39,-1.134 10.39,-3.063 v 45.73 c 0,4.019 -3.287,7.305 -7.306,7.305 h -6.17 c -4.018,0 -7.305,-3.286 -7.305,-7.305 V -3.065 C -7.393,-1.134 -3.832,0 0,0"
         style="fill:#e1ebeb;fill-opacity:1;fill-rule:nonzero;stroke:none"
         id="path1801" />
    </g>
    <g
       id="g1803"
       transform="matrix(0.10396176,0,0,-0.105318,4.1834083,7.2186236)"
       style="fill:#e0ebeb;fill-opacity:1">
      <path
         d="m 0,0 c 0,-10.623 -8.612,-19.235 -19.236,-19.235 -10.625,0 -19.239,8.612 -19.239,19.235 0,10.625 8.614,19.239 19.239,19.239 C -8.612,19.239 0,10.625 0,0"
         style="fill:#e0ebeb;fill-opacity:1;fill-rule:nonzero;stroke:none"
         id="path1805" />
    </g>
    <g
       id="g1819"
       transform="matrix(0.10396176,0,0,-0.105318,-755.58513,722.46676)">
      <g
         id="g1821" />
      <g
         id="g1833">
        <g
           clip-path="url(#clipPath1825)"
           opacity="0.199997"
           id="g1831">
          <g
             transform="translate(7288.918,6813.2813)"
             id="g1829">
            <path
               d="m 0,0 c -3.759,0 -7.296,-0.948 -10.391,-2.611 v -3.178 c 2.998,1.932 6.559,3.065 10.391,3.065 3.832,0 7.39,-1.133 10.39,-3.063 v 3.176 C 7.295,-0.948 3.758,0 0,0"
               style="fill:#122c3d;fill-opacity:1;fill-rule:nonzero;stroke:none"
               id="path1827" />
          </g>
        </g>
      </g>
    </g>
    <g
       id="g1835"
       transform="matrix(0.13524841,0,0,-0.0662257,4.8220034,1.2998683)"
       style="fill:#e0ebeb;fill-opacity:1">
      <path
         d="m 0,0 c 0,-0.353 -0.287,-0.642 -0.64,-0.642 h -9.46 c -0.353,0 -0.64,0.289 -0.64,0.642 v 3.687 c 0,0.353 0.287,0.642 0.64,0.642 h 9.46 C -0.287,4.329 0,4.04 0,3.687 Z"
         style="fill:#e0ebeb;fill-opacity:1;fill-rule:nonzero;stroke:none"
         id="path1837" />
    </g>
    <g
       id="g1839"
       transform="matrix(0.17745867,0,0,-0.05628762,4.4224595,2.3728728)"
       style="fill:#e0ebeb;fill-opacity:1">
      <path
         d="m 0,0 c 0,-0.353 -0.287,-0.64 -0.641,-0.64 h -4.81 c -0.354,0 -0.641,0.287 -0.641,0.64 v 3.687 c 0,0.353 0.287,0.642 0.641,0.642 h 4.81 C -0.287,4.329 0,4.04 0,3.687 Z"
         style="fill:#e0ebeb;fill-opacity:1;fill-rule:nonzero;stroke:none"
         id="path1841" />
    </g>
    <g
       id="g1843"
       transform="matrix(0.13659866,0,0,-0.05568191,4.2295433,3.3521453)"
       style="fill:#e0eaea;fill-opacity:1">
      <path
         d="m 0,0 c 0,-0.353 -0.287,-0.642 -0.641,-0.642 h -4.81 c -0.354,0 -0.641,0.289 -0.641,0.642 v 3.687 c 0,0.353 0.287,0.64 0.641,0.64 h 4.81 C -0.287,4.327 0,4.04 0,3.687 Z"
         style="fill:#e0eaea;fill-opacity:1;fill-rule:nonzero;stroke:none"
         id="path1845" />
    </g>
    <g
       id="g1847"
       transform="matrix(0.13963343,0,0,-0.06967565,4.8550976,4.5657761)"
       style="fill:#e0eaea;fill-opacity:1">
      <path
         d="m 0,0 c 0,-0.353 -0.287,-0.642 -0.64,-0.642 h -9.46 c -0.353,0 -0.64,0.289 -0.64,0.642 v 3.687 c 0,0.353 0.287,0.642 0.64,0.642 h 9.46 C -0.287,4.329 0,4.04 0,3.687 Z"
         style="fill:#e0eaea;fill-opacity:1;fill-rule:nonzero;stroke:none"
         id="path1849" />
    </g>
    <path
       style="fill:#4ba0cb;fill-opacity:0.796853;stroke:#3e84ad;stroke-width:0.00889119;stroke-opacity:0.607692"
       d="M 2.0746439,8.7130858 C 2.0609833,8.7113158 2.0106883,8.7050158 1.9628776,8.6991628 1.8054767,8.6797988 1.5809193,8.6037638 1.4371626,8.5211594 1.0748351,8.3129624 0.81738006,7.9833433 0.70450932,7.583146 0.65729726,7.415748 0.65064396,7.3625057 0.65078556,7.1531892 0.65088257,7.0093249 0.65432553,6.9489369 0.66592925,6.8875889 0.76965116,6.3392133 1.1262418,5.9032264 1.635588,5.7020317 2.2065761,5.4764879 2.8784724,5.6311147 3.2989234,6.0848217 3.5128552,6.315675 3.6480796,6.589954 3.7019986,6.9023885 3.7266965,7.0454986 3.7269034,7.2695589 3.7024665,7.4105029 3.6332727,7.80964 3.4264569,8.1568673 3.1136522,8.3990759 3.0189904,8.4723739 2.8319512,8.5769094 2.7204008,8.6188627 2.5217531,8.6935727 2.2404546,8.7346177 2.0746407,8.7130867 Z"
       id="path20198" />
    <path
       style="fill:#4ea2cb;fill-opacity:0.8;stroke:#3e84ad;stroke-width:0.00889119;stroke-opacity:0.607692"
       d="m 1.4000109,4.9546048 c -0.00275,-0.011817 -0.00504,-0.3383815 -0.0051,-0.7257001 L 1.3947928,3.5246896 H 2.2147554 3.034718 L 3.032298,4.2448245 C 3.030978,4.640899 3.027268,4.9679717 3.024078,4.9716532 3.020888,4.9753332 2.959412,4.9607472 2.8874748,4.9392382 2.6859001,4.8789662 2.5907819,4.8631792 2.3521641,4.8503912 c -0.335942,-0.018004 -0.5457066,0.00671 -0.8602002,0.1013719 -0.044454,0.01338 -0.082205,0.024326 -0.083893,0.024326 -0.00169,0 -0.00531,-0.00967 -0.00806,-0.021484 z"
       id="path20276" />
    <path
       style="fill:#4ea2cb;fill-opacity:0.8;stroke:#ccf5ff;stroke-width:0.0267953;stroke-miterlimit:4;stroke-dasharray:none;stroke-opacity:0.9"
       d="m 3.4059579,2.3650716 c -0.025102,-0.00247 -0.028104,-0.01339 -0.02794,-0.1015811 1.296e-4,-0.069653 0.00171,-0.079795 0.013354,-0.085747 0.012162,-0.00622 0.047744,-0.00685 0.4495661,-0.00795 0.2399983,-6.614e-4 0.4578138,-7.95e-5 0.4840346,0.00129 0.043384,0.00226 0.048183,0.00342 0.053329,0.012889 0.00731,0.013449 0.00738,0.1553393 9.17e-5,0.1687382 -0.00403,0.00738 -0.012199,0.010899 -0.029496,0.012667 -0.026351,0.00269 -0.9154051,0.00241 -0.9429377,-3.065e-4 z"
       id="path20315" />
    <path
       style="fill:#4ea2cb;fill-opacity:0.8;stroke:#ccf7ff;stroke-width:0.0334862;stroke-miterlimit:4;stroke-dasharray:none;stroke-opacity:0.896154"
       d="M 3.4898884,1.2918496 C 3.4203436,1.2883706 3.4150927,1.2801444 3.4150927,1.174664 V 1.08317 l 0.027882,-0.010412 c 0.022225,-0.0083 0.045306,-0.011037 0.1137527,-0.013491 0.1152062,-0.00413 1.1668307,-5.266e-4 1.189875,0.00408 0.029069,0.00581 0.033518,0.02178 0.033518,0.1203239 0,0.083271 -0.00193,0.093828 -0.018458,0.1010089 -0.017274,0.0075 -0.057438,0.00805 -0.6256385,0.00857 -0.3339478,3.034e-4 -0.6247085,-3.266e-4 -0.6461355,-0.0014 z"
       id="path20432" />
    <path
       style="fill:#4ea2cb;fill-opacity:0.8;stroke:#f9feff;stroke-width:0.000726033;stroke-miterlimit:4;stroke-dasharray:none;stroke-opacity:1"
       d="M 3.5266623,4.574595 C 3.4045095,4.571855 3.4017121,4.569285 3.4018135,4.4593392 c 9.12e-5,-0.098765 0.00813,-0.1270326 0.038438,-0.1352048 0.045375,-0.012237 0.07001,-0.012804 0.5988139,-0.013851 0.2753429,-5.463e-4 0.5507133,1.775e-4 0.6137403,0.00161 0.1033818,0.00235 0.116796,0.00326 0.1401905,0.00958 0.025225,0.0068 0.026099,0.0082 0.034974,0.056365 0.00553,0.030022 0.00553,0.076622 -2.01e-5,0.1188323 -0.00802,0.061014 -0.011277,0.07002 -0.026804,0.074209 -0.016542,0.00446 -0.055701,0.00478 -0.6098368,0.00505 -0.325688,1.648e-4 -0.624776,-4.397e-4 -0.6646397,-0.00133 z"
       id="path25140" />
    <path
       style="fill:#4ea2cb;fill-opacity:0.8;stroke:#ccf6ff;stroke-width:0.0310261;stroke-miterlimit:4;stroke-dasharray:none;stroke-opacity:0.9"
       d="m 3.4884051,3.3413288 c -0.00584,-4.32e-4 -0.016163,-0.00121 -0.022931,-0.00173 -0.00773,-5.892e-4 -0.015627,-0.00352 -0.021252,-0.0079 -0.00791,-0.00615 -0.00888,-0.015124 -0.00843,-0.077292 5.745e-4,-0.081362 0.00196,-0.084771 0.036804,-0.090955 0.020442,-0.00363 0.031719,-0.00374 0.3452149,-0.00374 0.2413966,0 0.3277389,5.813e-4 0.3384144,0.00226 0.00788,0.00125 0.018641,0.00458 0.023906,0.00743 0.00885,0.00477 0.00955,0.01106 0.00929,0.083068 -1.986e-4,0.052926 -0.0022,0.079475 -0.00622,0.082795 -0.00441,0.00365 -0.011116,0.00519 -0.026271,0.00607 -0.022173,0.0013 -0.6511848,0.0013 -0.668509,-3e-7 z"
       id="path25179" />
  </g>
</svg>
